ply
format ascii 1.0
comment VCGLIB generated
element vertex 126
property float x
property float y
property float z
element face 248
property list uchar int vertex_indices
end_header
-0.2244017 -0.4488034 -0.322019
-0.2244017 -0.4999965 -0.2244017
-0.3220181 -0.4488034 -0.2244017
-0.2244017 -0.4999965 -5.960464e-08
-0.322019 -0.4488034 -5.960464e-08
-0.2244017 -0.499994 0.2244016
-0.3220154 -0.4488034 0.2244016
-0.2244017 -0.4488034 0.3220159
-5.960464e-08 -0.4488034 -0.322019
-5.960464e-08 -0.4999965 -0.2244017
-5.960464e-08 -0.5 -5.960464e-08
-5.960464e-08 -0.4999964 0.2244016
-5.960464e-08 -0.4488034 0.3220189
0.2244016 -0.4488034 -0.3220151
0.2244016 -0.499994 -0.2244017
0.2244016 -0.4999964 -5.960464e-08
0.2244016 -0.4999964 0.2244016
0.2244016 -0.4488034 0.3220184
0.322015 -0.4488034 -0.2244017
0.3220189 -0.4488034 -5.960464e-08
0.3220187 -0.4488034 0.2244016
-0.4488034 -0.2244017 -0.3220159
-0.4488034 -0.3220154 -0.2244017
-0.499994 -0.2244017 -0.2244017
-0.4488034 -0.322019 -5.960464e-08
-0.4999965 -0.2244017 -5.960464e-08
-0.4488034 -0.322018 0.2244016
-0.4999964 -0.2244017 0.2244016
-0.4488034 -0.2244017 0.3220187
-0.2244017 -0.2244017 -0.4999965
-0.2244017 -0.322019 -0.4488034
-0.3220187 -0.2244017 -0.4488034
-0.3220192 -0.2244017 0.4488032
-0.2244017 -0.3220189 0.4488032
-0.2244017 -0.2244017 0.4999964
-5.960464e-08 -0.2244017 -0.4999965
-5.960464e-08 -0.322019 -0.4488034
-5.960464e-08 -0.3220192 0.4488032
-5.960464e-08 -0.2244017 0.4999964
0.2244016 -0.2244017 -0.499994
0.2244016 -0.3220151 -0.4488034
0.2244016 -0.3220161 0.4488032
0.2244016 -0.2244017 0.499994
0.3220149 -0.2244017 -0.4488034
0.4488032 -0.2244017 -0.3220152
0.4488032 -0.3220153 -0.2244017
0.4488032 -0.3220192 -5.960464e-08
0.4488032 -0.3220192 0.2244016
0.4488032 -0.2244017 0.3220182
0.3220156 -0.2244017 0.4488032
0.499994 -0.2244017 -0.2244017
0.4999964 -0.2244017 -5.960464e-08
0.4999964 -0.2244017 0.2244016
-0.4488034 -5.960464e-08 -0.322019
-0.4999965 -5.960464e-08 -0.2244017
-0.5 -5.960464e-08 -5.960464e-08
-0.4999964 -5.960464e-08 0.2244016
-0.4488034 -5.960464e-08 0.3220189
-0.2244017 -5.960464e-08 -0.4999965
-0.322019 -5.960464e-08 -0.4488034
-0.3220192 -5.960464e-08 0.4488032
-0.2244017 -5.960464e-08 0.4999964
-5.960464e-08 -5.960464e-08 -0.5
-5.960464e-08 -5.960464e-08 0.4999999
0.2244016 -5.960464e-08 -0.4999964
0.2244016 -5.960464e-08 0.4999964
0.3220189 -5.960464e-08 -0.4488034
0.4488032 -5.960464e-08 -0.3220192
0.4488032 -5.960464e-08 0.3220192
0.3220192 -5.960464e-08 0.4488032
0.4999964 -5.960464e-08 -0.2244017
0.4999999 -5.960464e-08 -5.960464e-08
0.4999964 -5.960464e-08 0.2244016
-0.4488034 0.2244016 -0.3220186
-0.4999964 0.2244016 -0.2244017
-0.4999964 0.2244016 -5.960464e-08
-0.499994 0.2244016 0.2244016
-0.4488034 0.2244016 0.322015
-0.2244017 0.2244016 -0.499994
-0.322016 0.2244016 -0.4488034
-0.3220153 0.2244016 0.4488032
-0.2244017 0.2244016 0.499994
-5.960464e-08 0.2244016 -0.4999964
-5.960464e-08 0.2244016 0.4999964
0.2244016 0.2244016 -0.4999964
0.2244016 0.2244016 0.4999964
0.3220187 0.2244016 -0.4488034
0.4488032 0.2244016 -0.3220192
0.4488032 0.2244016 0.3220156
0.3220182 0.2244016 0.4488032
0.4999964 0.2244016 -0.2244017
0.4999964 0.2244016 -5.960464e-08
0.4999941 0.2244016 0.2244016
-0.4488034 0.3220187 -0.2244017
-0.4488034 0.3220189 -5.960464e-08
-0.4488034 0.322015 0.2244016
-0.2244017 0.3220152 -0.4488034
-0.2244017 0.4488032 -0.3220183
-0.3220192 0.4488032 -0.2244017
-0.3220192 0.4488032 -5.960464e-08
-0.3220153 0.4488032 0.2244016
-0.2244017 0.3220152 0.4488032
-0.2244017 0.4488032 0.3220151
-5.960464e-08 0.3220189 -0.4488034
-5.960464e-08 0.4488032 -0.3220192
-5.960464e-08 0.3220192 0.4488032
-5.960464e-08 0.4488032 0.3220192
0.2244016 0.3220179 -0.4488034
0.2244016 0.4488032 -0.3220156
0.2244016 0.3220192 0.4488032
0.2244016 0.4488032 0.3220192
0.3220161 0.4488032 -0.2244017
0.4488032 0.3220187 -0.2244017
0.3220192 0.4488032 -5.960464e-08
0.4488032 0.3220192 -5.960464e-08
0.3220189 0.4488032 0.2244016
0.4488032 0.3220162 0.2244016
-0.2244017 0.4999964 -0.2244017
-0.2244017 0.4999964 -5.960464e-08
-0.2244017 0.499994 0.2244016
-5.960464e-08 0.4999964 -0.2244017
-5.960464e-08 0.4999999 -5.960464e-08
-5.960464e-08 0.4999964 0.2244016
0.2244016 0.499994 -0.2244017
0.2244016 0.4999964 -5.960464e-08
0.2244016 0.4999964 0.2244016
3 0 1 2
3 1 3 4
3 2 1 4
3 3 5 6
3 4 3 6
3 5 7 6
3 0 8 9
3 1 0 9
3 9 10 1
3 1 10 3
3 10 11 3
3 3 11 5
3 5 11 12
3 7 5 12
3 8 13 14
3 9 8 14
3 14 15 9
3 9 15 10
3 15 16 10
3 10 16 11
3 11 16 17
3 12 11 17
3 14 13 18
3 15 14 18
3 19 15 18
3 16 15 19
3 20 16 19
3 16 20 17
3 21 22 23
3 22 24 25
3 23 22 25
3 24 26 27
3 25 24 27
3 26 28 27
3 29 30 31
3 2 22 21
3 0 2 21
3 0 21 31
3 0 31 30
3 4 22 2
3 24 22 4
3 6 24 4
3 26 24 6
3 26 32 28
3 6 32 26
3 6 33 32
3 6 7 33
3 33 34 32
3 29 35 36
3 30 29 36
3 36 0 30
3 8 0 36
3 12 33 7
3 37 33 12
3 33 37 38
3 34 33 38
3 35 39 40
3 36 35 40
3 40 8 36
3 13 8 40
3 17 37 12
3 41 37 17
3 37 41 42
3 38 37 42
3 40 39 43
3 43 44 45
3 40 43 45
3 40 45 18
3 40 18 13
3 18 46 19
3 45 46 18
3 19 47 20
3 46 47 19
3 48 49 41
3 47 48 41
3 47 41 17
3 47 17 20
3 41 49 42
3 45 44 50
3 46 45 50
3 51 46 50
3 47 46 51
3 52 47 51
3 47 52 48
3 53 21 23
3 54 53 23
3 23 25 54
3 25 55 54
3 25 27 55
3 27 56 55
3 28 57 56
3 27 28 56
3 58 29 31
3 59 58 31
3 31 53 59
3 21 53 31
3 60 28 32
3 57 28 60
3 34 61 60
3 32 34 60
3 35 29 62
3 62 29 58
3 38 63 34
3 63 61 34
3 39 35 64
3 64 35 62
3 42 65 38
3 65 63 38
3 66 43 39
3 64 66 39
3 44 66 67
3 43 66 44
3 68 49 48
3 69 49 68
3 49 69 65
3 42 49 65
3 70 50 44
3 67 70 44
3 50 70 51
3 51 70 71
3 51 71 52
3 52 71 72
3 52 72 68
3 48 52 68
3 73 53 54
3 74 73 54
3 54 55 74
3 55 75 74
3 55 56 75
3 56 76 75
3 57 77 76
3 56 57 76
3 78 58 59
3 79 78 59
3 59 73 79
3 53 73 59
3 80 57 60
3 77 57 80
3 61 81 80
3 60 61 80
3 62 58 82
3 82 58 78
3 63 83 61
3 83 81 61
3 64 62 84
3 84 62 82
3 65 85 63
3 85 83 63
3 86 66 64
3 84 86 64
3 67 86 87
3 66 86 67
3 88 69 68
3 89 69 88
3 69 89 85
3 65 69 85
3 90 70 67
3 87 90 67
3 70 90 71
3 71 90 91
3 71 91 72
3 72 91 92
3 72 92 88
3 68 72 88
3 73 74 93
3 74 75 94
3 93 74 94
3 75 76 95
3 94 75 95
3 76 77 95
3 78 79 96
3 97 93 98
3 96 93 97
3 96 73 93
3 96 79 73
3 94 98 93
3 99 98 94
3 95 99 94
3 100 99 95
3 100 101 102
3 95 101 100
3 95 80 101
3 95 77 80
3 80 81 101
3 82 78 96
3 103 82 96
3 96 104 103
3 97 104 96
3 102 105 106
3 101 105 102
3 105 101 81
3 83 105 81
3 84 82 103
3 107 84 103
3 103 108 107
3 104 108 103
3 106 109 110
3 105 109 106
3 109 105 83
3 85 109 83
3 86 84 107
3 107 108 111
3 86 107 111
3 86 111 112
3 86 112 87
3 112 113 114
3 111 113 112
3 114 115 116
3 113 115 114
3 89 110 109
3 88 110 89
3 88 115 110
3 88 116 115
3 89 109 85
3 90 87 112
3 91 90 112
3 114 91 112
3 92 91 114
3 116 92 114
3 92 116 88
3 97 98 117
3 98 99 118
3 117 98 118
3 99 100 119
3 118 99 119
3 100 102 119
3 104 97 117
3 120 104 117
3 120 117 121
3 117 118 121
3 121 118 122
3 118 119 122
3 122 119 102
3 106 122 102
3 108 104 120
3 123 108 120
3 123 120 124
3 120 121 124
3 124 121 125
3 121 122 125
3 125 122 106
3 110 125 106
3 111 108 123
3 113 111 123
3 124 113 123
3 115 113 124
3 125 115 124
3 115 125 110 