ply
format ascii 1.0
comment VCGLIB generated
element vertex 126
property float x
property float y
property float z
element face 248
property list uchar int vertex_indices
end_header
-0.428211212158203125 0.225711405277252197 -0.45575714111328125
-0.3824310302734375 0.128608807921409607 -0.479499340057373047
-0.40142822265625 0.116204939782619476 -0.374634414911270142
-0.321050018072128296 -0.0915089845657348633 -0.4935150146484375
-0.370601654052734375 -0.10725276917219162 -0.404705673456192017
-0.178000137209892273 -0.0639267638325691223 -0.320515632629394531
-0.250466674566268921 -0.0178046766668558121 -0.258615016937255859
-0.136639907956123352 -0.0925462320446968079 -0.216760635375976562
-0.208104446530342102 0.251364797353744507 -0.430293887853622437
-0.175167083740234375 0.186540350317955017 -0.526655018329620361
-0.108974456787109375 -0.032118678092956543 -0.479027122259140015
-0.0551973991096019745 -0.238738611340522766 -0.396697044372558594
-0.0398406982421875 -0.266028165817260742 -0.289790630340576172
-0.000909169495571404696 0.310524672269821167 -0.363752216100692749
0.0366910286247730255 0.251984000205993652 -0.450710773468017578
0.0858306884765625 0.0358242280781269073 -0.413034766912460327
0.156642913818359375 -0.175273075699806213 -0.372975826263427734
0.179854080080986023 -0.258738666772842407 -0.30168914794921875
0.128541305661201477 0.284518390893936157 -0.388332217931747437
0.179865524172782898 0.0725584998726844788 -0.377738147974014282
0.242098495364189148 -0.136190921068191528 -0.32035064697265625
-0.630564391613006592 0.163349807262420654 -0.221769332885742188
-0.533283233642578125 0.0965723767876625061 -0.26700592041015625
-0.630293548107147217 0.0586392432451248169 -0.227749183773994446
-0.47309112548828125 -0.0999446138739585876 -0.304139286279678345
-0.533486664295196533 -0.140240475535392761 -0.19336874783039093
-0.326948791742324829 -0.137056604027748108 -0.18491680920124054
-0.346600860357284546 -0.236973777413368225 -0.177849769592285156
-0.238302871584892273 -0.204419985413551331 -0.125701591372489929
-0.467377990484237671 0.310883373022079468 -0.208194732666015625
-0.46326446533203125 0.337294965982437134 -0.318817138671875
-0.56981658935546875 0.340060681104660034 -0.232162639498710632
-0.15534210205078125 -0.127402931451797485 0.0378012657165527344
-0.07100677490234375 -0.080779246985912323 -0.0533814430236816406
-0.155022934079170227 -0.170419171452522278 -0.0657863616943359375
-0.285132080316543579 0.438120752573013306 -0.21083514392375946
-0.246827438473701477 0.379377484321594238 -0.304433494806289673
-0.0481236763298511505 -0.287312775850296021 -0.121162258088588715
-0.01364898681640625 -0.335659772157669067 -0.030893007293343544
-0.066037498414516449 0.448056608438491821 -0.193715885281562805
-0.0591646842658519745 0.336903542280197144 -0.194968700408935547
0.172718048095703125 -0.328809469938278198 -0.141535758972167969
0.192624405026435852 -0.251298874616622925 -0.0685998573899269104
0.0384890250861644745 0.43681672215461731 -0.179864883422851562
0.20523834228515625 0.372168064117431641 -0.149950504302978516
0.246152237057685852 0.275684565305709839 -0.245393440127372742
0.173313140869140625 0.0687588676810264587 -0.198400020599365234
0.351514190435409546 -0.0669324994087219238 -0.198735550045967102
0.389141082763671875 -0.160458773374557495 -0.105192817747592926
0.291072845458984375 -0.306394696235656738 -0.0859581604599952698
0.272467285394668579 0.288343071937561035 -0.132849857211112976
0.18618011474609375 0.0912223979830741882 -0.0865518227219581604
0.294750213623046875 -0.102682732045650482 -0.113166175782680511
-0.599427521228790283 0.187378033995628357 -0.0109491348266601562
-0.609893798828125 0.105973459780216217 -0.00415404653176665306
-0.560290038585662842 -0.115256465971469879 0.00203355145640671253
-0.3361663818359375 -0.235281690955162048 0.075590766966342926
-0.263223022222518921 -0.262634426355361938 0.0608669929206371307
-0.490580230951309204 0.361513972282409668 0.00991344451904296875
-0.589335143566131592 0.344346612691879272 -0.0212012920528650284
-0.156903579831123352 -0.291678696870803833 0.175383880734443665
-0.219371795654296875 -0.245159551501274109 0.139078930020332336
-0.280549377202987671 0.433649390935897827 0.0137033462524414062
0.0149294538423418999 -0.28729674220085144 0.174466446042060852
-0.077051796019077301 0.523376584053039551 0.0167098045349121094
0.236281082034111023 -0.243576943874359131 0.144113853573799133
0.014179229736328125 0.465152114629745483 0.0426238365471363068
0.141246795654296875 0.339487314224243164 0.06423187255859375
0.398066192865371704 -0.137504845857620239 0.116062797605991364
0.330855041742324829 -0.296111553907394409 0.149084404110908508
0.244664505124092102 0.353365868330001831 0.0903965607285499573
0.293505340814590454 0.132486194372177124 0.108948707580566406
0.305440276861190796 -0.0898339152336120605 0.11855538934469223
-0.702803313732147217 0.234612360596656799 0.180052593350410461
-0.727616608142852783 0.136849075555801392 0.211976364254951477
-0.546092987060546875 0.068821348249912262 0.115578651428222656
-0.31768798828125 -0.00365930981934070587 0.163028404116630554
-0.2569427490234375 -0.0936508700251579285 0.184828281402587891
-0.528453826904296875 0.467183798551559448 0.198714420199394226
-0.56717681884765625 0.361566156148910522 0.203575447201728821
-0.081464134156703949 -0.0656510666012763977 0.166882038116455078
-0.117308296263217926 -0.0705336779356002808 0.240769073367118835
-0.30384063720703125 0.491138547658920288 0.226038768887519836
0.04306793212890625 -0.162593796849250793 0.35125461220741272
-0.0837249755859375 0.519874751567840576 0.243852928280830383
0.249874114990234375 -0.157691493630409241 0.335101276636123657
-0.076254524290561676 0.403897613286972046 0.240955352783203125
0.081373848021030426 0.342615842819213867 0.280641555786132812
0.489159911870956421 -0.0507247112691402435 0.295159012079238892
0.386347442865371704 -0.145292952656745911 0.288059383630752563
0.182927444577217102 0.36226189136505127 0.310537338256835938
0.250311523675918579 0.132749482989311218 0.326182037591934204
0.382596343755722046 -0.0675716251134872437 0.32609972357749939
-0.635894775390625 0.166259482502937317 0.28281053900718689
-0.456384032964706421 0.0658561140298843384 0.190384551882743835
-0.301743835210800171 0.000560751708690077066 0.0759876593947410583
-0.531766235828399658 0.442841082811355591 0.314222186803817749
-0.489588409662246704 0.269070059061050415 0.437010437250137329
-0.49151611328125 0.136211857199668884 0.410841614007949829
-0.287840515375137329 0.136489510536193848 0.303504139184951782
-0.280747741460800171 -0.0610218234360218048 0.271537929773330688
0.00229136156849563122 -0.00768318912014365196 0.225157573819160461
-0.167544052004814148 -0.0508789680898189545 0.24138815701007843
-0.308184295892715454 0.417188137769699097 0.314042091369628906
-0.303368896245956421 0.376125693321228027 0.520647227764129639
0.069257102906703949 -0.0638485997915267944 0.411667346954345703
-0.0258089695125818253 -0.0786221995949745178 0.240072086453437805
-0.091073356568813324 0.473231524229049683 0.353543281555175781
-0.084927879273891449 0.377157062292098999 0.503187835216522217
0.29166412353515625 -0.123367480933666229 0.395812511444091797
0.140520736575126648 -0.0663256049156188965 0.338314682245254517
0.0313707999885082245 0.291240185499191284 0.53711467981338501
0.128294631838798523 0.323253214359283447 0.406056880950927734
0.0562044791877269745 0.0344424508512020111 0.476122945547103882
0.165256500244140625 0.102634914219379425 0.366383880376815796
0.209374740719795227 -0.147967562079429626 0.333556175231933594
0.3500823974609375 -0.00375489820726215839 0.312352806329727173
-0.389605194330215454 0.197580933570861816 0.392561435699462891
-0.241369888186454773 0.0746469870209693909 0.393580764532089233
-0.159275054931640625 -0.0754673704504966736 0.315109103918075562
-0.194361373782157898 0.176112666726112366 0.541883885860443115
-0.130213424563407898 -0.00881419982761144638 0.361025959253311157
0.0149943036958575249 -0.143489465117454529 0.318614959716796875
-0.0421511344611644745 0.244379624724388123 0.522588670253753662
0.07416534423828125 0.00443842774257063866 0.390663772821426392
0.15297698974609375 -0.105610005557537079 0.264379352331161499
3 0 1 2
3 1 3 4
3 2 1 4
3 3 5 6
3 4 3 6
3 5 7 6
3 0 8 9
3 1 0 9
3 9 10 1
3 1 10 3
3 10 11 3
3 3 11 5
3 5 11 12
3 7 5 12
3 8 13 14
3 9 8 14
3 14 15 9
3 9 15 10
3 15 16 10
3 10 16 11
3 11 16 17
3 12 11 17
3 14 13 18
3 15 14 18
3 19 15 18
3 16 15 19
3 20 16 19
3 16 20 17
3 21 22 23
3 22 24 25
3 23 22 25
3 24 26 27
3 25 24 27
3 26 28 27
3 29 30 31
3 2 22 21
3 0 2 21
3 0 21 31
3 0 31 30
3 4 22 2
3 24 22 4
3 6 24 4
3 26 24 6
3 26 32 28
3 6 32 26
3 6 33 32
3 6 7 33
3 33 34 32
3 29 35 36
3 30 29 36
3 36 0 30
3 8 0 36
3 12 33 7
3 37 33 12
3 33 37 38
3 34 33 38
3 35 39 40
3 36 35 40
3 40 8 36
3 13 8 40
3 17 37 12
3 41 37 17
3 37 41 42
3 38 37 42
3 40 39 43
3 43 44 45
3 40 43 45
3 40 45 18
3 40 18 13
3 18 46 19
3 45 46 18
3 19 47 20
3 46 47 19
3 48 49 41
3 47 48 41
3 47 41 17
3 47 17 20
3 41 49 42
3 45 44 50
3 46 45 50
3 51 46 50
3 47 46 51
3 52 47 51
3 47 52 48
3 53 21 23
3 54 53 23
3 23 25 54
3 25 55 54
3 25 27 55
3 27 56 55
3 28 57 56
3 27 28 56
3 58 29 31
3 59 58 31
3 31 53 59
3 21 53 31
3 60 28 32
3 57 28 60
3 34 61 60
3 32 34 60
3 35 29 62
3 62 29 58
3 38 63 34
3 63 61 34
3 39 35 64
3 64 35 62
3 42 65 38
3 65 63 38
3 66 43 39
3 64 66 39
3 44 66 67
3 43 66 44
3 68 49 48
3 69 49 68
3 49 69 65
3 42 49 65
3 70 50 44
3 67 70 44
3 50 70 51
3 51 70 71
3 51 71 52
3 52 71 72
3 52 72 68
3 48 52 68
3 73 53 54
3 74 73 54
3 54 55 74
3 55 75 74
3 55 56 75
3 56 76 75
3 57 77 76
3 56 57 76
3 78 58 59
3 79 78 59
3 59 73 79
3 53 73 59
3 80 57 60
3 77 57 80
3 61 81 80
3 60 61 80
3 62 58 82
3 82 58 78
3 63 83 61
3 83 81 61
3 64 62 84
3 84 62 82
3 65 85 63
3 85 83 63
3 86 66 64
3 84 86 64
3 67 86 87
3 66 86 67
3 88 69 68
3 89 69 88
3 69 89 85
3 65 69 85
3 90 70 67
3 87 90 67
3 70 90 71
3 71 90 91
3 71 91 72
3 72 91 92
3 72 92 88
3 68 72 88
3 73 74 93
3 74 75 94
3 93 74 94
3 75 76 95
3 94 75 95
3 76 77 95
3 78 79 96
3 97 93 98
3 96 93 97
3 96 73 93
3 96 79 73
3 94 98 93
3 99 98 94
3 95 99 94
3 100 99 95
3 100 101 102
3 95 101 100
3 95 80 101
3 95 77 80
3 80 81 101
3 82 78 96
3 103 82 96
3 96 104 103
3 97 104 96
3 102 105 106
3 101 105 102
3 105 101 81
3 83 105 81
3 84 82 103
3 107 84 103
3 103 108 107
3 104 108 103
3 106 109 110
3 105 109 106
3 109 105 83
3 85 109 83
3 86 84 107
3 107 108 111
3 86 107 111
3 86 111 112
3 86 112 87
3 112 113 114
3 111 113 112
3 114 115 116
3 113 115 114
3 89 110 109
3 88 110 89
3 88 115 110
3 88 116 115
3 89 109 85
3 90 87 112
3 91 90 112
3 114 91 112
3 92 91 114
3 116 92 114
3 92 116 88
3 97 98 117
3 98 99 118
3 117 98 118
3 99 100 119
3 118 99 119
3 100 102 119
3 104 97 117
3 120 104 117
3 120 117 121
3 117 118 121
3 121 118 122
3 118 119 122
3 122 119 102
3 106 122 102
3 108 104 120
3 123 108 120
3 123 120 124
3 120 121 124
3 124 121 125
3 121 122 125
3 125 122 106
3 110 125 106
3 111 108 123
3 113 111 123
3 124 113 123
3 115 113 124
3 125 115 124
3 115 125 110
