ply
format ascii 1.0
comment VCGLIB generated
element vertex 126
property float x
property float y
property float z
element face 248
property list uchar int vertex_indices
end_header
0.0123430890962481499 -0.0508603043854236603 -0.32165113091468811
0.054904937744140625 -0.0650326982140541077 -0.223323985934257507
-0.0193036403506994247 -0.151290208101272583 -0.232848003506660461
-0.0239473972469568253 -0.131347447633743286 -0.0204133987426757812
0.044963836669921875 -0.210756659507751465 -0.0271582603454589844
0.132569625973701477 -0.204030081629753113 0.129758670926094055
0.0476531982421875 -0.249031856656074524 0.186841651797294617
0.065377555787563324 -0.126513436436653137 0.154908344149589539
-0.0199216213077306747 0.155301496386528015 -0.244698047637939453
-0.019824981689453125 0.123326785862445831 -0.139597102999687195
0.0257466640323400497 0.0647769644856452942 0.0698250159621238708
0.078776039183139801 -0.0343881994485855103 0.266492992639541626
0.172754928469657898 -0.0370667316019535065 0.319026321172714233
0.190148666501045227 0.0795571282505989075 -0.251124531030654907
0.20099639892578125 0.0846611261367797852 -0.143523216247558594
0.226772308349609375 0.161390364170074463 0.064245857298374176
0.260801941156387329 0.0994237363338470459 0.279234737157821655
0.265576690435409546 0.10112396627664566 0.170073032379150391
0.289433807134628296 0.142491340637207031 -0.17680676281452179
0.31975555419921875 0.102625764906406403 0.0388455390930175781
0.367814391851425171 0.125265926122665405 0.256522804498672485
-0.269191741943359375 -0.0442000813782215118 -0.197337940335273743
-0.134782150387763977 -0.0322392657399177551 -0.166892051696777344
-0.219128921627998352 -0.0395105741918087006 -0.0958321914076805115
0.02725982666015625 -0.0263053085654973984 -0.00297069549560546875
-0.063376106321811676 -0.00264163711108267307 0.0669120177626609802
-0.068033851683139801 -0.224758163094520569 0.0478253364562988281
-0.152680709958076477 -0.193753734230995178 -0.00187667214777320623
-0.105865478515625 -0.0935645997524261475 0.0199343357235193253
-0.183422088623046875 0.0450155623257160187 -0.448696941137313843
-0.136023208498954773 0.0447416752576828003 -0.35013309121131897
-0.256594330072402954 -0.0086996098980307579 -0.380087524652481079
-0.068497978150844574 0.0445755906403064728 0.133740425109863281
0.0413869209587574005 0.00738260941579937935 0.060028713196516037
-0.055133819580078125 -0.0418447405099868774 0.0805271491408348083
-0.0155423479154706001 0.206454828381538391 -0.517273902893066406
-0.00889460276812314987 0.220539569854736328 -0.412420749664306641
0.0135866804048418999 0.0376345030963420868 0.27987179160118103
0.0138308210298418999 -0.0703204348683357239 0.295739799737930298
0.13343048095703125 0.150834470987319946 -0.348666191101074219
0.193688705563545227 0.107615411281585693 -0.428845077753067017
0.234095260500907898 0.0306829512119293213 0.342036396265029907
0.232624053955078125 -0.0747518017888069153 0.340718269348144531
0.239985153079032898 0.1828107088804245 -0.324369579553604126
0.379391998052597046 0.13587932288646698 -0.215663596987724304
0.39380645751953125 -0.00317537132650613785 -0.201031044125556946
0.486230224370956421 0.0369806252419948578 0.00422032689675688744
0.528619110584259033 0.0492014400660991669 0.227262020111083984
0.488961547613143921 -0.0505608618259429932 0.319940567016601562
0.322118133306503296 -0.0872560739517211914 0.399764388799667358
0.311795562505722046 0.0623567402362823486 -0.166868999600410461
0.399762481451034546 -0.0278154145926237106 0.0248765945434570312
0.519435882568359375 -0.0557373128831386566 0.214884281158447266
-0.31374359130859375 0.17741142213344574 -0.18062002956867218
-0.266661316156387329 0.179621443152427673 -0.0836149826645851135
-0.273526519536972046 0.0717999860644340515 0.114254631102085114
-0.325232177972793579 -0.148499831557273865 0.142325401306152344
-0.229128524661064148 -0.16771911084651947 0.187741592526435852
-0.270000457763671875 0.230377137660980225 -0.34616851806640625
-0.367094665765762329 0.201590642333030701 -0.354525238275527954
-0.248138427734375 -0.000803193019237369299 0.24540884792804718
-0.175018310546875 0.080012105405330658 0.22510528564453125
-0.0616633109748363495 0.294459670782089233 -0.30686679482460022
0.00936381053179502487 0.152820959687232971 0.331966400146484375
0.135168716311454773 0.350622743368148804 -0.265205860137939453
0.226474761962890625 0.149511292576789856 0.389537006616592407
0.19139862060546875 0.345689684152603149 -0.180487468838691711
0.318131774663925171 0.300563782453536987 -0.061798732727766037
0.396556854248046875 0.154564514756202698 0.294486522674560547
0.226343795657157898 0.0808397233486175537 0.315236717462539673
0.233149215579032898 0.230789318680763245 -0.0446179695427417755
0.2613983154296875 0.108216173946857452 0.140026405453681946
0.365253448486328125 0.0528712421655654907 0.332420974969863892
-0.440233856439590454 0.345884084701538086 -0.110611438751220703
-0.462961822748184204 0.281078487634658813 -0.03546142578125
-0.493935912847518921 0.120917856693267822 0.114720664918422699
-0.358005523681640625 0.0311690438538789749 0.26805606484413147
-0.272729247808456421 -0.00694971717894077301 0.333965927362442017
-0.285039275884628296 0.121480308473110199 -0.139189243316650391
-0.321406036615371704 0.219453617930412292 -0.128771618008613586
-0.130970001220703125 -0.0503038428723812103 0.432658344507217407
-0.237536117434501648 -0.0423836596310138702 0.400873184204101562
-0.0511995963752269745 0.140968665480613708 -0.145792961120605469
-0.035762786865234375 0.00782356131821870804 0.494875520467758179
0.124352775514125824 0.238244101405143738 -0.0628482475876808167
0.186875656247138977 0.0345217101275920868 0.567738950252532959
0.091061912477016449 0.15465979278087616 -0.124434947967529297
0.11502838134765625 0.258724600076675415 0.016498565673828125
0.360945373773574829 0.222838208079338074 0.513325989246368408
0.304058074951171875 0.0514763779938220978 0.537594735622406006
0.093446098268032074 0.362615972757339478 0.0517808608710765839
0.231502532958984375 0.315937191247940063 0.222249820828437805
0.345532745122909546 0.261481195688247681 0.40911373496055603
-0.459433227777481079 0.35986211895942688 0.0362509079277515411
-0.457523345947265625 0.188224747776985168 0.195041656494140625
-0.277638763189315796 0.0423083119094371796 0.205203846096992493
-0.290426880121231079 0.118848629295825958 -0.0344653129577636719
-0.197485610842704773 0.280876427888870239 -0.0368733406066894531
-0.282735198736190796 0.351924657821655273 0.0486254692077636719
-0.339375823736190796 0.310278445482254028 0.268560081720352173
-0.236358642578125 0.124609015882015228 0.354880958795547485
-0.214962005615234375 -0.14418676495552063 0.448178142309188843
-0.268777221441268921 0.0290183816105127335 0.448499351739883423
-0.12705230712890625 0.237916693091392517 -0.127837345004081726
-0.019481658935546875 0.14500097930431366 -0.00442520761862397194
-0.00104777014348655939 -0.0739526078104972839 0.435118824243545532
-0.068541206419467926 0.0456893779337406158 0.551851928234100342
0.0433858223259449005 0.163296893239021301 -0.0137906074523925781
0.109685264527797699 0.310325890779495239 0.0441370010375976562
0.20725250244140625 -0.0174933094531297684 0.475011259317398071
0.088827766478061676 0.0943047329783439636 0.398808151483535767
0.178078964352607727 0.29973834753036499 0.165842369198799133
0.01629638671875 0.297368407249450684 0.0968117713928222656
0.099318183958530426 0.199346944689750671 0.355487346649169922
0.19622039794921875 0.212951123714447021 0.213459327816963196
0.205065414309501648 0.0120261786505579948 0.430260986089706421
0.299837738275527954 0.161611691117286682 0.407277733087539673
-0.24228668212890625 0.242252945899963379 0.0496487617492675781
-0.246866866946220398 0.262092262506484985 0.271903842687606812
-0.272364288568496704 0.141734376549720764 0.454925388097763062
-0.0567423515021800995 0.137560650706291199 0.0939129218459129333
-0.0313364677131175995 0.239279448986053467 0.293324321508407593
-0.0498835258185863495 0.136805564165115356 0.493457943201065063
0.065958656370639801 0.321620136499404907 0.144989654421806335
0.184403732419013977 0.204831063747406006 0.289028793573379517
0.169152572751045227 0.0962493941187858582 0.485984653234481812
3 0 1 2
3 1 3 4
3 2 1 4
3 3 5 6
3 4 3 6
3 5 7 6
3 0 8 9
3 1 0 9
3 9 10 1
3 1 10 3
3 10 11 3
3 3 11 5
3 5 11 12
3 7 5 12
3 8 13 14
3 9 8 14
3 14 15 9
3 9 15 10
3 15 16 10
3 10 16 11
3 11 16 17
3 12 11 17
3 14 13 18
3 15 14 18
3 19 15 18
3 16 15 19
3 20 16 19
3 16 20 17
3 21 22 23
3 22 24 25
3 23 22 25
3 24 26 27
3 25 24 27
3 26 28 27
3 29 30 31
3 2 22 21
3 0 2 21
3 0 21 31
3 0 31 30
3 4 22 2
3 24 22 4
3 6 24 4
3 26 24 6
3 26 32 28
3 6 32 26
3 6 33 32
3 6 7 33
3 33 34 32
3 29 35 36
3 30 29 36
3 36 0 30
3 8 0 36
3 12 33 7
3 37 33 12
3 33 37 38
3 34 33 38
3 35 39 40
3 36 35 40
3 40 8 36
3 13 8 40
3 17 37 12
3 41 37 17
3 37 41 42
3 38 37 42
3 40 39 43
3 43 44 45
3 40 43 45
3 40 45 18
3 40 18 13
3 18 46 19
3 45 46 18
3 19 47 20
3 46 47 19
3 48 49 41
3 47 48 41
3 47 41 17
3 47 17 20
3 41 49 42
3 45 44 50
3 46 45 50
3 51 46 50
3 47 46 51
3 52 47 51
3 47 52 48
3 53 21 23
3 54 53 23
3 23 25 54
3 25 55 54
3 25 27 55
3 27 56 55
3 28 57 56
3 27 28 56
3 58 29 31
3 59 58 31
3 31 53 59
3 21 53 31
3 60 28 32
3 57 28 60
3 34 61 60
3 32 34 60
3 35 29 62
3 62 29 58
3 38 63 34
3 63 61 34
3 39 35 64
3 64 35 62
3 42 65 38
3 65 63 38
3 66 43 39
3 64 66 39
3 44 66 67
3 43 66 44
3 68 49 48
3 69 49 68
3 49 69 65
3 42 49 65
3 70 50 44
3 67 70 44
3 50 70 51
3 51 70 71
3 51 71 52
3 52 71 72
3 52 72 68
3 48 52 68
3 73 53 54
3 74 73 54
3 54 55 74
3 55 75 74
3 55 56 75
3 56 76 75
3 57 77 76
3 56 57 76
3 78 58 59
3 79 78 59
3 59 73 79
3 53 73 59
3 80 57 60
3 77 57 80
3 61 81 80
3 60 61 80
3 62 58 82
3 82 58 78
3 63 83 61
3 83 81 61
3 64 62 84
3 84 62 82
3 65 85 63
3 85 83 63
3 86 66 64
3 84 86 64
3 67 86 87
3 66 86 67
3 88 69 68
3 89 69 88
3 69 89 85
3 65 69 85
3 90 70 67
3 87 90 67
3 70 90 71
3 71 90 91
3 71 91 72
3 72 91 92
3 72 92 88
3 68 72 88
3 73 74 93
3 74 75 94
3 93 74 94
3 75 76 95
3 94 75 95
3 76 77 95
3 78 79 96
3 97 93 98
3 96 93 97
3 96 73 93
3 96 79 73
3 94 98 93
3 99 98 94
3 95 99 94
3 100 99 95
3 100 101 102
3 95 101 100
3 95 80 101
3 95 77 80
3 80 81 101
3 82 78 96
3 103 82 96
3 96 104 103
3 97 104 96
3 102 105 106
3 101 105 102
3 105 101 81
3 83 105 81
3 84 82 103
3 107 84 103
3 103 108 107
3 104 108 103
3 106 109 110
3 105 109 106
3 109 105 83
3 85 109 83
3 86 84 107
3 107 108 111
3 86 107 111
3 86 111 112
3 86 112 87
3 112 113 114
3 111 113 112
3 114 115 116
3 113 115 114
3 89 110 109
3 88 110 89
3 88 115 110
3 88 116 115
3 89 109 85
3 90 87 112
3 91 90 112
3 114 91 112
3 92 91 114
3 116 92 114
3 92 116 88
3 97 98 117
3 98 99 118
3 117 98 118
3 99 100 119
3 118 99 119
3 100 102 119
3 104 97 117
3 120 104 117
3 120 117 121
3 117 118 121
3 121 118 122
3 118 119 122
3 122 119 102
3 106 122 102
3 108 104 120
3 123 108 120
3 123 120 124
3 120 121 124
3 124 121 125
3 121 122 125
3 125 122 106
3 110 125 106
3 111 108 123
3 113 111 123
3 124 113 123
3 115 113 124
3 125 115 124
3 115 125 110
