ply
format ascii 1.0
comment VCGLIB generated
element vertex 126
property float x
property float y
property float z
element face 248
property list uchar int vertex_indices
end_header
-0.170314788818359375 0.261755496263504028 -0.49512895941734314
-0.168652847409248352 0.154453560709953308 -0.54097670316696167
-0.256407409906387329 0.160178497433662415 -0.47763475775718689
-0.160104110836982727 -0.0705812051892280579 -0.512275993824005127
-0.266712188720703125 -0.0658196881413459778 -0.455524921417236328
-0.146877288818359375 -0.278837412595748901 -0.350437015295028687
-0.12612152099609375 -0.159298598766326904 -0.264014571905136108
-0.0415191650390625 -0.244709178805351257 -0.247615814208984375
0.0431531257927417755 0.266692548990249634 -0.445842593908309937
0.0349515266716480255 0.154114440083503723 -0.43616977334022522
0.052242279052734375 -0.069167308509349823 -0.45309099555015564
0.067717231810092926 -0.28956952691078186 -0.43364366888999939
0.080783843994140625 -0.392566770315170288 -0.402231216430664062
0.244869232177734375 0.269406586885452271 -0.364060074090957642
0.243810012936592102 0.164209306240081787 -0.33652225136756897
0.25782012939453125 -0.0586447715759277344 -0.36245378851890564
0.262167602777481079 -0.276302337646484375 -0.322325378656387329
0.292647033929824829 -0.389478176832199097 -0.357406944036483765
0.339505523443222046 0.172856405377388 -0.386288315057754517
0.369480133056640625 -0.0531898438930511475 -0.379997104406356812
0.373858124017715454 -0.269864469766616821 -0.34480014443397522
-0.408109039068222046 0.281533628702163696 -0.289512306451797485
-0.39707183837890625 0.174432173371315002 -0.36934661865234375
-0.361204773187637329 0.189572334289550781 -0.268211036920547485
-0.405882507562637329 -0.0532500632107257843 -0.329764693975448608
-0.367145538330078125 -0.0315571390092372894 -0.234021186828613281
-0.323717743158340454 -0.253905266523361206 -0.284382492303848267
-0.307767242193222046 -0.245675519108772278 -0.193182304501533508
-0.352380126714706421 -0.354223132133483887 -0.183518722653388977
-0.2057647705078125 0.485247105360031128 -0.305238246917724609
-0.187563583254814148 0.409283727407455444 -0.389413833618164062
-0.287125915288925171 0.41718590259552002 -0.293680042028427124
-0.210597991943359375 -0.446536093950271606 -0.12331930547952652
-0.098986305296421051 -0.391723483800888062 -0.116306781768798828
-0.171578720211982727 -0.339968681335449219 -0.18687884509563446
0.0137112932279706001 0.490807205438613892 -0.274825423955917358
0.0257568359375 0.404934734106063843 -0.338378578424453735
0.06826019287109375 -0.376071363687515259 -0.234567806124687195
0.09343719482421875 -0.320806294679641724 -0.131575420498847961
0.210240676999092102 0.417565107345581055 -0.203360870480537415
0.249361678957939148 0.422228723764419556 -0.306188106536865234
0.175065353512763977 -0.481793373823165894 -0.182246997952461243
0.251773834228515625 -0.503254115581512451 -0.0852484703063964844
0.316542297601699829 0.424697726964950562 -0.181190326809883118
0.380892425775527954 0.269797414541244507 -0.158078193664550781
0.432621002197265625 0.177137553691864014 -0.236758232116699219
0.413976043462753296 -0.0510890036821365356 -0.209912613034248352
0.4455108642578125 -0.288533836603164673 -0.18258492648601532
0.374867767095565796 -0.399981170892715454 -0.0934360846877098083
0.194112136960029602 -0.588804900646209717 -0.0735583305358886719
0.455897003412246704 0.189263388514518738 -0.1277313232421875
0.466799408197402954 -0.0372008867561817169 -0.117193855345249176
0.404371887445449829 -0.282541066408157349 -0.101083755493164062
-0.434033721685409546 0.318350285291671753 -0.068738304078578949
-0.377724975347518921 0.220439553260803223 -0.0473780632019042969
-0.382737487554550171 -0.0063837575726211071 -0.0114819211885333061
-0.391504913568496704 -0.225921764969825745 0.0148385362699627876
-0.331633239984512329 -0.308703750371932983 0.0311953220516443253
-0.22441864013671875 0.529866635799407959 -0.0747675895690917969
-0.327953338623046875 0.478643745183944702 -0.0741798058152198792
-0.163942977786064148 -0.325691372156143188 0.0473515205085277557
-0.113681793212890625 -0.414043217897415161 0.0259774532169103622
-0.0137888593599200249 0.485272526741027832 -0.0526239089667797089
0.0343678779900074005 -0.261601477861404419 0.0575416870415210724
0.190172836184501648 0.489952057600021362 0.00412909174337983131
0.202145889401435852 -0.433785110712051392 0.12736193835735321
0.266213744878768921 0.440751552581787109 0.0423534698784351349
0.366497039794921875 0.306718319654464722 0.0702891349792480469
0.280030578374862671 -0.399395197629928589 0.108177028596401215
0.149239853024482727 -0.521552979946136475 0.187997341156005859
0.379597991704940796 0.200603604316711426 0.0807034149765968323
0.376597076654434204 -0.020057162269949913 0.0835121497511863708
0.342173248529434204 -0.262452751398086548 0.095247901976108551
-0.465174347162246704 0.335651606321334839 0.152189254760742188
-0.446819305419921875 0.232903465628623962 0.169420719146728516
-0.439116150140762329 0.0187364742159843445 0.205374240875244141
-0.404172271490097046 -0.188817158341407776 0.232655048370361328
-0.326684325933456421 -0.259991317987442017 0.25193515419960022
-0.226291656494140625 0.534004449844360352 0.144900962710380554
-0.345035552978515625 0.498615354299545288 0.138224288821220398
-0.153155013918876648 -0.264612674713134766 0.240658283233642578
-0.178415939211845398 -0.360523223876953125 0.236399650573730469
-0.0230356846004724503 0.446333885192871094 0.173707649111747742
-0.0167528782039880753 -0.22978152334690094 0.267607212066650391
0.136107131838798523 0.299639135599136353 0.156746864318847656
0.202170059084892273 -0.290041118860244751 0.304154068231582642
0.113347373902797699 0.384698271751403809 0.211830615997314453
0.26631927490234375 0.337622255086898804 0.272334426641464233
0.352747589349746704 -0.34459078311920166 0.316069930791854858
0.2340087890625 -0.321176409721374512 0.233217552304267883
0.262636810541152954 0.224265888333320618 0.273380428552627563
0.256402343511581421 0.00602960074320435524 0.264898926019668579
0.322956085205078125 -0.209811508655548096 0.305696487426757812
-0.484079986810684204 0.249692663550376892 0.26719316840171814
-0.476720184087753296 0.0229408144950866699 0.310636669397354126
-0.419597625732421875 -0.203263700008392334 0.333746105432510376
-0.280162811279296875 0.46521875262260437 0.233319446444511414
-0.236721038818359375 0.281789034605026245 0.258355766534805298
-0.320814758539199829 0.252728015184402466 0.32271084189414978
-0.341055542230606079 0.0470250248908996582 0.430317074060440063
-0.314650207757949829 -0.177228093147277832 0.457303375005722046
-0.161089584231376648 -0.372164249420166016 0.341898113489151001
-0.231385543942451477 -0.290032297372817993 0.466593742370605469
-0.0607541389763355255 0.400139719247817993 0.284365326166152954
-0.203487396240234375 0.297164291143417358 0.458586841821670532
0.0362548828125 -0.27790340781211853 0.337879329919815063
-0.0135943097993731499 -0.296092361211776733 0.486339002847671509
0.110093437135219574 0.244000986218452454 0.267787307500839233
0.0557696036994457245 0.231271207332611084 0.446352332830429077
0.230908706784248352 -0.200596466660499573 0.322223037481307983
0.151632949709892273 -0.182746395468711853 0.478649288415908813
0.162570953369140625 0.265814542770385742 0.52521282434463501
0.25197601318359375 0.240529522299766541 0.371871471405029297
0.2316436767578125 0.0278552919626235962 0.545050323009490967
0.242768600583076477 0.0181635413318872452 0.376801490783691406
0.253201812505722046 -0.21299278736114502 0.562116563320159912
0.341264098882675171 -0.207745954394340515 0.403254181146621704
-0.295519500970840454 0.19765627384185791 0.301893383264541626
-0.241363525390625 0.0172415785491466522 0.404812008142471313
-0.232699081301689148 -0.183974876999855042 0.511097133159637451
-0.149813339114189148 0.157992094755172729 0.472676903009414673
-0.0288340244442224503 -0.0141381369903683662 0.350447803735733032
-0.00521341944113373756 -0.179245352745056152 0.493632227182388306
0.0351155586540699005 0.205217108130455017 0.544863641262054443
0.157903030514717102 0.00424354430288076401 0.489828586578369141
0.21947479248046875 -0.215376481413841248 0.441218376159667969
3 0 1 2
3 1 3 4
3 2 1 4
3 3 5 6
3 4 3 6
3 5 7 6
3 0 8 9
3 1 0 9
3 9 10 1
3 1 10 3
3 10 11 3
3 3 11 5
3 5 11 12
3 7 5 12
3 8 13 14
3 9 8 14
3 14 15 9
3 9 15 10
3 15 16 10
3 10 16 11
3 11 16 17
3 12 11 17
3 14 13 18
3 15 14 18
3 19 15 18
3 16 15 19
3 20 16 19
3 16 20 17
3 21 22 23
3 22 24 25
3 23 22 25
3 24 26 27
3 25 24 27
3 26 28 27
3 29 30 31
3 2 22 21
3 0 2 21
3 0 21 31
3 0 31 30
3 4 22 2
3 24 22 4
3 6 24 4
3 26 24 6
3 26 32 28
3 6 32 26
3 6 33 32
3 6 7 33
3 33 34 32
3 29 35 36
3 30 29 36
3 36 0 30
3 8 0 36
3 12 33 7
3 37 33 12
3 33 37 38
3 34 33 38
3 35 39 40
3 36 35 40
3 40 8 36
3 13 8 40
3 17 37 12
3 41 37 17
3 37 41 42
3 38 37 42
3 40 39 43
3 43 44 45
3 40 43 45
3 40 45 18
3 40 18 13
3 18 46 19
3 45 46 18
3 19 47 20
3 46 47 19
3 48 49 41
3 47 48 41
3 47 41 17
3 47 17 20
3 41 49 42
3 45 44 50
3 46 45 50
3 51 46 50
3 47 46 51
3 52 47 51
3 47 52 48
3 53 21 23
3 54 53 23
3 23 25 54
3 25 55 54
3 25 27 55
3 27 56 55
3 28 57 56
3 27 28 56
3 58 29 31
3 59 58 31
3 31 53 59
3 21 53 31
3 60 28 32
3 57 28 60
3 34 61 60
3 32 34 60
3 35 29 62
3 62 29 58
3 38 63 34
3 63 61 34
3 39 35 64
3 64 35 62
3 42 65 38
3 65 63 38
3 66 43 39
3 64 66 39
3 44 66 67
3 43 66 44
3 68 49 48
3 69 49 68
3 49 69 65
3 42 49 65
3 70 50 44
3 67 70 44
3 50 70 51
3 51 70 71
3 51 71 52
3 52 71 72
3 52 72 68
3 48 52 68
3 73 53 54
3 74 73 54
3 54 55 74
3 55 75 74
3 55 56 75
3 56 76 75
3 57 77 76
3 56 57 76
3 78 58 59
3 79 78 59
3 59 73 79
3 53 73 59
3 80 57 60
3 77 57 80
3 61 81 80
3 60 61 80
3 62 58 82
3 82 58 78
3 63 83 61
3 83 81 61
3 64 62 84
3 84 62 82
3 65 85 63
3 85 83 63
3 86 66 64
3 84 86 64
3 67 86 87
3 66 86 67
3 88 69 68
3 89 69 88
3 69 89 85
3 65 69 85
3 90 70 67
3 87 90 67
3 70 90 71
3 71 90 91
3 71 91 72
3 72 91 92
3 72 92 88
3 68 72 88
3 73 74 93
3 74 75 94
3 93 74 94
3 75 76 95
3 94 75 95
3 76 77 95
3 78 79 96
3 97 93 98
3 96 93 97
3 96 73 93
3 96 79 73
3 94 98 93
3 99 98 94
3 95 99 94
3 100 99 95
3 100 101 102
3 95 101 100
3 95 80 101
3 95 77 80
3 80 81 101
3 82 78 96
3 103 82 96
3 96 104 103
3 97 104 96
3 102 105 106
3 101 105 102
3 105 101 81
3 83 105 81
3 84 82 103
3 107 84 103
3 103 108 107
3 104 108 103
3 106 109 110
3 105 109 106
3 109 105 83
3 85 109 83
3 86 84 107
3 107 108 111
3 86 107 111
3 86 111 112
3 86 112 87
3 112 113 114
3 111 113 112
3 114 115 116
3 113 115 114
3 89 110 109
3 88 110 89
3 88 115 110
3 88 116 115
3 89 109 85
3 90 87 112
3 91 90 112
3 114 91 112
3 92 91 114
3 116 92 114
3 92 116 88
3 97 98 117
3 98 99 118
3 117 98 118
3 99 100 119
3 118 99 119
3 100 102 119
3 104 97 117
3 120 104 117
3 120 117 121
3 117 118 121
3 121 118 122
3 118 119 122
3 122 119 102
3 106 122 102
3 108 104 120
3 123 108 120
3 123 120 124
3 120 121 124
3 124 121 125
3 121 122 125
3 125 122 106
3 110 125 106
3 111 108 123
3 113 111 123
3 124 113 123
3 115 113 124
3 125 115 124
3 115 125 110
