ply
format ascii 1.0
comment VCGLIB generated
element vertex 126
property float x
property float y
property float z
element face 248
property list uchar int vertex_indices
end_header
-0.248631075024604797 0.272325962781906128 -0.373750746250152588
-0.242793217301368713 0.192606091499328613 -0.449090689420700073
-0.331167489290237427 0.166711717844009399 -0.384808093309402466
-0.220926836133003235 -0.0245662704110145569 -0.494303017854690552
-0.270111918449401855 -0.0482692942023277283 -0.394067615270614624
-0.114112585783004761 -0.118096210062503815 -0.321597874164581299
-0.0681141465902328491 -0.0193896684795618057 -0.299807965755462646
-0.0354794114828109741 -0.145046249032020569 -0.249954119324684143
-0.0937298387289047241 0.163704380393028259 -0.2526092529296875
-0.0723443701863288879 0.0967387109994888306 -0.341864138841629028
0.000643048959318548441 0.00176342506892979145 -0.536505997180938721
0.0309099480509757996 -0.212344631552696228 -0.46569553017616272
0.0426224321126937866 -0.297723114490509033 -0.39458310604095459
0.063953399658203125 0.306251108646392822 -0.324009329080581665
0.101492747664451599 0.229197993874549866 -0.393836349248886108
0.212928235530853271 0.0487695150077342987 -0.467524200677871704
0.226740166544914246 -0.156231895089149475 -0.376022040843963623
0.263504296541213989 -0.260059595108032227 -0.386642724275588989
0.194440573453903198 0.271090775728225708 -0.351967304944992065
0.299776613712310791 0.0799264907836914062 -0.40385282039642334
0.335072100162506104 -0.141593575477600098 -0.389350324869155884
-0.476984292268753052 0.224987700581550598 -0.153208121657371521
-0.4376983642578125 0.134521529078483582 -0.247609108686447144
-0.377251774072647095 0.175300031900405884 -0.163443773984909058
-0.335573464632034302 -0.0763252973556518555 -0.22827523946762085
-0.313566744327545166 -0.043664056807756424 -0.133311927318572998
-0.14186859130859375 -0.0283400658518075943 -0.140539407730102539
-0.117741994559764862 -0.0677842795848846436 -0.0698609054088592529
-0.0376905724406242371 -0.118211798369884491 -0.0828804299235343933
-0.305039554834365845 0.449547082185745239 -0.156945839524269104
-0.27522769570350647 0.389016270637512207 -0.242188498377799988
-0.384904325008392334 0.374616473913192749 -0.158177956938743591
-0.0381864830851554871 -0.283363461494445801 -0.13511231541633606
-0.157620564103126526 -0.262109220027923584 -0.191814392805099487
-0.103101730346679688 -0.360739290714263916 -0.186073958873748779
-0.151789531111717224 0.346212148666381836 -0.0287936422973871231
-0.130435407161712646 0.27526584267616272 -0.11321527510881424
0.0471224114298820496 -0.354273110628128052 -0.223508402705192566
0.0871603861451148987 -0.2542458176612854 -0.240718811750411987
0.0234467647969722748 0.470686405897140503 -0.0907361507415771484
0.027637481689453125 0.416353940963745117 -0.187083140015602112
0.271094202995300293 -0.364577591419219971 -0.240241125226020813
0.281970173120498657 -0.306660562753677368 -0.146178513765335083
0.131203785538673401 0.462145775556564331 -0.10712742805480957
0.216050833463668823 0.307056069374084473 -0.138930082321166992
0.321403235197067261 0.305816918611526489 -0.228786304593086243
0.404464185237884521 0.100944951176643372 -0.258610248565673828
0.46329498291015625 -0.113526336848735809 -0.267251729965209961
0.483387559652328491 -0.20450243353843689 -0.165437802672386169
0.317798346281051636 -0.236729621887207031 -0.2244596928358078
0.323152542114257812 0.292072385549545288 -0.117934092879295349
0.323692053556442261 0.079149201512336731 -0.18655964732170105
0.458117902278900146 -0.0970307737588882446 -0.158830717206001282
-0.453243255615234375 0.214992865920066833 0.0727736949920654297
-0.343959003686904907 0.20697881281375885 0.0614152662456035614
-0.359116971492767334 -0.0121206194162368774 0.0919255167245864868
-0.203561782836914062 -0.185292243957519531 0.0956635847687721252
-0.206218451261520386 -0.244466796517372131 0.00805258750915527344
-0.354367673397064209 0.483109414577484131 0.0604551173746585846
-0.402355194091796875 0.381423622369766235 0.0680082216858863831
-0.0924995988607406616 -0.373866349458694458 0.0599648281931877136
-0.0128282820805907249 -0.432716310024261475 0.00847271550446748734
-0.139608383178710938 0.531948864459991455 0.0994260013103485107
0.182173594832420349 -0.336463660001754761 -0.0528422445058822632
0.0800446122884750366 0.502346992492675781 0.123734816908836365
0.260868072509765625 -0.131630837917327881 -0.00571881048381328583
0.165363043546676636 0.43451264500617981 0.11294228583574295
0.168559208512306213 0.259580075740814209 0.0751740634441375732
0.414551347494125366 -0.229745209217071533 0.046410389244556427
0.350998461246490479 -0.0922505781054496765 -0.0562136508524417877
0.27236667275428772 0.226144745945930481 0.0912494361400604248
0.214440479874610901 0.0291670914739370346 0.0026382720097899437
0.342723309993743896 -0.152241423726081848 0.0259586740285158157
-0.42396274209022522 0.201313883066177368 0.291434019804000854
-0.315692096948623657 0.214845374226570129 0.292068213224411011
-0.192956924438476562 0.133121103048324585 0.132531613111495972
-0.0933878794312477112 -0.0181770119816064835 0.00197206228040158749
-0.0729710757732391357 -0.080750785768032074 0.091038435697555542
-0.269850313663482666 0.444788128137588501 0.266438394784927368
-0.354196012020111084 0.367048144340515137 0.283378183841705322
0.0519657135009765625 -0.207496806979179382 0.105687551200389862
-0.0336456298828125 -0.215972021222114563 0.0336648747324943542
-0.104424618184566498 0.32326740026473999 0.173892468214035034
0.170371189713478088 -0.200351700186729431 0.123961485922336578
0.0460665561258792877 0.401816666126251221 0.32159993052482605
0.392889291048049927 -0.216431841254234314 0.153970375657081604
0.155196875333786011 0.387264758348464966 0.332293331623077393
0.258335381746292114 0.249777138233184814 0.280941545963287354
0.54538726806640625 -0.0847472101449966431 0.157489269971847534
0.470334470272064209 -0.225665062665939331 0.0744450092315673828
0.210618972778320312 0.151703163981437683 0.296171396970748901
0.358725965023040771 0.145178616046905518 0.129952609539031982
0.447203785181045532 -0.0506018847227096558 0.198162287473678589
-0.327707022428512573 0.109909594058990479 0.279320657253265381
-0.127743318676948547 0.0616362802684307098 0.182108879089355469
-0.186917439103126526 -0.0847860574722290039 0.0232659075409173965
-0.249101102352142334 0.399916172027587891 0.364429771900177002
-0.165843963623046875 0.260901033878326416 0.44180750846862793
-0.200590416789054871 0.135138735175132751 0.454639047384262085
-0.181500568985939026 -0.0351684242486953735 0.314967632293701172
-0.0522068589925765991 -0.0701664313673973083 0.14038597047328949
0.0344671532511711121 -0.307682722806930542 0.0163059569895267487
-0.0665582939982414246 -0.201337128877639771 0.111503265798091888
-0.135250091552734375 0.245414420962333679 0.246987685561180115
0.018177032470703125 0.299742579460144043 0.321108609437942505
0.207535877823829651 -0.166273370385169983 0.0245758462697267532
0.118887767195701599 -0.082007773220539093 0.155360192060470581
0.0705105960369110107 0.333677202463150024 0.237991988658905029
0.133394509553909302 0.178570881485939026 0.171210423111915588
0.402896076440811157 -0.111708655953407288 0.114799737930297852
0.277223587036132812 -0.0400812067091464996 0.00400900840759277344
0.172946110367774963 0.0790080875158309937 0.258685022592544556
0.291711270809173584 0.151315033435821533 0.372250080108642578
0.279784888029098511 0.180335342884063721 0.0893102362751960754
0.42442050576210022 0.199368879199028015 0.197367504239082336
0.274423867464065552 -0.0375868268311023712 0.142264202237129211
0.446803241968154907 -0.00294191809371113777 0.100748538970947266
-0.209876477718353271 0.204983100295066833 0.353214740753173828
-0.139032095670700073 0.0255433954298496246 0.237966269254684448
-0.0124209271743893623 -0.158020690083503723 0.195559784770011902
0.0113541744649410248 0.211488589644432068 0.386660456657409668
0.0468090623617172241 0.139074981212615967 0.178859412670135498
0.111594885587692261 -0.035211663693189621 0.0553967282176017761
0.0756713300943374634 0.0912223681807518005 0.207194611430168152
0.264323115348815918 0.207977280020713806 0.195320174098014832
0.327562600374221802 0.0292784944176673889 0.0744024366140365601
3 0 1 2
3 1 3 4
3 2 1 4
3 3 5 6
3 4 3 6
3 5 7 6
3 0 8 9
3 1 0 9
3 9 10 1
3 1 10 3
3 10 11 3
3 3 11 5
3 5 11 12
3 7 5 12
3 8 13 14
3 9 8 14
3 14 15 9
3 9 15 10
3 15 16 10
3 10 16 11
3 11 16 17
3 12 11 17
3 14 13 18
3 15 14 18
3 19 15 18
3 16 15 19
3 20 16 19
3 16 20 17
3 21 22 23
3 22 24 25
3 23 22 25
3 24 26 27
3 25 24 27
3 26 28 27
3 29 30 31
3 2 22 21
3 0 2 21
3 0 21 31
3 0 31 30
3 4 22 2
3 24 22 4
3 6 24 4
3 26 24 6
3 26 32 28
3 6 32 26
3 6 33 32
3 6 7 33
3 33 34 32
3 29 35 36
3 30 29 36
3 36 0 30
3 8 0 36
3 12 33 7
3 37 33 12
3 33 37 38
3 34 33 38
3 35 39 40
3 36 35 40
3 40 8 36
3 13 8 40
3 17 37 12
3 41 37 17
3 37 41 42
3 38 37 42
3 40 39 43
3 43 44 45
3 40 43 45
3 40 45 18
3 40 18 13
3 18 46 19
3 45 46 18
3 19 47 20
3 46 47 19
3 48 49 41
3 47 48 41
3 47 41 17
3 47 17 20
3 41 49 42
3 45 44 50
3 46 45 50
3 51 46 50
3 47 46 51
3 52 47 51
3 47 52 48
3 53 21 23
3 54 53 23
3 23 25 54
3 25 55 54
3 25 27 55
3 27 56 55
3 28 57 56
3 27 28 56
3 58 29 31
3 59 58 31
3 31 53 59
3 21 53 31
3 60 28 32
3 57 28 60
3 34 61 60
3 32 34 60
3 35 29 62
3 62 29 58
3 38 63 34
3 63 61 34
3 39 35 64
3 64 35 62
3 42 65 38
3 65 63 38
3 66 43 39
3 64 66 39
3 44 66 67
3 43 66 44
3 68 49 48
3 69 49 68
3 49 69 65
3 42 49 65
3 70 50 44
3 67 70 44
3 50 70 51
3 51 70 71
3 51 71 52
3 52 71 72
3 52 72 68
3 48 52 68
3 73 53 54
3 74 73 54
3 54 55 74
3 55 75 74
3 55 56 75
3 56 76 75
3 57 77 76
3 56 57 76
3 78 58 59
3 79 78 59
3 59 73 79
3 53 73 59
3 80 57 60
3 77 57 80
3 61 81 80
3 60 61 80
3 62 58 82
3 82 58 78
3 63 83 61
3 83 81 61
3 64 62 84
3 84 62 82
3 65 85 63
3 85 83 63
3 86 66 64
3 84 86 64
3 67 86 87
3 66 86 67
3 88 69 68
3 89 69 88
3 69 89 85
3 65 69 85
3 90 70 67
3 87 90 67
3 70 90 71
3 71 90 91
3 71 91 72
3 72 91 92
3 72 92 88
3 68 72 88
3 73 74 93
3 74 75 94
3 93 74 94
3 75 76 95
3 94 75 95
3 76 77 95
3 78 79 96
3 97 93 98
3 96 93 97
3 96 73 93
3 96 79 73
3 94 98 93
3 99 98 94
3 95 99 94
3 100 99 95
3 100 101 102
3 95 101 100
3 95 80 101
3 95 77 80
3 80 81 101
3 82 78 96
3 103 82 96
3 96 104 103
3 97 104 96
3 102 105 106
3 101 105 102
3 105 101 81
3 83 105 81
3 84 82 103
3 107 84 103
3 103 108 107
3 104 108 103
3 106 109 110
3 105 109 106
3 109 105 83
3 85 109 83
3 86 84 107
3 107 108 111
3 86 107 111
3 86 111 112
3 86 112 87
3 112 113 114
3 111 113 112
3 114 115 116
3 113 115 114
3 89 110 109
3 88 110 89
3 88 115 110
3 88 116 115
3 89 109 85
3 90 87 112
3 91 90 112
3 114 91 112
3 92 91 114
3 116 92 114
3 92 116 88
3 97 98 117
3 98 99 118
3 117 98 118
3 99 100 119
3 118 99 119
3 100 102 119
3 104 97 117
3 120 104 117
3 120 117 121
3 117 118 121
3 121 118 122
3 118 119 122
3 122 119 102
3 106 122 102
3 108 104 120
3 123 108 120
3 123 120 124
3 120 121 124
3 124 121 125
3 121 122 125
3 125 122 106
3 110 125 106
3 111 108 123
3 113 111 123
3 124 113 123
3 115 113 124
3 125 115 124
3 115 125 110
