ply
format ascii 1.0
comment VCGLIB generated
element vertex 126
property float x
property float y
property float z
element face 248
property list uchar int vertex_indices
end_header
-0.138898208737373352 0.0983813181519508362 -0.545839965343475342
-0.078215278685092926 0.0162889789789915085 -0.503292858600616455
-0.176001235842704773 -0.0328708067536354065 -0.499753952026367188
0.00968424510210752487 -0.156553804874420166 -0.399746894836425781
-0.088795982301235199 -0.192601189017295837 -0.36615404486656189
0.0272687282413244247 -0.0842707082629203796 -0.189954116940498352
-0.076867423951625824 -0.0665452852845191956 -0.182184532284736633
0.0118090314790606499 -0.15447603166103363 -0.110139526426792145
0.0556055717170238495 0.123300343751907349 -0.436112254858016968
0.003582000732421875 0.141895800828933716 -0.339864403009414673
0.0456606559455394745 -0.0363077931106090546 -0.211029842495918274
0.240386962890625 -0.144834831357002258 -0.187033817172050476
0.23137664794921875 -0.180117443203926086 -0.0857828482985496521
0.248577117919921875 0.155707821249961853 -0.329432010650634766
0.201546981930732727 0.143100813031196594 -0.234976127743721008
0.111234031617641449 0.0920302197337150574 -0.0411653518676757812
0.272724151611328125 -0.0532588213682174683 0.0183037128299474716
0.371105194091796875 -0.0182642154395580292 -0.0200117435306310654
0.195742294192314148 0.0380873158574104309 -0.269893646240234375
0.197195693850517273 0.157573118805885315 -0.0778573378920555115
0.300866454839706421 0.0398087650537490845 0.0815668106079101562
-0.399542480707168579 0.0634440258145332336 -0.373366028070449829
-0.335360199213027954 -0.0550716817378997803 -0.418563693761825562
-0.415064483880996704 -0.0413636341691017151 -0.334128856658935547
-0.255804687738418579 -0.246770814061164856 -0.331457465887069702
-0.292245239019393921 -0.208944320678710938 -0.231508731842041016
-0.186049148440361023 -0.20892411470413208 -0.127148151397705078
-0.0964813232421875 -0.27659955620765686 -0.150543853640556335
-0.0436108894646167755 -0.208887457847595215 -0.108622707426548004
-0.252934783697128296 0.291637808084487915 -0.390040725469589233
-0.20871734619140625 0.192758306860923767 -0.408021777868270874
-0.343285888433456421 0.232641175389289856 -0.415740489959716797
0.0538736991584300995 -0.30669364333152771 -0.009083588607609272
-0.0168698634952306747 -0.21336694061756134 0.0517630577087402344
-0.00385157275013625622 -0.227464437484741211 -0.0580237694084644318
-0.0624173469841480255 0.270684808492660522 -0.273469924926757812
-0.00427118921652436256 0.276305943727493286 -0.366779476404190063
0.206385299563407898 -0.23441527783870697 0.0800557136535644531
0.220792129635810852 -0.223789915442466736 -0.0302637424319982529
0.131323501467704773 0.269228518009185791 -0.165253952145576477
0.185197189450263977 0.308546334505081177 -0.253600448369979858
0.397733062505722046 -0.118869833648204803 0.126233413815498352
0.383111327886581421 -0.0741177350282669067 0.025127410888671875
0.22228240966796875 0.300113648176193237 -0.11770407110452652
0.218065902590751648 0.135070249438285828 -0.0444183349609375
0.141497299075126648 0.0372581556439399719 -0.0951069220900535583
0.357747405767440796 0.0773391872644424438 -0.0384639091789722443
0.369940429925918579 0.197827145457267761 0.151405975222587585
0.351526886224746704 0.131620928645133972 0.029895782470703125
0.464426666498184204 -0.0114722410216927528 0.0612502098083496094
0.116546630859375 0.102966994047164917 -0.00459384918212890625
0.315169006586074829 0.164473935961723328 -0.0884973183274269104
0.429712921380996704 0.120235048234462738 0.102080188691616058
-0.460174560546875 0.143775269389152527 -0.172748729586601257
-0.358533233404159546 0.0944022461771965027 -0.166753128170967102
-0.3587646484375 -0.108408324420452118 -0.0619753189384937286
-0.202582046389579773 -0.247767850756645203 0.0323351211845874786
-0.122019447386264801 -0.259445637464523315 0.0930237770080566406
-0.281850188970565796 0.248864516615867615 -0.170859172940254211
-0.373757690191268921 0.299333542585372925 -0.206263065338134766
0.010356903076171875 -0.188437461853027344 0.18723742663860321
0.0384089164435863495 -0.110087782144546509 0.117346443235874176
-0.141431167721748352 0.413120031356811523 -0.119230426847934723
0.193115234375 -0.246944546699523926 0.193232536315917969
0.0553868599236011505 0.423095852136611938 -0.0200517978519201279
0.261885315179824829 -0.0290128663182258606 0.209534481167793274
0.100741066038608551 0.37121090292930603 0.0611591339111328125
0.230073288083076477 0.268677324056625366 0.131374672055244446
0.203643798828125 0.0191401373594999313 0.158430099487304688
0.31255340576171875 -0.12211204320192337 0.184331580996513367
0.175980880856513977 0.197699069976806641 0.195120334625244141
0.127755478024482727 0.0892991498112678528 0.0103521347045898438
0.281895965337753296 -0.0458487458527088165 0.11082235723733902
-0.453135162591934204 0.187663674354553223 0.0462168045341968536
-0.3422393798828125 0.188830673694610596 0.0369291305541992188
-0.394449859857559204 -0.0252227485179901123 0.132751777768135071
-0.327702850103378296 -0.219894573092460632 0.227199241518974304
-0.259258270263671875 -0.144688829779624939 0.24639575183391571
-0.327562958002090454 0.329274356365203857 0.0366752929985523224
-0.427975982427597046 0.362892121076583862 0.00334723782725632191
-0.122712455689907074 -0.0621133036911487579 0.296661049127578735
-0.065921783447265625 -0.154530748724937439 0.304253906011581421
-0.107682548463344574 0.330912411212921143 0.0858987197279930115
0.124085746705532074 -0.211905792355537415 0.406154483556747437
0.0622571296989917755 0.204900205135345459 0.0154077215120196342
0.299798339605331421 -0.068119145929813385 0.424989551305770874
-0.041652679443359375 0.198135867714881897 0.0487729720771312714
0.0337689705193042755 0.361321002244949341 0.077753700315952301
0.360518127679824829 0.152843639254570007 0.245416164398193359
0.327513366937637329 0.0203211270272731781 0.364015907049179077
-0.0028533935546875 0.333312720060348511 0.176154449582099915
0.04024505615234375 0.120817624032497406 0.214782878756523132
0.263581603765487671 0.160568788647651672 0.195946216583251953
-0.3610076904296875 0.128049254417419434 0.127287387847900391
-0.349628448486328125 -0.0610160380601882935 0.0304570198059082031
-0.268466949462890625 -0.230971410870552063 0.138729095458984375
-0.333217620849609375 0.433391362428665161 0.0781043395400047302
-0.229703262448310852 0.322912722826004028 -0.0166219081729650497
-0.310446411371231079 0.219913497567176819 -0.0127312345430254936
-0.276749938726425171 0.0655262842774391174 0.151273727416992188
-0.245103195309638977 -0.135880708694458008 0.267776161432266235
0.00830841064453125 -0.0929738655686378479 0.251847892999649048
-0.126674652099609375 -0.182484209537506104 0.327027946710586548
-0.175304412841796875 0.280403584241867065 0.0202692355960607529
-0.047657012939453125 0.379951924085617065 0.0989244803786277771
0.156098678708076477 -0.256929367780685425 0.308799415826797485
0.0584093742072582245 -0.133215203881263733 0.218118354678153992
0.0425631217658519745 0.293206959962844849 0.0824168547987937927
-0.006465911865234375 0.209635153412818909 0.24263763427734375
0.325148254632949829 -0.107051871716976166 0.31847110390663147
0.266741424798965454 -0.132111474871635437 0.146826267242431641
0.0546366386115550995 0.267081886529922485 0.349216461181640625
0.102896369993686676 0.364385247230529785 0.202509239315986633
0.218194320797920227 0.124747119843959808 0.300310134887695312
0.045196533203125 0.172379657626152039 0.309030681848526001
0.175197601318359375 -0.0286140572279691696 0.144227981567382812
0.247137710452079773 0.0796284973621368408 0.268712669610977173
-0.201735183596611023 0.21781468391418457 -0.0135518712922930717
-0.188851669430732727 0.104098521173000336 0.178920432925224304
-0.1544189453125 -0.0795020163059234619 0.306687831878662109
0.00655492162331938744 0.31170615553855896 0.025014558807015419
0.0208231601864099503 0.167448163032531738 0.199882343411445618
0.069671630859375 -0.0399229638278484344 0.271878719329833984
0.0484250374138355255 0.304255574941635132 0.24676196277141571
0.240105941891670227 0.196688607335090637 0.21851666271686554
0.275446563959121704 -0.021914290264248848 0.181370258331298828
3 0 1 2
3 1 3 4
3 2 1 4
3 3 5 6
3 4 3 6
3 5 7 6
3 0 8 9
3 1 0 9
3 9 10 1
3 1 10 3
3 10 11 3
3 3 11 5
3 5 11 12
3 7 5 12
3 8 13 14
3 9 8 14
3 14 15 9
3 9 15 10
3 15 16 10
3 10 16 11
3 11 16 17
3 12 11 17
3 14 13 18
3 15 14 18
3 19 15 18
3 16 15 19
3 20 16 19
3 16 20 17
3 21 22 23
3 22 24 25
3 23 22 25
3 24 26 27
3 25 24 27
3 26 28 27
3 29 30 31
3 2 22 21
3 0 2 21
3 0 21 31
3 0 31 30
3 4 22 2
3 24 22 4
3 6 24 4
3 26 24 6
3 26 32 28
3 6 32 26
3 6 33 32
3 6 7 33
3 33 34 32
3 29 35 36
3 30 29 36
3 36 0 30
3 8 0 36
3 12 33 7
3 37 33 12
3 33 37 38
3 34 33 38
3 35 39 40
3 36 35 40
3 40 8 36
3 13 8 40
3 17 37 12
3 41 37 17
3 37 41 42
3 38 37 42
3 40 39 43
3 43 44 45
3 40 43 45
3 40 45 18
3 40 18 13
3 18 46 19
3 45 46 18
3 19 47 20
3 46 47 19
3 48 49 41
3 47 48 41
3 47 41 17
3 47 17 20
3 41 49 42
3 45 44 50
3 46 45 50
3 51 46 50
3 47 46 51
3 52 47 51
3 47 52 48
3 53 21 23
3 54 53 23
3 23 25 54
3 25 55 54
3 25 27 55
3 27 56 55
3 28 57 56
3 27 28 56
3 58 29 31
3 59 58 31
3 31 53 59
3 21 53 31
3 60 28 32
3 57 28 60
3 34 61 60
3 32 34 60
3 35 29 62
3 62 29 58
3 38 63 34
3 63 61 34
3 39 35 64
3 64 35 62
3 42 65 38
3 65 63 38
3 66 43 39
3 64 66 39
3 44 66 67
3 43 66 44
3 68 49 48
3 69 49 68
3 49 69 65
3 42 49 65
3 70 50 44
3 67 70 44
3 50 70 51
3 51 70 71
3 51 71 52
3 52 71 72
3 52 72 68
3 48 52 68
3 73 53 54
3 74 73 54
3 54 55 74
3 55 75 74
3 55 56 75
3 56 76 75
3 57 77 76
3 56 57 76
3 78 58 59
3 79 78 59
3 59 73 79
3 53 73 59
3 80 57 60
3 77 57 80
3 61 81 80
3 60 61 80
3 62 58 82
3 82 58 78
3 63 83 61
3 83 81 61
3 64 62 84
3 84 62 82
3 65 85 63
3 85 83 63
3 86 66 64
3 84 86 64
3 67 86 87
3 66 86 67
3 88 69 68
3 89 69 88
3 69 89 85
3 65 69 85
3 90 70 67
3 87 90 67
3 70 90 71
3 71 90 91
3 71 91 72
3 72 91 92
3 72 92 88
3 68 72 88
3 73 74 93
3 74 75 94
3 93 74 94
3 75 76 95
3 94 75 95
3 76 77 95
3 78 79 96
3 97 93 98
3 96 93 97
3 96 73 93
3 96 79 73
3 94 98 93
3 99 98 94
3 95 99 94
3 100 99 95
3 100 101 102
3 95 101 100
3 95 80 101
3 95 77 80
3 80 81 101
3 82 78 96
3 103 82 96
3 96 104 103
3 97 104 96
3 102 105 106
3 101 105 102
3 105 101 81
3 83 105 81
3 84 82 103
3 107 84 103
3 103 108 107
3 104 108 103
3 106 109 110
3 105 109 106
3 109 105 83
3 85 109 83
3 86 84 107
3 107 108 111
3 86 107 111
3 86 111 112
3 86 112 87
3 112 113 114
3 111 113 112
3 114 115 116
3 113 115 114
3 89 110 109
3 88 110 89
3 88 115 110
3 88 116 115
3 89 109 85
3 90 87 112
3 91 90 112
3 114 91 112
3 92 91 114
3 116 92 114
3 92 116 88
3 97 98 117
3 98 99 118
3 117 98 118
3 99 100 119
3 118 99 119
3 100 102 119
3 104 97 117
3 120 104 117
3 120 117 121
3 117 118 121
3 121 118 122
3 118 119 122
3 122 119 102
3 106 122 102
3 108 104 120
3 123 108 120
3 123 120 124
3 120 121 124
3 124 121 125
3 121 122 125
3 125 122 106
3 110 125 106
3 111 108 123
3 113 111 123
3 124 113 123
3 115 113 124
3 125 115 124
3 115 125 110
