ply
format ascii 1.0
comment VCGLIB generated
element vertex 126
property float x
property float y
property float z
element face 248
property list uchar int vertex_indices
end_header
-0.432225555181503296 0.225265994668006897 -0.441786766052246094
-0.395384460687637329 0.126611813902854919 -0.470820575952529907
-0.41783905029296875 0.118344075977802277 -0.358986049890518188
-0.332394927740097046 -0.0901528075337409973 -0.46886172890663147
-0.3984832763671875 -0.102200813591480255 -0.386286407709121704
-0.16825103759765625 -0.0644050613045692444 -0.311885684728622437
-0.246547698974609375 -0.0214902758598327637 -0.244196414947509766
-0.135534927248954773 -0.0881602168083190918 -0.210214927792549133
-0.215326949954032898 0.260683566331863403 -0.433078616857528687
-0.183678939938545227 0.185246452689170837 -0.524648189544677734
-0.119127906858921051 -0.0348395481705665588 -0.476514190435409546
-0.066061653196811676 -0.243979215621948242 -0.391207218170166016
-0.0568593330681324005 -0.291920959949493408 -0.292083740234375
-0.00845972727984189987 0.306511640548706055 -0.365780502557754517
0.0303700771182775497 0.250265836715698242 -0.447740226984024048
0.080352783203125 0.0375382602214813232 -0.410020351409912109
0.148653671145439148 -0.176006272435188293 -0.371448665857315063
0.16802978515625 -0.251288115978240967 -0.295889705419540405
0.12747955322265625 0.279547005891799927 -0.381360530853271484
0.185499832034111023 0.0675634220242500305 -0.37144961953163147
0.234990432858467102 -0.138421043753623962 -0.306486606597900391
-0.620161712169647217 0.190293550491333008 -0.181562423706054688
-0.547095000743865967 0.103970199823379517 -0.236845970153808594
-0.632111847400665283 0.0865029618144035339 -0.174603939056396484
-0.532695770263671875 -0.114295326173305511 -0.282328933477401733
-0.5673980712890625 -0.14106731116771698 -0.223942756652832031
-0.367279052734375 -0.137760773301124573 -0.154652595520019531
-0.343996673822402954 -0.216373562812805176 -0.145247459411621094
-0.246980026364326477 -0.186957523226737976 -0.0687127113342285156
-0.471575409173965454 0.312122732400894165 -0.206665828824043274
-0.467594146728515625 0.335734814405441284 -0.313320159912109375
-0.572717010974884033 0.349175810813903809 -0.231448173522949219
-0.160795852541923523 -0.07003755122423172 0.028020540252327919
-0.0277010593563318253 -0.0958720818161964417 -0.0836578980088233948
-0.119753517210483551 -0.140828177332878113 -0.050854366272687912
-0.290435791015625 0.443182438611984253 -0.208805248141288757
-0.251889556646347046 0.390787452459335327 -0.30347442626953125
-0.0257784519344568253 -0.316645652055740356 -0.111243247985839844
0.019954681396484375 -0.329912781715393066 -0.0188453998416662216
-0.067799888551235199 0.454746633768081665 -0.19081290066242218
-0.063109077513217926 0.343130737543106079 -0.199266433715820312
0.197130843997001648 -0.334718316793441772 -0.143667221069335938
0.216664627194404602 -0.24662528932094574 -0.0736966133117675781
0.0329462699592113495 0.439728826284408569 -0.167052581906318665
0.195354461669921875 0.372430115938186646 -0.150610759854316711
0.245016738772392273 0.279114216566085815 -0.235918208956718445
0.174798324704170227 0.0711764171719551086 -0.186717823147773743
0.352869659662246704 -0.0674763545393943787 -0.186843395233154297
0.403645843267440796 -0.153206378221511841 -0.0848075523972511292
0.306260436773300171 -0.297165215015411377 -0.0665990486741065979
0.270595550537109375 0.295195102691650391 -0.125383689999580383
0.186655685305595398 0.0924022197723388672 -0.0826493874192237854
0.303457885980606079 -0.105375856161117554 -0.0935370102524757385
-0.575578033924102783 0.199086114764213562 0.0294119510799646378
-0.604468047618865967 0.0440140627324581146 0.0394169501960277557
-0.617900848388671875 -0.153375282883644104 -0.0277514457702636719
-0.453810364007949829 -0.251624166965484619 0.0311525668948888779
-0.290570586919784546 -0.276829510927200317 0.113480567932128906
-0.497788757085800171 0.361569970846176147 0.0150321321561932564
-0.58111572265625 0.398983955383300781 -0.0192831363528966904
-0.133302047848701477 -0.219519257545471191 0.181605502963066101
-0.211986541748046875 -0.237591266632080078 0.148938179016113281
-0.294333130121231079 0.45177188515663147 0.0157313346862792969
0.000164031982421875 -0.277213335037231445 0.200248405337333679
-0.083905540406703949 0.513145267963409424 0.0218922290951013565
0.2146759033203125 -0.18429286777973175 0.14699728786945343
0.0118687944486737251 0.468945056200027466 0.0501599311828613281
0.142103835940361023 0.349132061004638672 0.0677496567368507385
0.392345428466796875 -0.104056775569915771 0.134503200650215149
0.300244659185409546 -0.268962740898132324 0.148671790957450867
0.246346786618232727 0.352261394262313843 0.0928031578660011292
0.285174041986465454 0.127159163355827332 0.114341892302036285
0.28194427490234375 -0.089687831699848175 0.139968708157539368
-0.70726776123046875 0.275745272636413574 0.192169189453125
-0.726004302501678467 0.106088727712631226 0.154998138546943665
-0.546316802501678467 -0.00170233647804707289 0.108761630952358246
-0.388233184814453125 -0.106509588658809662 0.200153037905693054
-0.26219940185546875 -0.0749023482203483582 0.218115493655204773
-0.530796051025390625 0.482994347810745239 0.211465358734130859
-0.549687683582305908 0.378754705190658569 0.202349826693534851
-0.0597623176872730255 -0.0406259000301361084 0.171942710876464844
-0.101378120481967926 -0.0595494508743286133 0.275428146123886108
-0.309850066900253296 0.494156002998352051 0.238478183746337891
0.0200220737606287003 -0.17838992178440094 0.374369293451309204
-0.090343475341796875 0.523239672183990479 0.247373417019844055
0.250230163335800171 -0.142323032021522522 0.365121513605117798
-0.073205314576625824 0.413738369941711426 0.247161865234375
0.088583625853061676 0.346580356359481812 0.288080066442489624
0.395598083734512329 -0.0834823772311210632 0.352576106786727905
0.243756607174873352 -0.0964255854487419128 0.251367568969726562
0.191435500979423523 0.360827356576919556 0.314514636993408203
0.202515915036201477 0.145736023783683777 0.328115463256835938
0.264414459466934204 -0.0644830912351608276 0.362610965967178345
-0.703671753406524658 0.176890745759010315 0.277325302362442017
-0.479984283447265625 0.195930182933807373 0.163003280758857727
-0.301878601312637329 0.0499200113117694855 0.156897068023681641
-0.5366363525390625 0.450365990400314331 0.322525173425674438
-0.534942626953125 0.346834868192672729 0.454453945159912109
-0.571496307849884033 0.242168620228767395 0.425567150115966797
-0.428017944097518921 0.0855558216571807861 0.337177902460098267
-0.264653533697128296 -0.0382153280079364777 0.270251601934432983
0.011226654052734375 -0.0544664226472377777 0.249118804931640625
-0.150597885251045227 -0.0690020173788070679 0.202845260500907898
-0.3183441162109375 0.488186806440353394 0.351350635290145874
-0.318603515625 0.398261517286300659 0.517460823059082031
0.0169665012508630753 -0.158304288983345032 0.432613998651504517
0.070912681519985199 -0.13898622989654541 0.254499107599258423
-0.09942626953125 0.500640571117401123 0.355030536651611328
-0.115296684205532074 0.425660371780395508 0.528046548366546631
0.262081146240234375 -0.0727337226271629333 0.429826885461807251
0.14676666259765625 -0.0088187679648399353 0.406306266784667969
-0.00370534253306686878 0.348184973001480103 0.549586474895477295
0.131799057126045227 0.368909716606140137 0.418181896209716797
0.0202509555965662003 0.124085932970046997 0.524374961853027344
0.102574668824672699 0.14433443546295166 0.358662456274032593
0.22690582275390625 -0.0922161713242530823 0.487394571304321289
0.297440856695175171 0.034631289541721344 0.389090687036514282
-0.4664306640625 0.235355153679847717 0.454808086156845093
-0.311491638422012329 0.091464899480342865 0.417546123266220093
-0.203969314694404602 -0.0966626480221748352 0.332179397344589233
-0.291469573974609375 0.251611083745956421 0.584475457668304443
-0.073618568480014801 0.113338679075241089 0.359087944030761719
0.0499254874885082245 -0.10894332081079483 0.399268776178359985
-0.110674537718296051 0.293101668357849121 0.53973621129989624
0.0219065342098474503 0.0338295884430408478 0.528083145618438721
0.281442016363143921 -0.164695903658866882 0.265941470861434937
3 0 1 2
3 1 3 4
3 2 1 4
3 3 5 6
3 4 3 6
3 5 7 6
3 0 8 9
3 1 0 9
3 9 10 1
3 1 10 3
3 10 11 3
3 3 11 5
3 5 11 12
3 7 5 12
3 8 13 14
3 9 8 14
3 14 15 9
3 9 15 10
3 15 16 10
3 10 16 11
3 11 16 17
3 12 11 17
3 14 13 18
3 15 14 18
3 19 15 18
3 16 15 19
3 20 16 19
3 16 20 17
3 21 22 23
3 22 24 25
3 23 22 25
3 24 26 27
3 25 24 27
3 26 28 27
3 29 30 31
3 2 22 21
3 0 2 21
3 0 21 31
3 0 31 30
3 4 22 2
3 24 22 4
3 6 24 4
3 26 24 6
3 26 32 28
3 6 32 26
3 6 33 32
3 6 7 33
3 33 34 32
3 29 35 36
3 30 29 36
3 36 0 30
3 8 0 36
3 12 33 7
3 37 33 12
3 33 37 38
3 34 33 38
3 35 39 40
3 36 35 40
3 40 8 36
3 13 8 40
3 17 37 12
3 41 37 17
3 37 41 42
3 38 37 42
3 40 39 43
3 43 44 45
3 40 43 45
3 40 45 18
3 40 18 13
3 18 46 19
3 45 46 18
3 19 47 20
3 46 47 19
3 48 49 41
3 47 48 41
3 47 41 17
3 47 17 20
3 41 49 42
3 45 44 50
3 46 45 50
3 51 46 50
3 47 46 51
3 52 47 51
3 47 52 48
3 53 21 23
3 54 53 23
3 23 25 54
3 25 55 54
3 25 27 55
3 27 56 55
3 28 57 56
3 27 28 56
3 58 29 31
3 59 58 31
3 31 53 59
3 21 53 31
3 60 28 32
3 57 28 60
3 34 61 60
3 32 34 60
3 35 29 62
3 62 29 58
3 38 63 34
3 63 61 34
3 39 35 64
3 64 35 62
3 42 65 38
3 65 63 38
3 66 43 39
3 64 66 39
3 44 66 67
3 43 66 44
3 68 49 48
3 69 49 68
3 49 69 65
3 42 49 65
3 70 50 44
3 67 70 44
3 50 70 51
3 51 70 71
3 51 71 52
3 52 71 72
3 52 72 68
3 48 52 68
3 73 53 54
3 74 73 54
3 54 55 74
3 55 75 74
3 55 56 75
3 56 76 75
3 57 77 76
3 56 57 76
3 78 58 59
3 79 78 59
3 59 73 79
3 53 73 59
3 80 57 60
3 77 57 80
3 61 81 80
3 60 61 80
3 62 58 82
3 82 58 78
3 63 83 61
3 83 81 61
3 64 62 84
3 84 62 82
3 65 85 63
3 85 83 63
3 86 66 64
3 84 86 64
3 67 86 87
3 66 86 67
3 88 69 68
3 89 69 88
3 69 89 85
3 65 69 85
3 90 70 67
3 87 90 67
3 70 90 71
3 71 90 91
3 71 91 72
3 72 91 92
3 72 92 88
3 68 72 88
3 73 74 93
3 74 75 94
3 93 74 94
3 75 76 95
3 94 75 95
3 76 77 95
3 78 79 96
3 97 93 98
3 96 93 97
3 96 73 93
3 96 79 73
3 94 98 93
3 99 98 94
3 95 99 94
3 100 99 95
3 100 101 102
3 95 101 100
3 95 80 101
3 95 77 80
3 80 81 101
3 82 78 96
3 103 82 96
3 96 104 103
3 97 104 96
3 102 105 106
3 101 105 102
3 105 101 81
3 83 105 81
3 84 82 103
3 107 84 103
3 103 108 107
3 104 108 103
3 106 109 110
3 105 109 106
3 109 105 83
3 85 109 83
3 86 84 107
3 107 108 111
3 86 107 111
3 86 111 112
3 86 112 87
3 112 113 114
3 111 113 112
3 114 115 116
3 113 115 114
3 89 110 109
3 88 110 89
3 88 115 110
3 88 116 115
3 89 109 85
3 90 87 112
3 91 90 112
3 114 91 112
3 92 91 114
3 116 92 114
3 92 116 88
3 97 98 117
3 98 99 118
3 117 98 118
3 99 100 119
3 118 99 119
3 100 102 119
3 104 97 117
3 120 104 117
3 120 117 121
3 117 118 121
3 121 118 122
3 118 119 122
3 122 119 102
3 106 122 102
3 108 104 120
3 123 108 120
3 123 120 124
3 120 121 124
3 124 121 125
3 121 122 125
3 125 122 106
3 110 125 106
3 111 108 123
3 113 111 123
3 124 113 123
3 115 113 124
3 125 115 124
3 115 125 110
