ply
format ascii 1.0
comment VCGLIB generated
element vertex 126
property float x
property float y
property float z
element face 248
property list uchar int vertex_indices
end_header
-0.148491859436035156 0.0746219456195831299 -0.541950047016143799
-0.137464195489883423 0.0436505228281021118 -0.426594406366348267
-0.143084526062011719 -0.0484176091849803925 -0.48233368992805481
-0.141682624816894531 -0.169501841068267822 -0.354150712490081787
-0.0364192314445972443 -0.172197893261909485 -0.326373368501663208
-0.169289901852607727 -0.351927816867828369 -0.221706226468086243
-0.0585365258157253265 -0.364010363817214966 -0.223103553056716919
-0.135758712887763977 -0.325787246227264404 -0.11748611181974411
0.0496339760720729828 0.115338459610939026 -0.448350697755813599
0.0778754502534866333 0.00932027958333492279 -0.440926134586334229
0.0644350051879882812 -0.146648198366165161 -0.274731904268264771
0.0502824746072292328 -0.346879065036773682 -0.174973607063293457
0.0469223633408546448 -0.451410084962844849 -0.142438411712646484
0.240211471915245056 0.1578531414270401 -0.340393960475921631
0.238402679562568665 0.0576494969427585602 -0.292493492364883423
0.286906540393829346 -0.163005992770195007 -0.27530372142791748
0.274917274713516235 -0.343838930130004883 -0.139528706669807434
0.252008438110351562 -0.413787573575973511 -0.0533427782356739044
0.346991211175918579 0.0744848474860191345 -0.310728937387466431
0.270331680774688721 -0.0982146561145782471 -0.188458755612373352
0.280841171741485596 -0.276275098323822021 -0.0537033863365650177
-0.205324485898017883 0.02314029261469841 -0.232793480157852173
-0.146883323788642883 0.0858167111873626709 -0.345754414796829224
-0.192508682608604431 0.116442844271659851 -0.260329633951187134
-0.206292465329170227 -0.131188496947288513 -0.307450681924819946
-0.173028305172920227 -0.0847317129373550415 -0.207478001713752747
-0.196283653378486633 -0.288561433553695679 -0.149345189332962036
-0.0779056549072265625 -0.262778222560882568 -0.135575324296951294
-0.0967788621783256531 -0.373939871788024902 -0.102104738354682922
-0.179160431027412415 0.0765159949660301208 -0.256748586893081665
-0.173630714416503906 0.0824330374598503113 -0.367753893136978149
-0.110273353755474091 0.15906853973865509 -0.273580938577651978
-0.0999434739351272583 -0.376285523176193237 0.0860130786895751953
-0.201020225882530212 -0.439418882131576538 0.00664969254285097122
-0.207583099603652954 -0.384466946125030518 0.103396572172641754
-0.0862534791231155396 0.280554622411727905 -0.274107038974761963
-0.0178003311157226562 0.246374368667602539 -0.351945161819458008
-0.0208250675350427628 -0.318303138017654419 -0.043475031852722168
-0.00188827503006905317 -0.308408528566360474 0.0678451806306838989
0.0957790985703468323 0.15241578221321106 -0.244467452168464661
0.152497291564941406 0.243242472410202026 -0.212623462080955505
0.162113502621650696 -0.329436957836151123 0.0802381783723831177
0.208717972040176392 -0.252171456813812256 0.019329586997628212
0.166570335626602173 0.114760048687458038 -0.168291524052619934
0.324541717767715454 0.172230973839759827 -0.223044350743293762
0.444343864917755127 0.128717809915542603 -0.173371031880378723
0.350130379199981689 -0.0278166979551315308 -0.0422344580292701721
0.448884934186935425 -0.229995682835578918 -0.00798145867884159088
0.352501869201660156 -0.251274436712265015 -0.103050068020820618
0.201446205377578735 -0.335913300514221191 -0.051934320479631424
0.37923017144203186 0.207511827349662781 -0.134189516305923462
0.448861092329025269 0.0118963047862052917 -0.0574572868645191193
0.454662621021270752 -0.207136824727058411 -0.1150103360414505
-0.266208648681640625 0.120413199067115784 -0.0314682722091674805
-0.345180809497833252 0.167238056659698486 -0.0929472818970680237
-0.215530380606651306 0.00439853034913539886 -0.0149468574672937393
-0.187180832028388977 -0.204076915979385376 0.0512574091553688049
-0.23163159191608429 -0.297976493835449219 0.0593344345688819885
-0.115704528987407684 0.0830981656908988953 -0.040302276611328125
-0.109357826411724091 0.193344980478286743 -0.049009319394826889
-0.121191337704658508 -0.151730626821517944 0.0658762454986572266
-0.230253532528877258 -0.16118331253528595 0.0768438950181007385
-0.0938272401690483093 0.306643635034561157 -0.0544089041650295258
-0.0805203095078468323 -0.16905781626701355 -0.0910105258226394653
0.102734558284282684 0.203071713447570801 -0.0280867014080286026
0.132150650024414062 -0.108974635601043701 -0.1360187828540802
0.14012494683265686 0.303304791450500488 -0.0490111075341701508
0.303099930286407471 0.23902072012424469 -0.00992516614496707916
0.299679428339004517 -0.0853679925203323364 0.0403008833527565002
0.134851127862930298 -0.123540148138999939 -0.0250639505684375763
0.198384910821914673 0.207007348537445068 -0.00676433229818940163
0.233411774039268494 0.0193807743489742279 -0.121815398335456848
0.259642601013183594 -0.173629358410835266 -0.015019773505628109
-0.317748367786407471 0.247725158929824829 0.145613148808479309
-0.416825592517852783 0.205872476100921631 0.125007420778274536
-0.24441877007484436 0.0775913745164871216 0.181512027978897095
-0.339803695678710938 -0.124780744314193726 0.197339847683906555
-0.281936317682266235 -0.196692779660224915 0.261292457580566406
-0.0864394456148147583 0.095937676727771759 0.184380605816841125
-0.154361724853515625 0.178686946630477905 0.171428918838500977
-0.108462966978549957 -0.165141001343727112 0.287906914949417114
-0.041281379759311676 -0.19105878472328186 0.202283650636672974
-0.10763327032327652 0.320876389741897583 0.168754056096076965
0.0689601898193359375 -0.0709129497408866882 0.0435849018394947052
0.105837181210517883 0.254333019256591797 0.188035354018211365
0.07854461669921875 0.106516920030117035 -0.101003445684909821
0.113320343196392059 0.361592620611190796 0.165863826870918274
0.173679977655410767 0.192184552550315857 0.168600082397460938
0.345892906188964844 0.0236296523362398148 -0.148126676678657532
0.171303749084472656 0.0642767548561096191 -0.142839550971984863
0.232874542474746704 0.0995588526129722595 0.186568692326545715
0.0774478912353515625 0.0795653834939002991 0.0289636831730604172
0.2395772784948349 0.0255027841776609421 -0.116283491253852844
-0.417227715253829956 0.228801578283309937 0.235407933592796326
-0.261357605457305908 0.0671339854598045349 0.27272343635559082
-0.381196320056915283 -0.109986498951911926 0.303661614656448364
-0.127274185419082642 0.10698205977678299 0.287824869155883789
-0.160633713006973267 0.286225378513336182 0.29580610990524292
-0.292363166809082031 0.344698876142501831 0.317021787166595459
-0.299534797668457031 0.143733322620391846 0.425191491842269897
-0.231062561273574829 -0.0634051859378814697 0.394191324710845947
-0.119390480220317841 -0.143408611416816711 0.150805503129959106
-0.163488388061523438 -0.031856883317232132 0.286099702119827271
-0.112436607480049133 0.331431120634078979 0.278843820095062256
-0.0148582449182868004 0.318970531225204468 0.128560066223144531
0.00141461682505905628 0.0140031296759843826 0.0592837706208229065
-0.0133005771785974503 0.114833176136016846 0.205871254205703735
0.023978549987077713 0.270922660827636719 0.113952554762363434
0.129830032587051392 0.180353477597236633 0.229251772165298462
0.153627395629882812 0.148446649312973022 -0.0311398487538099289
0.2023458331823349 0.0879656001925468445 0.12963414192199707
0.169075325131416321 0.0517964176833629608 0.188866451382637024
0.298357009887695312 0.159692943096160889 0.123414389789104462
0.103112854063510895 0.010559537447988987 -0.0230318307876586914
0.102028839290142059 0.184183835983276367 0.0212905798107385635
0.277500152587890625 -0.0258889961987733841 0.114239446818828583
0.290446281433105469 0.0758085325360298157 -0.0329641476273536682
-0.245744377374649048 0.30578768253326416 0.228551417589187622
-0.27741590142250061 0.100605010986328125 0.323783338069915771
-0.120649330317974091 -0.0329008176922798157 0.388528674840927124
-0.076491035521030426 0.230866536498069763 0.105353988707065582
-0.121412269771099091 0.0216538440436124802 0.178079396486282349
0.0409809723496437073 0.108280785381793976 0.304557263851165771
0.0672753602266311646 0.0917886123061180115 0.2096700519323349
0.0412162132561206818 -0.0547072067856788635 0.0404538698494434357
0.198758438229560852 -0.00505885016173124313 0.191143140196800232
3 0 1 2
3 1 3 4
3 2 1 4
3 3 5 6
3 4 3 6
3 5 7 6
3 0 8 9
3 1 0 9
3 9 10 1
3 1 10 3
3 10 11 3
3 3 11 5
3 5 11 12
3 7 5 12
3 8 13 14
3 9 8 14
3 14 15 9
3 9 15 10
3 15 16 10
3 10 16 11
3 11 16 17
3 12 11 17
3 14 13 18
3 15 14 18
3 19 15 18
3 16 15 19
3 20 16 19
3 16 20 17
3 21 22 23
3 22 24 25
3 23 22 25
3 24 26 27
3 25 24 27
3 26 28 27
3 29 30 31
3 2 22 21
3 0 2 21
3 0 21 31
3 0 31 30
3 4 22 2
3 24 22 4
3 6 24 4
3 26 24 6
3 26 32 28
3 6 32 26
3 6 33 32
3 6 7 33
3 33 34 32
3 29 35 36
3 30 29 36
3 36 0 30
3 8 0 36
3 12 33 7
3 37 33 12
3 33 37 38
3 34 33 38
3 35 39 40
3 36 35 40
3 40 8 36
3 13 8 40
3 17 37 12
3 41 37 17
3 37 41 42
3 38 37 42
3 40 39 43
3 43 44 45
3 40 43 45
3 40 45 18
3 40 18 13
3 18 46 19
3 45 46 18
3 19 47 20
3 46 47 19
3 48 49 41
3 47 48 41
3 47 41 17
3 47 17 20
3 41 49 42
3 45 44 50
3 46 45 50
3 51 46 50
3 47 46 51
3 52 47 51
3 47 52 48
3 53 21 23
3 54 53 23
3 23 25 54
3 25 55 54
3 25 27 55
3 27 56 55
3 28 57 56
3 27 28 56
3 58 29 31
3 59 58 31
3 31 53 59
3 21 53 31
3 60 28 32
3 57 28 60
3 34 61 60
3 32 34 60
3 35 29 62
3 62 29 58
3 38 63 34
3 63 61 34
3 39 35 64
3 64 35 62
3 42 65 38
3 65 63 38
3 66 43 39
3 64 66 39
3 44 66 67
3 43 66 44
3 68 49 48
3 69 49 68
3 49 69 65
3 42 49 65
3 70 50 44
3 67 70 44
3 50 70 51
3 51 70 71
3 51 71 52
3 52 71 72
3 52 72 68
3 48 52 68
3 73 53 54
3 74 73 54
3 54 55 74
3 55 75 74
3 55 56 75
3 56 76 75
3 57 77 76
3 56 57 76
3 78 58 59
3 79 78 59
3 59 73 79
3 53 73 59
3 80 57 60
3 77 57 80
3 61 81 80
3 60 61 80
3 62 58 82
3 82 58 78
3 63 83 61
3 83 81 61
3 64 62 84
3 84 62 82
3 65 85 63
3 85 83 63
3 86 66 64
3 84 86 64
3 67 86 87
3 66 86 67
3 88 69 68
3 89 69 88
3 69 89 85
3 65 69 85
3 90 70 67
3 87 90 67
3 70 90 71
3 71 90 91
3 71 91 72
3 72 91 92
3 72 92 88
3 68 72 88
3 73 74 93
3 74 75 94
3 93 74 94
3 75 76 95
3 94 75 95
3 76 77 95
3 78 79 96
3 97 93 98
3 96 93 97
3 96 73 93
3 96 79 73
3 94 98 93
3 99 98 94
3 95 99 94
3 100 99 95
3 100 101 102
3 95 101 100
3 95 80 101
3 95 77 80
3 80 81 101
3 82 78 96
3 103 82 96
3 96 104 103
3 97 104 96
3 102 105 106
3 101 105 102
3 105 101 81
3 83 105 81
3 84 82 103
3 107 84 103
3 103 108 107
3 104 108 103
3 106 109 110
3 105 109 106
3 109 105 83
3 85 109 83
3 86 84 107
3 107 108 111
3 86 107 111
3 86 111 112
3 86 112 87
3 112 113 114
3 111 113 112
3 114 115 116
3 113 115 114
3 89 110 109
3 88 110 89
3 88 115 110
3 88 116 115
3 89 109 85
3 90 87 112
3 91 90 112
3 114 91 112
3 92 91 114
3 116 92 114
3 92 116 88
3 97 98 117
3 98 99 118
3 117 98 118
3 99 100 119
3 118 99 119
3 100 102 119
3 104 97 117
3 120 104 117
3 120 117 121
3 117 118 121
3 121 118 122
3 118 119 122
3 122 119 102
3 106 122 102
3 108 104 120
3 123 108 120
3 123 120 124
3 120 121 124
3 124 121 125
3 121 122 125
3 125 122 106
3 110 125 106
3 111 108 123
3 113 111 123
3 124 113 123
3 115 113 124
3 125 115 124
3 115 125 110
