ply
format ascii 1.0
comment VCGLIB generated
element vertex 126
property float x
property float y
property float z
element face 248
property list uchar int vertex_indices
end_header
-0.153214380145072937 0.176007404923439026 -0.496720731258392334
-0.175194382667541504 0.123996280133724213 -0.557930469512939453
-0.287330359220504761 0.132869988679885864 -0.496893495321273804
-0.182964622974395752 -0.0969581082463264465 -0.518107056617736816
-0.241363242268562317 -0.0813777148723602295 -0.431413471698760986
-0.186510831117630005 -0.306418061256408691 -0.44190022349357605
-0.280276089906692505 -0.302768826484680176 -0.390651226043701172
-0.185530737042427063 -0.375515639781951904 -0.349213898181915283
0.060146041214466095 0.232673570513725281 -0.553479969501495361
0.0671709552407264709 0.11901538074016571 -0.557133615016937256
0.0283006522804498672 -0.0773180276155471802 -0.442439794540405273
0.0296475347131490707 -0.296658456325531006 -0.39006417989730835
0.027278020977973938 -0.404267609119415283 -0.349431037902832031
0.28201177716255188 0.199570387601852417 -0.532077491283416748
0.272497028112411499 0.144110217690467834 -0.442828238010406494
0.256195068359375 -0.0756076574325561523 -0.424079716205596924
0.246816784143447876 -0.27585253119468689 -0.336318403482437134
0.247927457094192505 -0.383276581764221191 -0.347878038883209229
0.397052764892578125 0.121790222823619843 -0.475814908742904663
0.363097578287124634 -0.0785251855850219727 -0.435339510440826416
0.351352691650390625 -0.286837577819824219 -0.352786153554916382
-0.346444964408874512 0.276465564966201782 -0.264722585678100586
-0.316898643970489502 0.167671486735343933 -0.32458379864692688
-0.408397108316421509 0.165462374687194824 -0.273560017347335815
-0.373338580131530762 -0.0559188947081565857 -0.307148605585098267
-0.366944551467895508 -0.0572267323732376099 -0.210000932216644287
-0.39173126220703125 -0.281806677579879761 -0.26438438892364502
-0.436801940202713013 -0.266025304794311523 -0.172914370894432068
-0.374525517225265503 -0.345071285963058472 -0.145981311798095703
-0.115670427680015564 0.251332253217697144 -0.376526027917861938
-0.11654634028673172 0.342500209808349609 -0.41411292552947998
-0.171643778681755066 0.315555155277252197 -0.291164129972457886
-0.34099578857421875 -0.505530834197998047 -0.125713542103767395
-0.225995883345603943 -0.458851844072341919 -0.194911226630210876
-0.244004189968109131 -0.498261779546737671 -0.0992483422160148621
0.088261827826499939 0.18362484872341156 -0.382384896278381348
0.096806749701499939 0.293386250734329224 -0.378704816102981567
-0.00499138468876481056 -0.406542986631393433 -0.188268885016441345
-0.026267126202583313 -0.438133537769317627 -0.0751865878701210022
0.261372804641723633 0.221568554639816284 -0.321305006742477417
0.282159954309463501 0.33393096923828125 -0.418025553226470947
0.218731820583343506 -0.44544413685798645 -0.179927542805671692
0.20482577383518219 -0.409188181161880493 -0.073644198477268219
0.322047024965286255 0.325153112411499023 -0.305840075016021729
0.44160991907119751 0.242962777614593506 -0.237318187952041626
0.477089524269104004 0.111904516816139221 -0.311415761709213257
0.321473360061645508 -0.06014208123087883 -0.260023891925811768
0.455240130424499512 -0.23806135356426239 -0.218491747975349426
0.452729761600494385 -0.32706606388092041 -0.108265332877635956
0.311547815799713135 -0.445590674877166748 -0.0843169167637825012
0.470252424478530884 0.134859323501586914 -0.209729135036468506
0.332769244909286499 -0.031459268182516098 -0.150563716888427734
0.388886392116546631 -0.242413774132728577 -0.130584061145782471
-0.307785928249359131 0.257525146007537842 -0.0535864122211933136
-0.415049344301223755 0.210724040865898132 -0.0640764608979225159
-0.451883196830749512 -0.0178759898990392685 -0.00850989297032356262
-0.463840782642364502 -0.253845274448394775 0.0612101219594478607
-0.393742799758911133 -0.341392695903778076 0.0906625166535377502
-0.0153570910915732384 0.184109613299369812 -0.171158686280250549
-0.132280498743057251 0.183582678437232971 -0.101827479898929596
-0.394780099391937256 -0.508849203586578369 0.104636229574680328
-0.297047555446624756 -0.513146460056304932 0.140737399458885193
0.113777749240398407 0.360911011695861816 -0.194201469421386719
-0.0564575232565402985 -0.517281055450439453 0.135974153876304626
0.282199591398239136 0.27761349081993103 -0.113012976944446564
0.187487974762916565 -0.487263590097427368 0.139424443244934082
0.18695831298828125 0.328727275133132935 -0.124970771372318268
0.329978674650192261 0.224391341209411621 -0.0600134432315826416
0.419791311025619507 -0.296639472246170044 0.118713013827800751
0.274542301893234253 -0.422177344560623169 0.122319191694259644
0.434254884719848633 0.214799925684928894 0.00378260249271988869
0.403712362051010132 -0.00392174674198031425 0.066921532154083252
0.352153778076171875 -0.221768781542778015 0.09457368403673172
-0.338770061731338501 0.228080406785011292 0.155299261212348938
-0.44959142804145813 0.210861936211585999 0.168962851166725159
-0.494612187147140503 -0.00195166619960218668 0.225489884614944458
-0.504719674587249756 -0.213389813899993896 0.28786274790763855
-0.46026378870010376 -0.323447346687316895 0.308657437562942505
-0.101723305881023407 0.361519366502761841 0.0483802668750286102
-0.18775060772895813 0.287403285503387451 0.0896657481789588928
-0.449770420789718628 -0.497730791568756104 0.355008572340011597
-0.314072847366333008 -0.474951982498168945 0.37824741005897522
0.081907421350479126 0.341303110122680664 0.0460688918828964233
-0.072270907461643219 -0.485430389642715454 0.364140570163726807
0.26785045862197876 0.290973782539367676 0.101635463535785675
0.141961023211479187 -0.419874697923660278 0.349125862121582031
0.226444840431213379 0.40280681848526001 0.101264625787734985
0.373262286186218262 0.3232574462890625 0.143056109547615051
0.374990612268447876 -0.285601228475570679 0.339015811681747437
0.238195568323135376 -0.395690441131591797 0.343681871891021729
0.317426830530166626 0.246783867478370667 0.194243475794792175
0.331930011510848999 0.0268400982022285461 0.292066633701324463
0.330989569425582886 -0.19480547308921814 0.317550987005233765
-0.420486748218536377 0.226632639765739441 0.273513615131378174
-0.466271936893463135 0.00338165275752544403 0.324433416128158569
-0.50958782434463501 -0.208492770791053772 0.39838901162147522
-0.108908146619796753 0.33038562536239624 0.17529653012752533
-0.158202841877937317 0.161916166543960571 0.268492341041564941
-0.281480640172958374 0.169538602232933044 0.186053797602653503
-0.289066046476364136 -0.0225689206272363663 0.315398067235946655
-0.336184889078140259 -0.197385489940643311 0.447872072458267212
-0.334656059741973877 -0.464666366577148438 0.511896610260009766
-0.289168745279312134 -0.299839943647384644 0.472791582345962524
0.04395265132188797 0.204243436455726624 0.0698797553777694702
0.0545281656086444855 0.113455258309841156 0.232696905732154846
-0.0822976976633071899 -0.48712158203125 0.484741121530532837
-0.105113990604877472 -0.347931206226348877 0.383061468601226807
0.177964434027671814 0.331218481063842773 0.166789203882217407
0.200752854347229004 0.240822404623031616 0.311016499996185303
0.140185728669166565 -0.39218100905418396 0.452335268259048462
0.0749558731913566589 -0.210838302969932556 0.438255727291107178
0.304387897253036499 0.157616406679153442 0.313229560852050781
0.428054541349411011 0.225876972079277039 0.21417178213596344
0.32458379864692688 -0.0642734244465827942 0.228785008192062378
0.412034273147583008 0.04625701904296875 0.348333239555358887
0.182426169514656067 -0.114241339266300201 0.408949315547943115
0.36571502685546875 -0.164937421679496765 0.424379408359527588
-0.185818314552307129 0.161832168698310852 0.168758183717727661
-0.215844377875328064 -0.0491940192878246307 0.27662387490272522
-0.267772674560546875 -0.252772420644760132 0.37485969066619873
0.0212229229509830475 0.147869497537612915 0.134296059608459473
-0.036930672824382782 -0.0932041555643081665 0.180581539869308472
-0.04986543208360672 -0.284264713525772095 0.340211957693099976
0.183930039405822754 0.127245128154754639 0.281162440776824951
0.206624552607536316 -0.102063499391078949 0.183603584766387939
0.148321300745010376 -0.226967990398406982 0.372531414031982422
3 0 1 2
3 1 3 4
3 2 1 4
3 3 5 6
3 4 3 6
3 5 7 6
3 0 8 9
3 1 0 9
3 9 10 1
3 1 10 3
3 10 11 3
3 3 11 5
3 5 11 12
3 7 5 12
3 8 13 14
3 9 8 14
3 14 15 9
3 9 15 10
3 15 16 10
3 10 16 11
3 11 16 17
3 12 11 17
3 14 13 18
3 15 14 18
3 19 15 18
3 16 15 19
3 20 16 19
3 16 20 17
3 21 22 23
3 22 24 25
3 23 22 25
3 24 26 27
3 25 24 27
3 26 28 27
3 29 30 31
3 2 22 21
3 0 2 21
3 0 21 31
3 0 31 30
3 4 22 2
3 24 22 4
3 6 24 4
3 26 24 6
3 26 32 28
3 6 32 26
3 6 33 32
3 6 7 33
3 33 34 32
3 29 35 36
3 30 29 36
3 36 0 30
3 8 0 36
3 12 33 7
3 37 33 12
3 33 37 38
3 34 33 38
3 35 39 40
3 36 35 40
3 40 8 36
3 13 8 40
3 17 37 12
3 41 37 17
3 37 41 42
3 38 37 42
3 40 39 43
3 43 44 45
3 40 43 45
3 40 45 18
3 40 18 13
3 18 46 19
3 45 46 18
3 19 47 20
3 46 47 19
3 48 49 41
3 47 48 41
3 47 41 17
3 47 17 20
3 41 49 42
3 45 44 50
3 46 45 50
3 51 46 50
3 47 46 51
3 52 47 51
3 47 52 48
3 53 21 23
3 54 53 23
3 23 25 54
3 25 55 54
3 25 27 55
3 27 56 55
3 28 57 56
3 27 28 56
3 58 29 31
3 59 58 31
3 31 53 59
3 21 53 31
3 60 28 32
3 57 28 60
3 34 61 60
3 32 34 60
3 35 29 62
3 62 29 58
3 38 63 34
3 63 61 34
3 39 35 64
3 64 35 62
3 42 65 38
3 65 63 38
3 66 43 39
3 64 66 39
3 44 66 67
3 43 66 44
3 68 49 48
3 69 49 68
3 49 69 65
3 42 49 65
3 70 50 44
3 67 70 44
3 50 70 51
3 51 70 71
3 51 71 52
3 52 71 72
3 52 72 68
3 48 52 68
3 73 53 54
3 74 73 54
3 54 55 74
3 55 75 74
3 55 56 75
3 56 76 75
3 57 77 76
3 56 57 76
3 78 58 59
3 79 78 59
3 59 73 79
3 53 73 59
3 80 57 60
3 77 57 80
3 61 81 80
3 60 61 80
3 62 58 82
3 82 58 78
3 63 83 61
3 83 81 61
3 64 62 84
3 84 62 82
3 65 85 63
3 85 83 63
3 86 66 64
3 84 86 64
3 67 86 87
3 66 86 67
3 88 69 68
3 89 69 88
3 69 89 85
3 65 69 85
3 90 70 67
3 87 90 67
3 70 90 71
3 71 90 91
3 71 91 72
3 72 91 92
3 72 92 88
3 68 72 88
3 73 74 93
3 74 75 94
3 93 74 94
3 75 76 95
3 94 75 95
3 76 77 95
3 78 79 96
3 97 93 98
3 96 93 97
3 96 73 93
3 96 79 73
3 94 98 93
3 99 98 94
3 95 99 94
3 100 99 95
3 100 101 102
3 95 101 100
3 95 80 101
3 95 77 80
3 80 81 101
3 82 78 96
3 103 82 96
3 96 104 103
3 97 104 96
3 102 105 106
3 101 105 102
3 105 101 81
3 83 105 81
3 84 82 103
3 107 84 103
3 103 108 107
3 104 108 103
3 106 109 110
3 105 109 106
3 109 105 83
3 85 109 83
3 86 84 107
3 107 108 111
3 86 107 111
3 86 111 112
3 86 112 87
3 112 113 114
3 111 113 112
3 114 115 116
3 113 115 114
3 89 110 109
3 88 110 89
3 88 115 110
3 88 116 115
3 89 109 85
3 90 87 112
3 91 90 112
3 114 91 112
3 92 91 114
3 116 92 114
3 92 116 88
3 97 98 117
3 98 99 118
3 117 98 118
3 99 100 119
3 118 99 119
3 100 102 119
3 104 97 117
3 120 104 117
3 120 117 121
3 117 118 121
3 121 118 122
3 118 119 122
3 122 119 102
3 106 122 102
3 108 104 120
3 123 108 120
3 123 120 124
3 120 121 124
3 124 121 125
3 121 122 125
3 125 122 106
3 110 125 106
3 111 108 123
3 113 111 123
3 124 113 123
3 115 113 124
3 125 115 124
3 115 125 110
