ply
format ascii 1.0
comment VCGLIB generated
element vertex 126
property float x
property float y
property float z
element face 248
property list uchar int vertex_indices
end_header
-2.17107582092285156 0.0848404914140701294 -0.420918941497802734
-2.12471771240234375 0.189750328660011292 -0.433141231536865234
-2.16423416137695312 0.176728665828704834 -0.331079483032226562
-2.14083099365234375 -0.0254864748567342758 -0.495937585830688477
-2.20414352416992188 -0.0379788652062416077 -0.401045560836791992
-2.15527725219726562 -0.241170987486839294 -0.543179512023925781
-2.26562690734863281 -0.236395254731178284 -0.493587732315063477
-2.15475273132324219 -0.248979762196540833 -0.423877239227294922
-1.95406150817871094 0.134598448872566223 -0.427922487258911133
-1.94712448120117188 0.13415883481502533 -0.316157341003417969
-1.99426078796386719 -0.0870974510908126831 -0.341003894805908203
-1.93180465698242188 -0.261166632175445557 -0.470644235610961914
-1.9630584716796875 -0.353785097599029541 -0.426717042922973633
-1.7558441162109375 0.188552260398864746 -0.336555719375610352
-1.72840690612792969 0.0794824585318565369 -0.33475494384765625
-1.78891181945800781 -0.120290361344814301 -0.41896510124206543
-1.77672386169433594 -0.32395508885383606 -0.319375991821289062
-1.76238632202148438 -0.424455136060714722 -0.365860223770141602
-1.70635414123535156 0.111281231045722961 -0.437240839004516602
-1.681396484375 -0.10719916969537735 -0.406044483184814453
-1.67376708984375 -0.32326313853263855 -0.357287406921386719
-2.41452407836914062 0.17078004777431488 -0.232912540435791016
-2.33979988098144531 0.209231927990913391 -0.351187467575073242
-2.30613899230957031 0.198215648531913757 -0.246093273162841797
-2.37433052062988281 -0.0164426863193511963 -0.349404096603393555
-2.35873985290527344 -0.0162793789058923721 -0.237579345703125
-2.37520980834960938 -0.238773077726364136 -0.340581417083740234
-2.41857719421386719 -0.232678040862083435 -0.237062692642211914
-2.322174072265625 -0.28129616379737854 -0.217806100845336914
-2.22454452514648438 0.231042489409446716 -0.253374099731445312
-2.19694328308105469 0.248453140258789062 -0.357003450393676758
-2.30663681030273438 0.293852806091308594 -0.292688131332397461
-2.16087913513183594 -0.231661766767501831 -0.173868656158447266
-2.18963813781738281 -0.325418144464492798 -0.262248039245605469
-2.15854644775390625 -0.34448733925819397 -0.174951076507568359
-2.0337677001953125 0.347299546003341675 -0.272476434707641602
-1.98151588439941406 0.257289916276931763 -0.298367023468017578
-1.97488594055175781 -0.263915598392486572 -0.26587677001953125
-1.96990013122558594 -0.231900200247764587 -0.158868312835693359
-1.81359672546386719 0.346988499164581299 -0.2543792724609375
-1.79648590087890625 0.363707631826400757 -0.360732555389404297
-1.85311508178710938 -0.439513713121414185 -0.204352140426635742
-1.83916664123535156 -0.40426790714263916 -0.102914094924926758
-1.71112823486328125 0.383181780576705933 -0.253561496734619141
-1.61181831359863281 0.236083954572677612 -0.213096380233764648
-1.62255096435546875 0.117111489176750183 -0.27750706672668457
-1.67861175537109375 -0.0966449975967407227 -0.230535984039306641
-1.57249641418457031 -0.289916157722473145 -0.215407848358154297
-1.64830398559570312 -0.290918976068496704 -0.0979108810424804688
-1.73504066467285156 -0.439218431711196899 -0.132274627685546875
-1.68846321105957031 0.151430219411849976 -0.193635225296020508
-1.61333847045898438 -0.0530710034072399139 -0.156649112701416016
-1.54300308227539062 -0.26197516918182373 -0.111507177352905273
-2.379608154296875 0.223538815975189209 -0.0169363021850585938
-2.46261787414550781 0.242076128721237183 -0.0842592716217041016
-2.47629356384277344 0.0174397192895412445 -0.0524241924285888672
-2.42411613464355469 -0.194081500172615051 -0.0100526809692382812
-2.38500785827636719 -0.297995507717132568 -0.00141954421997070312
-2.24064064025878906 0.344809085130691528 -0.0557641983032226562
-2.34179496765136719 0.385126590728759766 -0.0901284217834472656
-2.21965408325195312 -0.259114772081375122 0.0501909255981445312
-2.17009544372558594 -0.352179676294326782 0.0336909294128417969
-2.01695632934570312 0.349052488803863525 -0.0469391345977783203
-1.97271156311035156 -0.254210919141769409 0.0657737255096435547
-1.82677078247070312 0.465428054332733154 -0.0694146156311035156
-1.75243759155273438 -0.293695271015167236 0.0727519989013671875
-1.73691940307617188 0.413028299808502197 -0.0299646854400634766
-1.61172866821289062 0.291560143232345581 -5.84125518798828125e-05
-1.62956619262695312 -0.329212397336959839 0.119301319122314453
-1.79220771789550781 -0.395409673452377319 0.0791192054748535156
-1.67261123657226562 0.201883897185325623 0.0266737937927246094
-1.65748977661132812 -0.0199905522167682648 0.0548942089080810547
-1.59362220764160156 -0.228741183876991272 0.105979442596435547
-2.47802925109863281 0.324945151805877686 0.156972646713256836
-2.38878440856933594 0.26782718300819397 0.122530460357666016
-2.28867340087890625 0.085395418107509613 0.0532801151275634766
-2.24363517761230469 -0.125262409448623657 0.105888128280639648
-2.23173332214355469 -0.227856874465942383 0.144531011581420898
-2.24961471557617188 0.487319201231002808 0.115661144256591797
-2.35050392150878906 0.442534804344177246 0.124042749404907227
-2.2564849853515625 -0.362260788679122925 0.254933595657348633
-2.18924522399902344 -0.275232046842575073 0.248744487762451172
-2.02645301818847656 0.477401167154312134 0.138528347015380859
-1.97351264953613281 -0.342773169279098511 0.268956422805786133
-1.80336570739746094 0.464172571897506714 0.159180402755737305
-1.75786209106445312 -0.284932553768157959 0.296601295471191406
-1.84392738342285156 0.357951998710632324 0.156915187835693359
-1.69965934753417969 0.270778924226760864 0.203972101211547852
-1.69548416137695312 -0.280781328678131104 0.328872203826904297
-1.862091064453125 -0.300180941820144653 0.268532514572143555
-1.60609817504882812 0.228755787014961243 0.242349386215209961
-1.69135665893554688 0.0260745026171207428 0.269868612289428711
-1.64121818542480469 -0.188495859503746033 0.318648338317871094
-2.42989730834960938 0.208580359816551208 0.204715967178344727
-2.27613258361816406 0.0490772947669029236 0.159136533737182617
-2.34824943542480469 -0.153857111930847168 0.11096644401550293
-2.2611541748046875 0.484154999256134033 0.223693132400512695
-2.25819587707519531 0.377409458160400391 0.3516693115234375
-2.34934616088867188 0.26764795184135437 0.344675064086914062
-2.3490753173828125 0.0437188223004341125 0.319135189056396484
-2.31945610046386719 -0.178576231002807617 0.29163050651550293
-2.11656570434570312 -0.356176137924194336 0.209164619445800781
-2.24651145935058594 -0.285596728324890137 0.284448385238647461
-2.03868675231933594 0.467767924070358276 0.245879888534545898
-2.04734420776367188 0.380723446607589722 0.397845268249511719
-1.9616546630859375 -0.275479376316070557 0.351385116577148438
-2.05892562866210938 -0.176350489258766174 0.239818334579467773
-1.81918907165527344 0.441415905952453613 0.267155647277832031
-1.83617973327636719 0.367215812206268311 0.430635929107666016
-1.77808570861816406 -0.181799709796905518 0.269016265869140625
-1.87597465515136719 -0.035620860755443573 0.216344594955444336
-1.79331398010253906 0.232462897896766663 0.439496755599975586
-1.65421104431152344 0.271497339010238647 0.333868980407714844
-1.829803466796875 0.0460990667343139648 0.313540935516357422
-1.66814422607421875 0.0535894036293029785 0.374891042709350586
-1.76780891418457031 -0.0931533128023147583 0.147556543350219727
-1.744873046875 -0.150362297892570496 0.316566944122314453
-2.25489425659179688 0.265874326229095459 0.286694526672363281
-2.24794387817382812 0.0428876057267189026 0.269237518310546875
-2.23297691345214844 -0.178018033504486084 0.348649024963378906
-2.06964302062988281 0.274714678525924683 0.405995607376098633
-2.04452323913574219 0.0520687662065029144 0.374474287033081055
-2.020751953125 -0.16623196005821228 0.338932514190673828
-1.850982666015625 0.283541440963745117 0.360604524612426758
-1.86775779724121094 0.10555904358625412 0.239189863204956055
-1.81944847106933594 -0.114764221012592316 0.240857362747192383
3 0 1 2
3 1 3 4
3 2 1 4
3 3 5 6
3 4 3 6
3 5 7 6
3 0 8 9
3 1 0 9
3 9 10 1
3 1 10 3
3 10 11 3
3 3 11 5
3 5 11 12
3 7 5 12
3 8 13 14
3 9 8 14
3 14 15 9
3 9 15 10
3 15 16 10
3 10 16 11
3 11 16 17
3 12 11 17
3 14 13 18
3 15 14 18
3 19 15 18
3 16 15 19
3 20 16 19
3 16 20 17
3 21 22 23
3 22 24 25
3 23 22 25
3 24 26 27
3 25 24 27
3 26 28 27
3 29 30 31
3 2 22 21
3 0 2 21
3 0 21 31
3 0 31 30
3 4 22 2
3 24 22 4
3 6 24 4
3 26 24 6
3 26 32 28
3 6 32 26
3 6 33 32
3 6 7 33
3 33 34 32
3 29 35 36
3 30 29 36
3 36 0 30
3 8 0 36
3 12 33 7
3 37 33 12
3 33 37 38
3 34 33 38
3 35 39 40
3 36 35 40
3 40 8 36
3 13 8 40
3 17 37 12
3 41 37 17
3 37 41 42
3 38 37 42
3 40 39 43
3 43 44 45
3 40 43 45
3 40 45 18
3 40 18 13
3 18 46 19
3 45 46 18
3 19 47 20
3 46 47 19
3 48 49 41
3 47 48 41
3 47 41 17
3 47 17 20
3 41 49 42
3 45 44 50
3 46 45 50
3 51 46 50
3 47 46 51
3 52 47 51
3 47 52 48
3 53 21 23
3 54 53 23
3 23 25 54
3 25 55 54
3 25 27 55
3 27 56 55
3 28 57 56
3 27 28 56
3 58 29 31
3 59 58 31
3 31 53 59
3 21 53 31
3 60 28 32
3 57 28 60
3 34 61 60
3 32 34 60
3 35 29 62
3 62 29 58
3 38 63 34
3 63 61 34
3 39 35 64
3 64 35 62
3 42 65 38
3 65 63 38
3 66 43 39
3 64 66 39
3 44 66 67
3 43 66 44
3 68 49 48
3 69 49 68
3 49 69 65
3 42 49 65
3 70 50 44
3 67 70 44
3 50 70 51
3 51 70 71
3 51 71 52
3 52 71 72
3 52 72 68
3 48 52 68
3 73 53 54
3 74 73 54
3 54 55 74
3 55 75 74
3 55 56 75
3 56 76 75
3 57 77 76
3 56 57 76
3 78 58 59
3 79 78 59
3 59 73 79
3 53 73 59
3 80 57 60
3 77 57 80
3 61 81 80
3 60 61 80
3 62 58 82
3 82 58 78
3 63 83 61
3 83 81 61
3 64 62 84
3 84 62 82
3 65 85 63
3 85 83 63
3 86 66 64
3 84 86 64
3 67 86 87
3 66 86 67
3 88 69 68
3 89 69 88
3 69 89 85
3 65 69 85
3 90 70 67
3 87 90 67
3 70 90 71
3 71 90 91
3 71 91 72
3 72 91 92
3 72 92 88
3 68 72 88
3 73 74 93
3 74 75 94
3 93 74 94
3 75 76 95
3 94 75 95
3 76 77 95
3 78 79 96
3 97 93 98
3 96 93 97
3 96 73 93
3 96 79 73
3 94 98 93
3 99 98 94
3 95 99 94
3 100 99 95
3 100 101 102
3 95 101 100
3 95 80 101
3 95 77 80
3 80 81 101
3 82 78 96
3 103 82 96
3 96 104 103
3 97 104 96
3 102 105 106
3 101 105 102
3 105 101 81
3 83 105 81
3 84 82 103
3 107 84 103
3 103 108 107
3 104 108 103
3 106 109 110
3 105 109 106
3 109 105 83
3 85 109 83
3 86 84 107
3 107 108 111
3 86 107 111
3 86 111 112
3 86 112 87
3 112 113 114
3 111 113 112
3 114 115 116
3 113 115 114
3 89 110 109
3 88 110 89
3 88 115 110
3 88 116 115
3 89 109 85
3 90 87 112
3 91 90 112
3 114 91 112
3 92 91 114
3 116 92 114
3 92 116 88
3 97 98 117
3 98 99 118
3 117 98 118
3 99 100 119
3 118 99 119
3 100 102 119
3 104 97 117
3 120 104 117
3 120 117 121
3 117 118 121
3 121 118 122
3 118 119 122
3 122 119 102
3 106 122 102
3 108 104 120
3 123 108 120
3 123 120 124
3 120 121 124
3 124 121 125
3 121 122 125
3 125 122 106
3 110 125 106
3 111 108 123
3 113 111 123
3 124 113 123
3 115 113 124
3 125 115 124
3 115 125 110
