ply
format ascii 1.0
comment VCGLIB generated
element vertex 126
property float x
property float y
property float z
element face 248
property list uchar int vertex_indices
end_header
-0.185565948486328125 0.272836536169052124 -0.47982025146484375
-0.176095321774482727 0.164490029215812683 -0.495737403631210327
-0.281592041254043579 0.175268694758415222 -0.530920982360839844
-0.16680908203125 -0.0597780533134937286 -0.476426452398300171
-0.278471618890762329 -0.0646419450640678406 -0.497813552618026733
-0.165913894772529602 -0.263460367918014526 -0.37891879677772522
-0.266393035650253296 -0.28413882851600647 -0.415065765380859375
-0.166039779782295227 -0.373648494482040405 -0.390051990747451782
0.0244547519832849503 0.259727388620376587 -0.424991458654403687
0.031093597412109375 0.159171313047409058 -0.414650440216064453
0.0515607185661792755 -0.0606811828911304474 -0.434645801782608032
0.054347991943359375 -0.281682819128036499 -0.39836883544921875
0.0574010200798511505 -0.379172354936599731 -0.351085186004638672
0.231983184814453125 0.271285861730575562 -0.346123069524765015
0.252483367919921875 0.181541517376899719 -0.39723476767539978
0.272082000970840454 -0.0402985475957393646 -0.390602737665176392
0.277898162603378296 -0.268190056085586548 -0.370011806488037109
0.268084198236465454 -0.346585363149642944 -0.29687228798866272
0.346160888671875 0.195891961455345154 -0.364205837249755859
0.36827850341796875 -0.0243111327290534973 -0.353492408990859985
0.363496154546737671 -0.250314295291900635 -0.308829158544540405
-0.429167419672012329 0.254737734794616699 -0.289057731628417969
-0.334364563226699829 0.180356487631797791 -0.350771903991699219
-0.368413299322128296 0.165619209408760071 -0.245058372616767883
-0.378327697515487671 -0.0359030701220035553 -0.349406719207763672
-0.418885558843612671 -0.0393786169588565826 -0.237442329525947571
-0.397747039794921875 -0.253244161605834961 -0.290207713842391968
-0.331751495599746704 -0.232824146747589111 -0.196878910064697266
-0.400726318359375 -0.31563231348991394 -0.161147281527519226
-0.241246536374092102 0.385823726654052734 -0.230792522430419922
-0.205347701907157898 0.377754420042037964 -0.33214840292930603
-0.324694305658340454 0.415836304426193237 -0.293947070837020874
-0.297756195068359375 -0.451623320579528809 -0.133608505129814148
-0.195059463381767273 -0.454643726348876953 -0.222149685025215149
-0.202714279294013977 -0.466076642274856567 -0.102370895445346832
-0.0227101650089025497 0.417624592781066895 -0.192746639251708984
0.000974019349087029696 0.363183885812759399 -0.282171577215194702
0.0255330409854650497 -0.440198898315429688 -0.1793212890625
0.0137761430814862251 -0.391613960266113281 -0.0949803963303565979
0.18023681640625 0.497707933187484741 -0.202581405639648438
0.210962936282157898 0.439293771982192993 -0.293355315923690796
0.247069045901298523 -0.441477268934249878 -0.142376258969306946
0.227280929684638977 -0.444381922483444214 -0.0355273894965648651
0.27831268310546875 0.45161864161491394 -0.167211219668388367
0.375326782464981079 0.312205374240875244 -0.10936339944601059
0.376560211181640625 0.195915505290031433 -0.188717842102050781
0.341917663812637329 -0.0148984706029295921 -0.173340320587158203
0.451505035161972046 -0.203277528285980225 -0.148717567324638367
0.4368896484375 -0.274828344583511353 -0.0365420989692211151
0.327672332525253296 -0.410566478967666626 -0.0281402263790369034
0.298099517822265625 0.228478595614433289 -0.120772361755371094
0.381140381097793579 0.0327415578067302704 -0.0789313316345214844
0.388042449951171875 -0.176272332668304443 -0.0601822547614574432
-0.443964630365371704 0.284438163042068481 -0.0603702850639820099
-0.482110351324081421 0.190192282199859619 -0.0357699394226074219
-0.472284942865371704 -0.0197092294692993164 -0.0137688321992754936
-0.331102997064590454 -0.18608953058719635 0.0287335719913244247
-0.281739562749862671 -0.28218841552734375 0.0426810570061206818
-0.293947845697402954 0.516402363777160645 -0.0528888702392578125
-0.390126556158065796 0.461277395486831665 -0.0822924003005027771
-0.346691131591796875 -0.435675531625747681 0.0917763710021972656
-0.249228164553642273 -0.390479773283004761 0.110065780580043793
-0.075331367552280426 0.512769818305969238 0.00622049951925873756
-0.0319875068962574005 -0.319177597761154175 0.104862846434116364
0.137760162353515625 0.593568801879882812 0.00902509689331054688
0.179894760251045227 -0.355508655309677124 0.165951892733573914
0.216096237301826477 0.519033193588256836 0.0394620895385742188
0.304281860589981079 0.36916998028755188 0.0890316963195800781
0.402172088623046875 -0.208854570984840393 0.17366616427898407
0.283117920160293579 -0.34295952320098877 0.180900409817695618
0.237967178225517273 0.27618756890296936 0.0893513336777687073
0.311915069818496704 0.0677359923720359802 0.135688468813896179
0.446206420660018921 -0.104318402707576752 0.149347469210624695
-0.368799835443496704 0.315701305866241455 0.160274028778076172
-0.446374267339706421 0.245359644293785095 0.154335975646972656
-0.486576080322265625 0.0359789654612541199 0.211404323577880859
-0.332004547119140625 -0.136488974094390869 0.240797519683837891
-0.255816131830215454 -0.214907452464103699 0.261432498693466187
-0.358402252197265625 0.565056979656219482 0.168175384402275085
-0.424043029546737671 0.500086963176727295 0.170354053378105164
-0.370072692632675171 -0.340439796447753906 0.318027347326278687
-0.27822113037109375 -0.343261122703552246 0.339282989501953125
-0.120649971067905426 0.560504257678985596 0.249736309051513672
-0.077068328857421875 -0.217221036553382874 0.30025830864906311
0.1089019775390625 0.58815377950668335 0.283852428197860718
0.115931190550327301 -0.311726093292236328 0.369480609893798828
0.146732330322265625 0.548418164253234863 0.248767375946044922
0.272272735834121704 0.437099069356918335 0.293992668390274048
0.32474517822265625 -0.131622180342674255 0.372554630041122437
0.216489151120185852 -0.279019773006439209 0.374297767877578735
0.218756362795829773 0.329910725355148315 0.304030090570449829
0.34029388427734375 0.138723269104957581 0.346754074096679688
0.289346069097518921 -0.0690159276127815247 0.295434623956680298
-0.439497619867324829 0.263716816902160645 0.255372852087020874
-0.476929992437362671 0.0641070008277893066 0.322841018438339233
-0.295130401849746704 -0.0716981366276741028 0.302397400140762329
-0.412942260503768921 0.627087652683258057 0.321197032928466797
-0.330647796392440796 0.460953325033187866 0.410674422979354858
-0.426298767328262329 0.349851280450820923 0.413301140069961548
-0.361138671636581421 0.151838764548301697 0.451439231634140015
-0.367914825677871704 -0.0665322914719581604 0.476435750722885132
-0.300371795892715454 -0.332150071859359741 0.448051303625106812
-0.336321502923965454 -0.174971163272857666 0.566416680812835693
-0.1847991943359375 0.647448599338531494 0.338209956884384155
-0.157858535647392273 0.530517339706420898 0.472495406866073608
-0.094801582396030426 -0.215113654732704163 0.399904400110244751
-0.120029449462890625 -0.130408748984336853 0.543816864490509033
0.062605537474155426 0.624312460422515869 0.348445743322372437
0.069286346435546875 0.534179329872131348 0.512715816497802734
0.108277641236782074 -0.284756511449813843 0.468189865350723267
0.0890655517578125 -0.12457624077796936 0.565272808074951172
0.151406601071357727 0.412124514579772949 0.526987969875335693
0.275447845458984375 0.370828360319137573 0.395970672369003296
0.0446929931640625 0.210620984435081482 0.47506752610206604
0.236935928463935852 0.156919077038764954 0.410035938024520874
0.066106162965297699 -0.049925830215215683 0.453605800867080688
0.21114349365234375 -0.0546545684337615967 0.352655559778213501
-0.355520874261856079 0.37746700644493103 0.498762369155883789
-0.313622802495956421 0.174704656004905701 0.570869743824005127
-0.300174713134765625 -0.0585289560258388519 0.58077627420425415
-0.134244278073310852 0.411805838346481323 0.473210960626602173
-0.110992431640625 0.179078638553619385 0.519338548183441162
-0.101117454469203949 -0.0431409478187561035 0.578922927379608154
0.091496787965297699 0.424189180135726929 0.457050949335098267
0.104644775390625 0.192565247416496277 0.460492938756942749
0.115472160279750824 -0.0239026490598917007 0.529008150100708008
3 0 1 2
3 1 3 4
3 2 1 4
3 3 5 6
3 4 3 6
3 5 7 6
3 0 8 9
3 1 0 9
3 9 10 1
3 1 10 3
3 10 11 3
3 3 11 5
3 5 11 12
3 7 5 12
3 8 13 14
3 9 8 14
3 14 15 9
3 9 15 10
3 15 16 10
3 10 16 11
3 11 16 17
3 12 11 17
3 14 13 18
3 15 14 18
3 19 15 18
3 16 15 19
3 20 16 19
3 16 20 17
3 21 22 23
3 22 24 25
3 23 22 25
3 24 26 27
3 25 24 27
3 26 28 27
3 29 30 31
3 2 22 21
3 0 2 21
3 0 21 31
3 0 31 30
3 4 22 2
3 24 22 4
3 6 24 4
3 26 24 6
3 26 32 28
3 6 32 26
3 6 33 32
3 6 7 33
3 33 34 32
3 29 35 36
3 30 29 36
3 36 0 30
3 8 0 36
3 12 33 7
3 37 33 12
3 33 37 38
3 34 33 38
3 35 39 40
3 36 35 40
3 40 8 36
3 13 8 40
3 17 37 12
3 41 37 17
3 37 41 42
3 38 37 42
3 40 39 43
3 43 44 45
3 40 43 45
3 40 45 18
3 40 18 13
3 18 46 19
3 45 46 18
3 19 47 20
3 46 47 19
3 48 49 41
3 47 48 41
3 47 41 17
3 47 17 20
3 41 49 42
3 45 44 50
3 46 45 50
3 51 46 50
3 47 46 51
3 52 47 51
3 47 52 48
3 53 21 23
3 54 53 23
3 23 25 54
3 25 55 54
3 25 27 55
3 27 56 55
3 28 57 56
3 27 28 56
3 58 29 31
3 59 58 31
3 31 53 59
3 21 53 31
3 60 28 32
3 57 28 60
3 34 61 60
3 32 34 60
3 35 29 62
3 62 29 58
3 38 63 34
3 63 61 34
3 39 35 64
3 64 35 62
3 42 65 38
3 65 63 38
3 66 43 39
3 64 66 39
3 44 66 67
3 43 66 44
3 68 49 48
3 69 49 68
3 49 69 65
3 42 49 65
3 70 50 44
3 67 70 44
3 50 70 51
3 51 70 71
3 51 71 52
3 52 71 72
3 52 72 68
3 48 52 68
3 73 53 54
3 74 73 54
3 54 55 74
3 55 75 74
3 55 56 75
3 56 76 75
3 57 77 76
3 56 57 76
3 78 58 59
3 79 78 59
3 59 73 79
3 53 73 59
3 80 57 60
3 77 57 80
3 61 81 80
3 60 61 80
3 62 58 82
3 82 58 78
3 63 83 61
3 83 81 61
3 64 62 84
3 84 62 82
3 65 85 63
3 85 83 63
3 86 66 64
3 84 86 64
3 67 86 87
3 66 86 67
3 88 69 68
3 89 69 88
3 69 89 85
3 65 69 85
3 90 70 67
3 87 90 67
3 70 90 71
3 71 90 91
3 71 91 72
3 72 91 92
3 72 92 88
3 68 72 88
3 73 74 93
3 74 75 94
3 93 74 94
3 75 76 95
3 94 75 95
3 76 77 95
3 78 79 96
3 97 93 98
3 96 93 97
3 96 73 93
3 96 79 73
3 94 98 93
3 99 98 94
3 95 99 94
3 100 99 95
3 100 101 102
3 95 101 100
3 95 80 101
3 95 77 80
3 80 81 101
3 82 78 96
3 103 82 96
3 96 104 103
3 97 104 96
3 102 105 106
3 101 105 102
3 105 101 81
3 83 105 81
3 84 82 103
3 107 84 103
3 103 108 107
3 104 108 103
3 106 109 110
3 105 109 106
3 109 105 83
3 85 109 83
3 86 84 107
3 107 108 111
3 86 107 111
3 86 111 112
3 86 112 87
3 112 113 114
3 111 113 112
3 114 115 116
3 113 115 114
3 89 110 109
3 88 110 89
3 88 115 110
3 88 116 115
3 89 109 85
3 90 87 112
3 91 90 112
3 114 91 112
3 92 91 114
3 116 92 114
3 92 116 88
3 97 98 117
3 98 99 118
3 117 98 118
3 99 100 119
3 118 99 119
3 100 102 119
3 104 97 117
3 120 104 117
3 120 117 121
3 117 118 121
3 121 118 122
3 118 119 122
3 122 119 102
3 106 122 102
3 108 104 120
3 123 108 120
3 123 120 124
3 120 121 124
3 124 121 125
3 121 122 125
3 125 122 106
3 110 125 106
3 111 108 123
3 113 111 123
3 124 113 123
3 115 113 124
3 125 115 124
3 115 125 110
