ply
format ascii 1.0
comment VCGLIB generated
element vertex 126
property float x
property float y
property float z
element face 248
property list uchar int vertex_indices
end_header
-0.210320413112640381 0.176344513893127441 -0.494883984327316284
-0.201878190040588379 0.0470075607299804688 -0.538695216178894043
-0.260728687047958374 0.065883830189704895 -0.434535115957260132
-0.218246176838874817 -0.168730393052101135 -0.481448382139205933
-0.332456737756729126 -0.140998482704162598 -0.416046857833862305
-0.074486367404460907 -0.175309807062149048 -0.299668699502944946
-0.159778594970703125 -0.107647262513637543 -0.260365009307861328
-0.09014129638671875 -0.185948476195335388 -0.179722130298614502
-0.00232403096742928028 0.118903912603855133 -0.446749120950698853
-0.037410445511341095 0.049122195690870285 -0.375593453645706177
-0.077615886926651001 -0.165473014116287231 -0.320298135280609131
-0.108371153473854065 -0.390532940626144409 -0.272561401128768921
-0.085438951849937439 -0.408546388149261475 -0.171347036957740784
0.201342657208442688 0.0854281634092330933 -0.353644460439682007
0.165515318512916565 -0.000967127329204231501 -0.308115482330322266
0.123942449688911438 -0.213818058371543884 -0.273540019989013672
0.088939666748046875 -0.436445504426956177 -0.26128697395324707
0.063417874276638031 -0.544189989566802979 -0.246630460023880005
0.195322781801223755 -0.0252750758081674576 -0.4322490394115448
0.131227061152458191 -0.2189512699842453 -0.374137639999389648
0.148340374231338501 -0.44892314076423645 -0.34200778603553772
-0.337584584951400757 0.232807546854019165 -0.210353240370750427
-0.381729423999786377 0.124318905174732208 -0.303918033838272095
-0.385368078947067261 0.15027301013469696 -0.176980689167976379
-0.443710923194885254 -0.0909789428114891052 -0.255968749523162842
-0.462468981742858887 -0.0577629394829273224 -0.126643374562263489
-0.291497170925140381 -0.221248134970664978 -0.197405636310577393
-0.309099048376083374 -0.232592254877090454 -0.0875867381691932678
-0.245908603072166443 -0.301979750394821167 -0.0903683453798294067
-0.087264135479927063 0.141014918684959412 -0.199520409107208252
-0.168093174695968628 0.15621224045753479 -0.317491203546524048
-0.161903098225593567 0.239562198519706726 -0.213239014148712158
-0.150696679949760437 -0.231950700283050537 0.0322954468429088593
-0.0402186475694179535 -0.182166546583175659 -0.0159379150718450546
-0.083622567355632782 -0.276237666606903076 -0.0481779761612415314
0.0616968609392642975 0.164156064391136169 -0.306819409132003784
0.031359747052192688 0.271387696266174316 -0.356622666120529175
0.070213906466960907 -0.349016308784484863 -0.0690553784370422363
0.055946938693523407 -0.427631944417953491 0.00258152303285896778
0.249088004231452942 0.238746166229248047 -0.305639594793319702
0.250389397144317627 0.25191769003868103 -0.411878019571304321
0.102716594934463501 -0.566310107707977295 -0.0646512359380722046
0.226158738136291504 -0.547243118286132812 -0.0280123502016067505
0.308556199073791504 0.26317867636680603 -0.257505089044570923
0.396330922842025757 0.10608266294002533 -0.23373018205165863
0.329212784767150879 -0.0133910560980439186 -0.297202527523040771
0.269128382205963135 -0.207680448889732361 -0.241075858473777771
0.309810638427734375 -0.416826158761978149 -0.254552364349365234
0.294726461172103882 -0.380766093730926514 -0.131109505891799927
0.26392132043838501 -0.556902587413787842 -0.107918336987495422
0.336601555347442627 0.0300361551344394684 -0.198423862457275391
0.372647523880004883 -0.192202016711235046 -0.189668953418731689
0.224637255072593689 -0.362803071737289429 -0.176379144191741943
-0.345909416675567627 0.29695400595664978 0.0216263998299837112
-0.437178999185562134 0.217594653367996216 0.0518575087189674377
-0.376564919948577881 0.0235069133341312408 0.0866620391607284546
-0.364159822463989258 -0.183411136269569397 0.105502426624298096
-0.328376501798629761 -0.292508780956268311 0.118485048413276672
-0.029164828360080719 0.171188205480575562 -0.00494278408586978912
-0.178345903754234314 0.204049885272979736 0.0118261119350790977
-0.166552618145942688 -0.427405565977096558 0.141515374183654785
-0.073892153799533844 -0.401612162590026855 0.104785703122615814
0.276459932327270508 0.11604975163936615 -0.0563021823763847351
0.141739487648010254 -0.348465234041213989 0.175002366304397583
0.36466747522354126 0.159324899315834045 -0.108946293592453003
0.34387737512588501 -0.435807853937149048 0.121802188456058502
0.196078374981880188 0.206242263317108154 -0.069471508264541626
0.296283155679702759 0.0775741785764694214 -0.03115067258477211
0.396916329860687256 -0.340175926685333252 0.027437577024102211
0.237712875008583069 -0.431559056043624878 0.0635178312659263611
0.389862060546875 0.0434263013303279877 0.0190272703766822815
0.374296635389328003 -0.179393172264099121 0.03073875792324543
0.298316687345504761 -0.389331787824630737 0.0309159215539693832
-0.328024357557296753 0.368618547916412354 0.243902027606964111
-0.408273845911026001 0.308521777391433716 0.26301237940788269
-0.433461129665374756 0.0666491910815238953 0.302712738513946533
-0.362648606300354004 -0.129459738731384277 0.30352097749710083
-0.320871800184249878 -0.2195843905210495 0.318012237548828125
-0.0385181717574596405 0.369400858879089355 0.108463950455188751
-0.194611191749572754 0.370862632989883423 0.165379419922828674
-0.15097692608833313 -0.311946690082550049 0.321395218372344971
-0.061098247766494751 -0.358700454235076904 0.332208067178726196
0.213069930672645569 0.294148117303848267 0.13934740424156189
0.11551637202501297 -0.482396543025970459 0.280130296945571899
0.346797078847885132 0.191099852323532104 0.186534672975540161
0.292208760976791382 -0.611619234085083008 0.209211215376853943
0.289500325918197632 0.31859704852104187 0.0907877832651138306
0.260133028030395508 0.172484248876571655 0.174556881189346313
0.474605590105056763 -0.450709760189056396 0.197959870100021362
0.363297104835510254 -0.606195151805877686 0.128919348120689392
0.263999074697494507 0.0620038546621799469 0.208601042628288269
0.326313614845275879 -0.154831171035766602 0.242158085107803345
0.44401317834854126 -0.344458043575286865 0.195215851068496704
-0.374026685953140259 0.447163134813308716 0.328876078128814697
-0.373017251491546631 0.141031146049499512 0.394211918115615845
-0.348314166069030762 -0.134573087096214294 0.416593194007873535
-0.06016511470079422 0.43884626030921936 0.202810585498809814
-0.135286778211593628 0.290559530258178711 0.253812909126281738
-0.27476385235786438 0.285036802291870117 0.200021460652351379
-0.268347829580307007 0.0645066499710083008 0.246906101703643799
-0.237117186188697815 -0.180347740650177002 0.286046922206878662
-0.138828575611114502 -0.439318835735321045 0.357454568147659302
-0.173269420862197876 -0.317878037691116333 0.234358862042427063
0.081505410373210907 0.320491582155227661 0.0320016443729400635
0.087340429425239563 0.19409547746181488 0.150935843586921692
0.0219594519585371017 -0.56242525577545166 0.229411318898200989
-0.00892492476850748062 -0.427700906991958618 0.0927972793579101562
0.20305633544921875 0.219324782490730286 0.145951420068740845
0.299615144729614258 0.153817102313041687 0.0329828262329101562
0.210823655128479004 -0.649027585983276367 0.13483726978302002
0.164880022406578064 -0.467041105031967163 0.216725975275039673
0.367264389991760254 0.0335354842245578766 0.046411663293838501
0.368887096643447876 0.0938916727900505066 0.207109645009040833
0.330456972122192383 -0.177265018224716187 0.138038307428359985
0.424239844083786011 -0.121834166347980499 0.274034112691879272
0.230595529079437256 -0.348481416702270508 0.2725333571434021
0.404821544885635376 -0.353772342205047607 0.292636454105377197
-0.17377413809299469 0.199995338916778564 0.189837872982025146
-0.179730936884880066 0.0195973757654428482 0.204396620392799377
-0.15270233154296875 -0.194316461682319641 0.238175034523010254
0.0464160628616809845 0.153546720743179321 0.0781105160713195801
0.025504186749458313 -0.0549976825714111328 0.10132184624671936
-0.00482412520796060562 -0.282451003789901733 0.101780898869037628
0.277547121047973633 0.0732645243406295776 0.0869173333048820496
0.24262942373752594 -0.125978738069534302 0.181040406227111816
0.195371195673942566 -0.345885157585144043 0.169976130127906799
3 0 1 2
3 1 3 4
3 2 1 4
3 3 5 6
3 4 3 6
3 5 7 6
3 0 8 9
3 1 0 9
3 9 10 1
3 1 10 3
3 10 11 3
3 3 11 5
3 5 11 12
3 7 5 12
3 8 13 14
3 9 8 14
3 14 15 9
3 9 15 10
3 15 16 10
3 10 16 11
3 11 16 17
3 12 11 17
3 14 13 18
3 15 14 18
3 19 15 18
3 16 15 19
3 20 16 19
3 16 20 17
3 21 22 23
3 22 24 25
3 23 22 25
3 24 26 27
3 25 24 27
3 26 28 27
3 29 30 31
3 2 22 21
3 0 2 21
3 0 21 31
3 0 31 30
3 4 22 2
3 24 22 4
3 6 24 4
3 26 24 6
3 26 32 28
3 6 32 26
3 6 33 32
3 6 7 33
3 33 34 32
3 29 35 36
3 30 29 36
3 36 0 30
3 8 0 36
3 12 33 7
3 37 33 12
3 33 37 38
3 34 33 38
3 35 39 40
3 36 35 40
3 40 8 36
3 13 8 40
3 17 37 12
3 41 37 17
3 37 41 42
3 38 37 42
3 40 39 43
3 43 44 45
3 40 43 45
3 40 45 18
3 40 18 13
3 18 46 19
3 45 46 18
3 19 47 20
3 46 47 19
3 48 49 41
3 47 48 41
3 47 41 17
3 47 17 20
3 41 49 42
3 45 44 50
3 46 45 50
3 51 46 50
3 47 46 51
3 52 47 51
3 47 52 48
3 53 21 23
3 54 53 23
3 23 25 54
3 25 55 54
3 25 27 55
3 27 56 55
3 28 57 56
3 27 28 56
3 58 29 31
3 59 58 31
3 31 53 59
3 21 53 31
3 60 28 32
3 57 28 60
3 34 61 60
3 32 34 60
3 35 29 62
3 62 29 58
3 38 63 34
3 63 61 34
3 39 35 64
3 64 35 62
3 42 65 38
3 65 63 38
3 66 43 39
3 64 66 39
3 44 66 67
3 43 66 44
3 68 49 48
3 69 49 68
3 49 69 65
3 42 49 65
3 70 50 44
3 67 70 44
3 50 70 51
3 51 70 71
3 51 71 52
3 52 71 72
3 52 72 68
3 48 52 68
3 73 53 54
3 74 73 54
3 54 55 74
3 55 75 74
3 55 56 75
3 56 76 75
3 57 77 76
3 56 57 76
3 78 58 59
3 79 78 59
3 59 73 79
3 53 73 59
3 80 57 60
3 77 57 80
3 61 81 80
3 60 61 80
3 62 58 82
3 82 58 78
3 63 83 61
3 83 81 61
3 64 62 84
3 84 62 82
3 65 85 63
3 85 83 63
3 86 66 64
3 84 86 64
3 67 86 87
3 66 86 67
3 88 69 68
3 89 69 88
3 69 89 85
3 65 69 85
3 90 70 67
3 87 90 67
3 70 90 71
3 71 90 91
3 71 91 72
3 72 91 92
3 72 92 88
3 68 72 88
3 73 74 93
3 74 75 94
3 93 74 94
3 75 76 95
3 94 75 95
3 76 77 95
3 78 79 96
3 97 93 98
3 96 93 97
3 96 73 93
3 96 79 73
3 94 98 93
3 99 98 94
3 95 99 94
3 100 99 95
3 100 101 102
3 95 101 100
3 95 80 101
3 95 77 80
3 80 81 101
3 82 78 96
3 103 82 96
3 96 104 103
3 97 104 96
3 102 105 106
3 101 105 102
3 105 101 81
3 83 105 81
3 84 82 103
3 107 84 103
3 103 108 107
3 104 108 103
3 106 109 110
3 105 109 106
3 109 105 83
3 85 109 83
3 86 84 107
3 107 108 111
3 86 107 111
3 86 111 112
3 86 112 87
3 112 113 114
3 111 113 112
3 114 115 116
3 113 115 114
3 89 110 109
3 88 110 89
3 88 115 110
3 88 116 115
3 89 109 85
3 90 87 112
3 91 90 112
3 114 91 112
3 92 91 114
3 116 92 114
3 92 116 88
3 97 98 117
3 98 99 118
3 117 98 118
3 99 100 119
3 118 99 119
3 100 102 119
3 104 97 117
3 120 104 117
3 120 117 121
3 117 118 121
3 121 118 122
3 118 119 122
3 122 119 102
3 106 122 102
3 108 104 120
3 123 108 120
3 123 120 124
3 120 121 124
3 124 121 125
3 121 122 125
3 125 122 106
3 110 125 106
3 111 108 123
3 113 111 123
3 124 113 123
3 115 113 124
3 125 115 124
3 115 125 110
