ply
format ascii 1.0
comment VCGLIB generated
element vertex 126
property float x
property float y
property float z
element face 248
property list uchar int vertex_indices
end_header
0.01485443115234375 -0.0487590767443180084 -0.325043350458145142
0.0569279976189136505 -0.0667014345526695251 -0.225470066070556641
-0.0180816650390625 -0.150847926735877991 -0.234313800930976868
-0.023242950439453125 -0.132173791527748108 -0.0212515201419591904
0.0475413016974925995 -0.209366917610168457 -0.0280764903873205185
0.13158416748046875 -0.202960491180419922 0.130254268646240234
0.046031951904296875 -0.249318525195121765 0.188317939639091492
0.0619303397834300995 -0.127526342868804932 0.155621841549873352
-0.019992828369140625 0.158488422632217407 -0.24674542248249054
-0.0203857421875 0.123354412615299225 -0.141945526003837585
0.0277557373046875 0.0628090202808380127 0.0675193443894386292
0.078425087034702301 -0.0358692072331905365 0.265745013952255249
0.17299652099609375 -0.0372450314462184906 0.31979784369468689
0.191290542483329773 0.0805204436182975769 -0.2521820068359375
0.199022933840751648 0.0866110995411872864 -0.144120052456855774
0.226179763674736023 0.160665303468704224 0.0648474693298339844
0.260531097650527954 0.0989549756050109863 0.279846996068954468
0.265850067138671875 0.101041048765182495 0.170323848724365234
0.289217621088027954 0.142415791749954224 -0.175582721829414368
0.319040924310684204 0.102001190185546875 0.0395320244133472443
0.367441803216934204 0.12490440160036087 0.256958156824111938
-0.272730499505996704 -0.0459164269268512726 -0.200953960418701172
-0.135920211672782898 -0.036051873117685318 -0.164773941040039062
-0.221678420901298523 -0.0382118523120880127 -0.0974149703979492188
0.0252227783203125 -0.0271147042512893677 -0.00220410036854445934
-0.0615247078239917755 0.000398674659663811326 0.0661994591355323792
-0.064992271363735199 -0.226477101445198059 0.0484415702521800995
-0.153929397463798523 -0.195308148860931396 0.00210650754161179066
-0.107625328004360199 -0.0942779779434204102 0.0196603145450353622
-0.183907821774482727 0.0467072837054729462 -0.449004024267196655
-0.135007217526435852 0.045650925487279892 -0.350645869970321655
-0.254820495843887329 -0.00745713105425238609 -0.382138580083847046
-0.06885528564453125 0.0445244498550891876 0.131558895111083984
0.0417391471564769745 0.0080698477104306221 0.0599997825920581818
-0.0557530708611011505 -0.0432322211563587189 0.0818370208144187927
-0.016033172607421875 0.206064239144325256 -0.515472233295440674
-0.00692494725808501244 0.219830557703971863 -0.41359981894493103
0.0137392682954668999 0.0379202701151371002 0.279791027307510376
0.0135752363130450249 -0.0700865611433982849 0.295639991760253906
0.134953811764717102 0.149675175547599792 -0.348665863275527954
0.195576980710029602 0.106014840304851532 -0.429793685674667358
0.233324691653251648 0.0303066950291395187 0.341552406549453735
0.231708526611328125 -0.075009569525718689 0.341214507818222046
0.238100692629814148 0.181366845965385437 -0.323724418878555298
0.379561096429824829 0.135817080736160278 -0.216601848602294922
0.395398467779159546 -0.00164766190573573112 -0.199726581573486328
0.486264556646347046 0.0360403954982757568 0.00537745142355561256
0.528233826160430908 0.0475582070648670197 0.227568149566650391
0.487995147705078125 -0.0507269464433193207 0.321034759283065796
0.321275085210800171 -0.087587796151638031 0.400050967931747437
0.313007354736328125 0.0620382018387317657 -0.167899921536445618
0.3998260498046875 -0.0278617441654205322 0.0241576824337244034
0.517022430896759033 -0.0575157962739467621 0.215641334652900696
-0.312100738286972046 0.176877811551094055 -0.180893421173095703
-0.264400482177734375 0.179304197430610657 -0.0835846289992332458
-0.274126678705215454 0.0718124881386756897 0.116385780274868011
-0.325190216302871704 -0.147783145308494568 0.143389061093330383
-0.226643875241279602 -0.169458106160163879 0.187459468841552734
-0.270619720220565796 0.229677319526672363 -0.346841186285018921
-0.369119018316268921 0.196984544396400452 -0.355650275945663452
-0.247941330075263977 0.000307368551148101687 0.244455024600028992
-0.174831390380859375 0.0778977945446968079 0.224075004458427429
-0.0607515983283519745 0.297423720359802246 -0.310579150915145874
0.00937779713422060013 0.152248457074165344 0.331173419952392578
0.135356903076171875 0.349961727857589722 -0.264717429876327515
0.227321624755859375 0.149365946650505066 0.389357894659042358
0.19196319580078125 0.344735294580459595 -0.180718258023262024
0.318346649408340454 0.302194446325302124 -0.0641725882887840271
0.395399719476699829 0.154233917593955994 0.294846385717391968
0.225054427981376648 0.0804435089230537415 0.315427780151367188
0.233210250735282898 0.229836404323577881 -0.0453619956970214844
0.260833740234375 0.108855217695236206 0.139924362301826477
0.3637847900390625 0.0523900948464870453 0.331938594579696655
-0.4405975341796875 0.347775906324386597 -0.114792667329311371
-0.461176544427871704 0.280622988939285278 -0.0400439910590648651
-0.496237426996231079 0.12067636102437973 0.115618228912353516
-0.361295074224472046 0.0303200539201498032 0.269170284271240234
-0.275202423334121704 -0.00878411252051591873 0.332617759704589844
-0.280909210443496704 0.117785252630710602 -0.138130664825439453
-0.325380951166152954 0.215952053666114807 -0.127226829528808594
-0.132586166262626648 -0.0462946295738220215 0.430527836084365845
-0.23709869384765625 -0.0408836789429187775 0.405008792877197266
-0.049224853515625 0.13498571515083313 -0.148245975375175476
-0.0344225578010082245 0.0101501308381557465 0.49712824821472168
0.122197471559047699 0.239282891154289246 -0.0627358779311180115
0.186777755618095398 0.0324052423238754272 0.567036569118499756
0.091744743287563324 0.154127821326255798 -0.124947227537631989
0.114878334105014801 0.260175883769989014 0.0144945783540606499
0.359780639410018921 0.222699582576751709 0.51304095983505249
0.304361969232559204 0.0513718537986278534 0.537873268127441406
0.093112945556640625 0.362706512212753296 0.0500804595649242401
0.230673477053642273 0.316496670246124268 0.221229389309883118
0.344974517822265625 0.261246800422668457 0.407631397247314453
-0.457112640142440796 0.361244440078735352 0.0316017456352710724
-0.458806365728378296 0.190440952777862549 0.193446323275566101
-0.278076171875 0.0423284359276294708 0.204978629946708679
-0.288113921880722046 0.118098527193069458 -0.0354113578796386719
-0.197452545166015625 0.279912799596786499 -0.035167057067155838
-0.282257080078125 0.349925398826599121 0.0464229583740234375
-0.339433044195175171 0.309188872575759888 0.267968654632568359
-0.234100341796875 0.122111089527606964 0.354289531707763672
-0.214778900146484375 -0.143808275461196899 0.446617752313613892
-0.26781463623046875 0.0307560786604881287 0.450999259948730469
-0.126157119870185852 0.235478222370147705 -0.125272274017333984
-0.01909637451171875 0.146400377154350281 -0.00497420644387602806
-0.00146230065729469061 -0.0760642513632774353 0.43605455756187439
-0.068323768675327301 0.0448951087892055511 0.549982130527496338
0.041881561279296875 0.160075351595878601 -0.0157669391483068466
0.110132850706577301 0.310955733060836792 0.0435118675231933594
0.207811996340751648 -0.017270723357796669 0.472975254058837891
0.08794403076171875 0.0960437953472137451 0.399597972631454468
0.17580413818359375 0.300421684980392456 0.164390087127685547
0.0152524309232831001 0.296893447637557983 0.0966234207153320312
0.097178138792514801 0.1993875652551651 0.353897243738174438
0.196805313229560852 0.212658509612083435 0.210767105221748352
0.203339889645576477 0.0129554560407996178 0.427576690912246704
0.298758178949356079 0.161847889423370361 0.40577206015586853
-0.243405655026435852 0.242620334029197693 0.0507073402404785156
-0.246957138180732727 0.262373864650726318 0.272317886352539062
-0.272646576166152954 0.142064765095710754 0.455433040857315063
-0.056552886962890625 0.135310962796211243 0.0947688445448875427
-0.0320447273552417755 0.238810062408447266 0.292334079742431641
-0.05025482177734375 0.137342348694801331 0.492779254913330078
0.068462371826171875 0.322634845972061157 0.143143489956855774
0.18502044677734375 0.206237033009529114 0.288635402917861938
0.169078826904296875 0.0965777114033699036 0.485210180282592773
3 0 1 2
3 1 3 4
3 2 1 4
3 3 5 6
3 4 3 6
3 5 7 6
3 0 8 9
3 1 0 9
3 9 10 1
3 1 10 3
3 10 11 3
3 3 11 5
3 5 11 12
3 7 5 12
3 8 13 14
3 9 8 14
3 14 15 9
3 9 15 10
3 15 16 10
3 10 16 11
3 11 16 17
3 12 11 17
3 14 13 18
3 15 14 18
3 19 15 18
3 16 15 19
3 20 16 19
3 16 20 17
3 21 22 23
3 22 24 25
3 23 22 25
3 24 26 27
3 25 24 27
3 26 28 27
3 29 30 31
3 2 22 21
3 0 2 21
3 0 21 31
3 0 31 30
3 4 22 2
3 24 22 4
3 6 24 4
3 26 24 6
3 26 32 28
3 6 32 26
3 6 33 32
3 6 7 33
3 33 34 32
3 29 35 36
3 30 29 36
3 36 0 30
3 8 0 36
3 12 33 7
3 37 33 12
3 33 37 38
3 34 33 38
3 35 39 40
3 36 35 40
3 40 8 36
3 13 8 40
3 17 37 12
3 41 37 17
3 37 41 42
3 38 37 42
3 40 39 43
3 43 44 45
3 40 43 45
3 40 45 18
3 40 18 13
3 18 46 19
3 45 46 18
3 19 47 20
3 46 47 19
3 48 49 41
3 47 48 41
3 47 41 17
3 47 17 20
3 41 49 42
3 45 44 50
3 46 45 50
3 51 46 50
3 47 46 51
3 52 47 51
3 47 52 48
3 53 21 23
3 54 53 23
3 23 25 54
3 25 55 54
3 25 27 55
3 27 56 55
3 28 57 56
3 27 28 56
3 58 29 31
3 59 58 31
3 31 53 59
3 21 53 31
3 60 28 32
3 57 28 60
3 34 61 60
3 32 34 60
3 35 29 62
3 62 29 58
3 38 63 34
3 63 61 34
3 39 35 64
3 64 35 62
3 42 65 38
3 65 63 38
3 66 43 39
3 64 66 39
3 44 66 67
3 43 66 44
3 68 49 48
3 69 49 68
3 49 69 65
3 42 49 65
3 70 50 44
3 67 70 44
3 50 70 51
3 51 70 71
3 51 71 52
3 52 71 72
3 52 72 68
3 48 52 68
3 73 53 54
3 74 73 54
3 54 55 74
3 55 75 74
3 55 56 75
3 56 76 75
3 57 77 76
3 56 57 76
3 78 58 59
3 79 78 59
3 59 73 79
3 53 73 59
3 80 57 60
3 77 57 80
3 61 81 80
3 60 61 80
3 62 58 82
3 82 58 78
3 63 83 61
3 83 81 61
3 64 62 84
3 84 62 82
3 65 85 63
3 85 83 63
3 86 66 64
3 84 86 64
3 67 86 87
3 66 86 67
3 88 69 68
3 89 69 88
3 69 89 85
3 65 69 85
3 90 70 67
3 87 90 67
3 70 90 71
3 71 90 91
3 71 91 72
3 72 91 92
3 72 92 88
3 68 72 88
3 73 74 93
3 74 75 94
3 93 74 94
3 75 76 95
3 94 75 95
3 76 77 95
3 78 79 96
3 97 93 98
3 96 93 97
3 96 73 93
3 96 79 73
3 94 98 93
3 99 98 94
3 95 99 94
3 100 99 95
3 100 101 102
3 95 101 100
3 95 80 101
3 95 77 80
3 80 81 101
3 82 78 96
3 103 82 96
3 96 104 103
3 97 104 96
3 102 105 106
3 101 105 102
3 105 101 81
3 83 105 81
3 84 82 103
3 107 84 103
3 103 108 107
3 104 108 103
3 106 109 110
3 105 109 106
3 109 105 83
3 85 109 83
3 86 84 107
3 107 108 111
3 86 107 111
3 86 111 112
3 86 112 87
3 112 113 114
3 111 113 112
3 114 115 116
3 113 115 114
3 89 110 109
3 88 110 89
3 88 115 110
3 88 116 115
3 89 109 85
3 90 87 112
3 91 90 112
3 114 91 112
3 92 91 114
3 116 92 114
3 92 116 88
3 97 98 117
3 98 99 118
3 117 98 118
3 99 100 119
3 118 99 119
3 100 102 119
3 104 97 117
3 120 104 117
3 120 117 121
3 117 118 121
3 121 118 122
3 118 119 122
3 122 119 102
3 106 122 102
3 108 104 120
3 123 108 120
3 123 120 124
3 120 121 124
3 124 121 125
3 121 122 125
3 125 122 106
3 110 125 106
3 111 108 123
3 113 111 123
3 124 113 123
3 115 113 124
3 125 115 124
3 115 125 110
