ply
format ascii 1.0
comment VCGLIB generated
element vertex 126
property float x
property float y
property float z
element face 248
property list uchar int vertex_indices
end_header
-0.125994369387626648 0.0964022204279899597 -0.534832656383514404
-0.072954811155796051 0.0127181531861424446 -0.48664441704750061
-0.170902252197265625 -0.0322533436119556427 -0.477826744318008423
-0.000254313141340389848 -0.155282214283943176 -0.361497402191162109
-0.0955047607421875 -0.191922411322593689 -0.33526340126991272
0.022785186767578125 -0.0480136536061763763 -0.168864086270332336
-0.092936195433139801 -0.0656526759266853333 -0.150636032223701477
0.0224215183407068253 -0.120948702096939087 -0.0910070762038230896
0.076512657105922699 0.158102825284004211 -0.449084281921386719
0.0304158534854650497 0.163055300712585449 -0.35021209716796875
0.05322265625 0.000341540580848231912 -0.198390796780586243
0.248037979006767273 -0.101086914539337158 -0.17990700900554657
0.23899078369140625 -0.148637175559997559 -0.0820773467421531677
0.275465637445449829 0.201748713850975037 -0.352086693048477173
0.234087631106376648 0.187237218022346497 -0.256768852472305298
0.154085800051689148 0.143370151519775391 -0.0558141060173511505
0.2798919677734375 -0.021331416442990303 0.0288125667721033096
0.384047180414199829 0.00271500484086573124 -0.004268646240234375
0.261065155267715454 0.0819455161690711975 -0.275223731994628906
0.250604003667831421 0.19523341953754425 -0.0813911780714988708
0.314501434564590454 0.0701515749096870422 0.092316947877407074
-0.357392638921737671 0.0719730257987976074 -0.317586749792098999
-0.3273773193359375 -0.0494125671684741974 -0.372645527124404907
-0.33489990234375 -0.0290584322065114975 -0.273015350103378296
-0.26099395751953125 -0.248944923281669617 -0.290162563323974609
-0.311808258295059204 -0.225771665573120117 -0.186216995120048523
-0.190598800778388977 -0.223491072654724121 -0.0777276381850242615
-0.189365386962890625 -0.344547957181930542 -0.0653912201523780823
-0.075215660035610199 -0.263989239931106567 -0.081929527223110199
-0.241143539547920227 0.304547220468521118 -0.401868969202041626
-0.188788101077079773 0.20878303050994873 -0.406699806451797485
-0.328032165765762329 0.231737539172172546 -0.412789016962051392
0.063295997679233551 -0.287119776010513306 0.0146206216886639595
-0.00978978443890810013 -0.18449699878692627 0.0660301819443702698
-0.0122324628755450249 -0.234336748719215393 -0.0558962821960449219
-0.0448481254279613495 0.294519484043121338 -0.284880489110946655
0.00807062815874814987 0.307132989168167114 -0.379980564117431641
0.210819244384765625 -0.221792861819267273 0.0750878676772117615
0.214595794677734375 -0.200561478734016418 -0.0387574844062328339
0.1512298583984375 0.289319664239883423 -0.178378269076347351
0.198481246829032898 0.344521999359130859 -0.264474242925643921
0.4003143310546875 -0.103548653423786163 0.133594512939453125
0.39520263671875 -0.0749952793121337891 0.0249441470950841904
0.236097976565361023 0.335890203714370728 -0.128239154815673828
0.244639083743095398 0.165509492158889771 -0.0617017745971679688
0.173250839114189148 0.0669451653957366943 -0.117605529725551605
0.375029236078262329 0.0837262570858001709 -0.0116685228422284126
0.3961944580078125 0.217900678515434265 0.167211532592773438
0.364718109369277954 0.146485969424247742 0.0489602088928222656
0.476139068603515625 -0.00598176242783665657 0.0644869804382324219
0.136252090334892273 0.138894915580749512 -0.0382622070610523224
0.353389739990234375 0.169286131858825684 -0.0742459297180175781
0.426774352788925171 0.121603168547153473 0.133578136563301086
-0.303746551275253296 0.178428232669830322 -0.132706001400947571
-0.322423309087753296 0.0705127716064453125 -0.0865179672837257385
-0.400583893060684204 -0.113136075437068939 0.0113336248323321342
-0.222413375973701477 -0.217255428433418274 0.104172550141811371
-0.142276763916015625 -0.244232997298240662 0.113541126251220703
-0.270359039306640625 0.3066825270652771 -0.178896740078926086
-0.366957336664199829 0.341460585594177246 -0.207081794738769531
0.022857666015625 -0.165932953357696533 0.177892997860908508
0.00657780980691313744 -0.104261256754398346 0.114792503416538239
-0.111968994140625 0.454078316688537598 -0.149100944399833679
0.181292220950126648 -0.238853082060813904 0.184231594204902649
0.086752571165561676 0.451812714338302612 -0.0390300750732421875
0.274693816900253296 -0.0332281775772571564 0.211035564541816711
0.112796783447265625 0.391304284334182739 0.0490355491638183594
0.211217239499092102 0.265863716602325439 0.130841255187988281
0.206984207034111023 -0.00369307142682373524 0.118978343904018402
0.324620574712753296 -0.129877075552940369 0.179811164736747742
0.166750594973564148 0.182666972279548645 0.180797576904296875
0.147047683596611023 0.0921496748924255371 -0.0179675426334142685
0.299527496099472046 -0.0475721806287765503 0.0694723129272460938
-0.417695373296737671 0.250178754329681396 0.0609426498413085938
-0.322477966547012329 0.221407666802406311 0.0418750457465648651
-0.350329071283340454 0.0551112852990627289 0.17756335437297821
-0.254453033208847046 -0.120112054049968719 0.282791763544082642
-0.233949020504951477 -0.200092077255249023 0.312719821929931641
-0.30052947998046875 0.382885187864303589 0.0343686752021312714
-0.3951416015625 0.416607946157455444 0.000546614348422735929
-0.125431060791015625 -0.0436983667314052582 0.314687401056289673
-0.078360237181186676 -0.140684947371482849 0.329794406890869141
-0.075796760618686676 0.380492925643920898 0.0633800849318504333
0.111071266233921051 -0.234052851796150208 0.397736400365829468
0.07125091552734375 0.231074705719947815 -0.0110460920259356499
0.289218902587890625 -0.0844064876437187195 0.422953605651855469
-0.0383783988654613495 0.233759418129920959 -0.013724486343562603
0.0090789794921875 0.361333131790161133 0.104276813566684723
0.334704071283340454 0.144466802477836609 0.233297184109687805
0.300167083740234375 0.0111032547429203987 0.356662899255752563
-0.035022735595703125 0.281714886426925659 0.166693687438964844
0.0266138706356287003 0.0706526041030883789 0.1711578369140625
0.241708114743232727 0.141479402780532837 0.171925857663154602
-0.328731536865234375 0.183012008666992188 0.141452312469482422
-0.350503295660018921 -0.00999551545828580856 0.0623076744377613068
-0.323464721441268921 -0.18877960741519928 0.20290692150592804
-0.295981079339981079 0.490199923515319824 0.0740803107619285583
-0.211943313479423523 0.362039357423782349 -0.027593931183218956
-0.28263092041015625 0.246082603931427002 -0.0190110206604003906
-0.250020354986190796 0.102027855813503265 0.153518199920654297
-0.255640655755996704 -0.0698901787400245667 0.301911830902099609
-0.00945917796343564987 -0.0834324881434440613 0.249642685055732727
-0.143643692135810852 -0.171695351600646973 0.296385437250137329
-0.135279342532157898 0.375342220067977905 -0.0384588241577148438
-0.0218213405460119247 0.401838183403015137 0.0879947319626808167
0.133082076907157898 -0.256169497966766357 0.289107948541641235
0.0536702461540699005 -0.143854215741157532 0.172210380434989929
0.0436312370002269745 0.296426922082901001 0.0748120918869972229
-0.081462860107421875 0.223181307315826416 0.199305698275566101
0.308071136474609375 -0.118250191211700439 0.311616569757461548
0.279417663812637329 -0.153279632329940796 0.140251949429512024
-0.009563446044921875 0.148267433047294617 0.293146133422851562
0.047351837158203125 0.309647142887115479 0.231963321566581726
0.202626541256904602 0.0724393948912620544 0.283477306365966797
0.022769927978515625 0.0920680984854698181 0.280355304479598999
0.19586181640625 -0.0536233969032764435 0.101649127900600433
0.238123580813407898 0.0522869974374771118 0.238266631960868835
-0.179192855954170227 0.261655062437057495 -0.0402854271233081818
-0.165162399411201477 0.075634591281414032 0.091887153685092926
-0.148031875491142273 -0.077213682234287262 0.257483154535293579
0.047649383544921875 0.330794602632522583 0.0238868389278650284
0.0341733284294605255 0.145020335912704468 0.155736923217773438
0.077358245849609375 -0.0654035583138465881 0.243773296475410461
0.0178782138973474503 0.224449023604393005 0.219963714480400085
0.2365264892578125 0.163878589868545532 0.220854282379150391
0.282090514898300171 -0.0443203002214431763 0.16612832248210907
3 0 1 2
3 1 3 4
3 2 1 4
3 3 5 6
3 4 3 6
3 5 7 6
3 0 8 9
3 1 0 9
3 9 10 1
3 1 10 3
3 10 11 3
3 3 11 5
3 5 11 12
3 7 5 12
3 8 13 14
3 9 8 14
3 14 15 9
3 9 15 10
3 15 16 10
3 10 16 11
3 11 16 17
3 12 11 17
3 14 13 18
3 15 14 18
3 19 15 18
3 16 15 19
3 20 16 19
3 16 20 17
3 21 22 23
3 22 24 25
3 23 22 25
3 24 26 27
3 25 24 27
3 26 28 27
3 29 30 31
3 2 22 21
3 0 2 21
3 0 21 31
3 0 31 30
3 4 22 2
3 24 22 4
3 6 24 4
3 26 24 6
3 26 32 28
3 6 32 26
3 6 33 32
3 6 7 33
3 33 34 32
3 29 35 36
3 30 29 36
3 36 0 30
3 8 0 36
3 12 33 7
3 37 33 12
3 33 37 38
3 34 33 38
3 35 39 40
3 36 35 40
3 40 8 36
3 13 8 40
3 17 37 12
3 41 37 17
3 37 41 42
3 38 37 42
3 40 39 43
3 43 44 45
3 40 43 45
3 40 45 18
3 40 18 13
3 18 46 19
3 45 46 18
3 19 47 20
3 46 47 19
3 48 49 41
3 47 48 41
3 47 41 17
3 47 17 20
3 41 49 42
3 45 44 50
3 46 45 50
3 51 46 50
3 47 46 51
3 52 47 51
3 47 52 48
3 53 21 23
3 54 53 23
3 23 25 54
3 25 55 54
3 25 27 55
3 27 56 55
3 28 57 56
3 27 28 56
3 58 29 31
3 59 58 31
3 31 53 59
3 21 53 31
3 60 28 32
3 57 28 60
3 34 61 60
3 32 34 60
3 35 29 62
3 62 29 58
3 38 63 34
3 63 61 34
3 39 35 64
3 64 35 62
3 42 65 38
3 65 63 38
3 66 43 39
3 64 66 39
3 44 66 67
3 43 66 44
3 68 49 48
3 69 49 68
3 49 69 65
3 42 49 65
3 70 50 44
3 67 70 44
3 50 70 51
3 51 70 71
3 51 71 52
3 52 71 72
3 52 72 68
3 48 52 68
3 73 53 54
3 74 73 54
3 54 55 74
3 55 75 74
3 55 56 75
3 56 76 75
3 57 77 76
3 56 57 76
3 78 58 59
3 79 78 59
3 59 73 79
3 53 73 59
3 80 57 60
3 77 57 80
3 61 81 80
3 60 61 80
3 62 58 82
3 82 58 78
3 63 83 61
3 83 81 61
3 64 62 84
3 84 62 82
3 65 85 63
3 85 83 63
3 86 66 64
3 84 86 64
3 67 86 87
3 66 86 67
3 88 69 68
3 89 69 88
3 69 89 85
3 65 69 85
3 90 70 67
3 87 90 67
3 70 90 71
3 71 90 91
3 71 91 72
3 72 91 92
3 72 92 88
3 68 72 88
3 73 74 93
3 74 75 94
3 93 74 94
3 75 76 95
3 94 75 95
3 76 77 95
3 78 79 96
3 97 93 98
3 96 93 97
3 96 73 93
3 96 79 73
3 94 98 93
3 99 98 94
3 95 99 94
3 100 99 95
3 100 101 102
3 95 101 100
3 95 80 101
3 95 77 80
3 80 81 101
3 82 78 96
3 103 82 96
3 96 104 103
3 97 104 96
3 102 105 106
3 101 105 102
3 105 101 81
3 83 105 81
3 84 82 103
3 107 84 103
3 103 108 107
3 104 108 103
3 106 109 110
3 105 109 106
3 109 105 83
3 85 109 83
3 86 84 107
3 107 108 111
3 86 107 111
3 86 111 112
3 86 112 87
3 112 113 114
3 111 113 112
3 114 115 116
3 113 115 114
3 89 110 109
3 88 110 89
3 88 115 110
3 88 116 115
3 89 109 85
3 90 87 112
3 91 90 112
3 114 91 112
3 92 91 114
3 116 92 114
3 92 116 88
3 97 98 117
3 98 99 118
3 117 98 118
3 99 100 119
3 118 99 119
3 100 102 119
3 104 97 117
3 120 104 117
3 120 117 121
3 117 118 121
3 121 118 122
3 118 119 122
3 122 119 102
3 106 122 102
3 108 104 120
3 123 108 120
3 123 120 124
3 120 121 124
3 124 121 125
3 121 122 125
3 125 122 106
3 110 125 106
3 111 108 123
3 113 111 123
3 124 113 123
3 115 113 124
3 125 115 124
3 115 125 110
