ply
format ascii 1.0
comment VCGLIB generated
element vertex 126
property float x
property float y
property float z
element face 248
property list uchar int vertex_indices
end_header
-0.130457445979118347 0.217027768492698669 -0.535265088081359863
-0.138482183218002319 0.118918158113956451 -0.501900136470794678
-0.245257288217544556 0.154817745089530945 -0.481716275215148926
-0.187135174870491028 -0.0853901877999305725 -0.389937698841094971
-0.302984058856964111 -0.0876044109463691711 -0.446713835000991821
-0.178224384784698486 -0.298947840929031372 -0.47198641300201416
-0.304364293813705444 -0.336526095867156982 -0.432663828134536743
-0.202709540724754333 -0.325466156005859375 -0.339801311492919922
0.023151744157075882 0.255017668008804321 -0.360760897397994995
0.0443198457360267639 0.145821467041969299 -0.332434177398681641
0.0469138398766517639 -0.0969043523073196411 -0.316702008247375488
0.0558072850108146667 -0.321880906820297241 -0.410369962453842163
0.0340323001146316528 -0.410791188478469849 -0.339115530252456665
0.262843042612075806 0.257208377122879028 -0.384954303503036499
0.291179299354553223 0.165072739124298096 -0.325111240148544312
0.291016310453414917 -0.0914707258343696594 -0.312818616628646851
0.278292566537857056 -0.332249164581298828 -0.381901472806930542
0.286547929048538208 -0.440051794052124023 -0.323568046092987061
0.375711262226104736 0.164073631167411804 -0.40773889422416687
0.349230319261550903 -0.0828488916158676147 -0.39552384614944458
0.315716475248336792 -0.289838343858718872 -0.269813746213912964
-0.325482100248336792 0.321430593729019165 -0.243928208947181702
-0.357372969388961792 0.19401472806930542 -0.326396971940994263
-0.278928935527801514 0.202174678444862366 -0.2436952143907547
-0.417959034442901611 -0.0455836504697799683 -0.308638900518417358
-0.371417999267578125 -0.0354399345815181732 -0.20968155562877655
-0.373165816068649292 -0.278597444295883179 -0.280572712421417236
-0.396295011043548584 -0.27531096339225769 -0.174322992563247681
-0.414452970027923584 -0.384832382202148438 -0.166742146015167236
-0.135251820087432861 0.25176537036895752 -0.230285897850990295
-0.157323315739631653 0.263248652219772339 -0.335488975048065186
-0.205587908625602722 0.165864706039428711 -0.228279069066047668
-0.302639007568359375 -0.52151787281036377 -0.135650411248207092
-0.214217782020568848 -0.406979680061340332 -0.161388352513313293
-0.171671777963638306 -0.504899263381958008 -0.111685663461685181
-0.0101020112633705139 0.475949645042419434 -0.215703785419464111
0.021192377433180809 0.433722496032714844 -0.347260564565658569
0.018523823469877243 -0.490375161170959473 -0.151225432753562927
0.051631927490234375 -0.414105534553527832 -0.0792715772986412048
0.190776467323303223 0.396017014980316162 -0.201036930084228516
0.265979766845703125 0.427900791168212891 -0.292494505643844604
0.258471757173538208 -0.502410292625427246 -0.150828570127487183
0.292178064584732056 -0.463760435581207275 -0.0524072200059890747
0.283033192157745361 0.365915149450302124 -0.171799659729003906
0.384261369705200195 0.225463941693305969 -0.180757254362106323
0.47794342041015625 0.146819248795509338 -0.233663856983184814
0.389074832201004028 -0.0796561539173126221 -0.229619845747947693
0.508565008640289307 -0.280713826417922974 -0.204242140054702759
0.504524886608123779 -0.371475070714950562 -0.080542348325252533
0.305467069149017334 -0.361168324947357178 -0.10921911895275116
0.458510994911193848 0.165568262338638306 -0.10692141205072403
0.364282786846160889 -0.0470094382762908936 -0.130628019571304321
0.437592595815658569 -0.276569902896881104 -0.108009465038776398
-0.456626176834106445 0.237601011991500854 -0.0500650815665721893
-0.336950480937957764 0.250811308622360229 -0.0123799927532672882
-0.327814280986785889 -0.00347256334498524666 0.031340770423412323
-0.344507038593292236 -0.249547973275184631 0.0644408538937568665
-0.4267120361328125 -0.342511355876922607 0.0812367945909500122
-0.138535931706428528 0.243074178695678711 0.0216813515871763229
-0.26706695556640625 0.224133476614952087 0.00406937161460518837
-0.294718295335769653 -0.491443037986755371 0.0978751629590988159
-0.207309722900390625 -0.3933849036693573 0.104659467935562134
0.00291650928556919098 0.4537639319896698 0.0174758639186620712
0.027467554435133934 -0.415138423442840576 0.160401299595832825
0.227532818913459778 0.380377978086471558 0.0269813966006040573
0.243682861328125 -0.297685146331787109 0.153971806168556213
0.313047915697097778 0.492311716079711914 0.000738664064556360245
0.37051805853843689 0.325019180774688721 0.0515105500817298889
0.463568925857543945 -0.304124176502227783 0.158523648977279663
0.291373521089553833 -0.385489344596862793 0.136918157339096069
0.32004961371421814 0.215509459376335144 0.077168293297290802
0.333317846059799194 -0.0321708507835865021 0.113212622702121735
0.521483004093170166 -0.199986249208450317 0.103727683424949646
-0.504041135311126709 0.353556245565414429 0.172167032957077026
-0.514037370681762695 0.242157220840454102 0.155915781855583191
-0.474846571683883667 0.0286008957773447037 0.234601065516471863
-0.362970173358917236 -0.186968773603439331 0.295792698860168457
-0.33476567268371582 -0.304065823554992676 0.306919693946838379
-0.212990149855613708 0.415731132030487061 0.131983324885368347
-0.331249237060546875 0.36900639533996582 0.200412705540657043
-0.344888508319854736 -0.484851032495498657 0.333948999643325806
-0.252337008714675903 -0.405908346176147461 0.346865415573120117
0.020236968994140625 0.466715723276138306 0.258538931608200073
-0.0102493977174162865 -0.342757463455200195 0.382305055856704712
0.25146135687828064 0.467162132263183594 0.256852895021438599
0.234855294227600098 -0.329370558261871338 0.407600611448287964
0.256335526704788208 0.573255538940429688 0.197119280695915222
0.268903195858001709 0.384658217430114746 0.277721434831619263
0.45493730902671814 -0.243429645895957947 0.375685244798660278
0.325362443923950195 -0.383580476045608521 0.378184080123901367
0.274935632944107056 0.267442494630813599 0.310587227344512939
0.441011935472488403 0.0916829630732536316 0.295227229595184326
0.393983662128448486 -0.15682673454284668 0.291746318340301514
-0.44402727484703064 0.237783133983612061 0.267286092042922974
-0.39661407470703125 0.0245613455772399902 0.310757368803024292
-0.43497776985168457 -0.194316267967224121 0.359717279672622681
-0.196472510695457458 0.439975529909133911 0.217560410499572754
-0.174343794584274292 0.315384447574615479 0.395400524139404297
-0.342426300048828125 0.318100452423095703 0.439705401659011841
-0.347194671630859375 0.0884160846471786499 0.500615298748016357
-0.270985692739486694 -0.146213367581367493 0.448980957269668579
-0.240910261869430542 -0.449940383434295654 0.462652981281280518
-0.256451696157455444 -0.267985910177230835 0.455474853515625
-0.043529164046049118 0.514811336994171143 0.353405892848968506
0.0277172420173883438 0.377098977565765381 0.438811540603637695
-0.00333265820518136024 -0.414196014404296875 0.481372088193893433
-0.019668232649564743 -0.233633562922477722 0.422917932271957397
0.195770263671875 0.5692291259765625 0.316856563091278076
0.240717798471450806 0.43279305100440979 0.374592870473861694
0.237497851252555847 -0.358348637819290161 0.512382090091705322
0.18299102783203125 -0.185433134436607361 0.571570396423339844
0.135416552424430847 0.309033691883087158 0.356907844543457031
0.2683258056640625 0.269098758697509766 0.209433168172836304
0.247024178504943848 0.112084679305553436 0.507638037204742432
0.338729500770568848 0.0985528528690338135 0.359189927577972412
0.302836686372756958 -0.10140981525182724 0.599616885185241699
0.336135506629943848 -0.147402927279472351 0.395721524953842163
-0.243264973163604736 0.331473737955093384 0.503674626350402832
-0.233194172382354736 0.0907348543405532837 0.536855340003967285
-0.224002480506896973 -0.180389612913131714 0.542321860790252686
0.018216913565993309 0.316873162984848022 0.528044462203979492
0.00851891282945871353 0.109660804271697998 0.410320520401000977
-0.0206704568117856979 -0.120787560939788818 0.432638674974441528
0.247112616896629333 0.334912747144699097 0.431974798440933228
0.28632768988609314 0.120813317596912384 0.433461874723434448
0.220990613102912903 -0.117513492703437805 0.484620213508605957
3 0 1 2
3 1 3 4
3 2 1 4
3 3 5 6
3 4 3 6
3 5 7 6
3 0 8 9
3 1 0 9
3 9 10 1
3 1 10 3
3 10 11 3
3 3 11 5
3 5 11 12
3 7 5 12
3 8 13 14
3 9 8 14
3 14 15 9
3 9 15 10
3 15 16 10
3 10 16 11
3 11 16 17
3 12 11 17
3 14 13 18
3 15 14 18
3 19 15 18
3 16 15 19
3 20 16 19
3 16 20 17
3 21 22 23
3 22 24 25
3 23 22 25
3 24 26 27
3 25 24 27
3 26 28 27
3 29 30 31
3 2 22 21
3 0 2 21
3 0 21 31
3 0 31 30
3 4 22 2
3 24 22 4
3 6 24 4
3 26 24 6
3 26 32 28
3 6 32 26
3 6 33 32
3 6 7 33
3 33 34 32
3 29 35 36
3 30 29 36
3 36 0 30
3 8 0 36
3 12 33 7
3 37 33 12
3 33 37 38
3 34 33 38
3 35 39 40
3 36 35 40
3 40 8 36
3 13 8 40
3 17 37 12
3 41 37 17
3 37 41 42
3 38 37 42
3 40 39 43
3 43 44 45
3 40 43 45
3 40 45 18
3 40 18 13
3 18 46 19
3 45 46 18
3 19 47 20
3 46 47 19
3 48 49 41
3 47 48 41
3 47 41 17
3 47 17 20
3 41 49 42
3 45 44 50
3 46 45 50
3 51 46 50
3 47 46 51
3 52 47 51
3 47 52 48
3 53 21 23
3 54 53 23
3 23 25 54
3 25 55 54
3 25 27 55
3 27 56 55
3 28 57 56
3 27 28 56
3 58 29 31
3 59 58 31
3 31 53 59
3 21 53 31
3 60 28 32
3 57 28 60
3 34 61 60
3 32 34 60
3 35 29 62
3 62 29 58
3 38 63 34
3 63 61 34
3 39 35 64
3 64 35 62
3 42 65 38
3 65 63 38
3 66 43 39
3 64 66 39
3 44 66 67
3 43 66 44
3 68 49 48
3 69 49 68
3 49 69 65
3 42 49 65
3 70 50 44
3 67 70 44
3 50 70 51
3 51 70 71
3 51 71 52
3 52 71 72
3 52 72 68
3 48 52 68
3 73 53 54
3 74 73 54
3 54 55 74
3 55 75 74
3 55 56 75
3 56 76 75
3 57 77 76
3 56 57 76
3 78 58 59
3 79 78 59
3 59 73 79
3 53 73 59
3 80 57 60
3 77 57 80
3 61 81 80
3 60 61 80
3 62 58 82
3 82 58 78
3 63 83 61
3 83 81 61
3 64 62 84
3 84 62 82
3 65 85 63
3 85 83 63
3 86 66 64
3 84 86 64
3 67 86 87
3 66 86 67
3 88 69 68
3 89 69 88
3 69 89 85
3 65 69 85
3 90 70 67
3 87 90 67
3 70 90 71
3 71 90 91
3 71 91 72
3 72 91 92
3 72 92 88
3 68 72 88
3 73 74 93
3 74 75 94
3 93 74 94
3 75 76 95
3 94 75 95
3 76 77 95
3 78 79 96
3 97 93 98
3 96 93 97
3 96 73 93
3 96 79 73
3 94 98 93
3 99 98 94
3 95 99 94
3 100 99 95
3 100 101 102
3 95 101 100
3 95 80 101
3 95 77 80
3 80 81 101
3 82 78 96
3 103 82 96
3 96 104 103
3 97 104 96
3 102 105 106
3 101 105 102
3 105 101 81
3 83 105 81
3 84 82 103
3 107 84 103
3 103 108 107
3 104 108 103
3 106 109 110
3 105 109 106
3 109 105 83
3 85 109 83
3 86 84 107
3 107 108 111
3 86 107 111
3 86 111 112
3 86 112 87
3 112 113 114
3 111 113 112
3 114 115 116
3 113 115 114
3 89 110 109
3 88 110 89
3 88 115 110
3 88 116 115
3 89 109 85
3 90 87 112
3 91 90 112
3 114 91 112
3 92 91 114
3 116 92 114
3 92 116 88
3 97 98 117
3 98 99 118
3 117 98 118
3 99 100 119
3 118 99 119
3 100 102 119
3 104 97 117
3 120 104 117
3 120 117 121
3 117 118 121
3 121 118 122
3 118 119 122
3 122 119 102
3 106 122 102
3 108 104 120
3 123 108 120
3 123 120 124
3 120 121 124
3 124 121 125
3 121 122 125
3 125 122 106
3 110 125 106
3 111 108 123
3 113 111 123
3 124 113 123
3 115 113 124
3 125 115 124
3 115 125 110
