ply
format ascii 1.0
comment VCGLIB generated
element vertex 126
property float x
property float y
property float z
element face 248
property list uchar int vertex_indices
end_header
-0.424765259027481079 0.199928060173988342 -0.417951583862304688
-0.409421294927597046 0.135429739952087402 -0.519273579120635986
-0.50426483154296875 0.108843415975570679 -0.43163570761680603
-0.333524078130722046 -0.0796356275677680969 -0.489546149969100952
-0.397500365972518921 -0.0874373242259025574 -0.402173370122909546
-0.167840316891670227 -0.0413976795971393585 -0.34553036093711853
-0.233529403805732727 0.0117840468883514404 -0.280047744512557983
-0.150151565670967102 -0.093810640275478363 -0.253278106451034546
-0.212663009762763977 0.19089953601360321 -0.368600517511367798
-0.1927490234375 0.22101949155330658 -0.472634166479110718
-0.126038864254951477 0.00323964003473520279 -0.457184791564941406
-0.0551656074821949005 -0.213630974292755127 -0.417061179876327515
-0.043704986572265625 -0.265090227127075195 -0.332504898309707642
-0.0461794547736644745 0.320585340261459351 -0.283973544836044312
0.00759379053488373756 0.292292028665542603 -0.377869278192520142
0.081812538206577301 0.0803964510560035706 -0.408118575811386108
0.146322891116142273 -0.133063390851020813 -0.385263919830322266
0.172808334231376648 -0.207004845142364502 -0.320482581853866577
0.091711677610874176 0.305429190397262573 -0.304461151361465454
0.185862228274345398 0.112236112356185913 -0.387848526239395142
0.249661758542060852 -0.104791373014450073 -0.380569785833358765
-0.585114777088165283 0.170933306217193604 -0.152621746063232422
-0.524028778076171875 0.121755771338939667 -0.254120677709579468
-0.506519317626953125 0.117338992655277252 -0.136720180511474609
-0.493620544672012329 -0.103676199913024902 -0.254755020141601562
-0.508427917957305908 -0.102595053613185883 -0.140751048922538757
-0.280672699213027954 -0.146101564168930054 -0.216223552823066711
-0.30112457275390625 -0.198189333081245422 -0.128012970089912415
-0.188958480954170227 -0.192484810948371887 -0.116899646818637848
-0.382335662841796875 0.304065316915512085 -0.152735710144042969
-0.403949737548828125 0.246303185820579529 -0.248270347714424133
-0.490932464599609375 0.323034942150115967 -0.172190830111503601
-0.135222122073173523 -0.0819314122200012207 0.00981076527386903763
-0.0561548881232738495 -0.0872735679149627686 -0.0979084968566894531
-0.156585693359375 -0.152668103575706482 -0.0748071670532226562
-0.297041565179824829 0.105606317520141602 -0.12823311984539032
-0.229616805911064148 0.112461186945438385 -0.211371734738349915
-0.0418408699333667755 -0.308855205774307251 -0.159013912081718445
0.00428517675027251244 -0.321571439504623413 -0.058025997132062912
-0.104218803346157074 0.195230469107627869 -0.0578285865485668182
-0.112664543092250824 0.28274121880531311 -0.118495143949985504
0.1818389892578125 -0.277726143598556519 -0.168553188443183899
0.212162017822265625 -0.30708661675453186 -0.077223457396030426
-0.0221621189266443253 0.251148372888565063 -0.0129270553588867188
0.099362693727016449 0.17338639497756958 -0.126654788851737976
0.201150253415107727 0.272818207740783691 -0.164525672793388367
0.208049774169921875 0.0595284514129161835 -0.218694522976875305
0.390338897705078125 -0.0577299296855926514 -0.276285171508789062
0.419965118169784546 -0.137778222560882568 -0.168792083859443665
0.308157593011856079 -0.262363165616989136 -0.103937149047851562
0.093690238893032074 0.278380215167999268 -0.152315139770507812
0.266694396734237671 0.14052136242389679 -0.168766811490058899
0.334819793701171875 -0.0688346698880195618 -0.188011810183525085
-0.599169433116912842 0.202823460102081299 0.0736889839172363281
-0.635092437267303467 0.0983027741312980652 0.0633856430649757385
-0.503526031970977783 -0.0963256731629371643 0.0878904685378074646
-0.340337127447128296 -0.231697365641593933 0.0895981788635253906
-0.2427215576171875 -0.239270865917205811 0.0865774154663085938
-0.426067352294921875 0.288519293069839478 0.0651013031601905823
-0.5151824951171875 0.338906735181808472 0.0444415397942066193
-0.07617950439453125 -0.248091891407966614 0.146845027804374695
-0.17591094970703125 -0.225520297884941101 0.142418071627616882
-0.305005401372909546 0.10796627402305603 0.0964517593383789062
0.0455869026482105255 -0.237353131175041199 0.153083011507987976
-0.091639198362827301 0.0241044666618108749 0.0878658294677734375
0.255489349365234375 -0.2380572110414505 0.138280555605888367
-0.00138600671198219061 0.0749439895153045654 0.130901649594306946
0.014369964599609375 0.241579294204711914 0.0768701210618019104
0.442929595708847046 -0.046227727085351944 0.0321308784186840057
0.306830078363418579 -0.157693430781364441 0.0966048240661621094
0.112386070191860199 0.299286484718322754 0.0724088326096534729
0.217238113284111023 0.106119990348815918 0.0459667854011058807
0.423730224370956421 0.044862452894449234 -0.0116140050813555717
-0.632541656494140625 0.21446073055267334 0.284927040338516235
-0.540041625499725342 0.169308021664619446 0.253508418798446655
-0.397665649652481079 0.0163458231836557388 0.255031108856201172
-0.282989501953125 -0.00119901553262025118 0.0603925399482250214
-0.201844528317451477 -0.0455646254122257233 0.0173457469791173935
-0.414707183837890625 0.299272149801254272 0.268715232610702515
-0.496153503656387329 0.319586694240570068 0.246220901608467102
-0.03885650634765625 -0.0312456097453832626 0.101871967315673828
-0.128938034176826477 -0.00705178501084446907 0.17000897228717804
-0.232013702392578125 0.160277709364891052 0.301813602447509766
0.0541407279670238495 -0.0581421814858913422 0.279293686151504517
-0.0471089668571949005 0.0677139014005661011 0.292874962091445923
0.271603912115097046 -0.120220929384231567 0.343511730432510376
-0.134351089596748352 0.135895803570747375 0.307358890771865845
0.035675048828125 0.211599603295326233 0.299814373254776001
0.478819519281387329 0.0316236428916454315 0.239527061581611633
0.378093719482421875 -0.104264847934246063 0.307222366333007812
0.127222701907157898 0.280883520841598511 0.293847709894180298
0.300567626953125 0.286101371049880981 0.151167869567871094
0.442423492670059204 0.122134558856487274 0.192131355404853821
-0.558284759521484375 0.100156128406524658 0.330898433923721313
-0.450122833251953125 -0.0775244235992431641 0.24510367214679718
-0.312264770269393921 -0.109400667250156403 0.0605783462524414062
-0.376972198486328125 0.361851096153259277 0.334173679351806641
-0.312155395746231079 0.206710949540138245 0.249540016055107117
-0.413377135992050171 0.190470635890960693 0.345115512609481812
-0.3025665283203125 -0.0130848437547683716 0.332122802734375
-0.204640701413154602 -0.171936199069023132 0.193475410342216492
-0.085318244993686676 0.0840751156210899353 0.156695842742919922
-0.15544891357421875 -0.0512354820966720581 0.24197833240032196
-0.229910537600517273 0.238388165831565857 0.22012011706829071
-0.089173637330532074 0.303883343935012817 0.288497596979141235
0.107065834105014801 0.048472624272108078 0.242594555020332336
0.064519248902797699 -0.119232825934886932 0.201865673065185547
-0.09958648681640625 0.0571171827614307404 0.199096515774726868
0.0340143851935863495 0.166677817702293396 0.1538543701171875
0.286162048578262329 -0.0133200213313102722 0.351319938898086548
0.170083358883857727 0.0671450421214103699 0.235051795840263367
0.15057373046875 0.175053462386131287 0.230659961700439453
0.058185577392578125 0.316543728113174438 0.212158203125
0.111537933349609375 0.110670305788516998 0.0236552562564611435
0.233891800045967102 0.230488374829292297 0.0884726867079734802
0.214536026120185852 -0.0404248423874378204 0.155352428555488586
0.371172577142715454 0.0564389713108539581 0.146644756197929382
-0.314957946538925171 0.229143932461738586 0.347985118627548218
-0.212690994143486023 0.0367799513041973114 0.314956188201904297
-0.108885444700717926 -0.154052570462226868 0.249391868710517883
-0.155047103762626648 0.316476047039031982 0.19830639660358429
-0.0367863960564136505 0.130957752466201782 0.229088783264160156
0.087914787232875824 -0.0516772158443927765 0.281163692474365234
0.0248692836612462997 0.182777807116508484 0.260257720947265625
0.1322784423828125 0.193278014659881592 0.0851780548691749573
0.266183227300643921 0.042959894984960556 0.186679363250732422
3 0 1 2
3 1 3 4
3 2 1 4
3 3 5 6
3 4 3 6
3 5 7 6
3 0 8 9
3 1 0 9
3 9 10 1
3 1 10 3
3 10 11 3
3 3 11 5
3 5 11 12
3 7 5 12
3 8 13 14
3 9 8 14
3 14 15 9
3 9 15 10
3 15 16 10
3 10 16 11
3 11 16 17
3 12 11 17
3 14 13 18
3 15 14 18
3 19 15 18
3 16 15 19
3 20 16 19
3 16 20 17
3 21 22 23
3 22 24 25
3 23 22 25
3 24 26 27
3 25 24 27
3 26 28 27
3 29 30 31
3 2 22 21
3 0 2 21
3 0 21 31
3 0 31 30
3 4 22 2
3 24 22 4
3 6 24 4
3 26 24 6
3 26 32 28
3 6 32 26
3 6 33 32
3 6 7 33
3 33 34 32
3 29 35 36
3 30 29 36
3 36 0 30
3 8 0 36
3 12 33 7
3 37 33 12
3 33 37 38
3 34 33 38
3 35 39 40
3 36 35 40
3 40 8 36
3 13 8 40
3 17 37 12
3 41 37 17
3 37 41 42
3 38 37 42
3 40 39 43
3 43 44 45
3 40 43 45
3 40 45 18
3 40 18 13
3 18 46 19
3 45 46 18
3 19 47 20
3 46 47 19
3 48 49 41
3 47 48 41
3 47 41 17
3 47 17 20
3 41 49 42
3 45 44 50
3 46 45 50
3 51 46 50
3 47 46 51
3 52 47 51
3 47 52 48
3 53 21 23
3 54 53 23
3 23 25 54
3 25 55 54
3 25 27 55
3 27 56 55
3 28 57 56
3 27 28 56
3 58 29 31
3 59 58 31
3 31 53 59
3 21 53 31
3 60 28 32
3 57 28 60
3 34 61 60
3 32 34 60
3 35 29 62
3 62 29 58
3 38 63 34
3 63 61 34
3 39 35 64
3 64 35 62
3 42 65 38
3 65 63 38
3 66 43 39
3 64 66 39
3 44 66 67
3 43 66 44
3 68 49 48
3 69 49 68
3 49 69 65
3 42 49 65
3 70 50 44
3 67 70 44
3 50 70 51
3 51 70 71
3 51 71 52
3 52 71 72
3 52 72 68
3 48 52 68
3 73 53 54
3 74 73 54
3 54 55 74
3 55 75 74
3 55 56 75
3 56 76 75
3 57 77 76
3 56 57 76
3 78 58 59
3 79 78 59
3 59 73 79
3 53 73 59
3 80 57 60
3 77 57 80
3 61 81 80
3 60 61 80
3 62 58 82
3 82 58 78
3 63 83 61
3 83 81 61
3 64 62 84
3 84 62 82
3 65 85 63
3 85 83 63
3 86 66 64
3 84 86 64
3 67 86 87
3 66 86 67
3 88 69 68
3 89 69 88
3 69 89 85
3 65 69 85
3 90 70 67
3 87 90 67
3 70 90 71
3 71 90 91
3 71 91 72
3 72 91 92
3 72 92 88
3 68 72 88
3 73 74 93
3 74 75 94
3 93 74 94
3 75 76 95
3 94 75 95
3 76 77 95
3 78 79 96
3 97 93 98
3 96 93 97
3 96 73 93
3 96 79 73
3 94 98 93
3 99 98 94
3 95 99 94
3 100 99 95
3 100 101 102
3 95 101 100
3 95 80 101
3 95 77 80
3 80 81 101
3 82 78 96
3 103 82 96
3 96 104 103
3 97 104 96
3 102 105 106
3 101 105 102
3 105 101 81
3 83 105 81
3 84 82 103
3 107 84 103
3 103 108 107
3 104 108 103
3 106 109 110
3 105 109 106
3 109 105 83
3 85 109 83
3 86 84 107
3 107 108 111
3 86 107 111
3 86 111 112
3 86 112 87
3 112 113 114
3 111 113 112
3 114 115 116
3 113 115 114
3 89 110 109
3 88 110 89
3 88 115 110
3 88 116 115
3 89 109 85
3 90 87 112
3 91 90 112
3 114 91 112
3 92 91 114
3 116 92 114
3 92 116 88
3 97 98 117
3 98 99 118
3 117 98 118
3 99 100 119
3 118 99 119
3 100 102 119
3 104 97 117
3 120 104 117
3 120 117 121
3 117 118 121
3 121 118 122
3 118 119 122
3 122 119 102
3 106 122 102
3 108 104 120
3 123 108 120
3 123 120 124
3 120 121 124
3 124 121 125
3 121 122 125
3 125 122 106
3 110 125 106
3 111 108 123
3 113 111 123
3 124 113 123
3 115 113 124
3 125 115 124
3 115 125 110
