ply
format ascii 1.0
comment VCGLIB generated
element vertex 126
property float x
property float y
property float z
element face 248
property list uchar int vertex_indices
end_header
-2.17344284057617188 0.0836066678166389465 -0.421607732772827148
-2.12663650512695312 0.189534008502960205 -0.43323063850402832
-2.15889739990234375 0.177812427282333374 -0.325367927551269531
-2.14420700073242188 -0.0228713639080524445 -0.497226715087890625
-2.2085723876953125 -0.0361236557364463806 -0.409897804260253906
-2.15316390991210938 -0.242171362042427063 -0.544733524322509766
-2.26500320434570312 -0.237061873078346252 -0.493072986602783203
-2.15223121643066406 -0.242676630616188049 -0.425794601440429688
-1.95379638671875 0.134822994470596313 -0.421265363693237305
-1.94789314270019531 0.129653021693229675 -0.312621116638183594
-1.99401473999023438 -0.0869433209300041199 -0.33871150016784668
-1.93479537963867188 -0.262670814990997314 -0.467049360275268555
-1.96056747436523438 -0.355674117803573608 -0.428542137145996094
-1.75365829467773438 0.190400451421737671 -0.328275203704833984
-1.73031997680664062 0.0785853862762451172 -0.338781833648681641
-1.79187965393066406 -0.124718420207500458 -0.423810482025146484
-1.78214645385742188 -0.32498660683631897 -0.320679187774658203
-1.76053237915039062 -0.426120072603225708 -0.362885951995849609
-1.70495986938476562 0.111679919064044952 -0.432980537414550781
-1.68316459655761719 -0.10953686386346817 -0.404870510101318359
-1.67653656005859375 -0.322237342596054077 -0.360507726669311523
-2.41312599182128906 0.166752487421035767 -0.233325481414794922
-2.341888427734375 0.209365740418434143 -0.346645832061767578
-2.30569076538085938 0.202842265367507935 -0.249626636505126953
-2.37465858459472656 -0.0144233312457799911 -0.345360755920410156
-2.35907936096191406 -0.0159897990524768829 -0.238750696182250977
-2.36669349670410156 -0.243087694048881531 -0.343659162521362305
-2.41358184814453125 -0.236798569560050964 -0.234574794769287109
-2.3192596435546875 -0.284659355878829956 -0.21863865852355957
-2.22115516662597656 0.235155746340751648 -0.251491308212280273
-2.19788360595703125 0.247019574046134949 -0.36464381217956543
-2.30119895935058594 0.296592950820922852 -0.292439460754394531
-2.16258811950683594 -0.221576094627380371 -0.16858363151550293
-2.18817520141601562 -0.312912344932556152 -0.260700702667236328
-2.16009330749511719 -0.338383883237838745 -0.176077604293823242
-2.03626441955566406 0.354815930128097534 -0.276235818862915039
-1.98194694519042969 0.258038371801376343 -0.2996063232421875
-1.97222900390625 -0.264498531818389893 -0.267884969711303711
-1.9693756103515625 -0.232803016901016235 -0.16016387939453125
-1.81293296813964844 0.342063695192337036 -0.260272741317749023
-1.7976837158203125 0.365760862827301025 -0.363281488418579102
-1.85338783264160156 -0.443487077951431274 -0.207651853561401367
-1.83865928649902344 -0.401364147663116455 -0.104897260665893555
-1.70832061767578125 0.385463207960128784 -0.253850460052490234
-1.62242507934570312 0.232504621148109436 -0.216792106628417969
-1.62911415100097656 0.117369234561920166 -0.27600550651550293
-1.68663787841796875 -0.094669535756111145 -0.227783441543579102
-1.57480621337890625 -0.291702777147293091 -0.215368032455444336
-1.65102577209472656 -0.289117723703384399 -0.100042819976806641
-1.73865318298339844 -0.436056762933731079 -0.127954483032226562
-1.69371604919433594 0.153602972626686096 -0.196077346801757812
-1.61147117614746094 -0.0503908842802047729 -0.158601284027099609
-1.54554939270019531 -0.258091717958450317 -0.110675811767578125
-2.37614250183105469 0.222836762666702271 -0.0171883106231689453
-2.46322250366210938 0.238073393702507019 -0.0855581760406494141
-2.47802162170410156 0.0208734478801488876 -0.0513789653778076172
-2.42310333251953125 -0.194376721978187561 -0.0147252082824707031
-2.38068199157714844 -0.297549784183502197 -0.00419688224792480469
-2.24005508422851562 0.342066138982772827 -0.0564856529235839844
-2.33599090576171875 0.379941046237945557 -0.0884559154510498047
-2.21944046020507812 -0.25989195704460144 0.0548624992370605469
-2.16938591003417969 -0.348352879285812378 0.0331981182098388672
-2.01284217834472656 0.355224817991256714 -0.0483248233795166016
-1.97079086303710938 -0.25089910626411438 0.0656597614288330078
-1.82296180725097656 0.470872730016708374 -0.0683336257934570312
-1.75420570373535156 -0.292198628187179565 0.0706799030303955078
-1.73996162414550781 0.415620565414428711 -0.0313060283660888672
-1.61280059814453125 0.292506486177444458 0.000506162643432617188
-1.62873458862304688 -0.33071589469909668 0.117229461669921875
-1.79608345031738281 -0.39248695969581604 0.0826573371887207031
-1.67408180236816406 0.203807413578033447 0.0265150070190429688
-1.67322349548339844 -0.0177348852157592773 0.0551829338073730469
-1.59262466430664062 -0.223394051194190979 0.101934194564819336
-2.48069572448730469 0.323457241058349609 0.150722503662109375
-2.39024543762207031 0.268891960382461548 0.122679948806762695
-2.29175758361816406 0.0817994624376296997 0.0574948787689208984
-2.24602317810058594 -0.123093143105506897 0.111178398132324219
-2.23428535461425781 -0.222047016024589539 0.147303342819213867
-2.25268363952636719 0.490900576114654541 0.115944385528564453
-2.35294151306152344 0.441312581300735474 0.12647247314453125
-2.26260566711425781 -0.365606546401977539 0.255259037017822266
-2.18861579895019531 -0.275281608104705811 0.249748468399047852
-2.02708625793457031 0.474666684865951538 0.137087345123291016
-1.97504234313964844 -0.336805999279022217 0.279197454452514648
-1.80175590515136719 0.461975604295730591 0.156541824340820312
-1.75614356994628906 -0.277998417615890503 0.300529003143310547
-1.84747886657714844 0.358341306447982788 0.15596318244934082
-1.69676780700683594 0.270571202039718628 0.20525813102722168
-1.694732666015625 -0.274407714605331421 0.324975252151489258
-1.85735702514648438 -0.29708823561668396 0.273599147796630859
-1.603973388671875 0.227536603808403015 0.242991447448730469
-1.69235420227050781 0.0260406062006950378 0.273222684860229492
-1.63681221008300781 -0.184111878275871277 0.319013595581054688
-2.43488693237304688 0.207796856760978699 0.20653533935546875
-2.27516365051269531 0.0489843487739562988 0.162421703338623047
-2.35192298889160156 -0.151294976472854614 0.11976170539855957
-2.2630157470703125 0.48110806941986084 0.22046351432800293
-2.25991249084472656 0.362107038497924805 0.353362560272216797
-2.33609962463378906 0.260789006948471069 0.340716361999511719
-2.35398101806640625 0.0472900345921516418 0.323072195053100586
-2.31749916076660156 -0.168795734643936157 0.294124603271484375
-2.12624931335449219 -0.353896558284759521 0.225266933441162109
-2.24065399169921875 -0.285689264535903931 0.311967611312866211
-2.03417015075683594 0.468192100524902344 0.24820256233215332
-2.05536842346191406 0.37768980860710144 0.395455598831176758
-1.96360588073730469 -0.277462273836135864 0.361400842666625977
-2.06077766418457031 -0.172419771552085876 0.242484092712402344
-1.80941581726074219 0.441341906785964966 0.263867616653442383
-1.83179092407226562 0.367885231971740723 0.428440093994140625
-1.78159332275390625 -0.178152397274971008 0.274095058441162109
-1.87866401672363281 -0.0324990116059780121 0.226972341537475586
-1.79146003723144531 0.232321828603744507 0.444159984588623047
-1.65127754211425781 0.271059006452560425 0.334333181381225586
-1.83128166198730469 0.0450083129107952118 0.314707756042480469
-1.66160392761230469 0.054653313010931015 0.371720552444458008
-1.77304649353027344 -0.0861439108848571777 0.142950057983398438
-1.74300575256347656 -0.144784688949584961 0.317568778991699219
-2.25221633911132812 0.287092655897140503 0.283058881759643555
-2.24905204772949219 0.0460417568683624268 0.282992362976074219
-2.238433837890625 -0.166492700576782227 0.368724346160888672
-2.07183265686035156 0.270389795303344727 0.406197786331176758
-2.04629898071289062 0.0507097691297531128 0.375592470169067383
-2.01634979248046875 -0.167646586894989014 0.343892812728881836
-1.85362625122070312 0.285906434059143066 0.36851811408996582
-1.86694717407226562 0.108839817345142365 0.235575199127197266
-1.81870460510253906 -0.122544035315513611 0.24092864990234375
3 0 1 2
3 1 3 4
3 2 1 4
3 3 5 6
3 4 3 6
3 5 7 6
3 0 8 9
3 1 0 9
3 9 10 1
3 1 10 3
3 10 11 3
3 3 11 5
3 5 11 12
3 7 5 12
3 8 13 14
3 9 8 14
3 14 15 9
3 9 15 10
3 15 16 10
3 10 16 11
3 11 16 17
3 12 11 17
3 14 13 18
3 15 14 18
3 19 15 18
3 16 15 19
3 20 16 19
3 16 20 17
3 21 22 23
3 22 24 25
3 23 22 25
3 24 26 27
3 25 24 27
3 26 28 27
3 29 30 31
3 2 22 21
3 0 2 21
3 0 21 31
3 0 31 30
3 4 22 2
3 24 22 4
3 6 24 4
3 26 24 6
3 26 32 28
3 6 32 26
3 6 33 32
3 6 7 33
3 33 34 32
3 29 35 36
3 30 29 36
3 36 0 30
3 8 0 36
3 12 33 7
3 37 33 12
3 33 37 38
3 34 33 38
3 35 39 40
3 36 35 40
3 40 8 36
3 13 8 40
3 17 37 12
3 41 37 17
3 37 41 42
3 38 37 42
3 40 39 43
3 43 44 45
3 40 43 45
3 40 45 18
3 40 18 13
3 18 46 19
3 45 46 18
3 19 47 20
3 46 47 19
3 48 49 41
3 47 48 41
3 47 41 17
3 47 17 20
3 41 49 42
3 45 44 50
3 46 45 50
3 51 46 50
3 47 46 51
3 52 47 51
3 47 52 48
3 53 21 23
3 54 53 23
3 23 25 54
3 25 55 54
3 25 27 55
3 27 56 55
3 28 57 56
3 27 28 56
3 58 29 31
3 59 58 31
3 31 53 59
3 21 53 31
3 60 28 32
3 57 28 60
3 34 61 60
3 32 34 60
3 35 29 62
3 62 29 58
3 38 63 34
3 63 61 34
3 39 35 64
3 64 35 62
3 42 65 38
3 65 63 38
3 66 43 39
3 64 66 39
3 44 66 67
3 43 66 44
3 68 49 48
3 69 49 68
3 49 69 65
3 42 49 65
3 70 50 44
3 67 70 44
3 50 70 51
3 51 70 71
3 51 71 52
3 52 71 72
3 52 72 68
3 48 52 68
3 73 53 54
3 74 73 54
3 54 55 74
3 55 75 74
3 55 56 75
3 56 76 75
3 57 77 76
3 56 57 76
3 78 58 59
3 79 78 59
3 59 73 79
3 53 73 59
3 80 57 60
3 77 57 80
3 61 81 80
3 60 61 80
3 62 58 82
3 82 58 78
3 63 83 61
3 83 81 61
3 64 62 84
3 84 62 82
3 65 85 63
3 85 83 63
3 86 66 64
3 84 86 64
3 67 86 87
3 66 86 67
3 88 69 68
3 89 69 88
3 69 89 85
3 65 69 85
3 90 70 67
3 87 90 67
3 70 90 71
3 71 90 91
3 71 91 72
3 72 91 92
3 72 92 88
3 68 72 88
3 73 74 93
3 74 75 94
3 93 74 94
3 75 76 95
3 94 75 95
3 76 77 95
3 78 79 96
3 97 93 98
3 96 93 97
3 96 73 93
3 96 79 73
3 94 98 93
3 99 98 94
3 95 99 94
3 100 99 95
3 100 101 102
3 95 101 100
3 95 80 101
3 95 77 80
3 80 81 101
3 82 78 96
3 103 82 96
3 96 104 103
3 97 104 96
3 102 105 106
3 101 105 102
3 105 101 81
3 83 105 81
3 84 82 103
3 107 84 103
3 103 108 107
3 104 108 103
3 106 109 110
3 105 109 106
3 109 105 83
3 85 109 83
3 86 84 107
3 107 108 111
3 86 107 111
3 86 111 112
3 86 112 87
3 112 113 114
3 111 113 112
3 114 115 116
3 113 115 114
3 89 110 109
3 88 110 89
3 88 115 110
3 88 116 115
3 89 109 85
3 90 87 112
3 91 90 112
3 114 91 112
3 92 91 114
3 116 92 114
3 92 116 88
3 97 98 117
3 98 99 118
3 117 98 118
3 99 100 119
3 118 99 119
3 100 102 119
3 104 97 117
3 120 104 117
3 120 117 121
3 117 118 121
3 121 118 122
3 118 119 122
3 122 119 102
3 106 122 102
3 108 104 120
3 123 108 120
3 123 120 124
3 120 121 124
3 124 121 125
3 121 122 125
3 125 122 106
3 110 125 106
3 111 108 123
3 113 111 123
3 124 113 123
3 115 113 124
3 125 115 124
3 115 125 110
