ply
format ascii 1.0
comment VCGLIB generated
element vertex 126
property float x
property float y
property float z
element face 248
property list uchar int vertex_indices
end_header
-0.16994476318359375 0.27146226167678833 -0.533289909362792969
-0.150529533624649048 0.216863274574279785 -0.426915079355239868
-0.24803479015827179 0.180878594517707825 -0.461477816104888916
-0.156407356262207031 0.015531688928604126 -0.31986534595489502
-0.203320175409317017 -0.03488897904753685 -0.408327966928482056
-0.150295883417129517 -0.184753403067588806 -0.217128783464431763
-0.141234397888183594 -0.236129432916641235 -0.325805932283401489
-0.179327324032783508 -0.294506549835205078 -0.19447644054889679
0.0356578826904296875 0.269773155450820923 -0.446627706289291382
0.0584220848977565765 0.175719887018203735 -0.490238457918167114
0.0337171554565429688 -0.0394059345126152039 -0.419762104749679565
0.00923951435834169388 -0.257314294576644897 -0.361476927995681763
-0.0118923177942633629 -0.355570226907730103 -0.314267277717590332
0.245547279715538025 0.284309715032577515 -0.357435137033462524
0.241785034537315369 0.172576814889907837 -0.356009185314178467
0.250682830810546875 -0.0487923361361026764 -0.381120830774307251
0.233780533075332642 -0.263144254684448242 -0.314262509346008301
0.206858307123184204 -0.347960829734802246 -0.249012306332588196
0.347294807434082031 0.183220237493515015 -0.351388037204742432
0.283336639404296875 -0.0163223538547754288 -0.283348947763442993
0.270833969116210938 -0.232180476188659668 -0.219319254159927368
-0.317222267389297485 0.31268996000289917 -0.236162930727005005
-0.348226219415664673 0.199062153697013855 -0.305735260248184204
-0.349834740161895752 0.207017689943313599 -0.197329312562942505
-0.190439209342002869 0.0403667092323303223 -0.246095448732376099
-0.268185913562774658 -0.000366985681466758251 -0.166013240814208984
-0.253437340259552002 -0.161662518978118896 -0.217467740178108215
-0.203561767935752869 -0.205273360013961792 -0.11859237402677536
-0.310120582580566406 -0.260778665542602539 -0.136606693267822266
-0.0805012360215187073 0.176328584551811218 -0.26780286431312561
-0.111106231808662415 0.211143985390663147 -0.371457517147064209
-0.150915771722793579 0.260340720415115356 -0.245374038815498352
-0.18929639458656311 -0.367296993732452393 -0.0555972233414649963
-0.21160443127155304 -0.474608331918716431 -0.15198071300983429
-0.225914314389228821 -0.376762032508850098 -0.153942301869392395
-0.0658003464341163635 0.396622836589813232 -0.251800209283828735
0.00166098272893577814 0.402089208364486694 -0.337489426136016846
-0.0519927330315113068 -0.344177186489105225 -0.150970607995986938
-0.035327274352312088 -0.302016705274581909 -0.064761236310005188
0.110092155635356903 0.254144966602325439 -0.269857227802276611
0.165877342224121094 0.313099026679992676 -0.196941882371902466
0.168401390314102173 -0.385459691286087036 -0.094178713858127594
0.189210563898086548 -0.294293612241744995 -0.132316946983337402
0.186368614435195923 0.181324541568756104 -0.231166273355484009
0.347291618585586548 0.247386381030082703 -0.242206841707229614
0.464040428400039673 0.180475190281867981 -0.218095764517784119
0.370717048645019531 -0.00454718293622136116 -0.129783943295478821
0.429541260004043579 -0.22089385986328125 -0.135965541005134583
0.347433090209960938 -0.215502887964248657 -0.235626295208930969
0.254867851734161377 -0.343942761421203613 -0.202442988753318787
0.414314240217208862 0.240576088428497314 -0.150710940361022949
0.478579193353652954 0.0206208191812038422 -0.115029014647006989
0.465157806873321533 -0.176975607872009277 -0.231768682599067688
-0.296303421258926392 0.331425964832305908 -0.00160038459580391645
-0.367048561573028564 0.252955526113510132 0.022357303649187088
-0.251703262329101562 0.0672189667820930481 0.0539739914238452911
-0.258471161127090454 -0.175979778170585632 0.086307920515537262
-0.175712898373603821 -0.244049370288848877 0.0627797842025756836
-0.065142311155796051 0.163606613874435425 -0.034326113760471344
-0.162143707275390625 0.218537315726280212 -0.0155284004285931587
-0.0338602066040039062 -0.229766234755516052 -0.0587858743965625763
-0.143796592950820923 -0.212689131498336792 -0.0323166437447071075
-0.0473197288811206818 0.38511165976524353 -0.0242507439106702805
-0.0700839310884475708 -0.117538787424564362 -0.198196157813072205
0.0916067734360694885 0.22092139720916748 -0.0533785410225391388
0.135331153869628906 -0.132664412260055542 -0.255548536777496338
0.1519012451171875 0.319801419973373413 -0.0443160533905029297
0.32253265380859375 0.279336690902709961 -0.0305517502129077911
0.29843488335609436 -0.108117543160915375 -0.0465744733810424805
0.169119834899902344 -0.154004320502281189 -0.151035577058792114
0.239788681268692017 0.209525957703590393 -0.0140839805826544762
0.255225479602813721 0.0200421344488859177 -0.107996061444282532
0.283282577991485596 -0.197411239147186279 -0.127381473779678345
-0.244294792413711548 0.329005271196365356 0.227824240922927856
-0.337317764759063721 0.302844464778900146 0.237231045961380005
-0.376052826642990112 0.0704820230603218079 0.252019762992858887
-0.181778267025947571 -0.0218609105795621872 0.209332093596458435
-0.0905450135469436646 -0.0873392224311828613 0.194971159100532532
-0.0619363747537136078 0.16569441556930542 0.202104046940803528
-0.158352851867675781 0.17975538969039917 0.221444755792617798
0.00966866780072450638 -0.0327901504933834076 0.0496544428169727325
0.00461419392377138138 -0.123102620244026184 0.120538271963596344
-0.0134118394926190376 0.381274998188018799 0.199342355132102966
0.104309715330600739 -0.0385903343558311462 -0.0630708485841751099
0.159344673156738281 0.227773457765579224 0.152468875050544739
0.186408355832099915 0.0754662677645683289 -0.247918561100959778
0.121658638119697571 0.330120623111724854 0.175270631909370422
0.281815528869628906 0.245869278907775879 0.189267978072166443
0.430289894342422485 -0.0254872925579547882 -0.215216860175132751
0.280836403369903564 0.0347097404301166534 -0.233163028955459595
0.342817306518554688 0.15300440788269043 0.175418451428413391
0.222733810544013977 -0.0109592406079173088 0.103397168219089508
0.369307190179824829 0.0214381776750087738 -0.0883708372712135315
-0.32468000054359436 0.29223334789276123 0.326825171709060669
-0.285727173089981079 0.0609089955687522888 0.275973081588745117
-0.210374191403388977 -0.121394887566566467 0.187814816832542419
-0.038493473082780838 0.162621855735778809 0.329257845878601074
-0.052366252988576889 0.332539916038513184 0.264051347970962524
-0.167342811822891235 0.30183255672454834 0.352289080619812012
-0.136267334222793579 0.0717622712254524231 0.398766785860061646
-0.0699440613389015198 -0.124021463096141815 0.317631542682647705
0.0811004638671875 -0.156102180480957031 0.0910770893096923828
-0.0334596633911132812 -0.026476128026843071 0.189907535910606384
0.047807689756155014 0.374314337968826294 0.289300471544265747
0.0623369179666042328 0.317214429378509521 0.103041522204875946
0.151726394891738892 0.0438785962760448456 0.0160861015319824219
0.133722618222236633 0.140439614653587341 0.159508779644966125
0.0736570358276367188 0.24703533947467804 0.0891860276460647583
0.231485351920127869 0.187353789806365967 0.17676272988319397
0.245377212762832642 0.120503179728984833 -0.13847687840461731
0.289101600646972656 0.0516043230891227722 0.0334908552467823029
0.254281342029571533 0.0577885620296001434 0.133792951703071594
0.345001220703125 0.204611510038375854 0.0733584165573120117
0.206497505307197571 0.0179295167326927185 -0.0905342847108840942
0.152031570672988892 0.0781539380550384521 0.054222937673330307
0.375771492719650269 -0.0510235615074634552 0.0414009876549243927
0.292181968688964844 0.0313902348279953003 -0.125557973980903625
-0.0915892869234085083 0.255026072263717651 0.313974201679229736
-0.131812095642089844 0.0498270168900489807 0.289158225059509277
0.0297466907650232315 -0.0791874900460243225 0.261991620063781738
-0.0107161197811365128 0.242482095956802368 0.12597203254699707
0.0275707226246595383 0.0138489147648215294 0.142372250556945801
0.192235305905342102 0.0774707719683647156 0.251428067684173584
0.165565803647041321 0.125021353363990784 0.148514509201049805
0.142890602350234985 0.0103136422112584114 -0.00243941927328705788
0.348013222217559814 0.0491793118417263031 0.0706940889358520508
3 0 1 2
3 1 3 4
3 2 1 4
3 3 5 6
3 4 3 6
3 5 7 6
3 0 8 9
3 1 0 9
3 9 10 1
3 1 10 3
3 10 11 3
3 3 11 5
3 5 11 12
3 7 5 12
3 8 13 14
3 9 8 14
3 14 15 9
3 9 15 10
3 15 16 10
3 10 16 11
3 11 16 17
3 12 11 17
3 14 13 18
3 15 14 18
3 19 15 18
3 16 15 19
3 20 16 19
3 16 20 17
3 21 22 23
3 22 24 25
3 23 22 25
3 24 26 27
3 25 24 27
3 26 28 27
3 29 30 31
3 2 22 21
3 0 2 21
3 0 21 31
3 0 31 30
3 4 22 2
3 24 22 4
3 6 24 4
3 26 24 6
3 26 32 28
3 6 32 26
3 6 33 32
3 6 7 33
3 33 34 32
3 29 35 36
3 30 29 36
3 36 0 30
3 8 0 36
3 12 33 7
3 37 33 12
3 33 37 38
3 34 33 38
3 35 39 40
3 36 35 40
3 40 8 36
3 13 8 40
3 17 37 12
3 41 37 17
3 37 41 42
3 38 37 42
3 40 39 43
3 43 44 45
3 40 43 45
3 40 45 18
3 40 18 13
3 18 46 19
3 45 46 18
3 19 47 20
3 46 47 19
3 48 49 41
3 47 48 41
3 47 41 17
3 47 17 20
3 41 49 42
3 45 44 50
3 46 45 50
3 51 46 50
3 47 46 51
3 52 47 51
3 47 52 48
3 53 21 23
3 54 53 23
3 23 25 54
3 25 55 54
3 25 27 55
3 27 56 55
3 28 57 56
3 27 28 56
3 58 29 31
3 59 58 31
3 31 53 59
3 21 53 31
3 60 28 32
3 57 28 60
3 34 61 60
3 32 34 60
3 35 29 62
3 62 29 58
3 38 63 34
3 63 61 34
3 39 35 64
3 64 35 62
3 42 65 38
3 65 63 38
3 66 43 39
3 64 66 39
3 44 66 67
3 43 66 44
3 68 49 48
3 69 49 68
3 49 69 65
3 42 49 65
3 70 50 44
3 67 70 44
3 50 70 51
3 51 70 71
3 51 71 52
3 52 71 72
3 52 72 68
3 48 52 68
3 73 53 54
3 74 73 54
3 54 55 74
3 55 75 74
3 55 56 75
3 56 76 75
3 57 77 76
3 56 57 76
3 78 58 59
3 79 78 59
3 59 73 79
3 53 73 59
3 80 57 60
3 77 57 80
3 61 81 80
3 60 61 80
3 62 58 82
3 82 58 78
3 63 83 61
3 83 81 61
3 64 62 84
3 84 62 82
3 65 85 63
3 85 83 63
3 86 66 64
3 84 86 64
3 67 86 87
3 66 86 67
3 88 69 68
3 89 69 88
3 69 89 85
3 65 69 85
3 90 70 67
3 87 90 67
3 70 90 71
3 71 90 91
3 71 91 72
3 72 91 92
3 72 92 88
3 68 72 88
3 73 74 93
3 74 75 94
3 93 74 94
3 75 76 95
3 94 75 95
3 76 77 95
3 78 79 96
3 97 93 98
3 96 93 97
3 96 73 93
3 96 79 73
3 94 98 93
3 99 98 94
3 95 99 94
3 100 99 95
3 100 101 102
3 95 101 100
3 95 80 101
3 95 77 80
3 80 81 101
3 82 78 96
3 103 82 96
3 96 104 103
3 97 104 96
3 102 105 106
3 101 105 102
3 105 101 81
3 83 105 81
3 84 82 103
3 107 84 103
3 103 108 107
3 104 108 103
3 106 109 110
3 105 109 106
3 109 105 83
3 85 109 83
3 86 84 107
3 107 108 111
3 86 107 111
3 86 111 112
3 86 112 87
3 112 113 114
3 111 113 112
3 114 115 116
3 113 115 114
3 89 110 109
3 88 110 89
3 88 115 110
3 88 116 115
3 89 109 85
3 90 87 112
3 91 90 112
3 114 91 112
3 92 91 114
3 116 92 114
3 92 116 88
3 97 98 117
3 98 99 118
3 117 98 118
3 99 100 119
3 118 99 119
3 100 102 119
3 104 97 117
3 120 104 117
3 120 117 121
3 117 118 121
3 121 118 122
3 118 119 122
3 122 119 102
3 106 122 102
3 108 104 120
3 123 108 120
3 123 120 124
3 120 121 124
3 124 121 125
3 121 122 125
3 125 122 106
3 110 125 106
3 111 108 123
3 113 111 123
3 124 113 123
3 115 113 124
3 125 115 124
3 115 125 110
