ply
format ascii 1.0
comment VCGLIB generated
element vertex 126
property float x
property float y
property float z
element face 248
property list uchar int vertex_indices
end_header
3.56970000267028809 0.0898681432008743286 -0.552289903163909912
3.64081811904907227 0.011177833192050457 -0.523067831993103027
3.54319310188293457 -0.0282558463513851166 -0.482298225164413452
3.71475720405578613 -0.141008496284484863 -0.379218816757202148
3.65671849250793457 -0.0945916175842285156 -0.299290090799331665
3.6051177978515625 -0.311742067337036133 -0.284919291734695435
3.50935482978820801 -0.261676013469696045 -0.304910928010940552
3.53371882438659668 -0.385434985160827637 -0.24810791015625
3.76298213005065918 0.118773646652698517 -0.451369494199752808
3.71651196479797363 0.144548460841178894 -0.35452994704246521
3.65240788459777832 -0.00891499035060405731 -0.205691069364547729
3.56304335594177246 -0.187850356101989746 -0.105532944202423096
3.52321100234985352 -0.27527928352355957 -0.0502066165208816528
3.90497899055480957 0.178389206528663635 -0.287481009960174561
3.90345644950866699 0.0747166797518730164 -0.251914799213409424
3.83185291290283203 -0.135642081499099731 -0.265553206205368042
3.7597205638885498 -0.29650077223777771 -0.131727993488311768
3.72982025146484375 -0.361062496900558472 -0.0472326688468456268
3.97360706329345703 0.0605283603072166443 -0.336097568273544312
3.92033481597900391 -0.115451999008655548 -0.19575616717338562
3.81111645698547363 -0.245320975780487061 -0.0486480109393596649
3.3740997314453125 0.100014582276344299 -0.307507306337356567
3.48340296745300293 0.118353962898254395 -0.392559438943862915
3.43789529800415039 0.189096346497535706 -0.320573717355728149
3.54496335983276367 0.0117824720218777657 -0.209009215235710144
3.44941210746765137 0.0292571019381284714 -0.159754529595375061
3.49235343933105469 -0.190681099891662598 -0.140863329172134399
3.39456725120544434 -0.190099239349365234 -0.187691330909729004
3.40091180801391602 -0.29522666335105896 -0.147068500518798828
3.46534371376037598 0.315228909254074097 -0.409590750932693481
3.51451516151428223 0.216776460409164429 -0.438496410846710205
3.37761783599853516 0.244110137224197388 -0.421608775854110718
3.44452428817749023 -0.442627578973770142 -0.0560342185199260712
3.41365814208984375 -0.500027239322662354 -0.18442651629447937
3.40911173820495605 -0.538858473300933838 -0.0770954638719558716
3.68855547904968262 0.388135015964508057 -0.383488684892654419
3.71331286430358887 0.272430270910263062 -0.384244263172149658
3.45256447792053223 -0.424852460622787476 0.0213837623596191406
3.46307563781738281 -0.323898017406463623 -0.0201099570840597153
3.89117836952209473 0.388258486986160278 -0.296580582857131958
3.93704676628112793 0.331181555986404419 -0.376444727182388306
3.65030097961425781 -0.391892850399017334 0.113116823136806488
3.64937520027160645 -0.282848864793777466 0.0920451730489730835
3.98181724548339844 0.370962351560592651 -0.255864530801773071
4.09604835510253906 0.240597695112228394 -0.214422821998596191
4.06046247482299805 0.113830864429473877 -0.188187241554260254
3.89657282829284668 0.0197502952069044113 -0.0675025805830955505
3.74081158638000488 -0.0989977642893791199 0.0277048889547586441
3.63016462326049805 -0.155498906970024109 -0.0150359757244586945
3.55898594856262207 -0.311384499073028564 0.0388552919030189514
3.99721145629882812 0.20108717679977417 -0.19475199282169342
3.84095096588134766 0.0353367328643798828 -0.158790022134780884
3.68293404579162598 -0.0896302089095115662 -0.0640996992588043213
3.2393958568572998 0.205614149570465088 -0.164857983589172363
3.27201485633850098 0.29043954610824585 -0.198233127593994141
3.23212528228759766 0.0728567764163017273 -0.119948171079158783
3.24811244010925293 -0.137979954481124878 -0.0248646736145019531
3.26607966423034668 -0.240308821201324463 0.0224228333681821823
3.47727847099304199 0.262038350105285645 -0.192852020263671875
3.39350605010986328 0.269311338663101196 -0.219897791743278503
3.28583788871765137 -0.401798278093338013 0.0945060849189758301
3.38655638694763184 -0.366532266139984131 0.0602308176457881927
3.70140576362609863 0.286126255989074707 -0.211603209376335144
3.599395751953125 -0.401476889848709106 0.132589548826217651
3.83630752563476562 0.422393918037414551 -0.0981931239366531372
3.5452113151550293 -0.237189367413520813 0.277859508991241455
3.92079257965087891 0.374914109706878662 -0.0419022813439369202
4.03833532333374023 0.269001305103302002 0.00298370001837611198
3.78376340866088867 -0.17165122926235199 0.145540237426757812
3.63397598266601562 -0.222110792994499207 0.223415330052375793
4.06371545791625977 0.160136327147483826 0.0203583445399999619
3.99943947792053223 -0.0661403611302375793 -0.0168605279177427292
3.83551502227783203 -0.208970323204994202 0.067067362368106842
3.312530517578125 0.249625116586685181 0.0498953722417354584
3.26792287826538086 0.353936761617660522 0.00971664022654294968
3.24749851226806641 0.152489617466926575 0.0954853370785713196
3.24370646476745605 -0.0485189445316791534 0.179103061556816101
3.28789281845092773 -0.136706426739692688 0.221775874495506287
3.51061725616455078 0.108364187180995941 -0.0591653026640415192
3.41835880279541016 0.158140763640403748 -0.0298523902893066406
3.30912160873413086 -0.29843515157699585 0.292264312505722046
3.39381814002990723 -0.375903010368347168 0.279140889644622803
3.72000765800476074 0.117741644382476807 -0.0761760324239730835
3.59109187126159668 -0.241791710257530212 0.260586947202682495
3.83223080635070801 0.273940086364746094 0.0585577674210071564
3.66628646850585938 -0.33090558648109436 0.444247275590896606
3.78879714012145996 0.35131421685218811 0.122478872537612915
3.85564613342285156 0.207218259572982788 0.0666039660573005676
3.89702868461608887 -0.260845214128494263 0.315604865550994873
3.75450468063354492 -0.311209261417388916 0.385821938514709473
3.89168477058410645 0.174667850136756897 0.15580393373966217
4.0476384162902832 -0.00406308891251683235 0.201273396611213684
3.96864104270935059 -0.20260445773601532 0.251521199941635132
3.36468958854675293 0.370622187852859497 0.0759920179843902588
3.2996211051940918 0.189572170376777649 0.190942928194999695
3.27098321914672852 -0.0143776731565594673 0.282621800899505615
3.49550771713256836 0.173715248703956604 -0.136355265974998474
3.56323409080505371 0.32471776008605957 -0.0725195631384849548
3.45994067192077637 0.284545630216598511 -0.0283002853393554688
3.45209646224975586 0.178749144077301025 0.168712779879570007
3.44667243957519531 -0.00987334642559289932 0.268101692199707031
3.41887736320495605 -0.281879037618637085 0.274167060852050781
3.44296360015869141 -0.112786784768104553 0.274679213762283325
3.71277713775634766 0.207113608717918396 -0.157016187906265259
3.71172642707824707 0.22006303071975708 0.0255857817828655243
3.62612104415893555 -0.314695537090301514 0.335846364498138428
3.63291478157043457 -0.178095787763595581 0.205259531736373901
3.8525233268737793 0.334138423204421997 -0.0196816697716712952
3.91128706932067871 0.186540782451629639 0.03166155144572258
3.71250486373901367 -0.224099427461624146 0.484240055084228516
3.6465141773223877 -0.0727518573403358459 0.399991810321807861
3.90804624557495117 0.0812066048383712769 0.114287026226520538
3.99394798278808594 0.215027987957000732 0.111645132303237915
3.80870461463928223 0.0610841177403926849 0.314860343933105469
3.95125126838684082 0.0390600636601448059 0.209532648324966431
3.69907879829406738 -0.103485234081745148 0.29550442099571228
3.86699151992797852 -0.156067460775375366 0.234025165438652039
3.50528359413146973 0.336155951023101807 0.0513594783842563629
3.45651435852050781 0.0925806388258934021 0.121353104710578918
3.53966093063354492 -0.0380345471203327179 0.287193387746810913
3.70306181907653809 0.334765732288360596 0.0525390021502971649
3.70104002952575684 0.105077281594276428 0.0901146382093429565
3.69257307052612305 -0.101943492889404297 0.140300005674362183
3.82525873184204102 0.144779369235038757 0.0789031088352203369
3.72634530067443848 0.152891442179679871 0.30343899130821228
3.77854418754577637 -0.0680146440863609314 0.344019144773483276
3 0 1 2
3 1 3 4
3 2 1 4
3 3 5 6
3 4 3 6
3 5 7 6
3 0 8 9
3 1 0 9
3 9 10 1
3 1 10 3
3 10 11 3
3 3 11 5
3 5 11 12
3 7 5 12
3 8 13 14
3 9 8 14
3 14 15 9
3 9 15 10
3 15 16 10
3 10 16 11
3 11 16 17
3 12 11 17
3 14 13 18
3 15 14 18
3 19 15 18
3 16 15 19
3 20 16 19
3 16 20 17
3 21 22 23
3 22 24 25
3 23 22 25
3 24 26 27
3 25 24 27
3 26 28 27
3 29 30 31
3 2 22 21
3 0 2 21
3 0 21 31
3 0 31 30
3 4 22 2
3 24 22 4
3 6 24 4
3 26 24 6
3 26 32 28
3 6 32 26
3 6 33 32
3 6 7 33
3 33 34 32
3 29 35 36
3 30 29 36
3 36 0 30
3 8 0 36
3 12 33 7
3 37 33 12
3 33 37 38
3 34 33 38
3 35 39 40
3 36 35 40
3 40 8 36
3 13 8 40
3 17 37 12
3 41 37 17
3 37 41 42
3 38 37 42
3 40 39 43
3 43 44 45
3 40 43 45
3 40 45 18
3 40 18 13
3 18 46 19
3 45 46 18
3 19 47 20
3 46 47 19
3 48 49 41
3 47 48 41
3 47 41 17
3 47 17 20
3 41 49 42
3 45 44 50
3 46 45 50
3 51 46 50
3 47 46 51
3 52 47 51
3 47 52 48
3 53 21 23
3 54 53 23
3 23 25 54
3 25 55 54
3 25 27 55
3 27 56 55
3 28 57 56
3 27 28 56
3 58 29 31
3 59 58 31
3 31 53 59
3 21 53 31
3 60 28 32
3 57 28 60
3 34 61 60
3 32 34 60
3 35 29 62
3 62 29 58
3 38 63 34
3 63 61 34
3 39 35 64
3 64 35 62
3 42 65 38
3 65 63 38
3 66 43 39
3 64 66 39
3 44 66 67
3 43 66 44
3 68 49 48
3 69 49 68
3 49 69 65
3 42 49 65
3 70 50 44
3 67 70 44
3 50 70 51
3 51 70 71
3 51 71 52
3 52 71 72
3 52 72 68
3 48 52 68
3 73 53 54
3 74 73 54
3 54 55 74
3 55 75 74
3 55 56 75
3 56 76 75
3 57 77 76
3 56 57 76
3 78 58 59
3 79 78 59
3 59 73 79
3 53 73 59
3 80 57 60
3 77 57 80
3 61 81 80
3 60 61 80
3 62 58 82
3 82 58 78
3 63 83 61
3 83 81 61
3 64 62 84
3 84 62 82
3 65 85 63
3 85 83 63
3 86 66 64
3 84 86 64
3 67 86 87
3 66 86 67
3 88 69 68
3 89 69 88
3 69 89 85
3 65 69 85
3 90 70 67
3 87 90 67
3 70 90 71
3 71 90 91
3 71 91 72
3 72 91 92
3 72 92 88
3 68 72 88
3 73 74 93
3 74 75 94
3 93 74 94
3 75 76 95
3 94 75 95
3 76 77 95
3 78 79 96
3 97 93 98
3 96 93 97
3 96 73 93
3 96 79 73
3 94 98 93
3 99 98 94
3 95 99 94
3 100 99 95
3 100 101 102
3 95 101 100
3 95 80 101
3 95 77 80
3 80 81 101
3 82 78 96
3 103 82 96
3 96 104 103
3 97 104 96
3 102 105 106
3 101 105 102
3 105 101 81
3 83 105 81
3 84 82 103
3 107 84 103
3 103 108 107
3 104 108 103
3 106 109 110
3 105 109 106
3 109 105 83
3 85 109 83
3 86 84 107
3 107 108 111
3 86 107 111
3 86 111 112
3 86 112 87
3 112 113 114
3 111 113 112
3 114 115 116
3 113 115 114
3 89 110 109
3 88 110 89
3 88 115 110
3 88 116 115
3 89 109 85
3 90 87 112
3 91 90 112
3 114 91 112
3 92 91 114
3 116 92 114
3 92 116 88
3 97 98 117
3 98 99 118
3 117 98 118
3 99 100 119
3 118 99 119
3 100 102 119
3 104 97 117
3 120 104 117
3 120 117 121
3 117 118 121
3 121 118 122
3 118 119 122
3 122 119 102
3 106 122 102
3 108 104 120
3 123 108 120
3 123 120 124
3 120 121 124
3 124 121 125
3 121 122 125
3 125 122 106
3 110 125 106
3 111 108 123
3 113 111 123
3 124 113 123
3 115 113 124
3 125 115 124
3 115 125 110
