ply
format ascii 1.0
comment VCGLIB generated
element vertex 126
property float x
property float y
property float z
element face 248
property list uchar int vertex_indices
end_header
-0.185906723141670227 0.249008342623710632 -0.441014766693115234
-0.177399948239326477 0.15457877516746521 -0.523680210113525391
-0.283971160650253296 0.170518621802330017 -0.445371299982070923
-0.13671875 -0.0280728805810213089 -0.393583446741104126
-0.181863144040107727 0.0209117066115140915 -0.316216945648193359
-0.0223630275577306747 -0.161768898367881775 -0.242172554135322571
-0.067228950560092926 -0.066362433135509491 -0.161748245358467102
-0.0160547886043787003 -0.200536146759986877 -0.167361095547676086
0.03338623046875 0.23247838020324707 -0.40618482232093811
0.041156768798828125 0.130226954817771912 -0.449954837560653687
0.0551122017204761505 -0.100059784948825836 -0.45962873101234436
-0.00369008374400436878 -0.342096418142318726 -0.315948158502578735
-0.110974632203578949 -0.49767032265663147 -0.187643840909004211
0.256563812494277954 0.209135130047798157 -0.375429153442382812
0.23896026611328125 0.107612393796443939 -0.339661449193954468
0.2321014404296875 -0.123461373150348663 -0.359966129064559937
0.19916534423828125 -0.392964005470275879 -0.308526992797851562
0.102536521852016449 -0.572778642177581787 -0.195043876767158508
0.349862426519393921 0.111033588647842407 -0.346208423376083374
0.320526123046875 -0.132299989461898804 -0.328499317169189453
0.232995346188545227 -0.41161501407623291 -0.25886806845664978
-0.432076781988143921 0.289716988801956177 -0.225379779934883118
-0.3968505859375 0.197920918464660645 -0.305277347564697266
-0.369325011968612671 0.212707296013832092 -0.197395637631416321
-0.350788116455078125 -0.000625909597147256136 -0.253538936376571655
-0.354043334722518921 -0.00160916068125516176 -0.149985626339912415
-0.188121795654296875 -0.141481176018714905 -0.28145599365234375
-0.198207855224609375 -0.167092859745025635 -0.165905475616455078
-0.266671508550643921 -0.23933333158493042 -0.220177173614501953
-0.216574355959892273 0.459815233945846558 -0.252772331237792969
-0.202850341796875 0.394522637128829956 -0.343636363744735718
-0.290148407220840454 0.382949739694595337 -0.229918166995048523
-0.142031356692314148 -0.379295557737350464 -0.168323203921318054
-0.124533332884311676 -0.294301658868789673 -0.0474960021674633026
-0.067761741578578949 -0.306383669376373291 -0.187444522976875305
0.00519688939675688744 0.449194639921188354 -0.21808449923992157
0.0220286045223474503 0.38854488730430603 -0.308088928461074829
0.00690460205078125 -0.428307294845581055 0.014469146728515625
0.065204620361328125 -0.36960911750793457 -0.16874520480632782
0.208543136715888977 0.385249942541122437 -0.178030326962471008
0.245862320065498352 0.360977262258529663 -0.275146961212158203
0.0385894775390625 -0.57702869176864624 -0.148378536105155945
0.011383056640625 -0.567096889019012451 -0.075239814817905426
0.307164520025253296 0.370276659727096558 -0.148498058319091797
0.410840362310409546 0.23425610363483429 -0.102246761322021484
0.420641571283340454 0.119598366320133209 -0.177228450775146484
0.393491119146347046 -0.104717135429382324 -0.158590003848075867
0.272312164306640625 -0.320100992918014526 -0.12734811007976532
0.276723235845565796 -0.41878819465637207 -0.0439745597541332245
0.1361083984375 -0.537066876888275146 -0.0857249870896339417
0.41213226318359375 0.131026849150657654 -0.0720477104187011719
0.4010009765625 -0.0920735523104667664 -0.0469264984130859375
0.350930541753768921 -0.311316639184951782 -0.028575897216796875
-0.445353180170059204 0.298422008752822876 0.00908788014203310013
-0.340714782476425171 0.272000998258590698 0.0253014564514160156
-0.312114715576171875 0.0799039080739021301 0.0347415618598461151
-0.348103851079940796 -0.131122156977653503 -3.5127002774970606e-05
-0.332562774419784546 -0.250551372766494751 0.00969139765948057175
-0.274503082036972046 0.509597182273864746 -0.0205340385437011719
-0.294256836175918579 0.399753183126449585 -0.00728098535910248756
-0.157677963376045227 -0.25202217698097229 0.0301946010440587997
-0.094483695924282074 -0.347332149744033813 0.0255535449832677841
-0.07416534423828125 0.430241614580154419 0.0107510881498456001
0.090236663818359375 -0.262671560049057007 0.0650083199143409729
0.124720253050327301 0.311165064573287964 0.0230612754821777344
-0.0368754081428050995 -0.480844169855117798 0.115867294371128082
0.216893509030342102 0.370533794164657593 0.0632842406630516052
0.353356689214706421 0.266802281141281128 0.118111766874790192
0.156380966305732727 -0.357608050107955933 0.13560660183429718
0.0560785941779613495 -0.579053759574890137 0.0908098220825195312
0.294403076171875 0.173824861645698547 0.108724437654018402
0.239672347903251648 -0.0448029674589633942 0.0977392196655273438
0.186354324221611023 -0.263064354658126831 0.0966056212782859802
-0.451482146978378296 0.322506994009017944 0.236610248684883118
-0.385649353265762329 0.260801434516906738 0.267328411340713501
-0.40874481201171875 0.0772922635078430176 0.236417770385742188
-0.383654266595840454 -0.124793268740177155 0.226797416806221008
-0.35564422607421875 -0.23456282913684845 0.228772804141044617
-0.273214966058731079 0.507361412048339844 0.218005344271659851
-0.294127136468887329 0.416352361440658569 0.230649784207344055
-0.175445556640625 -0.243237555027008057 0.249222919344902039
-0.1573333740234375 -0.314008563756942749 0.202291324734687805
-0.162545517086982727 0.319136947393417358 0.199485138058662415
0.0107129411771893501 -0.221294417977333069 0.30760607123374939
0.04743194580078125 0.245823606848716736 0.229460075497627258
0.196773529052734375 -0.38731992244720459 0.327791213989257812
0.108248390257358551 0.335811257362365723 0.257545948028564453
0.257471710443496704 0.279552459716796875 0.32630157470703125
0.26065826416015625 -0.384796828031539917 0.325441688299179077
0.142116546630859375 -0.337407678365707397 0.232462570071220398
0.258199065923690796 0.171050265431404114 0.323891639709472656
0.274205535650253296 -0.0503718703985214233 0.315214157104492188
0.20970916748046875 -0.264942258596420288 0.326014190912246704
-0.445135742425918579 0.235340163111686707 0.358000427484512329
-0.408373504877090454 0.0210914909839630127 0.341750144958496094
-0.377646118402481079 -0.159460052847862244 0.345461040735244751
-0.293215423822402954 0.517653524875640869 0.336408138275146484
-0.177959442138671875 0.341218739748001099 0.334665775299072266
-0.306162506341934204 0.301107615232467651 0.42627367377281189
-0.34127044677734375 0.0748403668403625488 0.511343300342559814
-0.232415512204170227 -0.0562798976898193359 0.354122161865234375
-0.094371795654296875 -0.18888169527053833 0.172668620944023132
-0.195048019289970398 -0.168925821781158447 0.283609867095947266
-0.206849411129951477 0.311850190162658691 0.323152393102645874
-0.220812484622001648 0.28119388222694397 0.541064739227294922
0.030200958251953125 -0.337003231048583984 0.327177524566650391
-0.0613606758415699005 -0.268890589475631714 0.453841209411621094
0.00255584716796875 0.269404113292694092 0.311342865228652954
0.0265706386417150497 0.25327417254447937 0.500039637088775635
0.229404449462890625 -0.277082353830337524 0.3506317138671875
0.107594810426235199 -0.129963859915733337 0.426983356475830078
0.130705520510673523 0.149957671761512756 0.503416478633880615
0.284329742193222046 0.182226434350013733 0.418348938226699829
0.182749435305595398 -0.0352941937744617462 0.56346970796585083
0.292118072509765625 -0.0448419786989688873 0.417836517095565796
0.107878364622592926 -0.23774266242980957 0.511456549167633057
0.264664977788925171 -0.270452499389648438 0.41393694281578064
-0.275042206048965454 0.248423874378204346 0.316265106201171875
-0.254244476556777954 0.0709216520190238953 0.489843696355819702
-0.262114197015762329 -0.142170920968055725 0.398062705993652344
-0.185894012451171875 0.185305401682853699 0.525407373905181885
-0.086629234254360199 0.00586764747276902199 0.386190891265869141
-0.0574315376579761505 -0.18457484245300293 0.493233680725097656
0.0396258048713207245 0.192800208926200867 0.544068992137908936
0.097270965576171875 0.00510015292093157768 0.499895572662353516
0.169169113039970398 -0.197351053357124329 0.437393516302108765
3 0 1 2
3 1 3 4
3 2 1 4
3 3 5 6
3 4 3 6
3 5 7 6
3 0 8 9
3 1 0 9
3 9 10 1
3 1 10 3
3 10 11 3
3 3 11 5
3 5 11 12
3 7 5 12
3 8 13 14
3 9 8 14
3 14 15 9
3 9 15 10
3 15 16 10
3 10 16 11
3 11 16 17
3 12 11 17
3 14 13 18
3 15 14 18
3 19 15 18
3 16 15 19
3 20 16 19
3 16 20 17
3 21 22 23
3 22 24 25
3 23 22 25
3 24 26 27
3 25 24 27
3 26 28 27
3 29 30 31
3 2 22 21
3 0 2 21
3 0 21 31
3 0 31 30
3 4 22 2
3 24 22 4
3 6 24 4
3 26 24 6
3 26 32 28
3 6 32 26
3 6 33 32
3 6 7 33
3 33 34 32
3 29 35 36
3 30 29 36
3 36 0 30
3 8 0 36
3 12 33 7
3 37 33 12
3 33 37 38
3 34 33 38
3 35 39 40
3 36 35 40
3 40 8 36
3 13 8 40
3 17 37 12
3 41 37 17
3 37 41 42
3 38 37 42
3 40 39 43
3 43 44 45
3 40 43 45
3 40 45 18
3 40 18 13
3 18 46 19
3 45 46 18
3 19 47 20
3 46 47 19
3 48 49 41
3 47 48 41
3 47 41 17
3 47 17 20
3 41 49 42
3 45 44 50
3 46 45 50
3 51 46 50
3 47 46 51
3 52 47 51
3 47 52 48
3 53 21 23
3 54 53 23
3 23 25 54
3 25 55 54
3 25 27 55
3 27 56 55
3 28 57 56
3 27 28 56
3 58 29 31
3 59 58 31
3 31 53 59
3 21 53 31
3 60 28 32
3 57 28 60
3 34 61 60
3 32 34 60
3 35 29 62
3 62 29 58
3 38 63 34
3 63 61 34
3 39 35 64
3 64 35 62
3 42 65 38
3 65 63 38
3 66 43 39
3 64 66 39
3 44 66 67
3 43 66 44
3 68 49 48
3 69 49 68
3 49 69 65
3 42 49 65
3 70 50 44
3 67 70 44
3 50 70 51
3 51 70 71
3 51 71 52
3 52 71 72
3 52 72 68
3 48 52 68
3 73 53 54
3 74 73 54
3 54 55 74
3 55 75 74
3 55 56 75
3 56 76 75
3 57 77 76
3 56 57 76
3 78 58 59
3 79 78 59
3 59 73 79
3 53 73 59
3 80 57 60
3 77 57 80
3 61 81 80
3 60 61 80
3 62 58 82
3 82 58 78
3 63 83 61
3 83 81 61
3 64 62 84
3 84 62 82
3 65 85 63
3 85 83 63
3 86 66 64
3 84 86 64
3 67 86 87
3 66 86 67
3 88 69 68
3 89 69 88
3 69 89 85
3 65 69 85
3 90 70 67
3 87 90 67
3 70 90 71
3 71 90 91
3 71 91 72
3 72 91 92
3 72 92 88
3 68 72 88
3 73 74 93
3 74 75 94
3 93 74 94
3 75 76 95
3 94 75 95
3 76 77 95
3 78 79 96
3 97 93 98
3 96 93 97
3 96 73 93
3 96 79 73
3 94 98 93
3 99 98 94
3 95 99 94
3 100 99 95
3 100 101 102
3 95 101 100
3 95 80 101
3 95 77 80
3 80 81 101
3 82 78 96
3 103 82 96
3 96 104 103
3 97 104 96
3 102 105 106
3 101 105 102
3 105 101 81
3 83 105 81
3 84 82 103
3 107 84 103
3 103 108 107
3 104 108 103
3 106 109 110
3 105 109 106
3 109 105 83
3 85 109 83
3 86 84 107
3 107 108 111
3 86 107 111
3 86 111 112
3 86 112 87
3 112 113 114
3 111 113 112
3 114 115 116
3 113 115 114
3 89 110 109
3 88 110 89
3 88 115 110
3 88 116 115
3 89 109 85
3 90 87 112
3 91 90 112
3 114 91 112
3 92 91 114
3 116 92 114
3 92 116 88
3 97 98 117
3 98 99 118
3 117 98 118
3 99 100 119
3 118 99 119
3 100 102 119
3 104 97 117
3 120 104 117
3 120 117 121
3 117 118 121
3 121 118 122
3 118 119 122
3 122 119 102
3 106 122 102
3 108 104 120
3 123 108 120
3 123 120 124
3 120 121 124
3 124 121 125
3 121 122 125
3 125 122 106
3 110 125 106
3 111 108 123
3 113 111 123
3 124 113 123
3 115 113 124
3 125 115 124
3 115 125 110
