ply
format ascii 1.0
comment VCGLIB generated
element vertex 126
property float x
property float y
property float z
element face 248
property list uchar int vertex_indices
end_header
-0.395416259765625 0.234647035598754883 -0.452383518218994141
-0.362681061029434204 0.126633241772651672 -0.526676177978515625
-0.451445251703262329 0.0890643000602722168 -0.484858036041259766
-0.292888641357421875 -0.0749124959111213684 -0.489527702331542969
-0.342295318841934204 -0.103654623031616211 -0.401660919189453125
-0.140772506594657898 -0.04822506383061409 -0.326111316680908203
-0.210097000002861023 0.0149672776460647583 -0.26703914999961853
-0.1394805908203125 -0.0972427427768707275 -0.226466819643974304
-0.185063675045967102 0.268661797046661377 -0.403826862573623657
-0.146251678466796875 0.202871605753898621 -0.524884521961212158
-0.080930076539516449 -0.0212614256888628006 -0.504865348339080811
-0.0345904044806957245 -0.229457125067710876 -0.421513229608535767
-0.0348294563591480255 -0.27206575870513916 -0.320820331573486328
0.0277086887508630753 0.312719136476516724 -0.372030735015869141
0.066075645387172699 0.261286765336990356 -0.462888568639755249
0.109180450439453125 0.045629505068063736 -0.418422698974609375
0.179248809814453125 -0.166568100452423096 -0.397469997406005859
0.189990997314453125 -0.250911802053451538 -0.326698631048202515
0.161553695797920227 0.291225045919418335 -0.401503413915634155
0.213108062744140625 0.0767607167363166809 -0.40843692421913147
0.26647186279296875 -0.134232625365257263 -0.346040248870849609
-0.607373535633087158 0.141231909394264221 -0.243896797299385071
-0.517072021961212158 0.107055969536304474 -0.347235530614852905
-0.50504302978515625 0.10056430846452713 -0.239622116088867188
-0.469148010015487671 -0.0949901938438415527 -0.256247997283935547
-0.379423767328262329 -0.0808743759989738464 -0.250207751989364624
-0.220361068844795227 -0.159454122185707092 -0.263886302709579468
-0.234434768557548523 -0.197831317782402039 -0.166427299380302429
-0.138945266604423523 -0.192535623908042908 -0.151993915438652039
-0.431017547845840454 0.228549003601074219 -0.128278091549873352
-0.412029266357421875 0.280623733997344971 -0.244876697659492493
-0.535296142101287842 0.284430593252182007 -0.214356586337089539
-0.1751556396484375 -0.115042783319950104 -0.00546884536743164062
-0.0565503425896167755 -0.127611428499221802 -0.0741427764296531677
-0.135130569338798523 -0.187424853444099426 -0.105575881898403168
-0.198872879147529602 0.233616217970848083 -0.0741435661911964417
-0.222287490963935852 0.311878114938735962 -0.184352710843086243
-0.021816253662109375 -0.336903810501098633 -0.149819061160087585
0.000301361083984375 -0.365151971578598022 -0.0486195869743824005
-0.0558064766228199005 0.374900311231613159 -0.0859538689255714417
-0.0138867693021893501 0.343614786863327026 -0.193918868899345398
0.200993850827217102 -0.349604129791259766 -0.183468177914619446
0.216672256588935852 -0.331424146890640259 -0.0853490829467773438
0.053554534912109375 0.440023690462112427 -0.1642303466796875
0.201604202389717102 0.36688801646232605 -0.153783634305000305
0.273900359869003296 0.275339454412460327 -0.257218033075332642
0.197170257568359375 0.0576368160545825958 -0.239242389798164368
0.368961334228515625 -0.0777504295110702515 -0.214462444186210632
0.410402923822402954 -0.181002244353294373 -0.136422157287597656
0.320957183837890625 -0.328385859727859497 -0.102625846862792969
0.269803375005722046 0.273557931184768677 -0.138837501406669617
0.183938339352607727 0.0709158256649971008 -0.134119033813476562
0.314334869384765625 -0.114103883504867554 -0.125626564025878906
-0.656375885009765625 0.161588862538337708 -0.0187414493411779404
-0.588666260242462158 0.045640602707862854 -0.0412422828376293182
-0.367490142583847046 0.0688938796520233154 -0.0949702262878417969
-0.354921966791152954 -0.145317420363426208 0.00261990237049758434
-0.266963958740234375 -0.22548617422580719 0.0474883727729320526
-0.385807037353515625 0.298211365938186646 0.0804963111877441406
-0.546854674816131592 0.336649328470230103 0.00987402629107236862
-0.080996192991733551 -0.29179111123085022 0.108754314482212067
-0.193393707275390625 -0.264053851366043091 0.10909668356180191
-0.224068954586982727 0.101946443319320679 0.135984420776367188
0.0166918430477380753 -0.320114046335220337 0.168939754366874695
0.00714238500222563744 0.281725019216537476 0.158415630459785461
0.257345825433731079 -0.321114987134933472 0.132307693362236023
-0.010272979736328125 0.427789360284805298 0.104359626770019531
0.111103057861328125 0.337173491716384888 0.0744353905320167542
0.429907470941543579 -0.130363836884498596 0.088803611695766449
0.367757171392440796 -0.285697966814041138 0.113535404205322266
0.223775222897529602 0.338422149419784546 0.0755298957228660583
0.213191986083984375 0.1418963223695755 0.0619136504828929901
0.372829437255859375 -0.0378601588308811188 0.0708810463547706604
-0.652689635753631592 0.173070356249809265 0.191073104739189148
-0.593764007091522217 0.13664989173412323 0.148807212710380554
-0.400122314691543579 0.151630207896232605 0.0972808226943016052
-0.244149520993232727 -0.00843847636133432388 0.13043975830078125
-0.164203643798828125 -0.0335382707417011261 0.0569251365959644318
-0.411975860595703125 0.353140026330947876 0.260418087244033813
-0.574576079845428467 0.34470483660697937 0.218171760439872742
-0.0226376857608556747 -0.0887679830193519592 0.147631332278251648
-0.119784034788608551 -0.0565425269305706024 0.155014351010322571
-0.243450164794921875 0.199194133281707764 0.360299259424209595
0.018024444580078125 -0.120232224464416504 0.298493713140487671
0.00390370679087936878 0.242190375924110413 0.375395774841308594
0.243962600827217102 -0.159959867596626282 0.293302685022354126
-0.0537923164665699005 0.377732396125793457 0.368374824523925781
0.074228920042514801 0.431897968053817749 0.254752010107040405
0.424414306879043579 -0.0334621928632259369 0.296639293432235718
0.330706268548965454 -0.204019263386726379 0.299172401428222656
0.19223785400390625 0.400191694498062134 0.290454864501953125
0.325129181146621704 0.258405447006225586 0.196422740817070007
0.454305022954940796 0.0959325507283210754 0.241245269775390625
-0.579989135265350342 0.0774122998118400574 0.252429813146591187
-0.365420013666152954 0.0906096100807189941 0.169814586639404297
-0.2901611328125 -0.0736604258418083191 0.0388814620673656464
-0.460657745599746704 0.359925627708435059 0.321257740259170532
-0.411004394292831421 0.244743451476097107 0.435761123895645142
-0.462032318115234375 0.135921642184257507 0.389187335968017578
-0.242028549313545227 0.138279899954795837 0.251259177923202515
-0.325099945068359375 -0.0654278174042701721 0.209553077816963196
-0.067072547972202301 0.0327223092317581177 0.200445011258125305
-0.243499755859375 0.0184380356222391129 0.280490726232528687
-0.21949005126953125 0.336844533681869507 0.32715335488319397
-0.17508697509765625 0.274767279624938965 0.468750476837158203
0.027332305908203125 -0.0290827546268701553 0.364488601684570312
-0.094722747802734375 -0.139988645911216736 0.325524181127548218
0.0192807521671056747 0.409609287977218628 0.398426204919815063
0.080094657838344574 0.320167958736419678 0.365156322717666626
0.222600296139717102 -0.135611265897750854 0.388267993927001953
0.117978416383266449 -0.0279168654233217239 0.296563297510147095
0.125414535403251648 0.308785855770111084 0.187802627682685852
0.185170486569404602 0.449008345603942871 0.227650001645088196
0.286190032958984375 0.32240062952041626 0.0297500286251306534
0.417257934808731079 0.324247837066650391 0.21809832751750946
0.216823577880859375 0.0847334936261177063 0.17423565685749054
0.384351104497909546 0.110945425927639008 0.336557716131210327
-0.366888672113418579 0.197491586208343506 0.336330562829971313
-0.239594772458076477 0.108762376010417938 0.341245651245117188
-0.355822235345840454 -0.0634218752384185791 0.310427188873291016
-0.115430198609828949 0.263945192098617554 0.356209427118301392
0.00659942626953125 0.0782602354884147644 0.383759498596191406
-0.130201980471611023 -0.192469283938407898 0.280573040246963501
0.0227686557918787003 0.279544055461883545 0.119830131530761719
0.204335525631904602 0.299890458583831787 0.182890251278877258
0.146381378173828125 -0.107251226902008057 0.282930374145507812
3 0 1 2
3 1 3 4
3 2 1 4
3 3 5 6
3 4 3 6
3 5 7 6
3 0 8 9
3 1 0 9
3 9 10 1
3 1 10 3
3 10 11 3
3 3 11 5
3 5 11 12
3 7 5 12
3 8 13 14
3 9 8 14
3 14 15 9
3 9 15 10
3 15 16 10
3 10 16 11
3 11 16 17
3 12 11 17
3 14 13 18
3 15 14 18
3 19 15 18
3 16 15 19
3 20 16 19
3 16 20 17
3 21 22 23
3 22 24 25
3 23 22 25
3 24 26 27
3 25 24 27
3 26 28 27
3 29 30 31
3 2 22 21
3 0 2 21
3 0 21 31
3 0 31 30
3 4 22 2
3 24 22 4
3 6 24 4
3 26 24 6
3 26 32 28
3 6 32 26
3 6 33 32
3 6 7 33
3 33 34 32
3 29 35 36
3 30 29 36
3 36 0 30
3 8 0 36
3 12 33 7
3 37 33 12
3 33 37 38
3 34 33 38
3 35 39 40
3 36 35 40
3 40 8 36
3 13 8 40
3 17 37 12
3 41 37 17
3 37 41 42
3 38 37 42
3 40 39 43
3 43 44 45
3 40 43 45
3 40 45 18
3 40 18 13
3 18 46 19
3 45 46 18
3 19 47 20
3 46 47 19
3 48 49 41
3 47 48 41
3 47 41 17
3 47 17 20
3 41 49 42
3 45 44 50
3 46 45 50
3 51 46 50
3 47 46 51
3 52 47 51
3 47 52 48
3 53 21 23
3 54 53 23
3 23 25 54
3 25 55 54
3 25 27 55
3 27 56 55
3 28 57 56
3 27 28 56
3 58 29 31
3 59 58 31
3 31 53 59
3 21 53 31
3 60 28 32
3 57 28 60
3 34 61 60
3 32 34 60
3 35 29 62
3 62 29 58
3 38 63 34
3 63 61 34
3 39 35 64
3 64 35 62
3 42 65 38
3 65 63 38
3 66 43 39
3 64 66 39
3 44 66 67
3 43 66 44
3 68 49 48
3 69 49 68
3 49 69 65
3 42 49 65
3 70 50 44
3 67 70 44
3 50 70 51
3 51 70 71
3 51 71 52
3 52 71 72
3 52 72 68
3 48 52 68
3 73 53 54
3 74 73 54
3 54 55 74
3 55 75 74
3 55 56 75
3 56 76 75
3 57 77 76
3 56 57 76
3 78 58 59
3 79 78 59
3 59 73 79
3 53 73 59
3 80 57 60
3 77 57 80
3 61 81 80
3 60 61 80
3 62 58 82
3 82 58 78
3 63 83 61
3 83 81 61
3 64 62 84
3 84 62 82
3 65 85 63
3 85 83 63
3 86 66 64
3 84 86 64
3 67 86 87
3 66 86 67
3 88 69 68
3 89 69 88
3 69 89 85
3 65 69 85
3 90 70 67
3 87 90 67
3 70 90 71
3 71 90 91
3 71 91 72
3 72 91 92
3 72 92 88
3 68 72 88
3 73 74 93
3 74 75 94
3 93 74 94
3 75 76 95
3 94 75 95
3 76 77 95
3 78 79 96
3 97 93 98
3 96 93 97
3 96 73 93
3 96 79 73
3 94 98 93
3 99 98 94
3 95 99 94
3 100 99 95
3 100 101 102
3 95 101 100
3 95 80 101
3 95 77 80
3 80 81 101
3 82 78 96
3 103 82 96
3 96 104 103
3 97 104 96
3 102 105 106
3 101 105 102
3 105 101 81
3 83 105 81
3 84 82 103
3 107 84 103
3 103 108 107
3 104 108 103
3 106 109 110
3 105 109 106
3 109 105 83
3 85 109 83
3 86 84 107
3 107 108 111
3 86 107 111
3 86 111 112
3 86 112 87
3 112 113 114
3 111 113 112
3 114 115 116
3 113 115 114
3 89 110 109
3 88 110 89
3 88 115 110
3 88 116 115
3 89 109 85
3 90 87 112
3 91 90 112
3 114 91 112
3 92 91 114
3 116 92 114
3 92 116 88
3 97 98 117
3 98 99 118
3 117 98 118
3 99 100 119
3 118 99 119
3 100 102 119
3 104 97 117
3 120 104 117
3 120 117 121
3 117 118 121
3 121 118 122
3 118 119 122
3 122 119 102
3 106 122 102
3 108 104 120
3 123 108 120
3 123 120 124
3 120 121 124
3 124 121 125
3 121 122 125
3 125 122 106
3 110 125 106
3 111 108 123
3 113 111 123
3 124 113 123
3 115 113 124
3 125 115 124
3 115 125 110
