ply
format ascii 1.0
comment VCGLIB generated
element vertex 126
property float x
property float y
property float z
element face 248
property list uchar int vertex_indices
end_header
-0.287113189697265625 0.274993211030960083 -0.596464931964874268
-0.243899032473564148 0.210546791553497314 -0.558605015277862549
-0.261381775140762329 0.257335692644119263 -0.466197341680526733
-0.215260818600654602 0.0205223876982927322 -0.48237261176109314
-0.281382232904434204 0.0421081371605396271 -0.39404645562171936
-0.219308212399482727 -0.196077838540077209 -0.429271697998046875
-0.313618987798690796 -0.17611636221408844 -0.374537616968154907
-0.172532394528388977 -0.185577452182769775 -0.327017158269882202
-0.067989349365234375 0.250986874103546143 -0.586198985576629639
-0.064220428466796875 0.184422686696052551 -0.478516250848770142
0.001728057861328125 -0.00174110138323158026 -0.476274013519287109
0.00198491406626999378 -0.217016875743865967 -0.480027198791503906
0.0108998613432049751 -0.249742031097412109 -0.381706386804580688
0.116154991090297699 0.2432975172996521 -0.478995174169540405
0.16594696044921875 0.168808236718177795 -0.526774406433105469
0.194268539547920227 -0.0390447266399860382 -0.436450153589248657
0.178225204348564148 -0.261783510446548462 -0.400812476873397827
0.182253524661064148 -0.36618959903717041 -0.34015384316444397
0.250525146722793579 0.191555783152580261 -0.431523650884628296
0.284060150384902954 -0.0539487153291702271 -0.418571621179580688
0.26300811767578125 -0.286491721868515015 -0.386521965265274048
-0.432183593511581421 0.422589391469955444 -0.348825454711914062
-0.395575195550918579 0.294931322336196899 -0.338772296905517578
-0.475382477045059204 0.319394975900650024 -0.273570865392684937
-0.4168243408203125 0.0769068673253059387 -0.302332401275634766
-0.454884856939315796 0.0967184305191040039 -0.198649242520332336
-0.408926635980606079 -0.147750243544578552 -0.24298541247844696
-0.376158386468887329 -0.109786093235015869 -0.150743171572685242
-0.370764404535293579 -0.211751818656921387 -0.123513065278530121
-0.242750808596611023 0.552472829818725586 -0.517161667346954346
-0.276508331298828125 0.456490486860275269 -0.602701842784881592
-0.31494903564453125 0.499511361122131348 -0.461906760931015015
-0.20328521728515625 -0.247392758727073669 -0.0860346183180809021
-0.151083633303642273 -0.153520986437797546 -0.163683891296386719
-0.127803802490234375 -0.170256897807121277 -0.0646170005202293396
-0.091536201536655426 0.505013048648834229 -0.446321487426757812
-0.0421841926872730255 0.43243137001991272 -0.552680492401123047
-0.087294258177280426 -0.39476478099822998 -0.242987468838691711
-0.040576934814453125 -0.356589525938034058 -0.102488361299037933
0.091156005859375 0.484921485185623169 -0.347042709589004517
0.113863624632358551 0.406057119369506836 -0.407934993505477905
0.137421920895576477 -0.431745797395706177 -0.18424813449382782
0.144916534423828125 -0.408313751220703125 -0.10245513916015625
0.186124160885810852 0.423060566186904907 -0.309840202331542969
0.300970703363418579 0.308539718389511108 -0.222058936953544617
0.336533874273300171 0.193757340312004089 -0.272037655115127563
0.370160430669784546 -0.0223145093768835068 -0.264749377965927124
0.369063049554824829 -0.228816092014312744 -0.230644538998603821
0.392136901617050171 -0.323493510484695435 -0.108297981321811676
0.2533416748046875 -0.447130918502807617 -0.0938347205519676208
0.343523651361465454 0.207072004675865173 -0.175208568572998047
0.403644561767578125 -0.0190880894660949707 -0.158353805541992188
0.411510467529296875 -0.24160437285900116 -0.137018680572509766
-0.327402740716934204 0.465411096811294556 -0.157663032412528992
-0.343203216791152954 0.36632537841796875 -0.0939974784851074219
-0.344454437494277954 0.157399386167526245 -0.000599702179897576571
-0.364846557378768921 -0.0535856038331985474 0.0693360939621925354
-0.414911895990371704 -0.148721873760223389 0.0843489989638328552
-0.262613922357559204 0.620584726333618164 -0.316890090703964233
-0.351671844720840454 0.611958563327789307 -0.22467041015625
-0.239627838134765625 -0.166811242699623108 0.120756469666957855
-0.328904479742050171 -0.265756070613861084 0.0858556404709815979
-0.113904319703578949 0.495417624711990356 -0.222287341952323914
-0.0502039603888988495 -0.40477299690246582 0.142864704132080078
0.046176910400390625 0.515206992626190186 -0.130719020962715149
0.184398651123046875 -0.41358482837677002 0.138851642608642578
0.14215087890625 0.491563707590103149 -0.0986131057143211365
0.26605987548828125 0.342871099710464478 -0.0147695541381835938
0.415477752685546875 -0.303134530782699585 0.114954948425292969
0.2525634765625 -0.336861997842788696 0.101049266755580902
0.328919738531112671 0.243151530623435974 0.022235870361328125
0.320203155279159546 0.00985080283135175705 0.0428457260131835938
0.337664276361465454 -0.219869017601013184 0.0748637542128562927
-0.413394927978515625 0.520155251026153564 0.0629288330674171448
-0.422260284423828125 0.425667554140090942 0.121855415403842926
-0.438669830560684204 0.216622784733772278 0.199805095791816711
-0.466953277587890625 0.00912445690482854843 0.263796001672744751
-0.399814605712890625 -0.0722528696060180664 0.290650039911270142
-0.230355575680732727 0.462424725294113159 -0.114952720701694489
-0.269479125738143921 0.488782793283462524 -0.0308175086975097656
-0.261236816644668579 -0.171154722571372986 0.331609249114990234
-0.24417877197265625 -0.262341946363449097 0.326870113611221313
-0.0399716682732105255 0.527800142765045166 -0.0508740730583667755
-0.0375124625861644745 -0.211456835269927979 0.294476836919784546
0.1697235107421875 0.550570070743560791 0.0197348594665527344
0.2271881103515625 -0.2222137451171875 0.322984844446182251
0.101449333131313324 0.496449083089828491 0.119539417326450348
0.194330856204032898 0.359720736742019653 0.196312427520751953
0.397046416997909546 -0.187933087348937988 0.310993820428848267
0.276574462652206421 -0.292899817228317261 0.317564636468887329
0.222227737307548523 0.253253191709518433 0.217621967196464539
0.238496139645576477 0.0300270318984985352 0.250239521265029907
0.283023834228515625 -0.1865549236536026 0.288440227508544922
-0.381792694330215454 0.469233512878417969 0.211334064602851868
-0.434851318597793579 0.251716762781143188 0.30230298638343811
-0.45440673828125 0.0208306554704904556 0.369615226984024048
-0.219977065920829773 0.361441045999526978 -0.0255298614501953125
-0.140834808349609375 0.362357825040817261 0.148949310183525085
-0.205602005124092102 0.405440062284469604 0.267648845911026001
-0.273028045892715454 0.220981553196907043 0.392349720001220703
-0.312104552984237671 0.0142569802701473236 0.480232715606689453
-0.240720108151435852 -0.244557604193687439 0.440255641937255859
-0.193578079342842102 -0.0787166282534599304 0.490574121475219727
-0.015727996826171875 0.411062091588973999 -0.00638596201315522194
0.0255063381046056747 0.248289927840232849 0.0837561264634132385
0.0223147068172693253 -0.145813331007957458 0.36033216118812561
0.0156567897647619247 0.0165678262710571289 0.344037860631942749
0.214562729001045227 0.452918648719787598 0.0541868209838867188
0.209379836916923523 0.32352718710899353 0.178579971194267273
0.211744949221611023 -0.108590543270111084 0.249497100710868835
0.143278762698173523 -0.159992143511772156 0.482976049184799194
0.305093139410018921 0.239114865660667419 0.210777118802070618
0.151018783450126648 0.269378751516342163 0.293313175439834595
0.323698669672012329 0.0449580289423465729 0.353241592645645142
0.15196990966796875 0.0387595705687999725 0.311661094427108765
0.278672546148300171 -0.0731303170323371887 0.539599359035491943
0.278624206781387329 -0.138204261660575867 0.377685219049453735
-0.141222640872001648 0.328312158584594727 0.251038223505020142
-0.169455215334892273 0.1997479647397995 0.419896125793457031
-0.216128036379814148 0.0112974978983402252 0.525026321411132812
0.00314203905873000622 0.180371299386024475 0.169847175478935242
0.0413538627326488495 0.112761028110980988 0.379170417785644531
0.01998138427734375 -0.0255255028605461121 0.526765644550323486
0.204209640622138977 0.231243252754211426 0.246123790740966797
0.224957779049873352 0.0164127107709646225 0.32000383734703064
0.206076309084892273 -0.141666755080223083 0.469855636358261108
3 0 1 2
3 1 3 4
3 2 1 4
3 3 5 6
3 4 3 6
3 5 7 6
3 0 8 9
3 1 0 9
3 9 10 1
3 1 10 3
3 10 11 3
3 3 11 5
3 5 11 12
3 7 5 12
3 8 13 14
3 9 8 14
3 14 15 9
3 9 15 10
3 15 16 10
3 10 16 11
3 11 16 17
3 12 11 17
3 14 13 18
3 15 14 18
3 19 15 18
3 16 15 19
3 20 16 19
3 16 20 17
3 21 22 23
3 22 24 25
3 23 22 25
3 24 26 27
3 25 24 27
3 26 28 27
3 29 30 31
3 2 22 21
3 0 2 21
3 0 21 31
3 0 31 30
3 4 22 2
3 24 22 4
3 6 24 4
3 26 24 6
3 26 32 28
3 6 32 26
3 6 33 32
3 6 7 33
3 33 34 32
3 29 35 36
3 30 29 36
3 36 0 30
3 8 0 36
3 12 33 7
3 37 33 12
3 33 37 38
3 34 33 38
3 35 39 40
3 36 35 40
3 40 8 36
3 13 8 40
3 17 37 12
3 41 37 17
3 37 41 42
3 38 37 42
3 40 39 43
3 43 44 45
3 40 43 45
3 40 45 18
3 40 18 13
3 18 46 19
3 45 46 18
3 19 47 20
3 46 47 19
3 48 49 41
3 47 48 41
3 47 41 17
3 47 17 20
3 41 49 42
3 45 44 50
3 46 45 50
3 51 46 50
3 47 46 51
3 52 47 51
3 47 52 48
3 53 21 23
3 54 53 23
3 23 25 54
3 25 55 54
3 25 27 55
3 27 56 55
3 28 57 56
3 27 28 56
3 58 29 31
3 59 58 31
3 31 53 59
3 21 53 31
3 60 28 32
3 57 28 60
3 34 61 60
3 32 34 60
3 35 29 62
3 62 29 58
3 38 63 34
3 63 61 34
3 39 35 64
3 64 35 62
3 42 65 38
3 65 63 38
3 66 43 39
3 64 66 39
3 44 66 67
3 43 66 44
3 68 49 48
3 69 49 68
3 49 69 65
3 42 49 65
3 70 50 44
3 67 70 44
3 50 70 51
3 51 70 71
3 51 71 52
3 52 71 72
3 52 72 68
3 48 52 68
3 73 53 54
3 74 73 54
3 54 55 74
3 55 75 74
3 55 56 75
3 56 76 75
3 57 77 76
3 56 57 76
3 78 58 59
3 79 78 59
3 59 73 79
3 53 73 59
3 80 57 60
3 77 57 80
3 61 81 80
3 60 61 80
3 62 58 82
3 82 58 78
3 63 83 61
3 83 81 61
3 64 62 84
3 84 62 82
3 65 85 63
3 85 83 63
3 86 66 64
3 84 86 64
3 67 86 87
3 66 86 67
3 88 69 68
3 89 69 88
3 69 89 85
3 65 69 85
3 90 70 67
3 87 90 67
3 70 90 71
3 71 90 91
3 71 91 72
3 72 91 92
3 72 92 88
3 68 72 88
3 73 74 93
3 74 75 94
3 93 74 94
3 75 76 95
3 94 75 95
3 76 77 95
3 78 79 96
3 97 93 98
3 96 93 97
3 96 73 93
3 96 79 73
3 94 98 93
3 99 98 94
3 95 99 94
3 100 99 95
3 100 101 102
3 95 101 100
3 95 80 101
3 95 77 80
3 80 81 101
3 82 78 96
3 103 82 96
3 96 104 103
3 97 104 96
3 102 105 106
3 101 105 102
3 105 101 81
3 83 105 81
3 84 82 103
3 107 84 103
3 103 108 107
3 104 108 103
3 106 109 110
3 105 109 106
3 109 105 83
3 85 109 83
3 86 84 107
3 107 108 111
3 86 107 111
3 86 111 112
3 86 112 87
3 112 113 114
3 111 113 112
3 114 115 116
3 113 115 114
3 89 110 109
3 88 110 89
3 88 115 110
3 88 116 115
3 89 109 85
3 90 87 112
3 91 90 112
3 114 91 112
3 92 91 114
3 116 92 114
3 92 116 88
3 97 98 117
3 98 99 118
3 117 98 118
3 99 100 119
3 118 99 119
3 100 102 119
3 104 97 117
3 120 104 117
3 120 117 121
3 117 118 121
3 121 118 122
3 118 119 122
3 122 119 102
3 106 122 102
3 108 104 120
3 123 108 120
3 123 120 124
3 120 121 124
3 124 121 125
3 121 122 125
3 125 122 106
3 110 125 106
3 111 108 123
3 113 111 123
3 124 113 123
3 115 113 124
3 125 115 124
3 115 125 110
