ply
format ascii 1.0
comment VCGLIB generated
element vertex 126
property float x
property float y
property float z
element face 248
property list uchar int vertex_indices
end_header
-0.198466971516609192 0.182385668158531189 -0.52070307731628418
-0.188833385705947876 0.0666655078530311584 -0.544405579566955566
-0.252480149269104004 0.0896808058023452759 -0.448243439197540283
-0.191403910517692566 -0.134437650442123413 -0.462304264307022095
-0.240771964192390442 -0.123641587793827057 -0.379331678152084351
-0.104549117386341095 -0.16845288872718811 -0.251292824745178223
-0.137235209345817566 -0.0868153125047683716 -0.210831359028816223
-0.107031606137752533 -0.181961163878440857 -0.135542988777160645
0.022337988018989563 0.16377846896648407 -0.506262242794036865
0.00318967388011515141 0.0582620538771152496 -0.445471197366714478
-0.0385284423828125 -0.154579639434814453 -0.341855019330978394
-0.104487493634223938 -0.377670764923095703 -0.260346323251724243
-0.061707131564617157 -0.413280099630355835 -0.174710944294929504
0.241621464490890503 0.174949377775192261 -0.477248162031173706
0.224725291132926941 0.0547204352915287018 -0.449239134788513184
0.176545664668083191 -0.16925598680973053 -0.342405050992965698
0.0876969620585441589 -0.421985626220703125 -0.263500601053237915
0.068701229989528656 -0.597228705883026123 -0.227355048060417175
0.317092329263687134 0.0618653073906898499 -0.438492506742477417
0.199078783392906189 -0.198065340518951416 -0.41197320818901062
0.132374405860900879 -0.454452931880950928 -0.293750762939453125
-0.353819042444229126 0.232492074370384216 -0.229979664087295532
-0.33746868371963501 0.119966939091682434 -0.294082731008529663
-0.418236076831817627 0.140653207898139954 -0.215573325753211975
-0.385095179080963135 -0.111992217600345612 -0.271364748477935791
-0.368342787027359009 -0.0882391408085823059 -0.167076960206031799
-0.24901464581489563 -0.28396981954574585 -0.237993106245994568
-0.343561917543411255 -0.304409056901931763 -0.135060280561447144
-0.272937208414077759 -0.390033870935440063 -0.118549972772598267
-0.156657889485359192 0.153055831789970398 -0.25274166464805603
-0.181024998426437378 0.170050010085105896 -0.350822508335113525
-0.184399545192718506 0.258749306201934814 -0.248980537056922913
-0.155038103461265564 -0.26646888256072998 -0.000403110811021178961
-0.033132113516330719 -0.160824239253997803 0.0225666854530572891
-0.085842430591583252 -0.239678561687469482 -0.0373757816851139069
0.05604524165391922 0.160163387656211853 -0.341643929481506348
0.0279221180826425552 0.264792054891586304 -0.364302873611450195
0.089425310492515564 -0.33702436089515686 -0.132299944758415222
0.080774746835231781 -0.387176424264907837 -0.0172638893127441406
0.259408235549926758 0.242135211825370789 -0.319433599710464478
0.241734445095062256 0.322286307811737061 -0.376136302947998047
0.193462371826171875 -0.571676790714263916 -0.11508776992559433
0.252161771059036255 -0.51523435115814209 -0.0484620630741119385
0.306688457727432251 0.309694230556488037 -0.246193051338195801
0.44885784387588501 0.186909765005111694 -0.204126298427581787
0.422147631645202637 0.0706243813037872314 -0.28730502724647522
0.301165968179702759 -0.128325119614601135 -0.256861001253128052
0.288812220096588135 -0.3762398362159729 -0.264488756656646729
0.390306621789932251 -0.352416157722473145 -0.153135702013969421
0.336560487747192383 -0.504790782928466797 -0.11864955723285675
0.410508394241333008 0.0883405804634094238 -0.179479867219924927
0.313628286123275757 -0.117024511098861694 -0.156466782093048096
0.300011277198791504 -0.335733652114868164 -0.169189348816871643
-0.301192373037338257 0.198893994092941284 0.00944394338876008987
-0.411721765995025635 0.187410801649093628 0.00192477158270776272
-0.426106095314025879 -0.0455894805490970612 0.0502833984792232513
-0.403286874294281006 -0.283195167779922485 0.0732616335153579712
-0.32572820782661438 -0.368123948574066162 0.0877235531806945801
-0.0237142127007246017 0.159697487950325012 -0.0783857926726341248
-0.145686224102973938 0.151582613587379456 -0.0438059307634830475
-0.130512535572052002 -0.435564935207366943 0.127006322145462036
-0.0447948165237903595 -0.375893294811248779 0.104815594851970673
0.117590978741645813 0.293956100940704346 -0.170094236731529236
0.143991619348526001 -0.331632912158966064 0.195180639624595642
0.29270172119140625 0.171903923153877258 -0.118417195975780487
0.350491464138031006 -0.407840341329574585 0.122847564518451691
0.208345562219619751 0.217866405844688416 -0.06977815181016922
0.331743687391281128 0.0856102481484413147 -0.0304088238626718521
0.40686681866645813 -0.314768791198730469 0.0890836417675018311
0.261045604944229126 -0.402907609939575195 0.0619110725820064545
0.414971590042114258 0.106278069317340851 0.0405185036361217499
0.40946081280708313 -0.135356873273849487 0.0525690987706184387
0.322919994592666626 -0.363855957984924316 0.0496558062732219696
-0.338064342737197876 0.367933213710784912 0.16538529098033905
-0.351800203323364258 0.250699400901794434 0.247418344020843506
-0.358684271574020386 -0.0049187089316546917 0.24699634313583374
-0.348499029874801636 -0.228113040328025818 0.283180952072143555
-0.317999035120010376 -0.338260620832443237 0.304162889719009399
-0.0360019393265247345 0.320286929607391357 0.0674418359994888306
-0.191166222095489502 0.32138398289680481 0.11113295704126358
-0.151760399341583252 -0.361290991306304932 0.314262300729751587
-0.0499285198748111725 -0.364542126655578613 0.350620388984680176
0.172799929976463318 0.399151325225830078 0.015021471306681633
0.096695244312286377 -0.537018001079559326 0.314527124166488647
0.298822849988937378 0.229759112000465393 0.086146138608455658
0.274407327175140381 -0.614901423454284668 0.193441659212112427
0.293053865432739258 0.334732204675674438 0.0909623801708221436
0.317762821912765503 0.182185009121894836 0.173042923212051392
0.468422830104827881 -0.464969336986541748 0.239629387855529785
0.361335486173629761 -0.6065102219581604 0.157220363616943359
0.300900399684906006 0.0906183347105979919 0.230339869856834412
0.301876068115234375 -0.141753733158111572 0.252102702856063843
0.435521066188812256 -0.344637393951416016 0.230109706521034241
-0.395138084888458252 0.391260385513305664 0.416617423295974731
-0.311390817165374756 0.0565088912844657898 0.339380234479904175
-0.335489422082901001 -0.201843500137329102 0.381219387054443359
-0.094289049506187439 0.402853786945343018 0.117007039487361908
-0.102923467755317688 0.274432659149169922 0.196226015686988831
-0.188240647315979004 0.248580604791641235 0.279194414615631104
-0.123088546097278595 -0.0231517180800437927 0.283219456672668457
-0.217951267957687378 -0.22293756902217865 0.239981696009635925
-0.128658011555671692 -0.461297273635864258 0.35994604229927063
-0.172082468867301941 -0.356574445962905884 0.227500304579734802
0.108142271637916565 0.35073813796043396 -0.0385449491441249847
0.094798162579536438 0.190586254000663757 -0.00604005996137857437
0.0222719646990299225 -0.577084958553314209 0.227625191211700439
-0.00362102803774178028 -0.43648761510848999 0.106636017560958862
0.205773577094078064 0.240533366799354553 0.13693314790725708
0.34149169921875 0.169516101479530334 0.0349519811570644379
0.199005424976348877 -0.66590505838394165 0.135268256068229675
0.169416576623916626 -0.459380120038986206 0.20130176842212677
0.389254659414291382 0.0402782484889030457 0.0350924655795097351
0.408900350332260132 0.0922755226492881775 0.209944441914558411
0.353359818458557129 -0.167024150490760803 0.13600863516330719
0.391081303358078003 -0.112428173422813416 0.304519772529602051
0.232263714075088501 -0.343082070350646973 0.253404289484024048
0.397613257169723511 -0.352457761764526367 0.32005879282951355
-0.100725620985031128 0.176758572459220886 0.130427807569503784
-0.121181197464466095 -0.0359551236033439636 0.171038195490837097
-0.126455754041671753 -0.26326259970664978 0.221847757697105408
0.091448567807674408 0.103396378457546234 0.0459582991898059845
0.072008281946182251 -0.0984751060605049133 0.0964197814464569092
0.0308344922959804535 -0.323370873928070068 0.0903281867504119873
0.306666463613510132 0.0870668888092041016 0.0842369571328163147
0.281872391700744629 -0.120419099926948547 0.185592368245124817
0.235732167959213257 -0.357809275388717651 0.158942297101020813
3 0 1 2
3 1 3 4
3 2 1 4
3 3 5 6
3 4 3 6
3 5 7 6
3 0 8 9
3 1 0 9
3 9 10 1
3 1 10 3
3 10 11 3
3 3 11 5
3 5 11 12
3 7 5 12
3 8 13 14
3 9 8 14
3 14 15 9
3 9 15 10
3 15 16 10
3 10 16 11
3 11 16 17
3 12 11 17
3 14 13 18
3 15 14 18
3 19 15 18
3 16 15 19
3 20 16 19
3 16 20 17
3 21 22 23
3 22 24 25
3 23 22 25
3 24 26 27
3 25 24 27
3 26 28 27
3 29 30 31
3 2 22 21
3 0 2 21
3 0 21 31
3 0 31 30
3 4 22 2
3 24 22 4
3 6 24 4
3 26 24 6
3 26 32 28
3 6 32 26
3 6 33 32
3 6 7 33
3 33 34 32
3 29 35 36
3 30 29 36
3 36 0 30
3 8 0 36
3 12 33 7
3 37 33 12
3 33 37 38
3 34 33 38
3 35 39 40
3 36 35 40
3 40 8 36
3 13 8 40
3 17 37 12
3 41 37 17
3 37 41 42
3 38 37 42
3 40 39 43
3 43 44 45
3 40 43 45
3 40 45 18
3 40 18 13
3 18 46 19
3 45 46 18
3 19 47 20
3 46 47 19
3 48 49 41
3 47 48 41
3 47 41 17
3 47 17 20
3 41 49 42
3 45 44 50
3 46 45 50
3 51 46 50
3 47 46 51
3 52 47 51
3 47 52 48
3 53 21 23
3 54 53 23
3 23 25 54
3 25 55 54
3 25 27 55
3 27 56 55
3 28 57 56
3 27 28 56
3 58 29 31
3 59 58 31
3 31 53 59
3 21 53 31
3 60 28 32
3 57 28 60
3 34 61 60
3 32 34 60
3 35 29 62
3 62 29 58
3 38 63 34
3 63 61 34
3 39 35 64
3 64 35 62
3 42 65 38
3 65 63 38
3 66 43 39
3 64 66 39
3 44 66 67
3 43 66 44
3 68 49 48
3 69 49 68
3 49 69 65
3 42 49 65
3 70 50 44
3 67 70 44
3 50 70 51
3 51 70 71
3 51 71 52
3 52 71 72
3 52 72 68
3 48 52 68
3 73 53 54
3 74 73 54
3 54 55 74
3 55 75 74
3 55 56 75
3 56 76 75
3 57 77 76
3 56 57 76
3 78 58 59
3 79 78 59
3 59 73 79
3 53 73 59
3 80 57 60
3 77 57 80
3 61 81 80
3 60 61 80
3 62 58 82
3 82 58 78
3 63 83 61
3 83 81 61
3 64 62 84
3 84 62 82
3 65 85 63
3 85 83 63
3 86 66 64
3 84 86 64
3 67 86 87
3 66 86 67
3 88 69 68
3 89 69 88
3 69 89 85
3 65 69 85
3 90 70 67
3 87 90 67
3 70 90 71
3 71 90 91
3 71 91 72
3 72 91 92
3 72 92 88
3 68 72 88
3 73 74 93
3 74 75 94
3 93 74 94
3 75 76 95
3 94 75 95
3 76 77 95
3 78 79 96
3 97 93 98
3 96 93 97
3 96 73 93
3 96 79 73
3 94 98 93
3 99 98 94
3 95 99 94
3 100 99 95
3 100 101 102
3 95 101 100
3 95 80 101
3 95 77 80
3 80 81 101
3 82 78 96
3 103 82 96
3 96 104 103
3 97 104 96
3 102 105 106
3 101 105 102
3 105 101 81
3 83 105 81
3 84 82 103
3 107 84 103
3 103 108 107
3 104 108 103
3 106 109 110
3 105 109 106
3 109 105 83
3 85 109 83
3 86 84 107
3 107 108 111
3 86 107 111
3 86 111 112
3 86 112 87
3 112 113 114
3 111 113 112
3 114 115 116
3 113 115 114
3 89 110 109
3 88 110 89
3 88 115 110
3 88 116 115
3 89 109 85
3 90 87 112
3 91 90 112
3 114 91 112
3 92 91 114
3 116 92 114
3 92 116 88
3 97 98 117
3 98 99 118
3 117 98 118
3 99 100 119
3 118 99 119
3 100 102 119
3 104 97 117
3 120 104 117
3 120 117 121
3 117 118 121
3 121 118 122
3 118 119 122
3 122 119 102
3 106 122 102
3 108 104 120
3 123 108 120
3 123 120 124
3 120 121 124
3 124 121 125
3 121 122 125
3 125 122 106
3 110 125 106
3 111 108 123
3 113 111 123
3 124 113 123
3 115 113 124
3 125 115 124
3 115 125 110
