ply
format ascii 1.0
comment VCGLIB generated
element vertex 126
property float x
property float y
property float z
element face 248
property list uchar int vertex_indices
end_header
-0.120597571134567261 0.220975324511528015 -0.448093920946121216
-0.159726828336715698 0.137394323945045471 -0.421787858009338379
-0.245518013834953308 0.107346020638942719 -0.45095360279083252
-0.155797690153121948 -0.0899633318185806274 -0.43160286545753479
-0.261385798454284668 -0.122533410787582397 -0.379656046628952026
-0.183594569563865662 -0.279103547334671021 -0.351321518421173096
-0.27702060341835022 -0.308996796607971191 -0.463251233100891113
-0.150436669588088989 -0.381921321153640747 -0.424694329500198364
0.0519439168274402618 0.213597223162651062 -0.312751203775405884
0.0876849070191383362 0.111462041735649109 -0.335434854030609131
0.0395175404846668243 -0.0779692083597183228 -0.410059690475463867
0.0416782945394515991 -0.309856683015823364 -0.426882177591323853
0.0692531019449234009 -0.364938467741012573 -0.341401606798171997
0.220366895198822021 0.28685876727104187 -0.447265416383743286
0.230464935302734375 0.156993791460990906 -0.489960581064224243
0.282184064388275146 -0.0878326371312141418 -0.426572412252426147
0.27402198314666748 -0.278259396553039551 -0.307147681713104248
0.275869369506835938 -0.376681238412857056 -0.348944485187530518
0.289918363094329834 0.170925170183181763 -0.409269183874130249
0.399120897054672241 -0.062869727611541748 -0.404053092002868652
0.309497296810150146 -0.275956571102142334 -0.369125962257385254
-0.387597769498825073 0.27159544825553894 -0.309918105602264404
-0.39069858193397522 0.131754696369171143 -0.407083034515380859
-0.36568915843963623 0.153767406940460205 -0.297457665205001831
-0.407014578580856323 -0.0705728828907012939 -0.362776517868041992
-0.36758151650428772 -0.0667259395122528076 -0.259565621614456177
-0.348145633935928345 -0.267936289310455322 -0.343015551567077637
-0.314645767211914062 -0.281807184219360352 -0.240630760788917542
-0.334708362817764282 -0.374212771654129028 -0.226557433605194092
-0.195263460278511047 0.411491096019744873 -0.25496143102645874
-0.172848016023635864 0.373923242092132568 -0.38558533787727356
-0.280590057373046875 0.427797645330429077 -0.314177960157394409
-0.186035975813865662 -0.3525104820728302 -0.1606159508228302
-0.142959862947463989 -0.399412572383880615 -0.254023939371109009
-0.0817230790853500366 -0.374367028474807739 -0.193261593580245972
0.0193119049072265625 0.448060482740402222 -0.190222948789596558
0.0229181572794914246 0.431366264820098877 -0.303817480802536011
0.02590179443359375 -0.36998283863067627 -0.186288535594940186
0.0922952368855476379 -0.279059469699859619 -0.158334463834762573
0.189010083675384521 0.455202966928482056 -0.238875150680541992
0.262558817863464355 0.428107768297195435 -0.33435821533203125
0.226093024015426636 -0.429079890251159668 -0.201890990138053894
0.268682748079299927 -0.421076089143753052 -0.0864415541291236877
0.301486432552337646 0.448521286249160767 -0.222069710493087769
0.402605891227722168 0.279288500547409058 -0.206620186567306519
0.423197060823440552 0.193023562431335449 -0.292162060737609863
0.460342675447463989 -0.0124099217355251312 -0.250896573066711426
0.496277123689651489 -0.268142908811569214 -0.218595951795578003
0.442897260189056396 -0.316606432199478149 -0.119396619498729706
0.337191998958587646 -0.420959740877151489 -0.152096927165985107
0.443346858024597168 0.175474345684051514 -0.16711542010307312
0.369176864624023438 -0.00771356374025344849 -0.142425984144210815
0.388415217399597168 -0.251220881938934326 -0.150748148560523987
-0.450346827507019043 0.300098299980163574 -0.102857016026973724
-0.359136044979095459 0.186725810170173645 -0.10455012321472168
-0.390323907136917114 -0.0119663514196872711 -0.063038557767868042
-0.355202823877334595 -0.226858198642730713 0.0189002919942140579
-0.367400318384170532 -0.32140737771987915 -0.0199590418487787247
-0.226244255900382996 0.423085659742355347 -0.052390269935131073
-0.368025660514831543 0.403551608324050903 -0.114678144454956055
-0.220553532242774963 -0.301403611898422241 0.0382452346384525299
-0.14854295551776886 -0.373848944902420044 -0.00341381342150270939
-0.110307425260543823 0.596802771091461182 0.0167087148874998093
0.0275584626942873001 -0.294497787952423096 0.0853960886597633362
0.160248622298240662 0.611465632915496826 -0.0120750498026609421
0.222836911678314209 -0.371718823909759521 0.10844537615776062
0.267388492822647095 0.499741703271865845 -0.0376771166920661926
0.388720393180847168 0.349436819553375244 0.0341858193278312683
0.422766566276550293 -0.319221377372741699 0.0816689208149909973
0.266051977872848511 -0.375313460826873779 0.077423878014087677
0.353017538785934448 0.223740383982658386 0.029014861211180687
0.390864789485931396 0.0106112314388155937 0.0433989949524402618
0.418018609285354614 -0.216901853680610657 0.0773463919758796692
-0.452963978052139282 0.326974034309387207 0.106476373970508575
-0.384841650724411011 0.228713884949684143 0.15465855598449707
-0.397248953580856323 0.018685363233089447 0.187228232622146606
-0.394006460905075073 -0.181598171591758728 0.203071162104606628
-0.454064786434173584 -0.283467799425125122 0.184221610426902771
-0.25848388671875 0.346003711223602295 0.154287472367286682
-0.328269690275192261 0.428447216749191284 0.104296207427978516
-0.25983130931854248 -0.373212277889251709 0.218254849314689636
-0.216984078288078308 -0.477396994829177856 0.206901684403419495
-0.0554970353841781616 0.400678187608718872 0.145391404628753662
-0.0140857696533203125 -0.370207846164703369 0.289548635482788086
0.1380157470703125 0.571855008602142334 0.243385016918182373
0.190679013729095459 -0.385081082582473755 0.324120014905929565
0.247575223445892334 0.503265857696533203 0.185775935649871826
0.34305572509765625 0.33587193489074707 0.199836671352386475
0.389712214469909668 -0.234924688935279846 0.317742139101028442
0.279039651155471802 -0.344233006238937378 0.32937970757484436
0.340984880924224854 0.24457135796546936 0.254811227321624756
0.388593673706054688 0.0330687500536441803 0.292466551065444946
0.425786972045898438 -0.176724284887313843 0.277783691883087158
-0.474053800106048584 0.233803331851959229 0.212754860520362854
-0.400585442781448364 0.0316277556121349335 0.30094948410987854
-0.44872012734413147 -0.179306566715240479 0.299607008695602417
-0.244637906551361084 0.464317083358764648 0.184900939464569092
-0.240068435668945312 0.356163501739501953 0.282099246978759766
-0.342092514038085938 0.288264065980911255 0.364694088697433472
-0.355634689331054688 0.0687468424439430237 0.426825970411300659
-0.334066659212112427 -0.169042140245437622 0.422525405883789062
-0.262908935546875 -0.422115892171859741 0.315420299768447876
-0.256189614534378052 -0.273231804370880127 0.380590319633483887
-0.0344957634806632996 0.365988433361053467 0.225758731365203857
-0.0371837615966796875 0.333832830190658569 0.340988308191299438
-0.0442286916077136993 -0.403493195772171021 0.400851458311080933
-0.0394753068685531616 -0.253642171621322632 0.448931455612182617
0.19111497700214386 0.447385966777801514 0.26480710506439209
0.179587781429290771 0.360864579677581787 0.355301916599273682
0.183503285050392151 -0.383388698101043701 0.416994452476501465
0.186060503125190735 -0.224601075053215027 0.511357426643371582
0.239624306559562683 0.232698351144790649 0.363015949726104736
0.442410886287689209 0.250091969966888428 0.293407618999481201
0.256312251091003418 0.0219757221639156342 0.273380786180496216
0.406600415706634521 0.0903159603476524353 0.359158188104629517
0.26622501015663147 -0.106702513992786407 0.502094864845275879
0.367919385433197021 -0.191695734858512878 0.404254704713821411
-0.26092258095741272 0.27492833137512207 0.317803800106048584
-0.238117501139640808 0.0647931918501853943 0.33352971076965332
-0.220571249723434448 -0.142688438296318054 0.435244709253311157
-0.0318990424275398254 0.265599817037582397 0.262035131454467773
-0.0224004480987787247 0.0719029232859611511 0.350217819213867188
-0.0399862006306648254 -0.148725241422653198 0.403905600309371948
0.234443128108978271 0.276132881641387939 0.280287265777587891
0.185520991683006287 0.0600818991661071777 0.361788958311080933
0.194768905639648438 -0.133353501558303833 0.430407702922821045
3 0 1 2
3 1 3 4
3 2 1 4
3 3 5 6
3 4 3 6
3 5 7 6
3 0 8 9
3 1 0 9
3 9 10 1
3 1 10 3
3 10 11 3
3 3 11 5
3 5 11 12
3 7 5 12
3 8 13 14
3 9 8 14
3 14 15 9
3 9 15 10
3 15 16 10
3 10 16 11
3 11 16 17
3 12 11 17
3 14 13 18
3 15 14 18
3 19 15 18
3 16 15 19
3 20 16 19
3 16 20 17
3 21 22 23
3 22 24 25
3 23 22 25
3 24 26 27
3 25 24 27
3 26 28 27
3 29 30 31
3 2 22 21
3 0 2 21
3 0 21 31
3 0 31 30
3 4 22 2
3 24 22 4
3 6 24 4
3 26 24 6
3 26 32 28
3 6 32 26
3 6 33 32
3 6 7 33
3 33 34 32
3 29 35 36
3 30 29 36
3 36 0 30
3 8 0 36
3 12 33 7
3 37 33 12
3 33 37 38
3 34 33 38
3 35 39 40
3 36 35 40
3 40 8 36
3 13 8 40
3 17 37 12
3 41 37 17
3 37 41 42
3 38 37 42
3 40 39 43
3 43 44 45
3 40 43 45
3 40 45 18
3 40 18 13
3 18 46 19
3 45 46 18
3 19 47 20
3 46 47 19
3 48 49 41
3 47 48 41
3 47 41 17
3 47 17 20
3 41 49 42
3 45 44 50
3 46 45 50
3 51 46 50
3 47 46 51
3 52 47 51
3 47 52 48
3 53 21 23
3 54 53 23
3 23 25 54
3 25 55 54
3 25 27 55
3 27 56 55
3 28 57 56
3 27 28 56
3 58 29 31
3 59 58 31
3 31 53 59
3 21 53 31
3 60 28 32
3 57 28 60
3 34 61 60
3 32 34 60
3 35 29 62
3 62 29 58
3 38 63 34
3 63 61 34
3 39 35 64
3 64 35 62
3 42 65 38
3 65 63 38
3 66 43 39
3 64 66 39
3 44 66 67
3 43 66 44
3 68 49 48
3 69 49 68
3 49 69 65
3 42 49 65
3 70 50 44
3 67 70 44
3 50 70 51
3 51 70 71
3 51 71 52
3 52 71 72
3 52 72 68
3 48 52 68
3 73 53 54
3 74 73 54
3 54 55 74
3 55 75 74
3 55 56 75
3 56 76 75
3 57 77 76
3 56 57 76
3 78 58 59
3 79 78 59
3 59 73 79
3 53 73 59
3 80 57 60
3 77 57 80
3 61 81 80
3 60 61 80
3 62 58 82
3 82 58 78
3 63 83 61
3 83 81 61
3 64 62 84
3 84 62 82
3 65 85 63
3 85 83 63
3 86 66 64
3 84 86 64
3 67 86 87
3 66 86 67
3 88 69 68
3 89 69 88
3 69 89 85
3 65 69 85
3 90 70 67
3 87 90 67
3 70 90 71
3 71 90 91
3 71 91 72
3 72 91 92
3 72 92 88
3 68 72 88
3 73 74 93
3 74 75 94
3 93 74 94
3 75 76 95
3 94 75 95
3 76 77 95
3 78 79 96
3 97 93 98
3 96 93 97
3 96 73 93
3 96 79 73
3 94 98 93
3 99 98 94
3 95 99 94
3 100 99 95
3 100 101 102
3 95 101 100
3 95 80 101
3 95 77 80
3 80 81 101
3 82 78 96
3 103 82 96
3 96 104 103
3 97 104 96
3 102 105 106
3 101 105 102
3 105 101 81
3 83 105 81
3 84 82 103
3 107 84 103
3 103 108 107
3 104 108 103
3 106 109 110
3 105 109 106
3 109 105 83
3 85 109 83
3 86 84 107
3 107 108 111
3 86 107 111
3 86 111 112
3 86 112 87
3 112 113 114
3 111 113 112
3 114 115 116
3 113 115 114
3 89 110 109
3 88 110 89
3 88 115 110
3 88 116 115
3 89 109 85
3 90 87 112
3 91 90 112
3 114 91 112
3 92 91 114
3 116 92 114
3 92 116 88
3 97 98 117
3 98 99 118
3 117 98 118
3 99 100 119
3 118 99 119
3 100 102 119
3 104 97 117
3 120 104 117
3 120 117 121
3 117 118 121
3 121 118 122
3 118 119 122
3 122 119 102
3 106 122 102
3 108 104 120
3 123 108 120
3 123 120 124
3 120 121 124
3 124 121 125
3 121 122 125
3 125 122 106
3 110 125 106
3 111 108 123
3 113 111 123
3 124 113 123
3 115 113 124
3 125 115 124
3 115 125 110
