ply
format ascii 1.0
comment VCGLIB generated
element vertex 126
property float x
property float y
property float z
element face 248
property list uchar int vertex_indices
end_header
-0.158771783113479614 0.312803596258163452 -0.394904792308807373
-0.145092010498046875 0.234264537692070007 -0.4683857262134552
-0.248321816325187683 0.210864052176475525 -0.423169642686843872
-0.140835896134376526 0.00949671398848295212 -0.522207736968994141
-0.202602669596672058 -0.0095382174476981163 -0.43012535572052002
-0.0877448469400405884 -0.0823451131582260132 -0.301593899726867676
-0.0375584214925765991 -0.00301779876463115215 -0.28406330943107605
-0.00311034079641103745 -0.108381159603595734 -0.195497617125511169
-0.0195367000997066498 0.219170555472373962 -0.250437080860137939
0.00232287822291254997 0.138438895344734192 -0.319856405258178711
0.0773497968912124634 0.0224753785878419876 -0.498770654201507568
0.0745991319417953491 -0.190910771489143372 -0.424952507019042969
0.0699370279908180237 -0.244577080011367798 -0.344736933708190918
0.164662778377532959 0.329631388187408447 -0.320144206285476685
0.195598602294921875 0.237981334328651428 -0.374533802270889282
0.286008298397064209 0.037198234349489212 -0.413255691528320312
0.270139157772064209 -0.167839139699935913 -0.33535003662109375
0.295476913452148438 -0.269564300775527954 -0.327159345149993896
0.290749430656433105 0.275042563676834106 -0.334623873233795166
0.364965707063674927 0.062097940593957901 -0.343991011381149292
0.385018765926361084 -0.166269376873970032 -0.313190221786499023
-0.403871536254882812 0.285963594913482666 -0.200166881084442139
-0.376905709505081177 0.192040443420410156 -0.297992229461669922
-0.358401715755462646 0.182271048426628113 -0.189942970871925354
-0.307862430810928345 -0.011876164935529232 -0.290401160717010498
-0.325250625610351562 -0.038393702358007431 -0.174782112240791321
-0.134530752897262573 -0.0353799797594547272 -0.155441761016845703
-0.135147914290428162 -0.141450390219688416 -0.157653599977493286
-0.0294358395040035248 -0.129016831517219543 -0.096950531005859375
-0.218403682112693787 0.503855884075164795 -0.184597626328468323
-0.18398149311542511 0.439463227987289429 -0.272271454334259033
-0.302102237939834595 0.43608364462852478 -0.192008540034294128
-0.024246489629149437 -0.297802329063415527 -0.148730456829071045
-0.137184694409370422 -0.235000491142272949 -0.171682834625244141
-0.0916889756917953491 -0.350075602531433105 -0.200238406658172607
-0.0609792992472648621 0.416949272155761719 -0.0474962182343006134
-0.04383087158203125 0.341106504201889038 -0.12762683629989624
0.0587477013468742371 -0.35672152042388916 -0.208099067211151123
0.111904144287109375 -0.260964244604110718 -0.23167593777179718
0.122107096016407013 0.528830230236053467 -0.111749343574047089
0.129901349544525146 0.460717231035232544 -0.202810764312744141
0.287979662418365479 -0.364311456680297852 -0.168795585632324219
0.270889818668365479 -0.303093016147613525 -0.0753019526600837708
0.225106656551361084 0.491988241672515869 -0.111775398254394531
0.347611576318740845 0.370147526264190674 -0.0942264273762702942
0.396180838346481323 0.288702189922332764 -0.189777955412864685
0.418702542781829834 0.0669628381729125977 -0.180759772658348083
0.487230867147445679 -0.131239846348762512 -0.172331839799880981
0.47473907470703125 -0.191617831587791443 -0.0449917986989021301
0.325113028287887573 -0.232069045305252075 -0.14030320942401886
0.406360626220703125 0.285998731851577759 -0.0769935324788093567
0.335965842008590698 0.0764447376132011414 -0.117262095212936401
0.481499284505844116 -0.0804597586393356323 -0.0678968429565429688
-0.42648044228553772 0.292335212230682373 0.0258784648030996323
-0.438285559415817261 0.186065196990966797 0.0245688650757074356
-0.413138538599014282 -0.0336350463330745697 0.0192243717610836029
-0.247512549161911011 -0.170793473720550537 0.0211448334157466888
-0.169514253735542297 -0.22415846586227417 -0.00912870652973651886
-0.281013756990432739 0.541411459445953369 0.0360293053090572357
-0.329168856143951416 0.443710446357727051 0.0375524610280990601
-0.0876017957925796509 -0.407158434391021729 0.03662109375
-0.00709397485479712486 -0.447812974452972412 -0.00510266842320561409
-0.0658730119466781616 0.608385384082794189 0.065856151282787323
0.174275815486907959 -0.335865288972854614 -0.0407544225454330444
0.15460832417011261 0.601857841014862061 0.101668156683444977
0.202883318066596985 -0.129447996616363525 0.0480806827545166016
0.238335475325584412 0.530528008937835693 0.108567818999290466
0.243422642350196838 0.345178514719009399 0.108039550483226776
0.335923612117767334 -0.158918201923370361 0.129988700151443481
0.274993360042572021 -0.0528658740222454071 -1.89031870831968263e-05
0.327689319849014282 0.27741706371307373 0.132527351379394531
0.225996300578117371 0.0856634080410003662 0.0741427317261695862
0.306658059358596802 -0.107865624129772186 0.0542494244873523712
-0.455714643001556396 0.2951163649559021 0.24939197301864624
-0.468537479639053345 0.183980450034141541 0.250364363193511963
-0.380676835775375366 -0.0183381959795951843 0.248238027095794678
-0.198044106364250183 -0.145881548523902893 0.221644297242164612
-0.144492566585540771 -0.255572408437728882 0.211302891373634338
-0.277145922183990479 0.510321915149688721 0.260675966739654541
-0.359565198421478271 0.444698929786682129 0.264821410179138184
0.0299712587147951126 -0.297883510589599609 0.195059105753898621
-0.0357968471944332123 -0.262754887342453003 0.134852275252342224
-0.0579588748514652252 0.500533401966094971 0.24614948034286499
0.197587698698043823 -0.291255682706832886 0.177581652998924255
0.140274599194526672 0.562875151634216309 0.31924775242805481
0.405720323324203491 -0.210535675287246704 0.124084100127220154
0.242107942700386047 0.522562503814697266 0.330112844705581665
0.303882867097854614 0.353699654340744019 0.314379751682281494
0.538627088069915771 -0.0706861689686775208 0.135519847273826599
0.444944947957992554 -0.183308079838752747 0.022873368114233017
0.270731806755065918 0.25741460919380188 0.34990498423576355
0.381048768758773804 0.186127662658691406 0.174901664257049561
0.467506140470504761 -0.0195291023701429367 0.200176924467086792
-0.424789696931838989 0.202292889356613159 0.348984003067016602
-0.346716463565826416 -0.00718837277963757515 0.353738933801651001
-0.199249818921089172 -0.18291492760181427 0.318934082984924316
-0.280956536531448364 0.484272092580795288 0.36728551983833313
-0.216838300228118896 0.362669914960861206 0.472472399473190308
-0.313152581453323364 0.271815836429595947 0.453784823417663574
-0.207763403654098511 0.0837274491786956787 0.411687254905700684
-0.154792249202728271 -0.0439451783895492554 0.219535663723945618
0.0277614593505859375 -0.201361477375030518 0.0931622311472892761
-0.0880255028605461121 -0.167424976825714111 0.219108209013938904
-0.0836658477783203125 0.462604820728302002 0.323047995567321777
-0.00430379621684551239 0.395241886377334595 0.442373931407928467
0.1996612548828125 -0.194667920470237732 0.221835717558860779
0.108766555786132812 -0.0672335326671600342 0.266691446304321289
0.127246037125587463 0.457365512847900391 0.378227919340133667
0.144466668367385864 0.293129712343215942 0.288741767406463623
0.339751929044723511 -0.11565311998128891 0.0728436857461929321
0.240234658122062683 0.0148825338110327721 0.123075589537620544
0.212001800537109375 0.199334323406219482 0.367001980543136597
0.363949358463287354 0.287138193845748901 0.412458181381225586
0.283738553524017334 0.209436312317848206 0.152664527297019958
0.456111103296279907 0.241833731532096863 0.211006402969360352
0.309479594230651855 0.00663161417469382286 0.237821519374847412
0.45490264892578125 0.0395581461489200592 0.126140624284744263
-0.237605229020118713 0.323482275009155273 0.380760431289672852
-0.153289526700973511 0.127126604318618774 0.327951908111572266
-0.0853334143757820129 -0.090063832700252533 0.285484462976455688
-0.01728057861328125 0.298471897840499878 0.456485748291015625
0.0372450686991214752 0.216267600655555725 0.257032275199890137
0.0981685146689414978 0.0034701742697507143 0.197836846113204956
0.104919165372848511 0.172145023941993713 0.325814485549926758
0.262283593416213989 0.26110231876373291 0.247699543833732605
0.308213919401168823 0.0670945197343826294 0.162053793668746948
3 0 1 2
3 1 3 4
3 2 1 4
3 3 5 6
3 4 3 6
3 5 7 6
3 0 8 9
3 1 0 9
3 9 10 1
3 1 10 3
3 10 11 3
3 3 11 5
3 5 11 12
3 7 5 12
3 8 13 14
3 9 8 14
3 14 15 9
3 9 15 10
3 15 16 10
3 10 16 11
3 11 16 17
3 12 11 17
3 14 13 18
3 15 14 18
3 19 15 18
3 16 15 19
3 20 16 19
3 16 20 17
3 21 22 23
3 22 24 25
3 23 22 25
3 24 26 27
3 25 24 27
3 26 28 27
3 29 30 31
3 2 22 21
3 0 2 21
3 0 21 31
3 0 31 30
3 4 22 2
3 24 22 4
3 6 24 4
3 26 24 6
3 26 32 28
3 6 32 26
3 6 33 32
3 6 7 33
3 33 34 32
3 29 35 36
3 30 29 36
3 36 0 30
3 8 0 36
3 12 33 7
3 37 33 12
3 33 37 38
3 34 33 38
3 35 39 40
3 36 35 40
3 40 8 36
3 13 8 40
3 17 37 12
3 41 37 17
3 37 41 42
3 38 37 42
3 40 39 43
3 43 44 45
3 40 43 45
3 40 45 18
3 40 18 13
3 18 46 19
3 45 46 18
3 19 47 20
3 46 47 19
3 48 49 41
3 47 48 41
3 47 41 17
3 47 17 20
3 41 49 42
3 45 44 50
3 46 45 50
3 51 46 50
3 47 46 51
3 52 47 51
3 47 52 48
3 53 21 23
3 54 53 23
3 23 25 54
3 25 55 54
3 25 27 55
3 27 56 55
3 28 57 56
3 27 28 56
3 58 29 31
3 59 58 31
3 31 53 59
3 21 53 31
3 60 28 32
3 57 28 60
3 34 61 60
3 32 34 60
3 35 29 62
3 62 29 58
3 38 63 34
3 63 61 34
3 39 35 64
3 64 35 62
3 42 65 38
3 65 63 38
3 66 43 39
3 64 66 39
3 44 66 67
3 43 66 44
3 68 49 48
3 69 49 68
3 49 69 65
3 42 49 65
3 70 50 44
3 67 70 44
3 50 70 51
3 51 70 71
3 51 71 52
3 52 71 72
3 52 72 68
3 48 52 68
3 73 53 54
3 74 73 54
3 54 55 74
3 55 75 74
3 55 56 75
3 56 76 75
3 57 77 76
3 56 57 76
3 78 58 59
3 79 78 59
3 59 73 79
3 53 73 59
3 80 57 60
3 77 57 80
3 61 81 80
3 60 61 80
3 62 58 82
3 82 58 78
3 63 83 61
3 83 81 61
3 64 62 84
3 84 62 82
3 65 85 63
3 85 83 63
3 86 66 64
3 84 86 64
3 67 86 87
3 66 86 67
3 88 69 68
3 89 69 88
3 69 89 85
3 65 69 85
3 90 70 67
3 87 90 67
3 70 90 71
3 71 90 91
3 71 91 72
3 72 91 92
3 72 92 88
3 68 72 88
3 73 74 93
3 74 75 94
3 93 74 94
3 75 76 95
3 94 75 95
3 76 77 95
3 78 79 96
3 97 93 98
3 96 93 97
3 96 73 93
3 96 79 73
3 94 98 93
3 99 98 94
3 95 99 94
3 100 99 95
3 100 101 102
3 95 101 100
3 95 80 101
3 95 77 80
3 80 81 101
3 82 78 96
3 103 82 96
3 96 104 103
3 97 104 96
3 102 105 106
3 101 105 102
3 105 101 81
3 83 105 81
3 84 82 103
3 107 84 103
3 103 108 107
3 104 108 103
3 106 109 110
3 105 109 106
3 109 105 83
3 85 109 83
3 86 84 107
3 107 108 111
3 86 107 111
3 86 111 112
3 86 112 87
3 112 113 114
3 111 113 112
3 114 115 116
3 113 115 114
3 89 110 109
3 88 110 89
3 88 115 110
3 88 116 115
3 89 109 85
3 90 87 112
3 91 90 112
3 114 91 112
3 92 91 114
3 116 92 114
3 92 116 88
3 97 98 117
3 98 99 118
3 117 98 118
3 99 100 119
3 118 99 119
3 100 102 119
3 104 97 117
3 120 104 117
3 120 117 121
3 117 118 121
3 121 118 122
3 118 119 122
3 122 119 102
3 106 122 102
3 108 104 120
3 123 108 120
3 123 120 124
3 120 121 124
3 124 121 125
3 121 122 125
3 125 122 106
3 110 125 106
3 111 108 123
3 113 111 123
3 124 113 123
3 115 113 124
3 125 115 124
3 115 125 110
