ply
format ascii 1.0
comment VCGLIB generated
element vertex 126
property float x
property float y
property float z
element face 248
property list uchar int vertex_indices
end_header
-0.119131401181221008 0.217982321977615356 -0.548229992389678955
-0.121850959956645966 0.154545336961746216 -0.460634410381317139
-0.202682808041572571 0.109813258051872253 -0.527187764644622803
-0.135510757565498352 -0.0397202335298061371 -0.349743366241455078
-0.153233200311660767 -0.0930355116724967957 -0.445268720388412476
-0.184497833251953125 -0.250507831573486328 -0.283975780010223389
-0.107895530760288239 -0.290820151567459106 -0.350613772869110107
-0.225397735834121704 -0.347303658723831177 -0.315142452716827393
0.0945186540484428406 0.202285990118980408 -0.481779158115386963
0.0924332886934280396 0.0939414799213409424 -0.496398776769638062
0.041335422545671463 -0.118351675570011139 -0.454502284526824951
0.00750382710248231888 -0.323670655488967896 -0.36950308084487915
-0.0188128147274255753 -0.428927779197692871 -0.350797563791275024
0.298353821039199829 0.184109151363372803 -0.390182316303253174
0.268255859613418579 0.0826177000999450684 -0.354073643684387207
0.221185669302940369 -0.133424997329711914 -0.320102572441101074
0.227944046258926392 -0.357041537761688232 -0.351101338863372803
0.207222297787666321 -0.453163415193557739 -0.296044141054153442
0.370713859796524048 0.0700400695204734802 -0.377648860216140747
0.333830505609512329 -0.136070415377616882 -0.30999341607093811
0.251043617725372314 -0.330433130264282227 -0.248327642679214478
-0.290918350219726562 0.179253146052360535 -0.277959287166595459
-0.32688140869140625 0.129120737314224243 -0.401514738798141479
-0.382094353437423706 0.12972240149974823 -0.309509426355361938
-0.320652306079864502 -0.0970418304204940796 -0.377409636974334717
-0.312285423278808594 -0.0825356319546699524 -0.270307838916778564
-0.266831696033477783 -0.275926351547241211 -0.267938971519470215
-0.359829246997833252 -0.289348512887954712 -0.207781389355659485
-0.290311157703399658 -0.364924460649490356 -0.165215134620666504
-0.00992457009851932526 0.151086106896400452 -0.282836347818374634
-0.0363651886582374573 0.170495375990867615 -0.394561260938644409
-0.110928215086460114 0.191846847534179688 -0.278038382530212402
-0.15831311047077179 -0.389716237783432007 -0.0508870668709278107
-0.234489426016807556 -0.431572377681732178 -0.155344992876052856
-0.221242889761924744 -0.324632018804550171 -0.134129911661148071
0.021038055419921875 0.373418301343917847 -0.300387144088745117
0.0854889526963233948 0.356350243091583252 -0.393840044736862183
-0.0303904209285974503 -0.358945727348327637 -0.186622932553291321
-0.00657240534201264381 -0.326419413089752197 -0.0917025357484817505
0.166966110467910767 0.212095543742179871 -0.254276394844055176
0.242582947015762329 0.283661752939224243 -0.248635798692703247
0.108648933470249176 -0.539399564266204834 -0.168136551976203918
0.129421547055244446 -0.503877401351928711 -0.0663872510194778442
0.212295845150947571 0.176505357027053833 -0.161270096898078918
0.374596893787384033 0.171424612402915955 -0.232632145285606384
0.451822251081466675 0.0575571432709693909 -0.216983944177627563
0.289654731750488281 -0.0745378583669662476 -0.146849945187568665
0.257155090570449829 -0.285342991352081299 -0.0778096914291381836
0.329365730285644531 -0.404591530561447144 -0.0563955269753932953
0.225210174918174744 -0.547774672508239746 -0.082518257200717926
0.43013569712638855 0.139386728405952454 -0.146670937538146973
0.394501656293869019 -0.0798720866441726685 -0.111414387822151184
0.362715721130371094 -0.299813926219940186 -0.066572822630405426
-0.301666259765625 0.0935479104518890381 -0.0794949084520339966
-0.273720413446426392 0.191354736685752869 -0.124577276408672333
-0.318066269159317017 -0.0203124843537807465 -0.0543032065033912659
-0.384580284357070923 -0.231289729475975037 0.0111746788024902344
-0.403496414422988892 -0.332938224077224731 0.0301963072270154953
-0.0263309460133314133 0.175905376672744751 -0.0519092865288257599
-0.128614097833633423 0.123103730380535126 -0.0629943609237670898
-0.266453415155410767 -0.272020995616912842 0.109268821775913239
-0.265310585498809814 -0.378937602043151855 0.0752701312303543091
0.00443776417523622513 0.39591902494430542 -0.077260926365852356
-0.048354465514421463 -0.44095185399055481 0.0965785905718803406
0.199112877249717712 0.283600091934204102 -0.0497148409485816956
0.184796646237373352 -0.438072025775909424 0.130050182342529297
0.248387649655342102 0.37818223237991333 -0.0809780731797218323
0.357716858386993408 0.249310031533241272 -0.024263063445687294
0.217323288321495056 -0.353917479515075684 0.130014806985855103
0.242710098624229431 -0.551007568836212158 0.133076697587966919
0.268155723810195923 0.189109742641448975 -0.00377615285106003284
0.232046440243721008 -0.0299700088798999786 0.038611091673374176
0.222833946347236633 -0.251432418823242188 0.102069772779941559
-0.360383987426757812 0.198345363140106201 0.10974208265542984
-0.400277763605117798 0.269980072975158691 0.0460763759911060333
-0.4366588294506073 0.0601707138121128082 0.114566080272197723
-0.493810951709747314 -0.155491992831230164 0.1852007657289505
-0.463716179132461548 -0.256507456302642822 0.233060315251350403
-0.0845162048935890198 0.221234947443008423 0.158899813890457153
-0.19078412652015686 0.194836467504501343 0.138031437993049622
-0.327620506286621094 -0.353105396032333374 0.30959010124206543
-0.254685074090957642 -0.270335972309112549 0.281276285648345947
-0.00764052057638764381 0.42062687873840332 0.145376518368721008
-0.042362213134765625 -0.356134176254272461 0.301599681377410889
0.204273849725723267 0.349214136600494385 0.166936710476875305
0.157318115234375 -0.411560654640197754 0.32853582501411438
0.216981559991836548 0.440917551517486572 0.140538603067398071
0.344303429126739502 0.330808311700820923 0.18199940025806427
0.439076393842697144 -0.334550768136978149 0.227757290005683899
0.169280365109443665 -0.386114060878753662 0.149652957916259766
0.284501701593399048 0.236380085349082947 0.214946061372756958
0.318490654230117798 0.00575660588219761848 0.238715395331382751
0.380166351795196533 -0.236620500683784485 0.295256376266479492
-0.418389618396759033 0.309777110815048218 0.154746174812316895
-0.459663063287734985 0.0949378088116645813 0.217619732022285461
-0.458861976861953735 -0.124343141913414001 0.281262785196304321
-0.124271705746650696 0.220159187912940979 0.251449137926101685
-0.208239540457725525 0.368388891220092773 0.308230102062225342
-0.342706024646759033 0.345396578311920166 0.314819216728210449
-0.337559372186660767 0.124957509338855743 0.354111373424530029
-0.297986656427383423 -0.096440441906452179 0.352133512496948242
-0.227174744009971619 -0.337874144315719604 0.213501051068305969
-0.251968681812286377 -0.180572718381881714 0.254953086376190186
-0.0470749512314796448 0.435924917459487915 0.244417771697044373
-0.0242296848446130753 0.407096356153488159 0.42718428373336792
-0.00745296431705355644 -0.290375769138336182 0.221487864851951599
-0.0132942190393805504 -0.259734928607940674 0.382497698068618774
0.122888877987861633 0.332379639148712158 0.187619715929031372
0.148404434323310852 0.26839137077331543 0.354498416185379028
0.207107856869697571 -0.314219236373901367 0.20257432758808136
0.236473068594932556 -0.40024295449256897 0.371105074882507324
0.262257248163223267 0.273560255765914917 0.420523673295974731
0.361572891473770142 0.246903344988822937 0.283731818199157715
0.265960693359375 0.0307805798947811127 0.4511127769947052
0.379595726728439331 0.0232696533203125 0.327398180961608887
0.273431122303009033 -0.231699764728546143 0.412690609693527222
0.457738220691680908 -0.211345836520195007 0.296837866306304932
-0.253000259399414062 0.316803008317947388 0.392532318830490112
-0.226925209164619446 0.121779486536979675 0.319650352001190186
-0.230401352047920227 -0.0833875089883804321 0.260438114404678345
-0.0519959107041358948 0.277273029088973999 0.454242199659347534
-0.0116697940975427628 0.0458495281636714935 0.349629700183868408
-0.0298102684319019318 -0.16342616081237793 0.352682650089263916
0.165812164545059204 0.267683357000350952 0.460591703653335571
0.18677075207233429 -0.00470279157161712646 0.37513849139213562
0.202919632196426392 -0.262696117162704468 0.292781591415405273
3 0 1 2
3 1 3 4
3 2 1 4
3 3 5 6
3 4 3 6
3 5 7 6
3 0 8 9
3 1 0 9
3 9 10 1
3 1 10 3
3 10 11 3
3 3 11 5
3 5 11 12
3 7 5 12
3 8 13 14
3 9 8 14
3 14 15 9
3 9 15 10
3 15 16 10
3 10 16 11
3 11 16 17
3 12 11 17
3 14 13 18
3 15 14 18
3 19 15 18
3 16 15 19
3 20 16 19
3 16 20 17
3 21 22 23
3 22 24 25
3 23 22 25
3 24 26 27
3 25 24 27
3 26 28 27
3 29 30 31
3 2 22 21
3 0 2 21
3 0 21 31
3 0 31 30
3 4 22 2
3 24 22 4
3 6 24 4
3 26 24 6
3 26 32 28
3 6 32 26
3 6 33 32
3 6 7 33
3 33 34 32
3 29 35 36
3 30 29 36
3 36 0 30
3 8 0 36
3 12 33 7
3 37 33 12
3 33 37 38
3 34 33 38
3 35 39 40
3 36 35 40
3 40 8 36
3 13 8 40
3 17 37 12
3 41 37 17
3 37 41 42
3 38 37 42
3 40 39 43
3 43 44 45
3 40 43 45
3 40 45 18
3 40 18 13
3 18 46 19
3 45 46 18
3 19 47 20
3 46 47 19
3 48 49 41
3 47 48 41
3 47 41 17
3 47 17 20
3 41 49 42
3 45 44 50
3 46 45 50
3 51 46 50
3 47 46 51
3 52 47 51
3 47 52 48
3 53 21 23
3 54 53 23
3 23 25 54
3 25 55 54
3 25 27 55
3 27 56 55
3 28 57 56
3 27 28 56
3 58 29 31
3 59 58 31
3 31 53 59
3 21 53 31
3 60 28 32
3 57 28 60
3 34 61 60
3 32 34 60
3 35 29 62
3 62 29 58
3 38 63 34
3 63 61 34
3 39 35 64
3 64 35 62
3 42 65 38
3 65 63 38
3 66 43 39
3 64 66 39
3 44 66 67
3 43 66 44
3 68 49 48
3 69 49 68
3 49 69 65
3 42 49 65
3 70 50 44
3 67 70 44
3 50 70 51
3 51 70 71
3 51 71 52
3 52 71 72
3 52 72 68
3 48 52 68
3 73 53 54
3 74 73 54
3 54 55 74
3 55 75 74
3 55 56 75
3 56 76 75
3 57 77 76
3 56 57 76
3 78 58 59
3 79 78 59
3 59 73 79
3 53 73 59
3 80 57 60
3 77 57 80
3 61 81 80
3 60 61 80
3 62 58 82
3 82 58 78
3 63 83 61
3 83 81 61
3 64 62 84
3 84 62 82
3 65 85 63
3 85 83 63
3 86 66 64
3 84 86 64
3 67 86 87
3 66 86 67
3 88 69 68
3 89 69 88
3 69 89 85
3 65 69 85
3 90 70 67
3 87 90 67
3 70 90 71
3 71 90 91
3 71 91 72
3 72 91 92
3 72 92 88
3 68 72 88
3 73 74 93
3 74 75 94
3 93 74 94
3 75 76 95
3 94 75 95
3 76 77 95
3 78 79 96
3 97 93 98
3 96 93 97
3 96 73 93
3 96 79 73
3 94 98 93
3 99 98 94
3 95 99 94
3 100 99 95
3 100 101 102
3 95 101 100
3 95 80 101
3 95 77 80
3 80 81 101
3 82 78 96
3 103 82 96
3 96 104 103
3 97 104 96
3 102 105 106
3 101 105 102
3 105 101 81
3 83 105 81
3 84 82 103
3 107 84 103
3 103 108 107
3 104 108 103
3 106 109 110
3 105 109 106
3 109 105 83
3 85 109 83
3 86 84 107
3 107 108 111
3 86 107 111
3 86 111 112
3 86 112 87
3 112 113 114
3 111 113 112
3 114 115 116
3 113 115 114
3 89 110 109
3 88 110 89
3 88 115 110
3 88 116 115
3 89 109 85
3 90 87 112
3 91 90 112
3 114 91 112
3 92 91 114
3 116 92 114
3 92 116 88
3 97 98 117
3 98 99 118
3 117 98 118
3 99 100 119
3 118 99 119
3 100 102 119
3 104 97 117
3 120 104 117
3 120 117 121
3 117 118 121
3 121 118 122
3 118 119 122
3 122 119 102
3 106 122 102
3 108 104 120
3 123 108 120
3 123 120 124
3 120 121 124
3 124 121 125
3 121 122 125
3 125 122 106
3 110 125 106
3 111 108 123
3 113 111 123
3 124 113 123
3 115 113 124
3 125 115 124
3 115 125 110
