ply
format ascii 1.0
comment VCGLIB generated
element vertex 126
property float x
property float y
property float z
element face 248
property list uchar int vertex_indices
end_header
0.0187238063663244247 -0.0473232083022594452 -0.32606157660484314
0.0595919303596019745 -0.0687696933746337891 -0.228249236941337585
-0.01514434814453125 -0.145766034722328186 -0.237749576568603516
-0.0210978183895349503 -0.135302796959877014 -0.0260454807430505753
0.0572522468864917755 -0.208362594246864319 -0.0294820461422204971
0.128215789794921875 -0.204504981637001038 0.130932807922363281
0.0425211600959300995 -0.247834071516990662 0.189530849456787109
0.0514361076056957245 -0.128693684935569763 0.157505199313163757
-0.0168507900089025497 0.160370975732803345 -0.246768787503242493
-0.01857757568359375 0.123476296663284302 -0.143946647644042969
0.0306180324405431747 0.057802002876996994 0.0630257949233055115
0.077548980712890625 -0.0326336286962032318 0.261180400848388672
0.17263031005859375 -0.0378317199647426605 0.316160827875137329
0.193141937255859375 0.0836264118552207947 -0.254342406988143921
0.200731918215751648 0.0900315046310424805 -0.146582916378974915
0.226224258542060852 0.157891944050788879 0.0638467445969581604
0.259656280279159546 0.097695469856262207 0.281204372644424438
0.266482025384902954 0.100658029317855835 0.171640872955322266
0.290705353021621704 0.141632452607154846 -0.176539897918701172
0.318509429693222046 0.100090794265270233 0.0405489616096019745
0.366945892572402954 0.123723350465297699 0.259361416101455688
-0.269385010004043579 -0.0418283902108669281 -0.206620052456855774
-0.139966323971748352 -0.0458550862967967987 -0.165325477719306946
-0.223223373293876648 -0.0383416600525379181 -0.0989972725510597229
0.0203526820987462997 -0.0316606350243091583 -0.00130160653498023748
-0.067621864378452301 -0.00610659690573811531 0.0662404671311378479
-0.059795379638671875 -0.22276616096496582 0.0513230971992015839
-0.160273239016532898 -0.20011042058467865 0.0100062685087323189
-0.110390983521938324 -0.0997970104217529297 0.0149668054655194283
-0.1839141845703125 0.0519483834505081177 -0.450661182403564453
-0.131565093994140625 0.0495622940361499786 -0.351896136999130249
-0.251422882080078125 -0.0129740918055176735 -0.387257903814315796
-0.068271636962890625 0.0440885908901691437 0.12544076144695282
0.0428212471306324005 0.00841382239013910294 0.0613032989203929901
-0.0555356331169605255 -0.0486809946596622467 0.0857133865356445312
-0.0177218113094568253 0.19426339864730835 -0.516759693622589111
0.003269195556640625 0.22169870138168335 -0.413182109594345093
0.0143534345552325249 0.0382103435695171356 0.281274318695068359
0.0129076642915606499 -0.0693066343665122986 0.295519828796386719
0.133977249264717102 0.155550464987754822 -0.351219654083251953
0.196381881833076477 0.103272408246994019 -0.429451793432235718
0.231952667236328125 0.028954140841960907 0.340407222509384155
0.22845458984375 -0.0752934366464614868 0.34220394492149353
0.239144638180732727 0.17826390266418457 -0.323531150817871094
0.382289886474609375 0.135651692748069763 -0.220078468322753906
0.401217132806777954 0.00167267955839633942 -0.198034599423408508
0.483866363763809204 0.036325305700302124 0.00934267044067382812
0.527388274669647217 0.0437080524861812592 0.228927299380302429
0.485720306634902954 -0.0509671308100223541 0.324175208806991577
0.317757934331893921 -0.0896318033337593079 0.400707244873046875
0.313830047845840454 0.0597136802971363068 -0.169062450528144836
0.397160857915878296 -0.0279629472643136978 0.0246281623840332031
0.509621918201446533 -0.0619407854974269867 0.216544628143310547
-0.312245696783065796 0.179235279560089111 -0.184092357754707336
-0.262423187494277954 0.18095909059047699 -0.083040870726108551
-0.275236755609512329 0.0739987045526504517 0.117417335510253906
-0.322812408208847046 -0.145473584532737732 0.14505322277545929
-0.2261810302734375 -0.170307740569114685 0.191414043307304382
-0.273207336664199829 0.228727996349334717 -0.346803337335586548
-0.373096466064453125 0.182879552245140076 -0.35161861777305603
-0.251825958490371704 0.000142798511660657823 0.243994399905204773
-0.175525665283203125 0.0787514969706535339 0.220824241638183594
-0.066088356077671051 0.297160595655441284 -0.316212326288223267
0.00955454539507627487 0.150672271847724915 0.328897625207901001
0.138132736086845398 0.356395483016967773 -0.269134670495986938
0.229328155517578125 0.148949384689331055 0.388847023248672485
0.190854385495185852 0.341739892959594727 -0.181160449981689453
0.322598785161972046 0.302345424890518188 -0.067166648805141449
0.391278594732284546 0.153002500534057617 0.29579654335975647
0.220750167965888977 0.0780601873993873596 0.31688341498374939
0.239844009280204773 0.234244510531425476 -0.0482619591057300568
0.257371276617050171 0.109422497451305389 0.138369724154472351
0.358117431402206421 0.052049737423658371 0.330118328332901001
-0.437657684087753296 0.348586797714233398 -0.119248710572719574
-0.459627777338027954 0.273338168859481812 -0.0436956100165843964
-0.497079223394393921 0.120682813227176666 0.116210617125034332
-0.367214202880859375 0.0267612114548683167 0.27277025580406189
-0.285125732421875 -0.0101995328441262245 0.329293251037597656
-0.268280029296875 0.112861134111881256 -0.14939434826374054
-0.334545135498046875 0.20612354576587677 -0.130251884460449219
-0.13018798828125 -0.0348170474171638489 0.426420360803604126
-0.240376785397529602 -0.0353173129260540009 0.414031177759170532
-0.0621693916618824005 0.135874345898628235 -0.147870704531669617
-0.033504486083984375 0.011885286308825016 0.502173483371734619
0.113966621458530426 0.235906645655632019 -0.0620921440422534943
0.189579010009765625 0.0272150319069623947 0.564200401306152344
0.09377288818359375 0.151289030909538269 -0.127168342471122742
0.1160888671875 0.263832181692123413 0.0108981132507324219
0.359358459711074829 0.223370864987373352 0.509626626968383789
0.303576141595840454 0.0515467412769794464 0.537271797657012939
0.094523109495639801 0.364381343126296997 0.0464641265571117401
0.228679656982421875 0.317288726568222046 0.218864753842353821
0.34096527099609375 0.261525899171829224 0.405818134546279907
-0.458178192377090454 0.364529699087142944 0.0212828312069177628
-0.454069763422012329 0.193903699517250061 0.186831310391426086
-0.280562072992324829 0.0412670038640499115 0.199447154998779297
-0.288608551025390625 0.116518765687942505 -0.0418300628662109375
-0.199481964111328125 0.27099570631980896 -0.0390612296760082245
-0.276582092046737671 0.348570823669433594 0.0451598167419433594
-0.339800506830215454 0.305955618619918823 0.266676276922225952
-0.231360122561454773 0.118981711566448212 0.354547351598739624
-0.217664077877998352 -0.142410829663276672 0.443518161773681641
-0.269023895263671875 0.0311178658157587051 0.455932140350341797
-0.113819122314453125 0.22743166983127594 -0.128981590270996094
-0.0146153764799237251 0.146954193711280823 -0.00725762033835053444
-1.27156572489184327e-05 -0.0814441964030265808 0.439986079931259155
-0.065016426146030426 0.0428202040493488312 0.545724332332611084
0.047092437744140625 0.147176086902618408 -0.0071258544921875
0.111319221556186676 0.313320010900497437 0.0412425994873046875
0.20952606201171875 -0.0166796762496232986 0.467610031366348267
0.08757781982421875 0.100083164870738983 0.399671554565429688
0.175875350832939148 0.297739654779434204 0.160166740417480469
0.0129597978666424751 0.297035843133926392 0.0958120003342628479
0.094500221312046051 0.19919256865978241 0.350944995880126953
0.1953582763671875 0.210104420781135559 0.205802604556083679
0.196778610348701477 0.0126628652215003967 0.420365482568740845
0.29578399658203125 0.162865862250328064 0.40095868706703186
-0.245118454098701477 0.243018448352813721 0.0552560500800609589
-0.247516632080078125 0.261661410331726074 0.276311874389648438
-0.273869842290878296 0.14331488311290741 0.455845832824707031
-0.0549799613654613495 0.130811452865600586 0.0972043648362159729
-0.0338719673454761505 0.238600254058837891 0.289087444543838501
-0.0503031425178050995 0.140691876411437988 0.490572690963745117
0.063054405152797699 0.322668999433517456 0.134724929928779602
0.186838790774345398 0.21102498471736908 0.287401348352432251
0.168397262692451477 0.0974304899573326111 0.482930988073348999
3 0 1 2
3 1 3 4
3 2 1 4
3 3 5 6
3 4 3 6
3 5 7 6
3 0 8 9
3 1 0 9
3 9 10 1
3 1 10 3
3 10 11 3
3 3 11 5
3 5 11 12
3 7 5 12
3 8 13 14
3 9 8 14
3 14 15 9
3 9 15 10
3 15 16 10
3 10 16 11
3 11 16 17
3 12 11 17
3 14 13 18
3 15 14 18
3 19 15 18
3 16 15 19
3 20 16 19
3 16 20 17
3 21 22 23
3 22 24 25
3 23 22 25
3 24 26 27
3 25 24 27
3 26 28 27
3 29 30 31
3 2 22 21
3 0 2 21
3 0 21 31
3 0 31 30
3 4 22 2
3 24 22 4
3 6 24 4
3 26 24 6
3 26 32 28
3 6 32 26
3 6 33 32
3 6 7 33
3 33 34 32
3 29 35 36
3 30 29 36
3 36 0 30
3 8 0 36
3 12 33 7
3 37 33 12
3 33 37 38
3 34 33 38
3 35 39 40
3 36 35 40
3 40 8 36
3 13 8 40
3 17 37 12
3 41 37 17
3 37 41 42
3 38 37 42
3 40 39 43
3 43 44 45
3 40 43 45
3 40 45 18
3 40 18 13
3 18 46 19
3 45 46 18
3 19 47 20
3 46 47 19
3 48 49 41
3 47 48 41
3 47 41 17
3 47 17 20
3 41 49 42
3 45 44 50
3 46 45 50
3 51 46 50
3 47 46 51
3 52 47 51
3 47 52 48
3 53 21 23
3 54 53 23
3 23 25 54
3 25 55 54
3 25 27 55
3 27 56 55
3 28 57 56
3 27 28 56
3 58 29 31
3 59 58 31
3 31 53 59
3 21 53 31
3 60 28 32
3 57 28 60
3 34 61 60
3 32 34 60
3 35 29 62
3 62 29 58
3 38 63 34
3 63 61 34
3 39 35 64
3 64 35 62
3 42 65 38
3 65 63 38
3 66 43 39
3 64 66 39
3 44 66 67
3 43 66 44
3 68 49 48
3 69 49 68
3 49 69 65
3 42 49 65
3 70 50 44
3 67 70 44
3 50 70 51
3 51 70 71
3 51 71 52
3 52 71 72
3 52 72 68
3 48 52 68
3 73 53 54
3 74 73 54
3 54 55 74
3 55 75 74
3 55 56 75
3 56 76 75
3 57 77 76
3 56 57 76
3 78 58 59
3 79 78 59
3 59 73 79
3 53 73 59
3 80 57 60
3 77 57 80
3 61 81 80
3 60 61 80
3 62 58 82
3 82 58 78
3 63 83 61
3 83 81 61
3 64 62 84
3 84 62 82
3 65 85 63
3 85 83 63
3 86 66 64
3 84 86 64
3 67 86 87
3 66 86 67
3 88 69 68
3 89 69 88
3 69 89 85
3 65 69 85
3 90 70 67
3 87 90 67
3 70 90 71
3 71 90 91
3 71 91 72
3 72 91 92
3 72 92 88
3 68 72 88
3 73 74 93
3 74 75 94
3 93 74 94
3 75 76 95
3 94 75 95
3 76 77 95
3 78 79 96
3 97 93 98
3 96 93 97
3 96 73 93
3 96 79 73
3 94 98 93
3 99 98 94
3 95 99 94
3 100 99 95
3 100 101 102
3 95 101 100
3 95 80 101
3 95 77 80
3 80 81 101
3 82 78 96
3 103 82 96
3 96 104 103
3 97 104 96
3 102 105 106
3 101 105 102
3 105 101 81
3 83 105 81
3 84 82 103
3 107 84 103
3 103 108 107
3 104 108 103
3 106 109 110
3 105 109 106
3 109 105 83
3 85 109 83
3 86 84 107
3 107 108 111
3 86 107 111
3 86 111 112
3 86 112 87
3 112 113 114
3 111 113 112
3 114 115 116
3 113 115 114
3 89 110 109
3 88 110 89
3 88 115 110
3 88 116 115
3 89 109 85
3 90 87 112
3 91 90 112
3 114 91 112
3 92 91 114
3 116 92 114
3 92 116 88
3 97 98 117
3 98 99 118
3 117 98 118
3 99 100 119
3 118 99 119
3 100 102 119
3 104 97 117
3 120 104 117
3 120 117 121
3 117 118 121
3 121 118 122
3 118 119 122
3 122 119 102
3 106 122 102
3 108 104 120
3 123 108 120
3 123 120 124
3 120 121 124
3 124 121 125
3 121 122 125
3 125 122 106
3 110 125 106
3 111 108 123
3 113 111 123
3 124 113 123
3 115 113 124
3 125 115 124
3 115 125 110
