ply
format ascii 1.0
comment VCGLIB generated
element vertex 126
property float x
property float y
property float z
element face 248
property list uchar int vertex_indices
end_header
-0.302730560302734375 0.273843199014663696 -0.44182172417640686
-0.295839935541152954 0.184592783451080322 -0.527014076709747314
-0.408794403076171875 0.190961003303527832 -0.469705432653427124
-0.25522613525390625 0.0488038510084152222 -0.359443813562393188
-0.346726745367050171 0.0429209060966968536 -0.321673721075057983
-0.319568634033203125 -0.152176037430763245 -0.264509052038192749
-0.273480743169784546 -0.111284039914608002 -0.174012020230293274
-0.342305511236190796 -0.232825145125389099 -0.187247112393379211
-0.095249176025390625 0.251588225364685059 -0.384328365325927734
-0.105531059205532074 0.144226729869842529 -0.407658576965332031
-0.108642578125 -0.0778401419520378113 -0.458412975072860718
-0.144343063235282898 -0.260811924934387207 -0.337007522583007812
-0.163373306393623352 -0.34818693995475769 -0.256957203149795532
0.124090828001499176 0.210462912917137146 -0.346988677978515625
0.111865997314453125 0.108410738408565521 -0.37826266884803772
0.088161468505859375 -0.114398054778575897 -0.359831005334854126
0.056049346923828125 -0.335415840148925781 -0.324374675750732422
0.0386377982795238495 -0.431055068969726562 -0.258114337921142578
0.204671218991279602 0.0999350175261497498 -0.31648525595664978
0.185161590576171875 -0.120679043233394623 -0.297784328460693359
0.094923652708530426 -0.311216473579406738 -0.224837779998779297
-0.569909393787384033 0.353929519653320312 -0.30157962441444397
-0.561253845691680908 0.222676709294319153 -0.370691448450088501
-0.5313873291015625 0.261176556348800659 -0.275356441736221313
-0.4515380859375 0.123246163129806519 -0.207828834652900696
-0.498547881841659546 0.0349394939839839935 -0.232717037200927734
-0.455841064453125 -0.0878645479679107666 -0.207797691226005554
-0.345694214105606079 -0.106394656002521515 -0.216110542416572571
-0.379586547613143921 -0.195435166358947754 -0.200667545199394226
-0.350400298833847046 0.485118865966796875 -0.237997367978096008
-0.322012573480606079 0.42739441990852356 -0.314131110906600952
-0.411233276128768921 0.409700125455856323 -0.229652568697929382
-0.451173156499862671 -0.353661894798278809 -0.14900524914264679
-0.359021514654159546 -0.35039365291595459 -0.0526868514716625214
-0.351505279541015625 -0.411491066217422485 -0.149229839444160461
-0.141232803463935852 0.399149209260940552 -0.190582752227783203
-0.100671134889125824 0.412788033485412598 -0.290740162134170532
-0.1407012939453125 -0.289973020553588867 -0.081593833863735199
-0.136151626706123352 -0.362013250589370728 -0.154893234372138977
0.069993339478969574 0.354647994041442871 -0.139525577425956726
0.1072845458984375 0.339284628629684448 -0.225900337100028992
-0.065074920654296875 -0.497952252626419067 -0.125078678131103516
-0.0553181953728199005 -0.51689678430557251 -0.0148997306823730469
0.179229736328125 0.329216063022613525 -0.111469902098178864
0.314296722412109375 0.204275771975517273 -0.087857566773891449
0.314553588628768921 0.0987768471240997314 -0.173578903079032898
0.290777832269668579 -0.119457893073558807 -0.146125152707099915
0.159604385495185852 -0.283348381519317627 -0.0617194175720214844
0.180634811520576477 -0.418210983276367188 -0.0308910999447107315
0.0441869087517261505 -0.536955416202545166 -0.0554830245673656464
0.357316344976425171 0.105686716735363007 -0.0667157173156738281
0.3402557373046875 -0.118787258863449097 -0.0429177284240722656
0.254388183355331421 -0.331948071718215942 -0.0375267677009105682
-0.642361938953399658 0.417182892560958862 -0.0840366706252098083
-0.658503234386444092 0.287917494773864746 -0.103343009948730469
-0.532765686511993408 0.10917171835899353 -0.0552722625434398651
-0.400203704833984375 -0.042270466685295105 -0.00873517990112304688
-0.417318969964981079 -0.148778527975082397 0.00791533757001161575
-0.425160735845565796 0.507269918918609619 -0.0226999912410974503
-0.528036773204803467 0.540977537631988525 -0.0610318183898925781
-0.391317993402481079 -0.322578221559524536 0.0686753615736961365
-0.31878662109375 -0.409101098775863647 0.0739026069641113281
-0.211321517825126648 0.405294150114059448 0.0319972038269042969
-0.163550063967704773 -0.248751044273376465 0.0478016547858715057
-0.00422159815207123756 0.318381249904632568 0.0784894600510597229
0.0288263950496912003 -0.351629287004470825 0.112250171601772308
0.10162353515625 0.279421746730804443 0.093056999146938324
0.27407073974609375 0.249045893549919128 0.128904983401298523
0.0395139046013355255 -0.284770041704177856 0.081090293824672699
-0.0439974479377269745 -0.434804230928421021 0.122595787048339844
0.28455352783203125 0.135917887091636658 0.146663501858711243
0.250378936529159546 -0.0844746828079223633 0.160016223788261414
0.094378150999546051 -0.197716712951660156 0.0463425330817699432
-0.670869171619415283 0.413056403398513794 0.13154013454914093
-0.632726013660430908 0.332273393869400024 0.138458088040351868
-0.605977356433868408 0.135201305150985718 0.14851061999797821
-0.428662627935409546 0.00456267455592751503 0.205970600247383118
-0.372341156005859375 -0.0832922607660293579 0.218179702758789062
-0.44249725341796875 0.563227474689483643 0.188282802700996399
-0.5550537109375 0.527642488479614258 0.171437576413154602
-0.274868011474609375 -0.226842954754829407 0.244051620364189148
-0.20279693603515625 -0.315529793500900269 0.235288456082344055
-0.229330703616142273 0.51865994930267334 0.224515125155448914
-0.00495656346902251244 -0.360325127840042114 0.127124309539794922
-0.00179926550481468439 0.463648438453674316 0.259515613317489624
0.00306065869517624378 -0.302363127470016479 0.328084468841552734
0.083079017698764801 0.400748163461685181 0.289783626794815063
0.189875289797782898 0.268057137727737427 0.335369914770126343
0.192690536379814148 -0.31603577733039856 0.240920066833496094
0.0571047477424144745 -0.398932337760925293 0.319144725799560547
0.141938522458076477 0.170842424035072327 0.319867610931396484
0.103382110595703125 -0.0438483767211437225 0.323601573705673218
0.105487823486328125 -0.255517095327377319 0.263665199279785156
-0.705434143543243408 0.292653053998947144 0.21138937771320343
-0.58309173583984375 0.0820475667715072632 0.202380344271659851
-0.441953033208847046 -0.0571992956101894379 0.1027984619140625
-0.456807464361190796 0.494246035814285278 0.253073364496231079
-0.4673919677734375 0.363874465227127075 0.350388050079345703
-0.56809234619140625 0.311572879552841187 0.211150482296943665
-0.428564697504043579 0.135001137852668762 0.299664974212646484
-0.293244689702987671 -0.0158497355878353119 0.188468292355537415
-0.224201202392578125 -0.281380176544189453 0.129712894558906555
-0.290186554193496704 -0.11498376727104187 0.0954720154404640198
-0.244490310549736023 0.472493678331375122 0.333816051483154297
-0.271874755620956421 0.326642125844955444 0.452953338623046875
-0.011928558349609375 -0.235853508114814758 0.136671856045722961
-0.149430587887763977 -0.18556194007396698 0.253228515386581421
-0.049488067626953125 0.37697407603263855 0.330269962549209595
-0.056652069091796875 0.295718103647232056 0.476707935333251953
0.108476005494594574 -0.269954442977905273 0.332224518060684204
-0.00821177195757627487 -0.156748846173286438 0.432920306921005249
0.0059661865234375 0.16430838406085968 0.489895254373550415
0.173405960202217102 0.172885775566101074 0.427626937627792358
-0.00539652490988373756 -0.0415694825351238251 0.385889679193496704
0.166929885745048523 -0.0577730126678943634 0.410807937383651733
-0.0393460579216480255 -0.263974428176879883 0.373795032501220703
0.141162872314453125 -0.275927573442459106 0.363969475030899048
-0.478430420160293579 0.271418780088424683 0.295671939849853516
-0.478048950433731079 0.0514527373015880585 0.297979205846786499
-0.378353118896484375 -0.0888618305325508118 0.167567729949951172
-0.290896087884902954 0.217816516757011414 0.45085492730140686
-0.305165618658065796 0.021018417552113533 0.470815658569335938
-0.228511810302734375 -0.148795679211616516 0.332189708948135376
-0.072024025022983551 0.196998238563537598 0.42033657431602478
-0.094696044921875 -0.0282184481620788574 0.457169681787490845
-0.084110260009765625 -0.241231337189674377 0.47361263632774353
3 0 1 2
3 1 3 4
3 2 1 4
3 3 5 6
3 4 3 6
3 5 7 6
3 0 8 9
3 1 0 9
3 9 10 1
3 1 10 3
3 10 11 3
3 3 11 5
3 5 11 12
3 7 5 12
3 8 13 14
3 9 8 14
3 14 15 9
3 9 15 10
3 15 16 10
3 10 16 11
3 11 16 17
3 12 11 17
3 14 13 18
3 15 14 18
3 19 15 18
3 16 15 19
3 20 16 19
3 16 20 17
3 21 22 23
3 22 24 25
3 23 22 25
3 24 26 27
3 25 24 27
3 26 28 27
3 29 30 31
3 2 22 21
3 0 2 21
3 0 21 31
3 0 31 30
3 4 22 2
3 24 22 4
3 6 24 4
3 26 24 6
3 26 32 28
3 6 32 26
3 6 33 32
3 6 7 33
3 33 34 32
3 29 35 36
3 30 29 36
3 36 0 30
3 8 0 36
3 12 33 7
3 37 33 12
3 33 37 38
3 34 33 38
3 35 39 40
3 36 35 40
3 40 8 36
3 13 8 40
3 17 37 12
3 41 37 17
3 37 41 42
3 38 37 42
3 40 39 43
3 43 44 45
3 40 43 45
3 40 45 18
3 40 18 13
3 18 46 19
3 45 46 18
3 19 47 20
3 46 47 19
3 48 49 41
3 47 48 41
3 47 41 17
3 47 17 20
3 41 49 42
3 45 44 50
3 46 45 50
3 51 46 50
3 47 46 51
3 52 47 51
3 47 52 48
3 53 21 23
3 54 53 23
3 23 25 54
3 25 55 54
3 25 27 55
3 27 56 55
3 28 57 56
3 27 28 56
3 58 29 31
3 59 58 31
3 31 53 59
3 21 53 31
3 60 28 32
3 57 28 60
3 34 61 60
3 32 34 60
3 35 29 62
3 62 29 58
3 38 63 34
3 63 61 34
3 39 35 64
3 64 35 62
3 42 65 38
3 65 63 38
3 66 43 39
3 64 66 39
3 44 66 67
3 43 66 44
3 68 49 48
3 69 49 68
3 49 69 65
3 42 49 65
3 70 50 44
3 67 70 44
3 50 70 51
3 51 70 71
3 51 71 52
3 52 71 72
3 52 72 68
3 48 52 68
3 73 53 54
3 74 73 54
3 54 55 74
3 55 75 74
3 55 56 75
3 56 76 75
3 57 77 76
3 56 57 76
3 78 58 59
3 79 78 59
3 59 73 79
3 53 73 59
3 80 57 60
3 77 57 80
3 61 81 80
3 60 61 80
3 62 58 82
3 82 58 78
3 63 83 61
3 83 81 61
3 64 62 84
3 84 62 82
3 65 85 63
3 85 83 63
3 86 66 64
3 84 86 64
3 67 86 87
3 66 86 67
3 88 69 68
3 89 69 88
3 69 89 85
3 65 69 85
3 90 70 67
3 87 90 67
3 70 90 71
3 71 90 91
3 71 91 72
3 72 91 92
3 72 92 88
3 68 72 88
3 73 74 93
3 74 75 94
3 93 74 94
3 75 76 95
3 94 75 95
3 76 77 95
3 78 79 96
3 97 93 98
3 96 93 97
3 96 73 93
3 96 79 73
3 94 98 93
3 99 98 94
3 95 99 94
3 100 99 95
3 100 101 102
3 95 101 100
3 95 80 101
3 95 77 80
3 80 81 101
3 82 78 96
3 103 82 96
3 96 104 103
3 97 104 96
3 102 105 106
3 101 105 102
3 105 101 81
3 83 105 81
3 84 82 103
3 107 84 103
3 103 108 107
3 104 108 103
3 106 109 110
3 105 109 106
3 109 105 83
3 85 109 83
3 86 84 107
3 107 108 111
3 86 107 111
3 86 111 112
3 86 112 87
3 112 113 114
3 111 113 112
3 114 115 116
3 113 115 114
3 89 110 109
3 88 110 89
3 88 115 110
3 88 116 115
3 89 109 85
3 90 87 112
3 91 90 112
3 114 91 112
3 92 91 114
3 116 92 114
3 92 116 88
3 97 98 117
3 98 99 118
3 117 98 118
3 99 100 119
3 118 99 119
3 100 102 119
3 104 97 117
3 120 104 117
3 120 117 121
3 117 118 121
3 121 118 122
3 118 119 122
3 122 119 102
3 106 122 102
3 108 104 120
3 123 108 120
3 123 120 124
3 120 121 124
3 124 121 125
3 121 122 125
3 125 122 106
3 110 125 106
3 111 108 123
3 113 111 123
3 124 113 123
3 115 113 124
3 125 115 124
3 115 125 110
