ply
format ascii 1.0
comment VCGLIB generated
element vertex 126
property float x
property float y
property float z
element face 248
property list uchar int vertex_indices
end_header
-0.190827041864395142 0.218938127160072327 -0.540007531642913818
-0.182436302304267883 0.18578338623046875 -0.432198435068130493
-0.277978569269180298 0.139627113938331604 -0.470223009586334229
-0.179379776120185852 -0.0138096688315272331 -0.318954586982727051
-0.206608757376670837 -0.0658286511898040771 -0.4001903235912323
-0.156418472528457642 -0.2063121497631073 -0.215523034334182739
-0.0662962570786476135 -0.275910794734954834 -0.298505216836929321
-0.138055473566055298 -0.297082573175430298 -0.165513351559638977
0.0238037090748548508 0.259225845336914062 -0.470637857913970947
0.0344006195664405823 0.151826649904251099 -0.474915683269500732
0.0212367363274097443 -0.0599427670240402222 -0.407848149538040161
0.0150680532678961754 -0.264800965785980225 -0.318884849548339844
0.00586350727826356888 -0.375444263219833374 -0.315523743629455566
0.221718147397041321 0.255182504653930664 -0.367621183395385742
0.211331039667129517 0.149564221501350403 -0.34025806188583374
0.239316612482070923 -0.0719238817691802979 -0.379365861415863037
0.235296875238418579 -0.282881051301956177 -0.311948657035827637
0.227041229605674744 -0.373430460691452026 -0.24948437511920929
0.319128036499023438 0.159322246909141541 -0.368977576494216919
0.258008629083633423 -0.0356013365089893341 -0.278108298778533936
0.266747474670410156 -0.247115999460220337 -0.209704235196113586
-0.307580620050430298 0.29766923189163208 -0.23995576798915863
-0.312430053949356079 0.185100734233856201 -0.304153561592102051
-0.336046218872070312 0.191406816244125366 -0.206202656030654907
-0.161646202206611633 0.00243460061028599739 -0.250513136386871338
-0.255354225635528564 -0.0266655273735523224 -0.186717301607131958
-0.142668083310127258 -0.274402201175689697 -0.334420204162597656
-0.148027732968330383 -0.248807981610298157 -0.199563890695571899
-0.271331459283828735 -0.271382033824920654 -0.170676499605178833
-0.0939067155122756958 0.145914673805236816 -0.255080252885818481
-0.140725761651992798 0.170873403549194336 -0.364130735397338867
-0.143383339047431946 0.244838044047355652 -0.254146039485931396
-0.221165016293525696 -0.344444930553436279 -0.0320239849388599396
-0.201927810907363892 -0.456414937973022461 -0.117743805050849915
-0.249948486685752869 -0.357460707426071167 -0.128176599740982056
-0.0907214432954788208 0.3635750412940979 -0.24632611870765686
-0.0324932709336280823 0.365812003612518311 -0.343984156847000122
-0.0398683547973632812 -0.317843347787857056 -0.153899982571601868
-0.0249195080250501633 -0.303425341844558716 -0.0564247332513332367
0.0879621505737304688 0.229598596692085266 -0.258873105049133301
0.15068371593952179 0.31200525164604187 -0.214391142129898071
0.169723823666572571 -0.394488036632537842 -0.0842807665467262268
0.198761612176895142 -0.287234485149383545 -0.113018147647380829
0.165462493896484375 0.176148667931556702 -0.205066189169883728
0.325840294361114502 0.253304213285446167 -0.240143731236457825
0.438462883234024048 0.177335038781166077 -0.237493708729743958
0.357472091913223267 -0.00525916693732142448 -0.13725319504737854
0.430207222700119019 -0.217367425560951233 -0.137658506631851196
0.338586151599884033 -0.224378451704978943 -0.236730173230171204
0.224081665277481079 -0.35838809609413147 -0.198987320065498352
0.402859032154083252 0.244042336940765381 -0.16133725643157959
0.464180290699005127 0.0295344293117523193 -0.139133527874946594
0.443345695734024048 -0.177052766084671021 -0.236813023686408997
-0.268303543329238892 0.352824002504348755 -0.0171691179275512695
-0.284717857837677002 0.241182833909988403 -0.0126520786434412003
-0.247255951166152954 0.0141267832368612289 0.016305048018693924
-0.25258222222328186 -0.197058454155921936 0.0573386736214160919
-0.177701309323310852 -0.246921226382255554 0.048366982489824295
-0.069815315306186676 0.151783376932144165 -0.0300796814262866974
-0.159678459167480469 0.211269304156303406 -0.0254410486668348312
-0.037062961608171463 -0.239578455686569214 -0.0427154675126075745
-0.127274185419082642 -0.236014217138290405 0.0124349193647503853
-0.047725040465593338 0.373073011636734009 -0.0265739355236291885
-0.0693718567490577698 -0.109463885426521301 -0.169045925140380859
0.0950320512056350708 0.211034700274467468 -0.0357456989586353302
0.138066604733467102 -0.132557123899459839 -0.267285704612731934
0.144120842218399048 0.311664581298828125 -0.0313546247780323029
0.325377762317657471 0.307194888591766357 -0.0200563669204711914
0.280741035938262939 -0.124891385436058044 -0.0506204329431056976
0.136062294244766235 -0.148075029253959656 -0.165708452463150024
0.247980743646621704 0.222677335143089294 -0.00490446854382753372
0.246518447995185852 0.0319947302341461182 -0.127245575189590454
0.244588837027549744 -0.19246847927570343 -0.134218931198120117
-0.275853455066680908 0.31758996844291687 0.215081170201301575
-0.369467735290527344 0.272413581609725952 0.213708862662315369
-0.363454818725585938 0.0563136711716651917 0.235739544034004211
-0.163903236389160156 -0.0321358554065227509 0.190420940518379211
-0.0661563873291015625 -0.107083253562450409 0.179675012826919556
-0.0405836105346679688 0.157260507345199585 0.189431101083755493
-0.149548843502998352 0.195401445031166077 0.197189435362815857
0.0143798189237713814 -0.0372600965201854706 0.044177372008562088
0.00550905847921967506 -0.100654557347297668 0.132096797227859497
0.00936826039105653763 0.378551959991455078 0.195347055792808533
0.124912254512310028 -0.0552773810923099518 -0.0555129833519458771
0.174584388732910156 0.237404271960258484 0.167300492525100708
0.167525604367256165 0.0956659764051437378 -0.23351152241230011
0.135207176208496094 0.342049002647399902 0.185950398445129395
0.267024040222167969 0.212235167622566223 0.174855589866638184
0.403162628412246704 -0.030637519434094429 -0.217278391122817993
0.236198097467422485 0.0251211952418088913 -0.258711755275726318
0.358734130859375 0.141050592064857483 0.161400631070137024
0.194932609796524048 0.0387654826045036316 0.068925812840461731
0.356936454772949219 0.00684265466406941414 -0.111848309636116028
-0.357413291931152344 0.293324589729309082 0.338679134845733643
-0.314915955066680908 0.0536468103528022766 0.315540224313735962
-0.209501579403877258 -0.113406412303447723 0.18729129433631897
-0.064512886106967926 0.162289738655090332 0.307318359613418579
-0.0821431428194046021 0.353828907012939453 0.314815819263458252
-0.178723335266113281 0.291313081979751587 0.386753052473068237
-0.159387588500976562 0.0743428319692611694 0.379316776990890503
-0.0541385002434253693 -0.11521584540605545 0.314745903015136719
0.0871292725205421448 -0.151123180985450745 0.0841450691223144531
-0.00464598322287201881 -0.0641480013728141785 0.195874959230422974
0.0278758984059095383 0.365265816450119019 0.3100452721118927
0.060008365660905838 0.340464353561401367 0.13589024543762207
0.0967025682330131531 0.0532265603542327881 -0.0323730707168579102
0.0954834595322608948 0.146753862500190735 0.116922251880168915
0.0682338029146194458 0.240443632006645203 0.130856037139892578
0.234786659479141235 0.20044080913066864 0.182445049285888672
0.250749588012695312 0.130070626735687256 -0.149998068809509277
0.260117828845977783 0.0440311133861541748 0.0239348392933607101
0.278960853815078735 0.0695367529988288879 0.132349327206611633
0.3620147705078125 0.220041856169700623 0.0779054537415504456
0.230159744620323181 0.0173473171889781952 -0.0856955796480178833
0.166405037045478821 0.132311269640922546 0.0126870470121502876
0.39137837290763855 -0.0276025403290987015 0.0562868490815162659
0.283773720264434814 -0.0377304255962371826 -0.106625951826572418
-0.0551843605935573578 0.258365124464035034 0.337723493576049805
-0.144945770502090454 0.0763630792498588562 0.277850419282913208
0.0396013259887695312 -0.0478059984743595123 0.294080168008804321
0.00477949762716889381 0.230996206402778625 0.117442801594734192
0.0116205215454101562 0.0049451594240963459 0.138698220252990723
0.150458008050918579 0.142810165882110596 0.224115639925003052
0.185077980160713196 0.108387775719165802 0.151348114013671875
0.158106476068496704 -0.0257485546171665192 -0.0227713584899902344
0.319444328546524048 0.0365478619933128357 0.113542869687080383
3 0 1 2
3 1 3 4
3 2 1 4
3 3 5 6
3 4 3 6
3 5 7 6
3 0 8 9
3 1 0 9
3 9 10 1
3 1 10 3
3 10 11 3
3 3 11 5
3 5 11 12
3 7 5 12
3 8 13 14
3 9 8 14
3 14 15 9
3 9 15 10
3 15 16 10
3 10 16 11
3 11 16 17
3 12 11 17
3 14 13 18
3 15 14 18
3 19 15 18
3 16 15 19
3 20 16 19
3 16 20 17
3 21 22 23
3 22 24 25
3 23 22 25
3 24 26 27
3 25 24 27
3 26 28 27
3 29 30 31
3 2 22 21
3 0 2 21
3 0 21 31
3 0 31 30
3 4 22 2
3 24 22 4
3 6 24 4
3 26 24 6
3 26 32 28
3 6 32 26
3 6 33 32
3 6 7 33
3 33 34 32
3 29 35 36
3 30 29 36
3 36 0 30
3 8 0 36
3 12 33 7
3 37 33 12
3 33 37 38
3 34 33 38
3 35 39 40
3 36 35 40
3 40 8 36
3 13 8 40
3 17 37 12
3 41 37 17
3 37 41 42
3 38 37 42
3 40 39 43
3 43 44 45
3 40 43 45
3 40 45 18
3 40 18 13
3 18 46 19
3 45 46 18
3 19 47 20
3 46 47 19
3 48 49 41
3 47 48 41
3 47 41 17
3 47 17 20
3 41 49 42
3 45 44 50
3 46 45 50
3 51 46 50
3 47 46 51
3 52 47 51
3 47 52 48
3 53 21 23
3 54 53 23
3 23 25 54
3 25 55 54
3 25 27 55
3 27 56 55
3 28 57 56
3 27 28 56
3 58 29 31
3 59 58 31
3 31 53 59
3 21 53 31
3 60 28 32
3 57 28 60
3 34 61 60
3 32 34 60
3 35 29 62
3 62 29 58
3 38 63 34
3 63 61 34
3 39 35 64
3 64 35 62
3 42 65 38
3 65 63 38
3 66 43 39
3 64 66 39
3 44 66 67
3 43 66 44
3 68 49 48
3 69 49 68
3 49 69 65
3 42 49 65
3 70 50 44
3 67 70 44
3 50 70 51
3 51 70 71
3 51 71 52
3 52 71 72
3 52 72 68
3 48 52 68
3 73 53 54
3 74 73 54
3 54 55 74
3 55 75 74
3 55 56 75
3 56 76 75
3 57 77 76
3 56 57 76
3 78 58 59
3 79 78 59
3 59 73 79
3 53 73 59
3 80 57 60
3 77 57 80
3 61 81 80
3 60 61 80
3 62 58 82
3 82 58 78
3 63 83 61
3 83 81 61
3 64 62 84
3 84 62 82
3 65 85 63
3 85 83 63
3 86 66 64
3 84 86 64
3 67 86 87
3 66 86 67
3 88 69 68
3 89 69 88
3 69 89 85
3 65 69 85
3 90 70 67
3 87 90 67
3 70 90 71
3 71 90 91
3 71 91 72
3 72 91 92
3 72 92 88
3 68 72 88
3 73 74 93
3 74 75 94
3 93 74 94
3 75 76 95
3 94 75 95
3 76 77 95
3 78 79 96
3 97 93 98
3 96 93 97
3 96 73 93
3 96 79 73
3 94 98 93
3 99 98 94
3 95 99 94
3 100 99 95
3 100 101 102
3 95 101 100
3 95 80 101
3 95 77 80
3 80 81 101
3 82 78 96
3 103 82 96
3 96 104 103
3 97 104 96
3 102 105 106
3 101 105 102
3 105 101 81
3 83 105 81
3 84 82 103
3 107 84 103
3 103 108 107
3 104 108 103
3 106 109 110
3 105 109 106
3 109 105 83
3 85 109 83
3 86 84 107
3 107 108 111
3 86 107 111
3 86 111 112
3 86 112 87
3 112 113 114
3 111 113 112
3 114 115 116
3 113 115 114
3 89 110 109
3 88 110 89
3 88 115 110
3 88 116 115
3 89 109 85
3 90 87 112
3 91 90 112
3 114 91 112
3 92 91 114
3 116 92 114
3 92 116 88
3 97 98 117
3 98 99 118
3 117 98 118
3 99 100 119
3 118 99 119
3 100 102 119
3 104 97 117
3 120 104 117
3 120 117 121
3 117 118 121
3 121 118 122
3 118 119 122
3 122 119 102
3 106 122 102
3 108 104 120
3 123 108 120
3 123 120 124
3 120 121 124
3 124 121 125
3 121 122 125
3 125 122 106
3 110 125 106
3 111 108 123
3 113 111 123
3 124 113 123
3 115 113 124
3 125 115 124
3 115 125 110
