ply
format ascii 1.0
comment VCGLIB generated
element vertex 126
property float x
property float y
property float z
element face 248
property list uchar int vertex_indices
end_header
-0.140355423092842102 0.273411363363265991 -0.479639053344726562
-0.132966354489326477 0.0900861844420433044 -0.512795150279998779
-0.314959198236465454 0.174669504165649414 -0.550422966480255127
-0.130341842770576477 -0.052053648978471756 -0.552711308002471924
-0.232106521725654602 -0.125179842114448547 -0.511498630046844482
-0.128625229001045227 -0.352207332849502563 -0.434211879968643188
-0.309179931879043579 -0.347058206796646118 -0.394804477691650391
-0.133047744631767273 -0.439651697874069214 -0.366667896509170532
0.0826873779296875 0.200573444366455078 -0.535784244537353516
0.011020660400390625 0.174400314688682556 -0.489886760711669922
0.091818489134311676 -0.126225650310516357 -0.449277251958847046
0.0166600551456212997 -0.267548650503158569 -0.489702224731445312
0.0104039506986737251 -0.434550374746322632 -0.343436390161514282
0.305423736572265625 0.206960096955299377 -0.432993561029434204
0.234437301754951477 0.102923564612865448 -0.545221507549285889
0.236214950680732727 -0.11870989203453064 -0.427276283502578735
0.23974609375 -0.339662045240402222 -0.468707889318466187
0.313343048095703125 -0.347511798143386841 -0.321358203887939453
0.325758606195449829 0.193410620093345642 -0.484605312347412109
0.32732391357421875 -0.0268909242004156113 -0.445798248052597046
0.40984344482421875 -0.327177166938781738 -0.328796863555908203
-0.465136200189590454 0.305419951677322388 -0.281217426061630249
-0.376190185546875 0.113482505083084106 -0.438954204320907593
-0.51564788818359375 0.128576323390007019 -0.269790023565292358
-0.452084869146347046 -0.0299135353416204453 -0.32159423828125
-0.434401184320449829 -0.092721104621887207 -0.309723526239395142
-0.448284149169921875 -0.329745560884475708 -0.282544940710067749
-0.431087493896484375 -0.313302189111709595 -0.192762851715087891
-0.459636688232421875 -0.329856663942337036 -0.249557808041572571
-0.165546417236328125 0.407266974449157715 -0.369041115045547485
-0.155343368649482727 0.419667154550552368 -0.377195835113525391
-0.261789947748184204 0.353327363729476929 -0.369426876306533813
-0.251333862543106079 -0.530019223690032959 -0.135488033294677734
-0.224132537841796875 -0.464190363883972168 -0.299954086542129517
-0.232329055666923523 -0.497825413942337036 -0.195066139101982117
-0.0218785610049962997 0.41360965371131897 -0.345350414514541626
-0.0107930498197674751 0.346876978874206543 -0.432996898889541626
0.07811737060546875 -0.458423256874084473 -0.276509761810302734
0.068705238401889801 -0.570122301578521729 -0.0926400795578956604
0.280527740716934204 0.50036996603012085 -0.243680641055107117
0.291230529546737671 0.354251593351364136 -0.410898059606552124
0.223719283938407898 -0.530468404293060303 -0.17530505359172821
0.212347671389579773 -0.485110878944396973 -0.149810627102851868
0.377223968505859375 0.373285889625549316 -0.225713565945625305
0.427195221185684204 0.331317991018295288 -0.190401077270507812
0.438096374273300171 0.218814179301261902 -0.347839206457138062
0.52027130126953125 -0.0817945003509521484 -0.230076789855957031
0.443347930908203125 -0.302126616239547729 -0.191185161471366882
0.433945983648300171 -0.38204541802406311 -0.0787227973341941833
0.3879241943359375 -0.431685537099838257 -0.0701022148132324219
0.558081328868865967 0.157487779855728149 -0.168445587158203125
0.480260223150253296 0.0157753247767686844 -0.208399608731269836
0.4835968017578125 -0.283964067697525024 -0.169337272644042969
-0.411244720220565796 0.264256268739700317 -0.141178444027900696
-0.460530608892440796 0.245512917637825012 -0.0501675605773925781
-0.456225067377090454 -0.0548930130898952484 -0.0898903235793113708
-0.455458313226699829 -0.196841821074485779 -0.0514068603515625
-0.48302459716796875 -0.291420549154281616 0.0490918159484863281
-0.189210250973701477 0.525569736957550049 -0.0706637725234031677
-0.36457061767578125 0.392925411462783813 -0.0716594085097312927
-0.275864928960800171 -0.491559267044067383 0.0837497711181640625
-0.177926376461982727 -0.459821581840515137 0.103572212159633636
0.033313751220703125 0.533599197864532471 -0.0458931922912597656
0.045711517333984375 -0.453534394502639771 0.126549407839775085
0.178188323974609375 0.538248181343078613 -0.102810382843017578
0.188573196530342102 -0.524793088436126709 0.148794963955879211
0.355471283197402954 0.413131266832351685 -0.084458671510219574
0.481600433588027954 0.291226416826248169 0.0287518501281738281
0.489674896001815796 -0.264658659696578979 0.141420677304267883
0.364290863275527954 -0.471756726503372192 0.0717541351914405823
0.454069763422012329 0.274870753288269043 -0.0269935932010412216
0.455767303705215454 0.0541246496140956879 0.0117796259000897408
0.45848846435546875 -0.24651046097278595 0.128926441073417664
-0.513697326183319092 0.301932841539382935 0.157050296664237976
-0.482785552740097046 0.203760460019111633 0.0905432701110839844
-0.480925232172012329 -0.0169908758252859116 0.20868857204914093
-0.557949066162109375 -0.158851757645606995 0.168126747012138367
-0.425706237554550171 -0.332528829574584961 0.190480545163154602
-0.292635589838027954 0.484386235475540161 0.0714740753173828125
-0.310516357421875 0.511909306049346924 0.0703042373061180115
-0.299378722906112671 -0.454181909561157227 0.225366756319999695
-0.279630035161972046 -0.420242577791213989 0.322376251220703125
0.00939687062054872513 0.571608960628509521 0.0938421860337257385
-0.056640625 -0.414216190576553345 0.266245037317276001
0.154534652829170227 0.578283607959747314 0.116124153137207031
0.166413620114326477 -0.408386111259460449 0.369241565465927124
0.330443054437637329 0.529577434062957764 0.135439872741699219
0.4579925537109375 0.33031657338142395 0.249377086758613586
0.465532928705215454 -0.304896026849746704 0.282152652740478516
0.262378692626953125 -0.354649215936660767 0.370914310216903687
0.509813964366912842 0.235301196575164795 0.192789390683174133
0.512154877185821533 0.0128977522253990173 0.310389667749404907
0.435751587152481079 -0.128728747367858887 0.349171161651611328
-0.521712005138397217 0.222067758440971375 0.270096302032470703
-0.519037902355194092 0.0805451720952987671 0.230851814150810242
-0.437699645757675171 -0.140607878565788269 0.347425132989883423
-0.301644653081893921 0.449333816766738892 0.254346519708633423
-0.235295608639717102 0.426592200994491577 0.322267681360244751
-0.410068511962890625 0.326998710632324219 0.328590720891952515
-0.40727996826171875 0.0267087426036596298 0.368034690618515015
-0.40404510498046875 -0.193573847413063049 0.406659126281738281
-0.290915161371231079 -0.432599872350692749 0.330996990203857422
-0.3053131103515625 -0.207018300890922546 0.513085424900054932
-0.078751884400844574 0.5373726487159729 0.198086738586425781
-0.090260826051235199 0.434882611036300659 0.344662517309188843
0.0115559892728924751 -0.425837874412536621 0.353141635656356812
-0.00368754076771438122 -0.279181569814682007 0.454859107732772827
0.223720550537109375 0.464269071817398071 0.299887180328369141
0.211688995361328125 0.441202551126480103 0.368005752563476562
0.155012771487236023 -0.340729802846908569 0.456062793731689453
0.139405563473701477 -0.192786917090415955 0.557502090930938721
0.230855301022529602 0.347402840852737427 0.394011974334716797
0.370508819818496704 0.328580945730209351 0.36213955283164978
0.233240768313407898 0.125288024544715881 0.511762380599975586
0.373139709234237671 0.0293934773653745651 0.400995254516601562
0.236159011721611023 -0.094668954610824585 0.551860034465789795
0.456105560064315796 -0.191210940480232239 0.36120191216468811
-0.317415863275527954 0.260939210653305054 0.466969490051269531
-0.314656585454940796 0.0389786399900913239 0.505781948566436768
-0.312138885259628296 -0.181919053196907043 0.466755539178848267
-0.09445953369140625 0.347408771514892578 0.490606695413589478
-0.0131734209135174751 0.0465011484920978546 0.529897391796112061
-0.089211784303188324 -0.0965970456600189209 0.568725407123565674
0.207792922854423523 0.353094935417175293 0.434758037328720093
0.209313705563545227 0.0530129969120025635 0.551403284072875977
0.211968734860420227 -0.167841807007789612 0.511461913585662842
3 0 1 2
3 1 3 4
3 2 1 4
3 3 5 6
3 4 3 6
3 5 7 6
3 0 8 9
3 1 0 9
3 9 10 1
3 1 10 3
3 10 11 3
3 3 11 5
3 5 11 12
3 7 5 12
3 8 13 14
3 9 8 14
3 14 15 9
3 9 15 10
3 15 16 10
3 10 16 11
3 11 16 17
3 12 11 17
3 14 13 18
3 15 14 18
3 19 15 18
3 16 15 19
3 20 16 19
3 16 20 17
3 21 22 23
3 22 24 25
3 23 22 25
3 24 26 27
3 25 24 27
3 26 28 27
3 29 30 31
3 2 22 21
3 0 2 21
3 0 21 31
3 0 31 30
3 4 22 2
3 24 22 4
3 6 24 4
3 26 24 6
3 26 32 28
3 6 32 26
3 6 33 32
3 6 7 33
3 33 34 32
3 29 35 36
3 30 29 36
3 36 0 30
3 8 0 36
3 12 33 7
3 37 33 12
3 33 37 38
3 34 33 38
3 35 39 40
3 36 35 40
3 40 8 36
3 13 8 40
3 17 37 12
3 41 37 17
3 37 41 42
3 38 37 42
3 40 39 43
3 43 44 45
3 40 43 45
3 40 45 18
3 40 18 13
3 18 46 19
3 45 46 18
3 19 47 20
3 46 47 19
3 48 49 41
3 47 48 41
3 47 41 17
3 47 17 20
3 41 49 42
3 45 44 50
3 46 45 50
3 51 46 50
3 47 46 51
3 52 47 51
3 47 52 48
3 53 21 23
3 54 53 23
3 23 25 54
3 25 55 54
3 25 27 55
3 27 56 55
3 28 57 56
3 27 28 56
3 58 29 31
3 59 58 31
3 31 53 59
3 21 53 31
3 60 28 32
3 57 28 60
3 34 61 60
3 32 34 60
3 35 29 62
3 62 29 58
3 38 63 34
3 63 61 34
3 39 35 64
3 64 35 62
3 42 65 38
3 65 63 38
3 66 43 39
3 64 66 39
3 44 66 67
3 43 66 44
3 68 49 48
3 69 49 68
3 49 69 65
3 42 49 65
3 70 50 44
3 67 70 44
3 50 70 51
3 51 70 71
3 51 71 52
3 52 71 72
3 52 72 68
3 48 52 68
3 73 53 54
3 74 73 54
3 54 55 74
3 55 75 74
3 55 56 75
3 56 76 75
3 57 77 76
3 56 57 76
3 78 58 59
3 79 78 59
3 59 73 79
3 53 73 59
3 80 57 60
3 77 57 80
3 61 81 80
3 60 61 80
3 62 58 82
3 82 58 78
3 63 83 61
3 83 81 61
3 64 62 84
3 84 62 82
3 65 85 63
3 85 83 63
3 86 66 64
3 84 86 64
3 67 86 87
3 66 86 67
3 88 69 68
3 89 69 88
3 69 89 85
3 65 69 85
3 90 70 67
3 87 90 67
3 70 90 71
3 71 90 91
3 71 91 72
3 72 91 92
3 72 92 88
3 68 72 88
3 73 74 93
3 74 75 94
3 93 74 94
3 75 76 95
3 94 75 95
3 76 77 95
3 78 79 96
3 97 93 98
3 96 93 97
3 96 73 93
3 96 79 73
3 94 98 93
3 99 98 94
3 95 99 94
3 100 99 95
3 100 101 102
3 95 101 100
3 95 80 101
3 95 77 80
3 80 81 101
3 82 78 96
3 103 82 96
3 96 104 103
3 97 104 96
3 102 105 106
3 101 105 102
3 105 101 81
3 83 105 81
3 84 82 103
3 107 84 103
3 103 108 107
3 104 108 103
3 106 109 110
3 105 109 106
3 109 105 83
3 85 109 83
3 86 84 107
3 107 108 111
3 86 107 111
3 86 111 112
3 86 112 87
3 112 113 114
3 111 113 112
3 114 115 116
3 113 115 114
3 89 110 109
3 88 110 89
3 88 115 110
3 88 116 115
3 89 109 85
3 90 87 112
3 91 90 112
3 114 91 112
3 92 91 114
3 116 92 114
3 92 116 88
3 97 98 117
3 98 99 118
3 117 98 118
3 99 100 119
3 118 99 119
3 100 102 119
3 104 97 117
3 120 104 117
3 120 117 121
3 117 118 121
3 121 118 122
3 118 119 122
3 122 119 102
3 106 122 102
3 108 104 120
3 123 108 120
3 123 120 124
3 120 121 124
3 124 121 125
3 121 122 125
3 125 122 106
3 110 125 106
3 111 108 123
3 113 111 123
3 124 113 123
3 115 113 124
3 125 115 124
3 115 125 110
