ply
format ascii 1.0
comment VCGLIB generated
element vertex 126
property float x
property float y
property float z
element face 248
property list uchar int vertex_indices
end_header
-0.1784820556640625 0.218004152178764343 -0.439445823431015015
-0.17830657958984375 0.117219991981983185 -0.402182906866073608
-0.244892120361328125 0.143780753016471863 -0.511108577251434326
-0.178333282470703125 -0.0668150559067726135 -0.416269779205322266
-0.274417877197265625 -0.0873830541968345642 -0.434664726257324219
-0.165182754397392273 -0.299523711204528809 -0.405360221862792969
-0.271484375 -0.288859635591506958 -0.454023838043212891
-0.198537185788154602 -0.422899991273880005 -0.381139278411865234
0.0299580898135900497 0.211503490805625916 -0.367311805486679077
0.03710174560546875 0.146818891167640686 -0.353849560022354126
0.0615704841911792755 -0.0966818705201148987 -0.342857033014297485
0.0402539558708667755 -0.275679230690002441 -0.398989826440811157
0.06078338623046875 -0.413028925657272339 -0.373023509979248047
0.253400176763534546 0.21763165295124054 -0.367964267730712891
0.279047638177871704 0.150459304451942444 -0.431696265935897827
0.258597046136856079 -0.0927249118685722351 -0.44102826714515686
0.285826355218887329 -0.281473934650421143 -0.417235374450683594
0.259029388427734375 -0.37658277153968811 -0.345503479242324829
0.369101196527481079 0.16453118622303009 -0.430338531732559204
0.3391265869140625 -0.0647036358714103699 -0.423235267400741577
0.373138427734375 -0.267926126718521118 -0.396170288324356079
-0.443714141845703125 0.245162084698677063 -0.286108821630477905
-0.415283203125 0.195117652416229248 -0.392089217901229858
-0.399782806634902954 0.19615800678730011 -0.275927215814590454
-0.400272369384765625 -0.0414392948150634766 -0.368621200323104858
-0.368176788091659546 -0.0316216014325618744 -0.25433763861656189
-0.395081847906112671 -0.258708924055099487 -0.291196346282958984
-0.352593749761581421 -0.248885467648506165 -0.227559402585029602
-0.385649353265762329 -0.340467721223831177 -0.197229385375976562
-0.20560455322265625 0.337707251310348511 -0.250296920537948608
-0.19952392578125 0.345432788133621216 -0.369599342346191406
-0.2867889404296875 0.39387202262878418 -0.277081817388534546
-0.278757721185684204 -0.454427331686019897 -0.137186363339424133
-0.178380325436592102 -0.461985081434249878 -0.23669607937335968
-0.184736892580986023 -0.50898587703704834 -0.157310172915458679
0.0170644130557775497 0.40765535831451416 -0.242173671722412109
0.03009033203125 0.395157724618911743 -0.358073711395263672
0.033306121826171875 -0.412167996168136597 -0.194001838564872742
0.033172607421875 -0.470034092664718628 -0.104080833494663239
0.250125885009765625 0.433776378631591797 -0.267465263605117798
0.260837554931640625 0.379273444414138794 -0.365286678075790405
0.244556427001953125 -0.469257473945617676 -0.190701797604560852
0.2629852294921875 -0.479135632514953613 -0.104098640382289886
0.33089447021484375 0.408628582954406738 -0.24903424084186554
0.495244354009628296 0.274292796850204468 -0.207990959286689758
0.458841949701309204 0.138718456029891968 -0.235102340579032898
0.361906677484512329 -0.0412172377109527588 -0.25603136420249939
0.449979156255722046 -0.230270788073539734 -0.198055580258369446
0.418038696050643921 -0.305535405874252319 -0.0909282341599464417
0.272527068853378296 -0.380974620580673218 -0.129841968417167664
0.383668273687362671 0.203524231910705566 -0.181333854794502258
0.444887787103652954 -0.0130321597680449486 -0.167240455746650696
0.384110778570175171 -0.232544347643852234 -0.13965924084186554
-0.454395294189453125 0.307098627090454102 -0.067677818238735199
-0.532586395740509033 0.228216350078582764 -0.0748424530029296875
-0.501439392566680908 0.00533118844032287598 -0.0334300994873046875
-0.381603240966796875 -0.195803150534629822 0.0117392539978027344
-0.324756622314453125 -0.288515478372573853 0.0224768314510583878
-0.2320556640625 0.43253171443939209 -0.0459720306098461151
-0.322826385498046875 0.432387977838516235 -0.0621774978935718536
-0.3126373291015625 -0.484328031539916992 0.0531284026801586151
-0.205103561282157898 -0.468609422445297241 0.0840754508972167969
-0.0438817329704761505 0.429908275604248047 -0.0148649215698242188
0.0114898681640625 -0.329971373081207275 0.0719496384263038635
0.219685867428779602 0.448846668004989624 -0.030635833740234375
0.224875137209892273 -0.362014740705490112 0.0963735580444335938
0.283991485834121704 0.404797285795211792 -0.0281780567020177841
0.428353637456893921 0.353097707033157349 0.0343112945556640625
0.416474670171737671 -0.278373181819915771 0.0942386016249656677
0.338770538568496704 -0.410087496042251587 0.113827228546142578
0.39145660400390625 0.236373528838157654 0.0244304332882165909
0.44205474853515625 0.0287612918764352798 0.0919739380478858948
0.37873077392578125 -0.192459180951118469 0.104003749787807465
-0.443665832281112671 0.27698931097984314 0.172043323516845703
-0.546140015125274658 0.263478189706802368 0.162932395935058594
-0.45694732666015625 0.0487819015979766846 0.148065879940986633
-0.433742523193359375 -0.156327560544013977 0.175166293978691101
-0.420728057622909546 -0.254643708467483521 0.212232589721679688
-0.204837799072265625 0.452474802732467651 0.175793007016181946
-0.320176452398300171 0.41479983925819397 0.170062065124511719
-0.354960113763809204 -0.390972733497619629 0.285925716161727905
-0.228570297360420227 -0.38096269965171814 0.281450748443603516
-0.095162712037563324 0.6098746657371521 0.207915142178535461
-0.0466931648552417755 -0.360241293907165527 0.319752693176269531
0.135527297854423523 0.556157171726226807 0.18808746337890625
0.186307266354560852 -0.411777228116989136 0.313323974609375
0.208469390869140625 0.48955237865447998 0.205353736877441406
0.361602783203125 0.368754982948303223 0.241162464022636414
0.36469268798828125 -0.21527649462223053 0.315338462591171265
0.278025299310684204 -0.37840619683265686 0.333487987518310547
0.318083435297012329 0.255612671375274658 0.23820813000202179
0.359649658203125 0.0590732097625732422 0.315828949213027954
0.367665618658065796 -0.162079200148582458 0.333250999450683594
-0.527634918689727783 0.317780554294586182 0.293955802917480469
-0.412026733160018921 0.11303739994764328 0.201125457882881165
-0.32192230224609375 -0.166371598839759827 0.231410026550292969
-0.231431320309638977 0.474393844604492188 0.257231861352920532
-0.308583587408065796 0.444306045770645142 0.435973972082138062
-0.373036712408065796 0.317472010850906372 0.388312965631484985
-0.377680450677871704 0.110343687236309052 0.354512691497802734
-0.3754119873046875 -0.121689289808273315 0.407394081354141235
-0.268731445074081421 -0.395316094160079956 0.387891918420791626
-0.271268218755722046 -0.23366643488407135 0.394412994384765625
-0.086683906614780426 0.649822890758514404 0.35439029335975647
-0.167177841067314148 0.537826955318450928 0.530037879943847656
-0.02153778076171875 -0.395747333765029907 0.428352832794189453
-0.054714202880859375 -0.204656317830085754 0.445524692535400391
0.144542694091796875 0.591153264045715332 0.313328742980957031
0.064600624144077301 0.585928857326507568 0.533305227756500244
0.189084365963935852 -0.356400966644287109 0.404637813568115234
0.1391754150390625 -0.183182969689369202 0.492869287729263306
0.155773162841796875 0.39781227707862854 0.492654174566268921
0.32782745361328125 0.296909898519515991 0.356560379266738892
0.170925140380859375 0.169737339019775391 0.528789520263671875
0.283039093017578125 0.0897467657923698425 0.410243183374404907
0.18866729736328125 -0.0911572203040122986 0.511646926403045654
0.352082580327987671 -0.0896643400192260742 0.409189224243164062
-0.346792846918106079 0.345198541879653931 0.465525954961776733
-0.342679351568222046 0.0615838803350925446 0.424533694982528687
-0.3284149169921875 -0.143807783722877502 0.401098400354385376
-0.123311363160610199 0.406011790037155151 0.480203956365585327
-0.109043121337890625 0.154633581638336182 0.496895164251327515
-0.099103294312953949 -0.137578800320625305 0.530789673328399658
0.0588658638298511505 0.416078299283981323 0.569247245788574219
0.104880012571811676 0.172188222408294678 0.439783245325088501
0.122516632080078125 -0.0637583732604980469 0.455554962158203125
3 0 1 2
3 1 3 4
3 2 1 4
3 3 5 6
3 4 3 6
3 5 7 6
3 0 8 9
3 1 0 9
3 9 10 1
3 1 10 3
3 10 11 3
3 3 11 5
3 5 11 12
3 7 5 12
3 8 13 14
3 9 8 14
3 14 15 9
3 9 15 10
3 15 16 10
3 10 16 11
3 11 16 17
3 12 11 17
3 14 13 18
3 15 14 18
3 19 15 18
3 16 15 19
3 20 16 19
3 16 20 17
3 21 22 23
3 22 24 25
3 23 22 25
3 24 26 27
3 25 24 27
3 26 28 27
3 29 30 31
3 2 22 21
3 0 2 21
3 0 21 31
3 0 31 30
3 4 22 2
3 24 22 4
3 6 24 4
3 26 24 6
3 26 32 28
3 6 32 26
3 6 33 32
3 6 7 33
3 33 34 32
3 29 35 36
3 30 29 36
3 36 0 30
3 8 0 36
3 12 33 7
3 37 33 12
3 33 37 38
3 34 33 38
3 35 39 40
3 36 35 40
3 40 8 36
3 13 8 40
3 17 37 12
3 41 37 17
3 37 41 42
3 38 37 42
3 40 39 43
3 43 44 45
3 40 43 45
3 40 45 18
3 40 18 13
3 18 46 19
3 45 46 18
3 19 47 20
3 46 47 19
3 48 49 41
3 47 48 41
3 47 41 17
3 47 17 20
3 41 49 42
3 45 44 50
3 46 45 50
3 51 46 50
3 47 46 51
3 52 47 51
3 47 52 48
3 53 21 23
3 54 53 23
3 23 25 54
3 25 55 54
3 25 27 55
3 27 56 55
3 28 57 56
3 27 28 56
3 58 29 31
3 59 58 31
3 31 53 59
3 21 53 31
3 60 28 32
3 57 28 60
3 34 61 60
3 32 34 60
3 35 29 62
3 62 29 58
3 38 63 34
3 63 61 34
3 39 35 64
3 64 35 62
3 42 65 38
3 65 63 38
3 66 43 39
3 64 66 39
3 44 66 67
3 43 66 44
3 68 49 48
3 69 49 68
3 49 69 65
3 42 49 65
3 70 50 44
3 67 70 44
3 50 70 51
3 51 70 71
3 51 71 52
3 52 71 72
3 52 72 68
3 48 52 68
3 73 53 54
3 74 73 54
3 54 55 74
3 55 75 74
3 55 56 75
3 56 76 75
3 57 77 76
3 56 57 76
3 78 58 59
3 79 78 59
3 59 73 79
3 53 73 59
3 80 57 60
3 77 57 80
3 61 81 80
3 60 61 80
3 62 58 82
3 82 58 78
3 63 83 61
3 83 81 61
3 64 62 84
3 84 62 82
3 65 85 63
3 85 83 63
3 86 66 64
3 84 86 64
3 67 86 87
3 66 86 67
3 88 69 68
3 89 69 88
3 69 89 85
3 65 69 85
3 90 70 67
3 87 90 67
3 70 90 71
3 71 90 91
3 71 91 72
3 72 91 92
3 72 92 88
3 68 72 88
3 73 74 93
3 74 75 94
3 93 74 94
3 75 76 95
3 94 75 95
3 76 77 95
3 78 79 96
3 97 93 98
3 96 93 97
3 96 73 93
3 96 79 73
3 94 98 93
3 99 98 94
3 95 99 94
3 100 99 95
3 100 101 102
3 95 101 100
3 95 80 101
3 95 77 80
3 80 81 101
3 82 78 96
3 103 82 96
3 96 104 103
3 97 104 96
3 102 105 106
3 101 105 102
3 105 101 81
3 83 105 81
3 84 82 103
3 107 84 103
3 103 108 107
3 104 108 103
3 106 109 110
3 105 109 106
3 109 105 83
3 85 109 83
3 86 84 107
3 107 108 111
3 86 107 111
3 86 111 112
3 86 112 87
3 112 113 114
3 111 113 112
3 114 115 116
3 113 115 114
3 89 110 109
3 88 110 89
3 88 115 110
3 88 116 115
3 89 109 85
3 90 87 112
3 91 90 112
3 114 91 112
3 92 91 114
3 116 92 114
3 92 116 88
3 97 98 117
3 98 99 118
3 117 98 118
3 99 100 119
3 118 99 119
3 100 102 119
3 104 97 117
3 120 104 117
3 120 117 121
3 117 118 121
3 121 118 122
3 118 119 122
3 122 119 102
3 106 122 102
3 108 104 120
3 123 108 120
3 123 120 124
3 120 121 124
3 124 121 125
3 121 122 125
3 125 122 106
3 110 125 106
3 111 108 123
3 113 111 123
3 124 113 123
3 115 113 124
3 125 115 124
3 115 125 110
