ply
format ascii 1.0
comment VCGLIB generated
element vertex 126
property float x
property float y
property float z
element face 248
property list uchar int vertex_indices
end_header
-0.163204193115234375 0.227969884872436523 -0.508527934551239014
-0.149992629885673523 0.121022678911685944 -0.499037414789199829
-0.252137511968612671 0.129662320017814636 -0.548424065113067627
-0.159229278564453125 -0.011804371140897274 -0.338600486516952515
-0.273616790771484375 -0.055849030613899231 -0.397589057683944702
-0.155270889401435852 -0.241846442222595215 -0.422014236450195312
-0.167292281985282898 -0.231131196022033691 -0.287325054407119751
-0.07218170166015625 -0.268712699413299561 -0.299656063318252563
0.0345776863396167755 0.243245065212249756 -0.433634430170059204
0.0254236850887537003 0.127877995371818542 -0.386403709650039673
0.0476595573127269745 -0.0661207735538482666 -0.300140708684921265
0.0428034476935863495 -0.285860329866409302 -0.375240802764892578
0.075743354856967926 -0.401342481374740601 -0.385001510381698608
0.261163085699081421 0.240071937441825867 -0.417888015508651733
0.254736572504043579 0.166174814105033875 -0.353583186864852905
0.281672149896621704 -0.0547734051942825317 -0.311962604522705078
0.244265243411064148 -0.291290342807769775 -0.306732505559921265
0.271090179681777954 -0.399837970733642578 -0.353669971227645874
0.351259857416152954 0.13985992968082428 -0.431425422430038452
0.279254913330078125 -0.0644132271409034729 -0.404294967651367188
0.32913970947265625 -0.278635233640670776 -0.350558429956436157
-0.320036560297012329 0.19468022882938385 -0.273730427026748657
-0.380212157964706421 0.176129698753356934 -0.41084560751914978
-0.401652008295059204 0.126936823129653931 -0.311470836400985718
-0.39865875244140625 -0.0358199961483478546 -0.316233783960342407
-0.290882110595703125 -0.0616365484893321991 -0.2716827392578125
-0.344989776611328125 -0.221843406558036804 -0.205671310424804688
-0.413256317377090454 -0.278264552354812622 -0.254904747009277344
-0.350555419921875 -0.349588990211486816 -0.202629566192626953
-0.19263458251953125 0.317058682441711426 -0.311518341302871704
-0.18360137939453125 0.375612378120422363 -0.411951214075088501
-0.299527496099472046 0.354310840368270874 -0.335369259119033813
-0.262456268072128296 -0.489078432321548462 -0.152638271450996399
-0.131534576416015625 -0.387893229722976685 -0.159178733825683594
-0.213189437985420227 -0.461829632520675659 -0.100730575621128082
0.0184796657413244247 0.343603998422622681 -0.306677490472793579
0.0353495292365550995 0.408186584711074829 -0.39311981201171875
0.0230089817196130753 -0.473570346832275391 -0.21322043240070343
0.036930084228515625 -0.460486292839050293 -0.0984218940138816833
0.225935623049736023 0.343443870544433594 -0.297967284917831421
0.25800323486328125 0.398791104555130005 -0.360556453466415405
0.220125839114189148 -0.486954450607299805 -0.200103446841239929
0.236942291259765625 -0.391799718141555786 -0.13098590075969696
0.321895599365234375 0.388924241065979004 -0.270420074462890625
0.443442016839981079 0.268544524908065796 -0.226536750793457031
0.432071685791015625 0.139832049608230591 -0.244221687316894531
0.307682037353515625 -0.0428858138620853424 -0.209300681948661804
0.40363311767578125 -0.221118167042732239 -0.203804492950439453
0.3492431640625 -0.276104778051376343 -0.0961012840270996094
0.327082306146621704 -0.463683754205703735 -0.11065896600484848
0.354306548833847046 0.196701332926750183 -0.18267822265625
0.27672576904296875 -0.00743371294811367989 -0.132110118865966797
0.303652435541152954 -0.225790932774543762 -0.1349945068359375
-0.42983245849609375 0.240677297115325928 -0.0887719765305519104
-0.353883117437362671 0.184178784489631653 -0.0988327637314796448
-0.355786651372909546 -0.0221190210431814194 -0.0773781165480613708
-0.406545013189315796 -0.223535791039466858 -0.0136156082153320312
-0.37084197998046875 -0.329336017370223999 0.0136896772310137749
-0.229769393801689148 0.35469663143157959 -0.105023860931396484
-0.318944305181503296 0.399023890495300293 -0.095338188111782074
-0.338919311761856079 -0.511852741241455078 0.0641209259629249573
-0.242029830813407898 -0.577859938144683838 0.10903564840555191
0.00120290124323219061 0.384551972150802612 -0.090847015380859375
-0.003154754638671875 -0.533278167247772217 0.114019393920898438
0.203127548098564148 0.439310908317565918 -0.072469078004360199
0.210276290774345398 -0.417132019996643066 0.113917030394077301
0.323908478021621704 0.445865601301193237 -0.0586231537163257599
0.423947662115097046 0.327132999897003174 -0.0353446006774902344
0.392513275146484375 -0.291308015584945679 0.119394458830356598
0.29170989990234375 -0.435735583305358887 0.107941627502441406
0.422650665044784546 0.235929831862449646 0.011092345230281353
0.3541259765625 0.0271922368556261063 0.0502233505249023438
0.339229583740234375 -0.201169252395629883 0.0878090858459472656
-0.436917632818222046 0.273173302412033081 0.128244876861572266
-0.345288604497909546 0.226327702403068542 0.137312725186347961
-0.318761199712753296 0.00922198779881000519 0.156660079956054688
-0.341365814208984375 -0.202745333313941956 0.224182292819023132
-0.343476623296737671 -0.297432988882064819 0.209931686520576477
-0.232008621096611023 0.400749564170837402 0.108807086944580078
-0.33506011962890625 0.441277503967285156 0.106309734284877777
-0.325328826904296875 -0.445031285285949707 0.290238052606582642
-0.268942505121231079 -0.490249395370483398 0.314058303833007812
-0.0157457981258630753 0.381997138261795044 0.131077125668525696
-0.0586611442267894745 -0.388751715421676636 0.295937687158584595
0.216289520263671875 0.358193188905715942 0.132653400301933289
0.164494827389717102 -0.329054981470108032 0.299787998199462891
0.278292328119277954 0.423500984907150269 0.173670604825019836
0.420191437005996704 0.341358035802841187 0.203278705477714539
0.388615936040878296 -0.269031822681427002 0.323052883148193359
0.251359313726425171 -0.385062247514724731 0.31885877251625061
0.375151306390762329 0.272757381200790405 0.22384198009967804
0.401429504156112671 0.0575368143618106842 0.254391521215438843
0.385631561279296875 -0.155645251274108887 0.297406822443008423
-0.419584900140762329 0.178119838237762451 0.208369731903076172
-0.338366180658340454 0.000488653895445168018 0.274933189153671265
-0.446938842535018921 -0.192346349358558655 0.258955955505371094
-0.243778228759765625 0.455006808042526245 0.206404045224189758
-0.25665283203125 0.345034152269363403 0.359947830438613892
-0.37845611572265625 0.265255004167556763 0.371808677911758423
-0.387163788080215454 0.051534745842218399 0.432227283716201782
-0.381944030523300171 -0.175488188862800598 0.44267001748085022
-0.266576141119003296 -0.426312804222106934 0.409370899200439453
-0.289129883050918579 -0.272612780332565308 0.497766494750976562
-0.01605224609375 0.405309200286865234 0.208011627197265625
-0.0352490730583667755 0.337908744812011719 0.375442653894424438
-0.050273895263671875 -0.409620314836502075 0.383759498596191406
-0.075809478759765625 -0.230382680892944336 0.368338257074356079
0.180844619870185852 0.288335412740707397 0.181940391659736633
0.159865066409111023 0.2050810307264328 0.358441352844238281
0.148718520998954773 -0.364801734685897827 0.426439613103866577
0.114803314208984375 -0.21035003662109375 0.458105713129043579
0.291451781988143921 0.260096639394760132 0.427037864923477173
0.446544647216796875 0.282037258148193359 0.336720794439315796
0.240706130862236023 0.0413424558937549591 0.347830295562744141
0.417607635259628296 0.0523212365806102753 0.378614276647567749
0.219033554196357727 -0.120852828025817871 0.515083372592926025
0.39482879638671875 -0.16129361093044281 0.40647539496421814
-0.266259521245956421 0.26896783709526062 0.425256103277206421
-0.271287292242050171 0.0394232310354709625 0.460769802331924438
-0.263361603021621704 -0.17845742404460907 0.505213320255279541
-0.0565032958984375 0.276652425527572632 0.276051849126815796
-0.0557645149528980255 0.0549621433019638062 0.330327510833740234
-0.062920890748500824 -0.152802035212516785 0.420761913061141968
0.173862457275390625 0.28231889009475708 0.371506690979003906
0.129564926028251648 0.0754014477133750916 0.416048526763916016
0.164581298828125 -0.130843788385391235 0.425873607397079468
3 0 1 2
3 1 3 4
3 2 1 4
3 3 5 6
3 4 3 6
3 5 7 6
3 0 8 9
3 1 0 9
3 9 10 1
3 1 10 3
3 10 11 3
3 3 11 5
3 5 11 12
3 7 5 12
3 8 13 14
3 9 8 14
3 14 15 9
3 9 15 10
3 15 16 10
3 10 16 11
3 11 16 17
3 12 11 17
3 14 13 18
3 15 14 18
3 19 15 18
3 16 15 19
3 20 16 19
3 16 20 17
3 21 22 23
3 22 24 25
3 23 22 25
3 24 26 27
3 25 24 27
3 26 28 27
3 29 30 31
3 2 22 21
3 0 2 21
3 0 21 31
3 0 31 30
3 4 22 2
3 24 22 4
3 6 24 4
3 26 24 6
3 26 32 28
3 6 32 26
3 6 33 32
3 6 7 33
3 33 34 32
3 29 35 36
3 30 29 36
3 36 0 30
3 8 0 36
3 12 33 7
3 37 33 12
3 33 37 38
3 34 33 38
3 35 39 40
3 36 35 40
3 40 8 36
3 13 8 40
3 17 37 12
3 41 37 17
3 37 41 42
3 38 37 42
3 40 39 43
3 43 44 45
3 40 43 45
3 40 45 18
3 40 18 13
3 18 46 19
3 45 46 18
3 19 47 20
3 46 47 19
3 48 49 41
3 47 48 41
3 47 41 17
3 47 17 20
3 41 49 42
3 45 44 50
3 46 45 50
3 51 46 50
3 47 46 51
3 52 47 51
3 47 52 48
3 53 21 23
3 54 53 23
3 23 25 54
3 25 55 54
3 25 27 55
3 27 56 55
3 28 57 56
3 27 28 56
3 58 29 31
3 59 58 31
3 31 53 59
3 21 53 31
3 60 28 32
3 57 28 60
3 34 61 60
3 32 34 60
3 35 29 62
3 62 29 58
3 38 63 34
3 63 61 34
3 39 35 64
3 64 35 62
3 42 65 38
3 65 63 38
3 66 43 39
3 64 66 39
3 44 66 67
3 43 66 44
3 68 49 48
3 69 49 68
3 49 69 65
3 42 49 65
3 70 50 44
3 67 70 44
3 50 70 51
3 51 70 71
3 51 71 52
3 52 71 72
3 52 72 68
3 48 52 68
3 73 53 54
3 74 73 54
3 54 55 74
3 55 75 74
3 55 56 75
3 56 76 75
3 57 77 76
3 56 57 76
3 78 58 59
3 79 78 59
3 59 73 79
3 53 73 59
3 80 57 60
3 77 57 80
3 61 81 80
3 60 61 80
3 62 58 82
3 82 58 78
3 63 83 61
3 83 81 61
3 64 62 84
3 84 62 82
3 65 85 63
3 85 83 63
3 86 66 64
3 84 86 64
3 67 86 87
3 66 86 67
3 88 69 68
3 89 69 88
3 69 89 85
3 65 69 85
3 90 70 67
3 87 90 67
3 70 90 71
3 71 90 91
3 71 91 72
3 72 91 92
3 72 92 88
3 68 72 88
3 73 74 93
3 74 75 94
3 93 74 94
3 75 76 95
3 94 75 95
3 76 77 95
3 78 79 96
3 97 93 98
3 96 93 97
3 96 73 93
3 96 79 73
3 94 98 93
3 99 98 94
3 95 99 94
3 100 99 95
3 100 101 102
3 95 101 100
3 95 80 101
3 95 77 80
3 80 81 101
3 82 78 96
3 103 82 96
3 96 104 103
3 97 104 96
3 102 105 106
3 101 105 102
3 105 101 81
3 83 105 81
3 84 82 103
3 107 84 103
3 103 108 107
3 104 108 103
3 106 109 110
3 105 109 106
3 109 105 83
3 85 109 83
3 86 84 107
3 107 108 111
3 86 107 111
3 86 111 112
3 86 112 87
3 112 113 114
3 111 113 112
3 114 115 116
3 113 115 114
3 89 110 109
3 88 110 89
3 88 115 110
3 88 116 115
3 89 109 85
3 90 87 112
3 91 90 112
3 114 91 112
3 92 91 114
3 116 92 114
3 92 116 88
3 97 98 117
3 98 99 118
3 117 98 118
3 99 100 119
3 118 99 119
3 100 102 119
3 104 97 117
3 120 104 117
3 120 117 121
3 117 118 121
3 121 118 122
3 118 119 122
3 122 119 102
3 106 122 102
3 108 104 120
3 123 108 120
3 123 120 124
3 120 121 124
3 124 121 125
3 121 122 125
3 125 122 106
3 110 125 106
3 111 108 123
3 113 111 123
3 124 113 123
3 115 113 124
3 125 115 124
3 115 125 110
