ply
format ascii 1.0
comment VCGLIB generated
element vertex 126
property float x
property float y
property float z
element face 248
property list uchar int vertex_indices
end_header
-0.425502777099609375 0.226212576031684875 -0.456016868352890015
-0.382297515869140625 0.128361999988555908 -0.481556087732315063
-0.397931426763534546 0.114407248795032501 -0.377373069524765015
-0.3183746337890625 -0.0897618755698204041 -0.498044818639755249
-0.364869445562362671 -0.10839516669511795 -0.412379413843154907
-0.178586319088935852 -0.0653145834803581238 -0.323095798492431641
-0.245917007327079773 -0.0157034862786531448 -0.259854167699813843
-0.137720748782157898 -0.0925200507044792175 -0.21783764660358429
-0.206995651125907898 0.249155282974243164 -0.431523174047470093
-0.1740570068359375 0.188018098473548889 -0.528056800365447998
-0.108315788209438324 -0.0316502079367637634 -0.481341838836669922
-0.0548299141228199005 -0.236522242426872253 -0.394838660955429077
-0.0353800468146800995 -0.264260709285736084 -0.293558746576309204
-0.00264739990234375 0.310133635997772217 -0.365207821130752563
0.0368143729865550995 0.252274274826049805 -0.450421005487442017
0.088160194456577301 0.0365717969834804535 -0.412934154272079468
0.156280517578125 -0.175950214266777039 -0.374321609735488892
0.180890396237373352 -0.258467346429824829 -0.303758472204208374
0.130399063229560852 0.284737855195999146 -0.388249248266220093
0.18256378173828125 0.0728019624948501587 -0.379207760095596313
0.242483779788017273 -0.136150062084197998 -0.323395729064941406
-0.633363068103790283 0.157615736126899719 -0.230881378054618835
-0.524059295654296875 0.0962784215807914734 -0.26750674843788147
-0.629364013671875 0.0622878037393093109 -0.231264755129814148
-0.451151520013809204 -0.102509021759033203 -0.282306045293807983
-0.513792693614959717 -0.136372655630111694 -0.192762851715087891
-0.328083038330078125 -0.145208790898323059 -0.176754951477050781
-0.340315490961074829 -0.241805329918861389 -0.170553684234619141
-0.231076553463935852 -0.197900846600532532 -0.14303763210773468
-0.466383606195449829 0.310027986764907837 -0.209803745150566101
-0.4631500244140625 0.335527926683425903 -0.318378448486328125
-0.568899810314178467 0.337736517190933228 -0.234964370727539062
-0.166534423828125 -0.137935653328895569 0.0360643081367015839
-0.075703941285610199 -0.0831193104386329651 -0.0546145439147949219
-0.15740966796875 -0.173171922564506531 -0.0665043219923973083
-0.284464508295059204 0.436681389808654785 -0.211768940091133118
-0.245134994387626648 0.379857033491134644 -0.302032470703125
-0.0535405464470386505 -0.281780809164047241 -0.121371112763881683
-0.0151087446138262749 -0.339123159646987915 -0.035964328795671463
-0.0654296875 0.445207983255386353 -0.194037437438964844
-0.0579744987189769745 0.336603730916976929 -0.196356460452079773
0.166898086667060852 -0.328878164291381836 -0.144638702273368835
0.1891326904296875 -0.259071558713912964 -0.067438758909702301
0.038845062255859375 0.436786681413650513 -0.180851295590400696
0.205663040280342102 0.370149165391921997 -0.150862053036689758
0.248513534665107727 0.276986241340637207 -0.244204998016357422
0.172955825924873352 0.07028922438621521 -0.197742938995361328
0.352071136236190796 -0.066530667245388031 -0.20074780285358429
0.384230285882949829 -0.163307443261146545 -0.106824874877929688
0.290330260992050171 -0.309718906879425049 -0.0896948203444480896
0.274541229009628296 0.287784546613693237 -0.130686759948730469
0.18650054931640625 0.0902121886610984802 -0.0865136757493019104
0.295893341302871704 -0.10246005654335022 -0.110821403563022614
-0.598537445068359375 0.194467291235923767 -0.0149323148652911186
-0.613049805164337158 0.109937846660614014 -0.0085345907136797905
-0.553845703601837158 -0.116873174905776978 0.0096348123624920845
-0.33911895751953125 -0.224523678421974182 0.0786865577101707458
-0.251104980707168579 -0.257582545280456543 0.0675145760178565979
-0.489290863275527954 0.360591381788253784 0.00667333602905273438
-0.587418854236602783 0.350911140441894531 -0.0231970157474279404
-0.150964096188545227 -0.30403098464012146 0.166688919067382812
-0.217023208737373352 -0.249784305691719055 0.147974655032157898
-0.27796173095703125 0.4312877357006073 0.0110195474699139595
0.0147832231596112251 -0.291227459907531738 0.169995620846748352
-0.076719917356967926 0.523020267486572266 0.0171731319278478622
0.23630523681640625 -0.258069455623626709 0.141473293304443359
0.0133463544771075249 0.463922053575515747 0.0417718887329101562
0.140972137451171875 0.339670300483703613 0.0622161217033863068
0.403467804193496704 -0.14349973201751709 0.11454232782125473
0.34217071533203125 -0.294341176748275757 0.148505851626396179
0.244620010256767273 0.354236215353012085 0.0892798081040382385
0.290903717279434204 0.131629392504692078 0.105686508119106293
0.311466217041015625 -0.0880636200308799744 0.115885257720947266
-0.702320098876953125 0.229761883616447449 0.185323551297187805
-0.720556914806365967 0.134534195065498352 0.201834678649902344
-0.53752899169921875 0.0823750719428062439 0.118666015565395355
-0.312847137451171875 0.00156599271576851606 0.159749820828437805
-0.2586669921875 -0.090669684112071991 0.178568050265312195
-0.52822113037109375 0.463560670614242554 0.196159526705741882
-0.571123778820037842 0.357709020376205444 0.202098533511161804
-0.07036590576171875 -0.0674652084708213806 0.161915138363838196
-0.118287406861782074 -0.0704104527831077576 0.24137432873249054
-0.303208678960800171 0.490871280431747437 0.224986717104911804
0.039386749267578125 -0.160704895853996277 0.349898010492324829
-0.082897186279296875 0.519168198108673096 0.244622543454170227
0.255832672119140625 -0.160838603973388672 0.326765537261962891
-0.0752410888671875 0.400438189506530762 0.242280483245849609
0.082742057740688324 0.338516950607299805 0.278061389923095703
0.488230377435684204 -0.045176040381193161 0.288110733032226562
0.3890228271484375 -0.157245874404907227 0.308888286352157593
0.184795379638671875 0.355044454336166382 0.307332664728164673
0.270581573247909546 0.127773985266685486 0.327300548553466797
0.393716186285018921 -0.0716174468398094177 0.323904663324356079
-0.62946319580078125 0.15961921215057373 0.286274433135986328
-0.437441498041152954 0.0496959872543811798 0.201385185122489929
-0.301961272954940796 -0.00977735407650470734 0.0590308494865894318
-0.53015899658203125 0.439554184675216675 0.315871238708496094
-0.471861511468887329 0.255367904901504517 0.432587146759033203
-0.476445525884628296 0.128408417105674744 0.408589363098144531
-0.282251983880996704 0.133733063936233521 0.291852474212646484
-0.280553191900253296 -0.0643749088048934937 0.26991000771522522
-0.0102551775053143501 -0.00416661426424980164 0.224383994936943054
-0.18796539306640625 -0.0384281836450099945 0.239153221249580383
-0.305699676275253296 0.406716197729110718 0.310276985168457031
-0.296059936285018921 0.369283318519592285 0.520190775394439697
0.078818000853061676 -0.056187748908996582 0.392509132623672485
-0.0312932319939136505 -0.0756245627999305725 0.244139358401298523
-0.0888824462890625 0.469846576452255249 0.356493473052978516
-0.077349342405796051 0.369961977005004883 0.49947047233581543
0.289086669683456421 -0.127121105790138245 0.388068050146102905
0.136547088623046875 -0.0662808865308761597 0.336672931909561157
0.038280487060546875 0.27482914924621582 0.527588188648223877
0.132097885012626648 0.311699420213699341 0.399110466241836548
0.06412506103515625 0.0178166311234235764 0.466519832611083984
0.183167770504951477 0.103550039231777191 0.365320056676864624
0.2115478515625 -0.150778099894523621 0.317902237176895142
0.343110412359237671 -0.00718764215707778931 0.302298545837402344
-0.389231353998184204 0.196854248642921448 0.386836051940917969
-0.242064163088798523 0.081981949508190155 0.392538875341415405
-0.154908493161201477 -0.0834387317299842834 0.313791900873184204
-0.192258194088935852 0.165219858288764954 0.532815217971801758
-0.138163253664970398 -0.019163006916642189 0.363148212432861328
0.000536600768100470304 -0.146713167428970337 0.312194675207138062
-0.0218798313289880753 0.234401926398277283 0.513950526714324951
0.072987876832485199 0.0198195073753595352 0.38441196084022522
0.143559768795967102 -0.0984943211078643799 0.26368442177772522
3 0 1 2
3 1 3 4
3 2 1 4
3 3 5 6
3 4 3 6
3 5 7 6
3 0 8 9
3 1 0 9
3 9 10 1
3 1 10 3
3 10 11 3
3 3 11 5
3 5 11 12
3 7 5 12
3 8 13 14
3 9 8 14
3 14 15 9
3 9 15 10
3 15 16 10
3 10 16 11
3 11 16 17
3 12 11 17
3 14 13 18
3 15 14 18
3 19 15 18
3 16 15 19
3 20 16 19
3 16 20 17
3 21 22 23
3 22 24 25
3 23 22 25
3 24 26 27
3 25 24 27
3 26 28 27
3 29 30 31
3 2 22 21
3 0 2 21
3 0 21 31
3 0 31 30
3 4 22 2
3 24 22 4
3 6 24 4
3 26 24 6
3 26 32 28
3 6 32 26
3 6 33 32
3 6 7 33
3 33 34 32
3 29 35 36
3 30 29 36
3 36 0 30
3 8 0 36
3 12 33 7
3 37 33 12
3 33 37 38
3 34 33 38
3 35 39 40
3 36 35 40
3 40 8 36
3 13 8 40
3 17 37 12
3 41 37 17
3 37 41 42
3 38 37 42
3 40 39 43
3 43 44 45
3 40 43 45
3 40 45 18
3 40 18 13
3 18 46 19
3 45 46 18
3 19 47 20
3 46 47 19
3 48 49 41
3 47 48 41
3 47 41 17
3 47 17 20
3 41 49 42
3 45 44 50
3 46 45 50
3 51 46 50
3 47 46 51
3 52 47 51
3 47 52 48
3 53 21 23
3 54 53 23
3 23 25 54
3 25 55 54
3 25 27 55
3 27 56 55
3 28 57 56
3 27 28 56
3 58 29 31
3 59 58 31
3 31 53 59
3 21 53 31
3 60 28 32
3 57 28 60
3 34 61 60
3 32 34 60
3 35 29 62
3 62 29 58
3 38 63 34
3 63 61 34
3 39 35 64
3 64 35 62
3 42 65 38
3 65 63 38
3 66 43 39
3 64 66 39
3 44 66 67
3 43 66 44
3 68 49 48
3 69 49 68
3 49 69 65
3 42 49 65
3 70 50 44
3 67 70 44
3 50 70 51
3 51 70 71
3 51 71 52
3 52 71 72
3 52 72 68
3 48 52 68
3 73 53 54
3 74 73 54
3 54 55 74
3 55 75 74
3 55 56 75
3 56 76 75
3 57 77 76
3 56 57 76
3 78 58 59
3 79 78 59
3 59 73 79
3 53 73 59
3 80 57 60
3 77 57 80
3 61 81 80
3 60 61 80
3 62 58 82
3 82 58 78
3 63 83 61
3 83 81 61
3 64 62 84
3 84 62 82
3 65 85 63
3 85 83 63
3 86 66 64
3 84 86 64
3 67 86 87
3 66 86 67
3 88 69 68
3 89 69 88
3 69 89 85
3 65 69 85
3 90 70 67
3 87 90 67
3 70 90 71
3 71 90 91
3 71 91 72
3 72 91 92
3 72 92 88
3 68 72 88
3 73 74 93
3 74 75 94
3 93 74 94
3 75 76 95
3 94 75 95
3 76 77 95
3 78 79 96
3 97 93 98
3 96 93 97
3 96 73 93
3 96 79 73
3 94 98 93
3 99 98 94
3 95 99 94
3 100 99 95
3 100 101 102
3 95 101 100
3 95 80 101
3 95 77 80
3 80 81 101
3 82 78 96
3 103 82 96
3 96 104 103
3 97 104 96
3 102 105 106
3 101 105 102
3 105 101 81
3 83 105 81
3 84 82 103
3 107 84 103
3 103 108 107
3 104 108 103
3 106 109 110
3 105 109 106
3 109 105 83
3 85 109 83
3 86 84 107
3 107 108 111
3 86 107 111
3 86 111 112
3 86 112 87
3 112 113 114
3 111 113 112
3 114 115 116
3 113 115 114
3 89 110 109
3 88 110 89
3 88 115 110
3 88 116 115
3 89 109 85
3 90 87 112
3 91 90 112
3 114 91 112
3 92 91 114
3 116 92 114
3 92 116 88
3 97 98 117
3 98 99 118
3 117 98 118
3 99 100 119
3 118 99 119
3 100 102 119
3 104 97 117
3 120 104 117
3 120 117 121
3 117 118 121
3 121 118 122
3 118 119 122
3 122 119 102
3 106 122 102
3 108 104 120
3 123 108 120
3 123 120 124
3 120 121 124
3 124 121 125
3 121 122 125
3 125 122 106
3 110 125 106
3 111 108 123
3 113 111 123
3 124 113 123
3 115 113 124
3 125 115 124
3 115 125 110
