ply
format ascii 1.0
comment VCGLIB generated
element vertex 126
property float x
property float y
property float z
element face 248
property list uchar int vertex_indices
end_header
-0.154282882809638977 0.231808245182037354 -0.514720439910888672
-0.125544235110282898 0.155404254794120789 -0.43880954384803772
-0.2297210693359375 0.125463679432868958 -0.465295642614364624
-0.131692245602607727 -0.0639486387372016907 -0.439161777496337891
-0.2087554931640625 -0.0705966949462890625 -0.35780683159828186
-0.130972549319267273 -0.28456529974937439 -0.456222057342529297
-0.226528167724609375 -0.291954129934310913 -0.396488338708877563
-0.107304893434047699 -0.239070728421211243 -0.358001083135604858
0.07232666015625 0.239451482892036438 -0.492067664861679077
0.077229820191860199 0.139012768864631653 -0.541565895080566406
0.085386909544467926 -0.0774755999445915222 -0.479502052068710327
0.087972007691860199 -0.294397264719009399 -0.421104758977890015
0.069281257688999176 -0.359529048204421997 -0.327742725610733032
0.294485718011856079 0.257074832916259766 -0.459325939416885376
0.29915618896484375 0.149420365691184998 -0.495449066162109375
0.30460357666015625 -0.0705675631761550903 -0.456017017364501953
0.30846405029296875 -0.291749864816665649 -0.400468021631240845
0.300797790288925171 -0.374678730964660645 -0.324673980474472046
0.385747283697128296 0.162581697106361389 -0.427044868469238281
0.402552276849746704 -0.0595284551382064819 -0.412546485662460327
0.371823638677597046 -0.257588714361190796 -0.31593051552772522
-0.36890411376953125 0.269948810338973999 -0.275383472442626953
-0.37670135498046875 0.1613130122423172 -0.359039157629013062
-0.419512420892715454 0.172878742218017578 -0.258027404546737671
-0.38954925537109375 -0.0607679747045040131 -0.329288333654403687
-0.373816162347793579 -0.0428702235221862793 -0.21195809543132782
-0.333436340093612671 -0.262951284646987915 -0.257003456354141235
-0.271657317876815796 -0.22928464412689209 -0.174982234835624695
-0.267339080572128296 -0.327203571796417236 -0.13802655041217804
-0.159426376223564148 0.309626728296279907 -0.271684795618057251
-0.121367134153842926 0.238197922706604004 -0.344400554895401001
-0.204418182373046875 0.214370444416999817 -0.239934757351875305
-0.132452651858329773 -0.207342430949211121 -0.0871253013610839844
-0.123182930052280426 -0.16291499137878418 -0.200992420315742493
-0.077630363404750824 -0.136659309267997742 -0.0749438628554344177
0.0442657470703125 0.405553221702575684 -0.276857852935791016
0.0588773079216480255 0.366576164960861206 -0.373354583978652954
0.078482307493686676 -0.251866906881332397 -0.199120357632637024
0.078029632568359375 -0.290467888116836548 -0.075667060911655426
0.263516753911972046 0.466579198837280273 -0.265850871801376343
0.275986999273300171 0.403273314237594604 -0.356105178594589233
0.247266128659248352 -0.399209529161453247 -0.15114419162273407
0.287874847650527954 -0.316938161849975586 -0.0744762420654296875
0.28130340576171875 0.370183944702148438 -0.22225014865398407
0.436044067144393921 0.277050524950027466 -0.195454597473144531
0.452771514654159546 0.160645380616188049 -0.261141926050186157
0.389963775873184204 -0.0506362468004226685 -0.233840152621269226
0.51398468017578125 -0.239366576075553894 -0.213075950741767883
0.499612182378768921 -0.309920281171798706 -0.0905917510390281677
0.34401702880859375 -0.396129369735717773 -0.0328488349914550781
0.363919585943222046 0.195572987198829651 -0.199520424008369446
0.451300293207168579 -0.00775936432182788849 -0.152994796633720398
0.443021148443222046 -0.230867370963096619 -0.131530448794364929
-0.413824707269668579 0.295067071914672852 -0.0506925582885742188
-0.449069976806640625 0.19308917224407196 -0.0312458667904138565
-0.334930419921875 0.0125888660550117493 0.0295170154422521591
-0.34299468994140625 -0.183091834187507629 0.045283634215593338
-0.329907745122909546 -0.29329979419708252 0.071528114378452301
-0.150624588131904602 0.367134600877761841 -0.0534962005913257599
-0.247910812497138977 0.334577471017837524 -0.0522588081657886505
-0.151761367917060852 -0.319883853197097778 0.113576412200927734
-0.088527679443359375 -0.260286182165145874 0.101585708558559418
0.0610516853630542755 0.40180620551109314 -0.0596599578857421875
0.062571205198764801 -0.324276536703109741 0.172512531280517578
0.278778076171875 0.36056363582611084 -0.0632643699645996094
0.256244659423828125 -0.349084138870239258 0.199898883700370789
0.298985809087753296 0.458542138338088989 -0.0196259822696447372
0.404656738042831421 0.315104693174362183 0.0212504062801599503
0.445050567388534546 -0.24394671618938446 0.131895542144775391
0.32405853271484375 -0.409868836402893066 0.230492278933525085
0.339459747076034546 0.223650574684143066 0.0232737865298986435
0.336114257574081421 -0.00276926346123218536 0.0420680046081542969
0.360286712646484375 -0.224756702780723572 0.0817562714219093323
-0.402987152338027954 0.295242220163345337 0.181473419070243835
-0.496503204107284546 0.235892608761787415 0.18362252414226532
-0.327662140130996704 0.0786190256476402283 0.25135040283203125
-0.409848541021347046 -0.115647189319133759 0.24331219494342804
-0.394115447998046875 -0.20632682740688324 0.286199897527694702
-0.141681671142578125 0.307768911123275757 0.169488266110420227
-0.248877212405204773 0.35099378228187561 0.181907176971435547
-0.214946746826171875 -0.214065149426460266 0.306665569543838501
-0.184027358889579773 -0.306397587060928345 0.296466350555419922
0.080281578004360199 0.306382924318313599 0.139500454068183899
0.00310643506236374378 -0.361831784248352051 0.384178787469863892
0.288317352533340454 0.384117871522903442 0.16187731921672821
0.187558487057685852 -0.442314624786376953 0.44051852822303772
0.181092575192451477 0.416843622922897339 0.162011623382568359
0.337032318115234375 0.353722810745239258 0.231897830963134766
0.3974609375 -0.20989815890789032 0.357340008020401001
0.268773406744003296 -0.393326878547668457 0.451185703277587891
0.3023681640625 0.244080498814582825 0.235662296414375305
0.373132079839706421 0.0277681294828653336 0.262571662664413452
0.30159759521484375 -0.192417800426483154 0.290199756622314453
-0.379781097173690796 0.178252875804901123 0.170151233673095703
-0.395327240228652954 0.110210679471492767 0.36889919638633728
-0.4315185546875 -0.0730811208486557007 0.37297472357749939
-0.15029144287109375 0.380384176969528198 0.0917119979858398438
-0.112906135618686676 0.218226969242095947 0.160467147827148438
-0.232280731201171875 0.280684977769851685 0.235844776034355164
-0.304604858160018921 0.218899205327033997 0.494355350732803345
-0.277474731206893921 0.0207999758422374725 0.470488697290420532
-0.203264877200126648 -0.248481988906860352 0.42023816704750061
-0.226540878415107727 -0.115969188511371613 0.515468358993530273
0.0426686592400074005 0.343620538711547852 0.222419261932373047
0.10099029541015625 0.224116325378417969 0.0992751121520996094
-0.037952423095703125 -0.336584240198135376 0.494621843099594116
0.0124117536470293999 -0.155846163630485535 0.620887815952301025
0.26324462890625 0.389312624931335449 0.267642825841903687
0.311777740716934204 0.229838535189628601 0.198446586728096008
0.172715499997138977 -0.398990541696548462 0.576883256435394287
0.184073135256767273 -0.189157828688621521 0.578893899917602539
0.274190276861190796 0.116175562143325806 0.237381935119628906
0.328360229730606079 0.264249891042709351 0.336741596460342407
0.402913421392440796 -0.00855175778269767761 0.378347545862197876
0.270320892333984375 0.0547540634870529175 0.285546779632568359
0.261346191167831421 -0.0730343535542488098 0.546591222286224365
0.276877075433731079 -0.138878926634788513 0.383772850036621094
-0.106358848512172699 0.256036430597305298 0.235342338681221008
-0.165233612060546875 0.194291815161705017 0.446503162384033203
-0.207813262939453125 -0.000343853636877611279 0.5441628098487854
0.100447334349155426 0.142488688230514526 0.138709232211112976
0.03810882568359375 0.0564498268067836761 0.346736103296279907
0.0146191911771893501 -0.0736384540796279907 0.529219925403594971
0.266115814447402954 0.205694675445556641 0.295495182275772095
0.323809295892715454 -0.00419205101206898689 0.308427810668945312
0.24726104736328125 -0.154970481991767883 0.483389288187026978
3 0 1 2
3 1 3 4
3 2 1 4
3 3 5 6
3 4 3 6
3 5 7 6
3 0 8 9
3 1 0 9
3 9 10 1
3 1 10 3
3 10 11 3
3 3 11 5
3 5 11 12
3 7 5 12
3 8 13 14
3 9 8 14
3 14 15 9
3 9 15 10
3 15 16 10
3 10 16 11
3 11 16 17
3 12 11 17
3 14 13 18
3 15 14 18
3 19 15 18
3 16 15 19
3 20 16 19
3 16 20 17
3 21 22 23
3 22 24 25
3 23 22 25
3 24 26 27
3 25 24 27
3 26 28 27
3 29 30 31
3 2 22 21
3 0 2 21
3 0 21 31
3 0 31 30
3 4 22 2
3 24 22 4
3 6 24 4
3 26 24 6
3 26 32 28
3 6 32 26
3 6 33 32
3 6 7 33
3 33 34 32
3 29 35 36
3 30 29 36
3 36 0 30
3 8 0 36
3 12 33 7
3 37 33 12
3 33 37 38
3 34 33 38
3 35 39 40
3 36 35 40
3 40 8 36
3 13 8 40
3 17 37 12
3 41 37 17
3 37 41 42
3 38 37 42
3 40 39 43
3 43 44 45
3 40 43 45
3 40 45 18
3 40 18 13
3 18 46 19
3 45 46 18
3 19 47 20
3 46 47 19
3 48 49 41
3 47 48 41
3 47 41 17
3 47 17 20
3 41 49 42
3 45 44 50
3 46 45 50
3 51 46 50
3 47 46 51
3 52 47 51
3 47 52 48
3 53 21 23
3 54 53 23
3 23 25 54
3 25 55 54
3 25 27 55
3 27 56 55
3 28 57 56
3 27 28 56
3 58 29 31
3 59 58 31
3 31 53 59
3 21 53 31
3 60 28 32
3 57 28 60
3 34 61 60
3 32 34 60
3 35 29 62
3 62 29 58
3 38 63 34
3 63 61 34
3 39 35 64
3 64 35 62
3 42 65 38
3 65 63 38
3 66 43 39
3 64 66 39
3 44 66 67
3 43 66 44
3 68 49 48
3 69 49 68
3 49 69 65
3 42 49 65
3 70 50 44
3 67 70 44
3 50 70 51
3 51 70 71
3 51 71 52
3 52 71 72
3 52 72 68
3 48 52 68
3 73 53 54
3 74 73 54
3 54 55 74
3 55 75 74
3 55 56 75
3 56 76 75
3 57 77 76
3 56 57 76
3 78 58 59
3 79 78 59
3 59 73 79
3 53 73 59
3 80 57 60
3 77 57 80
3 61 81 80
3 60 61 80
3 62 58 82
3 82 58 78
3 63 83 61
3 83 81 61
3 64 62 84
3 84 62 82
3 65 85 63
3 85 83 63
3 86 66 64
3 84 86 64
3 67 86 87
3 66 86 67
3 88 69 68
3 89 69 88
3 69 89 85
3 65 69 85
3 90 70 67
3 87 90 67
3 70 90 71
3 71 90 91
3 71 91 72
3 72 91 92
3 72 92 88
3 68 72 88
3 73 74 93
3 74 75 94
3 93 74 94
3 75 76 95
3 94 75 95
3 76 77 95
3 78 79 96
3 97 93 98
3 96 93 97
3 96 73 93
3 96 79 73
3 94 98 93
3 99 98 94
3 95 99 94
3 100 99 95
3 100 101 102
3 95 101 100
3 95 80 101
3 95 77 80
3 80 81 101
3 82 78 96
3 103 82 96
3 96 104 103
3 97 104 96
3 102 105 106
3 101 105 102
3 105 101 81
3 83 105 81
3 84 82 103
3 107 84 103
3 103 108 107
3 104 108 103
3 106 109 110
3 105 109 106
3 109 105 83
3 85 109 83
3 86 84 107
3 107 108 111
3 86 107 111
3 86 111 112
3 86 112 87
3 112 113 114
3 111 113 112
3 114 115 116
3 113 115 114
3 89 110 109
3 88 110 89
3 88 115 110
3 88 116 115
3 89 109 85
3 90 87 112
3 91 90 112
3 114 91 112
3 92 91 114
3 116 92 114
3 92 116 88
3 97 98 117
3 98 99 118
3 117 98 118
3 99 100 119
3 118 99 119
3 100 102 119
3 104 97 117
3 120 104 117
3 120 117 121
3 117 118 121
3 121 118 122
3 118 119 122
3 122 119 102
3 106 122 102
3 108 104 120
3 123 108 120
3 123 120 124
3 120 121 124
3 124 121 125
3 121 122 125
3 125 122 106
3 110 125 106
3 111 108 123
3 113 111 123
3 124 113 123
3 115 113 124
3 125 115 124
3 115 125 110
