ply
format ascii 1.0
comment VCGLIB generated
element vertex 126
property float x
property float y
property float z
element face 248
property list uchar int vertex_indices
end_header
-0.188396453857421875 0.230074644088745117 -0.437295436859130859
-0.165060684084892273 0.111623339354991913 -0.503196418285369873
-0.288392394781112671 0.15501461923122406 -0.444898605346679688
-0.166464492678642273 -0.0717058628797531128 -0.365905284881591797
-0.184720352292060852 0.015963943675160408 -0.300478309392929077
-0.119726814329624176 -0.235265746712684631 -0.209447696805000305
-0.0575574226677417755 -0.0805497393012046814 -0.166008308529853821
-0.0517336539924144745 -0.280480533838272095 -0.150643825531005859
0.0254834499210119247 0.207536771893501282 -0.398185402154922485
0.0186945591121912003 0.0685133859515190125 -0.387900203466415405
-0.0355580635368824005 -0.180690869688987732 -0.299878448247909546
-0.122894287109375 -0.42316320538520813 -0.199030235409736633
-0.1258392333984375 -0.541506588459014893 -0.114536762237548828
0.244120284914970398 0.184789702296257019 -0.348311096429824829
0.22063446044921875 0.0664768069982528687 -0.35830196738243103
0.189648941159248352 -0.182067915797233582 -0.308442115783691406
0.099424995481967926 -0.446454912424087524 -0.20738045871257782
0.106778465211391449 -0.619893193244934082 -0.168930217623710632
0.290576934814453125 0.04516640305519104 -0.313261657953262329
0.256944030523300171 -0.247599765658378601 -0.283334404230117798
0.16812896728515625 -0.473077982664108276 -0.177160099148750305
-0.415219634771347046 0.285448253154754639 -0.215522453188896179
-0.396584838628768921 0.212291285395622253 -0.308648586273193359
-0.334743499755859375 0.224938288331031799 -0.205241993069648743
-0.341986328363418579 0.013257899321615696 -0.256011337041854858
-0.385103851556777954 0.0120773250237107277 -0.170054271817207336
-0.182637527585029602 -0.12157856673002243 -0.270310252904891968
-0.214494064450263977 -0.15193454921245575 -0.154645919799804688
-0.266840606927871704 -0.222304999828338623 -0.210514545440673828
-0.222728729248046875 0.47222602367401123 -0.237226322293281555
-0.204828903079032898 0.387881606817245483 -0.331760257482528687
-0.262774139642715454 0.3763904869556427 -0.209976032376289368
-0.170922592282295227 -0.339954257011413574 -0.135977908968925476
-0.180469512939453125 -0.258523464202880859 -0.0433535575866699219
-0.190480545163154602 -0.192679837346076965 -0.152104541659355164
-0.006450653076171875 0.444632679224014282 -0.195014476776123047
0.0113932294771075249 0.375857442617416382 -0.290952682495117188
-0.043365478515625 -0.439387291669845581 -0.00857591629028320312
-0.0500119514763355255 -0.403345257043838501 -0.17620261013507843
0.195878341794013977 0.368526577949523926 -0.16731850802898407
0.230847671627998352 0.34917876124382019 -0.261779159307479858
-0.0581525154411792755 -0.55815356969833374 -0.120279468595981598
0.0369351692497730255 -0.63578563928604126 -0.0932615622878074646
0.297701507806777954 0.358264446258544922 -0.134764507412910461
0.417875915765762329 0.225786447525024414 -0.0939561501145362854
0.406360626220703125 0.101341843605041504 -0.176464557647705078
0.33274078369140625 -0.145213380455970764 -0.15448443591594696
0.184590652585029602 -0.350884795188903809 -0.0703924521803855896
0.232532501220703125 -0.470342159271240234 -0.0589772872626781464
0.100343070924282074 -0.552436769008636475 -0.0974656715989112854
0.413527160882949829 0.0943234935402870178 -0.0763800963759422302
0.313154846429824829 -0.123263977468013763 -0.062962852418422699
0.271565765142440796 -0.350613832473754883 -0.0408536605536937714
-0.444783538579940796 0.322403877973556519 -0.00185839331243187189
-0.344743102788925171 0.286887615919113159 0.0157976150512695312
-0.335503906011581421 0.0566535480320453644 0.0431714057922363281
-0.387451171875 -0.16167779266834259 -0.00487518310546875
-0.319455474615097046 -0.253449022769927979 0.00486246729269623756
-0.261035919189453125 0.506296813488006592 -0.00471178675070405006
-0.284969329833984375 0.400869011878967285 0.0124386148527264595
-0.15186309814453125 -0.262070208787918091 0.0653195381164550781
-0.099993385374546051 -0.346737593412399292 0.00197807955555617809
-0.071050010621547699 0.388501852750778198 0.0197904910892248154
-0.01337432861328125 -0.21361909806728363 0.100289665162563324
0.133474990725517273 0.268389374017715454 0.028280576691031456
-0.116616569459438324 -0.455997675657272339 0.0962902680039405823
0.201581314206123352 0.343438655138015747 0.0708281174302101135
0.3466339111328125 0.258422344923019409 0.11553732305765152
0.089270271360874176 -0.453642368316650391 0.12667401134967804
-0.029216766357421875 -0.627894341945648193 0.135403946042060852
0.287466675043106079 0.155827969312667847 0.101304851472377777
0.189849853515625 -0.0574293695390224457 0.0990131720900535583
0.130950927734375 -0.297040313482284546 0.125519275665283203
-0.496173858642578125 0.358590006828308105 0.215265274047851562
-0.390715271234512329 0.302713245153427124 0.235285595059394836
-0.447255462408065796 0.0527572073042392731 0.228627517819404602
-0.367056518793106079 -0.155585154891014099 0.221165969967842102
-0.294011443853378296 -0.240478262305259705 0.233004733920097351
-0.241826370358467102 0.515261232852935791 0.228067085146903992
-0.373677581548690796 0.486521631479263306 0.202208355069160461
-0.135278061032295227 -0.262389808893203735 0.260561943054199219
-0.213692978024482727 -0.235437572002410889 0.17799060046672821
-0.172120407223701477 0.305974692106246948 0.223237037658691406
-0.006084442138671875 -0.222583785653114319 0.273342937231063843
0.0390637703239917755 0.227134391665458679 0.243951156735420227
0.03154754638671875 -0.358419179916381836 0.333512306213378906
0.107433319091796875 0.327791303396224976 0.265555858612060547
0.272942870855331421 0.282932490110397339 0.324428081512451172
0.196347549557685852 -0.431236177682876587 0.302742332220077515
0.068045295774936676 -0.405512183904647827 0.202398777008056641
0.233969375491142273 0.177639588713645935 0.321227073669433594
0.26873779296875 -0.0460381507873535156 0.30594983696937561
0.257319122552871704 -0.286736547946929932 0.317313194274902344
-0.444338470697402954 0.25191226601600647 0.303174823522567749
-0.414096832275390625 0.0510788075625896454 0.328464657068252563
-0.384966522455215454 -0.177505746483802795 0.328873008489608765
-0.294384002685546875 0.482951641082763672 0.335814327001571655
-0.189303085207939148 0.360226869583129883 0.301997512578964233
-0.2845916748046875 0.297569721937179565 0.367473453283309937
-0.367261260747909546 0.0934603139758110046 0.472863197326660156
-0.266607910394668579 -0.0314686037600040436 0.349013000726699829
-0.10887908935546875 -0.195177614688873291 0.157047107815742493
-0.195056915283203125 -0.122738756239414215 0.302175521850585938
-0.220284774899482727 0.255563050508499146 0.348244994878768921
-0.192653656005859375 0.289178788661956787 0.519077777862548828
0.001583099365234375 -0.337449043989181519 0.256507068872451782
-0.070761360228061676 -0.252032339572906494 0.411311626434326172
0.010509490966796875 0.274145364761352539 0.32702288031578064
0.0401153564453125 0.271546393632888794 0.491992950439453125
0.18221282958984375 -0.356681555509567261 0.317365974187850952
0.118804931640625 -0.160003602504730225 0.376589924097061157
0.140340164303779602 0.18407265841960907 0.549868345260620117
0.274308532476425171 0.185655578970909119 0.428164005279541016
0.172031402587890625 -0.0434789806604385376 0.562482118606567383
0.276934295892715454 -0.0512216091156005859 0.416320174932479858
0.104413352906703949 -0.253585010766983032 0.49985957145690918
0.253129333257675171 -0.305217474699020386 0.41149488091468811
-0.217433929443359375 0.256303220987319946 0.297933250665664673
-0.277165740728378296 0.0665481463074684143 0.430682659149169922
-0.244695022702217102 -0.134326353669166565 0.407014042139053345
-0.181771591305732727 0.163618341088294983 0.529127120971679688
-0.075775146484375 0.00402074027806520462 0.386869102716445923
-0.048431396484375 -0.168240144848823547 0.489372879266738892
0.0345611572265625 0.181256547570228577 0.5542793869972229
0.124182380735874176 0.0226016789674758911 0.480813592672348022
0.197138473391532898 -0.185589313507080078 0.404655933380126953
3 0 1 2
3 1 3 4
3 2 1 4
3 3 5 6
3 4 3 6
3 5 7 6
3 0 8 9
3 1 0 9
3 9 10 1
3 1 10 3
3 10 11 3
3 3 11 5
3 5 11 12
3 7 5 12
3 8 13 14
3 9 8 14
3 14 15 9
3 9 15 10
3 15 16 10
3 10 16 11
3 11 16 17
3 12 11 17
3 14 13 18
3 15 14 18
3 19 15 18
3 16 15 19
3 20 16 19
3 16 20 17
3 21 22 23
3 22 24 25
3 23 22 25
3 24 26 27
3 25 24 27
3 26 28 27
3 29 30 31
3 2 22 21
3 0 2 21
3 0 21 31
3 0 31 30
3 4 22 2
3 24 22 4
3 6 24 4
3 26 24 6
3 26 32 28
3 6 32 26
3 6 33 32
3 6 7 33
3 33 34 32
3 29 35 36
3 30 29 36
3 36 0 30
3 8 0 36
3 12 33 7
3 37 33 12
3 33 37 38
3 34 33 38
3 35 39 40
3 36 35 40
3 40 8 36
3 13 8 40
3 17 37 12
3 41 37 17
3 37 41 42
3 38 37 42
3 40 39 43
3 43 44 45
3 40 43 45
3 40 45 18
3 40 18 13
3 18 46 19
3 45 46 18
3 19 47 20
3 46 47 19
3 48 49 41
3 47 48 41
3 47 41 17
3 47 17 20
3 41 49 42
3 45 44 50
3 46 45 50
3 51 46 50
3 47 46 51
3 52 47 51
3 47 52 48
3 53 21 23
3 54 53 23
3 23 25 54
3 25 55 54
3 25 27 55
3 27 56 55
3 28 57 56
3 27 28 56
3 58 29 31
3 59 58 31
3 31 53 59
3 21 53 31
3 60 28 32
3 57 28 60
3 34 61 60
3 32 34 60
3 35 29 62
3 62 29 58
3 38 63 34
3 63 61 34
3 39 35 64
3 64 35 62
3 42 65 38
3 65 63 38
3 66 43 39
3 64 66 39
3 44 66 67
3 43 66 44
3 68 49 48
3 69 49 68
3 49 69 65
3 42 49 65
3 70 50 44
3 67 70 44
3 50 70 51
3 51 70 71
3 51 71 52
3 52 71 72
3 52 72 68
3 48 52 68
3 73 53 54
3 74 73 54
3 54 55 74
3 55 75 74
3 55 56 75
3 56 76 75
3 57 77 76
3 56 57 76
3 78 58 59
3 79 78 59
3 59 73 79
3 53 73 59
3 80 57 60
3 77 57 80
3 61 81 80
3 60 61 80
3 62 58 82
3 82 58 78
3 63 83 61
3 83 81 61
3 64 62 84
3 84 62 82
3 65 85 63
3 85 83 63
3 86 66 64
3 84 86 64
3 67 86 87
3 66 86 67
3 88 69 68
3 89 69 88
3 69 89 85
3 65 69 85
3 90 70 67
3 87 90 67
3 70 90 71
3 71 90 91
3 71 91 72
3 72 91 92
3 72 92 88
3 68 72 88
3 73 74 93
3 74 75 94
3 93 74 94
3 75 76 95
3 94 75 95
3 76 77 95
3 78 79 96
3 97 93 98
3 96 93 97
3 96 73 93
3 96 79 73
3 94 98 93
3 99 98 94
3 95 99 94
3 100 99 95
3 100 101 102
3 95 101 100
3 95 80 101
3 95 77 80
3 80 81 101
3 82 78 96
3 103 82 96
3 96 104 103
3 97 104 96
3 102 105 106
3 101 105 102
3 105 101 81
3 83 105 81
3 84 82 103
3 107 84 103
3 103 108 107
3 104 108 103
3 106 109 110
3 105 109 106
3 109 105 83
3 85 109 83
3 86 84 107
3 107 108 111
3 86 107 111
3 86 111 112
3 86 112 87
3 112 113 114
3 111 113 112
3 114 115 116
3 113 115 114
3 89 110 109
3 88 110 89
3 88 115 110
3 88 116 115
3 89 109 85
3 90 87 112
3 91 90 112
3 114 91 112
3 92 91 114
3 116 92 114
3 92 116 88
3 97 98 117
3 98 99 118
3 117 98 118
3 99 100 119
3 118 99 119
3 100 102 119
3 104 97 117
3 120 104 117
3 120 117 121
3 117 118 121
3 121 118 122
3 118 119 122
3 122 119 102
3 106 122 102
3 108 104 120
3 123 108 120
3 123 120 124
3 120 121 124
3 124 121 125
3 121 122 125
3 125 122 106
3 110 125 106
3 111 108 123
3 113 111 123
3 124 113 123
3 115 113 124
3 125 115 124
3 115 125 110
