ply
format ascii 1.0
comment VCGLIB generated
element vertex 126
property float x
property float y
property float z
element face 248
property list uchar int vertex_indices
end_header
-0.171292617917060852 0.208327576518058777 -0.441249221563339233
-0.168627426028251648 0.131487980484962463 -0.427775710821151733
-0.253285735845565796 0.120042741298675537 -0.489024311304092407
-0.1780853271484375 -0.0784367471933364868 -0.384393543004989624
-0.27437591552734375 -0.0665661096572875977 -0.443812698125839233
-0.167902633547782898 -0.295821875333786011 -0.392906337976455688
-0.258013397455215454 -0.302758485078811646 -0.423515468835830688
-0.169722244143486023 -0.391177862882614136 -0.396942615509033203
0.0308863315731287003 0.242354318499565125 -0.406618744134902954
0.0426305122673511505 0.123948752880096436 -0.390052318572998047
0.0333404541015625 -0.0837923884391784668 -0.323649555444717407
0.059642791748046875 -0.284744352102279663 -0.40597185492515564
0.0519269295036792755 -0.405940085649490356 -0.364951133728027344
0.243499755859375 0.224283799529075623 -0.359093338251113892
0.2534027099609375 0.146699070930480957 -0.41305050253868103
0.252927154302597046 -0.0881680622696876526 -0.450469017028808594
0.255641937255859375 -0.294976562261581421 -0.403840392827987671
0.266855865716934204 -0.374022036790847778 -0.350832611322402954
0.367525726556777954 0.160246744751930237 -0.432707160711288452
0.37517547607421875 -0.0495355837047100067 -0.401301056146621704
0.35718536376953125 -0.286294549703598022 -0.38679853081703186
-0.438916534185409546 0.252004146575927734 -0.283255726099014282
-0.385804504156112671 0.20014643669128418 -0.371542304754257202
-0.410298675298690796 0.190258443355560303 -0.277835994958877563
-0.409673064947128296 -0.0377986505627632141 -0.370251327753067017
-0.410750061273574829 -0.018338693305850029 -0.238988876342773438
-0.384077697992324829 -0.258387655019760132 -0.311973720788955688
-0.355939239263534546 -0.251271337270736694 -0.220601081848144531
-0.370372772216796875 -0.345827460289001465 -0.175681114196777344
-0.196832016110420227 0.366275042295455933 -0.232785061001777649
-0.185527801513671875 0.364452332258224487 -0.374646991491317749
-0.29277801513671875 0.380936414003372192 -0.279924243688583374
-0.2614898681640625 -0.450569748878479004 -0.1382904052734375
-0.202592208981513977 -0.459449678659439087 -0.237806960940361023
-0.183362320065498352 -0.489114761352539062 -0.149321079254150391
0.0180765781551599503 0.450163215398788452 -0.244524314999580383
0.0286687221378087997 0.382085323333740234 -0.310708522796630859
0.03449249267578125 -0.425810933113098145 -0.195194721221923828
0.004261016845703125 -0.452097654342651367 -0.116006053984165192
0.25299835205078125 0.475316762924194336 -0.255686759948730469
0.252902984619140625 0.403688222169876099 -0.346711784601211548
0.255040496587753296 -0.495765000581741333 -0.207740947604179382
0.251056671142578125 -0.488956928253173828 -0.0853694304823875427
0.351551055908203125 0.368765354156494141 -0.251037925481796265
0.448130279779434204 0.273798167705535889 -0.188135147094726562
0.450130462646484375 0.150206401944160461 -0.251316547393798828
0.371843963861465454 -0.0376773513853549957 -0.250796318054199219
0.454064697027206421 -0.244392678141593933 -0.211864307522773743
0.443635314702987671 -0.307718962430953979 -0.106432758271694183
0.269345611333847046 -0.363071471452713013 -0.128094673156738281
0.388577789068222046 0.214359104633331299 -0.188334941864013672
0.428349822759628296 0.00198543630540370941 -0.136977836489677429
0.371103912591934204 -0.213672757148742676 -0.130709484219551086
-0.4723358154296875 0.291410356760025024 -0.0572272948920726776
-0.525530517101287842 0.236907795071601868 -0.0793781280517578125
-0.491739898920059204 -0.0134067535400390625 -0.0461753197014331818
-0.384473174810409546 -0.181031689047813416 -0.00217930483631789684
-0.302204132080078125 -0.291448622941970825 0.0216954555362462997
-0.241022750735282898 0.434018522500991821 -0.0307836532592773438
-0.332926422357559204 0.379783898591995239 -0.042456943541765213
-0.301951080560684204 -0.490349739789962769 0.067869819700717926
-0.205554962158203125 -0.434299498796463013 0.0712253227829933167
-0.022327423095703125 0.475465506315231323 0.0111810369417071342
-0.00580724095925688744 -0.32788693904876709 0.0790368691086769104
0.184621170163154602 0.463932782411575317 -0.0254904422909021378
0.24243927001953125 -0.335988610982894897 0.0988610610365867615
0.26978302001953125 0.405689269304275513 0.00154145562555640936
0.414826720952987671 0.36235201358795166 0.0384880714118480682
0.407933562994003296 -0.268220633268356323 0.112356029450893402
0.309720367193222046 -0.400490522384643555 0.129932716488838196
0.355730682611465454 0.251167625188827515 0.042301177978515625
0.434505462646484375 0.0225724130868911743 0.0946628227829933167
0.366937011480331421 -0.172674462199211121 0.107243694365024567
-0.417318969964981079 0.287620455026626587 0.16942596435546875
-0.554169952869415283 0.266271352767944336 0.181706905364990234
-0.467549651861190796 0.0751497074961662292 0.161764457821846008
-0.425506591796875 -0.145104885101318359 0.199464008212089539
-0.424490600824356079 -0.258022874593734741 0.227897956967353821
-0.225963592529296875 0.430641621351242065 0.166353225708007812
-0.303152710199356079 0.421840459108352661 0.190170124173164368
-0.354750305414199829 -0.396398067474365234 0.269192695617675781
-0.234450027346611023 -0.38433954119682312 0.304885536432266235
-0.094755806028842926 0.644815683364868164 0.195173263549804688
-0.0176722202450037003 -0.328773826360702515 0.301472514867782593
0.12890625 0.587439358234405518 0.20885293185710907
0.179848983883857727 -0.408853203058242798 0.329026550054550171
0.194039657711982727 0.499279618263244629 0.217313602566719055
0.298765808343887329 0.36048927903175354 0.219218418002128601
0.355787903070449829 -0.192442849278450012 0.320595115423202515
0.272708892822265625 -0.364931255578994751 0.349396854639053345
0.269845336675643921 0.2778644859790802 0.251886993646621704
0.357076019048690796 0.0567140169441699982 0.301337391138076782
0.376294463872909546 -0.128316476941108704 0.36061510443687439
-0.516436278820037842 0.297203928232192993 0.273719638586044312
-0.404570251703262329 0.0955560430884361267 0.217785194516181946
-0.312605530023574829 -0.129955261945724487 0.231464698910713196
-0.232737228274345398 0.467437475919723511 0.2629852294921875
-0.318773895502090454 0.422477871179580688 0.45753130316734314
-0.37659454345703125 0.320481926202774048 0.392129093408584595
-0.378856658935546875 0.096312396228313446 0.369535446166992188
-0.392763763666152954 -0.117699205875396729 0.403151661157608032
-0.270242065191268921 -0.399112671613693237 0.376850605010986328
-0.279207855463027954 -0.220399141311645508 0.385136127471923828
-0.091757453978061676 0.645134627819061279 0.353934288024902344
-0.172328948974609375 0.549279272556304932 0.527235805988311768
-0.017955780029296875 -0.407786637544631958 0.406966537237167358
-0.073538459837436676 -0.199238672852516174 0.432122856378555298
0.131786346435546875 0.614597141742706299 0.327431678771972656
0.068545021116733551 0.585896849632263184 0.540489017963409424
0.173300430178642273 -0.343193560838699341 0.399584144353866577
0.125428512692451477 -0.185431137681007385 0.46230807900428772
0.164187118411064148 0.400825947523117065 0.536287069320678711
0.307814270257949829 0.315224915742874146 0.358454227447509766
0.199305221438407898 0.196357771754264832 0.493903011083602905
0.29337310791015625 0.115342579782009125 0.355132579803466797
0.170225784182548523 -0.0835868790745735168 0.532560288906097412
0.316838592290878296 -0.0943560004234313965 0.427936077117919922
-0.346040099859237671 0.340309977531433105 0.504945755004882812
-0.391551971435546875 0.0817465856671333313 0.485385328531265259
-0.355379730463027954 -0.169168606400489807 0.459975093603134155
-0.128148391842842102 0.406713128089904785 0.49721837043762207
-0.149130508303642273 0.167158707976341248 0.531948328018188477
-0.16318511962890625 -0.109873645007610321 0.591108024120330811
0.080061592161655426 0.455209285020828247 0.549862682819366455
0.137861892580986023 0.217579171061515808 0.392885684967041016
0.073520660400390625 -0.039346303790807724 0.487782388925552368
3 0 1 2
3 1 3 4
3 2 1 4
3 3 5 6
3 4 3 6
3 5 7 6
3 0 8 9
3 1 0 9
3 9 10 1
3 1 10 3
3 10 11 3
3 3 11 5
3 5 11 12
3 7 5 12
3 8 13 14
3 9 8 14
3 14 15 9
3 9 15 10
3 15 16 10
3 10 16 11
3 11 16 17
3 12 11 17
3 14 13 18
3 15 14 18
3 19 15 18
3 16 15 19
3 20 16 19
3 16 20 17
3 21 22 23
3 22 24 25
3 23 22 25
3 24 26 27
3 25 24 27
3 26 28 27
3 29 30 31
3 2 22 21
3 0 2 21
3 0 21 31
3 0 31 30
3 4 22 2
3 24 22 4
3 6 24 4
3 26 24 6
3 26 32 28
3 6 32 26
3 6 33 32
3 6 7 33
3 33 34 32
3 29 35 36
3 30 29 36
3 36 0 30
3 8 0 36
3 12 33 7
3 37 33 12
3 33 37 38
3 34 33 38
3 35 39 40
3 36 35 40
3 40 8 36
3 13 8 40
3 17 37 12
3 41 37 17
3 37 41 42
3 38 37 42
3 40 39 43
3 43 44 45
3 40 43 45
3 40 45 18
3 40 18 13
3 18 46 19
3 45 46 18
3 19 47 20
3 46 47 19
3 48 49 41
3 47 48 41
3 47 41 17
3 47 17 20
3 41 49 42
3 45 44 50
3 46 45 50
3 51 46 50
3 47 46 51
3 52 47 51
3 47 52 48
3 53 21 23
3 54 53 23
3 23 25 54
3 25 55 54
3 25 27 55
3 27 56 55
3 28 57 56
3 27 28 56
3 58 29 31
3 59 58 31
3 31 53 59
3 21 53 31
3 60 28 32
3 57 28 60
3 34 61 60
3 32 34 60
3 35 29 62
3 62 29 58
3 38 63 34
3 63 61 34
3 39 35 64
3 64 35 62
3 42 65 38
3 65 63 38
3 66 43 39
3 64 66 39
3 44 66 67
3 43 66 44
3 68 49 48
3 69 49 68
3 49 69 65
3 42 49 65
3 70 50 44
3 67 70 44
3 50 70 51
3 51 70 71
3 51 71 52
3 52 71 72
3 52 72 68
3 48 52 68
3 73 53 54
3 74 73 54
3 54 55 74
3 55 75 74
3 55 56 75
3 56 76 75
3 57 77 76
3 56 57 76
3 78 58 59
3 79 78 59
3 59 73 79
3 53 73 59
3 80 57 60
3 77 57 80
3 61 81 80
3 60 61 80
3 62 58 82
3 82 58 78
3 63 83 61
3 83 81 61
3 64 62 84
3 84 62 82
3 65 85 63
3 85 83 63
3 86 66 64
3 84 86 64
3 67 86 87
3 66 86 67
3 88 69 68
3 89 69 88
3 69 89 85
3 65 69 85
3 90 70 67
3 87 90 67
3 70 90 71
3 71 90 91
3 71 91 72
3 72 91 92
3 72 92 88
3 68 72 88
3 73 74 93
3 74 75 94
3 93 74 94
3 75 76 95
3 94 75 95
3 76 77 95
3 78 79 96
3 97 93 98
3 96 93 97
3 96 73 93
3 96 79 73
3 94 98 93
3 99 98 94
3 95 99 94
3 100 99 95
3 100 101 102
3 95 101 100
3 95 80 101
3 95 77 80
3 80 81 101
3 82 78 96
3 103 82 96
3 96 104 103
3 97 104 96
3 102 105 106
3 101 105 102
3 105 101 81
3 83 105 81
3 84 82 103
3 107 84 103
3 103 108 107
3 104 108 103
3 106 109 110
3 105 109 106
3 109 105 83
3 85 109 83
3 86 84 107
3 107 108 111
3 86 107 111
3 86 111 112
3 86 112 87
3 112 113 114
3 111 113 112
3 114 115 116
3 113 115 114
3 89 110 109
3 88 110 89
3 88 115 110
3 88 116 115
3 89 109 85
3 90 87 112
3 91 90 112
3 114 91 112
3 92 91 114
3 116 92 114
3 92 116 88
3 97 98 117
3 98 99 118
3 117 98 118
3 99 100 119
3 118 99 119
3 100 102 119
3 104 97 117
3 120 104 117
3 120 117 121
3 117 118 121
3 121 118 122
3 118 119 122
3 122 119 102
3 106 122 102
3 108 104 120
3 123 108 120
3 123 120 124
3 120 121 124
3 124 121 125
3 121 122 125
3 125 122 106
3 110 125 106
3 111 108 123
3 113 111 123
3 124 113 123
3 115 113 124
3 125 115 124
3 115 125 110
