ply
format ascii 1.0
comment VCGLIB generated
element vertex 126
property float x
property float y
property float z
element face 248
property list uchar int vertex_indices
end_header
-0.157501220703125 0.233280017971992493 -0.512802422046661377
-0.165583297610282898 0.138526245951652527 -0.466895103454589844
-0.27089691162109375 0.121709972620010376 -0.525961577892303467
-0.171076461672782898 -0.0374938659369945526 -0.361057758331298828
-0.229333236813545227 -0.0787092521786689758 -0.428966373205184937
-0.175332382321357727 -0.260768383741378784 -0.410346657037734985
-0.25665283203125 -0.247610285878181458 -0.390488624572753906
-0.16365814208984375 -0.362600058317184448 -0.410916656255722046
0.0409380607306957245 0.201934590935707092 -0.404873043298721313
0.04886627197265625 0.126974925398826599 -0.356775134801864624
0.0378443412482738495 -0.0711049139499664307 -0.32977566123008728
0.0361302681267261505 -0.286233335733413696 -0.387259960174560547
0.0207354221493005753 -0.405239731073379517 -0.395807415246963501
0.25681304931640625 0.224411949515342712 -0.449764877557754517
0.257464081048965454 0.140764966607093811 -0.347045421600341797
0.264157623052597046 -0.0800896212458610535 -0.286432892084121704
0.251078277826309204 -0.302421063184738159 -0.328848034143447876
0.238354995846748352 -0.399288415908813477 -0.342636913061141968
0.360430389642715454 0.172974780201911926 -0.39542117714881897
0.280440002679824829 -0.0628719404339790344 -0.414047867059707642
0.331943511962890625 -0.272048234939575195 -0.367920726537704468
-0.39517974853515625 0.180768176913261414 -0.286851257085800171
-0.3563079833984375 0.159579679369926453 -0.395600169897079468
-0.447923034429550171 0.134828492999076843 -0.317853450775146484
-0.4350433349609375 -0.0338917374610900879 -0.306357711553573608
-0.359071105718612671 -0.0781146958470344543 -0.309554725885391235
-0.312713623046875 -0.234165981411933899 -0.226225852966308594
-0.431734710931777954 -0.266735821962356567 -0.214378520846366882
-0.376542419195175171 -0.374994546175003052 -0.21140606701374054
-0.216299697756767273 0.335132509469985962 -0.329157203435897827
-0.177937820553779602 0.393686890602111816 -0.363804340362548828
-0.302675873041152954 0.376640051603317261 -0.304684966802597046
-0.302466064691543579 -0.510650992393493652 -0.180907726287841797
-0.19701385498046875 -0.483509272336959839 -0.240752220153808594
-0.186716720461845398 -0.467299938201904297 -0.146570518612861633
0.018157958984375 0.366473108530044556 -0.310542583465576172
0.0283101405948400497 0.394236832857131958 -0.389744281768798828
0.0165036525577306747 -0.463592857122421265 -0.219493865966796875
0.0152028398588299751 -0.479584604501724243 -0.126149654388427734
0.2625885009765625 0.33404242992401123 -0.269796371459960938
0.26340484619140625 0.400059968233108521 -0.386018127202987671
0.231502532958984375 -0.491345137357711792 -0.179951980710029602
0.225842788815498352 -0.431536465883255005 -0.104586280882358551
0.344557434320449829 0.420608282089233398 -0.273347049951553345
0.419666290283203125 0.263846904039382935 -0.252677768468856812
0.440865844488143921 0.154773831367492676 -0.262273162603378296
0.288209289312362671 -0.0326489470899105072 -0.253706306219100952
0.396081298589706421 -0.222175285220146179 -0.190428256988525391
0.385964721441268921 -0.284394234418869019 -0.09456634521484375
0.319611877202987671 -0.453918188810348511 -0.120480380952358246
0.374652862548828125 0.199288532137870789 -0.195545196533203125
0.299571990966796875 0.015089091844856739 -0.161402225494384766
0.306826263666152954 -0.205448433756828308 -0.12797720730304718
-0.417584747076034546 0.272318869829177856 -0.0977228507399559021
-0.3609771728515625 0.181268557906150818 -0.089354194700717926
-0.329472869634628296 -0.0268643442541360855 -0.0574218444526195526
-0.4129486083984375 -0.237907588481903076 -0.0147301359102129936
-0.392367035150527954 -0.338407397270202637 0.00854015350341796875
-0.218289688229560852 0.333190411329269409 -0.0876865386962890625
-0.327084869146347046 0.415160328149795532 -0.122368656098842621
-0.339763641357421875 -0.501412749290466309 0.0660373345017433167
-0.222942352294921875 -0.543371975421905518 0.0764099732041358948
-0.00110371911432594061 0.413478165864944458 -0.0954340323805809021
-0.0146878557279706001 -0.428331047296524048 0.103123508393764496
0.244757339358329773 0.396274954080581665 -0.102630615234375
0.209538772702217102 -0.403014421463012695 0.117095150053501129
0.3094482421875 0.435559242963790894 -0.052792232483625412
0.475663512945175171 0.324054300785064697 -0.00557629251852631569
0.417673736810684204 -0.285352051258087158 0.0936341285705566406
0.300661712884902954 -0.436134219169616699 0.118040561676025391
0.449232727289199829 0.221480950713157654 0.0258973445743322372
0.404619842767715454 0.0141209177672863007 0.0668595656752586365
0.338292449712753296 -0.202229991555213928 0.0902250632643699646
-0.446642547845840454 0.302479296922683716 0.117335475981235504
-0.367519378662109375 0.222230806946754456 0.113470554351806641
-0.33870697021484375 0.0253881681710481644 0.154369041323661804
-0.372881561517715454 -0.179012894630432129 0.169370487332344055
-0.3240814208984375 -0.262763351202011108 0.224689006805419922
-0.239676162600517273 0.366501063108444214 0.133678749203681946
-0.355439513921737671 0.425552099943161011 0.115711532533168793
-0.332190185785293579 -0.428186178207397461 0.283435195684432983
-0.287820190191268921 -0.516174972057342529 0.342450618743896484
-0.00975545216351747513 0.374127358198165894 0.125772789120674133
-0.0822296142578125 -0.387272804975509644 0.313096523284912109
0.197305038571357727 0.388912081718444824 0.111227832734584808
0.155797317624092102 -0.352735996246337891 0.322034984827041626
0.265439361333847046 0.428626388311386108 0.160293892025947571
0.471987396478652954 0.33639487624168396 0.193171501159667969
0.415435791015625 -0.266390085220336914 0.31345781683921814
0.27072906494140625 -0.355280756950378418 0.320034652948379517
0.388295501470565796 0.283938556909561157 0.24827750027179718
0.465371459722518921 0.0383061133325099945 0.28383365273475647
0.389147430658340454 -0.167935729026794434 0.298740535974502563
-0.41590118408203125 0.214562311768531799 0.218967601656913757
-0.304526001214981079 0.00390925304964184761 0.249854877591133118
-0.419877380132675171 -0.191963896155357361 0.278463989496231079
-0.230836227536201477 0.449357897043228149 0.197087764739990234
-0.2578887939453125 0.369695067405700684 0.341451019048690796
-0.3358154296875 0.245463356375694275 0.379143089056015015
-0.36389923095703125 0.0216791946440935135 0.438544899225234985
-0.334067016839981079 -0.192420899868011475 0.454313606023788452
-0.2949371337890625 -0.450327843427658081 0.435396671295166016
-0.2656707763671875 -0.293982386589050293 0.493320852518081665
-0.03731536865234375 0.42845568060874939 0.23366229236125946
-0.032733917236328125 0.367972344160079956 0.377427428960800171
-0.062191009521484375 -0.435569018125534058 0.390806049108505249
-0.098073326051235199 -0.254853606224060059 0.425476402044296265
0.155190780758857727 0.337708860635757446 0.179917648434638977
0.155305221676826477 0.243480578064918518 0.356905609369277954
0.178086593747138977 -0.363974720239639282 0.388507694005966187
0.117079414427280426 -0.19156549870967865 0.512480437755584717
0.279857635498046875 0.250088483095169067 0.392916679382324219
0.441771179437637329 0.280143767595291138 0.319848060607910156
0.231768295168876648 0.0699285492300987244 0.378255993127822876
0.397805541753768921 0.088453926146030426 0.373697131872177124
0.229815170168876648 -0.156783223152160645 0.482656091451644897
0.386993408203125 -0.135166004300117493 0.39073452353477478
-0.271336883306503296 0.258805125951766968 0.406289905309677124
-0.268829345703125 0.0481398217380046844 0.437002658843994141
-0.270351409912109375 -0.189007148146629333 0.495285183191299438
-0.067053474485874176 0.276969075202941895 0.342278331518173218
-0.0698089599609375 0.0451859980821609497 0.358630180358886719
-0.063485465943813324 -0.179414078593254089 0.401524871587753296
0.195491790771484375 0.302720874547958374 0.310140460729598999
0.170721694827079773 0.0963186025619506836 0.405166774988174438
0.13948822021484375 -0.150265827775001526 0.414244800806045532
3 0 1 2
3 1 3 4
3 2 1 4
3 3 5 6
3 4 3 6
3 5 7 6
3 0 8 9
3 1 0 9
3 9 10 1
3 1 10 3
3 10 11 3
3 3 11 5
3 5 11 12
3 7 5 12
3 8 13 14
3 9 8 14
3 14 15 9
3 9 15 10
3 15 16 10
3 10 16 11
3 11 16 17
3 12 11 17
3 14 13 18
3 15 14 18
3 19 15 18
3 16 15 19
3 20 16 19
3 16 20 17
3 21 22 23
3 22 24 25
3 23 22 25
3 24 26 27
3 25 24 27
3 26 28 27
3 29 30 31
3 2 22 21
3 0 2 21
3 0 21 31
3 0 31 30
3 4 22 2
3 24 22 4
3 6 24 4
3 26 24 6
3 26 32 28
3 6 32 26
3 6 33 32
3 6 7 33
3 33 34 32
3 29 35 36
3 30 29 36
3 36 0 30
3 8 0 36
3 12 33 7
3 37 33 12
3 33 37 38
3 34 33 38
3 35 39 40
3 36 35 40
3 40 8 36
3 13 8 40
3 17 37 12
3 41 37 17
3 37 41 42
3 38 37 42
3 40 39 43
3 43 44 45
3 40 43 45
3 40 45 18
3 40 18 13
3 18 46 19
3 45 46 18
3 19 47 20
3 46 47 19
3 48 49 41
3 47 48 41
3 47 41 17
3 47 17 20
3 41 49 42
3 45 44 50
3 46 45 50
3 51 46 50
3 47 46 51
3 52 47 51
3 47 52 48
3 53 21 23
3 54 53 23
3 23 25 54
3 25 55 54
3 25 27 55
3 27 56 55
3 28 57 56
3 27 28 56
3 58 29 31
3 59 58 31
3 31 53 59
3 21 53 31
3 60 28 32
3 57 28 60
3 34 61 60
3 32 34 60
3 35 29 62
3 62 29 58
3 38 63 34
3 63 61 34
3 39 35 64
3 64 35 62
3 42 65 38
3 65 63 38
3 66 43 39
3 64 66 39
3 44 66 67
3 43 66 44
3 68 49 48
3 69 49 68
3 49 69 65
3 42 49 65
3 70 50 44
3 67 70 44
3 50 70 51
3 51 70 71
3 51 71 52
3 52 71 72
3 52 72 68
3 48 52 68
3 73 53 54
3 74 73 54
3 54 55 74
3 55 75 74
3 55 56 75
3 56 76 75
3 57 77 76
3 56 57 76
3 78 58 59
3 79 78 59
3 59 73 79
3 53 73 59
3 80 57 60
3 77 57 80
3 61 81 80
3 60 61 80
3 62 58 82
3 82 58 78
3 63 83 61
3 83 81 61
3 64 62 84
3 84 62 82
3 65 85 63
3 85 83 63
3 86 66 64
3 84 86 64
3 67 86 87
3 66 86 67
3 88 69 68
3 89 69 88
3 69 89 85
3 65 69 85
3 90 70 67
3 87 90 67
3 70 90 71
3 71 90 91
3 71 91 72
3 72 91 92
3 72 92 88
3 68 72 88
3 73 74 93
3 74 75 94
3 93 74 94
3 75 76 95
3 94 75 95
3 76 77 95
3 78 79 96
3 97 93 98
3 96 93 97
3 96 73 93
3 96 79 73
3 94 98 93
3 99 98 94
3 95 99 94
3 100 99 95
3 100 101 102
3 95 101 100
3 95 80 101
3 95 77 80
3 80 81 101
3 82 78 96
3 103 82 96
3 96 104 103
3 97 104 96
3 102 105 106
3 101 105 102
3 105 101 81
3 83 105 81
3 84 82 103
3 107 84 103
3 103 108 107
3 104 108 103
3 106 109 110
3 105 109 106
3 109 105 83
3 85 109 83
3 86 84 107
3 107 108 111
3 86 107 111
3 86 111 112
3 86 112 87
3 112 113 114
3 111 113 112
3 114 115 116
3 113 115 114
3 89 110 109
3 88 110 89
3 88 115 110
3 88 116 115
3 89 109 85
3 90 87 112
3 91 90 112
3 114 91 112
3 92 91 114
3 116 92 114
3 92 116 88
3 97 98 117
3 98 99 118
3 117 98 118
3 99 100 119
3 118 99 119
3 100 102 119
3 104 97 117
3 120 104 117
3 120 117 121
3 117 118 121
3 121 118 122
3 118 119 122
3 122 119 102
3 106 122 102
3 108 104 120
3 123 108 120
3 123 120 124
3 120 121 124
3 124 121 125
3 121 122 125
3 125 122 106
3 110 125 106
3 111 108 123
3 113 111 123
3 124 113 123
3 115 113 124
3 125 115 124
3 115 125 110
