ply
format ascii 1.0
comment VCGLIB generated
element vertex 126
property float x
property float y
property float z
element face 248
property list uchar int vertex_indices
end_header
-0.17311859130859375 0.254391968250274658 -0.525943577289581299
-0.164563491940498352 0.141132965683937073 -0.444305747747421265
-0.258757263422012329 0.139599069952964783 -0.502465546131134033
-0.155689239501953125 -0.0677454546093940735 -0.479051917791366577
-0.235689803957939148 -0.101879067718982697 -0.400276035070419312
-0.147343948483467102 -0.315497905015945435 -0.372040122747421265
-0.283359527587890625 -0.283280134201049805 -0.448703616857528687
-0.148287460207939148 -0.418891817331314087 -0.436106055974960327
0.03615570068359375 0.193625405430793762 -0.432270199060440063
0.0232607517391443253 0.132438942790031433 -0.527791202068328857
0.0347468070685863495 -0.0517442114651203156 -0.464566707611083984
0.0407460518181324005 -0.276944220066070557 -0.410529136657714844
0.029773712158203125 -0.393367290496826172 -0.414007663726806641
0.293674468994140625 0.255507588386535645 -0.481438487768173218
0.249167129397392273 0.153667673468589783 -0.46460309624671936
0.2198486328125 -0.0596558637917041779 -0.351853847503662109
0.244394943118095398 -0.282358676195144653 -0.287250667810440063
0.292903900146484375 -0.357144862413406372 -0.375592559576034546
0.333196014165878296 0.175443157553672791 -0.416749626398086548
0.366031646728515625 -0.100424252450466156 -0.42748674750328064
0.381771087646484375 -0.268223673105239868 -0.365066677331924438
-0.401743561029434204 0.212460219860076904 -0.293519824743270874
-0.410509735345840454 0.122192919254302979 -0.435616344213485718
-0.46176910400390625 0.196317985653877258 -0.329797118902206421
-0.4482421875 -0.110623478889465332 -0.308398723602294922
-0.448908478021621704 -0.0282640513032674789 -0.267069339752197266
-0.432221740484237671 -0.288485556840896606 -0.34057888388633728
-0.336316436529159546 -0.263368874788284302 -0.254287391901016235
-0.427783966064453125 -0.379726618528366089 -0.208080127835273743
-0.145098373293876648 0.400685220956802368 -0.321916252374649048
-0.109453834593296051 0.289609074592590332 -0.354438930749893188
-0.20810699462890625 0.323426812887191772 -0.284702450037002563
-0.271990448236465454 -0.423548370599746704 -0.154107093811035156
-0.154012039303779602 -0.474322706460952759 -0.269625335931777954
-0.172762557864189148 -0.420532822608947754 -0.165934562683105469
0.0143839521333575249 0.409934490919113159 -0.287071079015731812
0.0147857666015625 0.395150691270828247 -0.468513339757919312
0.0113271074369549751 -0.483316332101821899 -0.213117122650146484
0.000139872237923555076 -0.432509779930114746 -0.147247955203056335
0.268863677978515625 0.459264874458312988 -0.275079399347305298
0.271039336919784546 0.366672754287719727 -0.374986320734024048
0.233324691653251648 -0.419531792402267456 -0.188962772488594055
0.2218170166015625 -0.465651780366897583 -0.0871745720505714417
0.322747558355331421 0.390230566263198853 -0.251807361841201782
0.47235870361328125 0.311088770627975464 -0.218919754028320312
0.488217681646347046 0.15849006175994873 -0.323247760534286499
0.450016021728515625 -0.0461535044014453888 -0.25320705771446228
0.466585785150527954 -0.233091101050376892 -0.244141265749931335
0.487485259771347046 -0.326139152050018311 -0.104182399809360504
0.356235504150390625 -0.494952946901321411 -0.0809785500168800354
0.4108734130859375 0.176562175154685974 -0.204934597015380859
0.483305603265762329 -0.00756235187873244286 -0.144287422299385071
0.426672607660293579 -0.25600925087928772 -0.133982017636299133
-0.414103180170059204 0.309659212827682495 -0.107068061828613281
-0.340689331293106079 0.221763774752616882 -0.0815157890319824219
-0.332806915044784546 -0.00170901638921350241 -0.0455187149345874786
-0.389486938714981079 -0.218887642025947571 0.0117578506469726562
-0.468442291021347046 -0.339584618806838989 0.0595850944519042969
-0.209018707275390625 0.473646670579910278 -0.0829172134399414062
-0.336683899164199829 0.425456315279006958 -0.111624240875244141
-0.336340576410293579 -0.39072766900062561 0.0357820205390453339
-0.233196258544921875 -0.503540098667144775 0.0829199180006980896
0.020366668701171875 0.41280016303062439 -0.0482252426445484161
0.00761922216042876244 -0.509615540504455566 0.0950655937194824219
0.208315536379814148 0.348631411790847778 -0.0852578505873680115
0.208216354250907898 -0.464538097381591797 0.127968311309814453
0.35044097900390625 0.442004412412643433 -0.0814509391784667969
0.423337310552597046 0.346235156059265137 -0.00302410125732421875
0.399511963129043579 -0.306110650300979614 0.0820318832993507385
0.289615631103515625 -0.422873884439468384 0.112497329711914062
0.422265380620956421 0.244254544377326965 0.0268521308898925781
0.40525054931640625 -0.0087239360436797142 0.0209913253784179688
0.381177276372909546 -0.239690318703651428 0.103937782347202301
-0.429564148187637329 0.318650156259536743 0.107261024415493011
-0.373223632574081421 0.217872604727745056 0.100272022187709808
-0.308455139398574829 0.00946200452744960785 0.145892933011054993
-0.356404632329940796 -0.208183810114860535 0.221295669674873352
-0.482512146234512329 -0.309763222932815552 0.271356105804443359
-0.284702301025390625 0.447523951530456543 0.147373512387275696
-0.314266204833984375 0.398370027542114258 0.154856845736503601
-0.289217621088027954 -0.361482292413711548 0.259311199188232422
-0.255956023931503296 -0.440999895334243774 0.248885631561279297
-0.018890380859375 0.426142364740371704 0.152703925967216492
-0.04988861083984375 -0.34659150242805481 0.269976615905761719
0.17507171630859375 0.401204615831375122 0.147240325808525085
0.209796905517578125 -0.432906985282897949 0.303047031164169312
0.28867340087890625 0.477474361658096313 0.158252716064453125
0.382447570562362671 0.324602007865905762 0.195939704775810242
0.407179504632949829 -0.222765460610389709 0.333076953887939453
0.272837311029434204 -0.370183616876602173 0.29612240195274353
0.4043731689453125 0.26206168532371521 0.205632999539375305
0.37886810302734375 0.0586043335497379303 0.268064826726913452
0.358149200677871704 -0.18561871349811554 0.294355869293212891
-0.432860046625137329 0.230571195483207703 0.216461345553398132
-0.373785644769668579 0.0526634268462657928 0.244999408721923828
-0.454584747552871704 -0.172120168805122375 0.284467071294784546
-0.26189422607421875 0.495105952024459839 0.225459098815917969
-0.237608596682548523 0.360720783472061157 0.397348731756210327
-0.333712249994277954 0.268516451120376587 0.375947475433349609
-0.344832092523574829 0.0864761695265769958 0.430130481719970703
-0.354701995849609375 -0.147476613521575928 0.429645389318466187
-0.262420654296875 -0.376236528158187866 0.392205715179443359
-0.277884155511856079 -0.23757423460483551 0.494793981313705444
-0.002407073974609375 0.47876325249671936 0.234343215823173523
-0.023952484130859375 0.281721264123916626 0.27602735161781311
-0.0297114048153162003 -0.3199329674243927 0.316755622625350952
-0.0398966483771800995 -0.248257100582122803 0.509460508823394775
0.165264129638671875 0.489635348320007324 0.268578857183456421
0.228382110595703125 0.29247012734413147 0.282481521368026733
0.175070449709892273 -0.317150086164474487 0.326178878545761108
0.155153915286064148 -0.192076623439788818 0.525539934635162354
0.230551406741142273 0.263004213571548462 0.382459789514541626
0.378595978021621704 0.287520378828048706 0.331294536590576172
0.256378173828125 0.0912549793720245361 0.461495876312255859
0.42729949951171875 0.074503771960735321 0.363668918609619141
0.221192672848701477 -0.120617218315601349 0.573298156261444092
0.394917815923690796 -0.12505321204662323 0.41654697060585022
-0.225930526852607727 0.259601712226867676 0.354043632745742798
-0.301532745361328125 0.029400976374745369 0.367727428674697876
-0.2780914306640625 -0.196326375007629395 0.385748535394668579
0.000634511292446404696 0.217908322811126709 0.329247146844863892
-0.0538622550666332245 0.0524167120456695557 0.521397411823272705
-0.07575225830078125 -0.140852496027946472 0.463472694158554077
0.2425689697265625 0.312336713075637817 0.423030853271484375
0.189727783203125 0.0978215858340263367 0.454738140106201172
0.105678558349609375 -0.14795134961605072 0.583280980587005615
3 0 1 2
3 1 3 4
3 2 1 4
3 3 5 6
3 4 3 6
3 5 7 6
3 0 8 9
3 1 0 9
3 9 10 1
3 1 10 3
3 10 11 3
3 3 11 5
3 5 11 12
3 7 5 12
3 8 13 14
3 9 8 14
3 14 15 9
3 9 15 10
3 15 16 10
3 10 16 11
3 11 16 17
3 12 11 17
3 14 13 18
3 15 14 18
3 19 15 18
3 16 15 19
3 20 16 19
3 16 20 17
3 21 22 23
3 22 24 25
3 23 22 25
3 24 26 27
3 25 24 27
3 26 28 27
3 29 30 31
3 2 22 21
3 0 2 21
3 0 21 31
3 0 31 30
3 4 22 2
3 24 22 4
3 6 24 4
3 26 24 6
3 26 32 28
3 6 32 26
3 6 33 32
3 6 7 33
3 33 34 32
3 29 35 36
3 30 29 36
3 36 0 30
3 8 0 36
3 12 33 7
3 37 33 12
3 33 37 38
3 34 33 38
3 35 39 40
3 36 35 40
3 40 8 36
3 13 8 40
3 17 37 12
3 41 37 17
3 37 41 42
3 38 37 42
3 40 39 43
3 43 44 45
3 40 43 45
3 40 45 18
3 40 18 13
3 18 46 19
3 45 46 18
3 19 47 20
3 46 47 19
3 48 49 41
3 47 48 41
3 47 41 17
3 47 17 20
3 41 49 42
3 45 44 50
3 46 45 50
3 51 46 50
3 47 46 51
3 52 47 51
3 47 52 48
3 53 21 23
3 54 53 23
3 23 25 54
3 25 55 54
3 25 27 55
3 27 56 55
3 28 57 56
3 27 28 56
3 58 29 31
3 59 58 31
3 31 53 59
3 21 53 31
3 60 28 32
3 57 28 60
3 34 61 60
3 32 34 60
3 35 29 62
3 62 29 58
3 38 63 34
3 63 61 34
3 39 35 64
3 64 35 62
3 42 65 38
3 65 63 38
3 66 43 39
3 64 66 39
3 44 66 67
3 43 66 44
3 68 49 48
3 69 49 68
3 49 69 65
3 42 49 65
3 70 50 44
3 67 70 44
3 50 70 51
3 51 70 71
3 51 71 52
3 52 71 72
3 52 72 68
3 48 52 68
3 73 53 54
3 74 73 54
3 54 55 74
3 55 75 74
3 55 56 75
3 56 76 75
3 57 77 76
3 56 57 76
3 78 58 59
3 79 78 59
3 59 73 79
3 53 73 59
3 80 57 60
3 77 57 80
3 61 81 80
3 60 61 80
3 62 58 82
3 82 58 78
3 63 83 61
3 83 81 61
3 64 62 84
3 84 62 82
3 65 85 63
3 85 83 63
3 86 66 64
3 84 86 64
3 67 86 87
3 66 86 67
3 88 69 68
3 89 69 88
3 69 89 85
3 65 69 85
3 90 70 67
3 87 90 67
3 70 90 71
3 71 90 91
3 71 91 72
3 72 91 92
3 72 92 88
3 68 72 88
3 73 74 93
3 74 75 94
3 93 74 94
3 75 76 95
3 94 75 95
3 76 77 95
3 78 79 96
3 97 93 98
3 96 93 97
3 96 73 93
3 96 79 73
3 94 98 93
3 99 98 94
3 95 99 94
3 100 99 95
3 100 101 102
3 95 101 100
3 95 80 101
3 95 77 80
3 80 81 101
3 82 78 96
3 103 82 96
3 96 104 103
3 97 104 96
3 102 105 106
3 101 105 102
3 105 101 81
3 83 105 81
3 84 82 103
3 107 84 103
3 103 108 107
3 104 108 103
3 106 109 110
3 105 109 106
3 109 105 83
3 85 109 83
3 86 84 107
3 107 108 111
3 86 107 111
3 86 111 112
3 86 112 87
3 112 113 114
3 111 113 112
3 114 115 116
3 113 115 114
3 89 110 109
3 88 110 89
3 88 115 110
3 88 116 115
3 89 109 85
3 90 87 112
3 91 90 112
3 114 91 112
3 92 91 114
3 116 92 114
3 92 116 88
3 97 98 117
3 98 99 118
3 117 98 118
3 99 100 119
3 118 99 119
3 100 102 119
3 104 97 117
3 120 104 117
3 120 117 121
3 117 118 121
3 121 118 122
3 118 119 122
3 122 119 102
3 106 122 102
3 108 104 120
3 123 108 120
3 123 120 124
3 120 121 124
3 124 121 125
3 121 122 125
3 125 122 106
3 110 125 106
3 111 108 123
3 113 111 123
3 124 113 123
3 115 113 124
3 125 115 124
3 115 125 110
