ply
format ascii 1.0
comment VCGLIB generated
element vertex 126
property float x
property float y
property float z
element face 248
property list uchar int vertex_indices
end_header
-0.202307388186454773 0.202645137906074524 -0.500089168548583984
-0.168501541018486023 0.0815911591053009033 -0.535797417163848877
-0.218992874026298523 0.0896509364247322083 -0.435770362615585327
-0.158498123288154602 -0.154397383332252502 -0.513462364673614502
-0.233987167477607727 -0.131977856159210205 -0.428782135248184204
-0.097263336181640625 -0.175604104995727539 -0.303603500127792358
-0.0617624931037425995 -0.0762232691049575806 -0.299184650182723999
-0.0554211921989917755 -0.172890320420265198 -0.206182792782783508
-0.004543304443359375 0.191609978675842285 -0.39519152045249939
-0.026371002197265625 0.0841189026832580566 -0.364205360412597656
0.0175069179385900497 -0.135728582739830017 -0.374478965997695923
0.029041290283203125 -0.358209401369094849 -0.323621124029159546
0.0605341605842113495 -0.349631398916244507 -0.212019279599189758
0.151935577392578125 0.187762841582298279 -0.235126808285713196
0.14286041259765625 0.0851090475916862488 -0.223583534359931946
0.199156448245048523 -0.121577583253383636 -0.244678810238838196
0.209691360592842102 -0.320334762334823608 -0.183439090847969055
0.284221649169921875 -0.351425200700759888 -0.262044578790664673
0.180112197995185852 0.0912126526236534119 -0.331589549779891968
0.204219818115234375 -0.138444647192955017 -0.353461742401123047
0.151597335934638977 -0.341134309768676758 -0.262053161859512329
-0.402768462896347046 0.192603051662445068 -0.256073474884033203
-0.294312804937362671 0.103577844798564911 -0.272998332977294922
-0.391199737787246704 0.0922574475407600403 -0.227344349026679993
-0.35065460205078125 -0.110854350030422211 -0.290475219488143921
-0.384639739990234375 -0.121039204299449921 -0.187399864196777344
-0.165303543210029602 -0.141613543033599854 -0.169176578521728516
-0.203280135989189148 -0.232795044779777527 -0.128363296389579773
-0.096758522093296051 -0.251668691635131836 -0.112536586821079254
-0.260082244873046875 0.412091523408889771 -0.294418662786483765
-0.2387847900390625 0.337293624877929688 -0.378260761499404907
-0.352176666259765625 0.357175260782241821 -0.309807777404785156
0.066197715699672699 -0.227303445339202881 -0.0573376007378101349
-0.076274871826171875 -0.157873407006263733 -0.032231014221906662
-0.00506464624777436256 -0.127326041460037231 -0.103400230407714844
-0.0563685111701488495 0.346835404634475708 -0.229640647768974304
-0.0211092624813318253 0.360333293676376343 -0.333944469690322876
0.115269981324672699 -0.253009051084518433 -0.0659464225172996521
0.0577214546501636505 -0.347622871398925781 -0.108164466917514801
0.15521240234375 0.298983454704284668 -0.174480125308036804
0.190774276852607727 0.357826203107833862 -0.260848194360733032
0.267139434814453125 -0.44083249568939209 -0.0897278785705566406
0.23949432373046875 -0.426945894956588745 0.0287947654724121094
0.252653747797012329 0.33438563346862793 -0.141318008303642273
0.294208526611328125 0.160878762602806091 -0.109044395387172699
0.209748581051826477 0.0625161081552505493 -0.157049492001533508
0.210030868649482727 -0.158517837524414062 -0.182091400027275085
0.0183270778506994247 -0.272063463926315308 -0.174837902188301086
0.117659248411655426 -0.224134489893913269 -0.107730865478515625
0.144504547119140625 -0.404131203889846802 -0.0326093025505542755
0.2918853759765625 0.0554555989801883698 -0.0850221291184425354
0.218236282467842102 -0.155883193016052246 -0.0774691924452781677
0.0779571533203125 -0.327612072229385376 -0.0919288024306297302
-0.341217041015625 0.250200599431991577 -0.0458350181579589844
-0.33119964599609375 0.139073610305786133 -0.0156292915344238281
-0.424809783697128296 -0.0636421963572502136 0.0258536338806152344
-0.264265686273574829 -0.225057065486907959 0.0814073905348777771
-0.169699355959892273 -0.183644413948059082 0.0899046286940574646
-0.275770813226699829 0.371388554573059082 -0.0696404799818992615
-0.368864685297012329 0.425222545862197876 -0.0899863243103027344
-0.009189605712890625 -0.184098318219184875 0.153066158294677734
0.029048919677734375 -0.103783749043941498 0.100542224943637848
-0.07570648193359375 0.475223064422607422 -0.0441625900566577911
0.0184173583984375 -0.324674904346466064 0.123286880552768707
0.137869521975517273 0.431057333946228027 0.00622240686789155006
0.211037948727607727 -0.204605758190155029 0.0990254059433937073
0.175655364990234375 0.349766939878463745 0.0702393874526023865
0.251393646001815796 0.192886635661125183 0.11146942526102066
0.121115364134311676 -0.164222687482833862 0.109907306730747223
0.272879272699356079 -0.230471715331077576 0.0180150661617517471
0.1971588134765625 0.096218012273311615 0.114042125642299652
0.0513178519904613495 -0.026430005207657814 -0.00827916432172060013
0.196280166506767273 -0.193638131022453308 0.0349396057426929474
-0.488620758056640625 0.268821269273757935 0.123375259339809418
-0.4075164794921875 0.219451114535331726 0.178682804107666016
-0.419211059808731079 -0.00638596666976809502 0.244622543454170227
-0.305302947759628296 -0.195148169994354248 0.300618976354598999
-0.22332763671875 -0.113180071115493774 0.2988739013671875
-0.271752685308456421 0.45560261607170105 0.138084098696708679
-0.366601318120956421 0.403188705444335938 0.13210614025592804
-0.072636924684047699 -0.0180595554411411285 0.30406603217124939
-0.084293365478515625 -0.118255145847797394 0.29509243369102478
-0.0563977546989917755 0.380756467580795288 0.154306888580322266
0.02685546875 -0.286400407552719116 0.36760711669921875
0.079959869384765625 0.220474720001220703 0.0565714836120605469
0.252443939447402954 -0.251806586980819702 0.300565719604492188
-0.0253588352352380753 0.252864748239517212 0.0688652992248535156
0.074682869017124176 0.283997714519500732 0.218199893832206726
0.268413543701171875 -0.0607495903968811035 0.240315750241279602
0.241018936038017273 -0.226710543036460876 0.206681415438652039
0.02228546142578125 0.190938711166381836 0.217466831207275391
-0.0168660487979650497 -0.0319485701620578766 0.20588509738445282
0.178754165768623352 -0.127262815833091736 0.24999554455280304
-0.482524871826171875 0.160490646958351135 0.219276264309883118
-0.330220550298690796 -0.0108280619606375694 0.199981376528739929
-0.25372314453125 -0.211433425545692444 0.20739920437335968
-0.286977142095565796 0.415778070688247681 0.240567684173583984
-0.297612518072128296 0.296459764242172241 0.375001907348632812
-0.403287261724472046 0.210747793316841125 0.370630264282226562
-0.3380279541015625 -0.00274610333144664764 0.383133262395858765
-0.257574707269668579 -0.209272384643554688 0.39551129937171936
0.008754730224609375 -0.118305899202823639 0.358375698328018188
-0.131356552243232727 -0.185076117515563965 0.443897396326065063
-0.113267265260219574 0.294956415891647339 0.186092689633369446
-0.077882133424282074 0.249048635363578796 0.354424327611923218
0.069291435182094574 -0.310681402683258057 0.275252014398574829
-0.073641456663608551 -0.202446714043617249 0.229582622647285461
0.0333073921501636505 0.137422278523445129 0.115931354463100433
-0.00803883839398622513 0.048629414290189743 0.27311435341835022
0.200499221682548523 -0.144479379057884216 0.304119259119033813
0.066525779664516449 -0.244999125599861145 0.399272441864013672
-0.085814155638217926 0.133913934230804443 0.358521461486816406
0.081208549439907074 0.175457283854484558 0.306564658880233765
-0.0106938676908612251 -0.0225633531808853149 0.493137359619140625
-0.0391832999885082245 -0.0165762007236480713 0.314139038324356079
0.150531768798828125 -0.16821955144405365 0.466693252325057983
0.174762725830078125 -0.051770627498626709 0.334889888763427734
-0.320822387933731079 0.229274868965148926 0.298424571752548218
-0.267918914556503296 0.00789609737694263458 0.2991485595703125
-0.173169448971748352 -0.189504280686378479 0.34032025933265686
-0.101802825927734375 0.280619710683822632 0.258539676666259766
-0.0576006583869457245 0.0644700601696968079 0.243268489837646484
0.016857147216796875 -0.139476433396339417 0.24200613796710968
-0.119235992431640625 0.0576354265213012695 0.285308837890625
0.0452105216681957245 0.0615422166883945465 0.440514087677001953
0.036159515380859375 -0.159895196557044983 0.45699310302734375
3 0 1 2
3 1 3 4
3 2 1 4
3 3 5 6
3 4 3 6
3 5 7 6
3 0 8 9
3 1 0 9
3 9 10 1
3 1 10 3
3 10 11 3
3 3 11 5
3 5 11 12
3 7 5 12
3 8 13 14
3 9 8 14
3 14 15 9
3 9 15 10
3 15 16 10
3 10 16 11
3 11 16 17
3 12 11 17
3 14 13 18
3 15 14 18
3 19 15 18
3 16 15 19
3 20 16 19
3 16 20 17
3 21 22 23
3 22 24 25
3 23 22 25
3 24 26 27
3 25 24 27
3 26 28 27
3 29 30 31
3 2 22 21
3 0 2 21
3 0 21 31
3 0 31 30
3 4 22 2
3 24 22 4
3 6 24 4
3 26 24 6
3 26 32 28
3 6 32 26
3 6 33 32
3 6 7 33
3 33 34 32
3 29 35 36
3 30 29 36
3 36 0 30
3 8 0 36
3 12 33 7
3 37 33 12
3 33 37 38
3 34 33 38
3 35 39 40
3 36 35 40
3 40 8 36
3 13 8 40
3 17 37 12
3 41 37 17
3 37 41 42
3 38 37 42
3 40 39 43
3 43 44 45
3 40 43 45
3 40 45 18
3 40 18 13
3 18 46 19
3 45 46 18
3 19 47 20
3 46 47 19
3 48 49 41
3 47 48 41
3 47 41 17
3 47 17 20
3 41 49 42
3 45 44 50
3 46 45 50
3 51 46 50
3 47 46 51
3 52 47 51
3 47 52 48
3 53 21 23
3 54 53 23
3 23 25 54
3 25 55 54
3 25 27 55
3 27 56 55
3 28 57 56
3 27 28 56
3 58 29 31
3 59 58 31
3 31 53 59
3 21 53 31
3 60 28 32
3 57 28 60
3 34 61 60
3 32 34 60
3 35 29 62
3 62 29 58
3 38 63 34
3 63 61 34
3 39 35 64
3 64 35 62
3 42 65 38
3 65 63 38
3 66 43 39
3 64 66 39
3 44 66 67
3 43 66 44
3 68 49 48
3 69 49 68
3 49 69 65
3 42 49 65
3 70 50 44
3 67 70 44
3 50 70 51
3 51 70 71
3 51 71 52
3 52 71 72
3 52 72 68
3 48 52 68
3 73 53 54
3 74 73 54
3 54 55 74
3 55 75 74
3 55 56 75
3 56 76 75
3 57 77 76
3 56 57 76
3 78 58 59
3 79 78 59
3 59 73 79
3 53 73 59
3 80 57 60
3 77 57 80
3 61 81 80
3 60 61 80
3 62 58 82
3 82 58 78
3 63 83 61
3 83 81 61
3 64 62 84
3 84 62 82
3 65 85 63
3 85 83 63
3 86 66 64
3 84 86 64
3 67 86 87
3 66 86 67
3 88 69 68
3 89 69 88
3 69 89 85
3 65 69 85
3 90 70 67
3 87 90 67
3 70 90 71
3 71 90 91
3 71 91 72
3 72 91 92
3 72 92 88
3 68 72 88
3 73 74 93
3 74 75 94
3 93 74 94
3 75 76 95
3 94 75 95
3 76 77 95
3 78 79 96
3 97 93 98
3 96 93 97
3 96 73 93
3 96 79 73
3 94 98 93
3 99 98 94
3 95 99 94
3 100 99 95
3 100 101 102
3 95 101 100
3 95 80 101
3 95 77 80
3 80 81 101
3 82 78 96
3 103 82 96
3 96 104 103
3 97 104 96
3 102 105 106
3 101 105 102
3 105 101 81
3 83 105 81
3 84 82 103
3 107 84 103
3 103 108 107
3 104 108 103
3 106 109 110
3 105 109 106
3 109 105 83
3 85 109 83
3 86 84 107
3 107 108 111
3 86 107 111
3 86 111 112
3 86 112 87
3 112 113 114
3 111 113 112
3 114 115 116
3 113 115 114
3 89 110 109
3 88 110 89
3 88 115 110
3 88 116 115
3 89 109 85
3 90 87 112
3 91 90 112
3 114 91 112
3 92 91 114
3 116 92 114
3 92 116 88
3 97 98 117
3 98 99 118
3 117 98 118
3 99 100 119
3 118 99 119
3 100 102 119
3 104 97 117
3 120 104 117
3 120 117 121
3 117 118 121
3 121 118 122
3 118 119 122
3 122 119 102
3 106 122 102
3 108 104 120
3 123 108 120
3 123 120 124
3 120 121 124
3 124 121 125
3 121 122 125
3 125 122 106
3 110 125 106
3 111 108 123
3 113 111 123
3 124 113 123
3 115 113 124
3 125 115 124
3 115 125 110
