ply
format ascii 1.0
comment VCGLIB generated
element vertex 126
property float x
property float y
property float z
element face 248
property list uchar int vertex_indices
end_header
-0.313689470291137695 0.40806695818901062 -0.437862008810043335
-0.224744617938995361 0.352398514747619629 -0.357277601957321167
-0.268143743276596069 0.330984354019165039 -0.252554833889007568
-0.287544935941696167 0.0802882686257362366 -0.387833118438720703
-0.246408626437187195 0.0323689728975296021 -0.253406226634979248
-0.272424876689910889 -0.156989932060241699 -0.255711942911148071
-0.316586911678314209 -0.244054406881332397 -0.34356158971786499
-0.249417036771774292 -0.242453157901763916 -0.175800755620002747
-0.027119029313325882 0.499736756086349487 -0.50726085901260376
-0.0071438872255384922 0.342598229646682739 -0.537629961967468262
-0.020030628889799118 0.0423214063048362732 -0.501213252544403076
-0.0366540364921092987 -0.221105918288230896 -0.410662353038787842
-0.031779896467924118 -0.345679432153701782 -0.345861047506332397
0.22109811007976532 0.469261825084686279 -0.411892801523208618
0.197552770376205444 0.361494451761245728 -0.333371579647064209
0.173918977379798889 0.074720628559589386 -0.296933442354202271
0.186172828078269958 -0.220952033996582031 -0.261645108461380005
0.264268338680267334 -0.321638584136962891 -0.343705296516418457
0.332464724779129028 0.343998074531555176 -0.372297763824462891
0.307800978422164917 0.0641756728291511536 -0.313182532787322998
0.321887612342834473 -0.224829941987991333 -0.23425079882144928
-0.578245699405670166 0.414741158485412598 -0.105054378509521484
-0.474185943603515625 0.303364396095275879 -0.175653368234634399
-0.55319523811340332 0.276587694883346558 -0.0799287408590316772
-0.463575869798660278 0.0194217320531606674 -0.170513719320297241
-0.425118535757064819 0.0209154747426509857 -0.0403289347887039185
-0.476322174072265625 -0.267894059419631958 -0.193122074007987976
-0.451672285795211792 -0.267412513494491577 -0.0495026335120201111
-0.505301713943481445 -0.3935355544090271 -0.072231292724609375
-0.206366449594497681 0.490391582250595093 -0.0741106793284416199
-0.236899629235267639 0.461395800113677979 -0.216138139367103577
-0.33451080322265625 0.42892611026763916 -0.0755875781178474426
-0.37989354133605957 -0.579327881336212158 -0.0792670249938964844
-0.292061895132064819 -0.45194631814956665 -0.0968451946973800659
-0.239949658513069153 -0.574911832809448242 -0.0636343508958816528
-0.0232783220708370209 0.683416306972503662 -0.143311664462089539
-0.0386342145502567291 0.619131028652191162 -0.301141083240509033
-0.0145166562870144844 -0.489169567823410034 -0.177128523588180542
-0.00467473780736327171 -0.395063698291778564 -0.0878026261925697327
0.238931819796562195 0.619576036930084229 -0.20394432544708252
0.254488855600357056 0.679251253604888916 -0.33332476019859314
0.269000321626663208 -0.461894899606704712 -0.170798510313034058
0.266139298677444458 -0.360694915056228638 -0.0716686248779296875
0.318655520677566528 0.691527009010314941 -0.153069928288459778
0.409134954214096069 0.450777798891067505 -0.136096253991127014
0.260826438665390015 0.338639199733734131 -0.153926283121109009
0.440677285194396973 0.134232878684997559 -0.102040335536003113
0.508011877536773682 -0.137050390243530273 -0.143114000558853149
0.524560749530792236 -0.253451287746429443 -0.0338385328650474548
0.395133256912231445 -0.417402893304824829 -0.0605570189654827118
0.306649625301361084 0.404603481292724609 -0.0336673036217689514
0.311336517333984375 0.116923883557319641 -0.0484139248728752136
0.424164861440658569 -0.146416634321212769 -0.0421918518841266632
-0.569971263408660889 0.433524489402770996 0.197167173027992249
-0.602030336856842041 0.292604923248291016 0.202122166752815247
-0.572398781776428223 0.0133666340261697769 0.205909550189971924
-0.547943115234375 -0.268178373575210571 0.215716361999511719
-0.544889628887176514 -0.39604678750038147 0.21674935519695282
-0.294078469276428223 0.649806737899780273 0.158997654914855957
-0.416903048753738403 0.599469661712646484 0.162920296192169189
-0.388192266225814819 -0.569947302341461182 0.222555071115493774
-0.275511294603347778 -0.489979922771453857 0.214880377054214478
-0.008335113525390625 0.663608551025390625 0.148435935378074646
-0.0330716893076896667 -0.344839870929718018 0.19280540943145752
0.252732366323471069 0.520325124263763428 0.065232403576374054
0.243017017841339111 -0.37375912070274353 0.217127799987792969
0.268956959247589111 0.645887672901153564 0.130997136235237122
0.467385381460189819 0.515022337436676025 0.146612033247947693
0.491411030292510986 -0.206712141633033752 0.24615807831287384
0.37017822265625 -0.389700114727020264 0.214508220553398132
0.522412359714508057 0.384615719318389893 0.157053038477897644
0.38527226448059082 0.135232850909233093 0.23095780611038208
0.36266326904296875 -0.160308927297592163 0.246703192591667175
-0.574259340763092041 0.437452077865600586 0.477555006742477417
-0.612463533878326416 0.295309871435165405 0.493230819702148438
-0.54026341438293457 0.0273435935378074646 0.49135163426399231
-0.617374062538146973 -0.24636782705783844 0.494686037302017212
-0.54915165901184082 -0.366038739681243896 0.500214517116546631
-0.268393427133560181 0.609204411506652832 0.445833206176757812
-0.405467629432678223 0.591216623783111572 0.466441243886947632
-0.388292819261550903 -0.532690346240997314 0.515017092227935791
-0.266508609056472778 -0.48554694652557373 0.50238347053527832
-0.0148825207725167274 0.488985449075698853 0.399215638637542725
0.00560066895559430122 -0.422443538904190063 0.483454138040542603
0.223825618624687195 0.375330060720443726 0.317516744136810303
0.224734216928482056 -0.242034837603569031 0.467803895473480225
0.195107892155647278 0.499438583850860596 0.369856119155883789
0.40304875373840332 0.403190821409225464 0.412502288818359375
0.524293720722198486 -0.297378093004226685 0.511466145515441895
0.347648948431015015 -0.192427128553390503 0.426288068294525146
0.552274525165557861 0.425166100263595581 0.44269561767578125
0.542260944843292236 0.119812272489070892 0.468095630407333374
0.5224609375 -0.166429489850997925 0.4642486572265625
-0.572537481784820557 0.303747773170471191 0.628338038921356201
-0.526891171932220459 0.0169672630727291107 0.63028484582901001
-0.577753245830535889 -0.251795589923858643 0.640123546123504639
-0.265730082988739014 0.549469888210296631 0.57625269889831543
-0.288786441087722778 0.425066739320755005 0.77953726053237915
-0.404815673828125 0.295543074607849121 0.803646385669708252
-0.415011316537857056 0.0226199496537446976 0.834414184093475342
-0.478905767202377319 -0.263100355863571167 0.848553597927093506
-0.27145037055015564 -0.471457779407501221 0.642048656940460205
-0.310318678617477417 -0.331492066383361816 0.805676162242889404
-0.0578360110521316528 0.384516596794128418 0.474586695432662964
-0.034770965576171875 0.324447900056838989 0.721409082412719727
0.0116781750693917274 -0.398288995027542114 0.632094681262969971
-0.0394717119634151459 -0.228830590844154358 0.776868939399719238
0.206004053354263306 0.321260392665863037 0.435332596302032471
0.232015088200569153 0.308814436197280884 0.667104899883270264
0.273411482572555542 -0.287193149328231812 0.578077018260955811
0.22907257080078125 -0.159322634339332581 0.750039041042327881
0.354466855525970459 0.40023040771484375 0.738197445869445801
0.480280786752700806 0.40767708420753479 0.574550211429595947
0.370974093675613403 0.104478605091571808 0.760181128978729248
0.547398626804351807 0.11493983119726181 0.623339712619781494
0.393342107534408569 -0.187214672565460205 0.810434162616729736
0.472521334886550903 -0.156973347067832947 0.596926212310791016
-0.303084641695022583 0.328247815370559692 0.895212113857269287
-0.320599287748336792 0.0439992509782314301 0.964044630527496338
-0.332225441932678223 -0.250752717256546021 0.928209781646728516
-0.023786371573805809 0.341416358947753906 0.876509904861450195
-0.0232835244387388229 0.0517506226897239685 0.949698030948638916
-0.0345819629728794098 -0.235532239079475403 0.913015782833099365
0.24921417236328125 0.369545876979827881 0.800347745418548584
0.259576261043548584 0.0804395750164985657 0.846727550029754639
0.261910170316696167 -0.211958304047584534 0.87173384428024292
3 0 1 2
3 1 3 4
3 2 1 4
3 3 5 6
3 4 3 6
3 5 7 6
3 0 8 9
3 1 0 9
3 9 10 1
3 1 10 3
3 10 11 3
3 3 11 5
3 5 11 12
3 7 5 12
3 8 13 14
3 9 8 14
3 14 15 9
3 9 15 10
3 15 16 10
3 10 16 11
3 11 16 17
3 12 11 17
3 14 13 18
3 15 14 18
3 19 15 18
3 16 15 19
3 20 16 19
3 16 20 17
3 21 22 23
3 22 24 25
3 23 22 25
3 24 26 27
3 25 24 27
3 26 28 27
3 29 30 31
3 2 22 21
3 0 2 21
3 0 21 31
3 0 31 30
3 4 22 2
3 24 22 4
3 6 24 4
3 26 24 6
3 26 32 28
3 6 32 26
3 6 33 32
3 6 7 33
3 33 34 32
3 29 35 36
3 30 29 36
3 36 0 30
3 8 0 36
3 12 33 7
3 37 33 12
3 33 37 38
3 34 33 38
3 35 39 40
3 36 35 40
3 40 8 36
3 13 8 40
3 17 37 12
3 41 37 17
3 37 41 42
3 38 37 42
3 40 39 43
3 43 44 45
3 40 43 45
3 40 45 18
3 40 18 13
3 18 46 19
3 45 46 18
3 19 47 20
3 46 47 19
3 48 49 41
3 47 48 41
3 47 41 17
3 47 17 20
3 41 49 42
3 45 44 50
3 46 45 50
3 51 46 50
3 47 46 51
3 52 47 51
3 47 52 48
3 53 21 23
3 54 53 23
3 23 25 54
3 25 55 54
3 25 27 55
3 27 56 55
3 28 57 56
3 27 28 56
3 58 29 31
3 59 58 31
3 31 53 59
3 21 53 31
3 60 28 32
3 57 28 60
3 34 61 60
3 32 34 60
3 35 29 62
3 62 29 58
3 38 63 34
3 63 61 34
3 39 35 64
3 64 35 62
3 42 65 38
3 65 63 38
3 66 43 39
3 64 66 39
3 44 66 67
3 43 66 44
3 68 49 48
3 69 49 68
3 49 69 65
3 42 49 65
3 70 50 44
3 67 70 44
3 50 70 51
3 51 70 71
3 51 71 52
3 52 71 72
3 52 72 68
3 48 52 68
3 73 53 54
3 74 73 54
3 54 55 74
3 55 75 74
3 55 56 75
3 56 76 75
3 57 77 76
3 56 57 76
3 78 58 59
3 79 78 59
3 59 73 79
3 53 73 59
3 80 57 60
3 77 57 80
3 61 81 80
3 60 61 80
3 62 58 82
3 82 58 78
3 63 83 61
3 83 81 61
3 64 62 84
3 84 62 82
3 65 85 63
3 85 83 63
3 86 66 64
3 84 86 64
3 67 86 87
3 66 86 67
3 88 69 68
3 89 69 88
3 69 89 85
3 65 69 85
3 90 70 67
3 87 90 67
3 70 90 71
3 71 90 91
3 71 91 72
3 72 91 92
3 72 92 88
3 68 72 88
3 73 74 93
3 74 75 94
3 93 74 94
3 75 76 95
3 94 75 95
3 76 77 95
3 78 79 96
3 97 93 98
3 96 93 97
3 96 73 93
3 96 79 73
3 94 98 93
3 99 98 94
3 95 99 94
3 100 99 95
3 100 101 102
3 95 101 100
3 95 80 101
3 95 77 80
3 80 81 101
3 82 78 96
3 103 82 96
3 96 104 103
3 97 104 96
3 102 105 106
3 101 105 102
3 105 101 81
3 83 105 81
3 84 82 103
3 107 84 103
3 103 108 107
3 104 108 103
3 106 109 110
3 105 109 106
3 109 105 83
3 85 109 83
3 86 84 107
3 107 108 111
3 86 107 111
3 86 111 112
3 86 112 87
3 112 113 114
3 111 113 112
3 114 115 116
3 113 115 114
3 89 110 109
3 88 110 89
3 88 115 110
3 88 116 115
3 89 109 85
3 90 87 112
3 91 90 112
3 114 91 112
3 92 91 114
3 116 92 114
3 92 116 88
3 97 98 117
3 98 99 118
3 117 98 118
3 99 100 119
3 118 99 119
3 100 102 119
3 104 97 117
3 120 104 117
3 120 117 121
3 117 118 121
3 121 118 122
3 118 119 122
3 122 119 102
3 106 122 102
3 108 104 120
3 123 108 120
3 123 120 124
3 120 121 124
3 124 121 125
3 121 122 125
3 125 122 106
3 110 125 106
3 111 108 123
3 113 111 123
3 124 113 123
3 115 113 124
3 125 115 124
3 115 125 110
