ply
format ascii 1.0
comment VCGLIB generated
element vertex 126
property float x
property float y
property float z
element face 248
property list uchar int vertex_indices
end_header
-0.292012542486190796 0.191927671432495117 -0.432462364435195923
-0.282802581787109375 0.125522643327713013 -0.523582637310028076
-0.401243835687637329 0.121964752674102783 -0.466637134552001953
-0.234155014157295227 0.0281937047839164734 -0.322828292846679688
-0.3217010498046875 -0.0313084609806537628 -0.332215458154678345
-0.321806579828262329 -0.166272580623626709 -0.250479072332382202
-0.227099105715751648 -0.198653802275657654 -0.214834854006767273
-0.353883117437362671 -0.252622693777084351 -0.183291122317314148
-0.067414604127407074 0.196084693074226379 -0.402207523584365845
-0.0616327933967113495 0.100964218378067017 -0.441399425268173218
-0.102748870849609375 -0.121336609125137329 -0.419909805059432983
-0.114901222288608551 -0.250282973051071167 -0.231766864657402039
-0.164225265383720398 -0.356270402669906616 -0.248040199279785156
0.149837493896484375 0.176530778408050537 -0.349949836730957031
0.155794784426689148 0.0751657262444496155 -0.386312007904052734
0.112158454954624176 -0.143471643328666687 -0.348406314849853516
0.069122314453125 -0.358429044485092163 -0.308113902807235718
0.0406239815056324005 -0.443461328744888306 -0.249361351132392883
0.240681961178779602 0.0711929425597190857 -0.320982307195663452
0.2044677734375 -0.148692920804023743 -0.287364333868026733
0.087677001953125 -0.322787016630172729 -0.206662654876708984
-0.498453766107559204 0.139163032174110413 -0.198068618774414062
-0.53647613525390625 0.160957828164100647 -0.346642971038818359
-0.590229034423828125 0.168770447373390198 -0.258294105529785156
-0.407881408929824829 0.0481226891279220581 -0.198314830660820007
-0.501033782958984375 -0.0250912979245185852 -0.176625415682792664
-0.381291717290878296 -0.165175527334213257 -0.288678169250488281
-0.305914551019668579 -0.146656021475791931 -0.210266903042793274
-0.328098297119140625 -0.258078962564468384 -0.194292858242988586
-0.327843993902206421 0.347829252481460571 -0.199269935488700867
-0.307165771722793579 0.2876301109790802 -0.283622115850448608
-0.400150299072265625 0.27913367748260498 -0.200817108154296875
-0.469567626714706421 -0.368281155824661255 -0.126225948333740234
-0.360857635736465454 -0.362769752740859985 -0.0415374450385570526
-0.371063232421875 -0.40001341700553894 -0.143049076199531555
-0.098776496946811676 0.377641886472702026 -0.195951461791992188
-0.0847930908203125 0.311421871185302734 -0.273732036352157593
-0.147403717041015625 -0.291209161281585693 -0.0827169418334960938
-0.144224807620048523 -0.360075086355209351 -0.160356685519218445
0.116720832884311676 0.353798240423202515 -0.13776572048664093
0.135027572512626648 0.308530747890472412 -0.233397006988525391
-0.073403678834438324 -0.499259114265441895 -0.124498210847377777
-0.070850372314453125 -0.518329858779907227 -0.017298063263297081
0.217875167727470398 0.311520367860794067 -0.123376369476318359
0.344809204339981079 0.183724522590637207 -0.0866924896836280823
0.337156921625137329 0.0732720717787742615 -0.17235739529132843
0.299457550048828125 -0.145939454436302185 -0.13779003918170929
0.155038192868232727 -0.295208722352981567 -0.0447400398552417755
0.175394698977470398 -0.430097848176956177 -0.0296696033328771591
0.0335604362189769745 -0.54231417179107666 -0.04688262939453125
0.370054870843887329 0.079412899911403656 -0.0658761635422706604
0.350648254156112671 -0.1446952223777771 -0.0366074256598949432
0.250677734613418579 -0.347542673349380493 -0.0387303046882152557
-0.564233124256134033 0.197998687624931335 0.00986687373369932175
-0.592622101306915283 0.260984838008880615 -0.0471051521599292755
-0.449787139892578125 0.0982016101479530334 -0.0115960435941815376
-0.308324187994003296 -0.0757609531283378601 -0.00522836064919829369
-0.38245391845703125 -0.159120634198188782 -0.000100930534244980663
-0.398848205804824829 0.408947229385375977 -0.0033969879150390625
-0.475798279047012329 0.384531348943710327 -0.025003751739859581
-0.409061431884765625 -0.310254007577896118 0.0849650725722312927
-0.321386963129043579 -0.391979068517684937 0.066600799560546875
-0.148120880126953125 0.384331256151199341 0.0279288291931152344
-0.172679901123046875 -0.226433753967285156 0.0315035171806812286
0.065836586058139801 0.309836000204086304 0.0692375525832176208
-0.011379241943359375 -0.354148656129837036 0.123299121856689453
0.175481155514717102 0.307304412126541138 0.0979431495070457458
0.32611083984375 0.214802190661430359 0.141609668731689453
0.04601287841796875 -0.30048796534538269 0.100572586059570312
-0.0440533943474292755 -0.451052933931350708 0.139194801449775696
0.300055176019668579 0.110433608293533325 0.14821179211139679
0.260372161865234375 -0.105153292417526245 0.167269870638847351
0.100341796875 -0.217180147767066956 0.0607212372124195099
-0.626300811767578125 0.351254701614379883 0.212445423007011414
-0.575224578380584717 0.396076351404190063 0.113189220428466797
-0.373391479253768921 0.244857251644134521 0.0887363776564598083
-0.354971557855606079 0.0238352995365858078 0.178414657711982727
-0.389867156744003296 -0.0839222148060798645 0.212046623229980469
-0.404333740472793579 0.391126841306686401 0.193235710263252258
-0.476298004388809204 0.444627970457077026 0.203736305236816406
-0.326319366693496704 -0.228095933794975281 0.275134235620498657
-0.229900360107421875 -0.293711155652999878 0.246369197964668274
-0.173540756106376648 0.33852037787437439 0.230847522616386414
-0.019931793212890625 -0.286992460489273071 0.129159450531005859
0.0480092354118824005 0.339194029569625854 0.28192487359046936
-0.0478668212890625 -0.3008461594581604 0.339746147394180298
0.143159225583076477 0.353157281875610352 0.310663223266601562
0.260602325201034546 0.228720664978027344 0.362755149602890015
0.171391800045967102 -0.315891176462173462 0.28146854043006897
0.01922607421875 -0.394336581230163574 0.34147295355796814
0.19378662109375 0.149060502648353577 0.345853656530380249
0.109120689332485199 -0.0546350777149200439 0.328196048736572266
0.071193695068359375 -0.27096712589263916 0.279447555541992188
-0.570139586925506592 0.442523270845413208 0.229543045163154602
-0.412092834711074829 0.227440491318702698 0.171279117465019226
-0.444379180669784546 0.00153679272625595331 0.129910945892333984
-0.35486602783203125 0.422932833433151245 0.2910614013671875
-0.454858154058456421 0.389854550361633301 0.471380233764648438
-0.505635559558868408 0.360750168561935425 0.350877761840820312
-0.366511017084121704 0.188119396567344666 0.339127212762832642
-0.291844695806503296 0.0324846692383289337 0.212800666689872742
-0.259136199951171875 -0.242190003395080566 0.159954860806465149
-0.304393768310546875 -0.0837455019354820251 0.135301902890205383
-0.176609039306640625 0.407673001289367676 0.338827461004257202
-0.250887542963027954 0.30029723048210144 0.478613764047622681
-0.0375353507697582245 -0.170720770955085754 0.17501242458820343
-0.184551239013671875 -0.185392305254936218 0.283598273992538452
0.0259577427059412003 0.360557585954666138 0.386040210723876953
-0.0316607169806957245 0.256053835153579712 0.5254402756690979
0.06020355224609375 -0.269863098859786987 0.366060733795166016
-0.0475362129509449005 -0.150279119610786438 0.449258327484130859
0.0247968044131994247 0.124889738857746124 0.503582179546356201
0.202246353030204773 0.134689033031463623 0.457614421844482422
-0.00773366307839751244 -0.0365644432604312897 0.354402542114257812
0.148451492190361023 -0.0846425369381904602 0.425903946161270142
-0.081057228147983551 -0.254710108041763306 0.364411830902099609
0.089422859251499176 -0.297713905572891235 0.387329906225204468
-0.45238494873046875 0.30475732684135437 0.417038112878799438
-0.420411437749862671 0.105252631008625031 0.354384273290634155
-0.362772613763809204 -0.0547670125961303711 0.241523101925849915
-0.2678985595703125 0.190853789448738098 0.487696975469589233
-0.29233551025390625 -0.0102740908041596413 0.492398589849472046
-0.156124114990234375 -0.093618638813495636 0.344169467687606812
-0.0546480827033519745 0.189547717571258545 0.449660927057266235
-0.03186798095703125 -0.0351297855377197266 0.463926792144775391
-0.0336100272834300995 -0.256511330604553223 0.456996440887451172
3 0 1 2
3 1 3 4
3 2 1 4
3 3 5 6
3 4 3 6
3 5 7 6
3 0 8 9
3 1 0 9
3 9 10 1
3 1 10 3
3 10 11 3
3 3 11 5
3 5 11 12
3 7 5 12
3 8 13 14
3 9 8 14
3 14 15 9
3 9 15 10
3 15 16 10
3 10 16 11
3 11 16 17
3 12 11 17
3 14 13 18
3 15 14 18
3 19 15 18
3 16 15 19
3 20 16 19
3 16 20 17
3 21 22 23
3 22 24 25
3 23 22 25
3 24 26 27
3 25 24 27
3 26 28 27
3 29 30 31
3 2 22 21
3 0 2 21
3 0 21 31
3 0 31 30
3 4 22 2
3 24 22 4
3 6 24 4
3 26 24 6
3 26 32 28
3 6 32 26
3 6 33 32
3 6 7 33
3 33 34 32
3 29 35 36
3 30 29 36
3 36 0 30
3 8 0 36
3 12 33 7
3 37 33 12
3 33 37 38
3 34 33 38
3 35 39 40
3 36 35 40
3 40 8 36
3 13 8 40
3 17 37 12
3 41 37 17
3 37 41 42
3 38 37 42
3 40 39 43
3 43 44 45
3 40 43 45
3 40 45 18
3 40 18 13
3 18 46 19
3 45 46 18
3 19 47 20
3 46 47 19
3 48 49 41
3 47 48 41
3 47 41 17
3 47 17 20
3 41 49 42
3 45 44 50
3 46 45 50
3 51 46 50
3 47 46 51
3 52 47 51
3 47 52 48
3 53 21 23
3 54 53 23
3 23 25 54
3 25 55 54
3 25 27 55
3 27 56 55
3 28 57 56
3 27 28 56
3 58 29 31
3 59 58 31
3 31 53 59
3 21 53 31
3 60 28 32
3 57 28 60
3 34 61 60
3 32 34 60
3 35 29 62
3 62 29 58
3 38 63 34
3 63 61 34
3 39 35 64
3 64 35 62
3 42 65 38
3 65 63 38
3 66 43 39
3 64 66 39
3 44 66 67
3 43 66 44
3 68 49 48
3 69 49 68
3 49 69 65
3 42 49 65
3 70 50 44
3 67 70 44
3 50 70 51
3 51 70 71
3 51 71 52
3 52 71 72
3 52 72 68
3 48 52 68
3 73 53 54
3 74 73 54
3 54 55 74
3 55 75 74
3 55 56 75
3 56 76 75
3 57 77 76
3 56 57 76
3 78 58 59
3 79 78 59
3 59 73 79
3 53 73 59
3 80 57 60
3 77 57 80
3 61 81 80
3 60 61 80
3 62 58 82
3 82 58 78
3 63 83 61
3 83 81 61
3 64 62 84
3 84 62 82
3 65 85 63
3 85 83 63
3 86 66 64
3 84 86 64
3 67 86 87
3 66 86 67
3 88 69 68
3 89 69 88
3 69 89 85
3 65 69 85
3 90 70 67
3 87 90 67
3 70 90 71
3 71 90 91
3 71 91 72
3 72 91 92
3 72 92 88
3 68 72 88
3 73 74 93
3 74 75 94
3 93 74 94
3 75 76 95
3 94 75 95
3 76 77 95
3 78 79 96
3 97 93 98
3 96 93 97
3 96 73 93
3 96 79 73
3 94 98 93
3 99 98 94
3 95 99 94
3 100 99 95
3 100 101 102
3 95 101 100
3 95 80 101
3 95 77 80
3 80 81 101
3 82 78 96
3 103 82 96
3 96 104 103
3 97 104 96
3 102 105 106
3 101 105 102
3 105 101 81
3 83 105 81
3 84 82 103
3 107 84 103
3 103 108 107
3 104 108 103
3 106 109 110
3 105 109 106
3 109 105 83
3 85 109 83
3 86 84 107
3 107 108 111
3 86 107 111
3 86 111 112
3 86 112 87
3 112 113 114
3 111 113 112
3 114 115 116
3 113 115 114
3 89 110 109
3 88 110 89
3 88 115 110
3 88 116 115
3 89 109 85
3 90 87 112
3 91 90 112
3 114 91 112
3 92 91 114
3 116 92 114
3 92 116 88
3 97 98 117
3 98 99 118
3 117 98 118
3 99 100 119
3 118 99 119
3 100 102 119
3 104 97 117
3 120 104 117
3 120 117 121
3 117 118 121
3 121 118 122
3 118 119 122
3 122 119 102
3 106 122 102
3 108 104 120
3 123 108 120
3 123 120 124
3 120 121 124
3 124 121 125
3 121 122 125
3 125 122 106
3 110 125 106
3 111 108 123
3 113 111 123
3 124 113 123
3 115 113 124
3 125 115 124
3 115 125 110
