ply
format ascii 1.0
comment VCGLIB generated
element vertex 126
property float x
property float y
property float z
element face 248
property list uchar int vertex_indices
end_header
-0.137645721435546875 0.0987620875239372253 -0.545865714550018311
-0.076215110719203949 0.0214080493897199631 -0.504465758800506592
-0.170880630612373352 -0.034586247056722641 -0.50046461820602417
0.00987116526812314987 -0.151510655879974365 -0.403446197509765625
-0.087140403687953949 -0.18939875066280365 -0.364618629217147827
0.0340627022087574005 -0.0842117369174957275 -0.194919422268867493
-0.071065269410610199 -0.0731197968125343323 -0.180817767977714539
0.00939814280718564987 -0.153781592845916748 -0.112551845610141754
0.0542551688849925995 0.124218665063381195 -0.434427738189697266
0.0028839111328125 0.145178467035293579 -0.337815433740615845
0.0458539314568042755 -0.0362219475209712982 -0.212426662445068359
0.2440643310546875 -0.145374909043312073 -0.188452556729316711
0.234649658203125 -0.181122973561286926 -0.0854592323303222656
0.248210906982421875 0.154771625995635986 -0.329385131597518921
0.202073410153388977 0.141837164759635925 -0.234768390655517578
0.111855827271938324 0.0938788652420043945 -0.0398009605705738068
0.272149413824081421 -0.0538011491298675537 0.0174554195255041122
0.371059417724609375 -0.0186847317963838577 -0.0205677356570959091
0.193941757082939148 0.0372071079909801483 -0.269198417663574219
0.196585342288017273 0.156645968556404114 -0.0784309729933738708
0.301291137933731079 0.0399747006595134735 0.0817284584045410156
-0.395342499017715454 0.0587285906076431274 -0.370633125305175781
-0.33567047119140625 -0.053671080619096756 -0.416941314935684204
-0.399836212396621704 -0.0466375760734081268 -0.334539085626602173
-0.258478790521621704 -0.241195067763328552 -0.335190623998641968
-0.291913360357284546 -0.216685310006141663 -0.234260246157646179
-0.170163467526435852 -0.213137969374656677 -0.12907727062702179
-0.102017723023891449 -0.289118915796279907 -0.156013011932373047
-0.02820587158203125 -0.203807875514030457 -0.112805522978305817
-0.253790527582168579 0.292796701192855835 -0.391366809606552124
-0.209293365478515625 0.194472625851631165 -0.406951427459716797
-0.341871887445449829 0.22944958508014679 -0.415729999542236328
0.0539499931037425995 -0.306491166353225708 -0.00985860824584960938
-0.0174407958984375 -0.209271296858787537 0.049704868346452713
-0.00369898485951125622 -0.227980449795722961 -0.0603744201362133026
-0.063017524778842926 0.271256387233734131 -0.273024886846542358
-0.005130767822265625 0.277879953384399414 -0.365371376276016235
0.205930069088935852 -0.234593436121940613 0.0808828696608543396
0.220308944582939148 -0.225153937935829163 -0.0293324794620275497
0.131708785891532898 0.268050938844680786 -0.165079116821289062
0.185975387692451477 0.307765811681747437 -0.251848220825195312
0.397548675537109375 -0.119413800537586212 0.125463172793388367
0.383450835943222046 -0.0736158862709999084 0.0250048637390136719
0.22286224365234375 0.299443244934082031 -0.115798152983188629
0.218488052487373352 0.133068308234214783 -0.0441490821540355682
0.141675308346748352 0.0363391861319541931 -0.094510398805141449
0.357697814702987671 0.077801436185836792 -0.0393031425774097443
0.368793487548828125 0.197082772850990295 0.150722339749336243
0.348931640386581421 0.130416959524154663 0.0296645164489746094
0.463804870843887329 -0.0114225894212722778 0.0607889480888843536
0.115601859986782074 0.103769302368164062 -0.00553385401144623756
0.313573211431503296 0.164387509226799011 -0.0892645493149757385
0.427682250738143921 0.120483048260211945 0.101488590240478516
-0.456122070550918579 0.141051769256591797 -0.174457713961601257
-0.356964111328125 0.091952592134475708 -0.164968803524971008
-0.358197540044784546 -0.11272314190864563 -0.0595253296196460724
-0.215763092041015625 -0.256193965673446655 0.0464231185615062714
-0.129587814211845398 -0.259105473756790161 0.0888020172715187073
-0.281389862298965454 0.249743297696113586 -0.171431705355644226
-0.374360412359237671 0.299777776002883911 -0.205534294247627258
0.025787353515625 -0.184105023741722107 0.181425735354423523
0.0378824882209300995 -0.110663928091526031 0.116053901612758636
-0.141241714358329773 0.411466449499130249 -0.11777893453836441
0.1945037841796875 -0.249010577797889709 0.192868396639823914
0.0558903999626636505 0.421485871076583862 -0.0191534366458654404
0.260553985834121704 -0.028895646333694458 0.209461212158203125
0.102563224732875824 0.369934290647506714 0.0623722076416015625
0.230074569582939148 0.266388028860092163 0.131879642605781555
0.201993301510810852 0.018100302666425705 0.157845810055732727
0.311480194330215454 -0.121696911752223969 0.183924674987792969
0.1734161376953125 0.197097957134246826 0.194213703274726868
0.12577056884765625 0.0879111364483833313 0.00888347625732421875
0.281330108642578125 -0.0456388294696807861 0.107460975646972656
-0.455891937017440796 0.184479609131813049 0.0433807373046875
-0.343729645013809204 0.190160453319549561 0.0392352752387523651
-0.392963409423828125 -0.0186430215835571289 0.13183768093585968
-0.340154021978378296 -0.215660497546195984 0.228681564331054688
-0.259470611810684204 -0.150205910205841064 0.223981067538261414
-0.327091217041015625 0.327346950769424438 0.0380113907158374786
-0.427102416753768921 0.358049839735031128 0.00624052667990326881
-0.12509918212890625 -0.0621079094707965851 0.296500533819198608
-0.068714141845703125 -0.15439973771572113 0.306547969579696655
-0.107598625123500824 0.329234451055526733 0.087408699095249176
0.124384559690952301 -0.212179079651832581 0.406395912170410156
0.0623321533203125 0.202841579914093018 0.0161821041256189346
0.300655364990234375 -0.0679698213934898376 0.425233364105224609
-0.0409533195197582245 0.196428671479225159 0.0487287826836109161
0.0344479866325855255 0.359490245580673218 0.0770359039306640625
0.359673827886581421 0.152455464005470276 0.243626594543457031
0.327301025390625 0.0213727597147226334 0.363104671239852905
-0.003421783447265625 0.333196103572845459 0.173017337918281555
0.040576934814453125 0.121700353920459747 0.214151069521903992
0.263553619384765625 0.159051939845085144 0.193398788571357727
-0.36183929443359375 0.130558565258979797 0.131266593933105469
-0.358156830072402954 -0.058225635439157486 0.0333485603332519531
-0.260018676519393921 -0.239374816417694092 0.132390335202217102
-0.33237457275390625 0.431796818971633911 0.0800992622971534729
-0.226613357663154602 0.322975575923919678 -0.0162776317447423935
-0.309560149908065796 0.218274116516113281 -0.0150160789489746094
-0.280623108148574829 0.0579517446458339691 0.149903297424316406
-0.249730423092842102 -0.132638275623321533 0.267448574304580688
0.00494257593527436256 -0.0926334857940673828 0.252827644348144531
-0.129781082272529602 -0.188410237431526184 0.327394157648086548
-0.1754913330078125 0.280204981565475464 0.0200009346008300781
-0.047283172607421875 0.378251701593399048 0.097998298704624176
0.154371902346611023 -0.254687041044235229 0.309081554412841797
0.057529449462890625 -0.136312857270240784 0.218373611569404602
0.0442110709846019745 0.291906595230102539 0.0799352303147315979
-0.00503031397238373756 0.209566175937652588 0.24089495837688446
0.326594024896621704 -0.107418835163116455 0.318569183349609375
0.268399566411972046 -0.133358940482139587 0.147456333041191101
0.05510711669921875 0.267089873552322388 0.348479896783828735
0.101276397705078125 0.364712387323379517 0.202617332339286804
0.220509842038154602 0.12486836314201355 0.300477027893066406
0.0457471199333667755 0.173956513404846191 0.308137744665145874
0.174516037106513977 -0.0304460078477859497 0.144125461578369141
0.244620010256767273 0.0800975039601325989 0.267714172601699829
-0.199067428708076477 0.217120155692100525 -0.0163989067077636719
-0.186192825436592102 0.110463358461856842 0.177021980285644531
-0.154169723391532898 -0.0840244963765144348 0.302859455347061157
0.00325139355845749378 0.311336666345596313 0.0246141757816076279
0.0262858066707849503 0.170532718300819397 0.20328839123249054
0.0691070556640625 -0.0447799228131771088 0.275164932012557983
0.047992706298828125 0.304033339023590088 0.245642498135566711
0.240529373288154602 0.19749082624912262 0.21475982666015625
0.275997161865234375 -0.0228745397180318832 0.179835796356201172
3 0 1 2
3 1 3 4
3 2 1 4
3 3 5 6
3 4 3 6
3 5 7 6
3 0 8 9
3 1 0 9
3 9 10 1
3 1 10 3
3 10 11 3
3 3 11 5
3 5 11 12
3 7 5 12
3 8 13 14
3 9 8 14
3 14 15 9
3 9 15 10
3 15 16 10
3 10 16 11
3 11 16 17
3 12 11 17
3 14 13 18
3 15 14 18
3 19 15 18
3 16 15 19
3 20 16 19
3 16 20 17
3 21 22 23
3 22 24 25
3 23 22 25
3 24 26 27
3 25 24 27
3 26 28 27
3 29 30 31
3 2 22 21
3 0 2 21
3 0 21 31
3 0 31 30
3 4 22 2
3 24 22 4
3 6 24 4
3 26 24 6
3 26 32 28
3 6 32 26
3 6 33 32
3 6 7 33
3 33 34 32
3 29 35 36
3 30 29 36
3 36 0 30
3 8 0 36
3 12 33 7
3 37 33 12
3 33 37 38
3 34 33 38
3 35 39 40
3 36 35 40
3 40 8 36
3 13 8 40
3 17 37 12
3 41 37 17
3 37 41 42
3 38 37 42
3 40 39 43
3 43 44 45
3 40 43 45
3 40 45 18
3 40 18 13
3 18 46 19
3 45 46 18
3 19 47 20
3 46 47 19
3 48 49 41
3 47 48 41
3 47 41 17
3 47 17 20
3 41 49 42
3 45 44 50
3 46 45 50
3 51 46 50
3 47 46 51
3 52 47 51
3 47 52 48
3 53 21 23
3 54 53 23
3 23 25 54
3 25 55 54
3 25 27 55
3 27 56 55
3 28 57 56
3 27 28 56
3 58 29 31
3 59 58 31
3 31 53 59
3 21 53 31
3 60 28 32
3 57 28 60
3 34 61 60
3 32 34 60
3 35 29 62
3 62 29 58
3 38 63 34
3 63 61 34
3 39 35 64
3 64 35 62
3 42 65 38
3 65 63 38
3 66 43 39
3 64 66 39
3 44 66 67
3 43 66 44
3 68 49 48
3 69 49 68
3 49 69 65
3 42 49 65
3 70 50 44
3 67 70 44
3 50 70 51
3 51 70 71
3 51 71 52
3 52 71 72
3 52 72 68
3 48 52 68
3 73 53 54
3 74 73 54
3 54 55 74
3 55 75 74
3 55 56 75
3 56 76 75
3 57 77 76
3 56 57 76
3 78 58 59
3 79 78 59
3 59 73 79
3 53 73 59
3 80 57 60
3 77 57 80
3 61 81 80
3 60 61 80
3 62 58 82
3 82 58 78
3 63 83 61
3 83 81 61
3 64 62 84
3 84 62 82
3 65 85 63
3 85 83 63
3 86 66 64
3 84 86 64
3 67 86 87
3 66 86 67
3 88 69 68
3 89 69 88
3 69 89 85
3 65 69 85
3 90 70 67
3 87 90 67
3 70 90 71
3 71 90 91
3 71 91 72
3 72 91 92
3 72 92 88
3 68 72 88
3 73 74 93
3 74 75 94
3 93 74 94
3 75 76 95
3 94 75 95
3 76 77 95
3 78 79 96
3 97 93 98
3 96 93 97
3 96 73 93
3 96 79 73
3 94 98 93
3 99 98 94
3 95 99 94
3 100 99 95
3 100 101 102
3 95 101 100
3 95 80 101
3 95 77 80
3 80 81 101
3 82 78 96
3 103 82 96
3 96 104 103
3 97 104 96
3 102 105 106
3 101 105 102
3 105 101 81
3 83 105 81
3 84 82 103
3 107 84 103
3 103 108 107
3 104 108 103
3 106 109 110
3 105 109 106
3 109 105 83
3 85 109 83
3 86 84 107
3 107 108 111
3 86 107 111
3 86 111 112
3 86 112 87
3 112 113 114
3 111 113 112
3 114 115 116
3 113 115 114
3 89 110 109
3 88 110 89
3 88 115 110
3 88 116 115
3 89 109 85
3 90 87 112
3 91 90 112
3 114 91 112
3 92 91 114
3 116 92 114
3 92 116 88
3 97 98 117
3 98 99 118
3 117 98 118
3 99 100 119
3 118 99 119
3 100 102 119
3 104 97 117
3 120 104 117
3 120 117 121
3 117 118 121
3 121 118 122
3 118 119 122
3 122 119 102
3 106 122 102
3 108 104 120
3 123 108 120
3 123 120 124
3 120 121 124
3 124 121 125
3 121 122 125
3 125 122 106
3 110 125 106
3 111 108 123
3 113 111 123
3 124 113 123
3 115 113 124
3 125 115 124
3 115 125 110
