ply
format ascii 1.0
comment VCGLIB generated
element vertex 126
property float x
property float y
property float z
element face 248
property list uchar int vertex_indices
end_header
0.0171712245792150497 -0.047846626490354538 -0.327058464288711548
0.058063507080078125 -0.0683744773268699646 -0.226706817746162415
-0.0166257228702306747 -0.148532941937446594 -0.236321285367012024
-0.022594451904296875 -0.132734254002571106 -0.0229872073978185654
0.0508435554802417755 -0.208484530448913574 -0.0282549858093261719
0.130624130368232727 -0.202598631381988525 0.13076956570148468
0.0444501228630542755 -0.249057337641716003 0.18898598849773407
0.058376312255859375 -0.128364428877830505 0.15630786120891571
-0.0189361572265625 0.160551860928535461 -0.247365951538085938
-0.0201479587703943253 0.123947374522686005 -0.14356820285320282
0.0293718967586755753 0.0607474260032176971 0.0659149512648582458
0.078097023069858551 -0.0359593667089939117 0.263913154602050781
0.173102065920829773 -0.0373268090188503265 0.319403022527694702
0.192194625735282898 0.0817423313856124878 -0.253905624151229858
0.197362259030342102 0.0884510353207588196 -0.145447254180908203
0.225709274411201477 0.159750461578369141 0.0647282600402832031
0.26025390625 0.0985040441155433655 0.280452877283096313
0.266082763671875 0.100920796394348145 0.170722007751464844
0.289141327142715454 0.142195418477058411 -0.175481319427490234
0.318716675043106079 0.101331122219562531 0.040058773010969162
0.367158263921737671 0.124532341957092285 0.257601261138916016
-0.274529784917831421 -0.0460702590644359589 -0.203930214047431946
-0.1377105712890625 -0.039536595344543457 -0.163816764950752258
-0.2223358154296875 -0.0379577912390232086 -0.0984044075012207031
0.022823333740234375 -0.0292265657335519791 -0.00105206167791038752
-0.0603574104607105255 0.00056068965932354331 0.0658547058701515198
-0.0614382438361644745 -0.22581307590007782 0.0497530288994312286
-0.157145187258720398 -0.196775838732719421 0.00543657923117280006
-0.108937583863735199 -0.0958358719944953918 0.0183747615665197372
-0.183980301022529602 0.0497324466705322266 -0.449431896209716797
-0.133867904543876648 0.0470452494919300079 -0.351087570190429688
-0.253645569086074829 -0.00829296279698610306 -0.384106487035751343
-0.068738304078578949 0.0443867482244968414 0.129389449954032898
0.0421193428337574005 0.00850613322108983994 0.060291290283203125
-0.0561002083122730255 -0.0447911731898784637 0.0835318565368652344
-0.01737213134765625 0.202032610774040222 -0.514979064464569092
-0.004062652587890625 0.219143763184547424 -0.413497298955917358
0.0140088396146893501 0.0380821786820888519 0.280043601989746094
0.0133310956880450249 -0.0698129907250404358 0.29545322060585022
0.135912582278251648 0.152397334575653076 -0.348600536584854126
0.196544647216796875 0.104768462479114532 -0.430077552795410156
0.232710525393486023 0.0298887789249420166 0.341046184301376343
0.230600997805595398 -0.0751410201191902161 0.341596126556396484
0.236590072512626648 0.180205419659614563 -0.323442786931991577
0.380092620849609375 0.135770484805107117 -0.217554405331611633
0.396967560052871704 -4.21025033574551344e-05 -0.198543235659599304
0.485636383295059204 0.0355230867862701416 0.00701538706198334694
0.527851104736328125 0.046154562383890152 0.227833271026611328
0.487012237310409546 -0.0508375056087970734 0.322191864252090454
0.32022857666015625 -0.0880960598587989807 0.400315612554550171
0.3137359619140625 0.061276216059923172 -0.168682575225830078
0.399659484624862671 -0.027792586013674736 0.0238482151180505753
0.514622986316680908 -0.059331599622964859 0.215973854064941406
-0.311791747808456421 0.17795155942440033 -0.181718513369560242
-0.264204651117324829 0.180527910590171814 -0.0834361687302589417
-0.274998992681503296 0.0723544582724571228 0.117608547210693359
-0.324564605951309204 -0.147022679448127747 0.144115284085273743
-0.225191757082939148 -0.170864447951316833 0.187981441617012024
-0.271138519048690796 0.229166701436042786 -0.347072452306747437
-0.370817810297012329 0.192182585597038269 -0.355241447687149048
-0.24874114990234375 0.000910737551748752594 0.244374915957450867
-0.174841567873954773 0.077147260308265686 0.222657844424247742
-0.0624262504279613495 0.29800713062286377 -0.31496700644493103
0.00938161183148622513 0.151699021458625793 0.330370903015136719
0.136800125241279602 0.352678507566452026 -0.265487194061279297
0.228101089596748352 0.149223640561103821 0.389183193445205688
0.191982269287109375 0.342809438705444336 -0.181223869323730469
0.319800049066543579 0.303112536668777466 -0.0658892020583152771
0.39397430419921875 0.154253393411636353 0.295343726873397827
0.223668411374092102 0.0797602906823158264 0.316023021936416626
0.2351531982421875 0.230023577809333801 -0.0465750694274902344
0.260074615478515625 0.109139204025268555 0.139829471707344055
0.362065643072128296 0.0520682148635387421 0.331242889165878296
-0.440447479486465454 0.349509507417678833 -0.117828525602817535
-0.459072113037109375 0.278376668691635132 -0.0423606224358081818
-0.497454315423965454 0.120435990393161774 0.116168178617954254
-0.364040374755859375 0.0292912200093269348 0.270459026098251343
-0.27862548828125 -0.00975040160119533539 0.330952972173690796
-0.275449126958847046 0.115052312612533569 -0.140102073550224304
-0.328907012939453125 0.21261279284954071 -0.126993656158447266
-0.132612869143486023 -0.0419987291097640991 0.428537517786026001
-0.237990066409111023 -0.039583895355463028 0.408758789300918579
-0.0535863228142261505 0.132566675543785095 -0.148400142788887024
-0.0329806022346019745 0.0118446582928299904 0.500102818012237549
0.119322456419467926 0.239095225930213928 -0.0619540214538574219
0.187155410647392273 0.0304673667997121811 0.566172420978546143
0.09243011474609375 0.153184190392494202 -0.125721454620361328
0.115117393434047699 0.261850208044052124 0.0131014185026288033
0.359242767095565796 0.222887381911277771 0.512150824069976807
0.304323822259902954 0.051377028226852417 0.537931978702545166
0.093700408935546875 0.363361001014709473 0.0485668182373046875
0.230228424072265625 0.317149728536605835 0.220355674624443054
0.344043731689453125 0.26114809513092041 0.406755298376083374
-0.456837981939315796 0.363037824630737305 0.0275015830993652344
-0.457248687744140625 0.19239412248134613 0.191401481628417969
-0.278469085693359375 0.0421960912644863129 0.203684493899345398
-0.286313384771347046 0.117568887770175934 -0.0374615974724292755
-0.198359176516532898 0.278004974126815796 -0.0352131538093090057
-0.280665069818496704 0.348292917013168335 0.0442824363708496094
-0.339635223150253296 0.308074980974197388 0.267466217279434204
-0.232335403561592102 0.120098672807216644 0.354140758514404297
-0.215470626950263977 -0.143382802605628967 0.445311695337295532
-0.267632812261581421 0.0317730046808719635 0.453111648559570312
-0.12128448486328125 0.231195271015167236 -0.122681461274623871
-0.015270233154296875 0.147261723875999451 -0.0061054229736328125
-0.000946044921875 -0.0784999951720237732 0.436989635229110718
-0.067501068115234375 0.0441251844167709351 0.548281431198120117
0.0409825630486011505 0.155745416879653931 -0.0154004096984863281
0.110452018678188324 0.311716347932815552 0.0428395271301269531
0.208370208740234375 -0.0170693527907133102 0.471081584692001343
0.087558746337890625 0.0975210666656494141 0.400225013494491577
0.174599960446357727 0.300223171710968018 0.162253692746162415
0.0137939453125 0.296623438596725464 0.0969279631972312927
0.0952911376953125 0.199258938431739807 0.353121906518936157
0.197055816650390625 0.21159951388835907 0.208498165011405945
0.201178237795829773 0.0134902345016598701 0.424796581268310547
0.297724395990371704 0.162322700023651123 0.404077053070068359
-0.245662689208984375 0.243619799613952637 0.0533628463745117188
-0.246756240725517273 0.261945873498916626 0.27373996376991272
-0.273007720708847046 0.142470061779022217 0.455738216638565063
-0.0561955757439136505 0.133314192295074463 0.095713295042514801
-0.032871246337890625 0.238539278507232666 0.291194766759872437
-0.0507189445197582245 0.138383731245994568 0.491882234811782837
0.068450927734375 0.323448985815048218 0.139631584286689758
0.185671493411064148 0.207700058817863464 0.288237571716308594
0.168895721435546875 0.0968741849064826965 0.484450012445449829
3 0 1 2
3 1 3 4
3 2 1 4
3 3 5 6
3 4 3 6
3 5 7 6
3 0 8 9
3 1 0 9
3 9 10 1
3 1 10 3
3 10 11 3
3 3 11 5
3 5 11 12
3 7 5 12
3 8 13 14
3 9 8 14
3 14 15 9
3 9 15 10
3 15 16 10
3 10 16 11
3 11 16 17
3 12 11 17
3 14 13 18
3 15 14 18
3 19 15 18
3 16 15 19
3 20 16 19
3 16 20 17
3 21 22 23
3 22 24 25
3 23 22 25
3 24 26 27
3 25 24 27
3 26 28 27
3 29 30 31
3 2 22 21
3 0 2 21
3 0 21 31
3 0 31 30
3 4 22 2
3 24 22 4
3 6 24 4
3 26 24 6
3 26 32 28
3 6 32 26
3 6 33 32
3 6 7 33
3 33 34 32
3 29 35 36
3 30 29 36
3 36 0 30
3 8 0 36
3 12 33 7
3 37 33 12
3 33 37 38
3 34 33 38
3 35 39 40
3 36 35 40
3 40 8 36
3 13 8 40
3 17 37 12
3 41 37 17
3 37 41 42
3 38 37 42
3 40 39 43
3 43 44 45
3 40 43 45
3 40 45 18
3 40 18 13
3 18 46 19
3 45 46 18
3 19 47 20
3 46 47 19
3 48 49 41
3 47 48 41
3 47 41 17
3 47 17 20
3 41 49 42
3 45 44 50
3 46 45 50
3 51 46 50
3 47 46 51
3 52 47 51
3 47 52 48
3 53 21 23
3 54 53 23
3 23 25 54
3 25 55 54
3 25 27 55
3 27 56 55
3 28 57 56
3 27 28 56
3 58 29 31
3 59 58 31
3 31 53 59
3 21 53 31
3 60 28 32
3 57 28 60
3 34 61 60
3 32 34 60
3 35 29 62
3 62 29 58
3 38 63 34
3 63 61 34
3 39 35 64
3 64 35 62
3 42 65 38
3 65 63 38
3 66 43 39
3 64 66 39
3 44 66 67
3 43 66 44
3 68 49 48
3 69 49 68
3 49 69 65
3 42 49 65
3 70 50 44
3 67 70 44
3 50 70 51
3 51 70 71
3 51 71 52
3 52 71 72
3 52 72 68
3 48 52 68
3 73 53 54
3 74 73 54
3 54 55 74
3 55 75 74
3 55 56 75
3 56 76 75
3 57 77 76
3 56 57 76
3 78 58 59
3 79 78 59
3 59 73 79
3 53 73 59
3 80 57 60
3 77 57 80
3 61 81 80
3 60 61 80
3 62 58 82
3 82 58 78
3 63 83 61
3 83 81 61
3 64 62 84
3 84 62 82
3 65 85 63
3 85 83 63
3 86 66 64
3 84 86 64
3 67 86 87
3 66 86 67
3 88 69 68
3 89 69 88
3 69 89 85
3 65 69 85
3 90 70 67
3 87 90 67
3 70 90 71
3 71 90 91
3 71 91 72
3 72 91 92
3 72 92 88
3 68 72 88
3 73 74 93
3 74 75 94
3 93 74 94
3 75 76 95
3 94 75 95
3 76 77 95
3 78 79 96
3 97 93 98
3 96 93 97
3 96 73 93
3 96 79 73
3 94 98 93
3 99 98 94
3 95 99 94
3 100 99 95
3 100 101 102
3 95 101 100
3 95 80 101
3 95 77 80
3 80 81 101
3 82 78 96
3 103 82 96
3 96 104 103
3 97 104 96
3 102 105 106
3 101 105 102
3 105 101 81
3 83 105 81
3 84 82 103
3 107 84 103
3 103 108 107
3 104 108 103
3 106 109 110
3 105 109 106
3 109 105 83
3 85 109 83
3 86 84 107
3 107 108 111
3 86 107 111
3 86 111 112
3 86 112 87
3 112 113 114
3 111 113 112
3 114 115 116
3 113 115 114
3 89 110 109
3 88 110 89
3 88 115 110
3 88 116 115
3 89 109 85
3 90 87 112
3 91 90 112
3 114 91 112
3 92 91 114
3 116 92 114
3 92 116 88
3 97 98 117
3 98 99 118
3 117 98 118
3 99 100 119
3 118 99 119
3 100 102 119
3 104 97 117
3 120 104 117
3 120 117 121
3 117 118 121
3 121 118 122
3 118 119 122
3 122 119 102
3 106 122 102
3 108 104 120
3 123 108 120
3 123 120 124
3 120 121 124
3 124 121 125
3 121 122 125
3 125 122 106
3 110 125 106
3 111 108 123
3 113 111 123
3 124 113 123
3 115 113 124
3 125 115 124
3 115 125 110
