ply
format ascii 1.0
comment VCGLIB generated
element vertex 126
property float x
property float y
property float z
element face 248
property list uchar int vertex_indices
end_header
3.56926298141479492 0.0687575042247772217 -0.549829661846160889
3.64751291275024414 0.000243403585045598447 -0.512729346752166748
3.55656003952026367 -0.0419814139604568481 -0.468070268630981445
3.72533106803894043 -0.147063925862312317 -0.361199796199798584
3.67367291450500488 -0.0929042547941207886 -0.282595366239547729
3.6120760440826416 -0.309959620237350464 -0.255214720964431763
3.51851367950439453 -0.253922313451766968 -0.276781409978866577
3.54075503349304199 -0.37833249568939209 -0.214544862508773804
3.7691497802734375 0.100316420197486877 -0.447423875331878662
3.7180778980255127 0.138081416487693787 -0.355886757373809814
3.66449356079101562 -0.00986579339951276779 -0.194934487342834473
3.57782530784606934 -0.180799230933189392 -0.0764820799231529236
3.53800678253173828 -0.273397952318191528 -0.0163936614990234375
3.89840555191040039 0.170184582471847534 -0.278444498777389526
3.89625358581542969 0.0691462457180023193 -0.235289648175239563
3.8295295238494873 -0.143718749284744263 -0.258499264717102051
3.76108503341674805 -0.300964951515197754 -0.109767913818359375
3.74239468574523926 -0.361006289720535278 -0.0183129310607910156
3.9691925048828125 0.0576502867043018341 -0.318305492401123047
3.8941798210144043 -0.102572821080684662 -0.182711422443389893
3.80241036415100098 -0.237540006637573242 -0.0302553176879882812
3.38768339157104492 0.0825038403272628784 -0.288675040006637573
3.48738408088684082 0.101505950093269348 -0.384304523468017578
3.4376680850982666 0.174040362238883972 -0.318873584270477295
3.56949019432067871 0.0185935571789741516 -0.192880839109420776
3.47284483909606934 0.0391032956540584564 -0.144008725881576538
3.5115814208984375 -0.181783556938171387 -0.110344231128692627
3.41591405868530273 -0.175783529877662659 -0.166127249598503113
3.41370844841003418 -0.276576578617095947 -0.122523956000804901
3.47865700721740723 0.277523607015609741 -0.411105155944824219
3.52426528930664062 0.177269726991653442 -0.414938926696777344
3.38986825942993164 0.217652946710586548 -0.405550211668014526
3.42371845245361328 -0.432089388370513916 -0.0365510843694210052
3.40642738342285156 -0.481139838695526123 -0.158179447054862976
3.39173746109008789 -0.530209124088287354 -0.0493725836277008057
3.6852715015411377 0.36071440577507019 -0.377166688442230225
3.72739958763122559 0.271417170763015747 -0.424980014562606812
3.47275471687316895 -0.438187152147293091 0.0468681082129478455
3.43858528137207031 -0.340269654989242554 0.0549595989286899567
3.88870739936828613 0.389489591121673584 -0.29147493839263916
3.93497109413146973 0.324500441551208496 -0.366676926612854004
3.66911959648132324 -0.395552635192871094 0.140672162175178528
3.64603900909423828 -0.285756826400756836 0.149239838123321533
3.98751163482666016 0.365707933902740479 -0.245934829115867615
4.10222148895263672 0.239076361060142517 -0.190950304269790649
4.0595850944519043 0.108192957937717438 -0.171950727701187134
3.90815901756286621 0.00527873868122696877 -0.0427137725055217743
3.73672127723693848 -0.0970351099967956543 0.0581453032791614532
3.61586999893188477 -0.154313385486602783 0.0301944110542535782
3.56176185607910156 -0.316067397594451904 0.0950551033020019531
4.00022649765014648 0.200539618730545044 -0.163587868213653564
3.8380274772644043 0.0509114079177379608 -0.114452183246612549
3.67459726333618164 -0.0792329907417297363 -0.0289769601076841354
3.25714111328125 0.199548155069351196 -0.148844718933105469
3.29294896125793457 0.295635968446731567 -0.196570262312889099
3.25516438484191895 0.0920827016234397888 -0.118957430124282837
3.25176763534545898 -0.114721596240997314 -0.0273672007024288177
3.24858927726745605 -0.216119244694709778 0.0172021165490150452
3.50129032135009766 0.281175136566162109 -0.192041173577308655
3.39435911178588867 0.297485291957855225 -0.196225851774215698
3.25453329086303711 -0.375180482864379883 0.0938731953501701355
3.35785245895385742 -0.3520488440990448 0.0772385150194168091
3.71690750122070312 0.222539767622947693 -0.203167527914047241
3.43729710578918457 -0.455473333597183228 0.260961711406707764
3.79636240005493164 0.393373727798461914 -0.0843956246972084045
3.51919865608215332 -0.252734869718551636 0.335527747869491577
3.89286541938781738 0.359233886003494263 -0.0419909283518791199
4.00444889068603516 0.22681957483291626 0.0109765743836760521
3.77035641670227051 -0.148125037550926208 0.191293835639953613
3.61391234397888184 -0.203648030757904053 0.284949421882629395
4.08517837524414062 0.163042217493057251 0.0434023663401603699
3.98731398582458496 -0.0400350876152515411 0.0269007682800292969
3.83013796806335449 -0.177921399474143982 0.0988140925765037537
3.26660490036010742 0.291914850473403931 0.0579428672790527344
3.26667094230651855 0.388985335826873779 0.00366254267282783985
3.25210380554199219 0.177941828966140747 0.0851964950561523438
3.23035502433776855 -0.0265914332121610641 0.176889240741729736
3.28784060478210449 -0.108716018497943878 0.210899651050567627
3.46960234642028809 0.112521924078464508 -0.0431505106389522552
3.38466286659240723 0.174582779407501221 -0.00429760338738560677
3.27989912033081055 -0.265096873044967651 0.29506877064704895
3.35831212997436523 -0.34553074836730957 0.302378267049789429
3.69423413276672363 0.104970082640647888 -0.0142979621887207031
3.55942797660827637 -0.24975171685218811 0.293748378753662109
3.73784136772155762 0.288467854261398315 0.10845552384853363
3.65608906745910645 -0.350307285785675049 0.473806619644165039
3.80678510665893555 0.359998852014541626 0.161814257502555847
3.93740725517272949 0.25512281060218811 0.222852438688278198
3.87323880195617676 -0.29290848970413208 0.313251674175262451
3.73246455192565918 -0.341597259044647217 0.399890363216400146
4.01179218292236328 0.179699510335922241 0.256594300270080566
4.07700967788696289 -0.0328328758478164673 0.232940360903739929
3.96478986740112305 -0.230809032917022705 0.27314642071723938
3.32677650451660156 0.416273683309555054 0.0905197262763977051
3.26445484161376953 0.216315269470214844 0.184694200754165649
3.25063872337341309 0.0122816665098071098 0.273635804653167725
3.48036670684814453 0.210463389754295349 -0.0936906933784484863
3.57041096687316895 0.348406851291656494 -0.0192720238119363785
3.4375 0.321954667568206787 -0.0215506553649902344
3.43487310409545898 0.192783325910568237 0.154528617858886719
3.42395424842834473 0.0163244977593421936 0.294242113828659058
3.40835905075073242 -0.254997938871383667 0.346419364213943481
3.49082589149475098 -0.0910380631685256958 0.34058612585067749
3.69755816459655762 0.166584640741348267 -0.107994511723518372
3.71516299247741699 0.197692245244979858 0.0623455904424190521
3.60769438743591309 -0.34978899359703064 0.322117358446121216
3.62937736511230469 -0.19318641722202301 0.213548049330711365
3.80936694145202637 0.307960063219070435 0.0293742511421442032
3.93800210952758789 0.18715117871761322 0.0488025471568107605
3.71394228935241699 -0.244791850447654724 0.488483667373657227
3.62157130241394043 -0.0330923013389110565 0.363421201705932617
3.92656826972961426 0.0684210881590843201 0.117190532386302948
4.03555583953857422 0.204596340656280518 0.148576393723487854
3.84212994575500488 0.0955410003662109375 0.325147241353988647
3.98558521270751953 0.0165870338678359985 0.264703571796417236
3.71463418006896973 -0.0875412821769714355 0.281863868236541748
3.86914157867431641 -0.178956121206283569 0.258316993713378906
3.50762438774108887 0.328870952129364014 0.0703265443444252014
3.48855781555175781 0.114312537014484406 0.103957653045654297
3.52802777290344238 -0.00629210285842418671 0.280815243721008301
3.71631956100463867 0.291271746158599854 -0.000744949677027761936
3.71445727348327637 0.084051281213760376 0.0815291851758956909
3.68483972549438477 -0.117391467094421387 0.172388762235641479
3.8482215404510498 0.134082183241844177 0.0796042755246162415
3.75939798355102539 0.160840883851051331 0.285227954387664795
3.74051356315612793 -0.0295366924256086349 0.362887591123580933
3 0 1 2
3 1 3 4
3 2 1 4
3 3 5 6
3 4 3 6
3 5 7 6
3 0 8 9
3 1 0 9
3 9 10 1
3 1 10 3
3 10 11 3
3 3 11 5
3 5 11 12
3 7 5 12
3 8 13 14
3 9 8 14
3 14 15 9
3 9 15 10
3 15 16 10
3 10 16 11
3 11 16 17
3 12 11 17
3 14 13 18
3 15 14 18
3 19 15 18
3 16 15 19
3 20 16 19
3 16 20 17
3 21 22 23
3 22 24 25
3 23 22 25
3 24 26 27
3 25 24 27
3 26 28 27
3 29 30 31
3 2 22 21
3 0 2 21
3 0 21 31
3 0 31 30
3 4 22 2
3 24 22 4
3 6 24 4
3 26 24 6
3 26 32 28
3 6 32 26
3 6 33 32
3 6 7 33
3 33 34 32
3 29 35 36
3 30 29 36
3 36 0 30
3 8 0 36
3 12 33 7
3 37 33 12
3 33 37 38
3 34 33 38
3 35 39 40
3 36 35 40
3 40 8 36
3 13 8 40
3 17 37 12
3 41 37 17
3 37 41 42
3 38 37 42
3 40 39 43
3 43 44 45
3 40 43 45
3 40 45 18
3 40 18 13
3 18 46 19
3 45 46 18
3 19 47 20
3 46 47 19
3 48 49 41
3 47 48 41
3 47 41 17
3 47 17 20
3 41 49 42
3 45 44 50
3 46 45 50
3 51 46 50
3 47 46 51
3 52 47 51
3 47 52 48
3 53 21 23
3 54 53 23
3 23 25 54
3 25 55 54
3 25 27 55
3 27 56 55
3 28 57 56
3 27 28 56
3 58 29 31
3 59 58 31
3 31 53 59
3 21 53 31
3 60 28 32
3 57 28 60
3 34 61 60
3 32 34 60
3 35 29 62
3 62 29 58
3 38 63 34
3 63 61 34
3 39 35 64
3 64 35 62
3 42 65 38
3 65 63 38
3 66 43 39
3 64 66 39
3 44 66 67
3 43 66 44
3 68 49 48
3 69 49 68
3 49 69 65
3 42 49 65
3 70 50 44
3 67 70 44
3 50 70 51
3 51 70 71
3 51 71 52
3 52 71 72
3 52 72 68
3 48 52 68
3 73 53 54
3 74 73 54
3 54 55 74
3 55 75 74
3 55 56 75
3 56 76 75
3 57 77 76
3 56 57 76
3 78 58 59
3 79 78 59
3 59 73 79
3 53 73 59
3 80 57 60
3 77 57 80
3 61 81 80
3 60 61 80
3 62 58 82
3 82 58 78
3 63 83 61
3 83 81 61
3 64 62 84
3 84 62 82
3 65 85 63
3 85 83 63
3 86 66 64
3 84 86 64
3 67 86 87
3 66 86 67
3 88 69 68
3 89 69 88
3 69 89 85
3 65 69 85
3 90 70 67
3 87 90 67
3 70 90 71
3 71 90 91
3 71 91 72
3 72 91 92
3 72 92 88
3 68 72 88
3 73 74 93
3 74 75 94
3 93 74 94
3 75 76 95
3 94 75 95
3 76 77 95
3 78 79 96
3 97 93 98
3 96 93 97
3 96 73 93
3 96 79 73
3 94 98 93
3 99 98 94
3 95 99 94
3 100 99 95
3 100 101 102
3 95 101 100
3 95 80 101
3 95 77 80
3 80 81 101
3 82 78 96
3 103 82 96
3 96 104 103
3 97 104 96
3 102 105 106
3 101 105 102
3 105 101 81
3 83 105 81
3 84 82 103
3 107 84 103
3 103 108 107
3 104 108 103
3 106 109 110
3 105 109 106
3 109 105 83
3 85 109 83
3 86 84 107
3 107 108 111
3 86 107 111
3 86 111 112
3 86 112 87
3 112 113 114
3 111 113 112
3 114 115 116
3 113 115 114
3 89 110 109
3 88 110 89
3 88 115 110
3 88 116 115
3 89 109 85
3 90 87 112
3 91 90 112
3 114 91 112
3 92 91 114
3 116 92 114
3 92 116 88
3 97 98 117
3 98 99 118
3 117 98 118
3 99 100 119
3 118 99 119
3 100 102 119
3 104 97 117
3 120 104 117
3 120 117 121
3 117 118 121
3 121 118 122
3 118 119 122
3 122 119 102
3 106 122 102
3 108 104 120
3 123 108 120
3 123 120 124
3 120 121 124
3 124 121 125
3 121 122 125
3 125 122 106
3 110 125 106
3 111 108 123
3 113 111 123
3 124 113 123
3 115 113 124
3 125 115 124
3 115 125 110
