ply
format ascii 1.0
comment VCGLIB generated
element vertex 126
property float x
property float y
property float z
element face 248
property list uchar int vertex_indices
end_header
-0.136154487729072571 0.0802561640739440918 -0.546558678150177002
-0.140240982174873352 0.0415299795567989349 -0.437515556812286377
-0.152160316705703735 -0.0475074723362922668 -0.494203537702560425
-0.142652183771133423 -0.163887307047843933 -0.352779805660247803
-0.0318606682121753693 -0.170769080519676208 -0.350435376167297363
-0.170399338006973267 -0.354769080877304077 -0.230709701776504517
-0.064016975462436676 -0.364737182855606079 -0.234312206506729126
-0.140142440795898438 -0.33057287335395813 -0.126639604568481445
0.0595633164048194885 0.116014599800109863 -0.446662276983261108
0.080477394163608551 0.00693264603614807129 -0.439816087484359741
0.0629981309175491333 -0.144153743982315063 -0.274834215641021729
0.0469319000840187073 -0.348846077919006348 -0.180605053901672363
0.0488980598747730255 -0.446321159601211548 -0.137120276689529419
0.248589500784873962 0.157181769609451294 -0.335183531045913696
0.244622215628623962 0.0527148991823196411 -0.29174843430519104
0.286863625049591064 -0.166307747364044189 -0.268678069114685059
0.264582633972167969 -0.342598885297775269 -0.131674200296401978
0.251458466053009033 -0.411025136709213257 -0.0482265129685401917
0.352048873901367188 0.0716444998979568481 -0.307373404502868652
0.270368248224258423 -0.0978315770626068115 -0.184501007199287415
0.284872055053710938 -0.274606943130493164 -0.0467789173126220703
-0.201737076044082642 0.0390407778322696686 -0.240116313099861145
-0.156421661376953125 0.0901508033275604248 -0.376777619123458862
-0.145281150937080383 0.132825419306755066 -0.260618507862091064
-0.183170631527900696 -0.110450714826583862 -0.286161303520202637
-0.15564282238483429 -0.076413862407207489 -0.187854558229446411
-0.208272919058799744 -0.294094592332839966 -0.164676100015640259
-0.107375778257846832 -0.275047361850738525 -0.121480420231819153
-0.118198387324810028 -0.383897632360458374 -0.0999226123094558716
-0.170768097043037415 0.0839491710066795349 -0.257013231515884399
-0.169692039489746094 0.0904015153646469116 -0.366487085819244385
-0.116489723324775696 0.184539884328842163 -0.279077470302581787
-0.103022255003452301 -0.372669041156768799 0.0773880854249000549
-0.199818596243858337 -0.438257038593292236 0.000803271890617907047
-0.207688003778457642 -0.386322706937789917 0.0991090089082717896
-0.0845352783799171448 0.282520949840545654 -0.269299149513244629
-0.0178766250610351562 0.250207990407943726 -0.351610958576202393
-0.0185155868530273438 -0.311438590288162231 -0.0404681749641895294
0.00123659765813499689 -0.309871315956115723 0.0681650638580322266
0.0995063707232475281 0.154402554035186768 -0.243178397417068481
0.155480697751045227 0.244219988584518433 -0.208915859460830688
0.164243370294570923 -0.33073723316192627 0.0842757970094680786
0.21450360119342804 -0.251732766628265381 0.0224926061928272247
0.168220192193984985 0.115513451397418976 -0.165107443928718567
0.3277587890625 0.172574594616889954 -0.219798669219017029
0.446163803339004517 0.126576602458953857 -0.166552454233169556
0.348504364490509033 -0.0275604762136936188 -0.0379971638321876526
0.450359970331192017 -0.226320266723632812 0.00104248523712158203
0.354863792657852173 -0.246479853987693787 -0.0960030108690261841
0.203355148434638977 -0.335272789001464844 -0.0506416931748390198
0.381371170282363892 0.207524523138999939 -0.130607873201370239
0.448864281177520752 0.0155966533347964287 -0.0481774397194385529
0.457420319318771362 -0.202508881688117981 -0.105233587324619293
-0.255606949329376221 0.103932611644268036 -0.0305563192814588547
-0.264128029346466064 0.197834998369216919 -0.0845519676804542542
-0.13450939953327179 0.0129956658929586411 0.00936110783368349075
-0.193134933710098267 -0.198312506079673767 0.055853523313999176
-0.204335838556289673 -0.292148381471633911 0.0775351077318191528
-0.117193855345249176 0.0878125429153442383 -0.0379113331437110901
-0.107598297297954559 0.196090251207351685 -0.0483705587685108185
-0.115542404353618622 -0.1507912278175354 0.0729511156678199768
-0.223426803946495056 -0.165364503860473633 0.076700843870639801
-0.0977897569537162781 0.311792284250259399 -0.0472650900483131409
-0.074634552001953125 -0.170524150133132935 -0.0906723737716674805
0.100057914853096008 0.204979762434959412 -0.0256391353905200958
0.138618141412734985 -0.107544317841529846 -0.132647544145584106
0.142615631222724915 0.305311143398284912 -0.0480194874107837677
0.304438263177871704 0.236750215291976929 -0.00630100537091493607
0.295877456665039062 -0.0824420750141143799 0.0461908169090747833
0.133887916803359985 -0.123839274048805237 -0.0228714942932128906
0.198763206601142883 0.209389224648475647 -0.00529865408316254616
0.23399670422077179 0.0209387540817260742 -0.117945469915866852
0.261071503162384033 -0.171426177024841309 -0.00829736329615116119
-0.312277466058731079 0.24443519115447998 0.145431354641914368
-0.404872864484786987 0.186921998858451843 0.103509023785591125
-0.242112472653388977 0.0723791718482971191 0.186768561601638794
-0.344980537891387939 -0.124788053333759308 0.202099472284317017
-0.279307365417480469 -0.189607933163642883 0.264772176742553711
-0.0854857712984085083 0.100691504776477814 0.186183646321296692
-0.150698021054267883 0.187352508306503296 0.17298300564289093
-0.106789268553256989 -0.158570662140846252 0.295448899269104004
-0.0349442139267921448 -0.182621210813522339 0.206629619002342224
-0.106876686215400696 0.324389010667800903 0.174472332000732422
0.077101387083530426 -0.0726209208369255066 0.0412738323211669922
0.106701843440532684 0.257429540157318115 0.190804392099380493
0.0770393982529640198 0.10534609854221344 -0.0990388765931129456
0.115612342953681946 0.364430516958236694 0.167145326733589172
0.170157745480537415 0.193713873624801636 0.169581368565559387
0.345490753650665283 0.024921538308262825 -0.143253207206726074
0.171152740716934204 0.0660452917218208313 -0.138765573501586914
0.229295089840888977 0.101888276636600494 0.190031722187995911
0.075359344482421875 0.0814719274640083313 0.0293205175548791885
0.239381775259971619 0.0246000774204730988 -0.113796785473823547
-0.415209114551544189 0.225684553384780884 0.214512541890144348
-0.259313583374023438 0.0692280009388923645 0.281861603260040283
-0.381830513477325439 -0.107235223054885864 0.30961194634437561
-0.130022361874580383 0.107120692729949951 0.289503335952758789
-0.16468048095703125 0.289182782173156738 0.303644925355911255
-0.299107223749160767 0.344564586877822876 0.317290604114532471
-0.297905594110488892 0.143689900636672974 0.425208985805511475
-0.226203590631484985 -0.0738795474171638489 0.396204173564910889
-0.11612255871295929 -0.150532454252243042 0.153051018714904785
-0.163831710815429688 -0.0341774262487888336 0.281267344951629639
-0.111907318234443665 0.331213057041168213 0.284828335046768188
-0.0199619922786951065 0.317461460828781128 0.131560564041137695
0.00936349201947450638 0.0121429180726408958 0.0595724545419216156
-0.0165859851986169815 0.118686355650424957 0.201939135789871216
0.024323461577296257 0.273680895566940308 0.117670692503452301
0.126209259033203125 0.179479449987411499 0.23203788697719574
0.151982307434082031 0.1540374755859375 -0.0316025801002979279
0.194780021905899048 0.0885478928685188293 0.131970047950744629
0.167032867670059204 0.0521079748868942261 0.190168008208274841
0.295084297657012939 0.159684270620346069 0.124667681753635406
0.100709594786167145 0.00920158717781305313 -0.0219619274139404297
0.100997284054756165 0.18599604070186615 0.0160413980484008789
0.273667961359024048 -0.0237417668104171753 0.117333926260471344
0.289446502923965454 0.0756425932049751282 -0.0294943638145923615
-0.248459175229072571 0.304567813873291016 0.230147823691368103
-0.284735351800918579 0.0992805883288383484 0.315766513347625732
-0.122658409178256989 -0.0312701128423213959 0.38685956597328186
-0.0812117233872413635 0.228626519441604614 0.103022448718547821
-0.123666122555732727 0.0195589140057563782 0.176202252507209778
0.0361951179802417755 0.107747398316860199 0.301191806793212891
0.0647974014282226562 0.0925754755735397339 0.208466842770576477
0.0378513336181640625 -0.0567544847726821899 0.0413318462669849396
0.196949630975723267 -0.00593694113194942474 0.19228556752204895
3 0 1 2
3 1 3 4
3 2 1 4
3 3 5 6
3 4 3 6
3 5 7 6
3 0 8 9
3 1 0 9
3 9 10 1
3 1 10 3
3 10 11 3
3 3 11 5
3 5 11 12
3 7 5 12
3 8 13 14
3 9 8 14
3 14 15 9
3 9 15 10
3 15 16 10
3 10 16 11
3 11 16 17
3 12 11 17
3 14 13 18
3 15 14 18
3 19 15 18
3 16 15 19
3 20 16 19
3 16 20 17
3 21 22 23
3 22 24 25
3 23 22 25
3 24 26 27
3 25 24 27
3 26 28 27
3 29 30 31
3 2 22 21
3 0 2 21
3 0 21 31
3 0 31 30
3 4 22 2
3 24 22 4
3 6 24 4
3 26 24 6
3 26 32 28
3 6 32 26
3 6 33 32
3 6 7 33
3 33 34 32
3 29 35 36
3 30 29 36
3 36 0 30
3 8 0 36
3 12 33 7
3 37 33 12
3 33 37 38
3 34 33 38
3 35 39 40
3 36 35 40
3 40 8 36
3 13 8 40
3 17 37 12
3 41 37 17
3 37 41 42
3 38 37 42
3 40 39 43
3 43 44 45
3 40 43 45
3 40 45 18
3 40 18 13
3 18 46 19
3 45 46 18
3 19 47 20
3 46 47 19
3 48 49 41
3 47 48 41
3 47 41 17
3 47 17 20
3 41 49 42
3 45 44 50
3 46 45 50
3 51 46 50
3 47 46 51
3 52 47 51
3 47 52 48
3 53 21 23
3 54 53 23
3 23 25 54
3 25 55 54
3 25 27 55
3 27 56 55
3 28 57 56
3 27 28 56
3 58 29 31
3 59 58 31
3 31 53 59
3 21 53 31
3 60 28 32
3 57 28 60
3 34 61 60
3 32 34 60
3 35 29 62
3 62 29 58
3 38 63 34
3 63 61 34
3 39 35 64
3 64 35 62
3 42 65 38
3 65 63 38
3 66 43 39
3 64 66 39
3 44 66 67
3 43 66 44
3 68 49 48
3 69 49 68
3 49 69 65
3 42 49 65
3 70 50 44
3 67 70 44
3 50 70 51
3 51 70 71
3 51 71 52
3 52 71 72
3 52 72 68
3 48 52 68
3 73 53 54
3 74 73 54
3 54 55 74
3 55 75 74
3 55 56 75
3 56 76 75
3 57 77 76
3 56 57 76
3 78 58 59
3 79 78 59
3 59 73 79
3 53 73 59
3 80 57 60
3 77 57 80
3 61 81 80
3 60 61 80
3 62 58 82
3 82 58 78
3 63 83 61
3 83 81 61
3 64 62 84
3 84 62 82
3 65 85 63
3 85 83 63
3 86 66 64
3 84 86 64
3 67 86 87
3 66 86 67
3 88 69 68
3 89 69 88
3 69 89 85
3 65 69 85
3 90 70 67
3 87 90 67
3 70 90 71
3 71 90 91
3 71 91 72
3 72 91 92
3 72 92 88
3 68 72 88
3 73 74 93
3 74 75 94
3 93 74 94
3 75 76 95
3 94 75 95
3 76 77 95
3 78 79 96
3 97 93 98
3 96 93 97
3 96 73 93
3 96 79 73
3 94 98 93
3 99 98 94
3 95 99 94
3 100 99 95
3 100 101 102
3 95 101 100
3 95 80 101
3 95 77 80
3 80 81 101
3 82 78 96
3 103 82 96
3 96 104 103
3 97 104 96
3 102 105 106
3 101 105 102
3 105 101 81
3 83 105 81
3 84 82 103
3 107 84 103
3 103 108 107
3 104 108 103
3 106 109 110
3 105 109 106
3 109 105 83
3 85 109 83
3 86 84 107
3 107 108 111
3 86 107 111
3 86 111 112
3 86 112 87
3 112 113 114
3 111 113 112
3 114 115 116
3 113 115 114
3 89 110 109
3 88 110 89
3 88 115 110
3 88 116 115
3 89 109 85
3 90 87 112
3 91 90 112
3 114 91 112
3 92 91 114
3 116 92 114
3 92 116 88
3 97 98 117
3 98 99 118
3 117 98 118
3 99 100 119
3 118 99 119
3 100 102 119
3 104 97 117
3 120 104 117
3 120 117 121
3 117 118 121
3 121 118 122
3 118 119 122
3 122 119 102
3 106 122 102
3 108 104 120
3 123 108 120
3 123 120 124
3 120 121 124
3 124 121 125
3 121 122 125
3 125 122 106
3 110 125 106
3 111 108 123
3 113 111 123
3 124 113 123
3 115 113 124
3 125 115 124
3 115 125 110
