ply
format ascii 1.0
comment VCGLIB generated
element vertex 126
property float x
property float y
property float z
element face 248
property list uchar int vertex_indices
end_header
-0.164610996842384338 0.299124628305435181 -0.40185248851776123
-0.145431250333786011 0.209018468856811523 -0.471091955900192261
-0.247838154435157776 0.195498988032341003 -0.429966956377029419
-0.131011694669723511 -0.0172545574605464935 -0.529558479785919189
-0.224523544311523438 -0.0252235624939203262 -0.454158633947372437
-0.123038977384567261 -0.201055034995079041 -0.396563172340393066
-0.195824757218360901 -0.246880605816841125 -0.45438683032989502
-0.1134490966796875 -0.308930963277816772 -0.36204865574836731
-0.0149072920903563499 0.21701987087726593 -0.258721292018890381
0.00815119035542011261 0.13432997465133667 -0.327941000461578369
0.0925990492105484009 -0.00124363438226282597 -0.487382769584655762
0.0981262773275375366 -0.206463217735290527 -0.408006399869918823
0.106598995625972748 -0.278361260890960693 -0.331543505191802979
0.175981521606445312 0.320179939270019531 -0.315403938293457031
0.209151685237884521 0.229024425148963928 -0.366942375898361206
0.29752051830291748 0.0292128734290599823 -0.410593420267105103
0.306807935237884521 -0.181613445281982422 -0.334583520889282227
0.318057209253311157 -0.290936112403869629 -0.314370572566986084
0.300237119197845459 0.258889377117156982 -0.3140430748462677
0.393124997615814209 0.0535798817873001099 -0.362419068813323975
0.39330756664276123 -0.170095548033714294 -0.321134328842163086
-0.422772020101547241 0.283578425645828247 -0.227380990982055664
-0.382502436637878418 0.184817075729370117 -0.31873515248298645
-0.364413946866989136 0.193544700741767883 -0.206926211714744568
-0.342401772737503052 -0.0340105816721916199 -0.318841099739074707
-0.3841400146484375 -0.032797936350107193 -0.211508959531784058
-0.288543701171875 -0.244047120213508606 -0.299543499946594238
-0.313378751277923584 -0.240097746253013611 -0.192311331629753113
-0.278923869132995605 -0.3393535315990448 -0.195698574185371399
-0.239885881543159485 0.504829049110412598 -0.197829186916351318
-0.208136692643165588 0.432744234800338745 -0.284335613250732422
-0.315588533878326416 0.428392142057418823 -0.200074240565299988
-0.115563534200191498 -0.422370404005050659 -0.204291000962257385
-0.136541634798049927 -0.2886810302734375 -0.186239659786224365
-0.0427082628011703491 -0.345188617706298828 -0.231670483946800232
-0.0702789872884750366 0.432557821273803711 -0.0774759948253631592
-0.0468512959778308868 0.353044778108596802 -0.148479431867599487
0.0721468254923820496 -0.299693584442138672 -0.158053979277610779
0.0985581576824188232 -0.198064878582954407 -0.137973174452781677
0.128191545605659485 0.524994432926177979 -0.119077138602733612
0.140496671199798584 0.456271916627883911 -0.207529246807098389
0.281561434268951416 -0.358938455581665039 -0.156667232513427734
0.29565131664276123 -0.305160939693450928 -0.0731285959482192993
0.229349136352539062 0.477223068475723267 -0.103201694786548615
0.350194662809371948 0.345321804285049438 -0.0682956874370574951
0.393035084009170532 0.261769235134124756 -0.164611682295799255
0.450852274894714355 0.0466890707612037659 -0.19459061324596405
0.529080808162689209 -0.157239764928817749 -0.215056464076042175
0.512129902839660645 -0.264423221349716187 -0.130236998200416565
0.321723401546478271 -0.210767939686775208 -0.157872274518013
0.397139966487884521 0.24132828414440155 -0.0545244552195072174
0.376131892204284668 0.0251590702682733536 -0.118616141378879547
0.499519616365432739 -0.163401052355766296 -0.100837439298629761
-0.465536117553710938 0.309534966945648193 -0.00136034830939024687
-0.437570303678512573 0.200576364994049072 0.00474452972412109375
-0.44536590576171875 -0.0286141149699687958 0.00785333756357431412
-0.341548919677734375 -0.246113240718841553 0.0297226235270500183
-0.275343477725982666 -0.346031308174133301 0.0389923378825187683
-0.302653998136520386 0.537762343883514404 0.021982874721288681
-0.40355682373046875 0.482450574636459351 0.0154214249923825264
-0.0982611551880836487 -0.353071749210357666 0.00803691986948251724
-0.0552163831889629364 -0.436480790376663208 -0.00609466014429926872
-0.0846508592367172241 0.606396377086639404 0.0610314123332500458
0.156867161393165588 -0.342790454626083374 -0.016322646290063858
0.140675142407417297 0.590985298156738281 0.0974702835083007812
0.252486646175384521 -0.203066393733024597 0.118850640952587128
0.194977357983589172 0.497901499271392822 0.118255443871021271
0.232533052563667297 0.323957204818725586 0.12287139892578125
0.406599044799804688 -0.276748985052108765 0.0861901938915252686
0.264043807983398438 -0.16079181432723999 0.0382879823446273804
0.25821414589881897 0.209495231509208679 0.119340419769287109
0.30831611156463623 0.00863573886454105377 0.107646159827709198
0.35548892617225647 -0.19271358847618103 0.094104669988155365
-0.478931158781051636 0.303772062063217163 0.225885435938835144
-0.514003217220306396 0.198589250445365906 0.220002278685569763
-0.464946210384368896 -0.0273854341357946396 0.233235016465187073
-0.297306597232818604 -0.198873579502105713 0.242157325148582458
-0.244106575846672058 -0.327446818351745605 0.268576145172119141
-0.306944161653518677 0.519277572631835938 0.250318229198455811
-0.377529710531234741 0.442443370819091797 0.240985333919525146
-0.0366687774658203125 -0.284842163324356079 0.193201646208763123
-0.0490025132894515991 -0.227512821555137634 0.0953653901815414429
-0.0798511505126953125 0.514838099479675293 0.246791675686836243
0.135334566235542297 -0.276527523994445801 0.191826313734054565
0.123131617903709412 0.572104692459106445 0.316583096981048584
0.4062652587890625 -0.289789557456970215 0.150091826915740967
0.230838239192962646 0.535388946533203125 0.333048790693283081
0.315369188785552979 0.369292110204696655 0.327511340379714966
0.514839708805084229 -0.088123708963394165 0.147728577256202698
0.441382288932800293 -0.255345165729522705 0.0819356143474578857
0.360889434814453125 0.255055397748947144 0.318480551242828369
0.462747305631637573 0.0994538664817810059 0.220612972974777222
0.533707499504089355 -0.0939166247844696045 0.212352454662322998
-0.463748663663864136 0.21499122679233551 0.328963160514831543
-0.377885282039642334 0.0143410442396998405 0.305472433567047119
-0.252411723136901855 -0.135699838399887085 0.187298908829689026
-0.299878805875778198 0.473261445760726929 0.359790682792663574
-0.242981240153312683 0.340972900390625 0.477092623710632324
-0.330207020044326782 0.286070376634597778 0.406209230422973633
-0.231497630476951599 0.0922751352190971375 0.372748047113418579
-0.150635585188865662 -0.00336491572670638561 0.234266355633735657
0.0448472164571285248 -0.176506027579307556 0.111976012587547302
-0.0880541130900382996 -0.0832984000444412231 0.145121991634368896
-0.0925813391804695129 0.472041547298431396 0.339400947093963623
-0.0319167561829090118 0.391868531703948975 0.481720149517059326
0.117485865950584412 -0.226367995142936707 0.296768128871917725
0.11431557685136795 -0.043956611305475235 0.277860343456268311
0.116667069494724274 0.50493854284286499 0.432440727949142456
0.173094615340232849 0.352014899253845215 0.38559606671333313
0.3437042236328125 -0.256270378828048706 0.215737819671630859
0.266636431217193604 -0.0575578659772872925 0.181249037384986877
0.224058970808982849 0.240979477763175964 0.355475127696990967
0.407232552766799927 0.31384846568107605 0.39139220118522644
0.323430478572845459 0.228554591536521912 0.162952795624732971
0.500372469425201416 0.193661630153656006 0.223101213574409485
0.275760382413864136 0.0262364353984594345 0.262854784727096558
0.456334531307220459 -0.00939140934497117996 0.237420976161956787
-0.238286435604095459 0.327130824327468872 0.379530549049377441
-0.141175135970115662 0.138016253709793091 0.328587979078292847
-0.0734669864177703857 -0.066460534930229187 0.234819993376731873
-0.0266483854502439499 0.280967533588409424 0.460034966468811035
0.0518526360392570496 0.245774820446968079 0.259291291236877441
0.130627498030662537 0.0309877078980207443 0.20191483199596405
0.11347498744726181 0.279916673898696899 0.305401772260665894
0.270829886198043823 0.308890074491500854 0.254663228988647461
0.346265524625778198 0.0590532533824443817 0.222489327192306519
3 0 1 2
3 1 3 4
3 2 1 4
3 3 5 6
3 4 3 6
3 5 7 6
3 0 8 9
3 1 0 9
3 9 10 1
3 1 10 3
3 10 11 3
3 3 11 5
3 5 11 12
3 7 5 12
3 8 13 14
3 9 8 14
3 14 15 9
3 9 15 10
3 15 16 10
3 10 16 11
3 11 16 17
3 12 11 17
3 14 13 18
3 15 14 18
3 19 15 18
3 16 15 19
3 20 16 19
3 16 20 17
3 21 22 23
3 22 24 25
3 23 22 25
3 24 26 27
3 25 24 27
3 26 28 27
3 29 30 31
3 2 22 21
3 0 2 21
3 0 21 31
3 0 31 30
3 4 22 2
3 24 22 4
3 6 24 4
3 26 24 6
3 26 32 28
3 6 32 26
3 6 33 32
3 6 7 33
3 33 34 32
3 29 35 36
3 30 29 36
3 36 0 30
3 8 0 36
3 12 33 7
3 37 33 12
3 33 37 38
3 34 33 38
3 35 39 40
3 36 35 40
3 40 8 36
3 13 8 40
3 17 37 12
3 41 37 17
3 37 41 42
3 38 37 42
3 40 39 43
3 43 44 45
3 40 43 45
3 40 45 18
3 40 18 13
3 18 46 19
3 45 46 18
3 19 47 20
3 46 47 19
3 48 49 41
3 47 48 41
3 47 41 17
3 47 17 20
3 41 49 42
3 45 44 50
3 46 45 50
3 51 46 50
3 47 46 51
3 52 47 51
3 47 52 48
3 53 21 23
3 54 53 23
3 23 25 54
3 25 55 54
3 25 27 55
3 27 56 55
3 28 57 56
3 27 28 56
3 58 29 31
3 59 58 31
3 31 53 59
3 21 53 31
3 60 28 32
3 57 28 60
3 34 61 60
3 32 34 60
3 35 29 62
3 62 29 58
3 38 63 34
3 63 61 34
3 39 35 64
3 64 35 62
3 42 65 38
3 65 63 38
3 66 43 39
3 64 66 39
3 44 66 67
3 43 66 44
3 68 49 48
3 69 49 68
3 49 69 65
3 42 49 65
3 70 50 44
3 67 70 44
3 50 70 51
3 51 70 71
3 51 71 52
3 52 71 72
3 52 72 68
3 48 52 68
3 73 53 54
3 74 73 54
3 54 55 74
3 55 75 74
3 55 56 75
3 56 76 75
3 57 77 76
3 56 57 76
3 78 58 59
3 79 78 59
3 59 73 79
3 53 73 59
3 80 57 60
3 77 57 80
3 61 81 80
3 60 61 80
3 62 58 82
3 82 58 78
3 63 83 61
3 83 81 61
3 64 62 84
3 84 62 82
3 65 85 63
3 85 83 63
3 86 66 64
3 84 86 64
3 67 86 87
3 66 86 67
3 88 69 68
3 89 69 88
3 69 89 85
3 65 69 85
3 90 70 67
3 87 90 67
3 70 90 71
3 71 90 91
3 71 91 72
3 72 91 92
3 72 92 88
3 68 72 88
3 73 74 93
3 74 75 94
3 93 74 94
3 75 76 95
3 94 75 95
3 76 77 95
3 78 79 96
3 97 93 98
3 96 93 97
3 96 73 93
3 96 79 73
3 94 98 93
3 99 98 94
3 95 99 94
3 100 99 95
3 100 101 102
3 95 101 100
3 95 80 101
3 95 77 80
3 80 81 101
3 82 78 96
3 103 82 96
3 96 104 103
3 97 104 96
3 102 105 106
3 101 105 102
3 105 101 81
3 83 105 81
3 84 82 103
3 107 84 103
3 103 108 107
3 104 108 103
3 106 109 110
3 105 109 106
3 109 105 83
3 85 109 83
3 86 84 107
3 107 108 111
3 86 107 111
3 86 111 112
3 86 112 87
3 112 113 114
3 111 113 112
3 114 115 116
3 113 115 114
3 89 110 109
3 88 110 89
3 88 115 110
3 88 116 115
3 89 109 85
3 90 87 112
3 91 90 112
3 114 91 112
3 92 91 114
3 116 92 114
3 92 116 88
3 97 98 117
3 98 99 118
3 117 98 118
3 99 100 119
3 118 99 119
3 100 102 119
3 104 97 117
3 120 104 117
3 120 117 121
3 117 118 121
3 121 118 122
3 118 119 122
3 122 119 102
3 106 122 102
3 108 104 120
3 123 108 120
3 123 120 124
3 120 121 124
3 124 121 125
3 121 122 125
3 125 122 106
3 110 125 106
3 111 108 123
3 113 111 123
3 124 113 123
3 115 113 124
3 125 115 124
3 115 125 110
