ply
format ascii 1.0
comment VCGLIB generated
element vertex 126
property float x
property float y
property float z
element face 248
property list uchar int vertex_indices
end_header
-0.310068756341934204 0.292821586132049561 -0.378324359655380249
-0.270028442144393921 0.178343340754508972 -0.391299575567245483
-0.32209014892578125 0.17847895622253418 -0.298293113708496094
-0.248811081051826477 -0.0499274618923664093 -0.382396548986434937
-0.324055999517440796 -0.043843388557434082 -0.28943362832069397
-0.058292388916015625 -0.0656403973698616028 -0.252156108617782593
-0.133822128176689148 -0.0366817861795425415 -0.174927070736885071
-0.00276056933216750622 -0.117316983640193939 -0.163815021514892578
-0.099469505250453949 0.219070538878440857 -0.358392566442489624
-0.072373710572719574 0.203125730156898499 -0.492273002862930298
-0.027721405029296875 -0.0214392002671957016 -0.436460018157958984
0.00492350244894623756 -0.243035018444061279 -0.364785045385360718
0.0220578517764806747 -0.305570483207702637 -0.266103744506835938
0.097304023802280426 0.313684403896331787 -0.307148933410644531
0.139339447021484375 0.245966359972953796 -0.389340251684188843
0.179290771484375 0.0238430500030517578 -0.378741741180419922
0.216924026608467102 -0.202072635293006897 -0.324128150939941406
0.248421981930732727 -0.296570926904678345 -0.27953067421913147
0.221861526370048523 0.261316388845443726 -0.308545589447021484
0.262659698724746704 0.0373099707067012787 -0.312651485204696655
0.278391510248184204 -0.173274993896484375 -0.227297469973564148
-0.492132812738418579 0.291429013013839722 -0.109731674194335938
-0.420149475336074829 0.199516668915748596 -0.154379680752754211
-0.4903717041015625 0.200703486800193787 -0.0694904327392578125
-0.445682525634765625 -0.0249631460756063461 -0.163781002163887024
-0.493073791265487671 -0.00822705682367086411 -0.0598298721015453339
-0.2561187744140625 -0.122435659170150757 -0.0800457000732421875
-0.316488891839981079 -0.0637345090508460999 0.000441869109636172652
-0.246972396969795227 -0.0810923352837562561 0.0582814216613769531
-0.397655487060546875 0.336156219244003296 -0.11671224981546402
-0.350972503423690796 0.359725832939147949 -0.214523479342460632
-0.435441344976425171 0.443168997764587402 -0.129921272397041321
-0.068091072142124176 -0.18474934995174408 0.106448650360107422
0.0312093105167150497 -0.171489834785461426 -0.000410715729231014848
-0.065097808837890625 -0.219721794128417969 -0.00184933340642601252
-0.177186325192451477 0.306576758623123169 -0.0706442221999168396
-0.148070022463798523 0.261148720979690552 -0.170269802212715149
0.0489362068474292755 -0.381259709596633911 -0.094064079225063324
0.052577972412109375 -0.426430851221084595 0.0122628211975097656
0.00394312525168061256 0.443805813789367676 -0.0705000534653663635
0.0277659092098474503 0.404360383749008179 -0.170210674405097961
0.272917419672012329 -0.387780040502548218 -0.118109069764614105
0.277598053216934204 -0.391682624816894531 0.00443188333883881569
0.112250007688999176 0.442850559949874878 -0.0583639144897460938
0.273377746343612671 0.37204897403717041 -0.0432565994560718536
0.309513092041015625 0.275479048490524292 -0.14084625244140625
0.312491089105606079 0.0522402636706829071 -0.142508193850517273
0.442867279052734375 -0.129698112607002258 -0.163645103573799133
0.469076782464981079 -0.222208932042121887 -0.0434285812079906464
0.378718048334121704 -0.377523422241210938 -0.0317622832953929901
0.226975753903388977 0.275052517652511597 -0.0602280311286449432
0.356998443603515625 0.0958509668707847595 -0.0542680434882640839
0.447764068841934204 -0.104526370763778687 -0.0537587814033031464
-0.576180756092071533 0.331850886344909668 0.103166736662387848
-0.63198089599609375 0.240128949284553528 0.104568958282470703
-0.528006255626678467 0.0731977298855781555 0.135531112551689148
-0.55706024169921875 -0.156037881970405579 0.0550805740058422089
-0.402403503656387329 -0.201768085360527039 0.0702045783400535583
-0.464448302984237671 0.460889071226119995 0.0984889641404151917
-0.584847748279571533 0.517780005931854248 0.0734612122178077698
-0.241640731692314148 -0.332916855812072754 0.122330345213413239
-0.125682830810546875 -0.349327921867370605 0.156825542449951172
-0.22776031494140625 0.411681413650512695 0.124221481382846832
0.103328704833984375 -0.337918400764465332 0.217602893710136414
-0.0270779933780431747 0.482471942901611328 0.148316070437431335
0.243344619870185852 -0.193109855055809021 0.0846436843276023865
0.088216148316860199 0.499196916818618774 0.157160446047782898
0.205060318112373352 0.373450130224227905 0.168958976864814758
0.440676361322402954 -0.191931053996086121 0.177542373538017273
0.297420501708984375 -0.275088727474212646 0.147329166531562805
0.200842544436454773 0.26513981819152832 0.1698150634765625
0.300005584955215454 0.0726144388318061829 0.167128086090087891
0.33783721923828125 -0.136754736304283142 0.13485892117023468
-0.637697875499725342 0.366290688514709473 0.320545345544815063
-0.636015594005584717 0.265446394681930542 0.333502620458602905
-0.680864989757537842 0.0225457344204187393 0.301861763000488281
-0.426233917474746704 -0.011598978191614151 0.230890274047851562
-0.324990600347518921 -0.0385888554155826569 0.228126838803291321
-0.463537842035293579 0.576261579990386963 0.304632335901260376
-0.548381805419921875 0.502204358577728271 0.288096755743026733
-0.2721099853515625 -0.200465157628059387 0.314360141754150391
-0.181143447756767273 -0.167625114321708679 0.260069042444229126
-0.254826873540878296 0.502308487892150879 0.322885364294052124
0.056438446044921875 -0.10475458949804306 0.209509849548339844
-0.0478223152458667755 0.505353868007659912 0.377864837646484375
0.251799255609512329 -0.0689346268773078918 0.266818046569824219
0.0485674552619457245 0.504981100559234619 0.381281375885009766
0.178551986813545227 0.382626980543136597 0.39072766900062561
0.351460784673690796 -0.101770758628845215 0.375993877649307251
0.215632125735282898 -0.16785915195941925 0.303984493017196655
0.18927764892578125 0.2754078209400177 0.394815117120742798
0.289470672607421875 0.085973106324672699 0.384201526641845703
0.234872177243232727 -0.128259167075157166 0.342561393976211548
-0.62607574462890625 0.274509042501449585 0.436054855585098267
-0.565685272216796875 0.0807418227195739746 0.451565742492675781
-0.378056854009628296 0.0331286974251270294 0.338856548070907593
-0.484502166509628296 0.540656864643096924 0.409701824188232422
-0.451236724853515625 0.411591291427612305 0.549808740615844727
-0.551300048828125 0.335755705833435059 0.597267866134643555
-0.456516265869140625 0.125668510794639587 0.578608810901641846
-0.337169647216796875 -0.0830632001161575317 0.485390752553939819
-0.154610946774482727 -0.202245399355888367 0.340629100799560547
-0.201894119381904602 -0.0905052348971366882 0.457774639129638672
-0.295065551996231079 0.536645054817199707 0.457810878753662109
-0.260645538568496704 0.466711044311523438 0.608037054538726807
0.0451189689338207245 -0.101133130490779877 0.314760059118270874
-0.013671875 0.058993995189666748 0.3974151611328125
-0.06830596923828125 0.524783730506896973 0.479101896286010742
-0.079736076295375824 0.410094410181045532 0.608844757080078125
0.246149703860282898 -0.065380878746509552 0.375073105096817017
0.127170562744140625 -0.0886951759457588196 0.547740519046783447
0.021869659423828125 0.295675337314605713 0.61218714714050293
0.181460067629814148 0.303657859563827515 0.502336800098419189
0.0392328910529613495 0.0761317014694213867 0.550407588481903076
0.214204147458076477 0.0956272482872009277 0.468339115381240845
0.0512784309685230255 -0.12386620044708252 0.457931846380233765
0.219268798828125 -0.122939914464950562 0.437939971685409546
-0.470696777105331421 0.328873872756958008 0.559441864490509033
-0.383921295404434204 0.133286386728286743 0.522589385509490967
-0.264269500970840454 -0.0112021593376994133 0.534702003002166748
-0.304501861333847046 0.347541719675064087 0.645980179309844971
-0.172835037112236023 0.220106765627861023 0.59419780969619751
-0.068651832640171051 0.0941919758915901184 0.48531833291053772
-0.089522041380405426 0.290730655193328857 0.616414546966552734
-0.088769279420375824 0.0670597627758979797 0.570257723331451416
0.07259368896484375 -0.0498200468719005585 0.580929100513458252
3 0 1 2
3 1 3 4
3 2 1 4
3 3 5 6
3 4 3 6
3 5 7 6
3 0 8 9
3 1 0 9
3 9 10 1
3 1 10 3
3 10 11 3
3 3 11 5
3 5 11 12
3 7 5 12
3 8 13 14
3 9 8 14
3 14 15 9
3 9 15 10
3 15 16 10
3 10 16 11
3 11 16 17
3 12 11 17
3 14 13 18
3 15 14 18
3 19 15 18
3 16 15 19
3 20 16 19
3 16 20 17
3 21 22 23
3 22 24 25
3 23 22 25
3 24 26 27
3 25 24 27
3 26 28 27
3 29 30 31
3 2 22 21
3 0 2 21
3 0 21 31
3 0 31 30
3 4 22 2
3 24 22 4
3 6 24 4
3 26 24 6
3 26 32 28
3 6 32 26
3 6 33 32
3 6 7 33
3 33 34 32
3 29 35 36
3 30 29 36
3 36 0 30
3 8 0 36
3 12 33 7
3 37 33 12
3 33 37 38
3 34 33 38
3 35 39 40
3 36 35 40
3 40 8 36
3 13 8 40
3 17 37 12
3 41 37 17
3 37 41 42
3 38 37 42
3 40 39 43
3 43 44 45
3 40 43 45
3 40 45 18
3 40 18 13
3 18 46 19
3 45 46 18
3 19 47 20
3 46 47 19
3 48 49 41
3 47 48 41
3 47 41 17
3 47 17 20
3 41 49 42
3 45 44 50
3 46 45 50
3 51 46 50
3 47 46 51
3 52 47 51
3 47 52 48
3 53 21 23
3 54 53 23
3 23 25 54
3 25 55 54
3 25 27 55
3 27 56 55
3 28 57 56
3 27 28 56
3 58 29 31
3 59 58 31
3 31 53 59
3 21 53 31
3 60 28 32
3 57 28 60
3 34 61 60
3 32 34 60
3 35 29 62
3 62 29 58
3 38 63 34
3 63 61 34
3 39 35 64
3 64 35 62
3 42 65 38
3 65 63 38
3 66 43 39
3 64 66 39
3 44 66 67
3 43 66 44
3 68 49 48
3 69 49 68
3 49 69 65
3 42 49 65
3 70 50 44
3 67 70 44
3 50 70 51
3 51 70 71
3 51 71 52
3 52 71 72
3 52 72 68
3 48 52 68
3 73 53 54
3 74 73 54
3 54 55 74
3 55 75 74
3 55 56 75
3 56 76 75
3 57 77 76
3 56 57 76
3 78 58 59
3 79 78 59
3 59 73 79
3 53 73 59
3 80 57 60
3 77 57 80
3 61 81 80
3 60 61 80
3 62 58 82
3 82 58 78
3 63 83 61
3 83 81 61
3 64 62 84
3 84 62 82
3 65 85 63
3 85 83 63
3 86 66 64
3 84 86 64
3 67 86 87
3 66 86 67
3 88 69 68
3 89 69 88
3 69 89 85
3 65 69 85
3 90 70 67
3 87 90 67
3 70 90 71
3 71 90 91
3 71 91 72
3 72 91 92
3 72 92 88
3 68 72 88
3 73 74 93
3 74 75 94
3 93 74 94
3 75 76 95
3 94 75 95
3 76 77 95
3 78 79 96
3 97 93 98
3 96 93 97
3 96 73 93
3 96 79 73
3 94 98 93
3 99 98 94
3 95 99 94
3 100 99 95
3 100 101 102
3 95 101 100
3 95 80 101
3 95 77 80
3 80 81 101
3 82 78 96
3 103 82 96
3 96 104 103
3 97 104 96
3 102 105 106
3 101 105 102
3 105 101 81
3 83 105 81
3 84 82 103
3 107 84 103
3 103 108 107
3 104 108 103
3 106 109 110
3 105 109 106
3 109 105 83
3 85 109 83
3 86 84 107
3 107 108 111
3 86 107 111
3 86 111 112
3 86 112 87
3 112 113 114
3 111 113 112
3 114 115 116
3 113 115 114
3 89 110 109
3 88 110 89
3 88 115 110
3 88 116 115
3 89 109 85
3 90 87 112
3 91 90 112
3 114 91 112
3 92 91 114
3 116 92 114
3 92 116 88
3 97 98 117
3 98 99 118
3 117 98 118
3 99 100 119
3 118 99 119
3 100 102 119
3 104 97 117
3 120 104 117
3 120 117 121
3 117 118 121
3 121 118 122
3 118 119 122
3 122 119 102
3 106 122 102
3 108 104 120
3 123 108 120
3 123 120 124
3 120 121 124
3 124 121 125
3 121 122 125
3 125 122 106
3 110 125 106
3 111 108 123
3 113 111 123
3 124 113 123
3 115 113 124
3 125 115 124
3 115 125 110
