ply
format ascii 1.0
comment VCGLIB generated
element vertex 126
property float x
property float y
property float z
element face 248
property list uchar int vertex_indices
end_header
-0.163270771503448486 0.248910799622535706 -0.523974239826202393
-0.14549081027507782 0.122919932007789612 -0.510599374771118164
-0.254709064960479736 0.138828635215759277 -0.471143066883087158
-0.192910969257354736 -0.0837496370077133179 -0.362337499856948853
-0.282658666372299194 -0.10327620804309845 -0.451231420040130615
-0.185376942157745361 -0.356254667043685913 -0.419972598552703857
-0.288609594106674194 -0.327590763568878174 -0.407676905393600464
-0.158089727163314819 -0.290534615516662598 -0.324197471141815186
0.047763478010892868 0.25258222222328186 -0.341589868068695068
0.0336907133460044861 0.135287046432495117 -0.341620862483978271
0.037864338606595993 -0.112980775535106659 -0.306845784187316895
0.0561540760099887848 -0.320231616497039795 -0.402863889932632446
0.0554778352379798889 -0.432781308889389038 -0.373630285263061523
0.287088900804519653 0.282327175140380859 -0.380247294902801514
0.285261332988739014 0.175049871206283569 -0.328677356243133545
0.306588947772979736 -0.073688022792339325 -0.290817767381668091
0.317277044057846069 -0.30742955207824707 -0.348277956247329712
0.288765639066696167 -0.425439715385437012 -0.339680135250091553
0.371019184589385986 0.167245879769325256 -0.397664636373519897
0.340276181697845459 -0.076691456139087677 -0.397886365652084351
0.332088470458984375 -0.280065834522247314 -0.257628828287124634
-0.318997114896774292 0.298570692539215088 -0.220670044422149658
-0.36661839485168457 0.199159532785415649 -0.34284546971321106
-0.325015664100646973 0.171953573822975159 -0.237025335431098938
-0.430450439453125 -0.050078120082616806 -0.33069261908531189
-0.446862310171127319 -0.0311404764652252197 -0.211673647165298462
-0.353369265794754028 -0.274443536996841431 -0.268098205327987671
-0.392979711294174194 -0.267777144908905029 -0.180035069584846497
-0.409440129995346069 -0.383535146713256836 -0.180507570505142212
-0.136189892888069153 0.261805236339569092 -0.216867491602897644
-0.121003925800323486 0.268995851278305054 -0.319690048694610596
-0.202896803617477417 0.162414520978927612 -0.239567756652832031
-0.272528916597366333 -0.528465211391448975 -0.13503853976726532
-0.209929719567298889 -0.402057111263275146 -0.16993066668510437
-0.184170112013816833 -0.50017780065536499 -0.123679198324680328
0.0165679231286048889 0.465931981801986694 -0.227139204740524292
0.021516626700758934 0.435003161430358887 -0.324164092540740967
0.00821720436215400696 -0.473951041698455811 -0.19139397144317627
0.0245805215090513229 -0.413664132356643677 -0.0761821046471595764
0.211398378014564514 0.343687891960144043 -0.233566328883171082
0.280586570501327515 0.440541833639144897 -0.306161969900131226
0.252196580171585083 -0.477507203817367554 -0.142421722412109375
0.2340594083070755 -0.394620656967163086 -0.0446068160235881805
0.284845173358917236 0.344195723533630371 -0.180168792605400085
0.351853787899017334 0.16414603590965271 -0.185298055410385132
0.489621579647064209 0.142549872398376465 -0.251244395971298218
0.401795119047164917 -0.0779884085059165955 -0.214593842625617981
0.525178015232086182 -0.275499880313873291 -0.233370378613471985
0.506652474403381348 -0.343751370906829834 -0.0973268002271652222
0.304792582988739014 -0.365816622972488403 -0.108834177255630493
0.446274489164352417 0.172153234481811523 -0.129351183772087097
0.348276644945144653 -0.0615144297480583191 -0.120038986206054688
0.443959653377532959 -0.272262066602706909 -0.136727631092071533
-0.436434298753738403 0.249097645282745361 -0.0317517183721065521
-0.332008689641952515 0.216708451509475708 0.0270056724548339844
-0.336048811674118042 -0.00673991488292813301 0.0338972695171833038
-0.354799777269363403 -0.252986758947372437 0.051213826984167099
-0.426880210638046265 -0.338407367467880249 0.0578691735863685608
-0.128101006150245667 0.241306394338607788 0.0304980706423521042
-0.240320727229118347 0.234142020344734192 0.00135768542531877756
-0.29590606689453125 -0.44921642541885376 0.130091354250907898
-0.228365108370780945 -0.371993720531463623 0.116652354598045349
0.0208594575524330139 0.432964980602264404 0.0184195693582296371
0.0101314885541796684 -0.43124505877494812 0.160824388265609741
0.258019179105758667 0.389145702123641968 0.0299080926924943924
0.247858211398124695 -0.324834972620010376 0.163272067904472351
0.329714685678482056 0.46747976541519165 -0.00954541284590959549
0.382693886756896973 0.292943209409713745 0.0331911183893680573
0.438863575458526611 -0.285017997026443481 0.127627193927764893
0.305522561073303223 -0.433140069246292114 0.140041440725326538
0.298971682786941528 0.224291369318962097 0.0576192662119865417
0.343333154916763306 -0.0154936211183667183 0.0890920385718345642
0.491050362586975098 -0.213998883962631226 0.113602980971336365
-0.483719199895858765 0.347229629755020142 0.182420119643211365
-0.514644265174865723 0.250487297773361206 0.190372899174690247
-0.448093414306640625 0.0252627618610858917 0.235940530896186829
-0.315823972225189209 -0.175126418471336365 0.279366970062255859
-0.351983845233917236 -0.275979995727539062 0.262549340724945068
-0.193344458937644958 0.398188501596450806 0.206939086318016052
-0.297246396541595459 0.373614996671676636 0.193275317549705505
-0.340987116098403931 -0.478017866611480713 0.337911725044250488
-0.2368059903383255 -0.420290857553482056 0.356530040502548218
0.0220593530684709549 0.465135842561721802 0.239370077848434448
-0.0258913896977901459 -0.345249325037002563 0.414377331733703613
0.220147907733917236 0.509270966053009033 0.300397217273712158
0.22567574679851532 -0.305404067039489746 0.395238161087036133
0.25848039984703064 0.54714733362197876 0.224037602543830872
0.268180161714553833 0.349699079990386963 0.216955915093421936
0.460218936204910278 -0.255290210247039795 0.370716392993927002
0.294489413499832153 -0.379454731941223145 0.383704990148544312
0.328577220439910889 0.285948276519775391 0.305273950099945068
0.421688765287399292 0.0509187690913677216 0.299483627080917358
0.385934650897979736 -0.202833369374275208 0.327049374580383301
-0.46581268310546875 0.237346172332763672 0.280118405818939209
-0.355370253324508667 0.0291024781763553619 0.277799248695373535
-0.433878451585769653 -0.196289107203483582 0.359932929277420044
-0.253970414400100708 0.497275799512863159 0.262528747320175171
-0.280068129301071167 0.408114582300186157 0.424324601888656616
-0.370831906795501709 0.295464664697647095 0.456848561763763428
-0.368028104305267334 0.0740205422043800354 0.498206615447998047
-0.249439582228660583 -0.142813414335250854 0.401646852493286133
-0.262903720140457153 -0.449545472860336304 0.470738828182220459
-0.285739898681640625 -0.263033002614974976 0.438262969255447388
-0.031849253922700882 0.475858122110366821 0.315281897783279419
-0.0260613169521093369 0.390514731407165527 0.494426816701889038
-0.0155951753258705139 -0.436767071485519409 0.489597529172897339
-0.036907196044921875 -0.241225764155387878 0.461418181657791138
0.141589418053627014 0.592116296291351318 0.342310994863510132
0.255667954683303833 0.372962921857833862 0.432049989700317383
0.220073342323303223 -0.394247293472290039 0.482684046030044556
0.155481860041618347 -0.21111789345741272 0.552685022354125977
0.223513513803482056 0.30802491307258606 0.39614027738571167
0.214028790593147278 0.243320807814598083 0.245036199688911438
0.231522634625434875 0.126474395394325256 0.523820996284484863
0.358600616455078125 0.0764729306101799011 0.357820332050323486
0.274304479360580444 -0.110690899193286896 0.577569425106048584
0.340406239032745361 -0.15868338942527771 0.411676496267318726
-0.278602927923202515 0.303742706775665283 0.490288287401199341
-0.235191687941551208 0.0911081358790397644 0.539914250373840332
-0.291163712739944458 -0.167397677898406982 0.503313124179840088
-0.0149588147178292274 0.269603520631790161 0.559755682945251465
0.00666358228772878647 0.129108607769012451 0.400438070297241211
-0.0424072965979576111 -0.12756626307964325 0.412796199321746826
0.15365426242351532 0.379501432180404663 0.496996074914932251
0.303169578313827515 0.151491433382034302 0.414272874593734741
0.209184125065803528 -0.0696834027767181396 0.496153593063354492
3 0 1 2
3 1 3 4
3 2 1 4
3 3 5 6
3 4 3 6
3 5 7 6
3 0 8 9
3 1 0 9
3 9 10 1
3 1 10 3
3 10 11 3
3 3 11 5
3 5 11 12
3 7 5 12
3 8 13 14
3 9 8 14
3 14 15 9
3 9 15 10
3 15 16 10
3 10 16 11
3 11 16 17
3 12 11 17
3 14 13 18
3 15 14 18
3 19 15 18
3 16 15 19
3 20 16 19
3 16 20 17
3 21 22 23
3 22 24 25
3 23 22 25
3 24 26 27
3 25 24 27
3 26 28 27
3 29 30 31
3 2 22 21
3 0 2 21
3 0 21 31
3 0 31 30
3 4 22 2
3 24 22 4
3 6 24 4
3 26 24 6
3 26 32 28
3 6 32 26
3 6 33 32
3 6 7 33
3 33 34 32
3 29 35 36
3 30 29 36
3 36 0 30
3 8 0 36
3 12 33 7
3 37 33 12
3 33 37 38
3 34 33 38
3 35 39 40
3 36 35 40
3 40 8 36
3 13 8 40
3 17 37 12
3 41 37 17
3 37 41 42
3 38 37 42
3 40 39 43
3 43 44 45
3 40 43 45
3 40 45 18
3 40 18 13
3 18 46 19
3 45 46 18
3 19 47 20
3 46 47 19
3 48 49 41
3 47 48 41
3 47 41 17
3 47 17 20
3 41 49 42
3 45 44 50
3 46 45 50
3 51 46 50
3 47 46 51
3 52 47 51
3 47 52 48
3 53 21 23
3 54 53 23
3 23 25 54
3 25 55 54
3 25 27 55
3 27 56 55
3 28 57 56
3 27 28 56
3 58 29 31
3 59 58 31
3 31 53 59
3 21 53 31
3 60 28 32
3 57 28 60
3 34 61 60
3 32 34 60
3 35 29 62
3 62 29 58
3 38 63 34
3 63 61 34
3 39 35 64
3 64 35 62
3 42 65 38
3 65 63 38
3 66 43 39
3 64 66 39
3 44 66 67
3 43 66 44
3 68 49 48
3 69 49 68
3 49 69 65
3 42 49 65
3 70 50 44
3 67 70 44
3 50 70 51
3 51 70 71
3 51 71 52
3 52 71 72
3 52 72 68
3 48 52 68
3 73 53 54
3 74 73 54
3 54 55 74
3 55 75 74
3 55 56 75
3 56 76 75
3 57 77 76
3 56 57 76
3 78 58 59
3 79 78 59
3 59 73 79
3 53 73 59
3 80 57 60
3 77 57 80
3 61 81 80
3 60 61 80
3 62 58 82
3 82 58 78
3 63 83 61
3 83 81 61
3 64 62 84
3 84 62 82
3 65 85 63
3 85 83 63
3 86 66 64
3 84 86 64
3 67 86 87
3 66 86 67
3 88 69 68
3 89 69 88
3 69 89 85
3 65 69 85
3 90 70 67
3 87 90 67
3 70 90 71
3 71 90 91
3 71 91 72
3 72 91 92
3 72 92 88
3 68 72 88
3 73 74 93
3 74 75 94
3 93 74 94
3 75 76 95
3 94 75 95
3 76 77 95
3 78 79 96
3 97 93 98
3 96 93 97
3 96 73 93
3 96 79 73
3 94 98 93
3 99 98 94
3 95 99 94
3 100 99 95
3 100 101 102
3 95 101 100
3 95 80 101
3 95 77 80
3 80 81 101
3 82 78 96
3 103 82 96
3 96 104 103
3 97 104 96
3 102 105 106
3 101 105 102
3 105 101 81
3 83 105 81
3 84 82 103
3 107 84 103
3 103 108 107
3 104 108 103
3 106 109 110
3 105 109 106
3 109 105 83
3 85 109 83
3 86 84 107
3 107 108 111
3 86 107 111
3 86 111 112
3 86 112 87
3 112 113 114
3 111 113 112
3 114 115 116
3 113 115 114
3 89 110 109
3 88 110 89
3 88 115 110
3 88 116 115
3 89 109 85
3 90 87 112
3 91 90 112
3 114 91 112
3 92 91 114
3 116 92 114
3 92 116 88
3 97 98 117
3 98 99 118
3 117 98 118
3 99 100 119
3 118 99 119
3 100 102 119
3 104 97 117
3 120 104 117
3 120 117 121
3 117 118 121
3 121 118 122
3 118 119 122
3 122 119 102
3 106 122 102
3 108 104 120
3 123 108 120
3 123 120 124
3 120 121 124
3 124 121 125
3 121 122 125
3 125 122 106
3 110 125 106
3 111 108 123
3 113 111 123
3 124 113 123
3 115 113 124
3 125 115 124
3 115 125 110
