ply
format ascii 1.0
comment VCGLIB generated
element vertex 126
property float x
property float y
property float z
element face 248
property list uchar int vertex_indices
end_header
-0.280260711908340454 0.290937811136245728 -0.58027726411819458
-0.212015792727470398 0.232292607426643372 -0.533709704875946045
-0.262093871831893921 0.248726800084114075 -0.43527635931968689
-0.190022781491279602 0.016285458579659462 -0.43945583701133728
-0.263617187738418579 0.0336587764322757721 -0.378119140863418579
-0.208871200680732727 -0.219573080539703369 -0.439757674932479858
-0.303555816411972046 -0.198439225554466248 -0.384118884801864624
-0.1683197021484375 -0.193363294005393982 -0.330633789300918579
-0.0536130256950855255 0.264215558767318726 -0.549944698810577393
-0.0284411106258630753 0.196433529257774353 -0.48338589072227478
0.011196136474609375 -0.0112751452252268791 -0.471070766448974609
0.0140444440767168999 -0.224767878651618958 -0.458160877227783203
0.0311266575008630753 -0.286543548107147217 -0.359749943017959595
0.155740097165107727 0.286914288997650146 -0.451703399419784546
0.177792862057685852 0.190810203552246094 -0.472848892211914062
0.21825408935546875 -0.0327900983393192291 -0.446653366088867188
0.204728439450263977 -0.277214586734771729 -0.391210228204727173
0.1717529296875 -0.408638596534729004 -0.365009158849716187
0.254116058349609375 0.19192950427532196 -0.423783779144287109
0.328524261713027954 -0.0534428544342517853 -0.40816226601600647
0.294461578130722046 -0.314702242612838745 -0.362661361694335938
-0.4468536376953125 0.418366283178329468 -0.331318050622940063
-0.393990844488143921 0.291051983833312988 -0.328970283269882202
-0.480328887701034546 0.319501250982284546 -0.27325710654258728
-0.417779296636581421 0.0634638145565986633 -0.290520340204238892
-0.448335021734237671 0.097424037754535675 -0.189883708953857422
-0.405597686767578125 -0.161517396569252014 -0.225428581237792969
-0.369547516107559204 -0.11744912713766098 -0.135659694671630859
-0.364536285400390625 -0.224766448140144348 -0.111250557005405426
-0.256591796875 0.570355832576751709 -0.535234749317169189
-0.321992248296737671 0.491782516241073608 -0.627726376056671143
-0.314179748296737671 0.507294118404388428 -0.457042694091796875
-0.187474563717842102 -0.243812263011932373 -0.0736056938767433167
-0.154027298092842102 -0.156260520219802856 -0.162658214569091797
-0.114523567259311676 -0.165522187948226929 -0.0591799430549144745
-0.082714080810546875 0.513731837272644043 -0.429517269134521484
-0.0598513297736644745 0.448204666376113892 -0.537735939025878906
-0.067256927490234375 -0.346756547689437866 -0.220905780792236328
-0.00959523487836122513 -0.351453393697738647 -0.0765493735671043396
0.103190101683139801 0.481500715017318726 -0.322071701288223267
0.118371330201625824 0.431614309549331665 -0.393471717834472656
0.176127120852470398 -0.445121854543685913 -0.183464363217353821
0.18979644775390625 -0.411925643682479858 -0.083134971559047699
0.190424606204032898 0.426152825355529785 -0.276041507720947266
0.333764404058456421 0.306304275989532471 -0.203932121396064758
0.321591705083847046 0.203606307506561279 -0.286684364080429077
0.372816711664199829 -0.0249511618167161942 -0.245793178677558899
0.396161407232284546 -0.27243196964263916 -0.221897438168525696
0.410419464111328125 -0.340210527181625366 -0.0959086418151855469
0.295163482427597046 -0.462793618440628052 -0.0708584785461425781
0.33713531494140625 0.196909233927726746 -0.175934150815010071
0.430479675531387329 -0.0149267381057143211 -0.147132232785224915
0.46300506591796875 -0.236530318856239319 -0.108500637114048004
-0.336650848388671875 0.473620295524597168 -0.149114921689033508
-0.34297943115234375 0.372107148170471191 -0.0932227745652198792
-0.344884246587753296 0.159029364585876465 0.000602404295932501554
-0.355623871088027954 -0.0604391433298587799 0.0754412040114402771
-0.409966796636581421 -0.162196546792984009 0.100156627595424652
-0.256910949945449829 0.643808364868164062 -0.287799835205078125
-0.342768341302871704 0.646432101726531982 -0.196091338992118835
-0.24652099609375 -0.187702938914299011 0.140721157193183899
-0.249356582760810852 -0.249727144837379456 0.0983087196946144104
-0.10880279541015625 0.492909550666809082 -0.232027530670166016
-0.03610992431640625 -0.417519241571426392 0.139295890927314758
0.074113212525844574 0.535161018371582031 -0.141998454928398132
0.19136810302734375 -0.419107049703598022 0.158962413668632507
0.18398284912109375 0.49976697564125061 -0.0873675346374511719
0.274333953857421875 0.314997702836990356 -0.00490570068359375
0.415437072515487671 -0.291647523641586304 0.126905441284179688
0.242229461669921875 -0.341755867004394531 0.115569591522216797
0.342919677495956421 0.223057761788368225 0.045513790100812912
0.314945220947265625 -0.00385774089954793453 0.0462416000664234161
0.341763824224472046 -0.22302950918674469 0.0793358460068702698
-0.413309723138809204 0.534729421138763428 0.0751463547348976135
-0.415233612060546875 0.431347936391830444 0.119538627564907074
-0.427476257085800171 0.216019272804260254 0.20573250949382782
-0.462605804204940796 0.00443293200805783272 0.267797797918319702
-0.392655700445175171 -0.0759266316890716553 0.303789466619491577
-0.209728240966796875 0.467621684074401855 -0.0980337485671043396
-0.279083251953125 0.496716886758804321 -0.0268077850341796875
-0.252332061529159546 -0.172531664371490479 0.343918651342391968
-0.279646545648574829 -0.278363287448883057 0.331527858972549438
-0.029766082763671875 0.544845938682556152 -0.0489528961479663849
-0.01253509521484375 -0.351267427206039429 0.370538234710693359
0.163557693362236023 0.557159602642059326 0.0263334903866052628
0.168664291501045227 -0.307815283536911011 0.353669792413711548
0.118839263916015625 0.488659948110580444 0.121424831449985504
0.21100616455078125 0.353787094354629517 0.210018157958984375
0.387709289789199829 -0.196389004588127136 0.315618187189102173
0.274342864751815796 -0.345350831747055054 0.327398926019668579
0.216388702392578125 0.2415580153465271 0.225679874420166016
0.237318679690361023 0.0274844709783792496 0.254712730646133423
0.2746124267578125 -0.187496498227119446 0.288893073797225952
-0.385718017816543579 0.462178081274032593 0.219302341341972351
-0.432951599359512329 0.246374353766441345 0.308832168579101562
-0.457530975341796875 0.0148297920823097229 0.375316619873046875
-0.21121978759765625 0.369172424077987671 -0.0146802263334393501
-0.141024276614189148 0.36548912525177002 0.152476787567138672
-0.211498260498046875 0.402401894330978394 0.274635791778564453
-0.269635528326034546 0.214891567826271057 0.395126193761825562
-0.317173004150390625 0.0109447231516242027 0.488346487283706665
-0.277074187994003296 -0.259402275085449219 0.437688499689102173
-0.233495071530342102 -0.0991128683090209961 0.511244773864746094
0.002674102783203125 0.42492249608039856 0.0227595958858728409
0.0300114955753087997 0.237857520580291748 0.0794593468308448792
-0.010883331298828125 -0.244680643081665039 0.439075618982315063
0.0195795688778162003 -0.0209669638425111771 0.397847801446914673
0.2272796630859375 0.466168642044067383 0.0703797340393066406
0.215375259518623352 0.322839170694351196 0.178691074252128601
0.248574569821357727 -0.16459377110004425 0.295501857995986938
0.1956939697265625 -0.176699221134185791 0.539265334606170654
0.299872070550918579 0.229604959487915039 0.213646247982978821
0.160238906741142273 0.26997414231300354 0.311255127191543579
0.327031463384628296 0.038827996701002121 0.354555755853652954
0.151462554931640625 0.0384601466357707977 0.318864494562149048
0.280687958002090454 -0.0768706053495407104 0.544103562831878662
0.273523956537246704 -0.136629685759544373 0.378625541925430298
-0.140445709228515625 0.328265756368637085 0.245474338531494141
-0.162043258547782898 0.198821738362312317 0.420325756072998047
-0.216223403811454773 0.00591092929244041443 0.528098583221435547
0.00110880529973655939 0.187794744968414307 0.17509634792804718
0.0410715751349925995 0.111489765346050262 0.379557132720947266
0.00376256299205124378 -0.0387015379965305328 0.534179866313934326
0.201418563723564148 0.227685138583183289 0.244468048214912415
0.227447509765625 0.011235465295612812 0.320781558752059937
0.19988250732421875 -0.149740293622016907 0.479114294052124023
3 0 1 2
3 1 3 4
3 2 1 4
3 3 5 6
3 4 3 6
3 5 7 6
3 0 8 9
3 1 0 9
3 9 10 1
3 1 10 3
3 10 11 3
3 3 11 5
3 5 11 12
3 7 5 12
3 8 13 14
3 9 8 14
3 14 15 9
3 9 15 10
3 15 16 10
3 10 16 11
3 11 16 17
3 12 11 17
3 14 13 18
3 15 14 18
3 19 15 18
3 16 15 19
3 20 16 19
3 16 20 17
3 21 22 23
3 22 24 25
3 23 22 25
3 24 26 27
3 25 24 27
3 26 28 27
3 29 30 31
3 2 22 21
3 0 2 21
3 0 21 31
3 0 31 30
3 4 22 2
3 24 22 4
3 6 24 4
3 26 24 6
3 26 32 28
3 6 32 26
3 6 33 32
3 6 7 33
3 33 34 32
3 29 35 36
3 30 29 36
3 36 0 30
3 8 0 36
3 12 33 7
3 37 33 12
3 33 37 38
3 34 33 38
3 35 39 40
3 36 35 40
3 40 8 36
3 13 8 40
3 17 37 12
3 41 37 17
3 37 41 42
3 38 37 42
3 40 39 43
3 43 44 45
3 40 43 45
3 40 45 18
3 40 18 13
3 18 46 19
3 45 46 18
3 19 47 20
3 46 47 19
3 48 49 41
3 47 48 41
3 47 41 17
3 47 17 20
3 41 49 42
3 45 44 50
3 46 45 50
3 51 46 50
3 47 46 51
3 52 47 51
3 47 52 48
3 53 21 23
3 54 53 23
3 23 25 54
3 25 55 54
3 25 27 55
3 27 56 55
3 28 57 56
3 27 28 56
3 58 29 31
3 59 58 31
3 31 53 59
3 21 53 31
3 60 28 32
3 57 28 60
3 34 61 60
3 32 34 60
3 35 29 62
3 62 29 58
3 38 63 34
3 63 61 34
3 39 35 64
3 64 35 62
3 42 65 38
3 65 63 38
3 66 43 39
3 64 66 39
3 44 66 67
3 43 66 44
3 68 49 48
3 69 49 68
3 49 69 65
3 42 49 65
3 70 50 44
3 67 70 44
3 50 70 51
3 51 70 71
3 51 71 52
3 52 71 72
3 52 72 68
3 48 52 68
3 73 53 54
3 74 73 54
3 54 55 74
3 55 75 74
3 55 56 75
3 56 76 75
3 57 77 76
3 56 57 76
3 78 58 59
3 79 78 59
3 59 73 79
3 53 73 59
3 80 57 60
3 77 57 80
3 61 81 80
3 60 61 80
3 62 58 82
3 82 58 78
3 63 83 61
3 83 81 61
3 64 62 84
3 84 62 82
3 65 85 63
3 85 83 63
3 86 66 64
3 84 86 64
3 67 86 87
3 66 86 67
3 88 69 68
3 89 69 88
3 69 89 85
3 65 69 85
3 90 70 67
3 87 90 67
3 70 90 71
3 71 90 91
3 71 91 72
3 72 91 92
3 72 92 88
3 68 72 88
3 73 74 93
3 74 75 94
3 93 74 94
3 75 76 95
3 94 75 95
3 76 77 95
3 78 79 96
3 97 93 98
3 96 93 97
3 96 73 93
3 96 79 73
3 94 98 93
3 99 98 94
3 95 99 94
3 100 99 95
3 100 101 102
3 95 101 100
3 95 80 101
3 95 77 80
3 80 81 101
3 82 78 96
3 103 82 96
3 96 104 103
3 97 104 96
3 102 105 106
3 101 105 102
3 105 101 81
3 83 105 81
3 84 82 103
3 107 84 103
3 103 108 107
3 104 108 103
3 106 109 110
3 105 109 106
3 109 105 83
3 85 109 83
3 86 84 107
3 107 108 111
3 86 107 111
3 86 111 112
3 86 112 87
3 112 113 114
3 111 113 112
3 114 115 116
3 113 115 114
3 89 110 109
3 88 110 89
3 88 115 110
3 88 116 115
3 89 109 85
3 90 87 112
3 91 90 112
3 114 91 112
3 92 91 114
3 116 92 114
3 92 116 88
3 97 98 117
3 98 99 118
3 117 98 118
3 99 100 119
3 118 99 119
3 100 102 119
3 104 97 117
3 120 104 117
3 120 117 121
3 117 118 121
3 121 118 122
3 118 119 122
3 122 119 102
3 106 122 102
3 108 104 120
3 123 108 120
3 123 120 124
3 120 121 124
3 124 121 125
3 121 122 125
3 125 122 106
3 110 125 106
3 111 108 123
3 113 111 123
3 124 113 123
3 115 113 124
3 125 115 124
3 115 125 110
