ply
format ascii 1.0
comment VCGLIB generated
element vertex 126
property float x
property float y
property float z
element face 248
property list uchar int vertex_indices
end_header
-0.168907985091209412 0.32200583815574646 -0.399086982011795044
-0.162368506193161011 0.238302037119865417 -0.472031682729721069
-0.254501610994338989 0.218056976795196533 -0.413465499877929688
-0.151079729199409485 0.019899880513548851 -0.510348618030548096
-0.215651646256446838 -0.000793261278886348009 -0.428858488798141479
-0.0771032050251960754 -0.0884289294481277466 -0.329334735870361328
-0.0406973697245121002 0.00556700816377997398 -0.286617785692214966
-0.0112383710220456123 -0.124584488570690155 -0.247826233506202698
-0.0310611724853515625 0.20922832190990448 -0.262596964836120605
-0.00829015485942363739 0.137184068560600281 -0.347871094942092896
0.0740964114665985107 0.0307611282914876938 -0.533613801002502441
0.0797517001628875732 -0.185312986373901367 -0.460006356239318848
0.0747394561767578125 -0.272729665040969849 -0.392027944326400757
0.142564773559570312 0.335418343544006348 -0.326570779085159302
0.180732190608978271 0.251520425081253052 -0.388026416301727295
0.281662255525588989 0.0581600852310657501 -0.440094143152236938
0.262914389371871948 -0.143169119954109192 -0.342890888452529907
0.293824344873428345 -0.249249443411827087 -0.346690773963928223
0.271547853946685791 0.287835985422134399 -0.338017106056213379
0.361923485994338989 0.0836462229490280151 -0.363881766796112061
0.372819900512695312 -0.137715980410575867 -0.331145197153091431
-0.409107208251953125 0.284115523099899292 -0.194562003016471863
-0.381407052278518677 0.194538459181785583 -0.291860789060592651
-0.356790006160736084 0.186876296997070312 -0.187131166458129883
-0.327251970767974854 -0.0248168259859085083 -0.298998713493347168
-0.376010626554489136 -0.0383153818547725677 -0.194992005825042725
-0.154160097241401672 -0.0354521721601486206 -0.151774883270263672
-0.176262170076370239 -0.133102491497993469 -0.121138609945774078
-0.0768756866455078125 -0.128147333860397339 -0.0716299712657928467
-0.235787808895111084 0.507934749126434326 -0.190783575177192688
-0.201862886548042297 0.442162811756134033 -0.27146679162979126
-0.319445490837097168 0.437109947204589844 -0.198150873184204102
-0.0294562745839357376 -0.280260980129241943 -0.149897515773773193
-0.146308630704879761 -0.234380662441253662 -0.206382274627685547
-0.0986875817179679871 -0.332572489976882935 -0.220587596297264099
-0.0927639007568359375 0.406739801168441772 -0.0514449402689933777
-0.0690746307373046875 0.329480737447738647 -0.130482062697410583
0.0486918874084949493 -0.337408274412155151 -0.227951839566230774
0.102112635970115662 -0.23961193859577179 -0.241863220930099487
0.0921971499919891357 0.51892697811126709 -0.108154840767383575
0.101406916975975037 0.456907153129577637 -0.200697019696235657
0.2695465087890625 -0.355594098567962646 -0.203631266951560974
0.263377606868743896 -0.308645486831665039 -0.103085897862911224
0.198529109358787537 0.492976456880569458 -0.110319681465625763
0.271998822689056396 0.327730387449264526 -0.122088365256786346
0.385957449674606323 0.317025840282440186 -0.201136559247970581
0.440983086824417114 0.101995073258876801 -0.202962681651115417
0.471210479736328125 -0.114820785820484161 -0.183188408613204956
0.451570242643356323 -0.196784421801567078 -0.0729608535766601562
0.298828393220901489 -0.224214181303977966 -0.164333239197731018
0.376119613647460938 0.314539879560470581 -0.0897565931081771851
0.344366341829299927 0.0998264998197555542 -0.14788934588432312
0.444319605827331543 -0.0873077735304832458 -0.0793441683053970337
-0.434762418270111084 0.290278881788253784 0.0238260198384523392
-0.443601608276367188 0.170684143900871277 0.015701906755566597
-0.434680670499801636 -0.0461792275309562683 0.0169554781168699265
-0.287065505981445312 -0.203740447759628296 0.0372002795338630676
-0.224579408764839172 -0.294498860836029053 -0.0179404877126216888
-0.301333844661712646 0.557367265224456787 0.0191661287099123001
-0.352408558130264282 0.455615878105163574 0.0244995523244142532
-0.0975254625082015991 -0.413545519113540649 0.012559039518237114
-0.0176102779805660248 -0.451135694980621338 -0.0466280318796634674
-0.0831658542156219482 0.599671125411987305 0.0680983066558837891
0.178256720304489136 -0.350312560796737671 -0.0634745210409164429
0.133316859602928162 0.560395598411560059 0.110278129577636719
0.197262093424797058 -0.158695369958877563 0.0517060086131095886
0.20122528076171875 0.474711418151855469 0.112223118543624878
0.204740256071090698 0.29669603705406189 0.090556316077709198
0.334302365779876709 -0.192295148968696594 0.11845078319311142
0.253675997257232666 -0.0752207562327384949 0.00292829098179936409
0.306273877620697021 0.266609013080596924 0.119386740028858185
0.201692581176757812 0.0909493789076805115 0.0272314902395009995
0.279719501733779907 -0.113835178315639496 0.0699138641357421875
-0.417849689722061157 0.281136780977249146 0.242943599820137024
-0.421861916780471802 0.164030835032463074 0.231934443116188049
-0.269748151302337646 0.11304929107427597 0.0608536191284656525
-0.142604291439056396 -0.0640851780772209167 0.0730698481202125549
-0.0919015109539031982 -0.156524449586868286 0.0949093326926231384
-0.262118756771087646 0.52908027172088623 0.245045080780982971
-0.341858178377151489 0.447864294052124023 0.249731883406639099
0.0291374754160642624 -0.293952614068984985 0.13956257700920105
-0.0305257532745599747 -0.26550060510635376 0.0914602652192115784
-0.0786549746990203857 0.407884180545806885 0.179533794522285461
0.184338435530662537 -0.30223238468170166 0.155447721481323242
0.0811100006103515625 0.4826011061668396 0.312513470649719238
0.395322531461715698 -0.226270854473114014 0.134938955307006836
0.186000555753707886 0.450544208288192749 0.332448840141296387
0.282768517732620239 0.303329885005950928 0.300775766372680664
0.517459630966186523 -0.062898784875869751 0.13208577036857605
0.434909552335739136 -0.190709039568901062 0.0378016084432601929
0.228172034025192261 0.210388243198394775 0.324719637632369995
0.360686451196670532 0.178932100534439087 0.153147831559181213
0.439913630485534668 -0.0252140108495950699 0.20293678343296051
-0.342010766267776489 0.178168758749961853 0.271104246377944946
-0.189715802669525146 0.103499479591846466 0.156685799360275269
-0.184522360563278198 -0.101359456777572632 0.0315313674509525299
-0.25544440746307373 0.477284759283065796 0.350610703229904175
-0.1849365234375 0.32436862587928772 0.448611646890640259
-0.280079156160354614 0.216539651155471802 0.429727345705032349
-0.235447213053703308 0.0354686528444290161 0.310325294733047485
-0.0900064185261726379 -0.0366169176995754242 0.149811163544654846
0.0643634796142578125 -0.211319401860237122 0.051775321364402771
-0.0916208550333976746 -0.163588210940361023 0.148503094911575317
-0.122483119368553162 0.339763551950454712 0.257132053375244141
0.0121716093271970749 0.345632225275039673 0.374039411544799805
0.181313931941986084 -0.218899831175804138 0.232300758361816406
0.0968020334839820862 -0.0602025054395198822 0.236651048064231873
0.0843293368816375732 0.384927868843078613 0.272838562726974487
0.128018513321876526 0.214757025241851807 0.237837180495262146
0.352984845638275146 -0.120657749474048615 0.124236345291137695
0.223098486661911011 -0.00736208632588386536 0.0666669458150863647
0.177767619490623474 0.129594385623931885 0.32279542088508606
0.311688005924224854 0.214779660105705261 0.402638912200927734
0.26334083080291748 0.206659674644470215 0.12913823127746582
0.429425925016403198 0.226304531097412109 0.212432488799095154
0.257404863834381104 -0.00291661825031042099 0.204424858093261719
0.410013198852539062 0.0251924935728311539 0.11200394481420517
-0.232655659317970276 0.284543901681900024 0.378499209880828857
-0.171130046248435974 0.103468313813209534 0.262587428092956543
-0.0706999674439430237 -0.114218808710575104 0.243970677256584167
-0.00775882182642817497 0.250910043716430664 0.440413445234298706
0.0300679896026849747 0.186234608292579651 0.23539288341999054
0.0848470404744148254 0.0011923816055059433 0.140891075134277344
0.0734942331910133362 0.120879136025905609 0.277975112199783325
0.238102510571479797 0.249129563570022583 0.230698242783546448
0.293689459562301636 0.0584565475583076477 0.124993667006492615
3 0 1 2
3 1 3 4
3 2 1 4
3 3 5 6
3 4 3 6
3 5 7 6
3 0 8 9
3 1 0 9
3 9 10 1
3 1 10 3
3 10 11 3
3 3 11 5
3 5 11 12
3 7 5 12
3 8 13 14
3 9 8 14
3 14 15 9
3 9 15 10
3 15 16 10
3 10 16 11
3 11 16 17
3 12 11 17
3 14 13 18
3 15 14 18
3 19 15 18
3 16 15 19
3 20 16 19
3 16 20 17
3 21 22 23
3 22 24 25
3 23 22 25
3 24 26 27
3 25 24 27
3 26 28 27
3 29 30 31
3 2 22 21
3 0 2 21
3 0 21 31
3 0 31 30
3 4 22 2
3 24 22 4
3 6 24 4
3 26 24 6
3 26 32 28
3 6 32 26
3 6 33 32
3 6 7 33
3 33 34 32
3 29 35 36
3 30 29 36
3 36 0 30
3 8 0 36
3 12 33 7
3 37 33 12
3 33 37 38
3 34 33 38
3 35 39 40
3 36 35 40
3 40 8 36
3 13 8 40
3 17 37 12
3 41 37 17
3 37 41 42
3 38 37 42
3 40 39 43
3 43 44 45
3 40 43 45
3 40 45 18
3 40 18 13
3 18 46 19
3 45 46 18
3 19 47 20
3 46 47 19
3 48 49 41
3 47 48 41
3 47 41 17
3 47 17 20
3 41 49 42
3 45 44 50
3 46 45 50
3 51 46 50
3 47 46 51
3 52 47 51
3 47 52 48
3 53 21 23
3 54 53 23
3 23 25 54
3 25 55 54
3 25 27 55
3 27 56 55
3 28 57 56
3 27 28 56
3 58 29 31
3 59 58 31
3 31 53 59
3 21 53 31
3 60 28 32
3 57 28 60
3 34 61 60
3 32 34 60
3 35 29 62
3 62 29 58
3 38 63 34
3 63 61 34
3 39 35 64
3 64 35 62
3 42 65 38
3 65 63 38
3 66 43 39
3 64 66 39
3 44 66 67
3 43 66 44
3 68 49 48
3 69 49 68
3 49 69 65
3 42 49 65
3 70 50 44
3 67 70 44
3 50 70 51
3 51 70 71
3 51 71 52
3 52 71 72
3 52 72 68
3 48 52 68
3 73 53 54
3 74 73 54
3 54 55 74
3 55 75 74
3 55 56 75
3 56 76 75
3 57 77 76
3 56 57 76
3 78 58 59
3 79 78 59
3 59 73 79
3 53 73 59
3 80 57 60
3 77 57 80
3 61 81 80
3 60 61 80
3 62 58 82
3 82 58 78
3 63 83 61
3 83 81 61
3 64 62 84
3 84 62 82
3 65 85 63
3 85 83 63
3 86 66 64
3 84 86 64
3 67 86 87
3 66 86 67
3 88 69 68
3 89 69 88
3 69 89 85
3 65 69 85
3 90 70 67
3 87 90 67
3 70 90 71
3 71 90 91
3 71 91 72
3 72 91 92
3 72 92 88
3 68 72 88
3 73 74 93
3 74 75 94
3 93 74 94
3 75 76 95
3 94 75 95
3 76 77 95
3 78 79 96
3 97 93 98
3 96 93 97
3 96 73 93
3 96 79 73
3 94 98 93
3 99 98 94
3 95 99 94
3 100 99 95
3 100 101 102
3 95 101 100
3 95 80 101
3 95 77 80
3 80 81 101
3 82 78 96
3 103 82 96
3 96 104 103
3 97 104 96
3 102 105 106
3 101 105 102
3 105 101 81
3 83 105 81
3 84 82 103
3 107 84 103
3 103 108 107
3 104 108 103
3 106 109 110
3 105 109 106
3 109 105 83
3 85 109 83
3 86 84 107
3 107 108 111
3 86 107 111
3 86 111 112
3 86 112 87
3 112 113 114
3 111 113 112
3 114 115 116
3 113 115 114
3 89 110 109
3 88 110 89
3 88 115 110
3 88 116 115
3 89 109 85
3 90 87 112
3 91 90 112
3 114 91 112
3 92 91 114
3 116 92 114
3 92 116 88
3 97 98 117
3 98 99 118
3 117 98 118
3 99 100 119
3 118 99 119
3 100 102 119
3 104 97 117
3 120 104 117
3 120 117 121
3 117 118 121
3 121 118 122
3 118 119 122
3 122 119 102
3 106 122 102
3 108 104 120
3 123 108 120
3 123 120 124
3 120 121 124
3 124 121 125
3 121 122 125
3 125 122 106
3 110 125 106
3 111 108 123
3 113 111 123
3 124 113 123
3 115 113 124
3 125 115 124
3 115 125 110
