ply
format ascii 1.0
comment VCGLIB generated
element vertex 126
property float x
property float y
property float z
element face 248
property list uchar int vertex_indices
end_header
3.57127261161804199 0.0679014846682548523 -0.549522519111633301
3.64719390869140625 -0.00128957338165491819 -0.512238383293151855
3.5566399097442627 -0.0413685142993927002 -0.466544181108474731
3.72515058517456055 -0.148274138569831848 -0.359232634305953979
3.67434048652648926 -0.0920449420809745789 -0.282963603734970093
3.61310076713562012 -0.309858053922653198 -0.252704411745071411
3.51705193519592285 -0.255347073078155518 -0.274800390005111694
3.53917193412780762 -0.378590434789657593 -0.213590309023857117
3.76908206939697266 0.101290158927440643 -0.447703272104263306
3.71859979629516602 0.137263789772987366 -0.354867845773696899
3.66368365287780762 -0.0110231172293424606 -0.194105669856071472
3.5781097412109375 -0.182578533887863159 -0.0739277452230453491
3.53835177421569824 -0.274919658899307251 -0.0145842805504798889
3.89916682243347168 0.170579239726066589 -0.279966473579406738
3.89620518684387207 0.0692919865250587463 -0.235909759998321533
3.8296959400177002 -0.144126653671264648 -0.258324801921844482
3.76212716102600098 -0.301214158535003662 -0.109684251248836517
3.74358439445495605 -0.361853837966918945 -0.0183237679302692413
3.96938657760620117 0.0561603643000125885 -0.316663861274719238
3.89376187324523926 -0.103700131177902222 -0.181440651416778564
3.8033137321472168 -0.238865748047828674 -0.028608495369553566
3.38853144645690918 0.0817966163158416748 -0.289270222187042236
3.48807764053344727 0.101917266845703125 -0.384100347757339478
3.43824195861816406 0.175740286707878113 -0.318336904048919678
3.56868553161621094 0.0174737945199012756 -0.192631587386131287
3.47141432762145996 0.0388654954731464386 -0.143645897507667542
3.51260256767272949 -0.180769428610801697 -0.109106838703155518
3.41536593437194824 -0.176930457353591919 -0.165280207991600037
3.41750574111938477 -0.27744719386100769 -0.123338915407657623
3.48047780990600586 0.27769017219543457 -0.413120865821838379
3.5235595703125 0.178409427404403687 -0.415541470050811768
3.39019775390625 0.216888472437858582 -0.405520737171173096
3.42781591415405273 -0.431632578372955322 -0.0321063138544559479
3.40442132949829102 -0.482423782348632812 -0.156721845269203186
3.3895716667175293 -0.531245589256286621 -0.048732757568359375
3.6852107048034668 0.359902381896972656 -0.377606898546218872
3.72845554351806641 0.272291809320449829 -0.42740863561630249
3.47455453872680664 -0.440130561590194702 0.0451614633202552795
3.43464422225952148 -0.341935157775878906 0.0568723678588867188
3.88922429084777832 0.387963712215423584 -0.29054531455039978
3.93528842926025391 0.324622869491577148 -0.367946624755859375
3.67028141021728516 -0.396283626556396484 0.142549812793731689
3.64323163032531738 -0.287000328302383423 0.147723719477653503
3.98561978340148926 0.365142226219177246 -0.244588419795036316
4.10217618942260742 0.23986266553401947 -0.19131767749786377
4.05878210067749023 0.109410911798477173 -0.170891061425209045
3.90812420845031738 0.00549018010497093201 -0.0405539162456989288
3.73795771598815918 -0.0975648760795593262 0.0609688311815261841
3.61563420295715332 -0.152874842286109924 0.0309658050537109375
3.56334495544433594 -0.318122953176498413 0.0953843370079994202
4.00074672698974609 0.201699629426002502 -0.163214206695556641
3.83636641502380371 0.0511373244225978851 -0.11319897323846817
3.67530989646911621 -0.0790050923824310303 -0.0262982193380594254
3.25520086288452148 0.200355499982833862 -0.149942308664321899
3.29298543930053711 0.295961052179336548 -0.195694401860237122
3.25512099266052246 0.0915934741497039795 -0.118118844926357269
3.2510063648223877 -0.115790419280529022 -0.0283965189009904861
3.24632453918457031 -0.215176388621330261 0.0149299874901771545
3.5013580322265625 0.283151149749755859 -0.190401941537857056
3.39456892013549805 0.298812657594680786 -0.195999354124069214
3.25484704971313477 -0.375456929206848145 0.0957003459334373474
3.35604572296142578 -0.346503853797912598 0.076490744948387146
3.71628832817077637 0.220847487449645996 -0.203990936279296875
3.43579363822937012 -0.455190360546112061 0.262988895177841187
3.79712176322937012 0.391205549240112305 -0.0846073850989341736
3.5184028148651123 -0.249059200286865234 0.336230456829071045
3.89157557487487793 0.358178794384002686 -0.0419543012976646423
4.00558137893676758 0.227691471576690674 0.00975522119551897049
3.76344490051269531 -0.144309699535369873 0.193139418959617615
3.60495114326477051 -0.199425399303436279 0.285062789916992188
4.08592367172241211 0.164384841918945312 0.0450067073106765747
3.98809242248535156 -0.0369105711579322815 0.0264833178371191025
3.82661819458007812 -0.179238691926002502 0.100198008120059967
3.26600146293640137 0.291985839605331421 0.0575254149734973907
3.26559758186340332 0.388808310031890869 0.00470334803685545921
3.25185775756835938 0.179403260350227356 0.0848299786448478699
3.22953128814697266 -0.0247545279562473297 0.174891084432601929
3.28751468658447266 -0.107004657387733459 0.211669310927391052
3.46950006484985352 0.116283528506755829 -0.044494975358247757
3.38336944580078125 0.175480425357818604 -0.00631679175421595573
3.27782201766967773 -0.264522790908813477 0.297601878643035889
3.35614275932312012 -0.345837801694869995 0.303008109331130981
3.69249153137207031 0.105238348245620728 -0.0147550748661160469
3.55793499946594238 -0.252636045217514038 0.293800175189971924
3.73640227317810059 0.288797169923782349 0.106895402073860168
3.65830850601196289 -0.347804486751556396 0.474870413541793823
3.80324625968933105 0.358891010284423828 0.162657603621482849
3.93700337409973145 0.254608422517776489 0.22403109073638916
3.86410975456237793 -0.281373739242553711 0.321741312742233276
3.72579574584960938 -0.319650501012802124 0.400358319282531738
4.01109838485717773 0.180871948599815369 0.255545467138290405
4.07417821884155273 -0.0339845865964889526 0.235375270247459412
3.96098566055297852 -0.230691641569137573 0.274507135152816772
3.32566332817077637 0.417042672634124756 0.0906668975949287415
3.26427459716796875 0.217420846223831177 0.184900969266891479
3.24924635887145996 0.0114126307889819145 0.274382054805755615
3.47951531410217285 0.212156340479850769 -0.0935630351305007935
3.56875491142272949 0.348556995391845703 -0.0196032077074050903
3.43733358383178711 0.324112087488174438 -0.0188023392111063004
3.43548345565795898 0.191443890333175659 0.158073902130126953
3.42436361312866211 0.0160756278783082962 0.294335752725601196
3.40878748893737793 -0.25457465648651123 0.342854350805282593
3.48712563514709473 -0.0912147536873817444 0.342605531215667725
3.69812345504760742 0.166774392127990723 -0.107453517615795135
3.7158045768737793 0.198138773441314697 0.0623455904424190521
3.60629510879516602 -0.3485068678855896 0.321989059448242188
3.6236572265625 -0.193902686238288879 0.212763652205467224
3.8103034496307373 0.305577784776687622 0.0302687548100948334
3.93876147270202637 0.187604144215583801 0.0480040609836578369
3.70730471611022949 -0.228336989879608154 0.482697039842605591
3.62969136238098145 -0.0555290840566158295 0.35678255558013916
3.92598223686218262 0.0671844854950904846 0.118121661245822906
4.03844976425170898 0.20338420569896698 0.14936511218547821
3.83967828750610352 0.0952118635177612305 0.325851857662200928
3.98373508453369141 0.0158919449895620346 0.266303569078445435
3.70862603187561035 -0.0863545686006546021 0.278209984302520752
3.86725687980651855 -0.171775087714195251 0.256692498922348022
3.5078117847442627 0.329209327697753906 0.0686554461717605591
3.48969364166259766 0.11452135443687439 0.101931959390640259
3.52676892280578613 -0.00689430814236402512 0.286280900239944458
3.71665263175964355 0.291225463151931763 -0.00059604644775390625
3.71191191673278809 0.0866727754473686218 0.0789249986410140991
3.68678855895996094 -0.116118013858795166 0.170360684394836426
3.8466486930847168 0.130379468202590942 0.0782797560095787048
3.75945353507995605 0.16326548159122467 0.28423309326171875
3.73205184936523438 -0.0236269347369670868 0.36745569109916687
3 0 1 2
3 1 3 4
3 2 1 4
3 3 5 6
3 4 3 6
3 5 7 6
3 0 8 9
3 1 0 9
3 9 10 1
3 1 10 3
3 10 11 3
3 3 11 5
3 5 11 12
3 7 5 12
3 8 13 14
3 9 8 14
3 14 15 9
3 9 15 10
3 15 16 10
3 10 16 11
3 11 16 17
3 12 11 17
3 14 13 18
3 15 14 18
3 19 15 18
3 16 15 19
3 20 16 19
3 16 20 17
3 21 22 23
3 22 24 25
3 23 22 25
3 24 26 27
3 25 24 27
3 26 28 27
3 29 30 31
3 2 22 21
3 0 2 21
3 0 21 31
3 0 31 30
3 4 22 2
3 24 22 4
3 6 24 4
3 26 24 6
3 26 32 28
3 6 32 26
3 6 33 32
3 6 7 33
3 33 34 32
3 29 35 36
3 30 29 36
3 36 0 30
3 8 0 36
3 12 33 7
3 37 33 12
3 33 37 38
3 34 33 38
3 35 39 40
3 36 35 40
3 40 8 36
3 13 8 40
3 17 37 12
3 41 37 17
3 37 41 42
3 38 37 42
3 40 39 43
3 43 44 45
3 40 43 45
3 40 45 18
3 40 18 13
3 18 46 19
3 45 46 18
3 19 47 20
3 46 47 19
3 48 49 41
3 47 48 41
3 47 41 17
3 47 17 20
3 41 49 42
3 45 44 50
3 46 45 50
3 51 46 50
3 47 46 51
3 52 47 51
3 47 52 48
3 53 21 23
3 54 53 23
3 23 25 54
3 25 55 54
3 25 27 55
3 27 56 55
3 28 57 56
3 27 28 56
3 58 29 31
3 59 58 31
3 31 53 59
3 21 53 31
3 60 28 32
3 57 28 60
3 34 61 60
3 32 34 60
3 35 29 62
3 62 29 58
3 38 63 34
3 63 61 34
3 39 35 64
3 64 35 62
3 42 65 38
3 65 63 38
3 66 43 39
3 64 66 39
3 44 66 67
3 43 66 44
3 68 49 48
3 69 49 68
3 49 69 65
3 42 49 65
3 70 50 44
3 67 70 44
3 50 70 51
3 51 70 71
3 51 71 52
3 52 71 72
3 52 72 68
3 48 52 68
3 73 53 54
3 74 73 54
3 54 55 74
3 55 75 74
3 55 56 75
3 56 76 75
3 57 77 76
3 56 57 76
3 78 58 59
3 79 78 59
3 59 73 79
3 53 73 59
3 80 57 60
3 77 57 80
3 61 81 80
3 60 61 80
3 62 58 82
3 82 58 78
3 63 83 61
3 83 81 61
3 64 62 84
3 84 62 82
3 65 85 63
3 85 83 63
3 86 66 64
3 84 86 64
3 67 86 87
3 66 86 67
3 88 69 68
3 89 69 88
3 69 89 85
3 65 69 85
3 90 70 67
3 87 90 67
3 70 90 71
3 71 90 91
3 71 91 72
3 72 91 92
3 72 92 88
3 68 72 88
3 73 74 93
3 74 75 94
3 93 74 94
3 75 76 95
3 94 75 95
3 76 77 95
3 78 79 96
3 97 93 98
3 96 93 97
3 96 73 93
3 96 79 73
3 94 98 93
3 99 98 94
3 95 99 94
3 100 99 95
3 100 101 102
3 95 101 100
3 95 80 101
3 95 77 80
3 80 81 101
3 82 78 96
3 103 82 96
3 96 104 103
3 97 104 96
3 102 105 106
3 101 105 102
3 105 101 81
3 83 105 81
3 84 82 103
3 107 84 103
3 103 108 107
3 104 108 103
3 106 109 110
3 105 109 106
3 109 105 83
3 85 109 83
3 86 84 107
3 107 108 111
3 86 107 111
3 86 111 112
3 86 112 87
3 112 113 114
3 111 113 112
3 114 115 116
3 113 115 114
3 89 110 109
3 88 110 89
3 88 115 110
3 88 116 115
3 89 109 85
3 90 87 112
3 91 90 112
3 114 91 112
3 92 91 114
3 116 92 114
3 92 116 88
3 97 98 117
3 98 99 118
3 117 98 118
3 99 100 119
3 118 99 119
3 100 102 119
3 104 97 117
3 120 104 117
3 120 117 121
3 117 118 121
3 121 118 122
3 118 119 122
3 122 119 102
3 106 122 102
3 108 104 120
3 123 108 120
3 123 120 124
3 120 121 124
3 124 121 125
3 121 122 125
3 125 122 106
3 110 125 106
3 111 108 123
3 113 111 123
3 124 113 123
3 115 113 124
3 125 115 124
3 115 125 110
