ply
format ascii 1.0
comment VCGLIB generated
element vertex 126
property float x
property float y
property float z
element face 248
property list uchar int vertex_indices
end_header
-0.116767875850200653 0.222827315330505371 -0.55145716667175293
-0.118079178035259247 0.152911990880966187 -0.464228183031082153
-0.195474609732627869 0.112254850566387177 -0.533257484436035156
-0.142761856317520142 -0.0438065752387046814 -0.355332881212234497
-0.151928260922431946 -0.0933895409107208252 -0.453510463237762451
-0.182083442807197571 -0.253229498863220215 -0.281937509775161743
-0.106972053647041321 -0.28946337103843689 -0.353136241436004639
-0.224095970392227173 -0.351606905460357666 -0.312362909317016602
0.0971968919038772583 0.208091959357261658 -0.491243183612823486
0.0944487228989601135 0.0997523292899131775 -0.496653497219085693
0.0441265106201171875 -0.118750326335430145 -0.458525210618972778
0.00639756489545106888 -0.323725610971450806 -0.378987759351730347
-0.0148820867761969566 -0.427457064390182495 -0.347082197666168213
0.296368598937988281 0.18895973265171051 -0.394130915403366089
0.268877327442169189 0.0891238301992416382 -0.356027066707611084
0.229015335440635681 -0.128699719905853271 -0.329181939363479614
0.222762420773506165 -0.354992151260375977 -0.350269079208374023
0.207947090268135071 -0.450264543294906616 -0.295780092477798462
0.374401390552520752 0.0738513097167015076 -0.379705220460891724
0.333596855401992798 -0.134638369083404541 -0.311877518892288208
0.246198967099189758 -0.33053705096244812 -0.245993927121162415
-0.288484871387481689 0.185395732522010803 -0.285993009805679321
-0.324528992176055908 0.128012284636497498 -0.407594412565231323
-0.382045090198516846 0.12796427309513092 -0.315350085496902466
-0.317152321338653564 -0.096551261842250824 -0.378115355968475342
-0.314485222101211548 -0.082077324390411377 -0.270995080471038818
-0.270593941211700439 -0.288856387138366699 -0.279359996318817139
-0.355744361877441406 -0.290325433015823364 -0.210584193468093872
-0.295424461364746094 -0.371170938014984131 -0.165307909250259399
-0.00838756561279296875 0.159999161958694458 -0.280440449714660645
-0.043528873473405838 0.171436712145805359 -0.387899070978164673
-0.118451111018657684 0.19438190758228302 -0.278923511505126953
-0.160557419061660767 -0.376874417066574097 -0.0525436773896217346
-0.231657013297080994 -0.435997277498245239 -0.156250789761543274
-0.227343231439590454 -0.329977154731750488 -0.134115010499954224
0.0227133426815271378 0.381209820508956909 -0.303479433059692383
0.083675384521484375 0.358313471078872681 -0.393826544284820557
-0.0298229847103357315 -0.352711737155914307 -0.187695220112800598
-0.0115998582914471626 -0.324173092842102051 -0.0848207846283912659
0.16091504693031311 0.212938830256462097 -0.257430464029312134
0.244263008236885071 0.282372921705245972 -0.254115641117095947
0.110530845820903778 -0.538256168365478516 -0.175486400723457336
0.126543045043945312 -0.503016114234924316 -0.0750644952058792114
0.208509758114814758 0.178537458181381226 -0.165676265954971313
0.369135528802871704 0.165970325469970703 -0.233324751257896423
0.458410561084747314 0.0568423755466938019 -0.22116561233997345
0.292150169610977173 -0.0737286359071731567 -0.148983791470527649
0.261729538440704346 -0.282301515340805054 -0.0759412795305252075
0.323093712329864502 -0.400088846683502197 -0.0665261298418045044
0.223317131400108337 -0.546956062316894531 -0.0938550606369972229
0.430920898914337158 0.134526997804641724 -0.147866398096084595
0.395162880420684814 -0.0786128342151641846 -0.105901353061199188
0.371112823486328125 -0.297148019075393677 -0.0612320490181446075
-0.302127182483673096 0.0920092687010765076 -0.0823100358247756958
-0.278209030628204346 0.193542301654815674 -0.124616421759128571
-0.320073753595352173 -0.0165784917771816254 -0.0531466789543628693
-0.38413044810295105 -0.225404664874076843 0.00822027493268251419
-0.410939842462539673 -0.331855207681655884 0.0320853777229785919
-0.029587743803858757 0.176658585667610168 -0.0577374286949634552
-0.130559593439102173 0.124420814216136932 -0.0680937319993972778
-0.258879661560058594 -0.272871255874633789 0.109472267329692841
-0.251849472522735596 -0.375932514667510986 0.0805910378694534302
0.00658353138715028763 0.398266375064849854 -0.0770080089569091797
-0.038611091673374176 -0.453491181135177612 0.0886485949158668518
0.194474846124649048 0.286923259496688843 -0.0470795221626758575
0.195099502801895142 -0.478067219257354736 0.113807909190654755
0.242560699582099915 0.378687918186187744 -0.0759623423218727112
0.355345398187637329 0.250159621238708496 -0.0267269201576709747
0.235969215631484985 -0.377175360918045044 0.140123367309570312
0.286248505115509033 -0.559335649013519287 0.129514336585998535
0.265413910150527954 0.190596625208854675 -0.00524997711181640625
0.235166534781455994 -0.0301795322448015213 0.0429520979523658752
0.228233322501182556 -0.251543641090393066 0.113832347095012665
-0.361509323120117188 0.189332395792007446 0.103729762136936188
-0.407017052173614502 0.273570269346237183 0.0451340265572071075
-0.448031395673751831 0.0588994435966014862 0.116639725863933563
-0.495764404535293579 -0.152887895703315735 0.18707592785358429
-0.459931671619415283 -0.247717544436454773 0.23746548593044281
-0.080362953245639801 0.214250922203063965 0.153322607278823853
-0.188528686761856079 0.191185608506202698 0.137810900807380676
-0.32395520806312561 -0.351550042629241943 0.308462172746658325
-0.234402015805244446 -0.279102414846420288 0.287277281284332275
-0.00861485768109560013 0.425134420394897461 0.147634342312812805
-0.021613437682390213 -0.342482715845108032 0.284184008836746216
0.20054975152015686 0.346815884113311768 0.174181461334228516
0.21638074517250061 -0.330682516098022461 0.243072494864463806
0.211621910333633423 0.433316349983215332 0.152753382921218872
0.343848854303359985 0.321346968412399292 0.180728822946548462
0.42359510064125061 -0.295110553503036499 0.131224989891052246
0.266969978809356689 -0.358524411916732788 0.108811251819133759
0.290023475885391235 0.226955831050872803 0.210399225354194641
0.341308891773223877 -0.00288703246042132378 0.247633248567581177
0.365460693836212158 -0.24828048050403595 0.246294528245925903
-0.414024978876113892 0.311664491891860962 0.150068596005439758
-0.437564820051193237 0.100692726671695709 0.221323952078819275
-0.454169899225234985 -0.117113284766674042 0.283919960260391235
-0.129402473568916321 0.222394853830337524 0.246708780527114868
-0.201878532767295837 0.375122010707855225 0.311198413372039795
-0.322672516107559204 0.335075408220291138 0.319077551364898682
-0.313666641712188721 0.121420979499816895 0.350094228982925415
-0.285391807556152344 -0.0995282158255577087 0.33958512544631958
-0.231483772397041321 -0.341192126274108887 0.204833343625068665
-0.199659660458564758 -0.193536803126335144 0.298577934503555298
-0.0424273796379566193 0.433610260486602783 0.256511569023132324
-0.0116523103788495064 0.359830856323242188 0.431703507900238037
-0.00726858759298920631 -0.318963348865509033 0.177525877952575684
0.0202639885246753693 -0.302624166011810303 0.37813761830329895
0.119404785335063934 0.323264062404632568 0.186752676963806152
0.176749229431152344 0.268593192100524902 0.339722424745559692
0.210919365286827087 -0.307926565408706665 0.206201270222663879
0.240845665335655212 -0.441587746143341064 0.364488750696182251
0.266362816095352173 0.228872835636138916 0.413971513509750366
0.367396652698516846 0.230444684624671936 0.284301638603210449
0.272677719593048096 -0.0147994495928287506 0.412284910678863525
0.417291313409805298 -0.00234369188547134399 0.306651979684829712
0.263249069452285767 -0.245723217725753784 0.360814332962036133
0.440220803022384644 -0.199754640460014343 0.268634557723999023
-0.230832085013389587 0.286595523357391357 0.372559219598770142
-0.197191223502159119 0.0944186076521873474 0.330086946487426758
-0.197447136044502258 -0.0952874794602394104 0.267701327800750732
-0.028192201629281044 0.21138356626033783 0.405962049961090088
0.0117905931547284126 0.0482060573995113373 0.264959514141082764
0.0139284124597907066 -0.175596162676811218 0.28692781925201416
0.17791748046875 0.175054088234901428 0.432302534580230713
0.186281204223632812 -0.0220447462052106857 0.360114753246307373
0.185457855463027954 -0.252503752708435059 0.306392103433609009
3 0 1 2
3 1 3 4
3 2 1 4
3 3 5 6
3 4 3 6
3 5 7 6
3 0 8 9
3 1 0 9
3 9 10 1
3 1 10 3
3 10 11 3
3 3 11 5
3 5 11 12
3 7 5 12
3 8 13 14
3 9 8 14
3 14 15 9
3 9 15 10
3 15 16 10
3 10 16 11
3 11 16 17
3 12 11 17
3 14 13 18
3 15 14 18
3 19 15 18
3 16 15 19
3 20 16 19
3 16 20 17
3 21 22 23
3 22 24 25
3 23 22 25
3 24 26 27
3 25 24 27
3 26 28 27
3 29 30 31
3 2 22 21
3 0 2 21
3 0 21 31
3 0 31 30
3 4 22 2
3 24 22 4
3 6 24 4
3 26 24 6
3 26 32 28
3 6 32 26
3 6 33 32
3 6 7 33
3 33 34 32
3 29 35 36
3 30 29 36
3 36 0 30
3 8 0 36
3 12 33 7
3 37 33 12
3 33 37 38
3 34 33 38
3 35 39 40
3 36 35 40
3 40 8 36
3 13 8 40
3 17 37 12
3 41 37 17
3 37 41 42
3 38 37 42
3 40 39 43
3 43 44 45
3 40 43 45
3 40 45 18
3 40 18 13
3 18 46 19
3 45 46 18
3 19 47 20
3 46 47 19
3 48 49 41
3 47 48 41
3 47 41 17
3 47 17 20
3 41 49 42
3 45 44 50
3 46 45 50
3 51 46 50
3 47 46 51
3 52 47 51
3 47 52 48
3 53 21 23
3 54 53 23
3 23 25 54
3 25 55 54
3 25 27 55
3 27 56 55
3 28 57 56
3 27 28 56
3 58 29 31
3 59 58 31
3 31 53 59
3 21 53 31
3 60 28 32
3 57 28 60
3 34 61 60
3 32 34 60
3 35 29 62
3 62 29 58
3 38 63 34
3 63 61 34
3 39 35 64
3 64 35 62
3 42 65 38
3 65 63 38
3 66 43 39
3 64 66 39
3 44 66 67
3 43 66 44
3 68 49 48
3 69 49 68
3 49 69 65
3 42 49 65
3 70 50 44
3 67 70 44
3 50 70 51
3 51 70 71
3 51 71 52
3 52 71 72
3 52 72 68
3 48 52 68
3 73 53 54
3 74 73 54
3 54 55 74
3 55 75 74
3 55 56 75
3 56 76 75
3 57 77 76
3 56 57 76
3 78 58 59
3 79 78 59
3 59 73 79
3 53 73 59
3 80 57 60
3 77 57 80
3 61 81 80
3 60 61 80
3 62 58 82
3 82 58 78
3 63 83 61
3 83 81 61
3 64 62 84
3 84 62 82
3 65 85 63
3 85 83 63
3 86 66 64
3 84 86 64
3 67 86 87
3 66 86 67
3 88 69 68
3 89 69 88
3 69 89 85
3 65 69 85
3 90 70 67
3 87 90 67
3 70 90 71
3 71 90 91
3 71 91 72
3 72 91 92
3 72 92 88
3 68 72 88
3 73 74 93
3 74 75 94
3 93 74 94
3 75 76 95
3 94 75 95
3 76 77 95
3 78 79 96
3 97 93 98
3 96 93 97
3 96 73 93
3 96 79 73
3 94 98 93
3 99 98 94
3 95 99 94
3 100 99 95
3 100 101 102
3 95 101 100
3 95 80 101
3 95 77 80
3 80 81 101
3 82 78 96
3 103 82 96
3 96 104 103
3 97 104 96
3 102 105 106
3 101 105 102
3 105 101 81
3 83 105 81
3 84 82 103
3 107 84 103
3 103 108 107
3 104 108 103
3 106 109 110
3 105 109 106
3 109 105 83
3 85 109 83
3 86 84 107
3 107 108 111
3 86 107 111
3 86 111 112
3 86 112 87
3 112 113 114
3 111 113 112
3 114 115 116
3 113 115 114
3 89 110 109
3 88 110 89
3 88 115 110
3 88 116 115
3 89 109 85
3 90 87 112
3 91 90 112
3 114 91 112
3 92 91 114
3 116 92 114
3 92 116 88
3 97 98 117
3 98 99 118
3 117 98 118
3 99 100 119
3 118 99 119
3 100 102 119
3 104 97 117
3 120 104 117
3 120 117 121
3 117 118 121
3 121 118 122
3 118 119 122
3 122 119 102
3 106 122 102
3 108 104 120
3 123 108 120
3 123 120 124
3 120 121 124
3 124 121 125
3 121 122 125
3 125 122 106
3 110 125 106
3 111 108 123
3 113 111 123
3 124 113 123
3 115 113 124
3 125 115 124
3 115 125 110
