ply
format ascii 1.0
comment VCGLIB generated
element vertex 126
property float x
property float y
property float z
element face 248
property list uchar int vertex_indices
end_header
-0.147625312209129333 0.25259891152381897 -0.521867036819458008
-0.141742005944252014 0.126690879464149475 -0.493799120187759399
-0.24444580078125 0.163244128227233887 -0.480028927326202393
-0.191034838557243347 -0.0882089212536811829 -0.363310664892196655
-0.268221765756607056 -0.0863153040409088135 -0.444260925054550171
-0.191827252507209778 -0.360921472311019897 -0.387467890977859497
-0.303186923265457153 -0.32602497935295105 -0.411407947540283203
-0.157924994826316833 -0.299394726753234863 -0.327753365039825439
0.026451457291841507 0.253354817628860474 -0.359119713306427002
0.0277761965990066528 0.123863227665424347 -0.361478745937347412
0.0543993152678012848 -0.0944888144731521606 -0.30082353949546814
0.06359100341796875 -0.317968994379043579 -0.409797519445419312
0.0517567694187164307 -0.440244108438491821 -0.36947554349899292
0.289523392915725708 0.274968832731246948 -0.384892761707305908
0.287191212177276611 0.161941945552825928 -0.332378238439559937
0.294003903865814209 -0.0705596134066581726 -0.296823322772979736
0.31985020637512207 -0.312352389097213745 -0.381292641162872314
0.297789126634597778 -0.419905811548233032 -0.311598777770996094
0.36716112494468689 0.167864799499511719 -0.408818721771240234
0.35609850287437439 -0.0629993975162506104 -0.391977697610855103
0.34015655517578125 -0.272742748260498047 -0.244201734662055969
-0.338786721229553223 0.271408110857009888 -0.237280234694480896
-0.379694163799285889 0.169840246438980103 -0.335582822561264038
-0.325145721435546875 0.159745588898658752 -0.226187914609909058
-0.427901506423950195 -0.0514467917382717133 -0.329015672206878662
-0.456447601318359375 -0.0404736995697021484 -0.193199023604393005
-0.341982394456863403 -0.273564994335174561 -0.271492660045623779
-0.438750863075256348 -0.264044404029846191 -0.1979951411485672
-0.386855363845825195 -0.390599519014358521 -0.176670551300048828
-0.149119988083839417 0.251219749450683594 -0.202825069427490234
-0.110927924513816833 0.260466724634170532 -0.306569665670394897
-0.192441076040267944 0.157945111393928528 -0.222458615899085999
-0.287654191255569458 -0.515925705432891846 -0.131368204951286316
-0.206898778676986694 -0.408987879753112793 -0.181664109230041504
-0.189663276076316833 -0.447908759117126465 -0.111873582005500793
0.0320330522954463959 0.480631589889526367 -0.206104844808578491
0.037673603743314743 0.448005646467208862 -0.338988065719604492
0.0158743429929018021 -0.452555239200592041 -0.193878516554832458
0.022352391853928566 -0.411060214042663574 -0.0934945419430732727
0.224593758583068848 0.356447339057922363 -0.238208979368209839
0.284683912992477417 0.4384022057056427 -0.298716157674789429
0.247851282358169556 -0.461732834577560425 -0.135275661945343018
0.2298736572265625 -0.40194624662399292 -0.0454722754657268524
0.303192138671875 0.341583698987960815 -0.181796550750732422
0.356731414794921875 0.151804342865943909 -0.191779777407646179
0.496049344539642334 0.158808439970016479 -0.236424311995506287
0.401628673076629639 -0.0758600756525993347 -0.220333218574523926
0.523017525672912598 -0.270206719636917114 -0.239262580871582031
0.522228598594665527 -0.341229796409606934 -0.116086870431900024
0.329069644212722778 -0.36004909873008728 -0.110175393521785736
0.456093877553939819 0.158178985118865967 -0.109922014176845551
0.345365345478057861 -0.0651517286896705627 -0.132704645395278931
0.435399144887924194 -0.260185897350311279 -0.143365636467933655
-0.425493061542510986 0.251075476408004761 -0.0139509541913866997
-0.327503889799118042 0.208965539932250977 0.0190678499639034271
-0.344142913818359375 -0.0191668178886175156 0.0183649491518735886
-0.336277693510055542 -0.251103103160858154 0.0462163574993610382
-0.444745153188705444 -0.334526747465133667 0.0609879046678543091
-0.124366067349910736 0.242645084857940674 0.0245070457458496094
-0.232339337468147278 0.240376308560371399 0.00440966011956334114
-0.304782181978225708 -0.457750111818313599 0.12711372971534729
-0.201511383056640625 -0.366879105567932129 0.110688857734203339
0.0340513736009597778 0.41931837797164917 0.00861341319978237152
0.00456203101202845573 -0.408631682395935059 0.165967941284179688
0.250571846961975098 0.362180531024932861 0.00679839728400111198
0.232632368803024292 -0.334829062223434448 0.163045570254325867
0.346566975116729736 0.443627238273620605 -0.0154792172834277153
0.392204612493515015 0.276235193014144897 0.0117035340517759323
0.418045729398727417 -0.295083403587341309 0.133335590362548828
0.322069674730300903 -0.447286307811737061 0.152955919504165649
0.291246920824050903 0.237914830446243286 0.0668139904737472534
0.34137377142906189 -0.000220302448724396527 0.0911586880683898926
0.490282207727432251 -0.203448638319969177 0.0981246307492256165
-0.475281804800033569 0.354496598243713379 0.192194193601608276
-0.512188971042633057 0.238965198397636414 0.187902882695198059
-0.458124309778213501 0.0348071232438087463 0.234366104006767273
-0.345183283090591431 -0.198889970779418945 0.295686721801757812
-0.348932087421417236 -0.288606941699981689 0.259172707796096802
-0.191910475492477417 0.383841216564178467 0.226211324334144592
-0.297366052865982056 0.379120767116546631 0.209593117237091064
-0.356705397367477417 -0.453131049871444702 0.340408831834793091
-0.253240406513214111 -0.423888146877288818 0.346339404582977295
0.0354090593755245209 0.471353143453598022 0.241374313831329346
-0.0271519739180803299 -0.345637321472167969 0.40143120288848877
0.221774354577064514 0.455814629793167114 0.293955594301223755
0.229669049382209778 -0.302303433418273926 0.394427984952926636
0.281642556190490723 0.532648324966430664 0.217804253101348877
0.264700114727020264 0.320899635553359985 0.21984468400478363
0.440545499324798584 -0.272884488105773926 0.379189997911453247
0.310694962739944458 -0.39805072546005249 0.366016507148742676
0.357638269662857056 0.271208077669143677 0.283049225807189941
0.439416706562042236 0.0533225126564502716 0.303114116191864014
0.371048659086227417 -0.197543635964393616 0.30687221884727478
-0.471432417631149292 0.228513717651367188 0.305209368467330933
-0.344812214374542236 0.0287024565041065216 0.286096006631851196
-0.42243608832359314 -0.173438310623168945 0.348251938819885254
-0.233842670917510986 0.508207261562347412 0.263098567724227905
-0.261237412691116333 0.39911574125289917 0.459264844655990601
-0.400974959135055542 0.285880148410797119 0.465711027383804321
-0.357657343149185181 0.0747820436954498291 0.477349966764450073
-0.237714588642120361 -0.148198261857032776 0.375438600778579712
-0.24833504855632782 -0.434482723474502563 0.479360491037368774
-0.288933843374252319 -0.271444708108901978 0.450981289148330688
-0.0537196062505245209 0.444333970546722412 0.309117048978805542
-0.05268096923828125 0.389768004417419434 0.484813123941421509
-0.024894367903470993 -0.429967105388641357 0.511543512344360352
-0.0669878199696540833 -0.247099414467811584 0.467400312423706055
0.139113336801528931 0.58919447660446167 0.368184804916381836
0.222948238253593445 0.392026066780090332 0.474462926387786865
0.215230420231819153 -0.394813776016235352 0.488090932369232178
0.14701668918132782 -0.220292806625366211 0.553441882133483887
0.235526338219642639 0.313558638095855713 0.430811315774917603
0.2294158935546875 0.216149583458900452 0.252206981182098389
0.238515675067901611 0.116041854023933411 0.529638826847076416
0.33194279670715332 0.0716587454080581665 0.379309654235839844
0.277588576078414917 -0.107315443456172943 0.577462553977966309
0.347437411546707153 -0.149354055523872375 0.410425424575805664
-0.307317197322845459 0.324068635702133179 0.489569127559661865
-0.237751007080078125 0.0839440673589706421 0.55077660083770752
-0.283190995454788208 -0.174746111035346985 0.512363016605377197
-0.0478571094572544098 0.280005902051925659 0.53770977258682251
-0.00496777612715959549 0.113447874784469604 0.432045221328735352
-0.0375834368169307709 -0.137664511799812317 0.391906827688217163
0.16216278076171875 0.357974708080291748 0.489474624395370483
0.290841192007064819 0.166646137833595276 0.416998863220214844
0.190493836998939514 -0.0880350843071937561 0.507581651210784912
3 0 1 2
3 1 3 4
3 2 1 4
3 3 5 6
3 4 3 6
3 5 7 6
3 0 8 9
3 1 0 9
3 9 10 1
3 1 10 3
3 10 11 3
3 3 11 5
3 5 11 12
3 7 5 12
3 8 13 14
3 9 8 14
3 14 15 9
3 9 15 10
3 15 16 10
3 10 16 11
3 11 16 17
3 12 11 17
3 14 13 18
3 15 14 18
3 19 15 18
3 16 15 19
3 20 16 19
3 16 20 17
3 21 22 23
3 22 24 25
3 23 22 25
3 24 26 27
3 25 24 27
3 26 28 27
3 29 30 31
3 2 22 21
3 0 2 21
3 0 21 31
3 0 31 30
3 4 22 2
3 24 22 4
3 6 24 4
3 26 24 6
3 26 32 28
3 6 32 26
3 6 33 32
3 6 7 33
3 33 34 32
3 29 35 36
3 30 29 36
3 36 0 30
3 8 0 36
3 12 33 7
3 37 33 12
3 33 37 38
3 34 33 38
3 35 39 40
3 36 35 40
3 40 8 36
3 13 8 40
3 17 37 12
3 41 37 17
3 37 41 42
3 38 37 42
3 40 39 43
3 43 44 45
3 40 43 45
3 40 45 18
3 40 18 13
3 18 46 19
3 45 46 18
3 19 47 20
3 46 47 19
3 48 49 41
3 47 48 41
3 47 41 17
3 47 17 20
3 41 49 42
3 45 44 50
3 46 45 50
3 51 46 50
3 47 46 51
3 52 47 51
3 47 52 48
3 53 21 23
3 54 53 23
3 23 25 54
3 25 55 54
3 25 27 55
3 27 56 55
3 28 57 56
3 27 28 56
3 58 29 31
3 59 58 31
3 31 53 59
3 21 53 31
3 60 28 32
3 57 28 60
3 34 61 60
3 32 34 60
3 35 29 62
3 62 29 58
3 38 63 34
3 63 61 34
3 39 35 64
3 64 35 62
3 42 65 38
3 65 63 38
3 66 43 39
3 64 66 39
3 44 66 67
3 43 66 44
3 68 49 48
3 69 49 68
3 49 69 65
3 42 49 65
3 70 50 44
3 67 70 44
3 50 70 51
3 51 70 71
3 51 71 52
3 52 71 72
3 52 72 68
3 48 52 68
3 73 53 54
3 74 73 54
3 54 55 74
3 55 75 74
3 55 56 75
3 56 76 75
3 57 77 76
3 56 57 76
3 78 58 59
3 79 78 59
3 59 73 79
3 53 73 59
3 80 57 60
3 77 57 80
3 61 81 80
3 60 61 80
3 62 58 82
3 82 58 78
3 63 83 61
3 83 81 61
3 64 62 84
3 84 62 82
3 65 85 63
3 85 83 63
3 86 66 64
3 84 86 64
3 67 86 87
3 66 86 67
3 88 69 68
3 89 69 88
3 69 89 85
3 65 69 85
3 90 70 67
3 87 90 67
3 70 90 71
3 71 90 91
3 71 91 72
3 72 91 92
3 72 92 88
3 68 72 88
3 73 74 93
3 74 75 94
3 93 74 94
3 75 76 95
3 94 75 95
3 76 77 95
3 78 79 96
3 97 93 98
3 96 93 97
3 96 73 93
3 96 79 73
3 94 98 93
3 99 98 94
3 95 99 94
3 100 99 95
3 100 101 102
3 95 101 100
3 95 80 101
3 95 77 80
3 80 81 101
3 82 78 96
3 103 82 96
3 96 104 103
3 97 104 96
3 102 105 106
3 101 105 102
3 105 101 81
3 83 105 81
3 84 82 103
3 107 84 103
3 103 108 107
3 104 108 103
3 106 109 110
3 105 109 106
3 109 105 83
3 85 109 83
3 86 84 107
3 107 108 111
3 86 107 111
3 86 111 112
3 86 112 87
3 112 113 114
3 111 113 112
3 114 115 116
3 113 115 114
3 89 110 109
3 88 110 89
3 88 115 110
3 88 116 115
3 89 109 85
3 90 87 112
3 91 90 112
3 114 91 112
3 92 91 114
3 116 92 114
3 92 116 88
3 97 98 117
3 98 99 118
3 117 98 118
3 99 100 119
3 118 99 119
3 100 102 119
3 104 97 117
3 120 104 117
3 120 117 121
3 117 118 121
3 121 118 122
3 118 119 122
3 122 119 102
3 106 122 102
3 108 104 120
3 123 108 120
3 123 120 124
3 120 121 124
3 124 121 125
3 121 122 125
3 125 122 106
3 110 125 106
3 111 108 123
3 113 111 123
3 124 113 123
3 115 113 124
3 125 115 124
3 115 125 110
