ply
format ascii 1.0
comment VCGLIB generated
element vertex 126
property float x
property float y
property float z
element face 248
property list uchar int vertex_indices
end_header
-0.207659974694252014 0.259387582540512085 -0.478628545999526978
-0.190613478422164917 0.124074220657348633 -0.360289037227630615
-0.322067946195602417 0.129267379641532898 -0.403397083282470703
-0.149142518639564514 -0.0721868649125099182 -0.540223538875579834
-0.328960418701171875 -0.0926678255200386047 -0.523112654685974121
-0.200006306171417236 -0.27772367000579834 -0.340429872274398804
-0.268178403377532959 -0.362507104873657227 -0.44434395432472229
-0.0896939337253570557 -0.342636227607727051 -0.329849272966384888
0.0461214222013950348 0.285407960414886475 -0.319584697484970093
0.0749761387705802917 0.153458058834075928 -0.368303149938583374
0.0791653692722320557 -0.133140102028846741 -0.383274108171463013
0.1111602783203125 -0.347720146179199219 -0.33917275071144104
0.128357619047164917 -0.488454103469848633 -0.291665464639663696
0.311419755220413208 0.280517309904098511 -0.305449962615966797
0.353150784969329834 0.205309197306632996 -0.266049563884735107
0.35114288330078125 -0.112153716385364532 -0.302612572908401489
0.338018596172332764 -0.389886319637298584 -0.231890887022018433
0.408184736967086792 -0.524963915348052979 -0.283464938402175903
0.391200661659240723 0.177115023136138916 -0.383414119482040405
0.476733118295669556 -0.121155634522438049 -0.378491640090942383
0.471649169921875 -0.367542386054992676 -0.305404007434844971
-0.555144190788269043 0.337185829877853394 -0.257149398326873779
-0.553755342960357666 0.192772343754768372 -0.355078727006912231
-0.504628956317901611 0.233686104416847229 -0.244927182793617249
-0.567831575870513916 -0.0906241312623023987 -0.315753966569900513
-0.50158238410949707 -0.0874705016613006592 -0.214799746870994568
-0.438494235277175903 -0.358302086591720581 -0.253582656383514404
-0.432420194149017334 -0.332977741956710815 -0.141195818781852722
-0.49742436408996582 -0.422228425741195679 -0.155471667647361755
-0.250871837139129639 0.391349136829376221 -0.255498886108398438
-0.197826728224754333 0.433757096529006958 -0.409334361553192139
-0.370549291372299194 0.469205111265182495 -0.25058940052986145
-0.283685147762298584 -0.563758611679077148 -0.0698646605014801025
-0.187717780470848083 -0.488654136657714844 -0.136891931295394897
-0.209047138690948486 -0.564378917217254639 -0.0462636053562164307
0.0199786089360713959 0.526579618453979492 -0.234747141599655151
0.0570817403495311737 0.502555370330810547 -0.347289174795150757
0.0419911444187164307 -0.576169312000274658 -0.127202600240707397
0.0828136056661605835 -0.459685206413269043 -0.0321130305528640747
0.337390899658203125 0.459245651960372925 -0.228132322430610657
0.288684159517288208 0.52261662483215332 -0.315725564956665039
0.31771397590637207 -0.626892209053039551 -0.0929834619164466858
0.300910264253616333 -0.509975314140319824 0.0232059303671121597
0.412608057260513306 0.508880019187927246 -0.204442188143730164
0.579764604568481445 0.369828075170516968 -0.142040461301803589
0.513177335262298584 0.192951411008834839 -0.201754346489906311
0.484374642372131348 -0.0686995908617973328 -0.195038527250289917
0.559277951717376709 -0.311258494853973389 -0.151548594236373901
0.498610407114028931 -0.348544269800186157 0.0289628710597753525
0.39123186469078064 -0.54698556661605835 0.0229456201195716858
0.499420166015625 0.250788778066635132 -0.113238416612148285
0.528531491756439209 -0.00873292423784732819 -0.109331391751766205
0.41774401068687439 -0.296756982803344727 -0.0284723788499832153
-0.613240301609039307 0.36856997013092041 0.0212628189474344254
-0.637943923473358154 0.266634672880172729 0.0376408733427524567
-0.516943514347076416 -0.0335366986691951752 0.103535652160644531
-0.60680389404296875 -0.324850291013717651 0.145350366830825806
-0.50628662109375 -0.41984972357749939 0.132397517561912537
-0.317193806171417236 0.437804192304611206 0.0662175044417381287
-0.396359175443649292 0.507389724254608154 0.0461554527282714844
-0.39379119873046875 -0.597511112689971924 0.230850294232368469
-0.243429705500602722 -0.63602602481842041 0.235109537839889526
-0.030914653092622757 0.48277398943901062 0.0429400503635406494
0.026742761954665184 -0.555751204490661621 0.231670454144477844
0.277725547552108765 0.463712751865386963 0.0875954180955886841
0.25825151801109314 -0.415702283382415771 0.279614478349685669
0.412803977727890015 0.592898070812225342 0.0694370269775390625
0.482985734939575195 0.408695399761199951 0.127972036600112915
0.355267941951751709 -0.315161734819412231 0.30672377347946167
0.36472320556640625 -0.505651533603668213 0.256872177124023438
0.549573004245758057 0.301313072443008423 0.155666738748550415
0.462766110897064209 0.0405575744807720184 0.190942063927650452
0.476942926645278931 -0.240398779511451721 0.200863316655158997
-0.62273716926574707 0.444875150918960571 0.321421384811401367
-0.628098547458648682 0.288945436477661133 0.315841972827911377
-0.630676925182342529 0.0258916169404983521 0.366351604461669922
-0.647995650768280029 -0.314764469861984253 0.411856174468994141
-0.483748674392700195 -0.27593114972114563 0.446953535079956055
-0.381036221981048584 0.652979493141174316 0.33125615119934082
-0.391292572021484375 0.526032984256744385 0.362606704235076904
-0.422323405742645264 -0.503383636474609375 0.465924292802810669
-0.331429570913314819 -0.441929280757904053 0.456445634365081787
-0.0916064828634262085 0.582557559013366699 0.335967540740966797
-0.0278732981532812119 -0.416381299495697021 0.47197297215461731
0.192692488431930542 0.563523471355438232 0.329912364482879639
0.258853226900100708 -0.502813637256622314 0.503227889537811279
0.314247816801071167 0.594058334827423096 0.363509207963943481
0.404940515756607056 0.311141878366470337 0.386525720357894897
0.545291900634765625 -0.344246715307235718 0.520481646060943604
0.356936007738113403 -0.485680639743804932 0.565750181674957275
0.532932281494140625 0.329446852207183838 0.442764759063720703
0.514722287654876709 0.0867577344179153442 0.488522469997406006
0.556612849235534668 -0.214239418506622314 0.523654520511627197
-0.549579977989196777 0.35619780421257019 0.438814789056777954
-0.617823183536529541 0.063402913510799408 0.496599882841110229
-0.605933427810668945 -0.217962607741355896 0.51580733060836792
-0.387443184852600098 0.651847422122955322 0.482312530279159546
-0.436800181865692139 0.571480453014373779 0.725488841533660889
-0.487376123666763306 0.376628279685974121 0.686851382255554199
-0.422238439321517944 0.0758202746510505676 0.620811402797698975
-0.46154022216796875 -0.184454053640365601 0.690273582935333252
-0.313268125057220459 -0.463358253240585327 0.595032095909118652
-0.356629103422164917 -0.270692229270935059 0.670569777488708496
-0.0893696844577789307 0.573570787906646729 0.474954068660736084
-0.115009650588035583 0.600686073303222656 0.718574941158294678
-0.0479490086436271667 -0.422376364469528198 0.59424293041229248
-0.0572447329759597778 -0.201242193579673767 0.642022013664245605
0.173818409442901611 0.600912690162658691 0.417425841093063354
0.187901586294174194 0.503960549831390381 0.687231361865997314
0.20072762668132782 -0.413497716188430786 0.625252485275268555
0.160203412175178528 -0.223630249500274658 0.655422389507293701
0.305189639329910278 0.401585936546325684 0.646968305110931396
0.494741946458816528 0.351077646017074585 0.554486632347106934
0.316975325345993042 0.140695452690124512 0.688205420970916748
0.550226747989654541 0.0888655632734298706 0.592432022094726562
0.294798076152801514 -0.179464161396026611 0.7181587815284729
0.493864566087722778 -0.175864726305007935 0.640772044658660889
-0.391306430101394653 0.368945568799972534 0.767508864402770996
-0.366613209247589111 0.0858272090554237366 0.771574079990386963
-0.319262415170669556 -0.204299718141555786 0.788961112499237061
-0.1148553267121315 0.420830339193344116 0.762922525405883789
-0.0863005891442298889 0.123010344803333282 0.832288980484008789
-0.0809426754713058472 -0.118023902177810669 0.627027392387390137
0.171836495399475098 0.402312338352203369 0.69515836238861084
0.173801064491271973 0.119275689125061035 0.668284416198730469
0.204120978713035583 -0.124653182923793793 0.82495880126953125
3 0 1 2
3 1 3 4
3 2 1 4
3 3 5 6
3 4 3 6
3 5 7 6
3 0 8 9
3 1 0 9
3 9 10 1
3 1 10 3
3 10 11 3
3 3 11 5
3 5 11 12
3 7 5 12
3 8 13 14
3 9 8 14
3 14 15 9
3 9 15 10
3 15 16 10
3 10 16 11
3 11 16 17
3 12 11 17
3 14 13 18
3 15 14 18
3 19 15 18
3 16 15 19
3 20 16 19
3 16 20 17
3 21 22 23
3 22 24 25
3 23 22 25
3 24 26 27
3 25 24 27
3 26 28 27
3 29 30 31
3 2 22 21
3 0 2 21
3 0 21 31
3 0 31 30
3 4 22 2
3 24 22 4
3 6 24 4
3 26 24 6
3 26 32 28
3 6 32 26
3 6 33 32
3 6 7 33
3 33 34 32
3 29 35 36
3 30 29 36
3 36 0 30
3 8 0 36
3 12 33 7
3 37 33 12
3 33 37 38
3 34 33 38
3 35 39 40
3 36 35 40
3 40 8 36
3 13 8 40
3 17 37 12
3 41 37 17
3 37 41 42
3 38 37 42
3 40 39 43
3 43 44 45
3 40 43 45
3 40 45 18
3 40 18 13
3 18 46 19
3 45 46 18
3 19 47 20
3 46 47 19
3 48 49 41
3 47 48 41
3 47 41 17
3 47 17 20
3 41 49 42
3 45 44 50
3 46 45 50
3 51 46 50
3 47 46 51
3 52 47 51
3 47 52 48
3 53 21 23
3 54 53 23
3 23 25 54
3 25 55 54
3 25 27 55
3 27 56 55
3 28 57 56
3 27 28 56
3 58 29 31
3 59 58 31
3 31 53 59
3 21 53 31
3 60 28 32
3 57 28 60
3 34 61 60
3 32 34 60
3 35 29 62
3 62 29 58
3 38 63 34
3 63 61 34
3 39 35 64
3 64 35 62
3 42 65 38
3 65 63 38
3 66 43 39
3 64 66 39
3 44 66 67
3 43 66 44
3 68 49 48
3 69 49 68
3 49 69 65
3 42 49 65
3 70 50 44
3 67 70 44
3 50 70 51
3 51 70 71
3 51 71 52
3 52 71 72
3 52 72 68
3 48 52 68
3 73 53 54
3 74 73 54
3 54 55 74
3 55 75 74
3 55 56 75
3 56 76 75
3 57 77 76
3 56 57 76
3 78 58 59
3 79 78 59
3 59 73 79
3 53 73 59
3 80 57 60
3 77 57 80
3 61 81 80
3 60 61 80
3 62 58 82
3 82 58 78
3 63 83 61
3 83 81 61
3 64 62 84
3 84 62 82
3 65 85 63
3 85 83 63
3 86 66 64
3 84 86 64
3 67 86 87
3 66 86 67
3 88 69 68
3 89 69 88
3 69 89 85
3 65 69 85
3 90 70 67
3 87 90 67
3 70 90 71
3 71 90 91
3 71 91 72
3 72 91 92
3 72 92 88
3 68 72 88
3 73 74 93
3 74 75 94
3 93 74 94
3 75 76 95
3 94 75 95
3 76 77 95
3 78 79 96
3 97 93 98
3 96 93 97
3 96 73 93
3 96 79 73
3 94 98 93
3 99 98 94
3 95 99 94
3 100 99 95
3 100 101 102
3 95 101 100
3 95 80 101
3 95 77 80
3 80 81 101
3 82 78 96
3 103 82 96
3 96 104 103
3 97 104 96
3 102 105 106
3 101 105 102
3 105 101 81
3 83 105 81
3 84 82 103
3 107 84 103
3 103 108 107
3 104 108 103
3 106 109 110
3 105 109 106
3 109 105 83
3 85 109 83
3 86 84 107
3 107 108 111
3 86 107 111
3 86 111 112
3 86 112 87
3 112 113 114
3 111 113 112
3 114 115 116
3 113 115 114
3 89 110 109
3 88 110 89
3 88 115 110
3 88 116 115
3 89 109 85
3 90 87 112
3 91 90 112
3 114 91 112
3 92 91 114
3 116 92 114
3 92 116 88
3 97 98 117
3 98 99 118
3 117 98 118
3 99 100 119
3 118 99 119
3 100 102 119
3 104 97 117
3 120 104 117
3 120 117 121
3 117 118 121
3 121 118 122
3 118 119 122
3 122 119 102
3 106 122 102
3 108 104 120
3 123 108 120
3 123 120 124
3 120 121 124
3 124 121 125
3 121 122 125
3 125 122 106
3 110 125 106
3 111 108 123
3 113 111 123
3 124 113 123
3 115 113 124
3 125 115 124
3 115 125 110
