ply
format ascii 1.0
comment VCGLIB generated
element vertex 126
property float x
property float y
property float z
element face 248
property list uchar int vertex_indices
end_header
-0.12639617919921875 0.0828615427017211914 -0.533140480518341064
-0.07575225830078125 0.00525661977007985115 -0.48191419243812561
-0.176891326904296875 -0.0385036878287792206 -0.47463575005531311
0.007205963134765625 -0.159370958805084229 -0.362806469202041626
-0.094249725341796875 -0.202264472842216492 -0.344080448150634766
0.015522003173828125 -0.057068217545747757 -0.16404406726360321
-0.100953422486782074 -0.080976143479347229 -0.153620079159736633
0.0151926679536700249 -0.125523582100868225 -0.0889398232102394104
0.073146820068359375 0.153058886528015137 -0.449910640716552734
0.0276158656924962997 0.151668593287467957 -0.347844928503036499
0.0449549369513988495 -0.00961397495120763779 -0.190051868557929993
0.242703750729560852 -0.104635350406169891 -0.175106048583984375
0.235842391848564148 -0.147302389144897461 -0.0817720070481300354
0.269420623779296875 0.198110148310661316 -0.353395313024520874
0.230134323239326477 0.182511195540428162 -0.257894039154052734
0.152562454342842102 0.139735028147697449 -0.0570414848625659943
0.27857208251953125 -0.0226974952965974808 0.0311250686645507812
0.380743652582168579 -3.98622760258149356e-05 -0.00402498245239257812
0.261713653802871704 0.0788520202040672302 -0.274824619293212891
0.248732253909111023 0.195175841450691223 -0.0818606987595558167
0.31284332275390625 0.0676292702555656433 0.0921409949660301208
-0.37827301025390625 0.0760093331336975098 -0.330610126256942749
-0.334322601556777954 -0.0500140488147735596 -0.383399486541748047
-0.3928985595703125 -0.0227950830012559891 -0.290149211883544922
-0.267316192388534546 -0.252745240926742554 -0.298078536987304688
-0.334392547607421875 -0.224149122834205627 -0.201753780245780945
-0.194244384765625 -0.2148466557264328 -0.0920670852065086365
-0.14902496337890625 -0.316427081823348999 -0.0868213996291160583
-0.064242042601108551 -0.269042670726776123 -0.0960906371474266052
-0.244942978024482727 0.301654189825057983 -0.394095897674560547
-0.19329833984375 0.20414455235004425 -0.417012065649032593
-0.326356261968612671 0.226411953568458557 -0.402586787939071655
0.06447601318359375 -0.293660193681716919 0.0144872665405273438
-0.00897852610796689987 -0.193849995732307434 0.0658831596374511719
-0.0112330121919512749 -0.245240986347198486 -0.0460611991584300995
-0.0498644523322582245 0.290764659643173218 -0.286882728338241577
0.0048675537109375 0.298339337110519409 -0.381696701049804688
0.210272476077079773 -0.221539855003356934 0.0752280578017234802
0.215529128909111023 -0.202962473034858704 -0.0382965393364429474
0.144551590085029602 0.286621719598770142 -0.18261544406414032
0.192468002438545227 0.341799706220626831 -0.266259670257568359
0.398955017328262329 -0.106476344168186188 0.133865833282470703
0.398405700922012329 -0.0747864916920661926 0.0266470909118652344
0.230803176760673523 0.329576730728149414 -0.132055595517158508
0.237008407711982727 0.166060939431190491 -0.0592014007270336151
0.172702789306640625 0.0616277791559696198 -0.116965770721435547
0.369899749755859375 0.0779444500803947449 -0.00971190165728330612
0.393624633550643921 0.215945795178413391 0.165073394775390625
0.36461639404296875 0.144779667258262634 0.0481845550239086151
0.475332885980606079 -0.00572340330109000206 0.0612343139946460724
0.131295517086982727 0.134174540638923645 -0.040051143616437912
0.350838989019393921 0.164524003863334656 -0.0747326239943504333
0.426405578851699829 0.116681791841983795 0.132754012942314148
-0.332410186529159546 0.167899847030639648 -0.122923530638217926
-0.33205413818359375 0.0726526901125907898 -0.100550971925258636
-0.391209930181503296 -0.0997589603066444397 -0.00415309285745024681
-0.262858062982559204 -0.296148151159286499 0.117457546293735504
-0.101648963987827301 -0.244391024112701416 0.115170799195766449
-0.266021728515625 0.289238631725311279 -0.173781394958496094
-0.364672333002090454 0.319032162427902222 -0.204616233706474304
0.00609842920675873756 -0.193545594811439514 0.203582763671875
0.00379816698841750622 -0.101846568286418915 0.110130943357944489
-0.113925933837890625 0.453752756118774414 -0.150047138333320618
0.182225540280342102 -0.23144964873790741 0.179194614291191101
0.081241607666015625 0.449173122644424438 -0.0451235771179199219
0.280653625726699829 -0.0290525835007429123 0.212601974606513977
0.104990638792514801 0.390987038612365723 0.0453867912292480469
0.208703354001045227 0.273990482091903687 0.134879902005195618
0.2040863037109375 -0.00150239618960767984 0.119738899171352386
0.320307403802871704 -0.127685174345970154 0.178684398531913757
0.162244156002998352 0.185001969337463379 0.179444476962089539
0.145047500729560852 0.0927846431732177734 -0.0182170867919921875
0.296170562505722046 -0.0492888987064361572 0.0702770575881004333
-0.429729461669921875 0.239932730793952942 0.0611378364264965057
-0.317612975835800171 0.226740702986717224 0.0503816604614257812
-0.367005676031112671 0.0396826304495334625 0.155305549502372742
-0.281237274408340454 -0.120431013405323029 0.270849704742431641
-0.19203948974609375 -0.203213497996330261 0.298966735601425171
-0.2952117919921875 0.380360931158065796 0.0294564571231603622
-0.396704345941543579 0.41240045428276062 0.0023174285888671875
-0.113234199583530426 -0.0443347953259944916 0.31887325644493103
-0.071238197386264801 -0.137607917189598083 0.32379421591758728
-0.07691192626953125 0.379899740219116211 0.0557966232299804688
0.113496147096157074 -0.228204414248466492 0.39052930474281311
0.066809333860874176 0.228381231427192688 -0.0101637840270996094
0.2896728515625 -0.0834726914763450623 0.425274044275283813
-0.0407574959099292755 0.231628522276878357 -0.0116044683381915092
0.007671356201171875 0.362180233001708984 0.110010780394077301
0.330225616693496704 0.146153911948204041 0.232773303985595703
0.298798888921737671 0.0111259855329990387 0.357198566198348999
-0.039745330810546875 0.281094968318939209 0.159906864166259766
0.02519989013671875 0.0665954276919364929 0.174208328127861023
0.239315032958984375 0.138665497303009033 0.174049064517021179
-0.340395599603652954 0.190415263175964355 0.155002757906913757
-0.366654723882675171 -0.0180142913013696671 0.0768221244215965271
-0.31365203857421875 -0.180465221405029297 0.206033229827880859
-0.29967498779296875 0.488637357950210571 0.0645678862929344177
-0.21079254150390625 0.35800480842590332 -0.014340241439640522
-0.289974212646484375 0.251430362462997437 -0.0115186376497149467
-0.267508178949356079 0.100874729454517365 0.161708518862724304
-0.257731109857559204 -0.0719370618462562561 0.317839771509170532
-0.00754292821511626244 -0.0901431143283843994 0.250970363616943359
-0.148715972900390625 -0.183711349964141846 0.298704952001571655
-0.146410629153251648 0.361519932746887207 -0.0362219810485839844
-0.0195859279483556747 0.4033660888671875 0.0864820480346679688
0.13652801513671875 -0.255385607481002808 0.291790157556533813
0.0519739799201488495 -0.140676558017730713 0.180849239230155945
0.0315539054572582245 0.295129686594009399 0.0781501159071922302
-0.085383094847202301 0.208596885204315186 0.195823982357978821
0.3104248046875 -0.115873746573925018 0.312915802001953125
0.275651305913925171 -0.152349367737770081 0.138980388641357422
-0.0119450883939862251 0.14431251585483551 0.296049445867538452
0.0384686775505542755 0.309802651405334473 0.237064197659492493
0.204842880368232727 0.0779592841863632202 0.282259464263916016
0.0209096278995275497 0.0908120796084403992 0.281892150640487671
0.192457839846611023 -0.0527110844850540161 0.100717388093471527
0.23488616943359375 0.0495864003896713257 0.240376949310302734
-0.177134200930595398 0.252521336078643799 -0.0262950267642736435
-0.1800537109375 0.0576292462646961212 0.103068031370639801
-0.1471710205078125 -0.0777096301317214966 0.285522937774658203
0.0310007724910974503 0.321221828460693359 0.0256220493465662003
0.0273640956729650497 0.135417982935905457 0.169878005981445312
0.074049629271030426 -0.0619174130260944366 0.25879397988319397
0.0194269809871912003 0.224513038992881775 0.223709896206855774
0.238112136721611023 0.165358468890190125 0.219533920288085938
0.285752624273300171 -0.048838641494512558 0.167136833071708679
3 0 1 2
3 1 3 4
3 2 1 4
3 3 5 6
3 4 3 6
3 5 7 6
3 0 8 9
3 1 0 9
3 9 10 1
3 1 10 3
3 10 11 3
3 3 11 5
3 5 11 12
3 7 5 12
3 8 13 14
3 9 8 14
3 14 15 9
3 9 15 10
3 15 16 10
3 10 16 11
3 11 16 17
3 12 11 17
3 14 13 18
3 15 14 18
3 19 15 18
3 16 15 19
3 20 16 19
3 16 20 17
3 21 22 23
3 22 24 25
3 23 22 25
3 24 26 27
3 25 24 27
3 26 28 27
3 29 30 31
3 2 22 21
3 0 2 21
3 0 21 31
3 0 31 30
3 4 22 2
3 24 22 4
3 6 24 4
3 26 24 6
3 26 32 28
3 6 32 26
3 6 33 32
3 6 7 33
3 33 34 32
3 29 35 36
3 30 29 36
3 36 0 30
3 8 0 36
3 12 33 7
3 37 33 12
3 33 37 38
3 34 33 38
3 35 39 40
3 36 35 40
3 40 8 36
3 13 8 40
3 17 37 12
3 41 37 17
3 37 41 42
3 38 37 42
3 40 39 43
3 43 44 45
3 40 43 45
3 40 45 18
3 40 18 13
3 18 46 19
3 45 46 18
3 19 47 20
3 46 47 19
3 48 49 41
3 47 48 41
3 47 41 17
3 47 17 20
3 41 49 42
3 45 44 50
3 46 45 50
3 51 46 50
3 47 46 51
3 52 47 51
3 47 52 48
3 53 21 23
3 54 53 23
3 23 25 54
3 25 55 54
3 25 27 55
3 27 56 55
3 28 57 56
3 27 28 56
3 58 29 31
3 59 58 31
3 31 53 59
3 21 53 31
3 60 28 32
3 57 28 60
3 34 61 60
3 32 34 60
3 35 29 62
3 62 29 58
3 38 63 34
3 63 61 34
3 39 35 64
3 64 35 62
3 42 65 38
3 65 63 38
3 66 43 39
3 64 66 39
3 44 66 67
3 43 66 44
3 68 49 48
3 69 49 68
3 49 69 65
3 42 49 65
3 70 50 44
3 67 70 44
3 50 70 51
3 51 70 71
3 51 71 52
3 52 71 72
3 52 72 68
3 48 52 68
3 73 53 54
3 74 73 54
3 54 55 74
3 55 75 74
3 55 56 75
3 56 76 75
3 57 77 76
3 56 57 76
3 78 58 59
3 79 78 59
3 59 73 79
3 53 73 59
3 80 57 60
3 77 57 80
3 61 81 80
3 60 61 80
3 62 58 82
3 82 58 78
3 63 83 61
3 83 81 61
3 64 62 84
3 84 62 82
3 65 85 63
3 85 83 63
3 86 66 64
3 84 86 64
3 67 86 87
3 66 86 67
3 88 69 68
3 89 69 88
3 69 89 85
3 65 69 85
3 90 70 67
3 87 90 67
3 70 90 71
3 71 90 91
3 71 91 72
3 72 91 92
3 72 92 88
3 68 72 88
3 73 74 93
3 74 75 94
3 93 74 94
3 75 76 95
3 94 75 95
3 76 77 95
3 78 79 96
3 97 93 98
3 96 93 97
3 96 73 93
3 96 79 73
3 94 98 93
3 99 98 94
3 95 99 94
3 100 99 95
3 100 101 102
3 95 101 100
3 95 80 101
3 95 77 80
3 80 81 101
3 82 78 96
3 103 82 96
3 96 104 103
3 97 104 96
3 102 105 106
3 101 105 102
3 105 101 81
3 83 105 81
3 84 82 103
3 107 84 103
3 103 108 107
3 104 108 103
3 106 109 110
3 105 109 106
3 109 105 83
3 85 109 83
3 86 84 107
3 107 108 111
3 86 107 111
3 86 111 112
3 86 112 87
3 112 113 114
3 111 113 112
3 114 115 116
3 113 115 114
3 89 110 109
3 88 110 89
3 88 115 110
3 88 116 115
3 89 109 85
3 90 87 112
3 91 90 112
3 114 91 112
3 92 91 114
3 116 92 114
3 92 116 88
3 97 98 117
3 98 99 118
3 117 98 118
3 99 100 119
3 118 99 119
3 100 102 119
3 104 97 117
3 120 104 117
3 120 117 121
3 117 118 121
3 121 118 122
3 118 119 122
3 122 119 102
3 106 122 102
3 108 104 120
3 123 108 120
3 123 120 124
3 120 121 124
3 124 121 125
3 121 122 125
3 125 122 106
3 110 125 106
3 111 108 123
3 113 111 123
3 124 113 123
3 115 113 124
3 125 115 124
3 115 125 110
