ply
format ascii 1.0
comment VCGLIB generated
element vertex 126
property float x
property float y
property float z
element face 248
property list uchar int vertex_indices
end_header
0.0318895988166332245 -0.0506667308509349823 -0.322691291570663452
0.06844329833984375 -0.0688050985336303711 -0.220255210995674133
-0.00499725341796875 -0.15041138231754303 -0.234270259737968445
-0.0204378757625818253 -0.132136121392250061 -0.0210870113223791122
0.0424168892204761505 -0.21808372437953949 -0.0261338558048009872
0.109464012086391449 -0.205356791615486145 0.146196842193603516
0.02335357666015625 -0.256651788949966431 0.191637203097343445
0.0331967659294605255 -0.130814924836158752 0.178919956088066101
-0.00608952855691313744 0.15618327260017395 -0.247117519378662109
-0.009063720703125 0.124269485473632812 -0.143427684903144836
0.0280291233211755753 0.0643008574843406677 0.0683628693222999573
0.071980796754360199 -0.0264198556542396545 0.268621116876602173
0.168972015380859375 -0.0374399274587631226 0.324318408966064453
0.20282745361328125 0.0731259807944297791 -0.256639152765274048
0.209400177001953125 0.0766531601548194885 -0.146617576479911804
0.232217147946357727 0.15054677426815033 0.0647859573364257812
0.260724395513534546 0.0958247482776641846 0.28361859917640686
0.265778869390487671 0.0973709225654602051 0.176451370120048523
0.295670837163925171 0.137332379817962646 -0.177365303039550781
0.324934631586074829 0.0976149663329124451 0.0416655540466308594
0.369531005620956421 0.111440382897853851 0.2635040283203125
-0.261876434087753296 -0.0494659580290317535 -0.215200260281562805
-0.12890625 -0.0373731516301631927 -0.17510668933391571
-0.217417404055595398 -0.048371288925409317 -0.111029945313930511
0.0117848711088299751 -0.0425998158752918243 0.00187381112482398748
-0.078397117555141449 -0.0260932911187410355 0.0672801360487937927
-0.092085517942905426 -0.233956918120384216 0.0589753799140453339
-0.171787261962890625 -0.21112668514251709 -0.011338074691593647
-0.123633064329624176 -0.11017569899559021 0.00753561640158295631
-0.1771240234375 0.0490523315966129303 -0.457897186279296875
-0.117618560791015625 0.0396550707519054413 -0.364748954772949219
-0.238527938723564148 -0.0177423376590013504 -0.394519656896591187
-0.079799652099609375 0.0383452102541923523 0.105544723570346832
0.0400149039924144745 -0.00453801406547427177 0.0656930580735206604
-0.0533994026482105255 -0.0634570345282554626 0.0920886993408203125
-0.013401031494140625 0.205200791358947754 -0.518555819988250732
0.0101038618013262749 0.216258347034454346 -0.415014415979385376
0.0104014081880450249 0.034389302134513855 0.286282867193222046
0.0080718994140625 -0.0732961222529411316 0.30434909462928772
0.147563934326171875 0.16066780686378479 -0.363478988409042358
0.202944442629814148 0.0979119166731834412 -0.434219032526016235
0.229732513427734375 0.0221812482923269272 0.343148708343505859
0.22612762451171875 -0.0811727270483970642 0.343276649713516235
0.253621429204940796 0.181680917739868164 -0.337326675653457642
0.390776306390762329 0.13549630343914032 -0.226595565676689148
0.410198211669921875 0.00118090154137462378 -0.204739093780517578
0.489732116460800171 0.0310877319425344467 0.00719801569357514381
0.527731597423553467 0.0316788293421268463 0.230452701449394226
0.483737945556640625 -0.0548064857721328735 0.330233097076416016
0.314484924077987671 -0.0920249298214912415 0.404768615961074829
0.324736267328262329 0.0602138489484786987 -0.174358531832695007
0.401018768548965454 -0.0293642729520797729 0.0216725673526525497
0.498138427734375 -0.071677863597869873 0.220940902829170227
-0.312610626220703125 0.167587637901306152 -0.196886375546455383
-0.268280029296875 0.166668429970741272 -0.0932113304734230042
-0.281588226556777954 0.0629122555255889893 0.10694519430398941
-0.326741546392440796 -0.153530284762382507 0.141498878598213196
-0.229581192135810852 -0.169906005263328552 0.19520123302936554
-0.289455413818359375 0.220642745494842529 -0.35579952597618103
-0.382105499505996704 0.167259499430656433 -0.368988662958145142
-0.249207809567451477 0.00157853018026798964 0.24098379909992218
-0.173380538821220398 0.0790453925728797913 0.215624168515205383
-0.082281745970249176 0.303581297397613525 -0.317777484655380249
0.0127003984525799751 0.14743080735206604 0.323177188634872437
0.1201934814453125 0.354430645704269409 -0.262464672327041626
0.22873687744140625 0.145001783967018127 0.384570926427841187
0.19315338134765625 0.338330715894699097 -0.188324928283691406
0.328730255365371704 0.304573863744735718 -0.0767418518662452698
0.382708221673965454 0.14499172568321228 0.283828586339950562
0.214382171630859375 0.0726261362433433533 0.306619971990585327
0.247271224856376648 0.234564438462257385 -0.0571452789008617401
0.253428131341934204 0.10574021190404892 0.125014305114746094
0.340062469244003296 0.0457411110401153564 0.321779876947402954
-0.44759368896484375 0.325926989316940308 -0.128257438540458679
-0.475172668695449829 0.25448375940322876 -0.0546479225158691406
-0.501805603504180908 0.108658015727996826 0.110705696046352386
-0.364068359136581421 0.0281469058245420456 0.267536789178848267
-0.278096526861190796 0.00323177780956029892 0.33166918158531189
-0.283606201410293579 0.0868942141532897949 -0.165379688143730164
-0.344430297613143921 0.18158780038356781 -0.149780750274658203
-0.1384124755859375 -0.0351562201976776123 0.433527618646621704
-0.237444564700126648 -0.0481017492711544037 0.390202045440673828
-0.072926841676235199 0.144167736172676086 -0.149058178067207336
-0.0368410758674144745 0.00382915395312011242 0.489500433206558228
0.109366096556186676 0.231165468692779541 -0.0694762840867042542
0.188054397702217102 0.00853079836815595627 0.549853265285491943
0.106538139283657074 0.142196342349052429 -0.130827903747558594
0.11962890625 0.266424208879470825 -0.00576861714944243431
0.35778045654296875 0.215061530470848083 0.499576330184936523
0.298506408929824829 0.0429137945175170898 0.523000478744506836
0.10074615478515625 0.367041438817977905 0.0319558791816234589
0.235546112060546875 0.317653626203536987 0.203615352511405945
0.336861938238143921 0.25803491473197937 0.396878242492675781
-0.463418334722518921 0.341237872838973999 0.0171329174190759659
-0.455273956060409546 0.17867511510848999 0.182281017303466797
-0.280474334955215454 0.030351199209690094 0.198139026761054993
-0.297307342290878296 0.0943700447678565979 -0.0586153678596019745
-0.21181488037109375 0.251915603876113892 -0.0522901229560375214
-0.278736114501953125 0.337607890367507935 0.0354944877326488495
-0.346445709466934204 0.301281511783599854 0.257253974676132202
-0.251903533935546875 0.118222497403621674 0.350462436676025391
-0.22235870361328125 -0.138843461871147156 0.457726955413818359
-0.268347412347793579 0.0323387086391448975 0.456191867589950562
-0.132109329104423523 0.23232017457485199 -0.12023559957742691
-0.0196520481258630753 0.139618188142776489 -0.0124800996854901314
-0.00311915087513625622 -0.0905424058437347412 0.446309089660644531
-0.061458587646484375 0.0493751168251037598 0.54020768404006958
0.0387674979865550995 0.149675488471984863 -0.017498016357421875
0.10961151123046875 0.314633548259735107 0.0247538890689611435
0.20488739013671875 -0.0146290091797709465 0.443235546350479126
0.085294090211391449 0.106417723000049591 0.381868988275527954
0.182600662112236023 0.302015960216522217 0.144713878631591797
0.0199368800967931747 0.302797168493270874 0.0785549506545066833
0.100682578980922699 0.20987798273563385 0.340222984552383423
0.199127197265625 0.214327529072761536 0.191212013363838196
0.190213516354560852 0.0139176696538925171 0.400700569152832031
0.291529327630996704 0.160431772470474243 0.390092849731445312
-0.243738815188407898 0.230034664273262024 0.0495394058525562286
-0.248559311032295227 0.264041304588317871 0.268788337707519531
-0.275966644287109375 0.144398301839828491 0.451495975255966187
-0.0431060791015625 0.136737808585166931 0.097667694091796875
-0.0318361930549144745 0.259058624505996704 0.285101741552352905
-0.0499178580939769745 0.145479246973991394 0.482964843511581421
0.07381439208984375 0.327487200498580933 0.123426914215087891
0.193299606442451477 0.231123968958854675 0.285275310277938843
0.16928863525390625 0.0991102084517478943 0.464835494756698608
3 0 1 2
3 1 3 4
3 2 1 4
3 3 5 6
3 4 3 6
3 5 7 6
3 0 8 9
3 1 0 9
3 9 10 1
3 1 10 3
3 10 11 3
3 3 11 5
3 5 11 12
3 7 5 12
3 8 13 14
3 9 8 14
3 14 15 9
3 9 15 10
3 15 16 10
3 10 16 11
3 11 16 17
3 12 11 17
3 14 13 18
3 15 14 18
3 19 15 18
3 16 15 19
3 20 16 19
3 16 20 17
3 21 22 23
3 22 24 25
3 23 22 25
3 24 26 27
3 25 24 27
3 26 28 27
3 29 30 31
3 2 22 21
3 0 2 21
3 0 21 31
3 0 31 30
3 4 22 2
3 24 22 4
3 6 24 4
3 26 24 6
3 26 32 28
3 6 32 26
3 6 33 32
3 6 7 33
3 33 34 32
3 29 35 36
3 30 29 36
3 36 0 30
3 8 0 36
3 12 33 7
3 37 33 12
3 33 37 38
3 34 33 38
3 35 39 40
3 36 35 40
3 40 8 36
3 13 8 40
3 17 37 12
3 41 37 17
3 37 41 42
3 38 37 42
3 40 39 43
3 43 44 45
3 40 43 45
3 40 45 18
3 40 18 13
3 18 46 19
3 45 46 18
3 19 47 20
3 46 47 19
3 48 49 41
3 47 48 41
3 47 41 17
3 47 17 20
3 41 49 42
3 45 44 50
3 46 45 50
3 51 46 50
3 47 46 51
3 52 47 51
3 47 52 48
3 53 21 23
3 54 53 23
3 23 25 54
3 25 55 54
3 25 27 55
3 27 56 55
3 28 57 56
3 27 28 56
3 58 29 31
3 59 58 31
3 31 53 59
3 21 53 31
3 60 28 32
3 57 28 60
3 34 61 60
3 32 34 60
3 35 29 62
3 62 29 58
3 38 63 34
3 63 61 34
3 39 35 64
3 64 35 62
3 42 65 38
3 65 63 38
3 66 43 39
3 64 66 39
3 44 66 67
3 43 66 44
3 68 49 48
3 69 49 68
3 49 69 65
3 42 49 65
3 70 50 44
3 67 70 44
3 50 70 51
3 51 70 71
3 51 71 52
3 52 71 72
3 52 72 68
3 48 52 68
3 73 53 54
3 74 73 54
3 54 55 74
3 55 75 74
3 55 56 75
3 56 76 75
3 57 77 76
3 56 57 76
3 78 58 59
3 79 78 59
3 59 73 79
3 53 73 59
3 80 57 60
3 77 57 80
3 61 81 80
3 60 61 80
3 62 58 82
3 82 58 78
3 63 83 61
3 83 81 61
3 64 62 84
3 84 62 82
3 65 85 63
3 85 83 63
3 86 66 64
3 84 86 64
3 67 86 87
3 66 86 67
3 88 69 68
3 89 69 88
3 69 89 85
3 65 69 85
3 90 70 67
3 87 90 67
3 70 90 71
3 71 90 91
3 71 91 72
3 72 91 92
3 72 92 88
3 68 72 88
3 73 74 93
3 74 75 94
3 93 74 94
3 75 76 95
3 94 75 95
3 76 77 95
3 78 79 96
3 97 93 98
3 96 93 97
3 96 73 93
3 96 79 73
3 94 98 93
3 99 98 94
3 95 99 94
3 100 99 95
3 100 101 102
3 95 101 100
3 95 80 101
3 95 77 80
3 80 81 101
3 82 78 96
3 103 82 96
3 96 104 103
3 97 104 96
3 102 105 106
3 101 105 102
3 105 101 81
3 83 105 81
3 84 82 103
3 107 84 103
3 103 108 107
3 104 108 103
3 106 109 110
3 105 109 106
3 109 105 83
3 85 109 83
3 86 84 107
3 107 108 111
3 86 107 111
3 86 111 112
3 86 112 87
3 112 113 114
3 111 113 112
3 114 115 116
3 113 115 114
3 89 110 109
3 88 110 89
3 88 115 110
3 88 116 115
3 89 109 85
3 90 87 112
3 91 90 112
3 114 91 112
3 92 91 114
3 116 92 114
3 92 116 88
3 97 98 117
3 98 99 118
3 117 98 118
3 99 100 119
3 118 99 119
3 100 102 119
3 104 97 117
3 120 104 117
3 120 117 121
3 117 118 121
3 121 118 122
3 118 119 122
3 122 119 102
3 106 122 102
3 108 104 120
3 123 108 120
3 123 120 124
3 120 121 124
3 124 121 125
3 121 122 125
3 125 122 106
3 110 125 106
3 111 108 123
3 113 111 123
3 124 113 123
3 115 113 124
3 125 115 124
3 115 125 110
