ply
format ascii 1.0
comment VCGLIB generated
element vertex 126
property float x
property float y
property float z
element face 248
property list uchar int vertex_indices
end_header
1.51462721824645996 -0.312907397747039795 -0.549846351146697998
1.53055703639984131 -0.419295400381088257 -0.513124644756317139
1.52476215362548828 -0.365573883056640625 -0.412895232439041138
1.52222716808319092 -0.468619614839553833 -0.314979314804077148
1.49501967430114746 -0.542380452156066895 -0.275731503963470459
1.48666894435882568 -0.693337321281433105 -0.260508060455322266
1.48531651496887207 -0.72547304630279541 -0.356776267290115356
1.52267622947692871 -0.79501640796661377 -0.232331752777099609
1.72955775260925293 -0.289075076580047607 -0.501298010349273682
1.73368799686431885 -0.380123913288116455 -0.444260507822036743
1.72329294681549072 -0.512289881706237793 -0.271821886301040649
1.68916010856628418 -0.73960345983505249 -0.271893620491027832
1.71133553981781006 -0.789562761783599854 -0.362037301063537598
1.95135807991027832 -0.273234575986862183 -0.445099294185638428
1.93998849391937256 -0.348043769598007202 -0.368895292282104492
1.94509327411651611 -0.557247817516326904 -0.286550730466842651
1.9035114049911499 -0.75541454553604126 -0.206742927432060242
1.92882883548736572 -0.783639430999755859 -0.308324843645095825
2.0351722240447998 -0.376639723777770996 -0.416983455419540405
2.00905537605285645 -0.596715688705444336 -0.369180768728256226
2.01862668991088867 -0.757342696189880371 -0.209746137261390686
1.2808678150177002 -0.249835655093193054 -0.335651308298110962
1.35005080699920654 -0.344222009181976318 -0.399344176054000854
1.30817413330078125 -0.34878772497177124 -0.301482021808624268
1.31545495986938477 -0.506314218044281006 -0.252099692821502686
1.40370798110961914 -0.539913058280944824 -0.233827278017997742
1.3348926305770874 -0.731922149658203125 -0.274363845586776733
1.28407037258148193 -0.733400225639343262 -0.180825099349021912
1.38652801513671875 -0.790259182453155518 -0.1720428466796875
1.45311522483825684 -0.21966378390789032 -0.289672285318374634
1.47388803958892822 -0.257657885551452637 -0.388075649738311768
1.42022562026977539 -0.133565217256546021 -0.351645290851593018
1.51856505870819092 -0.767516613006591797 -0.0471945218741893768
1.6279376745223999 -0.716301321983337402 -0.108976796269416809
1.54793131351470947 -0.805039703845977783 -0.110968023538589478
1.67310881614685059 -0.226288124918937683 -0.249866560101509094
1.68925893306732178 -0.199315145611763 -0.356397628784179688
1.69438445568084717 -0.900209784507751465 -0.222121357917785645
1.71154367923736572 -0.945515155792236328 -0.120792821049690247
1.89393126964569092 -0.208326712250709534 -0.225543543696403503
1.90318715572357178 -0.152933746576309204 -0.320366710424423218
1.91531085968017578 -0.906517207622528076 -0.176748797297477722
1.89090204238891602 -0.799396216869354248 -0.127847403287887573
1.97781991958618164 -0.140492945909500122 -0.207432180643081665
2.11859774589538574 -0.235893860459327698 -0.241475746035575867
2.12939333915710449 -0.368549257516860962 -0.261999905109405518
2.06621694564819336 -0.574172437191009521 -0.204507872462272644
2.19831991195678711 -0.754618942737579346 -0.226485937833786011
2.15256071090698242 -0.80519479513168335 -0.113544024527072906
1.98105716705322266 -0.778709888458251953 -0.150050461292266846
2.05423879623413086 -0.320675194263458252 -0.203116372227668762
2.15577554702758789 -0.515820622444152832 -0.17191062867641449
2.22397184371948242 -0.723798751831054688 -0.123167254030704498
1.25819981098175049 -0.181146770715713501 -0.119389615952968597
1.2486492395401001 -0.289672046899795532 -0.0962034091353416443
1.3585662841796875 -0.471408188343048096 -0.0182212479412555695
1.30402469635009766 -0.679759502410888672 0.034729350358247757
1.34242486953735352 -0.780172765254974365 0.0447424948215484619
1.44969761371612549 -0.0732604712247848511 -0.118285305798053741
1.35603809356689453 -0.0352023802697658539 -0.152307853102684021
1.41149520874023438 -0.934899032115936279 0.0703393295407295227
1.50963866710662842 -0.963591337203979492 0.0558651573956012726
1.65121424198150635 -0.133646354079246521 -0.0460646376013755798
1.72122430801391602 -0.927689075469970703 0.112250067293643951
1.87089049816131592 -0.176739156246185303 -0.00635428866371512413
1.90652668476104736 -0.802293896675109863 0.0956778079271316528
1.98209929466247559 -0.189503565430641174 0.00926581304520368576
2.15941500663757324 -0.170192316174507141 -0.0303652063012123108
2.12706136703491211 -0.788713216781616211 0.101954065263271332
1.96447193622589111 -0.717698812484741211 0.0617833547294139862
2.0965263843536377 -0.253056228160858154 0.00651077786460518837
2.17010831832885742 -0.464876711368560791 0.0459462925791740417
2.11741518974304199 -0.682022213935852051 0.0745474174618721008
1.2437664270401001 -0.131013914942741394 0.0938790440559387207
1.2050940990447998 -0.228487491607666016 0.117330551147460938
1.30653548240661621 -0.41185268759727478 0.195189163088798523
1.27981877326965332 -0.633510828018188477 0.244601413607597351
1.31687164306640625 -0.734820246696472168 0.259532064199447632
1.44918608665466309 0.0598975121974945068 0.0627847164869308472
1.3526691198348999 0.00971685070544481277 0.065932057797908783
1.42771804332733154 -0.878525853157043457 0.284395873546600342
1.52166533470153809 -0.919305622577667236 0.273811370134353638
1.67172694206237793 0.0537780411541461945 0.0705409049987792969
1.66176009178161621 -0.749856650829315186 0.236755281686782837
1.89062631130218506 0.0315170846879482269 0.0884966403245925903
1.88390552997589111 -0.745846450328826904 0.308431059122085571
1.98956918716430664 0.000155377390910871327 0.126321524381637573
2.07725167274475098 -0.154283136129379272 0.176066488027572632
2.09152388572692871 -0.73733985424041748 0.319537460803985596
1.94451069831848145 -0.804326951503753662 0.254794687032699585
2.16244268417358398 -0.207218915224075317 0.220108240842819214
2.12785887718200684 -0.424331724643707275 0.256809532642364502
2.06815361976623535 -0.636545062065124512 0.287307828664779663
1.29963433742523193 -0.241705819964408875 0.155353754758834839
1.23516082763671875 -0.419572830200195312 0.278203278779983521
1.32488596439361572 -0.619753897190093994 0.337305724620819092
1.437530517578125 0.0444901548326015472 0.168884009122848511
1.42102324962615967 -0.0589963309466838837 0.318654865026473999
1.31940841674804688 -0.148217633366584778 0.307912170886993408
1.40269362926483154 -0.349177837371826172 0.28012731671333313
1.4699329137802124 -0.558291316032409668 0.250715553760528564
1.52945601940155029 -0.822685360908508301 0.20612412691116333
1.50086665153503418 -0.645468235015869141 0.150085583329200745
1.65304529666900635 -0.0166849736124277115 0.155536472797393799
1.64489054679870605 -0.0779415220022201538 0.322609603404998779
1.69601261615753174 -0.747933685779571533 0.338294714689254761
1.60697591304779053 -0.595803916454315186 0.332682996988296509
1.87180769443511963 -0.0498145371675491333 0.160206437110900879
1.8547508716583252 -0.143932387232780457 0.308381855487823486
1.88307666778564453 -0.662126541137695312 0.262348651885986328
1.79354918003082275 -0.658795356750488281 0.422954767942428589
1.95478785037994385 -0.155913680791854858 0.402539849281311035
2.10136055946350098 -0.180886790156364441 0.306143969297409058
1.93152511119842529 -0.377469271421432495 0.434951126575469971
2.09162449836730957 -0.400185078382492065 0.355436146259307861
1.90819478034973145 -0.596045076847076416 0.460920959711074829
2.06652379035949707 -0.621568560600280762 0.391845256090164185
1.41087961196899414 -0.160413950681686401 0.365895122289657593
1.48191964626312256 -0.318150073289871216 0.220844313502311707
1.51260721683502197 -0.534476041793823242 0.152795955538749695
1.62956583499908447 -0.123903967440128326 0.416982173919677734
1.6752936840057373 -0.327111750841140747 0.330681562423706055
1.68607878684997559 -0.547284305095672607 0.289866477251052856
1.84897327423095703 -0.14567093551158905 0.415577441453933716
1.83474445343017578 -0.356513500213623047 0.490657627582550049
1.80205774307250977 -0.571241915225982666 0.481117397546768188
3 0 1 2
3 1 3 4
3 2 1 4
3 3 5 6
3 4 3 6
3 5 7 6
3 0 8 9
3 1 0 9
3 9 10 1
3 1 10 3
3 10 11 3
3 3 11 5
3 5 11 12
3 7 5 12
3 8 13 14
3 9 8 14
3 14 15 9
3 9 15 10
3 15 16 10
3 10 16 11
3 11 16 17
3 12 11 17
3 14 13 18
3 15 14 18
3 19 15 18
3 16 15 19
3 20 16 19
3 16 20 17
3 21 22 23
3 22 24 25
3 23 22 25
3 24 26 27
3 25 24 27
3 26 28 27
3 29 30 31
3 2 22 21
3 0 2 21
3 0 21 31
3 0 31 30
3 4 22 2
3 24 22 4
3 6 24 4
3 26 24 6
3 26 32 28
3 6 32 26
3 6 33 32
3 6 7 33
3 33 34 32
3 29 35 36
3 30 29 36
3 36 0 30
3 8 0 36
3 12 33 7
3 37 33 12
3 33 37 38
3 34 33 38
3 35 39 40
3 36 35 40
3 40 8 36
3 13 8 40
3 17 37 12
3 41 37 17
3 37 41 42
3 38 37 42
3 40 39 43
3 43 44 45
3 40 43 45
3 40 45 18
3 40 18 13
3 18 46 19
3 45 46 18
3 19 47 20
3 46 47 19
3 48 49 41
3 47 48 41
3 47 41 17
3 47 17 20
3 41 49 42
3 45 44 50
3 46 45 50
3 51 46 50
3 47 46 51
3 52 47 51
3 47 52 48
3 53 21 23
3 54 53 23
3 23 25 54
3 25 55 54
3 25 27 55
3 27 56 55
3 28 57 56
3 27 28 56
3 58 29 31
3 59 58 31
3 31 53 59
3 21 53 31
3 60 28 32
3 57 28 60
3 34 61 60
3 32 34 60
3 35 29 62
3 62 29 58
3 38 63 34
3 63 61 34
3 39 35 64
3 64 35 62
3 42 65 38
3 65 63 38
3 66 43 39
3 64 66 39
3 44 66 67
3 43 66 44
3 68 49 48
3 69 49 68
3 49 69 65
3 42 49 65
3 70 50 44
3 67 70 44
3 50 70 51
3 51 70 71
3 51 71 52
3 52 71 72
3 52 72 68
3 48 52 68
3 73 53 54
3 74 73 54
3 54 55 74
3 55 75 74
3 55 56 75
3 56 76 75
3 57 77 76
3 56 57 76
3 78 58 59
3 79 78 59
3 59 73 79
3 53 73 59
3 80 57 60
3 77 57 80
3 61 81 80
3 60 61 80
3 62 58 82
3 82 58 78
3 63 83 61
3 83 81 61
3 64 62 84
3 84 62 82
3 65 85 63
3 85 83 63
3 86 66 64
3 84 86 64
3 67 86 87
3 66 86 67
3 88 69 68
3 89 69 88
3 69 89 85
3 65 69 85
3 90 70 67
3 87 90 67
3 70 90 71
3 71 90 91
3 71 91 72
3 72 91 92
3 72 92 88
3 68 72 88
3 73 74 93
3 74 75 94
3 93 74 94
3 75 76 95
3 94 75 95
3 76 77 95
3 78 79 96
3 97 93 98
3 96 93 97
3 96 73 93
3 96 79 73
3 94 98 93
3 99 98 94
3 95 99 94
3 100 99 95
3 100 101 102
3 95 101 100
3 95 80 101
3 95 77 80
3 80 81 101
3 82 78 96
3 103 82 96
3 96 104 103
3 97 104 96
3 102 105 106
3 101 105 102
3 105 101 81
3 83 105 81
3 84 82 103
3 107 84 103
3 103 108 107
3 104 108 103
3 106 109 110
3 105 109 106
3 109 105 83
3 85 109 83
3 86 84 107
3 107 108 111
3 86 107 111
3 86 111 112
3 86 112 87
3 112 113 114
3 111 113 112
3 114 115 116
3 113 115 114
3 89 110 109
3 88 110 89
3 88 115 110
3 88 116 115
3 89 109 85
3 90 87 112
3 91 90 112
3 114 91 112
3 92 91 114
3 116 92 114
3 92 116 88
3 97 98 117
3 98 99 118
3 117 98 118
3 99 100 119
3 118 99 119
3 100 102 119
3 104 97 117
3 120 104 117
3 120 117 121
3 117 118 121
3 121 118 122
3 118 119 122
3 122 119 102
3 106 122 102
3 108 104 120
3 123 108 120
3 123 120 124
3 120 121 124
3 124 121 125
3 121 122 125
3 125 122 106
3 110 125 106
3 111 108 123
3 113 111 123
3 124 113 123
3 115 113 124
3 125 115 124
3 115 125 110
