ply
format ascii 1.0
comment VCGLIB generated
element vertex 126
property float x
property float y
property float z
element face 248
property list uchar int vertex_indices
end_header
-0.138482406735420227 0.0989291667938232422 -0.545873463153839111
-0.076883949339389801 0.019160902127623558 -0.504331767559051514
-0.173329666256904602 -0.0351007431745529175 -0.499843597412109375
0.00963465403765439987 -0.153026774525642395 -0.401710182428359985
-0.088170371949672699 -0.190660372376441956 -0.363863945007324219
0.0311266575008630753 -0.0846766531467437744 -0.192804649472236633
-0.073087058961391449 -0.0692441388964653015 -0.182043388485908508
0.010501861572265625 -0.154176577925682068 -0.111192859709262848
0.0550028495490550995 0.123648703098297119 -0.435600131750106812
0.00323740649037063122 0.143691018223762512 -0.338739544153213501
0.0451939888298511505 -0.0358909554779529572 -0.211349800229072571
0.242046356201171875 -0.144923463463783264 -0.187390968203544617
0.23305511474609375 -0.180579602718353271 -0.0854020118713378906
0.248293563723564148 0.155400350689888 -0.329442352056503296
0.201770782470703125 0.142468065023422241 -0.235034629702568054
0.111590065062046051 0.0928248763084411621 -0.0402166061103343964
0.272430419921875 -0.0535025633871555328 0.0179821643978357315
0.371041625738143921 -0.018494853749871254 -0.0204264316707849503
0.19488525390625 0.0376220196485519409 -0.269630283117294312
0.19687652587890625 0.156894385814666748 -0.0781100615859031677
0.301038116216659546 0.0399647951126098633 0.0816855430603027344
-0.396282196044921875 0.0609207302331924438 -0.373068958520889282
-0.335461944341659546 -0.0561721771955490112 -0.416794151067733765
-0.4083404541015625 -0.04389958456158638 -0.334525734186172485
-0.257043212652206421 -0.244296431541442871 -0.332925468683242798
-0.291683197021484375 -0.212928399443626404 -0.231167957186698914
-0.180329635739326477 -0.211934551596641541 -0.129258632659912109
-0.099610649049282074 -0.283141344785690308 -0.154091998934745789
-0.0357119254767894745 -0.207599163055419922 -0.110605396330356598
-0.253388732671737671 0.29222908616065979 -0.391027301549911499
-0.209033966064453125 0.193931832909584045 -0.407296806573867798
-0.342929840087890625 0.23114265501499176 -0.415591239929199219
0.05384063720703125 -0.306554168462753296 -0.00963163375854492188
-0.0171343479305505753 -0.211293697357177734 0.0504460334777832031
-0.003997802734375 -0.227042660117149353 -0.0587046928703784943
-0.062740325927734375 0.270942896604537964 -0.273155838251113892
-0.00460688257589936256 0.277015954256057739 -0.366078376770019531
0.206212356686592102 -0.234506472945213318 0.0802456513047218323
0.220785781741142273 -0.224387958645820618 -0.0297303199768066406
0.13164520263671875 0.26866835355758667 -0.165255546569824219
0.185750320553779602 0.308142870664596558 -0.252690941095352173
0.397658020257949829 -0.119156710803508759 0.12589263916015625
0.383454650640487671 -0.073781624436378479 0.0251049995422363281
0.222787216305732727 0.299822300672531128 -0.116785846650600433
0.218304947018623352 0.134190455079078674 -0.0441981963813304901
0.141613006591796875 0.0367515310645103455 -0.0946812629699707031
0.357573181390762329 0.0775365456938743591 -0.0390329360961914062
0.3693695068359375 0.197456583380699158 0.151073932647705078
0.350167602300643921 0.13105405867099762 0.0298169460147619247
0.464026123285293579 -0.0115627311170101166 0.0609242133796215057
0.115935005247592926 0.103365682065486908 -0.00495258951559662819
0.314296722412109375 0.164428368210792542 -0.0889258384704589844
0.42862701416015625 0.120452135801315308 0.10159078985452652
-0.458063751459121704 0.142823919653892517 -0.173847988247871399
-0.357608795166015625 0.0940703228116035461 -0.166104152798652649
-0.358620971441268921 -0.110684521496295929 -0.0607156753540039062
-0.2074127197265625 -0.25196489691734314 0.0392939262092113495
-0.127086639404296875 -0.25937458872795105 0.0901993140578269958
-0.281354278326034546 0.249292299151420593 -0.171382591128349304
-0.3740386962890625 0.299609154462814331 -0.206115245819091797
0.018795013427734375 -0.185223296284675598 0.185328483581542969
0.0380109138786792755 -0.110484443604946136 0.116707481443881989
-0.141413375735282898 0.412238478660583496 -0.118415512144565582
0.194075271487236023 -0.248160585761070251 0.19353167712688446
0.0556856803596019745 0.422234386205673218 -0.0193950328975915909
0.26104736328125 -0.0288467258214950562 0.209502056241035461
0.10164642333984375 0.37055554986000061 0.0617095641791820526
0.229822799563407898 0.267636746168136597 0.131551578640937805
0.202837631106376648 0.01845598965883255 0.158179283142089844
0.311873108148574829 -0.121922053396701813 0.184006690979003906
0.174678802490234375 0.197458758950233459 0.194749519228935242
0.1268463134765625 0.0886324048042297363 0.00950781535357236862
0.281733185052871704 -0.0457245372235774994 0.109157882630825043
-0.454903930425643921 0.18563312292098999 0.0445240326225757599
-0.342873901128768921 0.189938381314277649 0.0376947708427906036
-0.393540710210800171 -0.0231678560376167297 0.132046058773994446
-0.335138946771621704 -0.216887548565864563 0.229443863034248352
-0.25942230224609375 -0.148225530982017517 0.234368160367012024
-0.327451080083847046 0.327888309955596924 0.0375835113227367401
-0.4277496337890625 0.360446900129318237 0.00475549697875976562
-0.124033607542514801 -0.0621877759695053101 0.29645809531211853
-0.066888175904750824 -0.154459863901138306 0.305265903472900391
-0.107710517942905426 0.330219775438308716 0.0867536887526512146
0.124376930296421051 -0.211989462375640869 0.406370162963867188
0.0624376945197582245 0.203862652182579041 0.015956878662109375
0.30013275146484375 -0.0680369958281517029 0.425020217895507812
-0.0413716621696949005 0.19725094735622406 0.0486353226006031036
0.0338350944221019745 0.360491514205932617 0.0772008895874023438
0.360116332769393921 0.152857661247253418 0.244482681155204773
0.327360779047012329 0.0208607893437147141 0.363655567169189453
-0.00303777051158249378 0.333084523677825928 0.174456596374511719
0.0404230765998363495 0.121409676969051361 0.214533805847167969
0.26387786865234375 0.159722581505775452 0.194970294833183289
-0.361273437738418579 0.129244551062583923 0.128566578030586243
-0.354288727045059204 -0.0591086335480213165 0.0317117385566234589
-0.264092773199081421 -0.23553900420665741 0.135678291320800781
-0.332867950201034546 0.432363957166671753 0.0797119140625
-0.228150680661201477 0.322775274515151978 -0.0163283348083496094
-0.309956878423690796 0.219600558280944824 -0.0142556829378008842
-0.27748870849609375 0.0632501468062400818 0.152262374758720398
-0.246758773922920227 -0.134598642587661743 0.267007976770401001
0.005977630615234375 -0.0926910713315010071 0.25246080756187439
-0.128215789794921875 -0.185382053256034851 0.327283531427383423
-0.175431564450263977 0.280202776193618774 0.020084381103515625
-0.047473907470703125 0.379081279039382935 0.0984223708510398865
0.155317947268486023 -0.256076902151107788 0.308942943811416626
0.0582148246467113495 -0.13446342945098877 0.218280792236328125
0.0436846427619457245 0.29253077507019043 0.081185661256313324
-0.005619049072265625 0.20988619327545166 0.241838768124580383
0.325860351324081421 -0.107270509004592896 0.318524032831192017
0.267538696527481079 -0.132859885692596436 0.147148445248603821
0.0549062080681324005 0.267000347375869751 0.348748534917831421
0.102495826780796051 0.364416152238845825 0.202580764889717102
0.219443008303642273 0.124782465398311615 0.300458580255508423
0.0453516654670238495 0.173300668597221375 0.308369487524032593
0.174872085452079773 -0.0295934826135635376 0.144159004092216492
0.24600982666015625 0.0799990296363830566 0.26820865273475647
-0.200738266110420227 0.217297449707984924 -0.0147040681913495064
-0.186113998293876648 0.107475496828556061 0.177766010165214539
-0.154913589358329773 -0.082257784903049469 0.304889529943466187
0.00478871678933501244 0.311623424291610718 0.0248452816158533096
0.0236371364444494247 0.169359132647514343 0.201595619320869446
0.069174446165561676 -0.0429162420332431793 0.273435115814208984
0.0481885261833667755 0.304141968488693237 0.246232509613037109
0.240172073245048523 0.196817278861999512 0.216639682650566101
0.275691986083984375 -0.0222474262118339539 0.180559948086738586
3 0 1 2
3 1 3 4
3 2 1 4
3 3 5 6
3 4 3 6
3 5 7 6
3 0 8 9
3 1 0 9
3 9 10 1
3 1 10 3
3 10 11 3
3 3 11 5
3 5 11 12
3 7 5 12
3 8 13 14
3 9 8 14
3 14 15 9
3 9 15 10
3 15 16 10
3 10 16 11
3 11 16 17
3 12 11 17
3 14 13 18
3 15 14 18
3 19 15 18
3 16 15 19
3 20 16 19
3 16 20 17
3 21 22 23
3 22 24 25
3 23 22 25
3 24 26 27
3 25 24 27
3 26 28 27
3 29 30 31
3 2 22 21
3 0 2 21
3 0 21 31
3 0 31 30
3 4 22 2
3 24 22 4
3 6 24 4
3 26 24 6
3 26 32 28
3 6 32 26
3 6 33 32
3 6 7 33
3 33 34 32
3 29 35 36
3 30 29 36
3 36 0 30
3 8 0 36
3 12 33 7
3 37 33 12
3 33 37 38
3 34 33 38
3 35 39 40
3 36 35 40
3 40 8 36
3 13 8 40
3 17 37 12
3 41 37 17
3 37 41 42
3 38 37 42
3 40 39 43
3 43 44 45
3 40 43 45
3 40 45 18
3 40 18 13
3 18 46 19
3 45 46 18
3 19 47 20
3 46 47 19
3 48 49 41
3 47 48 41
3 47 41 17
3 47 17 20
3 41 49 42
3 45 44 50
3 46 45 50
3 51 46 50
3 47 46 51
3 52 47 51
3 47 52 48
3 53 21 23
3 54 53 23
3 23 25 54
3 25 55 54
3 25 27 55
3 27 56 55
3 28 57 56
3 27 28 56
3 58 29 31
3 59 58 31
3 31 53 59
3 21 53 31
3 60 28 32
3 57 28 60
3 34 61 60
3 32 34 60
3 35 29 62
3 62 29 58
3 38 63 34
3 63 61 34
3 39 35 64
3 64 35 62
3 42 65 38
3 65 63 38
3 66 43 39
3 64 66 39
3 44 66 67
3 43 66 44
3 68 49 48
3 69 49 68
3 49 69 65
3 42 49 65
3 70 50 44
3 67 70 44
3 50 70 51
3 51 70 71
3 51 71 52
3 52 71 72
3 52 72 68
3 48 52 68
3 73 53 54
3 74 73 54
3 54 55 74
3 55 75 74
3 55 56 75
3 56 76 75
3 57 77 76
3 56 57 76
3 78 58 59
3 79 78 59
3 59 73 79
3 53 73 59
3 80 57 60
3 77 57 80
3 61 81 80
3 60 61 80
3 62 58 82
3 82 58 78
3 63 83 61
3 83 81 61
3 64 62 84
3 84 62 82
3 65 85 63
3 85 83 63
3 86 66 64
3 84 86 64
3 67 86 87
3 66 86 67
3 88 69 68
3 89 69 88
3 69 89 85
3 65 69 85
3 90 70 67
3 87 90 67
3 70 90 71
3 71 90 91
3 71 91 72
3 72 91 92
3 72 92 88
3 68 72 88
3 73 74 93
3 74 75 94
3 93 74 94
3 75 76 95
3 94 75 95
3 76 77 95
3 78 79 96
3 97 93 98
3 96 93 97
3 96 73 93
3 96 79 73
3 94 98 93
3 99 98 94
3 95 99 94
3 100 99 95
3 100 101 102
3 95 101 100
3 95 80 101
3 95 77 80
3 80 81 101
3 82 78 96
3 103 82 96
3 96 104 103
3 97 104 96
3 102 105 106
3 101 105 102
3 105 101 81
3 83 105 81
3 84 82 103
3 107 84 103
3 103 108 107
3 104 108 103
3 106 109 110
3 105 109 106
3 109 105 83
3 85 109 83
3 86 84 107
3 107 108 111
3 86 107 111
3 86 111 112
3 86 112 87
3 112 113 114
3 111 113 112
3 114 115 116
3 113 115 114
3 89 110 109
3 88 110 89
3 88 115 110
3 88 116 115
3 89 109 85
3 90 87 112
3 91 90 112
3 114 91 112
3 92 91 114
3 116 92 114
3 92 116 88
3 97 98 117
3 98 99 118
3 117 98 118
3 99 100 119
3 118 99 119
3 100 102 119
3 104 97 117
3 120 104 117
3 120 117 121
3 117 118 121
3 121 118 122
3 118 119 122
3 122 119 102
3 106 122 102
3 108 104 120
3 123 108 120
3 123 120 124
3 120 121 124
3 124 121 125
3 121 122 125
3 125 122 106
3 110 125 106
3 111 108 123
3 113 111 123
3 124 113 123
3 115 113 124
3 125 115 124
3 115 125 110
