ply
format ascii 1.0
comment VCGLIB generated
element vertex 126
property float x
property float y
property float z
element face 248
property list uchar int vertex_indices
end_header
-0.287097930908203125 0.280232697725296021 -0.592248916625976562
-0.23358917236328125 0.219286322593688965 -0.549973964691162109
-0.262262970209121704 0.258850693702697754 -0.455279678106307983
-0.207017257809638977 0.0192393343895673752 -0.466159969568252563
-0.277116149663925171 0.0398983769118785858 -0.389017254114151001
-0.217980697751045227 -0.204561159014701843 -0.435587078332901001
-0.312544494867324829 -0.182358726859092712 -0.37970384955406189
-0.168137863278388977 -0.187748849391937256 -0.322305202484130859
-0.065469108521938324 0.249106690287590027 -0.580359756946563721
-0.058200836181640625 0.184614107012748718 -0.479244858026504517
0.00680033350363373756 -0.00545119075104594231 -0.471158027648925781
0.00897216796875 -0.214956939220428467 -0.469725131988525391
0.0208409633487462997 -0.259959101676940918 -0.383798927068710327
0.124263763427734375 0.261761009693145752 -0.473135471343994141
0.166043594479560852 0.17926865816116333 -0.515345096588134766
0.204085037112236023 -0.0361228473484516144 -0.438438266515731812
0.186127975583076477 -0.265173673629760742 -0.401272773742675781
0.179400131106376648 -0.378817558288574219 -0.342380374670028687
0.252104431390762329 0.194275721907615662 -0.42627987265586853
0.298191070556640625 -0.0544952638447284698 -0.414068847894668579
0.265666961669921875 -0.305741161108016968 -0.380424171686172485
-0.4343414306640625 0.423635005950927734 -0.342170089483261108
-0.396597534418106079 0.293741136789321899 -0.334349304437637329
-0.480424255132675171 0.318888813257217407 -0.272581577301025391
-0.41468048095703125 0.0738263353705406189 -0.300350993871688843
-0.454828888177871704 0.0980116650462150574 -0.196336105465888977
-0.406197875738143921 -0.154347464442253113 -0.236516788601875305
-0.373793274164199829 -0.11062910407781601 -0.14605538547039032
-0.368206024169921875 -0.215159878134727478 -0.117491245269775391
-0.24536895751953125 0.558213770389556885 -0.522175967693328857
-0.292893737554550171 0.465610504150390625 -0.612764537334442139
-0.311206817626953125 0.500626981258392334 -0.464023113250732422
-0.198090866208076477 -0.246254876255989075 -0.0831823348999023438
-0.152844741940498352 -0.153309866786003113 -0.160309001803398132
-0.119325004518032074 -0.168031394481658936 -0.0671354904770851135
-0.091183982789516449 0.511965572834014893 -0.438247531652450562
-0.0422007255256175995 0.436435222625732422 -0.549408614635467529
-0.085263572633266449 -0.381487578153610229 -0.239674732089042664
-0.027740478515625 -0.347326785326004028 -0.0919852256774902344
0.090769447386264801 0.481613039970397949 -0.340470314025878906
0.112572990357875824 0.417265385389328003 -0.401957660913467407
0.154612228274345398 -0.42988094687461853 -0.183542415499687195
0.156759902834892273 -0.409086674451828003 -0.100285209715366364
0.185513809323310852 0.424834519624710083 -0.299397140741348267
0.308755248785018921 0.308731645345687866 -0.214498043060302734
0.334154754877090454 0.196920678019523621 -0.273865371942520142
0.371083587408065796 -0.0227961316704750061 -0.258699566125869751
0.371003478765487671 -0.243740782141685486 -0.229976177215576172
0.40186309814453125 -0.325927019119262695 -0.103312648832798004
0.267937988042831421 -0.454694360494613647 -0.0856947898864746094
0.340610504150390625 0.204108357429504395 -0.176036044955253601
0.414040893316268921 -0.020586824044585228 -0.155133724212646484
0.427682250738143921 -0.242287054657936096 -0.126359149813652039
-0.331516265869140625 0.469909548759460449 -0.162325859069824219
-0.343461364507675171 0.370094925165176392 -0.0923501625657081604
-0.343227386474609375 0.156676515936851501 0.000630219758022576571
-0.361248016357421875 -0.0548735298216342926 0.0703396797180175781
-0.415167480707168579 -0.152170717716217041 0.0894791260361671448
-0.261555999517440796 0.627618491649627686 -0.311235576868057251
-0.350069671869277954 0.622855126857757568 -0.211668804287910461
-0.240964248776435852 -0.172290876507759094 0.134733989834785461
-0.317022949457168579 -0.251238197088241577 0.0796599388122558594
-0.112873077392578125 0.496724635362625122 -0.225069209933280945
-0.0435918159782886505 -0.411726564168930054 0.14267142117023468
0.0536511726677417755 0.52090829610824585 -0.13568878173828125
0.190776824951171875 -0.418296009302139282 0.146399334073066711
0.153601333498954773 0.496976941823959351 -0.0996646881103515625
0.268374115228652954 0.33348354697227478 -0.0105104446411132812
0.415551513433456421 -0.2994842529296875 0.120182357728481293
0.250742584466934204 -0.339143037796020508 0.105210304260253906
0.338352203369140625 0.235925748944282532 0.0316319465637207031
0.31809234619140625 0.00552612589672207832 0.043713252991437912
0.338700622320175171 -0.221575677394866943 0.07654571533203125
-0.412877410650253296 0.523339569568634033 0.0647668838500976562
-0.41977691650390625 0.426960080862045288 0.12180105596780777
-0.434960693120956421 0.216631427407264709 0.200786754488945007
-0.466002136468887329 0.00792179815471172333 0.26499524712562561
-0.397551208734512329 -0.0737702995538711548 0.293550491333007812
-0.223561599850654602 0.466195225715637207 -0.107488632202148438
-0.272078186273574829 0.49092450737953186 -0.029415130615234375
-0.256689697504043579 -0.173099815845489502 0.336862564086914062
-0.264490753412246704 -0.269994229078292847 0.330438762903213501
-0.0381075553596019745 0.532912313938140869 -0.0546689033508300781
-0.03271484375 -0.263088345527648926 0.327919632196426392
0.169375106692314148 0.554789245128631592 0.0214563999325037003
0.221875503659248352 -0.254124850034713745 0.341327518224716187
0.105635322630405426 0.495270252227783203 0.119562946259975433
0.200707748532295227 0.357817888259887695 0.200108051300048828
0.392181396484375 -0.191926255822181702 0.312207072973251343
0.275465637445449829 -0.315349727869033813 0.327342182397842407
0.218695327639579773 0.24874192476272583 0.221014812588691711
0.238268539309501648 0.0284750442951917648 0.251812785863876343
0.28160858154296875 -0.187458828091621399 0.289556175470352173
-0.382047027349472046 0.467477351427078247 0.213400840759277344
-0.433039337396621704 0.251169294118881226 0.303832203149795532
-0.456572204828262329 0.0193852744996547699 0.372125297784805298
-0.218678787350654602 0.361577242612838745 -0.0189024601131677628
-0.139199569821357727 0.361354976892471313 0.151384994387626648
-0.206883743405342102 0.404160618782043457 0.270308822393417358
-0.272313445806503296 0.218968749046325684 0.393209785223007202
-0.314217895269393921 0.0134218186140060425 0.482920557260513306
-0.260164886713027954 -0.25199204683303833 0.44089159369468689
-0.207061767578125 -0.086307138204574585 0.499863773584365845
-0.0120480852201581001 0.416766166687011719 0.000553766905795782804
0.025997161865234375 0.244193330407142639 0.083136238157749176
0.0235532131046056747 -0.166104093194007874 0.389342933893203735
0.0193163547664880753 0.00915835145860910416 0.353228241205215454
0.2223968505859375 0.458331584930419922 0.0601191520690917969
0.213205978274345398 0.323262721300125122 0.178709506988525391
0.226807907223701477 -0.120924241840839386 0.25953945517539978
0.167881011962890625 -0.17005486786365509 0.504950761795043945
0.30315399169921875 0.236549422144889832 0.211287811398506165
0.154401138424873352 0.270414024591445923 0.299536705017089844
0.324769347906112671 0.0424263328313827515 0.35467180609703064
0.151421859860420227 0.0389260835945606232 0.314503192901611328
0.280291229486465454 -0.0709869712591171265 0.541418254375457764
0.276468902826309204 -0.138176947832107544 0.377560138702392578
-0.140127822756767273 0.326953291893005371 0.250265121459960938
-0.16684722900390625 0.198768898844718933 0.420017391443252563
-0.216813400387763977 0.00872471090406179428 0.525861680507659912
0.00248845410533249378 0.18278813362121582 0.171575069427490234
0.0413805656135082245 0.111998081207275391 0.379300445318222046
0.0117657976225018501 -0.0298128966242074966 0.533022582530975342
0.20206451416015625 0.230190515518188477 0.245090320706367493
0.225671127438545227 0.0147495819255709648 0.320339828729629517
0.203716278076171875 -0.145292535424232483 0.473249286413192749
3 0 1 2
3 1 3 4
3 2 1 4
3 3 5 6
3 4 3 6
3 5 7 6
3 0 8 9
3 1 0 9
3 9 10 1
3 1 10 3
3 10 11 3
3 3 11 5
3 5 11 12
3 7 5 12
3 8 13 14
3 9 8 14
3 14 15 9
3 9 15 10
3 15 16 10
3 10 16 11
3 11 16 17
3 12 11 17
3 14 13 18
3 15 14 18
3 19 15 18
3 16 15 19
3 20 16 19
3 16 20 17
3 21 22 23
3 22 24 25
3 23 22 25
3 24 26 27
3 25 24 27
3 26 28 27
3 29 30 31
3 2 22 21
3 0 2 21
3 0 21 31
3 0 31 30
3 4 22 2
3 24 22 4
3 6 24 4
3 26 24 6
3 26 32 28
3 6 32 26
3 6 33 32
3 6 7 33
3 33 34 32
3 29 35 36
3 30 29 36
3 36 0 30
3 8 0 36
3 12 33 7
3 37 33 12
3 33 37 38
3 34 33 38
3 35 39 40
3 36 35 40
3 40 8 36
3 13 8 40
3 17 37 12
3 41 37 17
3 37 41 42
3 38 37 42
3 40 39 43
3 43 44 45
3 40 43 45
3 40 45 18
3 40 18 13
3 18 46 19
3 45 46 18
3 19 47 20
3 46 47 19
3 48 49 41
3 47 48 41
3 47 41 17
3 47 17 20
3 41 49 42
3 45 44 50
3 46 45 50
3 51 46 50
3 47 46 51
3 52 47 51
3 47 52 48
3 53 21 23
3 54 53 23
3 23 25 54
3 25 55 54
3 25 27 55
3 27 56 55
3 28 57 56
3 27 28 56
3 58 29 31
3 59 58 31
3 31 53 59
3 21 53 31
3 60 28 32
3 57 28 60
3 34 61 60
3 32 34 60
3 35 29 62
3 62 29 58
3 38 63 34
3 63 61 34
3 39 35 64
3 64 35 62
3 42 65 38
3 65 63 38
3 66 43 39
3 64 66 39
3 44 66 67
3 43 66 44
3 68 49 48
3 69 49 68
3 49 69 65
3 42 49 65
3 70 50 44
3 67 70 44
3 50 70 51
3 51 70 71
3 51 71 52
3 52 71 72
3 52 72 68
3 48 52 68
3 73 53 54
3 74 73 54
3 54 55 74
3 55 75 74
3 55 56 75
3 56 76 75
3 57 77 76
3 56 57 76
3 78 58 59
3 79 78 59
3 59 73 79
3 53 73 59
3 80 57 60
3 77 57 80
3 61 81 80
3 60 61 80
3 62 58 82
3 82 58 78
3 63 83 61
3 83 81 61
3 64 62 84
3 84 62 82
3 65 85 63
3 85 83 63
3 86 66 64
3 84 86 64
3 67 86 87
3 66 86 67
3 88 69 68
3 89 69 88
3 69 89 85
3 65 69 85
3 90 70 67
3 87 90 67
3 70 90 71
3 71 90 91
3 71 91 72
3 72 91 92
3 72 92 88
3 68 72 88
3 73 74 93
3 74 75 94
3 93 74 94
3 75 76 95
3 94 75 95
3 76 77 95
3 78 79 96
3 97 93 98
3 96 93 97
3 96 73 93
3 96 79 73
3 94 98 93
3 99 98 94
3 95 99 94
3 100 99 95
3 100 101 102
3 95 101 100
3 95 80 101
3 95 77 80
3 80 81 101
3 82 78 96
3 103 82 96
3 96 104 103
3 97 104 96
3 102 105 106
3 101 105 102
3 105 101 81
3 83 105 81
3 84 82 103
3 107 84 103
3 103 108 107
3 104 108 103
3 106 109 110
3 105 109 106
3 109 105 83
3 85 109 83
3 86 84 107
3 107 108 111
3 86 107 111
3 86 111 112
3 86 112 87
3 112 113 114
3 111 113 112
3 114 115 116
3 113 115 114
3 89 110 109
3 88 110 89
3 88 115 110
3 88 116 115
3 89 109 85
3 90 87 112
3 91 90 112
3 114 91 112
3 92 91 114
3 116 92 114
3 92 116 88
3 97 98 117
3 98 99 118
3 117 98 118
3 99 100 119
3 118 99 119
3 100 102 119
3 104 97 117
3 120 104 117
3 120 117 121
3 117 118 121
3 121 118 122
3 118 119 122
3 122 119 102
3 106 122 102
3 108 104 120
3 123 108 120
3 123 120 124
3 120 121 124
3 124 121 125
3 121 122 125
3 125 122 106
3 110 125 106
3 111 108 123
3 113 111 123
3 124 113 123
3 115 113 124
3 125 115 124
3 115 125 110
