ply
format ascii 1.0
comment VCGLIB generated
element vertex 126
property float x
property float y
property float z
element face 248
property list uchar int vertex_indices
end_header
-0.247563675045967102 -0.00508038746193051338 -0.473139137029647827
-0.259836822748184204 -0.0871553495526313782 -0.422391563653945923
-0.235205337405204773 -0.0088296104222536087 -0.338432461023330688
-0.31365966796875 -0.238701403141021729 -0.25588575005531311
-0.301797240972518921 -0.16732768714427948 -0.177917793393135071
-0.319981902837753296 -0.220795497298240662 -0.0419484786689281464
-0.369553893804550171 -0.29039919376373291 0.000216007232666015625
-0.277408599853515625 -0.194470509886741638 0.0598810501396656036
-0.0268643703311681747 -0.00124875654000788927 -0.4329986572265625
-0.0411694832146167755 -0.0836294367909431458 -0.36829105019569397
-0.093385063111782074 -0.189270272850990295 -0.186425372958183289
-0.130831405520439148 -0.330248832702636719 -0.0176631603389978409
-0.130265548825263977 -0.342024117708206177 0.0977551117539405823
0.189935043454170227 -0.00260188686661422253 -0.360121876001358032
0.174526214599609375 -0.101585686206817627 -0.320550918579101562
0.119537353515625 -0.278753221035003662 -0.189516067504882812
0.0503489188849925995 -0.454392999410629272 -0.0723821297287940979
0.0381978340446949005 -0.475520581007003784 0.0393010787665843964
0.157422378659248352 -0.036739785224199295 -0.230118915438652039
0.144800826907157898 -0.221301868557929993 -0.0970126762986183167
0.150763198733329773 -0.428239732980728149 -0.015419800765812397
-0.420063018798828125 0.170288801193237305 -0.270004600286483765
-0.303202301263809204 0.119189165532588959 -0.215235069394111633
-0.39794921875 0.0961935892701148987 -0.18567068874835968
-0.263104766607284546 -0.032927345484495163 -0.0736942291259765625
-0.365259796380996704 -0.0480892062187194824 -0.0206677112728357315
-0.234697982668876648 -0.22720085084438324 0.0199483241885900497
-0.259980529546737671 -0.207999944686889648 0.127068206667900085
-0.349290221929550171 -0.225483357906341553 0.129686996340751648
-0.245831802487373352 0.27640688419342041 -0.450612545013427734
-0.247957870364189148 0.186437368392944336 -0.521361172199249268
-0.341498047113418579 0.241222366690635681 -0.420227855443954468
-0.27478790283203125 -0.0568610690534114838 0.208213329315185547
-0.210381820797920227 -0.149863824248313904 0.231139346957206726
-0.077616371214389801 -0.0815340951085090637 0.220105811953544617
-0.0367113761603832245 0.244903042912483215 -0.381295531988143921
-0.022212982177734375 0.173146769404411316 -0.461970001459121704
-0.03340911865234375 -0.172905504703521729 0.177486106753349304
0.00967280101031064987 0.00622090371325612068 0.274616390466690063
0.184130355715751648 0.259672939777374268 -0.351650387048721313
0.198092147707939148 0.167936012148857117 -0.410798877477645874
0.083178199827671051 -0.424918621778488159 0.208626583218574524
0.161360427737236023 -0.151535645127296448 0.298417896032333374
0.2711029052734375 0.213421225547790527 -0.30350986123085022
0.36904144287109375 0.0946749746799468994 -0.209669426083564758
0.337229400873184204 -0.0413336344063282013 -0.221035480499267578
0.32410430908203125 -0.22207428514957428 -0.0872314795851707458
0.322236388921737671 -0.380798101425170898 0.0702689513564109802
0.32135009765625 -0.284078776836395264 0.214815452694892883
0.153642013669013977 -0.267767518758773804 0.260461807250976562
0.39350128173828125 0.012724132277071476 -0.144580364227294922
0.395902007818222046 -0.166623666882514954 -0.0252065658569335938
0.384246826171875 -0.305646032094955444 0.13576953113079071
-0.304754883050918579 0.322864681482315063 -0.146595001220703125
-0.2783203125 0.247207403182983398 -0.0640977248549461365
-0.248685196042060852 0.10948624461889267 0.120487689971923828
-0.252028137445449829 -0.0469975359737873077 0.299408107995986938
-0.214019775390625 -0.0935649275779724121 0.236878395080566406
-0.272013336420059204 0.428884148597717285 -0.278961330652236938
-0.37969970703125 0.413678139448165894 -0.279500007629394531
-0.187012985348701477 -0.15242399275302887 0.372889846563339233
-0.08286285400390625 -0.0225058067589998245 0.432204395532608032
-0.055667877197265625 0.40971219539642334 -0.232542678713798523
0.106009162962436676 0.148923501372337341 0.500074148178100586
0.154513046145439148 0.382080405950546265 -0.166257217526435852
0.296199798583984375 0.0474249869585037231 0.353645801544189453
0.225866958498954773 0.321740835905075073 -0.112236656248569489
0.348063141107559204 0.225274369120597839 -0.0256748199462890625
0.310975402593612671 -0.0594757162034511566 0.18096478283405304
0.2393035888671875 -0.071455635130405426 0.333467006683349609
0.344804137945175171 0.141833499073982239 0.0366900749504566193
0.236569717526435852 -0.0412487983703613281 0.08600616455078125
0.259227752685546875 -0.187761008739471436 0.255603939294815063
-0.403097778558731079 0.455048441886901855 0.00579881668090820312
-0.437672942876815796 0.365571141242980957 0.0611286163330078125
-0.445006042718887329 0.191334962844848633 0.198082447052001953
-0.452939361333847046 0.00118993676733225584 0.313446998596191406
-0.385079711675643921 -0.0661909207701683044 0.37153211236000061
-0.258426666259765625 0.250855118036270142 -0.13952954113483429
-0.299299865961074829 0.339518755674362183 -0.086350761353969574
-0.3143768310546875 -0.164673462510108948 0.515167713165283203
-0.189671829342842102 -0.206057801842689514 0.501311719417572021
-0.103029884397983551 0.35488399863243103 -0.0199252758175134659
0.069964088499546051 -0.160940542817115784 0.552780866622924805
0.087818145751953125 0.237923815846443176 -0.00716749811545014381
0.296225219964981079 -0.191158905625343323 0.5323905348777771
0.075199127197265625 0.159227967262268066 -0.0833331719040870667
0.143904373049736023 0.233487963676452637 0.0655679702758789062
0.491240173578262329 -0.057741459459066391 0.309875965118408203
0.417992919683456421 -0.134298995137214661 0.481911510229110718
0.185331985354423523 0.250361353158950806 0.16740734875202179
0.224147796630859375 0.0739517807960510254 0.298772186040878296
0.403905242681503296 -0.0733765140175819397 0.228038787841796875
-0.421295166015625 0.430472522974014282 0.145044803619384766
-0.450307220220565796 0.25329744815826416 0.286165237426757812
-0.428386688232421875 0.0610873810946941376 0.405388832092285156
-0.303559631109237671 0.208166122436523438 -0.0486602783203125
-0.194758102297782898 0.332322925329208374 0.0228290557861328125
-0.245894119143486023 0.388390630483627319 0.140279769897460938
-0.288543701171875 0.300906985998153687 0.347902774810791016
-0.292166382074356079 0.132017999887466431 0.493504047393798828
-0.214421585202217102 -0.123889625072479248 0.564680278301239014
-0.213863372802734375 0.05341300368309021 0.570860445499420166
-0.14096832275390625 0.305545032024383545 0.0697991028428077698
-0.0243771877139806747 0.186735332012176514 -0.000653425871860235929
0.0185025539249181747 -0.104998625814914703 0.551824808120727539
-0.014434814453125 0.0280249472707509995 0.469597965478897095
0.0262273158878087997 0.161218300461769104 0.043666839599609375
0.144306182861328125 0.290272563695907593 0.0981353148818016052
0.2608184814453125 -0.113078117370605469 0.500107049942016602
0.201877593994140625 0.0293614938855171204 0.397726207971572876
0.250751495361328125 0.243206202983856201 0.17102639377117157
0.074049629271030426 0.223941817879676819 0.182998180389404297
0.284289032220840454 0.0609328038990497589 0.297498077154159546
0.142285659909248352 0.00649163359776139259 0.233786582946777344
0.263006836175918579 -0.0668669342994689941 0.477288484573364258
0.336771637201309204 -0.0760638639330863953 0.309882789850234985
-0.220896407961845398 0.284691363573074341 0.118116535246372223
-0.202106475830078125 0.238081708550453186 0.333282470703125
-0.199794769287109375 0.158663287758827209 0.541115343570709229
-0.0531641654670238495 0.139586895704269409 0.0943050384521484375
0.0104497270658612251 0.172386571764945984 0.306157737970352173
0.0208727512508630753 0.119181372225284576 0.522776365280151367
0.138226822018623352 0.225482538342475891 0.181517124176025391
0.178984329104423523 0.0281875655055046082 0.274786472320556641
0.229120895266532898 0.0389066152274608612 0.498165518045425415
3 0 1 2
3 1 3 4
3 2 1 4
3 3 5 6
3 4 3 6
3 5 7 6
3 0 8 9
3 1 0 9
3 9 10 1
3 1 10 3
3 10 11 3
3 3 11 5
3 5 11 12
3 7 5 12
3 8 13 14
3 9 8 14
3 14 15 9
3 9 15 10
3 15 16 10
3 10 16 11
3 11 16 17
3 12 11 17
3 14 13 18
3 15 14 18
3 19 15 18
3 16 15 19
3 20 16 19
3 16 20 17
3 21 22 23
3 22 24 25
3 23 22 25
3 24 26 27
3 25 24 27
3 26 28 27
3 29 30 31
3 2 22 21
3 0 2 21
3 0 21 31
3 0 31 30
3 4 22 2
3 24 22 4
3 6 24 4
3 26 24 6
3 26 32 28
3 6 32 26
3 6 33 32
3 6 7 33
3 33 34 32
3 29 35 36
3 30 29 36
3 36 0 30
3 8 0 36
3 12 33 7
3 37 33 12
3 33 37 38
3 34 33 38
3 35 39 40
3 36 35 40
3 40 8 36
3 13 8 40
3 17 37 12
3 41 37 17
3 37 41 42
3 38 37 42
3 40 39 43
3 43 44 45
3 40 43 45
3 40 45 18
3 40 18 13
3 18 46 19
3 45 46 18
3 19 47 20
3 46 47 19
3 48 49 41
3 47 48 41
3 47 41 17
3 47 17 20
3 41 49 42
3 45 44 50
3 46 45 50
3 51 46 50
3 47 46 51
3 52 47 51
3 47 52 48
3 53 21 23
3 54 53 23
3 23 25 54
3 25 55 54
3 25 27 55
3 27 56 55
3 28 57 56
3 27 28 56
3 58 29 31
3 59 58 31
3 31 53 59
3 21 53 31
3 60 28 32
3 57 28 60
3 34 61 60
3 32 34 60
3 35 29 62
3 62 29 58
3 38 63 34
3 63 61 34
3 39 35 64
3 64 35 62
3 42 65 38
3 65 63 38
3 66 43 39
3 64 66 39
3 44 66 67
3 43 66 44
3 68 49 48
3 69 49 68
3 49 69 65
3 42 49 65
3 70 50 44
3 67 70 44
3 50 70 51
3 51 70 71
3 51 71 52
3 52 71 72
3 52 72 68
3 48 52 68
3 73 53 54
3 74 73 54
3 54 55 74
3 55 75 74
3 55 56 75
3 56 76 75
3 57 77 76
3 56 57 76
3 78 58 59
3 79 78 59
3 59 73 79
3 53 73 59
3 80 57 60
3 77 57 80
3 61 81 80
3 60 61 80
3 62 58 82
3 82 58 78
3 63 83 61
3 83 81 61
3 64 62 84
3 84 62 82
3 65 85 63
3 85 83 63
3 86 66 64
3 84 86 64
3 67 86 87
3 66 86 67
3 88 69 68
3 89 69 88
3 69 89 85
3 65 69 85
3 90 70 67
3 87 90 67
3 70 90 71
3 71 90 91
3 71 91 72
3 72 91 92
3 72 92 88
3 68 72 88
3 73 74 93
3 74 75 94
3 93 74 94
3 75 76 95
3 94 75 95
3 76 77 95
3 78 79 96
3 97 93 98
3 96 93 97
3 96 73 93
3 96 79 73
3 94 98 93
3 99 98 94
3 95 99 94
3 100 99 95
3 100 101 102
3 95 101 100
3 95 80 101
3 95 77 80
3 80 81 101
3 82 78 96
3 103 82 96
3 96 104 103
3 97 104 96
3 102 105 106
3 101 105 102
3 105 101 81
3 83 105 81
3 84 82 103
3 107 84 103
3 103 108 107
3 104 108 103
3 106 109 110
3 105 109 106
3 109 105 83
3 85 109 83
3 86 84 107
3 107 108 111
3 86 107 111
3 86 111 112
3 86 112 87
3 112 113 114
3 111 113 112
3 114 115 116
3 113 115 114
3 89 110 109
3 88 110 89
3 88 115 110
3 88 116 115
3 89 109 85
3 90 87 112
3 91 90 112
3 114 91 112
3 92 91 114
3 116 92 114
3 92 116 88
3 97 98 117
3 98 99 118
3 117 98 118
3 99 100 119
3 118 99 119
3 100 102 119
3 104 97 117
3 120 104 117
3 120 117 121
3 117 118 121
3 121 118 122
3 118 119 122
3 122 119 102
3 106 122 102
3 108 104 120
3 123 108 120
3 123 120 124
3 120 121 124
3 124 121 125
3 121 122 125
3 125 122 106
3 110 125 106
3 111 108 123
3 113 111 123
3 124 113 123
3 115 113 124
3 125 115 124
3 115 125 110
