ply
format ascii 1.0
comment VCGLIB generated
element vertex 126
property float x
property float y
property float z
element face 248
property list uchar int vertex_indices
end_header
-0.229098007082939148 0.163565173745155334 -0.410173743963241577
-0.235830947756767273 0.0867414847016334534 -0.503264248371124268
-0.345546722412109375 0.107013173401355743 -0.438905715942382812
-0.205392196774482727 -0.0342378988862037659 -0.32346692681312561
-0.335938781499862671 -0.0799483731389045715 -0.316716670989990234
-0.290044158697128296 -0.194416210055351257 -0.188507393002510071
-0.21755218505859375 -0.248464226722717285 -0.213316440582275391
-0.272177368402481079 -0.249528944492340088 -0.0936293601989746094
-0.00492223119363188744 0.140501618385314941 -0.37546268105506897
-0.0140444440767168999 0.0394859127700328827 -0.427923053503036499
-0.06409454345703125 -0.178310021758079529 -0.414311081171035767
-0.124369300901889801 -0.332693129777908325 -0.26001739501953125
-0.158891037106513977 -0.414564967155456543 -0.197491958737373352
0.211060836911201477 0.105309225618839264 -0.315310627222061157
0.19573974609375 -0.00411219522356987 -0.346068382263183594
0.137110397219657898 -0.224320054054260254 -0.32667270302772522
0.072870887815952301 -0.431620389223098755 -0.263453155755996704
0.0372479744255542755 -0.518799901008605957 -0.195491626858711243
0.198916122317314148 -0.00725645711645483971 -0.236665248870849609
0.213030502200126648 -0.230058982968330383 -0.241853401064872742
0.078333534300327301 -0.39192923903465271 -0.161143302917480469
-0.481702178716659546 0.164631009101867676 -0.221490219235420227
-0.513478577136993408 0.126302480697631836 -0.34252515435218811
-0.570494353771209717 0.164402350783348083 -0.238468334078788757
-0.538172423839569092 -0.106764353811740875 -0.30984148383140564
-0.671284973621368408 -0.0489510409533977509 -0.266524940729141235
-0.391110748052597046 -0.271576404571533203 -0.205688312649726868
-0.496115356683731079 -0.272403299808502197 -0.201413944363594055
-0.43843841552734375 -0.365050405263900757 -0.113866649568080902
-0.248221084475517273 0.361120492219924927 -0.193486049771308899
-0.226916000247001648 0.302542895078659058 -0.283424526453018188
-0.319606781005859375 0.2555370032787323 -0.177795246243476868
-0.320770263671875 -0.5053444504737854 -0.0704717636108398438
-0.353059142827987671 -0.378043532371520996 0.000861644744873046875
-0.357954651117324829 -0.395559757947921753 -0.0961325988173484802
-0.0294965114444494247 0.336676567792892456 -0.165370777249336243
-0.0111096696928143501 0.285832107067108154 -0.263696819543838501
-0.130677536129951477 -0.345414727926254272 -0.0315327644348144531
-0.13796234130859375 -0.404650121927261353 -0.105676807463169098
0.189413711428642273 0.318842649459838867 -0.1280975341796875
0.206897735595703125 0.262399464845657349 -0.220786094665527344
-0.093249000608921051 -0.564928293228149414 -0.075604759156703949
-0.095266975462436676 -0.57976001501083374 0.0345217399299144745
0.281829833984375 0.26709514856338501 -0.102042041718959808
0.361957550048828125 0.112773418426513672 -0.0581536293029785156
0.338423401117324829 -0.00632775714620947838 -0.124539054930210114
0.29755401611328125 -0.225383758544921875 -0.0803494453430175781
0.126501724123954773 -0.355106592178344727 0.00435193395242094994
0.148604080080986023 -0.493035554885864258 0.0411316566169261932
0.00837071705609560013 -0.600821018218994141 0.00652726506814360619
0.375 0.00727515807375311852 -0.0215713176876306534
0.3250885009765625 -0.204489365220069885 0.0262953434139490128
0.216214492917060852 -0.40637516975402832 0.0211935043334960938
-0.532665252685546875 0.21030716598033905 -0.0011539459228515625
-0.617554962635040283 0.134031102061271667 -0.00991964340209960938
-0.48016357421875 -0.00347180268727242947 -0.0906866416335105896
-0.387463897466659546 -0.206784069538116455 0.0457000732421875
-0.379336029291152954 -0.297786414623260498 0.0949214324355125427
-0.282679229974746704 0.404581069946289062 0.0374913215637207031
-0.366616576910018921 0.311711639165878296 0.0330360718071460724
-0.24082183837890625 -0.439449220895767212 0.114909015595912933
-0.190184280276298523 -0.377538681030273438 0.009835083968937397
-0.0576604194939136505 0.365739583969116211 0.0623064041137695312
-0.1085205078125 -0.218928992748260498 0.0963034629821777344
0.152011871337890625 0.339644342660903931 0.090516410768032074
-0.0285695400089025497 -0.420719355344772339 0.181559398770332336
0.244138076901435852 0.315463155508041382 0.11827453225851059
0.305001586675643921 0.161710187792778015 0.157738044857978821
-0.000403086334699764848 -0.364101290702819824 0.152883365750312805
-0.058315277099609375 -0.523376405239105225 0.20810382068157196
0.237383529543876648 0.0747440233826637268 0.146945953369140625
0.171892806887626648 -0.131278321146965027 0.166934177279472351
0.0385080985724925995 -0.289906978607177734 0.0975292548537254333
-0.52825927734375 0.208596542477607727 0.21665365993976593
-0.636199951171875 0.168037012219429016 0.192883014678955078
-0.441903442144393921 0.048076137900352478 0.191459015011787415
-0.318560272455215454 -0.140885382890701294 0.266082912683486938
-0.296193450689315796 -0.256492882966995239 0.296975612640380859
-0.292134612798690796 0.353789657354354858 0.265791743993759155
-0.3967132568359375 0.366850495338439941 0.253823906183242798
-0.133391067385673523 -0.268636971712112427 0.227739974856376648
-0.076717376708984375 -0.396178990602493286 0.153590679168701172
-0.086917877197265625 0.275069743394851685 0.260907799005508423
0.068243660032749176 -0.202264308929443359 0.224715396761894226
0.133520767092704773 0.261002272367477417 0.303091853857040405
-0.072099052369594574 -0.344853758811950684 0.381588935852050781
0.165220901370048523 0.355856150388717651 0.330550670623779297
0.216345474123954773 0.195798084139823914 0.356436252593994141
0.166879013180732727 -0.369906783103942871 0.301337242126464844
0.013355255126953125 -0.422120004892349243 0.382933139801025391
0.129082992672920227 0.127688512206077576 0.33659777045249939
0.039459228515625 -0.080007500946521759 0.337647289037704468
0.132845565676689148 -0.276697725057601929 0.291724205017089844
-0.583994567394256592 0.180123805999755859 0.350689411163330078
-0.502349853515625 -0.0108532719314098358 0.282028526067733765
-0.4016571044921875 -0.19619278609752655 0.214938163757324219
-0.311213165521621704 0.346350938081741333 0.370923519134521484
-0.349553436040878296 0.203524231910705566 0.488198369741439819
-0.489025115966796875 0.175406649708747864 0.506194829940795898
-0.46080780029296875 -0.0435197353363037109 0.44476318359375
-0.301584869623184204 -0.192762792110443115 0.359559386968612671
-0.167668655514717102 -0.374777704477310181 0.187523528933525085
-0.289601653814315796 -0.320624023675918579 0.320612430572509766
-0.123242698609828949 0.220577016472816467 0.353963524103164673
-0.130491897463798523 0.17859967052936554 0.524303138256072998
-0.0389200858771800995 -0.195807501673698425 0.270890563726425171
-0.192849472165107727 -0.133712783455848694 0.394379466772079468
0.069817863404750824 0.325657397508621216 0.384747982025146484
0.0791473388671875 0.234375312924385071 0.553177356719970703
0.0219637546688318253 -0.31402161717414856 0.435803085565567017
0.00643285131081938744 -0.161045387387275696 0.492224365472793579
0.0123469037935137749 0.113980494439601898 0.541509091854095459
0.17021942138671875 0.117857180535793304 0.442392200231552124
-0.05269622802734375 -0.0389376170933246613 0.361777156591415405
0.11983489990234375 -0.067564062774181366 0.402506977319717407
-0.0550626106560230255 -0.267952173948287964 0.429637908935546875
0.129561111330986023 -0.288857907056808472 0.402473598718643188
-0.394182831048965454 0.175561174750328064 0.584523916244506836
-0.388379424810409546 -0.0525169037282466888 0.522210657596588135
-0.358792632818222046 -0.26481175422668457 0.411514759063720703
-0.162614181637763977 0.153945624828338623 0.630715847015380859
-0.166943863034248352 -0.0145341427996754646 0.492203623056411743
-0.145886734127998352 -0.222152054309844971 0.467082828283309937
0.0301297511905431747 0.174945607781410217 0.49683380126953125
0.0265782680362462997 -0.0244947392493486404 0.414208889007568359
0.0571492500603199005 -0.224290892481803894 0.413424164056777954
3 0 1 2
3 1 3 4
3 2 1 4
3 3 5 6
3 4 3 6
3 5 7 6
3 0 8 9
3 1 0 9
3 9 10 1
3 1 10 3
3 10 11 3
3 3 11 5
3 5 11 12
3 7 5 12
3 8 13 14
3 9 8 14
3 14 15 9
3 9 15 10
3 15 16 10
3 10 16 11
3 11 16 17
3 12 11 17
3 14 13 18
3 15 14 18
3 19 15 18
3 16 15 19
3 20 16 19
3 16 20 17
3 21 22 23
3 22 24 25
3 23 22 25
3 24 26 27
3 25 24 27
3 26 28 27
3 29 30 31
3 2 22 21
3 0 2 21
3 0 21 31
3 0 31 30
3 4 22 2
3 24 22 4
3 6 24 4
3 26 24 6
3 26 32 28
3 6 32 26
3 6 33 32
3 6 7 33
3 33 34 32
3 29 35 36
3 30 29 36
3 36 0 30
3 8 0 36
3 12 33 7
3 37 33 12
3 33 37 38
3 34 33 38
3 35 39 40
3 36 35 40
3 40 8 36
3 13 8 40
3 17 37 12
3 41 37 17
3 37 41 42
3 38 37 42
3 40 39 43
3 43 44 45
3 40 43 45
3 40 45 18
3 40 18 13
3 18 46 19
3 45 46 18
3 19 47 20
3 46 47 19
3 48 49 41
3 47 48 41
3 47 41 17
3 47 17 20
3 41 49 42
3 45 44 50
3 46 45 50
3 51 46 50
3 47 46 51
3 52 47 51
3 47 52 48
3 53 21 23
3 54 53 23
3 23 25 54
3 25 55 54
3 25 27 55
3 27 56 55
3 28 57 56
3 27 28 56
3 58 29 31
3 59 58 31
3 31 53 59
3 21 53 31
3 60 28 32
3 57 28 60
3 34 61 60
3 32 34 60
3 35 29 62
3 62 29 58
3 38 63 34
3 63 61 34
3 39 35 64
3 64 35 62
3 42 65 38
3 65 63 38
3 66 43 39
3 64 66 39
3 44 66 67
3 43 66 44
3 68 49 48
3 69 49 68
3 49 69 65
3 42 49 65
3 70 50 44
3 67 70 44
3 50 70 51
3 51 70 71
3 51 71 52
3 52 71 72
3 52 72 68
3 48 52 68
3 73 53 54
3 74 73 54
3 54 55 74
3 55 75 74
3 55 56 75
3 56 76 75
3 57 77 76
3 56 57 76
3 78 58 59
3 79 78 59
3 59 73 79
3 53 73 59
3 80 57 60
3 77 57 80
3 61 81 80
3 60 61 80
3 62 58 82
3 82 58 78
3 63 83 61
3 83 81 61
3 64 62 84
3 84 62 82
3 65 85 63
3 85 83 63
3 86 66 64
3 84 86 64
3 67 86 87
3 66 86 67
3 88 69 68
3 89 69 88
3 69 89 85
3 65 69 85
3 90 70 67
3 87 90 67
3 70 90 71
3 71 90 91
3 71 91 72
3 72 91 92
3 72 92 88
3 68 72 88
3 73 74 93
3 74 75 94
3 93 74 94
3 75 76 95
3 94 75 95
3 76 77 95
3 78 79 96
3 97 93 98
3 96 93 97
3 96 73 93
3 96 79 73
3 94 98 93
3 99 98 94
3 95 99 94
3 100 99 95
3 100 101 102
3 95 101 100
3 95 80 101
3 95 77 80
3 80 81 101
3 82 78 96
3 103 82 96
3 96 104 103
3 97 104 96
3 102 105 106
3 101 105 102
3 105 101 81
3 83 105 81
3 84 82 103
3 107 84 103
3 103 108 107
3 104 108 103
3 106 109 110
3 105 109 106
3 109 105 83
3 85 109 83
3 86 84 107
3 107 108 111
3 86 107 111
3 86 111 112
3 86 112 87
3 112 113 114
3 111 113 112
3 114 115 116
3 113 115 114
3 89 110 109
3 88 110 89
3 88 115 110
3 88 116 115
3 89 109 85
3 90 87 112
3 91 90 112
3 114 91 112
3 92 91 114
3 116 92 114
3 92 116 88
3 97 98 117
3 98 99 118
3 117 98 118
3 99 100 119
3 118 99 119
3 100 102 119
3 104 97 117
3 120 104 117
3 120 117 121
3 117 118 121
3 121 118 122
3 118 119 122
3 122 119 102
3 106 122 102
3 108 104 120
3 123 108 120
3 123 120 124
3 120 121 124
3 124 121 125
3 121 122 125
3 125 122 106
3 110 125 106
3 111 108 123
3 113 111 123
3 124 113 123
3 115 113 124
3 125 115 124
3 115 125 110
