ply
format ascii 1.0
comment VCGLIB generated
element vertex 126
property float x
property float y
property float z
element face 248
property list uchar int vertex_indices
end_header
-0.404215484857559204 0.228425443172454834 -0.474825382232666016
-0.360716491937637329 0.134049385786056519 -0.51464080810546875
-0.40366363525390625 0.0891431272029876709 -0.446380615234375
-0.308747619390487671 -0.0813226550817489624 -0.487641185522079468
-0.353267669677734375 -0.102788560092449188 -0.398935794830322266
-0.154733017086982727 -0.0581352673470973969 -0.328657776117324829
-0.215563461184501648 0.0021560171153396368 -0.263825565576553345
-0.14269256591796875 -0.0933189168572425842 -0.224354743957519531
-0.188241317868232727 0.248522236943244934 -0.434120982885360718
-0.150852203369140625 0.198932245373725891 -0.533984482288360596
-0.088312782347202301 -0.021219426766037941 -0.502567946910858154
-0.0377833060920238495 -0.226035073399543762 -0.420934200286865234
-0.035068511962890625 -0.274648040533065796 -0.313818931579589844
0.0131518049165606499 0.310953289270401001 -0.365417957305908203
0.05495452880859375 0.259560763835906982 -0.454525798559188843
0.106089271605014801 0.044902164489030838 -0.413221836090087891
0.172715499997138977 -0.171701431274414062 -0.392057746648788452
0.190291091799736023 -0.25589790940284729 -0.31933322548866272
0.145582839846611023 0.289658695459365845 -0.393199294805526733
0.209429427981376648 0.076651550829410553 -0.388987869024276733
0.262410491704940796 -0.139404669404029846 -0.339656680822372437
-0.609027862548828125 0.112338490784168243 -0.255750983953475952
-0.504411041736602783 0.110017180442810059 -0.309218406677246094
-0.506140410900115967 0.0667135193943977356 -0.209948539733886719
-0.441877990961074829 -0.131545588374137878 -0.25961717963218689
-0.361773163080215454 -0.0406361036002635956 -0.264002948999404907
-0.233937576413154602 -0.163502827286720276 -0.239464595913887024
-0.281065613031387329 -0.229958221316337585 -0.169168159365653992
-0.1797637939453125 -0.191612705588340759 -0.1306915283203125
-0.447391510009765625 0.312006324529647827 -0.214583709836006165
-0.446994781494140625 0.324124276638031006 -0.334160804748535156
-0.5564727783203125 0.330483585596084595 -0.254124164581298828
-0.166225433349609375 -0.109252415597438812 0.0291361808776855469
-0.067515052855014801 -0.124952174723148346 -0.0709398612380027771
-0.162966415286064148 -0.175797522068023682 -0.0404419898986816406
-0.268477112054824829 0.413816362619400024 -0.188180610537528992
-0.230218246579170227 0.377503752708435059 -0.307387024164199829
-0.02275848388671875 -0.331859111785888672 -0.140832111239433289
-0.011692047119140625 -0.349686592817306519 -0.0316344909369945526
-0.0570589713752269745 0.442190676927566528 -0.195783302187919617
-0.0425669364631175995 0.331526786088943481 -0.196763202548027039
0.194390609860420227 -0.345260024070739746 -0.164334610104560852
0.209527328610420227 -0.303054541349411011 -0.0649546012282371521
0.0484822578728199005 0.436482936143875122 -0.182936668395996094
0.211086273193359375 0.370033890008926392 -0.164862155914306641
0.262723296880722046 0.276407748460769653 -0.256027072668075562
0.185488387942314148 0.0714531019330024719 -0.209980323910713196
0.360103607177734375 -0.0732354745268821716 -0.20779736340045929
0.403652191162109375 -0.175996586680412292 -0.145984649658203125
0.311445862054824829 -0.324232757091522217 -0.101675830781459808
0.283556610345840454 0.289161145687103271 -0.144660159945487976
0.19936370849609375 0.0769904330372810364 -0.107395172119140625
0.295602172613143921 -0.132936805486679077 -0.135008335113525391
-0.627932250499725342 0.178203046321868896 -0.0300420131534337997
-0.609545409679412842 0.0781887248158454895 -0.0409433059394359589
-0.405064910650253296 0.0755455866456031799 -0.0930639877915382385
-0.353179931640625 -0.16185896098613739 0.0305843353271484375
-0.253819793462753296 -0.244034871459007263 0.0681440010666847229
-0.48052215576171875 0.361213594675064087 0.000603516877163201571
-0.591458618640899658 0.354794144630432129 -0.01883697509765625
-0.090833030641078949 -0.319453805685043335 0.134856864809989929
-0.185329437255859375 -0.28622514009475708 0.148154735565185547
-0.183062240481376648 0.290229827165603638 0.125990867614746094
0.03832244873046875 -0.313299685716629028 0.169708251953125
-0.070780433714389801 0.508337199687957764 0.0314984321594238281
0.263868957757949829 -0.34004172682762146 0.145870044827461243
0.0236002597957849503 0.466182947158813477 0.0396615676581859589
0.146863296627998352 0.336242884397506714 0.048675537109375
0.426344543695449829 -0.130072697997093201 0.071088157594203949
0.368854522705078125 -0.301217615604400635 0.106190204620361328
0.260275512933731079 0.328466951847076416 0.0744725838303565979
0.306399017572402954 0.121649175882339478 0.0711221694946289062
0.325987488031387329 -0.0896283164620399475 0.0855873450636863708
-0.673492431640625 0.19465954601764679 0.192722156643867493
-0.605477631092071533 0.108431346714496613 0.17885001003742218
-0.401009887456893921 0.145218327641487122 0.0874465331435203552
-0.252504974603652954 5.98962978983763605e-05 0.135835334658622742
-0.17877960205078125 -0.04686775803565979 0.110840320587158203
-0.50261688232421875 0.413303732872009277 0.219604179263114929
-0.580596923828125 0.351319640874862671 0.216884776949882507
-0.024883270263671875 -0.0773222669959068298 0.140429183840751648
-0.1357574462890625 -0.0622521974146366119 0.174576446413993835
-0.244294479489326477 0.364739447832107544 0.319931983947753906
0.02506256103515625 -0.148920908570289612 0.325643688440322876
-0.00804901123046875 0.407289743423461914 0.345869541168212891
0.268704742193222046 -0.173589900135993958 0.293038517236709595
-0.0749053955078125 0.387557893991470337 0.232567787170410156
0.088235221803188324 0.387283414602279663 0.283421188592910767
0.47129058837890625 -0.0795248523354530334 0.276426315307617188
0.368136078119277954 -0.176647260785102844 0.299770832061767578
0.162061050534248352 0.329051047563552856 0.269969314336776733
0.3363037109375 0.214184582233428955 0.243802547454833984
0.4432220458984375 0.0239570364356040955 0.274644374847412109
-0.588011443614959717 0.0903449654579162598 0.280587345361709595
-0.388116210699081421 0.0448255129158496857 0.139208480715751648
-0.286710113286972046 -0.0937184393405914307 0.0501446723937988281
-0.491405487060546875 0.369312077760696411 0.327244281768798828
-0.421922057867050171 0.262755841016769409 0.398611396551132202
-0.485090881586074829 0.157920762896537781 0.403159618377685547
-0.312581390142440796 0.134319871664047241 0.276252418756484985
-0.304967254400253296 -0.0920454561710357666 0.210554599761962891
-0.076421104371547699 0.0531893521547317505 0.182394027709960938
-0.258040100336074829 0.0130587043240666389 0.261630862951278687
-0.257035583257675171 0.351511478424072266 0.315574020147323608
-0.230988815426826477 0.288692682981491089 0.48886522650718689
0.048828125 -0.0281254593282938004 0.36111035943031311
-0.06748199462890625 -0.0872218906879425049 0.293260902166366577
-0.0392328910529613495 0.441645383834838867 0.367545932531356812
0.0447540283203125 0.324413329362869263 0.44818878173828125
0.25045013427734375 -0.134752944111824036 0.373982757329940796
0.128437042236328125 -0.0342648550868034363 0.325448185205459595
0.178240463137626648 0.335521548986434937 0.242120429873466492
0.185670211911201477 0.47479209303855896 0.295431286096572876
0.40236663818359375 0.370752006769180298 0.119034290313720703
0.29993438720703125 0.274650990962982178 0.279218673706054688
0.218519851565361023 0.0183854345232248306 0.277853161096572876
0.349165588617324829 0.055524822324514389 0.270001083612442017
-0.415109008550643921 0.192549586296081543 0.348680168390274048
-0.208510085940361023 0.125539571046829224 0.367765754461288452
-0.31035614013671875 -0.0940867140889167786 0.288565963506698608
-0.16864776611328125 0.239237084984779358 0.435787051916122437
-0.225643157958984375 -0.0592841356992721558 0.389671802520751953
-0.143038436770439148 -0.190166577696800232 0.289612621068954468
0.0500310249626636505 0.363969653844833374 0.160964176058769226
0.101971946656703949 0.164643362164497375 0.312566429376602173
0.114217124879360199 -0.158414900302886963 0.2780914306640625
3 0 1 2
3 1 3 4
3 2 1 4
3 3 5 6
3 4 3 6
3 5 7 6
3 0 8 9
3 1 0 9
3 9 10 1
3 1 10 3
3 10 11 3
3 3 11 5
3 5 11 12
3 7 5 12
3 8 13 14
3 9 8 14
3 14 15 9
3 9 15 10
3 15 16 10
3 10 16 11
3 11 16 17
3 12 11 17
3 14 13 18
3 15 14 18
3 19 15 18
3 16 15 19
3 20 16 19
3 16 20 17
3 21 22 23
3 22 24 25
3 23 22 25
3 24 26 27
3 25 24 27
3 26 28 27
3 29 30 31
3 2 22 21
3 0 2 21
3 0 21 31
3 0 31 30
3 4 22 2
3 24 22 4
3 6 24 4
3 26 24 6
3 26 32 28
3 6 32 26
3 6 33 32
3 6 7 33
3 33 34 32
3 29 35 36
3 30 29 36
3 36 0 30
3 8 0 36
3 12 33 7
3 37 33 12
3 33 37 38
3 34 33 38
3 35 39 40
3 36 35 40
3 40 8 36
3 13 8 40
3 17 37 12
3 41 37 17
3 37 41 42
3 38 37 42
3 40 39 43
3 43 44 45
3 40 43 45
3 40 45 18
3 40 18 13
3 18 46 19
3 45 46 18
3 19 47 20
3 46 47 19
3 48 49 41
3 47 48 41
3 47 41 17
3 47 17 20
3 41 49 42
3 45 44 50
3 46 45 50
3 51 46 50
3 47 46 51
3 52 47 51
3 47 52 48
3 53 21 23
3 54 53 23
3 23 25 54
3 25 55 54
3 25 27 55
3 27 56 55
3 28 57 56
3 27 28 56
3 58 29 31
3 59 58 31
3 31 53 59
3 21 53 31
3 60 28 32
3 57 28 60
3 34 61 60
3 32 34 60
3 35 29 62
3 62 29 58
3 38 63 34
3 63 61 34
3 39 35 64
3 64 35 62
3 42 65 38
3 65 63 38
3 66 43 39
3 64 66 39
3 44 66 67
3 43 66 44
3 68 49 48
3 69 49 68
3 49 69 65
3 42 49 65
3 70 50 44
3 67 70 44
3 50 70 51
3 51 70 71
3 51 71 52
3 52 71 72
3 52 72 68
3 48 52 68
3 73 53 54
3 74 73 54
3 54 55 74
3 55 75 74
3 55 56 75
3 56 76 75
3 57 77 76
3 56 57 76
3 78 58 59
3 79 78 59
3 59 73 79
3 53 73 59
3 80 57 60
3 77 57 80
3 61 81 80
3 60 61 80
3 62 58 82
3 82 58 78
3 63 83 61
3 83 81 61
3 64 62 84
3 84 62 82
3 65 85 63
3 85 83 63
3 86 66 64
3 84 86 64
3 67 86 87
3 66 86 67
3 88 69 68
3 89 69 88
3 69 89 85
3 65 69 85
3 90 70 67
3 87 90 67
3 70 90 71
3 71 90 91
3 71 91 72
3 72 91 92
3 72 92 88
3 68 72 88
3 73 74 93
3 74 75 94
3 93 74 94
3 75 76 95
3 94 75 95
3 76 77 95
3 78 79 96
3 97 93 98
3 96 93 97
3 96 73 93
3 96 79 73
3 94 98 93
3 99 98 94
3 95 99 94
3 100 99 95
3 100 101 102
3 95 101 100
3 95 80 101
3 95 77 80
3 80 81 101
3 82 78 96
3 103 82 96
3 96 104 103
3 97 104 96
3 102 105 106
3 101 105 102
3 105 101 81
3 83 105 81
3 84 82 103
3 107 84 103
3 103 108 107
3 104 108 103
3 106 109 110
3 105 109 106
3 109 105 83
3 85 109 83
3 86 84 107
3 107 108 111
3 86 107 111
3 86 111 112
3 86 112 87
3 112 113 114
3 111 113 112
3 114 115 116
3 113 115 114
3 89 110 109
3 88 110 89
3 88 115 110
3 88 116 115
3 89 109 85
3 90 87 112
3 91 90 112
3 114 91 112
3 92 91 114
3 116 92 114
3 92 116 88
3 97 98 117
3 98 99 118
3 117 98 118
3 99 100 119
3 118 99 119
3 100 102 119
3 104 97 117
3 120 104 117
3 120 117 121
3 117 118 121
3 121 118 122
3 118 119 122
3 122 119 102
3 106 122 102
3 108 104 120
3 123 108 120
3 123 120 124
3 120 121 124
3 124 121 125
3 121 122 125
3 125 122 106
3 110 125 106
3 111 108 123
3 113 111 123
3 124 113 123
3 115 113 124
3 125 115 124
3 115 125 110
