ply
format ascii 1.0
comment VCGLIB generated
element vertex 126
property float x
property float y
property float z
element face 248
property list uchar int vertex_indices
end_header
-0.158642858266830444 0.250816613435745239 -0.525311112403869629
-0.14335457980632782 0.126097396016120911 -0.499616086483001709
-0.247951850295066833 0.15792536735534668 -0.475326448678970337
-0.193195343017578125 -0.08523520827293396 -0.361074954271316528
-0.272835820913314819 -0.0932311490178108215 -0.44754830002784729
-0.1889801025390625 -0.362227678298950195 -0.398206919431686401
-0.29761919379234314 -0.326408445835113525 -0.405480623245239258
-0.16052071750164032 -0.295988231897354126 -0.327205002307891846
0.0350882783532142639 0.255823969841003418 -0.350653022527694702
0.0285079255700111389 0.125273957848548889 -0.354578703641891479
0.0472363531589508057 -0.102239936590194702 -0.302453458309173584
0.06023406982421875 -0.317812740802764893 -0.407506972551345825
0.0536207705736160278 -0.438874632120132446 -0.371644914150238037
0.290440648794174194 0.278399378061294556 -0.382210105657577515
0.287799835205078125 0.16716274619102478 -0.332503318786621094
0.300317227840423584 -0.0706910938024520874 -0.297152549028396606
0.321372628211975098 -0.307397544384002686 -0.370545804500579834
0.294383645057678223 -0.425107330083847046 -0.323394209146499634
0.366776198148727417 0.167413443326950073 -0.403936982154846191
0.349818140268325806 -0.0708348304033279419 -0.392285257577896118
0.338505834341049194 -0.273807257413864136 -0.247757643461227417
-0.329953968524932861 0.274992376565933228 -0.231617793440818787
-0.374402135610580444 0.180274069309234619 -0.338703930377960205
-0.329607188701629639 0.165978237986564636 -0.229667097330093384
-0.429018199443817139 -0.051935933530330658 -0.328309088945388794
-0.455773085355758667 -0.0398953147232532501 -0.202185675501823425
-0.344375252723693848 -0.275711029767990112 -0.274404615163803101
-0.422011286020278931 -0.26173749566078186 -0.195438861846923828
-0.394613087177276611 -0.389752477407455444 -0.178688868880271912
-0.145411059260368347 0.252722769975662231 -0.204350292682647705
-0.111370086669921875 0.267365515232086182 -0.308800607919692993
-0.196959748864173889 0.159801274538040161 -0.228725776076316833
-0.281495183706283569 -0.517907202243804932 -0.135369077324867249
-0.206638678908348083 -0.409879446029663086 -0.176064103841781616
-0.186757177114486694 -0.461517333984375 -0.118055127561092377
0.028783624991774559 0.478965908288955688 -0.212368965148925781
0.0312319658696651459 0.441974610090255737 -0.333211630582809448
0.0120041584596037865 -0.457852810621261597 -0.193147435784339905
0.022068023681640625 -0.412906795740127563 -0.0891299694776535034
0.220092415809631348 0.350929856300354004 -0.235181495547294617
0.283574193716049194 0.442004173994064331 -0.303231805562973022
0.250646412372589111 -0.465696007013320923 -0.135983332991600037
0.222665607929229736 -0.398451447486877441 -0.0436659269034862518
0.296041309833526611 0.344008117914199829 -0.178632736206054688
0.355047732591629028 0.149411901831626892 -0.193506807088851929
0.495888084173202515 0.15235474705696106 -0.242370679974555969
0.4012298583984375 -0.0768865495920181274 -0.218476384878158569
0.52294468879699707 -0.272860020399093628 -0.23829372227191925
0.515714108943939209 -0.341934293508529663 -0.112641073763370514
0.321435064077377319 -0.362641185522079468 -0.109999395906925201
0.452808022499084473 0.163947299122810364 -0.112977676093578339
0.34625658392906189 -0.0648874491453170776 -0.127067998051643372
0.436188071966171265 -0.264283746480941772 -0.142028763890266418
-0.428028106689453125 0.249644458293914795 -0.0231998618692159653
-0.330656230449676514 0.212353944778442383 0.0276767108589410782
-0.338549166917800903 -0.0130729544907808304 0.0257448703050613403
-0.340331673622131348 -0.252058178186416626 0.0475471653044223785
-0.43880462646484375 -0.336711674928665161 0.0600819140672683716
-0.125995978713035583 0.242211461067199707 0.0258003585040569305
-0.232178077101707458 0.237958043813705444 0.00366406003013253212
-0.302307814359664917 -0.454425156116485596 0.132007598876953125
-0.209629744291305542 -0.36802026629447937 0.113189436495304108
0.0287697520107030869 0.422065854072570801 0.0100764362141489983
0.00385978003032505512 -0.417909175157546997 0.16162697970867157
0.252657800912857056 0.368262290954589844 0.0124053517356514931
0.237371265888214111 -0.32955557107925415 0.162788078188896179
0.339854836463928223 0.450610160827636719 -0.0162545107305049896
0.388594537973403931 0.281051665544509888 0.0186022836714982986
0.424291431903839111 -0.291444540023803711 0.129377618432044983
0.317244082689285278 -0.444478034973144531 0.148351401090621948
0.294905573129653931 0.234273672103881836 0.0637338384985923767
0.341035664081573486 -0.00587330106645822525 0.0891401544213294983
0.488402605056762695 -0.20707237720489502 0.105899892747402191
-0.476842343807220459 0.351806074380874634 0.186526775360107422
-0.513057708740234375 0.243621185421943665 0.189677804708480835
-0.45501708984375 0.0326905921101570129 0.236218839883804321
-0.3328704833984375 -0.1934317946434021 0.2926655113697052
-0.350104242563247681 -0.282512128353118896 0.256811469793319702
-0.194327607750892639 0.38722720742225647 0.215625330805778503
-0.296700209379196167 0.378711879253387451 0.206034183502197266
-0.351061373949050903 -0.462541937828063965 0.337378978729248047
-0.246758893132209778 -0.42230302095413208 0.349551975727081299
0.032504688948392868 0.469398379325866699 0.243574485182762146
-0.0288911294192075729 -0.344725877046585083 0.407429814338684082
0.218070626258850098 0.476291656494140625 0.300429940223693848
0.229675978422164917 -0.29982265830039978 0.395069122314453125
0.273784279823303223 0.537985920906066895 0.222151920199394226
0.263498485088348389 0.323218852281570435 0.219138309359550476
0.451595991849899292 -0.266876816749572754 0.375623255968093872
0.303504258394241333 -0.390459001064300537 0.37295493483543396
0.350492656230926514 0.278801530599594116 0.293835490942001343
0.435223996639251709 0.0519071407616138458 0.300008386373519897
0.37845262885093689 -0.20281258225440979 0.313722431659698486
-0.470421522855758667 0.22818949818611145 0.295629501342773438
-0.350001931190490723 0.0256631597876548767 0.280210971832275391
-0.424733579158782959 -0.177941098809242249 0.352218359708786011
-0.240176796913146973 0.50594329833984375 0.258139044046401978
-0.265190809965133667 0.399465024471282959 0.450064688920974731
-0.387273252010345459 0.287351846694946289 0.46479332447052002
-0.367367476224899292 0.0777465030550956726 0.484398484230041504
-0.241397500038146973 -0.148993462324142456 0.38379320502281189
-0.252579778432846069 -0.438378393650054932 0.477934509515762329
-0.287994027137756348 -0.268051862716674805 0.44693794846534729
-0.0462618730962276459 0.457183122634887695 0.309214591979980469
-0.0474374927580356598 0.392135709524154663 0.488567113876342773
-0.0215461030602455139 -0.434183627367019653 0.505006313323974609
-0.05672454833984375 -0.248114466667175293 0.467298448085784912
0.137537166476249695 0.591959953308105469 0.359370261430740356
0.238559022545814514 0.379433035850524902 0.457971304655075073
0.216256916522979736 -0.39578661322593689 0.484850823879241943
0.143909454345703125 -0.220107093453407288 0.553615093231201172
0.23258209228515625 0.325315862894058228 0.42081528902053833
0.222261592745780945 0.226930171251296997 0.250592887401580811
0.234636828303337097 0.122936651110649109 0.52625197172164917
0.34083971381187439 0.0720803588628768921 0.372890561819076538
0.277508825063705444 -0.108094975352287292 0.576716959476470947
0.34271240234375 -0.148797228932380676 0.414989650249481201
-0.301198095083236694 0.318393141031265259 0.488422781229019165
-0.235163941979408264 0.0879181399941444397 0.545816183090209961
-0.286280900239944458 -0.174209490418434143 0.49899640679359436
-0.0351975187659263611 0.269854187965393066 0.545098781585693359
0.000435222260421141982 0.118792854249477386 0.427495330572128296
-0.0393954180181026459 -0.132514506578445435 0.396554678678512573
0.159055531024932861 0.364742904901504517 0.492289066314697266
0.296721011400222778 0.162182047963142395 0.413966596126556396
0.199154943227767944 -0.0754659920930862427 0.502758204936981201
3 0 1 2
3 1 3 4
3 2 1 4
3 3 5 6
3 4 3 6
3 5 7 6
3 0 8 9
3 1 0 9
3 9 10 1
3 1 10 3
3 10 11 3
3 3 11 5
3 5 11 12
3 7 5 12
3 8 13 14
3 9 8 14
3 14 15 9
3 9 15 10
3 15 16 10
3 10 16 11
3 11 16 17
3 12 11 17
3 14 13 18
3 15 14 18
3 19 15 18
3 16 15 19
3 20 16 19
3 16 20 17
3 21 22 23
3 22 24 25
3 23 22 25
3 24 26 27
3 25 24 27
3 26 28 27
3 29 30 31
3 2 22 21
3 0 2 21
3 0 21 31
3 0 31 30
3 4 22 2
3 24 22 4
3 6 24 4
3 26 24 6
3 26 32 28
3 6 32 26
3 6 33 32
3 6 7 33
3 33 34 32
3 29 35 36
3 30 29 36
3 36 0 30
3 8 0 36
3 12 33 7
3 37 33 12
3 33 37 38
3 34 33 38
3 35 39 40
3 36 35 40
3 40 8 36
3 13 8 40
3 17 37 12
3 41 37 17
3 37 41 42
3 38 37 42
3 40 39 43
3 43 44 45
3 40 43 45
3 40 45 18
3 40 18 13
3 18 46 19
3 45 46 18
3 19 47 20
3 46 47 19
3 48 49 41
3 47 48 41
3 47 41 17
3 47 17 20
3 41 49 42
3 45 44 50
3 46 45 50
3 51 46 50
3 47 46 51
3 52 47 51
3 47 52 48
3 53 21 23
3 54 53 23
3 23 25 54
3 25 55 54
3 25 27 55
3 27 56 55
3 28 57 56
3 27 28 56
3 58 29 31
3 59 58 31
3 31 53 59
3 21 53 31
3 60 28 32
3 57 28 60
3 34 61 60
3 32 34 60
3 35 29 62
3 62 29 58
3 38 63 34
3 63 61 34
3 39 35 64
3 64 35 62
3 42 65 38
3 65 63 38
3 66 43 39
3 64 66 39
3 44 66 67
3 43 66 44
3 68 49 48
3 69 49 68
3 49 69 65
3 42 49 65
3 70 50 44
3 67 70 44
3 50 70 51
3 51 70 71
3 51 71 52
3 52 71 72
3 52 72 68
3 48 52 68
3 73 53 54
3 74 73 54
3 54 55 74
3 55 75 74
3 55 56 75
3 56 76 75
3 57 77 76
3 56 57 76
3 78 58 59
3 79 78 59
3 59 73 79
3 53 73 59
3 80 57 60
3 77 57 80
3 61 81 80
3 60 61 80
3 62 58 82
3 82 58 78
3 63 83 61
3 83 81 61
3 64 62 84
3 84 62 82
3 65 85 63
3 85 83 63
3 86 66 64
3 84 86 64
3 67 86 87
3 66 86 67
3 88 69 68
3 89 69 88
3 69 89 85
3 65 69 85
3 90 70 67
3 87 90 67
3 70 90 71
3 71 90 91
3 71 91 72
3 72 91 92
3 72 92 88
3 68 72 88
3 73 74 93
3 74 75 94
3 93 74 94
3 75 76 95
3 94 75 95
3 76 77 95
3 78 79 96
3 97 93 98
3 96 93 97
3 96 73 93
3 96 79 73
3 94 98 93
3 99 98 94
3 95 99 94
3 100 99 95
3 100 101 102
3 95 101 100
3 95 80 101
3 95 77 80
3 80 81 101
3 82 78 96
3 103 82 96
3 96 104 103
3 97 104 96
3 102 105 106
3 101 105 102
3 105 101 81
3 83 105 81
3 84 82 103
3 107 84 103
3 103 108 107
3 104 108 103
3 106 109 110
3 105 109 106
3 109 105 83
3 85 109 83
3 86 84 107
3 107 108 111
3 86 107 111
3 86 111 112
3 86 112 87
3 112 113 114
3 111 113 112
3 114 115 116
3 113 115 114
3 89 110 109
3 88 110 89
3 88 115 110
3 88 116 115
3 89 109 85
3 90 87 112
3 91 90 112
3 114 91 112
3 92 91 114
3 116 92 114
3 92 116 88
3 97 98 117
3 98 99 118
3 117 98 118
3 99 100 119
3 118 99 119
3 100 102 119
3 104 97 117
3 120 104 117
3 120 117 121
3 117 118 121
3 121 118 122
3 118 119 122
3 122 119 102
3 106 122 102
3 108 104 120
3 123 108 120
3 123 120 124
3 120 121 124
3 124 121 125
3 121 122 125
3 125 122 106
3 110 125 106
3 111 108 123
3 113 111 123
3 124 113 123
3 115 113 124
3 125 115 124
3 115 125 110
