ply
format ascii 1.0
comment VCGLIB generated
element vertex 126
property float x
property float y
property float z
element face 248
property list uchar int vertex_indices
end_header
-0.296095520257949829 0.186850786209106445 -0.452830463647842407
-0.299434661865234375 0.106523878872394562 -0.536905288696289062
-0.411379486322402954 0.124000929296016693 -0.479532092809677124
-0.238138839602470398 0.0327094532549381256 -0.339591503143310547
-0.337116241455078125 -0.0204903576523065567 -0.324025481939315796
-0.326821655035018921 -0.155343055725097656 -0.249921008944511414
-0.232888534665107727 -0.17029552161693573 -0.202593967318534851
-0.346268981695175171 -0.24694494903087616 -0.185294941067695618
-0.071989692747592926 0.186004176735877991 -0.415424197912216187
-0.063241325318813324 0.09764852374792099 -0.480206489562988281
-0.104597724974155426 -0.122749932110309601 -0.43814435601234436
-0.126153305172920227 -0.2547740638256073 -0.261192649602890015
-0.164761856198310852 -0.354292392730712891 -0.247275993227958679
0.14565277099609375 0.174806132912635803 -0.356873512268066406
0.146813705563545227 0.070644080638885498 -0.392486423254013062
0.105251312255859375 -0.145909771323204041 -0.356520324945449829
0.067843116819858551 -0.360490173101425171 -0.311656326055526733
0.0386899299919605255 -0.442589670419692993 -0.244191333651542664
0.230159759521484375 0.0674472302198410034 -0.323653221130371094
0.20084381103515625 -0.151279926300048828 -0.293252944946289062
0.082187652587890625 -0.318911224603652954 -0.210071086883544922
-0.4996337890625 0.134879946708679199 -0.217335537075996399
-0.54663848876953125 0.165899097919464111 -0.354028075933456421
-0.589570343494415283 0.190734758973121643 -0.262926429510116577
-0.420435577630996704 0.0692517980933189392 -0.203549861907958984
-0.506535828113555908 -0.00642387336120009422 -0.192364856600761414
-0.393217712640762329 -0.145394757390022278 -0.280985981225967407
-0.324792236089706421 -0.141077399253845215 -0.19441986083984375
-0.363263458013534546 -0.231398686766624451 -0.183136299252510071
-0.326061248779296875 0.363624602556228638 -0.222371101379394531
-0.308737426996231079 0.277657002210617065 -0.299135684967041016
-0.410128265619277954 0.301670610904693604 -0.227341011166572571
-0.472141265869140625 -0.367983907461166382 -0.128073856234550476
-0.361171722412109375 -0.358996659517288208 -0.0437048263847827911
-0.370377868413925171 -0.393755674362182617 -0.148244693875312805
-0.113229118287563324 0.371978729963302612 -0.187760040163993835
-0.09230804443359375 0.296890586614608765 -0.275703102350234985
-0.14620208740234375 -0.291446119546890259 -0.0777136459946632385
-0.144560500979423523 -0.358341127634048462 -0.157535240054130554
0.106953941285610199 0.365173488855361938 -0.150235965847969055
0.123889923095703125 0.307040631771087646 -0.239207744598388672
-0.076502479612827301 -0.500044703483581543 -0.120674453675746918
-0.067503608763217926 -0.518715739250183105 -0.0137837724760174751
0.205394744873046875 0.312681436538696289 -0.131284236907958984
0.341364532709121704 0.188653349876403809 -0.0958509445190429688
0.334227234125137329 0.0785290822386741638 -0.176634952425956726
0.294007629156112671 -0.14015825092792511 -0.136844158172607422
0.152881622314453125 -0.291628867387771606 -0.0473647117614746094
0.173756912350654602 -0.42599034309387207 -0.0308666229248046875
0.0347989387810230255 -0.539578378200531006 -0.0492949485778808594
0.372899383306503296 0.0852900668978691101 -0.0707910880446434021
0.346279144287109375 -0.138160586357116699 -0.038356143981218338
0.249767303466796875 -0.344892233610153198 -0.0393667221069335938
-0.563488006591796875 0.215065672993659973 -0.0105457305908203125
-0.654614746570587158 0.257225871086120605 -0.0641533508896827698
-0.484682708978652954 0.107370235025882721 -0.0192424450069665909
-0.31832122802734375 -0.0466470532119274139 -0.00463898992165923119
-0.367346435785293579 -0.134765401482582092 0.0182444248348474503
-0.34527587890625 0.409057706594467163 -0.00708182668313384056
-0.419101715087890625 0.34863552451133728 -0.0154482526704668999
-0.403628021478652954 -0.316410034894943237 0.0814040526747703552
-0.320443481206893921 -0.381805688142776489 0.0689355507493019104
-0.126263931393623352 0.404605835676193237 0.0390752144157886505
-0.177082061767578125 -0.220919489860534668 0.0348766632378101349
0.073731742799282074 0.349439889192581177 0.072903953492641449
-0.005809783935546875 -0.350414305925369263 0.118922710418701172
0.1661224365234375 0.30938836932182312 0.0882625579833984375
0.313395172357559204 0.215436235070228577 0.125580146908760071
0.0409940071403980255 -0.297495514154434204 0.0972390174865722656
-0.0441106148064136505 -0.451863884925842285 0.13957531750202179
0.301962524652481079 0.112331032752990723 0.143321201205253601
0.26629638671875 -0.108152605593204498 0.171161174774169922
0.102018989622592926 -0.216627955436706543 0.061179477721452713
-0.638857543468475342 0.360656827688217163 0.166005134582519531
-0.572156250476837158 0.400173276662826538 0.0577573776245117188
-0.374807983636856079 0.253151029348373413 0.0902746543288230896
-0.359302520751953125 0.0530451871454715729 0.188979312777519226
-0.382242828607559204 -0.0543746054172515869 0.234033584594726562
-0.355351775884628296 0.385009676218032837 0.224421977996826172
-0.465632110834121704 0.420787245035171509 0.210809871554374695
-0.320237487554550171 -0.224911868572235107 0.269451767206192017
-0.224633529782295227 -0.287959873676300049 0.254616737365722656
-0.162075042724609375 0.329338341951370239 0.251953452825546265
-0.01432037353515625 -0.297531574964523315 0.130155563354492188
0.069868721067905426 0.330695927143096924 0.293270736932754517
-0.0482610054314136505 -0.296348422765731812 0.334112972021102905
0.164473220705986023 0.368850588798522949 0.311324924230575562
0.26772308349609375 0.220748409628868103 0.346905708312988281
0.169007614254951477 -0.323531061410903931 0.277601718902587891
0.0151049299165606499 -0.393678635358810425 0.345563262701034546
0.18767547607421875 0.15039496123790741 0.336023658514022827
0.116448722779750824 -0.0622800551354885101 0.33298000693321228
0.073276519775390625 -0.27191278338432312 0.277519851922988892
-0.572954833507537842 0.382827728986740112 0.186486557126045227
-0.449751526117324829 0.230725064873695374 0.16685040295124054
-0.425973266363143921 0.00544137321412563324 0.120791114866733551
-0.37209320068359375 0.464845865964889526 0.320452064275741577
-0.422643035650253296 0.398512721061706543 0.451847076416015625
-0.543659210205078125 0.348166853189468384 0.367105633020401001
-0.3864593505859375 0.196627020835876465 0.329189777374267578
-0.267337799072265625 0.0331301726400852203 0.213102340698242188
-0.2364044189453125 -0.235481426119804382 0.153298065066337585
-0.314512878656387329 -0.0751449242234230042 0.118605293333530426
-0.175828292965888977 0.376172155141830444 0.351678222417831421
-0.201764419674873352 0.306260824203491211 0.506988525390625
-0.0270932521671056747 -0.174012124538421631 0.158416911959648132
-0.182819366455078125 -0.181551828980445862 0.256396442651748657
0.0470568351447582245 0.372058391571044922 0.395980983972549438
0.00775782251730561256 0.253459930419921875 0.529707014560699463
0.0564969368278980255 -0.269527465105056763 0.361395359039306641
-0.0406201668083667755 -0.126992985606193542 0.414741188287734985
0.03902435302734375 0.125556200742721558 0.492451101541519165
0.208746597170829773 0.13447253406047821 0.444200843572616577
-0.009639739990234375 -0.0417090989649295807 0.359185546636581421
0.1454620361328125 -0.0860992670059204102 0.433907985687255859
-0.084199272096157074 -0.249880865216255188 0.364106506109237671
0.08663177490234375 -0.297272682189941406 0.383136898279190063
-0.464724212884902954 0.291176915168762207 0.443674564361572266
-0.439165741205215454 0.101813971996307373 0.35398593544960022
-0.354442596435546875 -0.0321825779974460602 0.222964927554130554
-0.262461334466934204 0.221043527126312256 0.484478861093521118
-0.278589874505996704 0.0238015446811914444 0.46996799111366272
-0.173983260989189148 -0.0926012322306632996 0.320458561182022095
-0.0470492057502269745 0.186064198613166809 0.447832584381103516
-0.0607770271599292755 -0.0249263998121023178 0.464782387018203735
-0.082651771605014801 -0.233144894242286682 0.476402908563613892
3 0 1 2
3 1 3 4
3 2 1 4
3 3 5 6
3 4 3 6
3 5 7 6
3 0 8 9
3 1 0 9
3 9 10 1
3 1 10 3
3 10 11 3
3 3 11 5
3 5 11 12
3 7 5 12
3 8 13 14
3 9 8 14
3 14 15 9
3 9 15 10
3 15 16 10
3 10 16 11
3 11 16 17
3 12 11 17
3 14 13 18
3 15 14 18
3 19 15 18
3 16 15 19
3 20 16 19
3 16 20 17
3 21 22 23
3 22 24 25
3 23 22 25
3 24 26 27
3 25 24 27
3 26 28 27
3 29 30 31
3 2 22 21
3 0 2 21
3 0 21 31
3 0 31 30
3 4 22 2
3 24 22 4
3 6 24 4
3 26 24 6
3 26 32 28
3 6 32 26
3 6 33 32
3 6 7 33
3 33 34 32
3 29 35 36
3 30 29 36
3 36 0 30
3 8 0 36
3 12 33 7
3 37 33 12
3 33 37 38
3 34 33 38
3 35 39 40
3 36 35 40
3 40 8 36
3 13 8 40
3 17 37 12
3 41 37 17
3 37 41 42
3 38 37 42
3 40 39 43
3 43 44 45
3 40 43 45
3 40 45 18
3 40 18 13
3 18 46 19
3 45 46 18
3 19 47 20
3 46 47 19
3 48 49 41
3 47 48 41
3 47 41 17
3 47 17 20
3 41 49 42
3 45 44 50
3 46 45 50
3 51 46 50
3 47 46 51
3 52 47 51
3 47 52 48
3 53 21 23
3 54 53 23
3 23 25 54
3 25 55 54
3 25 27 55
3 27 56 55
3 28 57 56
3 27 28 56
3 58 29 31
3 59 58 31
3 31 53 59
3 21 53 31
3 60 28 32
3 57 28 60
3 34 61 60
3 32 34 60
3 35 29 62
3 62 29 58
3 38 63 34
3 63 61 34
3 39 35 64
3 64 35 62
3 42 65 38
3 65 63 38
3 66 43 39
3 64 66 39
3 44 66 67
3 43 66 44
3 68 49 48
3 69 49 68
3 49 69 65
3 42 49 65
3 70 50 44
3 67 70 44
3 50 70 51
3 51 70 71
3 51 71 52
3 52 71 72
3 52 72 68
3 48 52 68
3 73 53 54
3 74 73 54
3 54 55 74
3 55 75 74
3 55 56 75
3 56 76 75
3 57 77 76
3 56 57 76
3 78 58 59
3 79 78 59
3 59 73 79
3 53 73 59
3 80 57 60
3 77 57 80
3 61 81 80
3 60 61 80
3 62 58 82
3 82 58 78
3 63 83 61
3 83 81 61
3 64 62 84
3 84 62 82
3 65 85 63
3 85 83 63
3 86 66 64
3 84 86 64
3 67 86 87
3 66 86 67
3 88 69 68
3 89 69 88
3 69 89 85
3 65 69 85
3 90 70 67
3 87 90 67
3 70 90 71
3 71 90 91
3 71 91 72
3 72 91 92
3 72 92 88
3 68 72 88
3 73 74 93
3 74 75 94
3 93 74 94
3 75 76 95
3 94 75 95
3 76 77 95
3 78 79 96
3 97 93 98
3 96 93 97
3 96 73 93
3 96 79 73
3 94 98 93
3 99 98 94
3 95 99 94
3 100 99 95
3 100 101 102
3 95 101 100
3 95 80 101
3 95 77 80
3 80 81 101
3 82 78 96
3 103 82 96
3 96 104 103
3 97 104 96
3 102 105 106
3 101 105 102
3 105 101 81
3 83 105 81
3 84 82 103
3 107 84 103
3 103 108 107
3 104 108 103
3 106 109 110
3 105 109 106
3 109 105 83
3 85 109 83
3 86 84 107
3 107 108 111
3 86 107 111
3 86 111 112
3 86 112 87
3 112 113 114
3 111 113 112
3 114 115 116
3 113 115 114
3 89 110 109
3 88 110 89
3 88 115 110
3 88 116 115
3 89 109 85
3 90 87 112
3 91 90 112
3 114 91 112
3 92 91 114
3 116 92 114
3 92 116 88
3 97 98 117
3 98 99 118
3 117 98 118
3 99 100 119
3 118 99 119
3 100 102 119
3 104 97 117
3 120 104 117
3 120 117 121
3 117 118 121
3 121 118 122
3 118 119 122
3 122 119 102
3 106 122 102
3 108 104 120
3 123 108 120
3 123 120 124
3 120 121 124
3 124 121 125
3 121 122 125
3 125 122 106
3 110 125 106
3 111 108 123
3 113 111 123
3 124 113 123
3 115 113 124
3 125 115 124
3 115 125 110
