ply
format ascii 1.0
comment VCGLIB generated
element vertex 126
property float x
property float y
property float z
element face 248
property list uchar int vertex_indices
end_header
-0.206042081117630005 0.170453310012817383 -0.490150272846221924
-0.203632950782775879 0.0465708114206790924 -0.538483798503875732
-0.262619912624359131 0.0703411027789115906 -0.429991960525512695
-0.232285723090171814 -0.169728741049766541 -0.478396803140640259
-0.332701772451400757 -0.137893706560134888 -0.410973310470581055
-0.0736955553293228149 -0.176423639059066772 -0.295972108840942383
-0.160168871283531189 -0.106832489371299744 -0.263929188251495361
-0.083552144467830658 -0.186923950910568237 -0.182194173336029053
-0.00457470258697867393 0.11522800475358963 -0.440714567899703979
-0.0409639813005924225 0.0450016595423221588 -0.371899992227554321
-0.08469361811876297 -0.169190749526023865 -0.322397679090499878
-0.116833910346031189 -0.391967356204986572 -0.282499432563781738
-0.081295602023601532 -0.405682116746902466 -0.173384785652160645
0.199275389313697815 0.0934810936450958252 -0.344274044036865234
0.161718234419822693 -0.0145493680611252785 -0.314362972974777222
0.124985627830028534 -0.215013310313224792 -0.272543430328369141
0.0890115648508071899 -0.433950632810592651 -0.257462173700332642
0.064059041440486908 -0.540025055408477783 -0.246331334114074707
0.190525054931640625 -0.0191134829074144363 -0.430119425058364868
0.135920599102973938 -0.216710969805717468 -0.371136873960494995
0.152527734637260437 -0.438821554183959961 -0.34422379732131958
-0.336459249258041382 0.238843128085136414 -0.21015535295009613
-0.383494466543197632 0.126553520560264587 -0.295861870050430298
-0.389543682336807251 0.15629906952381134 -0.174605846405029297
-0.448816746473312378 -0.0859733521938323975 -0.247868582606315613
-0.467615872621536255 -0.0506933853030204773 -0.11854080855846405
-0.295954495668411255 -0.219114542007446289 -0.190887823700904846
-0.308356672525405884 -0.219015896320343018 -0.0866501182317733765
-0.247937723994255066 -0.294259011745452881 -0.0899973288178443909
-0.06756562739610672 0.14077150821685791 -0.183589830994606018
-0.160044163465499878 0.153625160455703735 -0.30247122049331665
-0.16043737530708313 0.236713409423828125 -0.207952365279197693
-0.148676365613937378 -0.226032078266143799 0.0368041284382343292
-0.040721893310546875 -0.182521060109138489 -0.0178241729736328125
-0.089439980685710907 -0.278606325387954712 -0.0497786849737167358
0.076298348605632782 0.164430201053619385 -0.294526010751724243
0.0368220992386341095 0.26705402135848999 -0.359389781951904297
0.072392687201499939 -0.354606300592422485 -0.0633736774325370789
0.0492653511464595795 -0.429333269596099854 0.00245167664252221584
0.248308926820755005 0.238045617938041687 -0.30555376410484314
0.25478363037109375 0.252493321895599365 -0.413463503122329712
0.102411419153213501 -0.566593408584594727 -0.0690218135714530945
0.208624333143234253 -0.557435989379882812 -0.021458406001329422
0.312975376844406128 0.252667427062988281 -0.261013329029083252
0.390765875577926636 0.0912448689341545105 -0.242595136165618896
0.318767845630645752 -0.0214842613786458969 -0.295586049556732178
0.261906862258911133 -0.212323397397994995 -0.234876245260238647
0.320774972438812256 -0.422708094120025635 -0.257255673408508301
0.294933319091796875 -0.38544619083404541 -0.130089804530143738
0.25729253888130188 -0.556953549385070801 -0.106357067823410034
0.326693624258041382 0.0215067658573389053 -0.197078272700309753
0.378959387540817261 -0.197802513837814331 -0.198623225092887878
0.235806986689567566 -0.366144150495529175 -0.187900811433792114
-0.344574272632598877 0.300926327705383301 0.0204792395234107971
-0.428110271692276001 0.222180560231208801 0.0563903972506523132
-0.387011319398880005 0.0260596536099910736 0.0914346277713775635
-0.368222475051879883 -0.175156310200691223 0.107165306806564331
-0.323770970106124878 -0.280746728181838989 0.116605028510093689
-0.028974093496799469 0.173887357115745544 0.00594194140285253525
-0.181261211633682251 0.207625478506088257 0.0148745691403746605
-0.177830919623374939 -0.416772753000259399 0.147172316908836365
-0.080025017261505127 -0.404532879590988159 0.106608323752880096
0.286062687635421753 0.0887207239866256714 -0.051366366446018219
0.137436211109161377 -0.328473329544067383 0.169337540864944458
0.387024521827697754 0.16393984854221344 -0.110893800854682922
0.34162670373916626 -0.431014120578765869 0.116448588669300079
0.210556626319885254 0.203453630208969116 -0.0716317668557167053
0.293659806251525879 0.0721259415149688721 -0.0337587893009185791
0.394945889711380005 -0.34526360034942627 0.032030254602432251
0.238310009241104126 -0.43044707179069519 0.0625324249267578125
0.38371160626411438 0.043344300240278244 0.0162836220115423203
0.373706817626953125 -0.18247532844543457 0.0312062427401542664
0.293551236391067505 -0.388666123151779175 0.0296376310288906097
-0.309750497341156006 0.361697077751159668 0.239505961537361145
-0.404604405164718628 0.317328304052352905 0.254802703857421875
-0.438697546720504761 0.0745625495910644531 0.3028106689453125
-0.355014801025390625 -0.124739103019237518 0.314451932907104492
-0.313484489917755127 -0.209335118532180786 0.316201359033584595
-0.0246722884476184845 0.366148591041564941 0.121437959372997284
-0.17018832266330719 0.383425503969192505 0.163283899426460266
-0.151874840259552002 -0.305011004209518433 0.323589235544204712
-0.0597763098776340485 -0.358782589435577393 0.333467096090316772
0.199929758906364441 0.287699013948440552 0.144182905554771423
0.137106090784072876 -0.446989238262176514 0.258410155773162842
0.344341009855270386 0.21090996265411377 0.192789122462272644
0.29417186975479126 -0.602104604244232178 0.207648292183876038
0.295232623815536499 0.308237135410308838 0.0938921719789505005
0.258416414260864258 0.1690865159034729 0.175017029047012329
0.474249064922332764 -0.45214274525642395 0.193717852234840393
0.367098599672317505 -0.604899704456329346 0.13195057213306427
0.26072576642036438 0.0569253042340278625 0.208178669214248657
0.324825882911682129 -0.156646177172660828 0.241549581289291382
0.446068704128265381 -0.344152301549911499 0.185910925269126892
-0.367045789957046509 0.442419171333312988 0.314306110143661499
-0.364064455032348633 0.129462063312530518 0.391070306301116943
-0.345456063747406006 -0.133738577365875244 0.421375691890716553
-0.0413483865559101105 0.436395525932312012 0.198529511690139771
-0.127937614917755127 0.289912968873977661 0.255241036415100098
-0.260614246129989624 0.284232914447784424 0.20099659264087677
-0.268494546413421631 0.0645252913236618042 0.234314486384391785
-0.240136668086051941 -0.172638416290283203 0.291185200214385986
-0.142160564661026001 -0.434368818998336792 0.357202589511871338
-0.172331884503364563 -0.30798947811126709 0.244451135396957397
0.083735540509223938 0.305891871452331543 0.0486307889223098755
0.087877422571182251 0.19545784592628479 0.149618849158287048
0.0209734998643398285 -0.55977475643157959 0.229344740509986877
-0.0133088920265436172 -0.424134641885757446 0.0996490642428398132
0.214183524250984192 0.205081462860107422 0.166703015565872192
0.293725818395614624 0.147754356265068054 0.0342143513262271881
0.211781725287437439 -0.647352755069732666 0.134837821125984192
0.16376495361328125 -0.464744627475738525 0.217718899250030518
0.369611889123916626 0.0308487638831138611 0.0437050610780715942
0.367235064506530762 0.0925248786807060242 0.210580095648765564
0.327858567237854004 -0.172537818551063538 0.136466220021247864
0.42036205530166626 -0.120436176657676697 0.275044441223144531
0.233144029974937439 -0.347806245088577271 0.273398071527481079
0.40827825665473938 -0.355837792158126831 0.286844521760940552
-0.168910399079322815 0.204906448721885681 0.191780611872673035
-0.187404349446296692 0.0195083767175674438 0.207288637757301331
-0.16103304922580719 -0.189921587705612183 0.233245819807052612
0.041370391845703125 0.155669167637825012 0.0860239937901496887
0.0171162541955709457 -0.0491919666528701782 0.105054385960102081
-0.0104566728696227074 -0.27275809645652771 0.102669276297092438
0.271122276782989502 0.0731686130166053772 0.0877824202179908752
0.232728824019432068 -0.123018853366374969 0.179922580718994141
0.186609134078025818 -0.33728182315826416 0.177039921283721924
3 0 1 2
3 1 3 4
3 2 1 4
3 3 5 6
3 4 3 6
3 5 7 6
3 0 8 9
3 1 0 9
3 9 10 1
3 1 10 3
3 10 11 3
3 3 11 5
3 5 11 12
3 7 5 12
3 8 13 14
3 9 8 14
3 14 15 9
3 9 15 10
3 15 16 10
3 10 16 11
3 11 16 17
3 12 11 17
3 14 13 18
3 15 14 18
3 19 15 18
3 16 15 19
3 20 16 19
3 16 20 17
3 21 22 23
3 22 24 25
3 23 22 25
3 24 26 27
3 25 24 27
3 26 28 27
3 29 30 31
3 2 22 21
3 0 2 21
3 0 21 31
3 0 31 30
3 4 22 2
3 24 22 4
3 6 24 4
3 26 24 6
3 26 32 28
3 6 32 26
3 6 33 32
3 6 7 33
3 33 34 32
3 29 35 36
3 30 29 36
3 36 0 30
3 8 0 36
3 12 33 7
3 37 33 12
3 33 37 38
3 34 33 38
3 35 39 40
3 36 35 40
3 40 8 36
3 13 8 40
3 17 37 12
3 41 37 17
3 37 41 42
3 38 37 42
3 40 39 43
3 43 44 45
3 40 43 45
3 40 45 18
3 40 18 13
3 18 46 19
3 45 46 18
3 19 47 20
3 46 47 19
3 48 49 41
3 47 48 41
3 47 41 17
3 47 17 20
3 41 49 42
3 45 44 50
3 46 45 50
3 51 46 50
3 47 46 51
3 52 47 51
3 47 52 48
3 53 21 23
3 54 53 23
3 23 25 54
3 25 55 54
3 25 27 55
3 27 56 55
3 28 57 56
3 27 28 56
3 58 29 31
3 59 58 31
3 31 53 59
3 21 53 31
3 60 28 32
3 57 28 60
3 34 61 60
3 32 34 60
3 35 29 62
3 62 29 58
3 38 63 34
3 63 61 34
3 39 35 64
3 64 35 62
3 42 65 38
3 65 63 38
3 66 43 39
3 64 66 39
3 44 66 67
3 43 66 44
3 68 49 48
3 69 49 68
3 49 69 65
3 42 49 65
3 70 50 44
3 67 70 44
3 50 70 51
3 51 70 71
3 51 71 52
3 52 71 72
3 52 72 68
3 48 52 68
3 73 53 54
3 74 73 54
3 54 55 74
3 55 75 74
3 55 56 75
3 56 76 75
3 57 77 76
3 56 57 76
3 78 58 59
3 79 78 59
3 59 73 79
3 53 73 59
3 80 57 60
3 77 57 80
3 61 81 80
3 60 61 80
3 62 58 82
3 82 58 78
3 63 83 61
3 83 81 61
3 64 62 84
3 84 62 82
3 65 85 63
3 85 83 63
3 86 66 64
3 84 86 64
3 67 86 87
3 66 86 67
3 88 69 68
3 89 69 88
3 69 89 85
3 65 69 85
3 90 70 67
3 87 90 67
3 70 90 71
3 71 90 91
3 71 91 72
3 72 91 92
3 72 92 88
3 68 72 88
3 73 74 93
3 74 75 94
3 93 74 94
3 75 76 95
3 94 75 95
3 76 77 95
3 78 79 96
3 97 93 98
3 96 93 97
3 96 73 93
3 96 79 73
3 94 98 93
3 99 98 94
3 95 99 94
3 100 99 95
3 100 101 102
3 95 101 100
3 95 80 101
3 95 77 80
3 80 81 101
3 82 78 96
3 103 82 96
3 96 104 103
3 97 104 96
3 102 105 106
3 101 105 102
3 105 101 81
3 83 105 81
3 84 82 103
3 107 84 103
3 103 108 107
3 104 108 103
3 106 109 110
3 105 109 106
3 109 105 83
3 85 109 83
3 86 84 107
3 107 108 111
3 86 107 111
3 86 111 112
3 86 112 87
3 112 113 114
3 111 113 112
3 114 115 116
3 113 115 114
3 89 110 109
3 88 110 89
3 88 115 110
3 88 116 115
3 89 109 85
3 90 87 112
3 91 90 112
3 114 91 112
3 92 91 114
3 116 92 114
3 92 116 88
3 97 98 117
3 98 99 118
3 117 98 118
3 99 100 119
3 118 99 119
3 100 102 119
3 104 97 117
3 120 104 117
3 120 117 121
3 117 118 121
3 121 118 122
3 118 119 122
3 122 119 102
3 106 122 102
3 108 104 120
3 123 108 120
3 123 120 124
3 120 121 124
3 124 121 125
3 121 122 125
3 125 122 106
3 110 125 106
3 111 108 123
3 113 111 123
3 124 113 123
3 115 113 124
3 125 115 124
3 115 125 110
