ply
format ascii 1.0
comment VCGLIB generated
element vertex 126
property float x
property float y
property float z
element face 248
property list uchar int vertex_indices
end_header
-0.125811263918876648 0.0840987488627433777 -0.531840980052947998
-0.075969696044921875 0.00655088014900684357 -0.481829166412353516
-0.176668807864189148 -0.0349156111478805542 -0.47537994384765625
0.005359649658203125 -0.158823519945144653 -0.362091690301895142
-0.092052459716796875 -0.19994671642780304 -0.342010170221328735
0.0173556003719568253 -0.0554124154150485992 -0.163367912173271179
-0.100214637815952301 -0.0790849551558494568 -0.151421546936035156
0.01702117919921875 -0.124585777521133423 -0.0886899605393409729
0.074052177369594574 0.15481133759021759 -0.450058311223983765
0.0279210414737462997 0.154505982995033264 -0.34849199652671814
0.0471712760627269745 -0.00672944448888301849 -0.192016914486885071
0.242861434817314148 -0.104241408407688141 -0.176438808441162109
0.237215682864189148 -0.14731772243976593 -0.0815644264221191406
0.270880371332168579 0.198572933673858643 -0.353154182434082031
0.231320694088935852 0.183449670672416687 -0.257678985595703125
0.1534271240234375 0.141424015164375305 -0.0570580177009105682
0.278897613286972046 -0.0228101443499326706 0.030386289581656456
0.381290435791015625 0.000468395533971488476 -0.00419680261984467506
0.262003570795059204 0.0795896947383880615 -0.274790912866592407
0.249017074704170227 0.195314168930053711 -0.081868492066860199
0.313617706298828125 0.068396545946598053 0.0924572944641113281
-0.37537384033203125 0.0756576135754585266 -0.325239330530166626
-0.331316620111465454 -0.0512387715280056 -0.384050220251083374
-0.380584716796875 -0.0249805580824613571 -0.284784644842147827
-0.263161987066268921 -0.251859366893768311 -0.296663910150527954
-0.330613464117050171 -0.226058244705200195 -0.201674774289131165
-0.194619491696357727 -0.222892060875892639 -0.0923377647995948792
-0.155859634280204773 -0.323409169912338257 -0.0798296928405761719
-0.0685882568359375 -0.269170850515365601 -0.103986263275146484
-0.244595840573310852 0.30298963189125061 -0.396786540746688843
-0.191403701901435852 0.205306574702262878 -0.414631038904190063
-0.327219635248184204 0.22699330747127533 -0.405387401580810547
0.064652763307094574 -0.292223066091537476 0.0149898529052734375
-0.00906117726117372513 -0.190041586756706238 0.0646630898118019104
-0.0101254777982831001 -0.243031367659568787 -0.0484112091362476349
-0.050048828125 0.291031539440155029 -0.287241309881210327
0.00563176488503813744 0.300315409898757935 -0.380884021520614624
0.209578201174736023 -0.221718549728393555 0.0748586654663085938
0.214556381106376648 -0.201841369271278381 -0.037632625550031662
0.145384475588798523 0.287207663059234619 -0.181751728057861328
0.195100143551826477 0.342770367860794067 -0.265376567840576172
0.399262756109237671 -0.105770014226436615 0.133767291903495789
0.397847503423690796 -0.0748424306511878967 0.0265739765018224716
0.231699630618095398 0.330891042947769165 -0.132324859499931335
0.238972976803779602 0.166375592350959778 -0.0605502128601074219
0.172761276364326477 0.0629913657903671265 -0.116374336183071136
0.370868682861328125 0.0791431590914726257 -0.0100951194763183594
0.394246429204940796 0.216434121131896973 0.165598079562187195
0.364501953125 0.14508114755153656 0.0484377555549144745
0.475297302007675171 -0.00581994280219078064 0.0613856315612792969
0.132127121090888977 0.135056331753730774 -0.039913177490234375
0.350844055414199829 0.16539272665977478 -0.0747421607375144958
0.426321655511856079 0.117997027933597565 0.132705211639404297
-0.325162261724472046 0.169860109686851501 -0.123281002044677734
-0.332558959722518921 0.0705466195940971375 -0.0953240394592285156
-0.395245879888534546 -0.100445151329040527 -0.00205341982655227184
-0.257008880376815796 -0.285213261842727661 0.113467060029506683
-0.102191925048828125 -0.239857956767082214 0.121038436889648438
-0.26749420166015625 0.293680071830749512 -0.17469342052936554
-0.364615112543106079 0.323846012353897095 -0.204578876495361328
0.008403778076171875 -0.189036145806312561 0.20206005871295929
0.003814697265625 -0.102093338966369629 0.109192848205566406
-0.111568450927734375 0.455695837736129761 -0.148469924926757812
0.181107833981513977 -0.233973681926727295 0.180206134915351868
0.082850135862827301 0.44802442193031311 -0.0438222885131835938
0.279123932123184204 -0.0294324085116386414 0.212472438812255859
0.106988273561000824 0.390886634588241577 0.047206241637468338
0.208723708987236023 0.271647185087203979 0.134540244936943054
0.205052688717842102 -0.00275874021463096142 0.119407497346401215
0.321431487798690796 -0.128042355179786682 0.178549602627754211
0.1623382568359375 0.185311675071716309 0.18020184338092804
0.146157577633857727 0.0932494327425956726 -0.0178910885006189346
0.297640472650527954 -0.0490094535052776337 0.0695633888244628906
-0.427229553461074829 0.243232056498527527 0.0604844093322753906
-0.318654388189315796 0.225117608904838562 0.0480964966118335724
-0.364205688238143921 0.051230698823928833 0.162446498870849609
-0.275622040033340454 -0.122998893260955811 0.271822601556777954
-0.191366836428642273 -0.203540325164794922 0.298678874969482422
-0.296849578619003296 0.38112977147102356 0.0307189617305994034
-0.395058959722518921 0.413604170083999634 0.00473006581887602806
-0.115464530885219574 -0.0446501262485980988 0.317347854375839233
-0.071107231080532074 -0.138523876667022705 0.326314777135848999
-0.079067230224609375 0.380641251802444458 0.0572420768439769745
0.112873077392578125 -0.229726195335388184 0.392253726720809937
0.067258201539516449 0.229141846299171448 -0.0125772161409258842
0.289193481206893921 -0.0841548964381217957 0.424886375665664673
-0.0399335213005542755 0.23161160945892334 -0.0117392539978027344
0.00939432810992002487 0.363122850656509399 0.108736194670200348
0.331423431634902954 0.146071776747703552 0.232363864779472351
0.2987060546875 0.0109080905094742775 0.357057422399520874
-0.0394032783806324005 0.281030505895614624 0.161242485046386719
0.0264231357723474503 0.0672754719853401184 0.173977687954902649
0.239945724606513977 0.1390523761510849 0.173128291964530945
-0.337614685297012329 0.187921106815338135 0.153494834899902344
-0.363183349370956421 -0.0177487935870885849 0.0729835852980613708
-0.318364471197128296 -0.180272236466407776 0.205602481961250305
-0.298777252435684204 0.487924963235855103 0.0667390823364257812
-0.212374374270439148 0.357634633779525757 -0.0163532886654138565
-0.28743743896484375 0.253855407238006592 -0.0152371721342206001
-0.26284027099609375 0.105382494628429413 0.159880161285400391
-0.2580718994140625 -0.0721776783466339111 0.313993304967880249
-0.0124142961576581001 -0.0882633998990058899 0.251779884099960327
-0.148771926760673523 -0.182879090309143066 0.298891395330429077
-0.143819168210029602 0.363428264856338501 -0.0371487922966480255
-0.0207532253116369247 0.403083771467208862 0.0864084586501121521
0.13684844970703125 -0.25610765814781189 0.291485786437988281
0.0508639030158519745 -0.142096921801567078 0.177886962890625
0.032642364501953125 0.296856611967086792 0.0775485038757324219
-0.083379112184047699 0.211435630917549133 0.196701362729072571
0.309800475835800171 -0.116713821887969971 0.312615722417831421
0.276767730712890625 -0.152109786868095398 0.139364719390869141
-0.0117034912109375 0.145633205771446228 0.295224994421005249
0.040706634521484375 0.31045493483543396 0.23608224093914032
0.2047576904296875 0.0763720273971557617 0.282493263483047485
0.0211588535457849503 0.0912188217043876648 0.281017154455184937
0.193177536129951477 -0.0530096478760242462 0.100929580628871918
0.234739944338798523 0.050388634204864502 0.240002632141113281
-0.176013946533203125 0.255943864583969116 -0.0275392532348632812
-0.175092056393623352 0.0597180314362049103 0.102063976228237152
-0.143552139401435852 -0.0798621252179145813 0.27854505181312561
0.0347735099494457245 0.324366867542266846 0.0238029155880212784
0.0273373927921056747 0.137527689337730408 0.165040016174316406
0.0759735107421875 -0.0596201978623867035 0.25790676474571228
0.0189539585262537003 0.224315270781517029 0.222869232296943665
0.2384033203125 0.164519324898719788 0.220033809542655945
0.285593658685684204 -0.0475945174694061279 0.16697247326374054
3 0 1 2
3 1 3 4
3 2 1 4
3 3 5 6
3 4 3 6
3 5 7 6
3 0 8 9
3 1 0 9
3 9 10 1
3 1 10 3
3 10 11 3
3 3 11 5
3 5 11 12
3 7 5 12
3 8 13 14
3 9 8 14
3 14 15 9
3 9 15 10
3 15 16 10
3 10 16 11
3 11 16 17
3 12 11 17
3 14 13 18
3 15 14 18
3 19 15 18
3 16 15 19
3 20 16 19
3 16 20 17
3 21 22 23
3 22 24 25
3 23 22 25
3 24 26 27
3 25 24 27
3 26 28 27
3 29 30 31
3 2 22 21
3 0 2 21
3 0 21 31
3 0 31 30
3 4 22 2
3 24 22 4
3 6 24 4
3 26 24 6
3 26 32 28
3 6 32 26
3 6 33 32
3 6 7 33
3 33 34 32
3 29 35 36
3 30 29 36
3 36 0 30
3 8 0 36
3 12 33 7
3 37 33 12
3 33 37 38
3 34 33 38
3 35 39 40
3 36 35 40
3 40 8 36
3 13 8 40
3 17 37 12
3 41 37 17
3 37 41 42
3 38 37 42
3 40 39 43
3 43 44 45
3 40 43 45
3 40 45 18
3 40 18 13
3 18 46 19
3 45 46 18
3 19 47 20
3 46 47 19
3 48 49 41
3 47 48 41
3 47 41 17
3 47 17 20
3 41 49 42
3 45 44 50
3 46 45 50
3 51 46 50
3 47 46 51
3 52 47 51
3 47 52 48
3 53 21 23
3 54 53 23
3 23 25 54
3 25 55 54
3 25 27 55
3 27 56 55
3 28 57 56
3 27 28 56
3 58 29 31
3 59 58 31
3 31 53 59
3 21 53 31
3 60 28 32
3 57 28 60
3 34 61 60
3 32 34 60
3 35 29 62
3 62 29 58
3 38 63 34
3 63 61 34
3 39 35 64
3 64 35 62
3 42 65 38
3 65 63 38
3 66 43 39
3 64 66 39
3 44 66 67
3 43 66 44
3 68 49 48
3 69 49 68
3 49 69 65
3 42 49 65
3 70 50 44
3 67 70 44
3 50 70 51
3 51 70 71
3 51 71 52
3 52 71 72
3 52 72 68
3 48 52 68
3 73 53 54
3 74 73 54
3 54 55 74
3 55 75 74
3 55 56 75
3 56 76 75
3 57 77 76
3 56 57 76
3 78 58 59
3 79 78 59
3 59 73 79
3 53 73 59
3 80 57 60
3 77 57 80
3 61 81 80
3 60 61 80
3 62 58 82
3 82 58 78
3 63 83 61
3 83 81 61
3 64 62 84
3 84 62 82
3 65 85 63
3 85 83 63
3 86 66 64
3 84 86 64
3 67 86 87
3 66 86 67
3 88 69 68
3 89 69 88
3 69 89 85
3 65 69 85
3 90 70 67
3 87 90 67
3 70 90 71
3 71 90 91
3 71 91 72
3 72 91 92
3 72 92 88
3 68 72 88
3 73 74 93
3 74 75 94
3 93 74 94
3 75 76 95
3 94 75 95
3 76 77 95
3 78 79 96
3 97 93 98
3 96 93 97
3 96 73 93
3 96 79 73
3 94 98 93
3 99 98 94
3 95 99 94
3 100 99 95
3 100 101 102
3 95 101 100
3 95 80 101
3 95 77 80
3 80 81 101
3 82 78 96
3 103 82 96
3 96 104 103
3 97 104 96
3 102 105 106
3 101 105 102
3 105 101 81
3 83 105 81
3 84 82 103
3 107 84 103
3 103 108 107
3 104 108 103
3 106 109 110
3 105 109 106
3 109 105 83
3 85 109 83
3 86 84 107
3 107 108 111
3 86 107 111
3 86 111 112
3 86 112 87
3 112 113 114
3 111 113 112
3 114 115 116
3 113 115 114
3 89 110 109
3 88 110 89
3 88 115 110
3 88 116 115
3 89 109 85
3 90 87 112
3 91 90 112
3 114 91 112
3 92 91 114
3 116 92 114
3 92 116 88
3 97 98 117
3 98 99 118
3 117 98 118
3 99 100 119
3 118 99 119
3 100 102 119
3 104 97 117
3 120 104 117
3 120 117 121
3 117 118 121
3 121 118 122
3 118 119 122
3 122 119 102
3 106 122 102
3 108 104 120
3 123 108 120
3 123 120 124
3 120 121 124
3 124 121 125
3 121 122 125
3 125 122 106
3 110 125 106
3 111 108 123
3 113 111 123
3 124 113 123
3 115 113 124
3 125 115 124
3 115 125 110
