ply
format ascii 1.0
comment VCGLIB generated
element vertex 126
property float x
property float y
property float z
element face 248
property list uchar int vertex_indices
end_header
-0.155615493655204773 0.265804678201675415 -0.485406726598739624
-0.151162460446357727 0.167114272713661194 -0.39564242959022522
-0.228490188717842102 0.15777646005153656 -0.507826626300811768
-0.183657333254814148 -0.0819739177823066711 -0.355723708868026733
-0.276317596435546875 -0.0474484153091907501 -0.430523544549942017
-0.195878341794013977 -0.266776770353317261 -0.449830204248428345
-0.277350097894668579 -0.313499242067337036 -0.397979408502578735
-0.205889388918876648 -0.374185055494308472 -0.374922901391983032
0.0408261604607105255 0.235861614346504211 -0.44111904501914978
0.043609619140625 0.153992697596549988 -0.376688480377197266
0.0481046028435230255 -0.0675931647419929504 -0.466297000646591187
0.0101254777982831001 -0.305345743894577026 -0.375608444213867188
0.0472882576286792755 -0.373133331537246704 -0.42497524619102478
0.222571060061454773 0.202788010239601135 -0.374972343444824219
0.277309417724609375 0.146143004298210144 -0.471050411462783813
0.233364105224609375 -0.0780870914459228516 -0.378039687871932983
0.238885238766670227 -0.266553014516830444 -0.343036651611328125
0.290243774652481079 -0.408796399831771851 -0.373747974634170532
0.366573333740234375 0.125854775309562683 -0.438647747039794922
0.329165130853652954 -0.0378045737743377686 -0.43230023980140686
0.359773010015487671 -0.296676963567733765 -0.395839542150497437
-0.36916351318359375 0.269839376211166382 -0.274742603302001953
-0.427257537841796875 0.177320495247840881 -0.361689895391464233
-0.411053985357284546 0.119565822184085846 -0.298202991485595703
-0.404959350824356079 -0.079731769859790802 -0.386342525482177734
-0.329575866460800171 -0.0486404635012149811 -0.237975120544433594
-0.384288787841796875 -0.239597201347351074 -0.244284793734550476
-0.434823364019393921 -0.297273576259613037 -0.230681255459785461
-0.467945098876953125 -0.362643629312515259 -0.213616847991943359
-0.196502685546875 0.291698962450027466 -0.320795387029647827
-0.173720046877861023 0.402548640966415405 -0.417865276336669922
-0.302777618169784546 0.378959327936172485 -0.347369194030761719
-0.304046630859375 -0.51150357723236084 -0.200962856411933899
-0.159898117184638977 -0.508962571620941162 -0.298481613397598267
-0.236159011721611023 -0.496264666318893433 -0.17060406506061554
0.0505510978400707245 0.30495944619178772 -0.292855262756347656
0.0531183890998363495 0.3571624755859375 -0.437895774841308594
0.01763153076171875 -0.491222232580184937 -0.234842300415039062
-0.0173670444637537003 -0.487332850694656372 -0.110294662415981293
0.281286865472793579 0.344983458518981934 -0.300853252410888672
0.232608795166015625 0.391982555389404297 -0.368041187524795532
0.259356170892715454 -0.462568044662475586 -0.210285186767578125
0.231772109866142273 -0.491491436958312988 -0.109191261231899261
0.332105010747909546 0.421888977289199829 -0.255212634801864624
0.459267944097518921 0.299795478582382202 -0.211471244692802429
0.396759033203125 0.150996461510658264 -0.269467353820800781
0.321280151605606079 0.000683060206938534975 -0.218252971768379211
0.37880706787109375 -0.24622035026550293 -0.238772392272949219
0.463970184326171875 -0.311707466840744019 -0.138731002807617188
0.315753936767578125 -0.456734389066696167 -0.0570190735161304474
0.375979095697402954 0.219144746661186218 -0.18113391101360321
0.426990509033203125 -0.0236179325729608536 -0.135769203305244446
0.376810699701309204 -0.256034135818481445 -0.124295391142368317
-0.479134887456893921 0.278757691383361816 -0.0846700668334960938
-0.423089355230331421 0.185002431273460388 -0.0918154716491699219
-0.324513763189315796 -0.0288412589579820633 -0.0479280166327953339
-0.40424346923828125 -0.239351317286491394 0.0264267921447753906
-0.462195068597793579 -0.3513316810131073 0.0410095863044261932
-0.229175567626953125 0.373890429735183716 -0.0790440216660499573
-0.289432525634765625 0.425528168678283691 -0.080286659300327301
-0.296076446771621704 -0.476519614458084106 0.00391181325539946556
-0.244785308837890625 -0.411025762557983398 0.0557874031364917755
-0.0007781982421875 0.394938558340072632 -0.119522571563720703
-0.016632080078125 -0.384061425924301147 0.0409038849174976349
0.204588577151298523 0.426094502210617065 -0.0514529533684253693
0.190096542239189148 -0.385703474283218384 0.115593433380126953
0.351510375738143921 0.412454724311828613 -0.080074310302734375
0.444249480962753296 0.324839740991592407 -0.00320959091186523438
0.423074096441268921 -0.273225963115692139 0.117740310728549957
0.325687408447265625 -0.368989616632461548 0.135104015469551086
0.478780120611190796 0.252293556928634644 0.00961748789995908737
0.495357513427734375 0.000191404658835381269 0.0500272102653980255
0.369078308343887329 -0.193723365664482117 0.094609580934047699
-0.494471222162246704 0.314541131258010864 0.0999574661254882812
-0.433249145746231079 0.223423197865486145 0.0907133445143699646
-0.387630462646484375 0.018617020919919014 0.137049198150634766
-0.466365814208984375 -0.177600190043449402 0.22488085925579071
-0.344755798578262329 -0.248820260167121887 0.172631576657295227
-0.285462707281112671 0.366370648145675659 0.123736537992954254
-0.31884765625 0.465336591005325317 0.121555805206298828
-0.325298309326171875 -0.407348662614822388 0.278010368347167969
-0.237322494387626648 -0.470015734434127808 0.279473453760147095
-0.0306307468563318253 0.432161450386047363 0.154425933957099915
-0.0289789829403162003 -0.438955515623092651 0.335023552179336548
0.190372467041015625 0.403501898050308228 0.158545181155204773
0.168682098388671875 -0.31751677393913269 0.305498749017715454
0.30139923095703125 0.4491596519947052 0.150890037417411804
0.427743285894393921 0.389729231595993042 0.199873283505439758
0.46207427978515625 -0.229623034596443176 0.353947162628173828
0.264027923345565796 -0.312081307172775269 0.300139755010604858
0.490772247314453125 0.219825685024261475 0.193245097994804382
0.482775360345840454 0.0613713450729846954 0.292759895324707031
0.385990142822265625 -0.1772870272397995 0.306562751531600952
-0.465485900640487671 0.208146527409553528 0.22272936999797821
-0.355065673589706421 0.0568432658910751343 0.231965228915214539
-0.412157684564590454 -0.203503772616386414 0.297351688146591187
-0.245558425784111023 0.477659106254577637 0.201638534665107727
-0.277945190668106079 0.368702054023742676 0.392886310815811157
-0.364988952875137329 0.315048485994338989 0.334050983190536499
-0.339174896478652954 0.0683100074529647827 0.395472854375839233
-0.300160735845565796 -0.196529164910316467 0.434286743402481079
-0.330020904541015625 -0.506331264972686768 0.444687038660049438
-0.294269561767578125 -0.29467475414276123 0.516182899475097656
-0.0254681911319494247 0.480620980262756348 0.22390158474445343
-0.0417912788689136505 0.401341915130615234 0.429149150848388672
-0.046855926513671875 -0.469284623861312866 0.460198879241943359
-0.0317026786506175995 -0.308491915464401245 0.469518512487411499
0.18618011474609375 0.415263533592224121 0.223064899444580078
0.15692901611328125 0.254595249891281128 0.359732151031494141
0.163613632321357727 -0.38496553897857666 0.445896774530410767
0.159254714846611023 -0.237508669495582581 0.532912492752075195
0.249327346682548523 0.318994700908660889 0.430299609899520874
0.379489898681640625 0.274726271629333496 0.33549991250038147
0.279820770025253296 0.0788477808237075806 0.416095256805419922
0.401880890130996704 0.0866189524531364441 0.340747356414794922
0.215035751461982727 -0.125928834080696106 0.405821949243545532
0.419681549072265625 -0.13492131233215332 0.432846546173095703
-0.274743407964706421 0.318565815687179565 0.41860470175743103
-0.258486419916152954 0.0412725359201431274 0.432189136743545532
-0.234690353274345398 -0.19850216805934906 0.467481285333633423
-0.0279261264950037003 0.284663975238800049 0.376120239496231079
-0.0374158211052417755 0.0712615922093391418 0.343472003936767578
-0.089962005615234375 -0.188825547695159912 0.411248534917831421
0.195660904049873352 0.29539915919303894 0.323215007781982422
0.134073898196220398 0.0730386152863502502 0.369584411382675171
0.169207260012626648 -0.158210590481758118 0.421446651220321655
3 0 1 2
3 1 3 4
3 2 1 4
3 3 5 6
3 4 3 6
3 5 7 6
3 0 8 9
3 1 0 9
3 9 10 1
3 1 10 3
3 10 11 3
3 3 11 5
3 5 11 12
3 7 5 12
3 8 13 14
3 9 8 14
3 14 15 9
3 9 15 10
3 15 16 10
3 10 16 11
3 11 16 17
3 12 11 17
3 14 13 18
3 15 14 18
3 19 15 18
3 16 15 19
3 20 16 19
3 16 20 17
3 21 22 23
3 22 24 25
3 23 22 25
3 24 26 27
3 25 24 27
3 26 28 27
3 29 30 31
3 2 22 21
3 0 2 21
3 0 21 31
3 0 31 30
3 4 22 2
3 24 22 4
3 6 24 4
3 26 24 6
3 26 32 28
3 6 32 26
3 6 33 32
3 6 7 33
3 33 34 32
3 29 35 36
3 30 29 36
3 36 0 30
3 8 0 36
3 12 33 7
3 37 33 12
3 33 37 38
3 34 33 38
3 35 39 40
3 36 35 40
3 40 8 36
3 13 8 40
3 17 37 12
3 41 37 17
3 37 41 42
3 38 37 42
3 40 39 43
3 43 44 45
3 40 43 45
3 40 45 18
3 40 18 13
3 18 46 19
3 45 46 18
3 19 47 20
3 46 47 19
3 48 49 41
3 47 48 41
3 47 41 17
3 47 17 20
3 41 49 42
3 45 44 50
3 46 45 50
3 51 46 50
3 47 46 51
3 52 47 51
3 47 52 48
3 53 21 23
3 54 53 23
3 23 25 54
3 25 55 54
3 25 27 55
3 27 56 55
3 28 57 56
3 27 28 56
3 58 29 31
3 59 58 31
3 31 53 59
3 21 53 31
3 60 28 32
3 57 28 60
3 34 61 60
3 32 34 60
3 35 29 62
3 62 29 58
3 38 63 34
3 63 61 34
3 39 35 64
3 64 35 62
3 42 65 38
3 65 63 38
3 66 43 39
3 64 66 39
3 44 66 67
3 43 66 44
3 68 49 48
3 69 49 68
3 49 69 65
3 42 49 65
3 70 50 44
3 67 70 44
3 50 70 51
3 51 70 71
3 51 71 52
3 52 71 72
3 52 72 68
3 48 52 68
3 73 53 54
3 74 73 54
3 54 55 74
3 55 75 74
3 55 56 75
3 56 76 75
3 57 77 76
3 56 57 76
3 78 58 59
3 79 78 59
3 59 73 79
3 53 73 59
3 80 57 60
3 77 57 80
3 61 81 80
3 60 61 80
3 62 58 82
3 82 58 78
3 63 83 61
3 83 81 61
3 64 62 84
3 84 62 82
3 65 85 63
3 85 83 63
3 86 66 64
3 84 86 64
3 67 86 87
3 66 86 67
3 88 69 68
3 89 69 88
3 69 89 85
3 65 69 85
3 90 70 67
3 87 90 67
3 70 90 71
3 71 90 91
3 71 91 72
3 72 91 92
3 72 92 88
3 68 72 88
3 73 74 93
3 74 75 94
3 93 74 94
3 75 76 95
3 94 75 95
3 76 77 95
3 78 79 96
3 97 93 98
3 96 93 97
3 96 73 93
3 96 79 73
3 94 98 93
3 99 98 94
3 95 99 94
3 100 99 95
3 100 101 102
3 95 101 100
3 95 80 101
3 95 77 80
3 80 81 101
3 82 78 96
3 103 82 96
3 96 104 103
3 97 104 96
3 102 105 106
3 101 105 102
3 105 101 81
3 83 105 81
3 84 82 103
3 107 84 103
3 103 108 107
3 104 108 103
3 106 109 110
3 105 109 106
3 109 105 83
3 85 109 83
3 86 84 107
3 107 108 111
3 86 107 111
3 86 111 112
3 86 112 87
3 112 113 114
3 111 113 112
3 114 115 116
3 113 115 114
3 89 110 109
3 88 110 89
3 88 115 110
3 88 116 115
3 89 109 85
3 90 87 112
3 91 90 112
3 114 91 112
3 92 91 114
3 116 92 114
3 92 116 88
3 97 98 117
3 98 99 118
3 117 98 118
3 99 100 119
3 118 99 119
3 100 102 119
3 104 97 117
3 120 104 117
3 120 117 121
3 117 118 121
3 121 118 122
3 118 119 122
3 122 119 102
3 106 122 102
3 108 104 120
3 123 108 120
3 123 120 124
3 120 121 124
3 124 121 125
3 121 122 125
3 125 122 106
3 110 125 106
3 111 108 123
3 113 111 123
3 124 113 123
3 115 113 124
3 125 115 124
3 115 125 110
