ply
format ascii 1.0
comment VCGLIB generated
element vertex 126
property float x
property float y
property float z
element face 248
property list uchar int vertex_indices
end_header
-0.126522064208984375 0.0868159458041191101 -0.531349003314971924
-0.075917564332485199 0.0080575253814458847 -0.482793807983398438
-0.175567626953125 -0.0316725224256515503 -0.476284980773925781
0.00185394287109375 -0.158292442560195923 -0.361394256353378296
-0.09128570556640625 -0.197485044598579407 -0.339232444763183594
0.0187695827335119247 -0.0532051324844360352 -0.164331123232841492
-0.0980682373046875 -0.0751034095883369446 -0.15038888156414032
0.0188624057918787003 -0.123588450253009796 -0.0888411179184913635
0.074640907347202301 0.156060561537742615 -0.450222492218017578
0.0284563694149255753 0.157387956976890564 -0.349276691675186157
0.0492655448615550995 -0.00382972205989062786 -0.194352462887763977
0.243977859616279602 -0.103403776884078979 -0.178430557250976562
0.238210037350654602 -0.147625759243965149 -0.0811866149306297302
0.272547394037246704 0.199388682842254639 -0.352654606103897095
0.232507064938545227 0.18458026647567749 -0.25730133056640625
0.154186248779296875 0.142641887068748474 -0.0564854927361011505
0.279052734375 -0.0226207394152879715 0.0297198295593261719
0.382111877202987671 0.00111142813693732023 -0.00430154800415039062
0.261943817138671875 0.0804170668125152588 -0.274610370397567749
0.24941253662109375 0.195138528943061829 -0.0817557945847511292
0.314151763916015625 0.0692519024014472961 0.092662811279296875
-0.368924468755722046 0.0738679245114326477 -0.321342796087265015
-0.329776763916015625 -0.0506933294236660004 -0.381270259618759155
-0.365338653326034546 -0.026709364727139473 -0.279723644256591797
-0.26137542724609375 -0.250821858644485474 -0.296650737524032593
-0.32433319091796875 -0.227603614330291748 -0.198791339993476868
-0.19116973876953125 -0.231086611747741699 -0.0876243934035301208
-0.16629791259765625 -0.329516619443893433 -0.0726736411452293396
-0.076241813600063324 -0.267277330160140991 -0.102685771882534027
-0.24398040771484375 0.303790539503097534 -0.399653911590576172
-0.189801529049873352 0.20654045045375824 -0.412129074335098267
-0.327715545892715454 0.227922901511192322 -0.408672481775283813
0.064482368528842926 -0.290645629167556763 0.0152775449678301811
-0.00927480030804872513 -0.187029659748077393 0.064379371702671051
-0.0104688005521893501 -0.240689471364021301 -0.051914215087890625
-0.0500920601189136505 0.291437655687332153 -0.287458568811416626
0.00607554102316498756 0.302485644817352295 -0.380296230316162109
0.209392547607421875 -0.22186744213104248 0.0746771469712257385
0.214459732174873352 -0.200805619359016418 -0.0375417061150074005
0.147721603512763977 0.287386149168014526 -0.180661514401435852
0.197404220700263977 0.34354710578918457 -0.264684051275253296
0.399630218744277954 -0.105024866759777069 0.133676528930664062
0.3968658447265625 -0.0750307813286781311 0.0260411892086267471
0.232606247067451477 0.333146184682846069 -0.131989642977714539
0.241185501217842102 0.166055381298065186 -0.0615798644721508026
0.172692611813545227 0.0643259435892105103 -0.116531215608119965
0.372028350830078125 0.0806002393364906311 -0.0106267929077148438
0.394888550043106079 0.216920986771583557 0.166138172149658203
0.364367157220840454 0.145444676280021667 0.0486248321831226349
0.475377410650253296 -0.00603216188028454781 0.0621409416198730469
0.133340194821357727 0.136122986674308777 -0.0394487380981445312
0.3511810302734375 0.166329756379127502 -0.0746102333068847656
0.426270812749862671 0.119525901973247528 0.132779285311698914
-0.317525237798690796 0.170779451727867126 -0.12601916491985321
-0.331050872802734375 0.0700227692723274231 -0.0911029204726219177
-0.3979949951171875 -0.103836275637149811 0.0015010833740234375
-0.242764785885810852 -0.258517742156982422 0.101993560791015625
-0.1118621826171875 -0.237721040844917297 0.122628211975097656
-0.268644958734512329 0.298361659049987793 -0.175531551241874695
-0.365233093500137329 0.329832941293716431 -0.204526260495185852
0.0124829607084393501 -0.182636633515357971 0.196816131472587585
0.0042572021484375 -0.102609537541866302 0.109683036804199219
-0.111052192747592926 0.456234604120254517 -0.147935867309570312
0.181318923830986023 -0.235988318920135498 0.182152435183525085
0.085038505494594574 0.448583453893661499 -0.0417399406433105469
0.277268737554550171 -0.0303938742727041245 0.212169960141181946
0.109002433717250824 0.391272693872451782 0.0484431572258472443
0.209049224853515625 0.268880724906921387 0.13375091552734375
0.206052139401435852 -0.00366507912985980511 0.119042553007602692
0.322736114263534546 -0.128521427512168884 0.17866961658000946
0.162868499755859375 0.185422584414482117 0.180804088711738586
0.146924331784248352 0.0932065621018409729 -0.0175728797912597656
0.298624664545059204 -0.0485817939043045044 0.06917572021484375
-0.424023956060409546 0.247014299035072327 0.0605737380683422089
-0.319941192865371704 0.223284170031547546 0.0459996871650218964
-0.360506683588027954 0.0590888522565364838 0.169574424624443054
-0.264458984136581421 -0.126829147338867188 0.27373012900352478
-0.20050811767578125 -0.20102556049823761 0.299688488245010376
-0.299265533685684204 0.382366985082626343 0.0318977050483226776
-0.394014984369277954 0.414022177457809448 0.00516748428344726562
-0.118231453001499176 -0.0446327924728393555 0.316136032342910767
-0.07245635986328125 -0.139416962862014771 0.328423023223876953
-0.078653968870639801 0.381021171808242798 0.0596245117485523224
0.112122856080532074 -0.231298580765724182 0.394270896911621094
0.067682899534702301 0.231194421648979187 -0.0134245557710528374
0.288967132568359375 -0.08459433913230896 0.424204975366592407
-0.0392824821174144745 0.231770157814025879 -0.0114275617524981499
0.00997797679156064987 0.363503545522689819 0.106998443603515625
0.332604736089706421 0.145482227206230164 0.232367038726806641
0.298880249261856079 0.0110341804102063179 0.356883853673934937
-0.0381838493049144745 0.280874758958816528 0.163035079836845398
0.027133941650390625 0.0685236677527427673 0.173273399472236633
0.240275070071220398 0.139625698328018188 0.172313526272773743
-0.334758758544921875 0.185400411486625671 0.150325775146484375
-0.3592987060546875 -0.0154561819508671761 0.0675387382507324219
-0.321965545415878296 -0.182789698243141174 0.204902008175849915
-0.298024505376815796 0.487716764211654663 0.0693027153611183167
-0.213054656982421875 0.3579539954662323 -0.019321441650390625
-0.285160064697265625 0.25323021411895752 -0.0174380932003259659
-0.257448822259902954 0.10764988511800766 0.157933548092842102
-0.257631927728652954 -0.0719567984342575073 0.310101181268692017
-0.0147272748872637749 -0.0864172354340553284 0.251857280731201172
-0.147310897707939148 -0.179999709129333496 0.298356205224990845
-0.140783950686454773 0.366414755582809448 -0.0380466766655445099
-0.021728515625 0.402712464332580566 0.0866659507155418396
0.136646270751953125 -0.256828188896179199 0.290923595428466797
0.0504849739372730255 -0.143078997731208801 0.175427272915840149
0.0355428047478199005 0.297670274972915649 0.0763645172119140625
-0.081755317747592926 0.214640244841575623 0.19839031994342804
0.3092498779296875 -0.117408208549022675 0.312294811010360718
0.277804046869277954 -0.152172818779945374 0.139745712280273438
-0.0112406415864825249 0.147034987807273865 0.294351249933242798
0.0427373237907886505 0.310272544622421265 0.234808281064033508
0.2043609619140625 0.0748357921838760376 0.282775253057479858
0.021602630615234375 0.0916236340999603271 0.280536502599716187
0.19400787353515625 -0.0532339662313461304 0.101175941526889801
0.235375717282295227 0.0511934719979763031 0.23950369656085968
-0.17728424072265625 0.258567601442337036 -0.0303428974002599716
-0.17064666748046875 0.0637192204594612122 0.100290931761264801
-0.142630264163017273 -0.0797697678208351135 0.270799010992050171
0.0398508720099925995 0.327195495367050171 0.0226035118103027344
0.0279973354190587997 0.14058348536491394 0.159872531890869141
0.077477775514125824 -0.0602446645498275757 0.255274772644042969
0.0184758510440587997 0.224183335900306702 0.222108840942382812
0.238245651125907898 0.163838937878608704 0.220265701413154602
0.284756988286972046 -0.0462776236236095428 0.16678793728351593
3 0 1 2
3 1 3 4
3 2 1 4
3 3 5 6
3 4 3 6
3 5 7 6
3 0 8 9
3 1 0 9
3 9 10 1
3 1 10 3
3 10 11 3
3 3 11 5
3 5 11 12
3 7 5 12
3 8 13 14
3 9 8 14
3 14 15 9
3 9 15 10
3 15 16 10
3 10 16 11
3 11 16 17
3 12 11 17
3 14 13 18
3 15 14 18
3 19 15 18
3 16 15 19
3 20 16 19
3 16 20 17
3 21 22 23
3 22 24 25
3 23 22 25
3 24 26 27
3 25 24 27
3 26 28 27
3 29 30 31
3 2 22 21
3 0 2 21
3 0 21 31
3 0 31 30
3 4 22 2
3 24 22 4
3 6 24 4
3 26 24 6
3 26 32 28
3 6 32 26
3 6 33 32
3 6 7 33
3 33 34 32
3 29 35 36
3 30 29 36
3 36 0 30
3 8 0 36
3 12 33 7
3 37 33 12
3 33 37 38
3 34 33 38
3 35 39 40
3 36 35 40
3 40 8 36
3 13 8 40
3 17 37 12
3 41 37 17
3 37 41 42
3 38 37 42
3 40 39 43
3 43 44 45
3 40 43 45
3 40 45 18
3 40 18 13
3 18 46 19
3 45 46 18
3 19 47 20
3 46 47 19
3 48 49 41
3 47 48 41
3 47 41 17
3 47 17 20
3 41 49 42
3 45 44 50
3 46 45 50
3 51 46 50
3 47 46 51
3 52 47 51
3 47 52 48
3 53 21 23
3 54 53 23
3 23 25 54
3 25 55 54
3 25 27 55
3 27 56 55
3 28 57 56
3 27 28 56
3 58 29 31
3 59 58 31
3 31 53 59
3 21 53 31
3 60 28 32
3 57 28 60
3 34 61 60
3 32 34 60
3 35 29 62
3 62 29 58
3 38 63 34
3 63 61 34
3 39 35 64
3 64 35 62
3 42 65 38
3 65 63 38
3 66 43 39
3 64 66 39
3 44 66 67
3 43 66 44
3 68 49 48
3 69 49 68
3 49 69 65
3 42 49 65
3 70 50 44
3 67 70 44
3 50 70 51
3 51 70 71
3 51 71 52
3 52 71 72
3 52 72 68
3 48 52 68
3 73 53 54
3 74 73 54
3 54 55 74
3 55 75 74
3 55 56 75
3 56 76 75
3 57 77 76
3 56 57 76
3 78 58 59
3 79 78 59
3 59 73 79
3 53 73 59
3 80 57 60
3 77 57 80
3 61 81 80
3 60 61 80
3 62 58 82
3 82 58 78
3 63 83 61
3 83 81 61
3 64 62 84
3 84 62 82
3 65 85 63
3 85 83 63
3 86 66 64
3 84 86 64
3 67 86 87
3 66 86 67
3 88 69 68
3 89 69 88
3 69 89 85
3 65 69 85
3 90 70 67
3 87 90 67
3 70 90 71
3 71 90 91
3 71 91 72
3 72 91 92
3 72 92 88
3 68 72 88
3 73 74 93
3 74 75 94
3 93 74 94
3 75 76 95
3 94 75 95
3 76 77 95
3 78 79 96
3 97 93 98
3 96 93 97
3 96 73 93
3 96 79 73
3 94 98 93
3 99 98 94
3 95 99 94
3 100 99 95
3 100 101 102
3 95 101 100
3 95 80 101
3 95 77 80
3 80 81 101
3 82 78 96
3 103 82 96
3 96 104 103
3 97 104 96
3 102 105 106
3 101 105 102
3 105 101 81
3 83 105 81
3 84 82 103
3 107 84 103
3 103 108 107
3 104 108 103
3 106 109 110
3 105 109 106
3 109 105 83
3 85 109 83
3 86 84 107
3 107 108 111
3 86 107 111
3 86 111 112
3 86 112 87
3 112 113 114
3 111 113 112
3 114 115 116
3 113 115 114
3 89 110 109
3 88 110 89
3 88 115 110
3 88 116 115
3 89 109 85
3 90 87 112
3 91 90 112
3 114 91 112
3 92 91 114
3 116 92 114
3 92 116 88
3 97 98 117
3 98 99 118
3 117 98 118
3 99 100 119
3 118 99 119
3 100 102 119
3 104 97 117
3 120 104 117
3 120 117 121
3 117 118 121
3 121 118 122
3 118 119 122
3 122 119 102
3 106 122 102
3 108 104 120
3 123 108 120
3 123 120 124
3 120 121 124
3 124 121 125
3 121 122 125
3 125 122 106
3 110 125 106
3 111 108 123
3 113 111 123
3 124 113 123
3 115 113 124
3 125 115 124
3 115 125 110
