ply
format ascii 1.0
comment VCGLIB generated
element vertex 126
property float x
property float y
property float z
element face 248
property list uchar int vertex_indices
end_header
-0.158358991146087646 0.315978288650512695 -0.391579031944274902
-0.149278640747070312 0.232936516404151917 -0.46425020694732666
-0.244745537638664246 0.212602555751800537 -0.417367726564407349
-0.140775948762893677 0.0101167447865009308 -0.504933416843414307
-0.204605385661125183 -0.00526965036988258362 -0.422873347997665405
-0.0933619886636734009 -0.0878236442804336548 -0.284588843584060669
-0.0262710023671388626 0.0108330454677343369 -0.27785336971282959
-0.00666890852153301239 -0.0969660729169845581 -0.221235930919647217
-0.0193282533437013626 0.218540757894515991 -0.249413087964057922
-0.00216211588121950626 0.136867493391036987 -0.321323692798614502
0.0821290686726570129 0.0276627615094184875 -0.501612424850463867
0.0752122104167938232 -0.18833884596824646 -0.423323959112167358
0.0897829905152320862 -0.252256453037261963 -0.344482332468032837
0.162435263395309448 0.329372704029083252 -0.322028577327728271
0.192861557006835938 0.240816876292228699 -0.377095252275466919
0.282143175601959229 0.0408919714391231537 -0.419558286666870117
0.269031524658203125 -0.163983657956123352 -0.332366734743118286
0.301570892333984375 -0.266368180513381958 -0.327718943357467651
0.289459228515625 0.276136606931686401 -0.335624039173126221
0.364652365446090698 0.0633641704916954041 -0.3511466383934021
0.380105972290039062 -0.157819092273712158 -0.318365097045898438
-0.404767990112304688 0.28143879771232605 -0.200413644313812256
-0.372018814086914062 0.190115422010421753 -0.294774264097213745
-0.359987527132034302 0.182385042309761047 -0.188960686326026917
-0.303373336791992188 -0.0237981453537940979 -0.285736829042434692
-0.317054480314254761 -0.0300156231969594955 -0.180296555161476135
-0.125126153230667114 -0.0290586855262517929 -0.161086320877075195
-0.118581227958202362 -0.122562907636165619 -0.161750152707099915
-0.0272464752197265625 -0.115820586681365967 -0.0904367640614509583
-0.221693858504295349 0.504901587963104248 -0.182620972394943237
-0.189537331461906433 0.441921442747116089 -0.270167082548141479
-0.304100871086120605 0.435545891523361206 -0.188450649380683899
-0.0413622185587882996 -0.293235689401626587 -0.145879641175270081
-0.134525299072265625 -0.233946025371551514 -0.164660900831222534
-0.0981181040406227112 -0.350553601980209351 -0.199910581111907959
-0.0595842115581035614 0.415136426687240601 -0.0462612099945545197
-0.0434276051819324493 0.341175377368927002 -0.126937806606292725
0.0527191162109375 -0.360796868801116943 -0.205511540174484253
0.105680741369724274 -0.267341494560241699 -0.227105274796485901
0.121664322912693024 0.527882277965545654 -0.112290047109127045
0.130487173795700073 0.459628790616989136 -0.202594995498657227
0.284944266080856323 -0.354201704263687134 -0.17945273220539093
0.271801263093948364 -0.316998094320297241 -0.0805170238018035889
0.225652977824211121 0.496301114559173584 -0.111720733344554901
0.34259796142578125 0.368080228567123413 -0.0989316180348396301
0.396045953035354614 0.289788961410522461 -0.193388462066650391
0.424220234155654907 0.0697112008929252625 -0.184356823563575745
0.492984235286712646 -0.128683209419250488 -0.174243450164794922
0.471834450960159302 -0.183158323168754578 -0.045238051563501358
0.325910031795501709 -0.225362226366996765 -0.138199329376220703
0.414394646883010864 0.289438158273696899 -0.0798359960317611694
0.344341814517974854 0.0773222222924232483 -0.116692781448364258
0.483905255794525146 -0.0758239999413490295 -0.0624212212860584259
-0.42438507080078125 0.294812381267547607 0.0238852854818105698
-0.431278795003890991 0.187548503279685974 0.0233026910573244095
-0.392573237419128418 -0.0370444804430007935 0.0228728577494621277
-0.227422714233398438 -0.15725041925907135 0.0228009913116693497
-0.146271839737892151 -0.218815892934799194 -0.00185438571497797966
-0.28064456582069397 0.540674090385437012 0.0360662601888179779
-0.328886866569519043 0.441522747278213501 0.0373535491526126862
-0.0861317813396453857 -0.401284158229827881 0.0359502881765365601
8.85554763954132795e-05 -0.446716248989105225 -0.0186656210571527481
-0.0631686598062515259 0.60952526330947876 0.0660058408975601196
0.183815270662307739 -0.339513391256332397 -0.0319639295339584351
0.154882162809371948 0.601086199283599854 0.102073468267917633
0.201150357723236084 -0.140734806656837463 0.05096401646733284
0.235742852091789246 0.528429269790649414 0.110415562987327576
0.253215521574020386 0.34542044997215271 0.106360062956809998
0.337062567472457886 -0.155113473534584045 0.132737666368484497
0.267017900943756104 -0.050352141261100769 0.0009918212890625
0.338446766138076782 0.272935390472412109 0.13318181037902832
0.226380482316017151 0.093466930091381073 0.0705516338348388672
0.303994596004486084 -0.0994684770703315735 0.0542942136526107788
-0.452037543058395386 0.294334560632705688 0.250121355056762695
-0.462401270866394043 0.184677273035049438 0.24325031042098999
-0.374623715877532959 -0.0157770048826932907 0.250885844230651855
-0.140639722347259521 -0.0962160751223564148 0.231187865138053894
-0.139498025178909302 -0.251052349805831909 0.209315851330757141
-0.273760378360748291 0.512998402118682861 0.260789066553115845
-0.356980741024017334 0.441915690898895264 0.261933803558349609
0.0336360931396484375 -0.303321480751037598 0.198061302304267883
-0.0310666225850582123 -0.279897868633270264 0.12797798216342926
-0.0532450005412101746 0.497716367244720459 0.246495530009269714
0.197042748332023621 -0.30040973424911499 0.184201508760452271
0.139438092708587646 0.561262249946594238 0.318961828947067261
0.408520013093948364 -0.202890336513519287 0.135272741317749023
0.241180151700973511 0.521351337432861328 0.333323836326599121
0.31394687294960022 0.359578132629394531 0.314673006534576416
0.536197960376739502 -0.0698755457997322083 0.134082689881324768
0.440607070922851562 -0.181438237428665161 0.0224312711507081985
0.269372135400772095 0.260889172554016113 0.344606995582580566
0.386584162712097168 0.191918313503265381 0.171377837657928467
0.460590630769729614 -0.0168325081467628479 0.20400354266166687
-0.426010400056838989 0.198162779211997986 0.347377747297286987
-0.337589800357818604 -0.0116279497742652893 0.351968318223953247
-0.202396944165229797 -0.186655327677726746 0.310301780700683594
-0.2817535400390625 0.479222089052200317 0.363001316785812378
-0.226180210709571838 0.358978718519210815 0.47996675968170166
-0.309964597225189209 0.266985297203063965 0.450425326824188232
-0.207793369889259338 0.081575050950050354 0.410444408655166626
-0.149665564298629761 -0.0449321158230304718 0.223402470350265503
0.0253813620656728745 -0.201028421521186829 0.0907281488180160522
-0.0848756507039070129 -0.169865995645523071 0.22592867910861969
-0.0851508527994155884 0.458690732717514038 0.318529278039932251
0.000286102294921875 0.392856508493423462 0.438078820705413818
0.196580886840820312 -0.198662653565406799 0.225080773234367371
0.113022670149803162 -0.0682517886161804199 0.265960872173309326
0.127954483032226562 0.456292927265167236 0.373773068189620972
0.138241901993751526 0.286106079816818237 0.285177916288375854
0.337893635034561157 -0.124221466481685638 0.0783530324697494507
0.240804135799407959 0.0133480383083224297 0.117919616401195526
0.206944599747657776 0.202268093824386597 0.36688464879989624
0.363116949796676636 0.28706437349319458 0.409858912229537964
0.282072335481643677 0.214636325836181641 0.150509566068649292
0.454917639493942261 0.247093275189399719 0.213968083262443542
0.301644474267959595 0.00804613064974546432 0.240735337138175964
0.447503507137298584 0.0423705801367759705 0.120102167129516602
-0.234046667814254761 0.326606243848800659 0.384078890085220337
-0.154672354459762573 0.125446632504463196 0.327405750751495361
-0.0804833024740219116 -0.0832563787698745728 0.290262520313262939
-0.0137642454355955124 0.291937887668609619 0.461644291877746582
0.0355557054281234741 0.213500931859016418 0.254691839218139648
0.0999246314167976379 0.00718445936217904091 0.194592997431755066
0.104577206075191498 0.165539577603340149 0.324376493692398071
0.261178702116012573 0.260226041078567505 0.249228999018669128
0.310129433870315552 0.0669748261570930481 0.167250633239746094
3 0 1 2
3 1 3 4
3 2 1 4
3 3 5 6
3 4 3 6
3 5 7 6
3 0 8 9
3 1 0 9
3 9 10 1
3 1 10 3
3 10 11 3
3 3 11 5
3 5 11 12
3 7 5 12
3 8 13 14
3 9 8 14
3 14 15 9
3 9 15 10
3 15 16 10
3 10 16 11
3 11 16 17
3 12 11 17
3 14 13 18
3 15 14 18
3 19 15 18
3 16 15 19
3 20 16 19
3 16 20 17
3 21 22 23
3 22 24 25
3 23 22 25
3 24 26 27
3 25 24 27
3 26 28 27
3 29 30 31
3 2 22 21
3 0 2 21
3 0 21 31
3 0 31 30
3 4 22 2
3 24 22 4
3 6 24 4
3 26 24 6
3 26 32 28
3 6 32 26
3 6 33 32
3 6 7 33
3 33 34 32
3 29 35 36
3 30 29 36
3 36 0 30
3 8 0 36
3 12 33 7
3 37 33 12
3 33 37 38
3 34 33 38
3 35 39 40
3 36 35 40
3 40 8 36
3 13 8 40
3 17 37 12
3 41 37 17
3 37 41 42
3 38 37 42
3 40 39 43
3 43 44 45
3 40 43 45
3 40 45 18
3 40 18 13
3 18 46 19
3 45 46 18
3 19 47 20
3 46 47 19
3 48 49 41
3 47 48 41
3 47 41 17
3 47 17 20
3 41 49 42
3 45 44 50
3 46 45 50
3 51 46 50
3 47 46 51
3 52 47 51
3 47 52 48
3 53 21 23
3 54 53 23
3 23 25 54
3 25 55 54
3 25 27 55
3 27 56 55
3 28 57 56
3 27 28 56
3 58 29 31
3 59 58 31
3 31 53 59
3 21 53 31
3 60 28 32
3 57 28 60
3 34 61 60
3 32 34 60
3 35 29 62
3 62 29 58
3 38 63 34
3 63 61 34
3 39 35 64
3 64 35 62
3 42 65 38
3 65 63 38
3 66 43 39
3 64 66 39
3 44 66 67
3 43 66 44
3 68 49 48
3 69 49 68
3 49 69 65
3 42 49 65
3 70 50 44
3 67 70 44
3 50 70 51
3 51 70 71
3 51 71 52
3 52 71 72
3 52 72 68
3 48 52 68
3 73 53 54
3 74 73 54
3 54 55 74
3 55 75 74
3 55 56 75
3 56 76 75
3 57 77 76
3 56 57 76
3 78 58 59
3 79 78 59
3 59 73 79
3 53 73 59
3 80 57 60
3 77 57 80
3 61 81 80
3 60 61 80
3 62 58 82
3 82 58 78
3 63 83 61
3 83 81 61
3 64 62 84
3 84 62 82
3 65 85 63
3 85 83 63
3 86 66 64
3 84 86 64
3 67 86 87
3 66 86 67
3 88 69 68
3 89 69 88
3 69 89 85
3 65 69 85
3 90 70 67
3 87 90 67
3 70 90 71
3 71 90 91
3 71 91 72
3 72 91 92
3 72 92 88
3 68 72 88
3 73 74 93
3 74 75 94
3 93 74 94
3 75 76 95
3 94 75 95
3 76 77 95
3 78 79 96
3 97 93 98
3 96 93 97
3 96 73 93
3 96 79 73
3 94 98 93
3 99 98 94
3 95 99 94
3 100 99 95
3 100 101 102
3 95 101 100
3 95 80 101
3 95 77 80
3 80 81 101
3 82 78 96
3 103 82 96
3 96 104 103
3 97 104 96
3 102 105 106
3 101 105 102
3 105 101 81
3 83 105 81
3 84 82 103
3 107 84 103
3 103 108 107
3 104 108 103
3 106 109 110
3 105 109 106
3 109 105 83
3 85 109 83
3 86 84 107
3 107 108 111
3 86 107 111
3 86 111 112
3 86 112 87
3 112 113 114
3 111 113 112
3 114 115 116
3 113 115 114
3 89 110 109
3 88 110 89
3 88 115 110
3 88 116 115
3 89 109 85
3 90 87 112
3 91 90 112
3 114 91 112
3 92 91 114
3 116 92 114
3 92 116 88
3 97 98 117
3 98 99 118
3 117 98 118
3 99 100 119
3 118 99 119
3 100 102 119
3 104 97 117
3 120 104 117
3 120 117 121
3 117 118 121
3 121 118 122
3 118 119 122
3 122 119 102
3 106 122 102
3 108 104 120
3 123 108 120
3 123 120 124
3 120 121 124
3 124 121 125
3 121 122 125
3 125 122 106
3 110 125 106
3 111 108 123
3 113 111 123
3 124 113 123
3 115 113 124
3 125 115 124
3 115 125 110
