ply
format ascii 1.0
comment VCGLIB generated
element vertex 126
property float x
property float y
property float z
element face 248
property list uchar int vertex_indices
end_header
-0.293390899896621704 0.271842986345291138 -0.37497711181640625
-0.262112945318222046 0.158636704087257385 -0.386803954839706421
-0.326119750738143921 0.151903823018074036 -0.296676009893417358
-0.228969573974609375 -0.0597279705107212067 -0.394342273473739624
-0.299955993890762329 -0.0717489048838615417 -0.306175082921981812
-0.067844390869140625 -0.0900270715355873108 -0.241620376706123352
-0.123926796019077301 -0.0389581732451915741 -0.16932995617389679
0.00388844800181686878 -0.118962474167346954 -0.160944625735282898
-0.085988365113735199 0.214339420199394226 -0.346920490264892578
-0.0598971061408519745 0.186672225594520569 -0.485743850469589233
-0.0129725141450762749 -0.0349722094833850861 -0.421610504388809204
0.0331217460334300995 -0.249251678586006165 -0.357369750738143921
0.033245086669921875 -0.316398113965988159 -0.257254749536514282
0.11032867431640625 0.322103738784790039 -0.317654132843017578
0.150026962161064148 0.24013817310333252 -0.384952068328857422
0.189871475100517273 0.0250139925628900528 -0.35080447793006897
0.251581817865371704 -0.190978601574897766 -0.325026988983154297
0.251936584711074829 -0.293810427188873291 -0.259720176458358765
0.230074569582939148 0.259799838066101074 -0.293984085321426392
0.291033416986465454 0.0527844168245792389 -0.292677879333496094
0.28218841552734375 -0.159881636500358582 -0.228741645812988281
-0.489095062017440796 0.277752846479415894 -0.118383251130580902
-0.409300476312637329 0.17626655101776123 -0.146737739443778992
-0.4730072021484375 0.191483065485954285 -0.0569715499877929688
-0.431921631097793579 -0.0287674218416213989 -0.18388812243938446
-0.50482177734375 -0.0213641319423913956 -0.0662449225783348083
-0.25537872314453125 -0.125476047396659851 -0.104926429688930511
-0.2908935546875 -0.103560596704483032 -0.00737682962790131569
-0.208841964602470398 -0.057905241847038269 0.0171971321105957031
-0.382727295160293579 0.343029111623764038 -0.0968384742736816406
-0.3280181884765625 0.332388788461685181 -0.201539516448974609
-0.41674041748046875 0.430859535932540894 -0.152510002255439758
-0.069484710693359375 -0.180284798145294189 0.0824171677231788635
0.0417912788689136505 -0.185379445552825928 -0.00374253583140671253
-0.069371543824672699 -0.235610887408256531 -0.0224194526672363281
-0.174424484372138977 0.332332074642181396 -0.0525638274848461151
-0.1290283203125 0.270862221717834473 -0.148202419281005859
0.0351816825568675995 -0.387377470731735229 -0.0917852744460105896
0.0353596992790699005 -0.434557169675827026 -0.00177399313542991877
0.0197397861629724503 0.442483067512512207 -0.0740148201584815979
0.0374158211052417755 0.411232203245162964 -0.174545601010322571
0.253785461187362671 -0.401498109102249146 -0.106660045683383942
0.263248443603515625 -0.419502943754196167 0.000517050444614142179
0.12722015380859375 0.462018042802810669 -0.0754734650254249573
0.2841644287109375 0.374566823244094849 -0.0375680923461914062
0.31696319580078125 0.267473995685577393 -0.12813250720500946
0.317029327154159546 0.0460735969245433807 -0.114697776734828949
0.435644775629043579 -0.141442224383354187 -0.13773028552532196
0.44579315185546875 -0.224989727139472961 -0.0229234695434570312
0.377862304449081421 -0.392964363098144531 -0.0353814773261547089
0.258218139410018921 0.271070480346679688 -0.0361909866333007812
0.376079559326171875 0.0807714089751243591 -0.0240794811397790909
0.456235259771347046 -0.122702173888683319 -0.0309383068233728409
-0.574460327625274658 0.35773041844367981 0.0753432884812355042
-0.645127594470977783 0.250637173652648926 0.0872282981872558594
-0.53125 0.0735784471035003662 0.146131515502929688
-0.473019927740097046 -0.0982177555561065674 0.0576275177299976349
-0.386783599853515625 -0.184559032320976257 0.0848647728562355042
-0.424989074468612671 0.463559538125991821 0.098941802978515625
-0.511319458484649658 0.521990656852722168 0.0694697722792625427
-0.241555526852607727 -0.310676366090774536 0.129508182406425476
-0.133711501955986023 -0.379423707723617554 0.138422489166259766
-0.223378494381904602 0.429268389940261841 0.162617206573486328
0.090326942503452301 -0.348174422979354858 0.21672503650188446
0.00175348913762718439 0.44967186450958252 0.156544208526611328
0.2821502685546875 -0.260144561529159546 0.153691604733467102
0.100799560546875 0.48805081844329834 0.152506515383720398
0.237944290041923523 0.379813939332962036 0.181485339999198914
0.405694335699081421 -0.172678723931312561 0.183617904782295227
0.302858978509902954 -0.328715294599533081 0.187300041317939758
0.192760467529296875 0.270200759172439575 0.169601753354072571
0.259199768304824829 0.0546659231185913086 0.160983726382255554
0.299950927495956421 -0.14766944944858551 0.151440784335136414
-0.637484252452850342 0.385466426610946655 0.310589313507080078
-0.65674591064453125 0.305717825889587402 0.334475517272949219
-0.605426788330078125 0.0834209397435188293 0.316831588745117188
-0.402643829584121704 -0.00432763714343309402 0.254134327173233032
-0.30921173095703125 -0.0591163039207458496 0.254139423370361328
-0.484144836664199829 0.586518645286560059 0.306563049554824829
-0.536806762218475342 0.522365331649780273 0.311734050512313843
-0.2168121337890625 -0.200576364994049072 0.314359515905380249
-0.152079269289970398 -0.206800654530525208 0.244132354855537415
-0.297679901123046875 0.512242615222930908 0.3815765380859375
0.073781333863735199 -0.134093970060348511 0.196159049868583679
-0.0601221732795238495 0.502549469470977783 0.369171470403671265
0.273183196783065796 -0.0788854882121086121 0.280942291021347046
0.0597966499626636505 0.503819763660430908 0.37871137261390686
0.191930130124092102 0.383434057235717773 0.401416927576065063
0.37880706787109375 -0.156970873475074768 0.390287071466445923
0.214181259274482727 -0.146095186471939087 0.253850609064102173
0.196057632565498352 0.272878795862197876 0.393163353204727173
0.273455291986465454 0.0766688734292984009 0.383316993713378906
0.269093841314315796 -0.145767807960510254 0.386032909154891968
-0.674739837646484375 0.296095401048660278 0.456399768590927124
-0.550329864025115967 0.0937600806355476379 0.436105400323867798
-0.347629547119140625 0.0254469588398933411 0.340115875005722046
-0.509063720703125 0.572356045246124268 0.445744365453720093
-0.498921722173690796 0.461618512868881226 0.599015653133392334
-0.565517425537109375 0.300320863723754883 0.617275416851043701
-0.434591919183731079 0.106266580522060394 0.578929662704467773
-0.304440826177597046 -0.0317479521036148071 0.47902265191078186
-0.144466400146484375 -0.198053225874900818 0.403555542230606079
-0.229176834225654602 -0.138497248291969299 0.480828136205673218
-0.284109741449356079 0.53279954195022583 0.449001938104629517
-0.311359405517578125 0.468089908361434937 0.604866445064544678
0.0593388862907886505 -0.127535417675971985 0.323188632726669312
-0.0590616874396800995 -0.0568214617669582367 0.422285228967666626
-0.0561612434685230255 0.516416966915130615 0.466435909271240234
-0.062967933714389801 0.413196176290512085 0.617776215076446533
0.243420913815498352 -0.0709698349237442017 0.383014827966690063
0.141432449221611023 -0.137101843953132629 0.510071337223052979
0.0496927909553050995 0.308641970157623291 0.617289483547210693
0.200926467776298523 0.294158667325973511 0.5025443434715271
0.0295206699520349503 0.0794750973582267761 0.565817177295684814
0.19786834716796875 0.0874698236584663391 0.460591793060302734
0.067223869264125824 -0.136814594268798828 0.498638242483139038
0.264775604009628296 -0.14090295135974884 0.489524930715560913
-0.494901031255722046 0.360656619071960449 0.550666153430938721
-0.358843475580215454 0.188239037990570068 0.531731545925140381
-0.245081588625907898 -0.0432724058628082275 0.542379081249237061
-0.291154235601425171 0.355963200330734253 0.660469293594360352
-0.176348373293876648 0.217272207140922546 0.605561435222625732
-0.0504887886345386505 0.0588539578020572662 0.502499163150787354
-0.065057121217250824 0.30020904541015625 0.612857043743133545
-0.088409423828125 0.0621188469231128693 0.580894410610198975
0.063519798219203949 -0.0916961506009101868 0.612249135971069336
3 0 1 2
3 1 3 4
3 2 1 4
3 3 5 6
3 4 3 6
3 5 7 6
3 0 8 9
3 1 0 9
3 9 10 1
3 1 10 3
3 10 11 3
3 3 11 5
3 5 11 12
3 7 5 12
3 8 13 14
3 9 8 14
3 14 15 9
3 9 15 10
3 15 16 10
3 10 16 11
3 11 16 17
3 12 11 17
3 14 13 18
3 15 14 18
3 19 15 18
3 16 15 19
3 20 16 19
3 16 20 17
3 21 22 23
3 22 24 25
3 23 22 25
3 24 26 27
3 25 24 27
3 26 28 27
3 29 30 31
3 2 22 21
3 0 2 21
3 0 21 31
3 0 31 30
3 4 22 2
3 24 22 4
3 6 24 4
3 26 24 6
3 26 32 28
3 6 32 26
3 6 33 32
3 6 7 33
3 33 34 32
3 29 35 36
3 30 29 36
3 36 0 30
3 8 0 36
3 12 33 7
3 37 33 12
3 33 37 38
3 34 33 38
3 35 39 40
3 36 35 40
3 40 8 36
3 13 8 40
3 17 37 12
3 41 37 17
3 37 41 42
3 38 37 42
3 40 39 43
3 43 44 45
3 40 43 45
3 40 45 18
3 40 18 13
3 18 46 19
3 45 46 18
3 19 47 20
3 46 47 19
3 48 49 41
3 47 48 41
3 47 41 17
3 47 17 20
3 41 49 42
3 45 44 50
3 46 45 50
3 51 46 50
3 47 46 51
3 52 47 51
3 47 52 48
3 53 21 23
3 54 53 23
3 23 25 54
3 25 55 54
3 25 27 55
3 27 56 55
3 28 57 56
3 27 28 56
3 58 29 31
3 59 58 31
3 31 53 59
3 21 53 31
3 60 28 32
3 57 28 60
3 34 61 60
3 32 34 60
3 35 29 62
3 62 29 58
3 38 63 34
3 63 61 34
3 39 35 64
3 64 35 62
3 42 65 38
3 65 63 38
3 66 43 39
3 64 66 39
3 44 66 67
3 43 66 44
3 68 49 48
3 69 49 68
3 49 69 65
3 42 49 65
3 70 50 44
3 67 70 44
3 50 70 51
3 51 70 71
3 51 71 52
3 52 71 72
3 52 72 68
3 48 52 68
3 73 53 54
3 74 73 54
3 54 55 74
3 55 75 74
3 55 56 75
3 56 76 75
3 57 77 76
3 56 57 76
3 78 58 59
3 79 78 59
3 59 73 79
3 53 73 59
3 80 57 60
3 77 57 80
3 61 81 80
3 60 61 80
3 62 58 82
3 82 58 78
3 63 83 61
3 83 81 61
3 64 62 84
3 84 62 82
3 65 85 63
3 85 83 63
3 86 66 64
3 84 86 64
3 67 86 87
3 66 86 67
3 88 69 68
3 89 69 88
3 69 89 85
3 65 69 85
3 90 70 67
3 87 90 67
3 70 90 71
3 71 90 91
3 71 91 72
3 72 91 92
3 72 92 88
3 68 72 88
3 73 74 93
3 74 75 94
3 93 74 94
3 75 76 95
3 94 75 95
3 76 77 95
3 78 79 96
3 97 93 98
3 96 93 97
3 96 73 93
3 96 79 73
3 94 98 93
3 99 98 94
3 95 99 94
3 100 99 95
3 100 101 102
3 95 101 100
3 95 80 101
3 95 77 80
3 80 81 101
3 82 78 96
3 103 82 96
3 96 104 103
3 97 104 96
3 102 105 106
3 101 105 102
3 105 101 81
3 83 105 81
3 84 82 103
3 107 84 103
3 103 108 107
3 104 108 103
3 106 109 110
3 105 109 106
3 109 105 83
3 85 109 83
3 86 84 107
3 107 108 111
3 86 107 111
3 86 111 112
3 86 112 87
3 112 113 114
3 111 113 112
3 114 115 116
3 113 115 114
3 89 110 109
3 88 110 89
3 88 115 110
3 88 116 115
3 89 109 85
3 90 87 112
3 91 90 112
3 114 91 112
3 92 91 114
3 116 92 114
3 92 116 88
3 97 98 117
3 98 99 118
3 117 98 118
3 99 100 119
3 118 99 119
3 100 102 119
3 104 97 117
3 120 104 117
3 120 117 121
3 117 118 121
3 121 118 122
3 118 119 122
3 122 119 102
3 106 122 102
3 108 104 120
3 123 108 120
3 123 120 124
3 120 121 124
3 124 121 125
3 121 122 125
3 125 122 106
3 110 125 106
3 111 108 123
3 113 111 123
3 124 113 123
3 115 113 124
3 125 115 124
3 115 125 110
