ply
format ascii 1.0
comment VCGLIB generated
element vertex 126
property float x
property float y
property float z
element face 248
property list uchar int vertex_indices
end_header
-0.152610138058662415 0.282239258289337158 -0.534483551979064941
-0.123554863035678864 0.223029598593711853 -0.450501024723052979
-0.235870674252510071 0.197652563452720642 -0.461939364671707153
-0.124923385679721832 0.0288859065622091293 -0.333191335201263428
-0.174880027770996094 -0.0141136962920427322 -0.421620577573776245
-0.174285560846328735 -0.19118712842464447 -0.258267909288406372
-0.148990944027900696 -0.218989044427871704 -0.367566525936126709
-0.201091751456260681 -0.300852954387664795 -0.280339300632476807
0.0654586106538772583 0.281182080507278442 -0.457124888896942139
0.0889762192964553833 0.183221518993377686 -0.494202762842178345
0.0654681473970413208 -0.0315276160836219788 -0.4455433189868927
0.0177288055419921875 -0.23903423547744751 -0.372575521469116211
-0.0010204315185546875 -0.342652350664138794 -0.34985661506652832
0.263997703790664673 0.270132452249526978 -0.34952700138092041
0.254106521606445312 0.163828238844871521 -0.340521126985549927
0.282540321350097656 -0.0501506365835666656 -0.392630875110626221
0.23198285698890686 -0.249154955148696899 -0.305384784936904907
0.21977582573890686 -0.351600229740142822 -0.276474148035049438
0.369216591119766235 0.181114912033081055 -0.336473375558853149
0.310969352722167969 -0.0186588559299707413 -0.289492011070251465
0.275877296924591064 -0.232223108410835266 -0.215662911534309387
-0.322572380304336548 0.299872756004333496 -0.234231337904930115
-0.351667404174804688 0.196357861161231995 -0.323335111141204834
-0.394072502851486206 0.211469888687133789 -0.219368726015090942
-0.215455681085586548 0.0289632994681596756 -0.252896547317504883
-0.271910011768341064 0.0355334877967834473 -0.150244429707527161
-0.251946449279785156 -0.194697991013526917 -0.219951853156089783
-0.168989494442939758 -0.182259470224380493 -0.106650784611701965
-0.296150833368301392 -0.287321746349334717 -0.113715723156929016
-0.0848515778779983521 0.196375876665115356 -0.271611213684082031
-0.103004768490791321 0.244844019412994385 -0.368232309818267822
-0.15266735851764679 0.274064540863037109 -0.249425560235977173
-0.173282623291015625 -0.40267866849899292 -0.101756848394870758
-0.233573898673057556 -0.443851381540298462 -0.205374941229820251
-0.169905021786689758 -0.381178230047225952 -0.191678792238235474
-0.0298770256340503693 0.416507631540298462 -0.262163460254669189
0.0399192161858081818 0.410548627376556396 -0.349905878305435181
-0.0599797554314136505 -0.317825257778167725 -0.18607020378112793
-0.035403568297624588 -0.290156453847885132 -0.0796910077333450317
0.137958526611328125 0.272987663745880127 -0.269492447376251221
0.193896278738975525 0.332610398530960083 -0.197100833058357239
0.145778656005859375 -0.374912142753601074 -0.110620848834514618
0.179198578000068665 -0.302719026803970337 -0.159229829907417297
0.1935720294713974 0.195962190628051758 -0.226601555943489075
0.357069969177246094 0.244142234325408936 -0.226459488272666931
0.465873062610626221 0.163391456007957458 -0.18625815212726593
0.347968727350234985 -0.0043439050205051899 -0.113037221133708954
0.435183823108673096 -0.220844343304634094 -0.133418232202529907
0.371425926685333252 -0.225311607122421265 -0.239464029669761658
0.270630508661270142 -0.346163690090179443 -0.182706505060195923
0.409275680780410767 0.242533951997756958 -0.134093552827835083
0.455458939075469971 0.0292405840009450912 -0.102739922702312469
0.472799926996231079 -0.167957782745361328 -0.218067154288291931
-0.302712112665176392 0.313437581062316895 -0.00442922115325927734
-0.386778503656387329 0.275578528642654419 0.0157988071441650391
-0.230178818106651306 0.109818227589130402 0.0783397704362869263
-0.278223335742950439 -0.136531323194503784 0.0752949714660644531
-0.216010406613349915 -0.200091972947120667 0.080223478376865387
-0.0610939636826515198 0.165566205978393555 -0.0436468906700611115
-0.159589439630508423 0.213399171829223633 -0.0284196920692920685
-0.0636847764253616333 -0.21836128830909729 0.00230133533477783203
-0.173657730221748352 -0.197092443704605103 -0.0424093008041381836
-0.041338600218296051 0.396738708019256592 -0.0451280660927295685
-0.0527747459709644318 -0.11299489438533783 -0.22541363537311554
0.104382827877998352 0.217577084898948669 -0.0586330853402614594
0.175337791442871094 -0.134815424680709839 -0.250088363885879517
0.143500953912734985 0.317604273557662964 -0.0362797565758228302
0.313574463129043579 0.312263220548629761 -0.0218053646385669708
0.344470322132110596 -0.128856748342514038 -0.021770993247628212
0.211739525198936462 -0.147161319851875305 -0.149973422288894653
0.2262258380651474 0.232570141553878784 -0.014636714942753315
0.239089325070381165 0.01389358751475811 -0.0830880776047706604
0.290053665637969971 -0.206778928637504578 -0.0887517109513282776
-0.281100273132324219 0.324865609407424927 0.220534592866897583
-0.389806419610977173 0.31952783465385437 0.247065410017967224
-0.358300209045410156 0.0828905254602432251 0.274511754512786865
-0.195271164178848267 -0.06182871013879776 0.278998792171478271
-0.0865268707275390625 -0.103483192622661591 0.23389039933681488
-0.0621302910149097443 0.141327500343322754 0.171027570962905884
-0.173306465148925781 0.207326114177703857 0.182079866528511047
0.00902970600873231888 -0.030743015930056572 0.0881147384643554688
-0.0482320748269557953 -0.122379668056964874 0.0935890227556228638
0.00866730976849794388 0.380151987075805664 0.180838495492935181
0.0833066254854202271 -0.0207533538341522217 -0.0568330250680446625
0.163502693176269531 0.24599139392375946 0.140563040971755981
0.19715467095375061 0.0675899237394332886 -0.251937508583068848
0.119190208613872528 0.343155831098556519 0.171947672963142395
0.287998497486114502 0.271091252565383911 0.194282129406929016
0.455156952142715454 -0.0157867483794689178 -0.159660369157791138
0.299369484186172485 0.0437859147787094116 -0.255004167556762695
0.303297042846679688 0.171929240226745605 0.18159349262714386
0.237480789422988892 -0.0110687902197241783 0.142497211694717407
0.394713073968887329 -0.0441211722791194916 -0.0369874611496925354
-0.336308479309082031 0.280178666114807129 0.34445643424987793
-0.286432892084121704 0.0919294282793998718 0.318397462368011475
-0.235414490103721619 -0.0998489111661911011 0.178573325276374817
-0.0614213906228542328 0.165010824799537659 0.278567850589752197
-0.0736920014023780823 0.355290085077285767 0.253415495157241821
-0.147681236267089844 0.316071659326553345 0.347269356250762939
-0.129774406552314758 0.0657226070761680603 0.41178363561630249
-0.115361206233501434 -0.11046755313873291 0.308082103729248047
0.057398475706577301 -0.162263989448547363 0.123100675642490387
-0.0266345329582691193 -0.0513271205127239227 0.22407589852809906
0.00406742095947265625 0.380804568529129028 0.275815129280090332
0.0590213127434253693 0.328100472688674927 0.105523660778999329
0.189627006649971008 -0.0379767641425132751 0.00510752201080322266
0.115677513182163239 0.0782643780112266541 0.134396746754646301
0.0607490502297878265 0.250903576612472534 0.0924402475357055664
0.223701789975166321 0.196860954165458679 0.154639482498168945
0.233120903372764587 0.114405572414398193 -0.143567323684692383
0.280297577381134033 0.0617600344121456146 0.029126802459359169
0.262454330921173096 0.054572518914937973 0.142133831977844238
0.3488922119140625 0.19731631875038147 0.0874761715531349182
0.228443130850791931 -0.0160670801997184753 -0.0595535822212696075
0.173567131161689758 0.0718959569931030273 0.0802598372101783752
0.382960617542266846 -0.084429323673248291 0.0725283175706863403
0.371292412281036377 0.0447473004460334778 -0.0509651489555835724
-0.041961669921875 0.268018633127212524 0.325773954391479492
-0.117537178099155426 0.0636515691876411438 0.330410599708557129
0.00682671833783388138 -0.122522979974746704 0.310844361782073975
0.00142256414983421564 0.227931007742881775 0.113098613917827606
0.00193754828069359064 0.00993841886520385742 0.158774048089981079
0.17330487072467804 0.0289449356496334076 0.256294608116149902
0.168984726071357727 0.0923874154686927795 0.178623199462890625
0.161903694272041321 -0.00674857664853334427 -0.000917911471333354712
0.351006180047988892 0.0247303470969200134 0.124916829168796539
3 0 1 2
3 1 3 4
3 2 1 4
3 3 5 6
3 4 3 6
3 5 7 6
3 0 8 9
3 1 0 9
3 9 10 1
3 1 10 3
3 10 11 3
3 3 11 5
3 5 11 12
3 7 5 12
3 8 13 14
3 9 8 14
3 14 15 9
3 9 15 10
3 15 16 10
3 10 16 11
3 11 16 17
3 12 11 17
3 14 13 18
3 15 14 18
3 19 15 18
3 16 15 19
3 20 16 19
3 16 20 17
3 21 22 23
3 22 24 25
3 23 22 25
3 24 26 27
3 25 24 27
3 26 28 27
3 29 30 31
3 2 22 21
3 0 2 21
3 0 21 31
3 0 31 30
3 4 22 2
3 24 22 4
3 6 24 4
3 26 24 6
3 26 32 28
3 6 32 26
3 6 33 32
3 6 7 33
3 33 34 32
3 29 35 36
3 30 29 36
3 36 0 30
3 8 0 36
3 12 33 7
3 37 33 12
3 33 37 38
3 34 33 38
3 35 39 40
3 36 35 40
3 40 8 36
3 13 8 40
3 17 37 12
3 41 37 17
3 37 41 42
3 38 37 42
3 40 39 43
3 43 44 45
3 40 43 45
3 40 45 18
3 40 18 13
3 18 46 19
3 45 46 18
3 19 47 20
3 46 47 19
3 48 49 41
3 47 48 41
3 47 41 17
3 47 17 20
3 41 49 42
3 45 44 50
3 46 45 50
3 51 46 50
3 47 46 51
3 52 47 51
3 47 52 48
3 53 21 23
3 54 53 23
3 23 25 54
3 25 55 54
3 25 27 55
3 27 56 55
3 28 57 56
3 27 28 56
3 58 29 31
3 59 58 31
3 31 53 59
3 21 53 31
3 60 28 32
3 57 28 60
3 34 61 60
3 32 34 60
3 35 29 62
3 62 29 58
3 38 63 34
3 63 61 34
3 39 35 64
3 64 35 62
3 42 65 38
3 65 63 38
3 66 43 39
3 64 66 39
3 44 66 67
3 43 66 44
3 68 49 48
3 69 49 68
3 49 69 65
3 42 49 65
3 70 50 44
3 67 70 44
3 50 70 51
3 51 70 71
3 51 71 52
3 52 71 72
3 52 72 68
3 48 52 68
3 73 53 54
3 74 73 54
3 54 55 74
3 55 75 74
3 55 56 75
3 56 76 75
3 57 77 76
3 56 57 76
3 78 58 59
3 79 78 59
3 59 73 79
3 53 73 59
3 80 57 60
3 77 57 80
3 61 81 80
3 60 61 80
3 62 58 82
3 82 58 78
3 63 83 61
3 83 81 61
3 64 62 84
3 84 62 82
3 65 85 63
3 85 83 63
3 86 66 64
3 84 86 64
3 67 86 87
3 66 86 67
3 88 69 68
3 89 69 88
3 69 89 85
3 65 69 85
3 90 70 67
3 87 90 67
3 70 90 71
3 71 90 91
3 71 91 72
3 72 91 92
3 72 92 88
3 68 72 88
3 73 74 93
3 74 75 94
3 93 74 94
3 75 76 95
3 94 75 95
3 76 77 95
3 78 79 96
3 97 93 98
3 96 93 97
3 96 73 93
3 96 79 73
3 94 98 93
3 99 98 94
3 95 99 94
3 100 99 95
3 100 101 102
3 95 101 100
3 95 80 101
3 95 77 80
3 80 81 101
3 82 78 96
3 103 82 96
3 96 104 103
3 97 104 96
3 102 105 106
3 101 105 102
3 105 101 81
3 83 105 81
3 84 82 103
3 107 84 103
3 103 108 107
3 104 108 103
3 106 109 110
3 105 109 106
3 109 105 83
3 85 109 83
3 86 84 107
3 107 108 111
3 86 107 111
3 86 111 112
3 86 112 87
3 112 113 114
3 111 113 112
3 114 115 116
3 113 115 114
3 89 110 109
3 88 110 89
3 88 115 110
3 88 116 115
3 89 109 85
3 90 87 112
3 91 90 112
3 114 91 112
3 92 91 114
3 116 92 114
3 92 116 88
3 97 98 117
3 98 99 118
3 117 98 118
3 99 100 119
3 118 99 119
3 100 102 119
3 104 97 117
3 120 104 117
3 120 117 121
3 117 118 121
3 121 118 122
3 118 119 122
3 122 119 102
3 106 122 102
3 108 104 120
3 123 108 120
3 123 120 124
3 120 121 124
3 124 121 125
3 121 122 125
3 125 122 106
3 110 125 106
3 111 108 123
3 113 111 123
3 124 113 123
3 115 113 124
3 125 115 124
3 115 125 110
