ply
format ascii 1.0
comment VCGLIB generated
element vertex 126
property float x
property float y
property float z
element face 248
property list uchar int vertex_indices
end_header
-0.12400355190038681 0.22173646092414856 -0.449007421731948853
-0.148196905851364136 0.14152073860168457 -0.431834816932678223
-0.254336774349212646 0.100593686103820801 -0.439520388841629028
-0.163198202848434448 -0.0842601209878921509 -0.42472994327545166
-0.256178736686706543 -0.124574743211269379 -0.38478425145149231
-0.189414709806442261 -0.289162248373031616 -0.360804617404937744
-0.28092658519744873 -0.317092746496200562 -0.466807574033737183
-0.164492473006248474 -0.383064359426498413 -0.410963654518127441
0.0574629642069339752 0.220614418387413025 -0.31176874041557312
0.0893660932779312134 0.115515924990177155 -0.351346224546432495
0.0379412509500980377 -0.080440521240234375 -0.416976064443588257
0.039520263671875 -0.311720848083496094 -0.427151083946228027
0.0791304484009742737 -0.368845164775848389 -0.34577217698097229
0.215256556868553162 0.278845906257629395 -0.457524240016937256
0.226086214184761047 0.157112643122673035 -0.495063573122024536
0.284002840518951416 -0.091755308210849762 -0.424258202314376831
0.27032172679901123 -0.280454427003860474 -0.300211399793624878
0.287904739379882812 -0.37810942530632019 -0.335318535566329956
0.294260293245315552 0.173276469111442566 -0.408201903104782104
0.409693032503128052 -0.0545191727578639984 -0.401704311370849609
0.320876002311706543 -0.266278207302093506 -0.375788062810897827
-0.382686346769332886 0.267187029123306274 -0.30780366063117981
-0.391293942928314209 0.135380059480667114 -0.408260494470596313
-0.361577451229095459 0.155204638838768005 -0.295883774757385254
-0.417701184749603271 -0.0739417672157287598 -0.358114421367645264
-0.370326727628707886 -0.0587178617715835571 -0.263830423355102539
-0.352336347103118896 -0.275739729404449463 -0.342503458261489868
-0.314989089965820312 -0.286842703819274902 -0.23617216944694519
-0.336162030696868896 -0.364324033260345459 -0.231736898422241211
-0.193204879760742188 0.415297448635101318 -0.24666208028793335
-0.183016911149024963 0.372372150421142578 -0.399496406316757202
-0.28592383861541748 0.424903333187103271 -0.317902565002441406
-0.193029135465621948 -0.353153020143508911 -0.161130428314208984
-0.135233744978904724 -0.409884721040725708 -0.257360607385635376
-0.0803729444742202759 -0.379753172397613525 -0.195849627256393433
0.0150067470967769623 0.459448099136352539 -0.184916257858276367
0.0271156858652830124 0.428222805261611938 -0.324950903654098511
0.0234385896474123001 -0.386451572179794312 -0.18891318142414093
0.0822980105876922607 -0.283318072557449341 -0.153679504990577698
0.191777095198631287 0.449936747550964355 -0.239495560526847839
0.269023358821868896 0.428187012672424316 -0.355723768472671509
0.22235870361328125 -0.432689100503921509 -0.206446483731269836
0.267060160636901855 -0.422702312469482422 -0.0945299044251441956
0.307068139314651489 0.441559523344039917 -0.229769602417945862
0.403389245271682739 0.2833595871925354 -0.201952636241912842
0.436619371175765991 0.183916270732879639 -0.283153414726257324
0.467996597290039062 -0.0185703001916408539 -0.253416478633880615
0.492955625057220459 -0.265289068222045898 -0.228637635707855225
0.454484403133392334 -0.312904179096221924 -0.116902418434619904
0.332156598567962646 -0.432171434164047241 -0.155600652098655701
0.440921783447265625 0.179101526737213135 -0.16522391140460968
0.365435749292373657 -0.0106308013200759888 -0.139177694916725159
0.378146857023239136 -0.245770961046218872 -0.157191410660743713
-0.463183283805847168 0.301090091466903687 -0.109391212463378906
-0.357269555330276489 0.183964818716049194 -0.106185168027877808
-0.389510571956634521 -0.0152605427429080009 -0.0618522502481937408
-0.363359451293945312 -0.22762848436832428 0.0197451449930667877
-0.379302173852920532 -0.325585067272186279 -0.0194535944610834122
-0.227695196866989136 0.401135653257369995 -0.0562347695231437683
-0.364589691162109375 0.408542811870574951 -0.109744928777217865
-0.218305587768554688 -0.305935263633728027 0.029778139665722847
-0.154427126049995422 -0.394491612911224365 -0.00416329922154545784
-0.110895976424217224 0.591618955135345459 0.0142582831904292107
0.0289399288594722748 -0.302635639905929565 0.0833550542593002319
0.156267717480659485 0.610323488712310791 -0.0183553360402584076
0.225786492228507996 -0.380064457654953003 0.112793616950511932
0.271749496459960938 0.490302503108978271 -0.0362748764455318451
0.405405610799789429 0.345268338918685913 0.0247796941548585892
0.421773374080657959 -0.316072970628738403 0.0865532681345939636
0.268545150756835938 -0.373611539602279663 0.0810933113098144531
0.355016171932220459 0.227599784731864929 0.0270111225545406342
0.389704018831253052 0.00533573608845472336 0.0467000678181648254
0.406210780143737793 -0.218358039855957031 0.0706556886434555054
-0.462395817041397095 0.323980033397674561 0.10952439159154892
-0.378851205110549927 0.239549770951271057 0.145296037197113037
-0.39943695068359375 0.0208760183304548264 0.189090460538864136
-0.405248910188674927 -0.174394547939300537 0.198975458741188049
-0.458544343709945679 -0.284576177597045898 0.204496219754219055
-0.260978430509567261 0.354926586151123047 0.145245105028152466
-0.326625287532806396 0.440362155437469482 0.0882361605763435364
-0.262125551700592041 -0.378549188375473022 0.221149757504463196
-0.223420009016990662 -0.485198885202407837 0.199352502822875977
-0.059795379638671875 0.382901102304458618 0.152751043438911438
-0.0143310008570551872 -0.354047417640686035 0.294741570949554443
0.137504845857620239 0.564641833305358887 0.242513254284858704
0.194828853011131287 -0.394301712512969971 0.317108988761901855
0.259000241756439209 0.493531733751296997 0.179319560527801514
0.345253258943557739 0.326982200145721436 0.206465378403663635
0.396345704793930054 -0.233138799667358398 0.314164340496063232
0.278596878051757812 -0.343353331089019775 0.337959021329879761
0.343122482299804688 0.241297557950019836 0.252970278263092041
0.391074597835540771 0.0255568940192461014 0.286339342594146729
0.439447671175003052 -0.168979614973068237 0.286537587642669678
-0.46777045726776123 0.247968092560768127 0.220240697264671326
-0.407953262329101562 0.0264402832835912704 0.292314469814300537
-0.430650711059570312 -0.183565020561218262 0.311053156852722168
-0.236666545271873474 0.459364414215087891 0.180025607347488403
-0.232271477580070496 0.35232168436050415 0.298478424549102783
-0.346968531608581543 0.282049268484115601 0.360785037279129028
-0.35587039589881897 0.0737250074744224548 0.437882125377655029
-0.345050275325775146 -0.152544036507606506 0.416886478662490845
-0.265607833862304688 -0.428910523653030396 0.317929297685623169
-0.267663687467575073 -0.267883419990539551 0.389809101819992065
-0.0312886908650398254 0.37281760573387146 0.220771178603172302
-0.0347096584737300873 0.332457005977630615 0.350065737962722778
-0.0470774509012699127 -0.41035345196723938 0.407679438591003418
-0.0377627797424793243 -0.248803973197937012 0.457783609628677368
0.191360205411911011 0.452554285526275635 0.260815978050231934
0.180057793855667114 0.36117255687713623 0.358591258525848389
0.189065933227539062 -0.395554959774017334 0.409741580486297607
0.1786041259765625 -0.225557342171669006 0.519310951232910156
0.235373631119728088 0.236543074250221252 0.38284727931022644
0.451319575309753418 0.254328429698944092 0.291435897350311279
0.265910297632217407 0.0279693473130464554 0.278402745723724365
0.405485987663269043 0.0837616175413131714 0.359693586826324463
0.267754971981048584 -0.0995501577854156494 0.498618245124816895
0.372294008731842041 -0.190967991948127747 0.405918866395950317
-0.265970230102539062 0.267412155866622925 0.318956047296524048
-0.237582072615623474 0.0634693130850791931 0.336279541254043579
-0.226142063736915588 -0.146017506718635559 0.438558727502822876
-0.0379834845662117004 0.266546189785003662 0.260511457920074463
-0.0231306888163089752 0.0781201347708702087 0.3489266037940979
-0.0311865136027336121 -0.139696449041366577 0.395598918199539185
0.239300057291984558 0.275043368339538574 0.280804455280303955
0.186450138688087463 0.0592778809368610382 0.365176558494567871
0.195895612239837646 -0.140562504529953003 0.428126037120819092
3 0 1 2
3 1 3 4
3 2 1 4
3 3 5 6
3 4 3 6
3 5 7 6
3 0 8 9
3 1 0 9
3 9 10 1
3 1 10 3
3 10 11 3
3 3 11 5
3 5 11 12
3 7 5 12
3 8 13 14
3 9 8 14
3 14 15 9
3 9 15 10
3 15 16 10
3 10 16 11
3 11 16 17
3 12 11 17
3 14 13 18
3 15 14 18
3 19 15 18
3 16 15 19
3 20 16 19
3 16 20 17
3 21 22 23
3 22 24 25
3 23 22 25
3 24 26 27
3 25 24 27
3 26 28 27
3 29 30 31
3 2 22 21
3 0 2 21
3 0 21 31
3 0 31 30
3 4 22 2
3 24 22 4
3 6 24 4
3 26 24 6
3 26 32 28
3 6 32 26
3 6 33 32
3 6 7 33
3 33 34 32
3 29 35 36
3 30 29 36
3 36 0 30
3 8 0 36
3 12 33 7
3 37 33 12
3 33 37 38
3 34 33 38
3 35 39 40
3 36 35 40
3 40 8 36
3 13 8 40
3 17 37 12
3 41 37 17
3 37 41 42
3 38 37 42
3 40 39 43
3 43 44 45
3 40 43 45
3 40 45 18
3 40 18 13
3 18 46 19
3 45 46 18
3 19 47 20
3 46 47 19
3 48 49 41
3 47 48 41
3 47 41 17
3 47 17 20
3 41 49 42
3 45 44 50
3 46 45 50
3 51 46 50
3 47 46 51
3 52 47 51
3 47 52 48
3 53 21 23
3 54 53 23
3 23 25 54
3 25 55 54
3 25 27 55
3 27 56 55
3 28 57 56
3 27 28 56
3 58 29 31
3 59 58 31
3 31 53 59
3 21 53 31
3 60 28 32
3 57 28 60
3 34 61 60
3 32 34 60
3 35 29 62
3 62 29 58
3 38 63 34
3 63 61 34
3 39 35 64
3 64 35 62
3 42 65 38
3 65 63 38
3 66 43 39
3 64 66 39
3 44 66 67
3 43 66 44
3 68 49 48
3 69 49 68
3 49 69 65
3 42 49 65
3 70 50 44
3 67 70 44
3 50 70 51
3 51 70 71
3 51 71 52
3 52 71 72
3 52 72 68
3 48 52 68
3 73 53 54
3 74 73 54
3 54 55 74
3 55 75 74
3 55 56 75
3 56 76 75
3 57 77 76
3 56 57 76
3 78 58 59
3 79 78 59
3 59 73 79
3 53 73 59
3 80 57 60
3 77 57 80
3 61 81 80
3 60 61 80
3 62 58 82
3 82 58 78
3 63 83 61
3 83 81 61
3 64 62 84
3 84 62 82
3 65 85 63
3 85 83 63
3 86 66 64
3 84 86 64
3 67 86 87
3 66 86 67
3 88 69 68
3 89 69 88
3 69 89 85
3 65 69 85
3 90 70 67
3 87 90 67
3 70 90 71
3 71 90 91
3 71 91 72
3 72 91 92
3 72 92 88
3 68 72 88
3 73 74 93
3 74 75 94
3 93 74 94
3 75 76 95
3 94 75 95
3 76 77 95
3 78 79 96
3 97 93 98
3 96 93 97
3 96 73 93
3 96 79 73
3 94 98 93
3 99 98 94
3 95 99 94
3 100 99 95
3 100 101 102
3 95 101 100
3 95 80 101
3 95 77 80
3 80 81 101
3 82 78 96
3 103 82 96
3 96 104 103
3 97 104 96
3 102 105 106
3 101 105 102
3 105 101 81
3 83 105 81
3 84 82 103
3 107 84 103
3 103 108 107
3 104 108 103
3 106 109 110
3 105 109 106
3 109 105 83
3 85 109 83
3 86 84 107
3 107 108 111
3 86 107 111
3 86 111 112
3 86 112 87
3 112 113 114
3 111 113 112
3 114 115 116
3 113 115 114
3 89 110 109
3 88 110 89
3 88 115 110
3 88 116 115
3 89 109 85
3 90 87 112
3 91 90 112
3 114 91 112
3 92 91 114
3 116 92 114
3 92 116 88
3 97 98 117
3 98 99 118
3 117 98 118
3 99 100 119
3 118 99 119
3 100 102 119
3 104 97 117
3 120 104 117
3 120 117 121
3 117 118 121
3 121 118 122
3 118 119 122
3 122 119 102
3 106 122 102
3 108 104 120
3 123 108 120
3 123 120 124
3 120 121 124
3 124 121 125
3 121 122 125
3 125 122 106
3 110 125 106
3 111 108 123
3 113 111 123
3 124 113 123
3 115 113 124
3 125 115 124
3 115 125 110
