ply
format ascii 1.0
comment VCGLIB generated
element vertex 126
property float x
property float y
property float z
element face 248
property list uchar int vertex_indices
end_header
-0.240796402096748352 -0.0259108748286962509 -0.436812877655029297
-0.264723449945449829 -0.137175947427749634 -0.375597149133682251
-0.299411773681640625 -0.0622834600508213043 -0.30773162841796875
-0.296390533447265625 -0.194983243942260742 -0.163637638092041016
-0.396345764398574829 -0.183407887816429138 -0.157806873321533203
-0.259747833013534546 -0.217527568340301514 0.0570446662604808807
-0.396038055419921875 -0.233576789498329163 0.0690237656235694885
-0.3057708740234375 -0.236855149269104004 0.166287586092948914
-0.0149014787748456001 -0.0178595315665006638 -0.398241043090820312
-0.0325024910271167755 -0.113606512546539307 -0.347304195165634155
-0.071854911744594574 -0.244373425841331482 -0.166315868496894836
-0.126553848385810852 -0.412374645471572876 -0.0134976701810956001
-0.117259979248046875 -0.367187410593032837 0.101116500794887543
0.208866119384765625 -0.0121764419600367546 -0.34763827919960022
0.191104888916015625 -0.120520733296871185 -0.302373558282852173
0.146024063229560852 -0.304663121700286865 -0.173590347170829773
0.088499702513217926 -0.455097824335098267 -0.030390104278922081
0.099492393434047699 -0.461264848709106445 0.0662032738327980042
0.176167801022529602 -0.0529282689094543457 -0.21739642322063446
0.196605682373046875 -0.246456548571586609 -0.110145889222621918
0.193990066647529602 -0.457694172859191895 -0.0108610792085528374
-0.392505645751953125 0.189234271645545959 -0.25367322564125061
-0.282168060541152954 0.0977914109826087952 -0.238733604550361633
-0.376832336187362671 0.11905255913734436 -0.195914745330810547
-0.337462097406387329 -0.0286856982856988907 -0.102233730256557465
-0.390651702880859375 -0.00346125219948589802 -0.01412200927734375
-0.248804733157157898 -0.125080987811088562 0.0781935080885887146
-0.342352539300918579 -0.179056867957115173 0.107046760618686676
-0.329753875732421875 -0.239544287323951721 0.187322452664375305
-0.217058822512626648 0.271337687969207764 -0.423818737268447876
-0.223114013671875 0.162378475069999695 -0.484205394983291626
-0.308545440435409546 0.242588266730308533 -0.40027204155921936
-0.346775054931640625 -0.0894198194146156311 0.277201324701309204
-0.222811385989189148 -0.176390588283538818 0.303711563348770142
-0.204031631350517273 -0.0443013757467269897 0.178394481539726257
-0.0396486930549144745 0.219060167670249939 -0.290925502777099609
-0.0180791225284337997 0.15059719979763031 -0.372737407684326172
-0.078829444944858551 -0.415994375944137573 0.22855202853679657
-0.0198224391788244247 -0.218450471758842468 0.132217243313789368
0.177642822265625 0.278808504343032837 -0.303640514612197876
0.198150634765625 0.177582189440727234 -0.353973865509033203
0.136302947998046875 -0.564851582050323486 0.204371616244316101
0.118291221559047699 -0.471356123685836792 0.118255935609340668
0.267386108636856079 0.241175651550292969 -0.2539520263671875
0.355477660894393921 0.119101278483867645 -0.164955452084541321
0.307992309331893921 0.00475440779700875282 -0.108713626861572266
0.37645721435546875 -0.214244142174720764 -0.0959690436720848083
0.353151947259902954 -0.389983862638473511 0.0533048324286937714
0.347452789545059204 -0.389174789190292358 0.183289214968681335
0.21977996826171875 -0.507357358932495117 0.118884243071079254
0.407178252935409546 0.0430691130459308624 -0.101103626191616058
0.323880523443222046 -0.150399759411811829 -0.0349195785820484161
0.37578582763671875 -0.302074074745178223 0.116501808166503906
-0.281141906976699829 0.352943211793899536 -0.138609886169433594
-0.277099609375 0.274840265512466431 -0.0728198662400245667
-0.255809783935546875 0.127545326948165894 0.0950481072068214417
-0.256998687982559204 -0.0196835491806268692 0.266559600830078125
-0.317316681146621704 -0.0538020581007003784 0.237330272793769836
-0.252643585205078125 0.447683930397033691 -0.270593971014022827
-0.361049652099609375 0.427006125450134277 -0.275547504425048828
-0.140008285641670227 -0.0781961455941200256 0.406432628631591797
-0.11055755615234375 -0.176354944705963135 0.282417148351669312
-0.0471661873161792755 0.422909945249557495 -0.199725314974784851
-0.0422388724982738495 -0.337997078895568848 0.342620044946670532
0.155764266848564148 0.406275510787963867 -0.118910789489746094
0.18642425537109375 -0.357190608978271484 0.302461773157119751
0.2108306884765625 0.341896891593933105 -0.0599087066948413849
0.318668365478515625 0.232763424515724182 0.0253990497440099716
0.186143234372138977 -0.275116771459579468 0.282248824834823608
0.247750595211982727 -0.430803656578063965 0.347595691680908203
0.305024474859237671 0.138630375266075134 0.0811076164245605469
0.174249008297920227 -0.0529794134199619293 0.0934262275695800781
0.165152236819267273 -0.263287991285324097 0.175478458404541016
-0.414605468511581421 0.457186460494995117 0.0131486253812909126
-0.447118133306503296 0.36454126238822937 0.0585789680480957031
-0.453688293695449829 0.193086192011833191 0.202199772000312805
-0.4857635498046875 0.024982089176774025 0.347798675298690796
-0.463858276605606079 -0.0594157762825489044 0.414747089147567749
-0.242570236325263977 0.263767421245574951 -0.134802818298339844
-0.289128631353378296 0.350667029619216919 -0.0775729790329933167
-0.319067627191543579 -0.156055137515068054 0.500265657901763916
-0.21800994873046875 -0.142181128263473511 0.505605697631835938
-0.11150360107421875 0.369849115610122681 0.007895628921687603
-0.00415802001953125 -0.235140100121498108 0.551467716693878174
0.077770233154296875 0.2538624107837677 0.0390621833503246307
0.215651199221611023 -0.186567142605781555 0.432336956262588501
0.04039764404296875 0.200157523155212402 -0.0450824089348316193
0.112012229859828949 0.244559884071350098 0.111663185060024261
0.388242095708847046 -0.19384901225566864 0.281846672296524048
0.306741088628768921 -0.230454161763191223 0.439499706029891968
0.152638748288154602 0.238926485180854797 0.212245464324951172
0.197739914059638977 0.0331318974494934082 0.297611236572265625
0.328070312738418579 -0.12538011372089386 0.218000888824462891
-0.426415771245956421 0.413102537393569946 0.15643899142742157
-0.459089905023574829 0.254220575094223022 0.302293777465820312
-0.448839813470840454 0.0732323154807090759 0.436812251806259155
-0.301355987787246704 0.216610953211784363 -0.0583392791450023651
-0.197278335690498352 0.325066477060317993 0.0438407249748706818
-0.246519729495048523 0.384606719017028809 0.163382530212402344
-0.283121734857559204 0.27723461389541626 0.351797252893447876
-0.317097991704940796 0.132834121584892273 0.530553042888641357
-0.193678542971611023 -0.1100788414478302 0.565335214138031006
-0.229752853512763977 0.0467159301042556763 0.587756335735321045
-0.159381866455078125 0.306858748197555542 0.0862531661987304688
-0.039272308349609375 0.172730565071105957 0.0400589294731616974
0.017299652099609375 -0.128666132688522339 0.578212440013885498
-0.0406850166618824005 -0.00391668500378727913 0.477910667657852173
0.00761286402121186256 0.164557024836540222 0.0765946730971336365
0.1265716552734375 0.287450939416885376 0.123466335237026215
0.229414626955986023 -0.124309003353118896 0.513112127780914307
0.176470443606376648 0.0111428173258900642 0.41129651665687561
0.220366165041923523 0.252775400876998901 0.219210624694824219
0.0455716438591480255 0.215566173195838928 0.229571506381034851
0.258190155029296875 0.0592249222099781036 0.328357070684432983
0.103983558714389801 -0.00406776880845427513 0.259533554315567017
0.239716842770576477 -0.0904930159449577332 0.494370698928833008
0.284632354974746704 -0.113817982375621796 0.317068099975585938
-0.236614227294921875 0.292674154043197632 0.132076576352119446
-0.226787567138671875 0.196678459644317627 0.329849094152450562
-0.217924758791923523 0.143540367484092712 0.542550981044769287
-0.080422721803188324 0.143047347664833069 0.137199714779853821
-0.00921757984906435013 0.184076949954032898 0.335245132446289062
0.00394185399636626244 0.088619619607925415 0.52290111780166626
0.111812591552734375 0.230981349945068359 0.218384429812431335
0.1605224609375 0.0282901879400014877 0.294953346252441406
0.208861038088798523 0.0106267193332314491 0.51616281270980835
3 0 1 2
3 1 3 4
3 2 1 4
3 3 5 6
3 4 3 6
3 5 7 6
3 0 8 9
3 1 0 9
3 9 10 1
3 1 10 3
3 10 11 3
3 3 11 5
3 5 11 12
3 7 5 12
3 8 13 14
3 9 8 14
3 14 15 9
3 9 15 10
3 15 16 10
3 10 16 11
3 11 16 17
3 12 11 17
3 14 13 18
3 15 14 18
3 19 15 18
3 16 15 19
3 20 16 19
3 16 20 17
3 21 22 23
3 22 24 25
3 23 22 25
3 24 26 27
3 25 24 27
3 26 28 27
3 29 30 31
3 2 22 21
3 0 2 21
3 0 21 31
3 0 31 30
3 4 22 2
3 24 22 4
3 6 24 4
3 26 24 6
3 26 32 28
3 6 32 26
3 6 33 32
3 6 7 33
3 33 34 32
3 29 35 36
3 30 29 36
3 36 0 30
3 8 0 36
3 12 33 7
3 37 33 12
3 33 37 38
3 34 33 38
3 35 39 40
3 36 35 40
3 40 8 36
3 13 8 40
3 17 37 12
3 41 37 17
3 37 41 42
3 38 37 42
3 40 39 43
3 43 44 45
3 40 43 45
3 40 45 18
3 40 18 13
3 18 46 19
3 45 46 18
3 19 47 20
3 46 47 19
3 48 49 41
3 47 48 41
3 47 41 17
3 47 17 20
3 41 49 42
3 45 44 50
3 46 45 50
3 51 46 50
3 47 46 51
3 52 47 51
3 47 52 48
3 53 21 23
3 54 53 23
3 23 25 54
3 25 55 54
3 25 27 55
3 27 56 55
3 28 57 56
3 27 28 56
3 58 29 31
3 59 58 31
3 31 53 59
3 21 53 31
3 60 28 32
3 57 28 60
3 34 61 60
3 32 34 60
3 35 29 62
3 62 29 58
3 38 63 34
3 63 61 34
3 39 35 64
3 64 35 62
3 42 65 38
3 65 63 38
3 66 43 39
3 64 66 39
3 44 66 67
3 43 66 44
3 68 49 48
3 69 49 68
3 49 69 65
3 42 49 65
3 70 50 44
3 67 70 44
3 50 70 51
3 51 70 71
3 51 71 52
3 52 71 72
3 52 72 68
3 48 52 68
3 73 53 54
3 74 73 54
3 54 55 74
3 55 75 74
3 55 56 75
3 56 76 75
3 57 77 76
3 56 57 76
3 78 58 59
3 79 78 59
3 59 73 79
3 53 73 59
3 80 57 60
3 77 57 80
3 61 81 80
3 60 61 80
3 62 58 82
3 82 58 78
3 63 83 61
3 83 81 61
3 64 62 84
3 84 62 82
3 65 85 63
3 85 83 63
3 86 66 64
3 84 86 64
3 67 86 87
3 66 86 67
3 88 69 68
3 89 69 88
3 69 89 85
3 65 69 85
3 90 70 67
3 87 90 67
3 70 90 71
3 71 90 91
3 71 91 72
3 72 91 92
3 72 92 88
3 68 72 88
3 73 74 93
3 74 75 94
3 93 74 94
3 75 76 95
3 94 75 95
3 76 77 95
3 78 79 96
3 97 93 98
3 96 93 97
3 96 73 93
3 96 79 73
3 94 98 93
3 99 98 94
3 95 99 94
3 100 99 95
3 100 101 102
3 95 101 100
3 95 80 101
3 95 77 80
3 80 81 101
3 82 78 96
3 103 82 96
3 96 104 103
3 97 104 96
3 102 105 106
3 101 105 102
3 105 101 81
3 83 105 81
3 84 82 103
3 107 84 103
3 103 108 107
3 104 108 103
3 106 109 110
3 105 109 106
3 109 105 83
3 85 109 83
3 86 84 107
3 107 108 111
3 86 107 111
3 86 111 112
3 86 112 87
3 112 113 114
3 111 113 112
3 114 115 116
3 113 115 114
3 89 110 109
3 88 110 89
3 88 115 110
3 88 116 115
3 89 109 85
3 90 87 112
3 91 90 112
3 114 91 112
3 92 91 114
3 116 92 114
3 92 116 88
3 97 98 117
3 98 99 118
3 117 98 118
3 99 100 119
3 118 99 119
3 100 102 119
3 104 97 117
3 120 104 117
3 120 117 121
3 117 118 121
3 121 118 122
3 118 119 122
3 122 119 102
3 106 122 102
3 108 104 120
3 123 108 120
3 123 120 124
3 120 121 124
3 124 121 125
3 121 122 125
3 125 122 106
3 110 125 106
3 111 108 123
3 113 111 123
3 124 113 123
3 115 113 124
3 125 115 124
3 115 125 110
