ply
format ascii 1.0
comment VCGLIB generated
element vertex 126
property float x
property float y
property float z
element face 248
property list uchar int vertex_indices
end_header
-0.13695874810218811 0.0738180652260780334 -0.544790804386138916
-0.141434669494628906 0.0407509952783584595 -0.434665262699127197
-0.148498207330703735 -0.0500810742378234863 -0.488871306180953979
-0.145821571350097656 -0.167778864502906799 -0.352440476417541504
-0.029395420104265213 -0.171732082962989807 -0.347357392311096191
-0.168992668390274048 -0.357114821672439575 -0.225227668881416321
-0.0626103058457374573 -0.366563290357589722 -0.234542682766914368
-0.13858795166015625 -0.332225412130355835 -0.122860267758369446
0.0604041405022144318 0.116676606237888336 -0.449962407350540161
0.079771675169467926 0.00539071857929229736 -0.440440148115158081
0.0643380433320999146 -0.144323408603668213 -0.274603545665740967
0.0493892021477222443 -0.347054421901702881 -0.179261758923530579
0.0490919724106788635 -0.450685262680053711 -0.135092929005622864
0.248138099908828735 0.158299639821052551 -0.332448869943618774
0.243004158139228821 0.0548460446298122406 -0.294563353061676025
0.286909729242324829 -0.165561467409133911 -0.269954979419708252
0.267663002014160156 -0.343202948570251465 -0.132712915539741516
0.252712547779083252 -0.412188619375228882 -0.0477057658135890961
0.350263893604278564 0.0732370242476463318 -0.308024883270263672
0.270071029663085938 -0.0980657413601875305 -0.184974268078804016
0.283268272876739502 -0.276687830686569214 -0.0493439026176929474
-0.198270469903945923 0.0439865700900554657 -0.238123327493667603
-0.152039527893066406 0.0918081402778625488 -0.360166609287261963
-0.149892166256904602 0.14062616229057312 -0.264219820499420166
-0.183404281735420227 -0.108155332505702972 -0.28878667950630188
-0.158154159784317017 -0.0743848830461502075 -0.193302825093269348
-0.204246833920478821 -0.290971219539642334 -0.163622885942459106
-0.10618368536233902 -0.277255982160568237 -0.122650660574436188
-0.110316269099712372 -0.380204886198043823 -0.100180104374885559
-0.173071220517158508 0.0760604068636894226 -0.250974297523498535
-0.177693367004394531 0.083106502890586853 -0.364471256732940674
-0.118679992854595184 0.177141323685646057 -0.276389509439468384
-0.100779525935649872 -0.374774038791656494 0.078767731785774231
-0.198729828000068665 -0.439079344272613525 0.0062092142179608345
-0.209776550531387329 -0.382650464773178101 0.103861086070537567
-0.086765289306640625 0.281801581382751465 -0.269701659679412842
-0.02056121826171875 0.246848508715629578 -0.351942956447601318
-0.020885467529296875 -0.314337849617004395 -0.042725004255771637
0.000923474610317498446 -0.308875858783721924 0.068118169903755188
0.0987068787217140198 0.154019713401794434 -0.244774609804153442
0.153109222650527954 0.243239983916282654 -0.210972622036933899
0.163197517395019531 -0.332021325826644897 0.0815608054399490356
0.213030174374580383 -0.251006960868835449 0.0214445590972900391
0.168937042355537415 0.115162961184978485 -0.165966346859931946
0.328032165765762329 0.17241862416267395 -0.220519497990608215
0.445582062005996704 0.126671075820922852 -0.167521238327026367
0.349237114191055298 -0.0279903486371040344 -0.0407399721443653107
0.449404686689376831 -0.227283775806427002 -0.000870029092766344547
0.353291809558868408 -0.246249184012413025 -0.097675517201423645
0.202798828482627869 -0.335454195737838745 -0.050897594541311264
0.381474465131759644 0.207991614937782288 -0.132399395108222961
0.448706924915313721 0.0140430713072419167 -0.0505570545792579651
0.457262963056564331 -0.204653963446617126 -0.108181431889533997
-0.256147384643554688 0.106587700545787811 -0.0328967943787574768
-0.275594383478164673 0.188266217708587646 -0.0824113637208938599
-0.147541359066963196 0.0296157486736774445 -0.0029567875899374485
-0.192151054739952087 -0.196766898036003113 0.0557573623955249786
-0.213843971490859985 -0.304916024208068848 0.0773117914795875549
-0.116906158626079559 0.0864680558443069458 -0.036468900740146637
-0.108752243220806122 0.195403248071670532 -0.0471738949418067932
-0.120278991758823395 -0.150895699858665466 0.0682121515274047852
-0.225288063287734985 -0.162398487329483032 0.0768947601318359375
-0.0969632416963577271 0.30806201696395874 -0.0489610396325588226
-0.0756216049194335938 -0.169875383377075195 -0.0907738953828811646
0.100668266415596008 0.206085935235023499 -0.02664228156208992
0.137406975030899048 -0.107336848974227905 -0.133785396814346313
0.142696693539619446 0.304963499307632446 -0.0489433594048023224
0.304144203662872314 0.237516820430755615 -0.00693241739645600319
0.297501862049102783 -0.0828455165028572083 0.044250883162021637
0.134415626525878906 -0.124645553529262543 -0.0231681261211633682
0.198799759149551392 0.207415908575057983 -0.00530640268698334694
0.235020309686660767 0.0208249818533658981 -0.119747117161750793
0.26112714409828186 -0.171901285648345947 -0.00998417474329471588
-0.317560821771621704 0.246595188975334167 0.144607216119766235
-0.398961693048477173 0.184909328818321228 0.107523791491985321
-0.246655136346817017 0.0760354846715927124 0.183219313621520996
-0.346768677234649658 -0.126573368906974792 0.202427297830581665
-0.283522605895996094 -0.195633441209793091 0.257946252822875977
-0.0854969024658203125 0.0981987565755844116 0.185297921299934387
-0.149658516049385071 0.183038339018821716 0.174833536148071289
-0.106895759701728821 -0.162938952445983887 0.292617082595825195
-0.0344371795654296875 -0.184397861361503601 0.204526975750923157
-0.107564918696880341 0.324782729148864746 0.173829197883605957
0.0783427506685256958 -0.0738944262266159058 0.0406829491257667542
0.105589225888252258 0.256879836320877075 0.190377026796340942
0.0773715972900390625 0.105600230395793915 -0.0996122732758522034
0.115097358822822571 0.36399608850479126 0.166341662406921387
0.171113014221191406 0.193235456943511963 0.16945183277130127
0.344923317432403564 0.0246389210224151611 -0.145006567239761353
0.171381622552871704 0.065841376781463623 -0.138517811894416809
0.230347305536270142 0.101750999689102173 0.189710840582847595
0.07701873779296875 0.0808039754629135132 0.0291232261806726456
0.239532783627510071 0.0253166966140270233 -0.115057624876499176
-0.416782677173614502 0.228407099843025208 0.226844534277915955
-0.261759757995605469 0.0711362436413764954 0.279740691184997559
-0.381162941455841064 -0.107341356575489044 0.307349354028701782
-0.129167228937149048 0.107721246778964996 0.288591384887695312
-0.162730216979980469 0.288550645112991333 0.300656139850616455
-0.295718491077423096 0.345784813165664673 0.318212896585464478
-0.298654228448867798 0.143280327320098877 0.421875685453414917
-0.226860031485557556 -0.073526233434677124 0.39667782187461853
-0.117410019040107727 -0.150002405047416687 0.153098300099372864
-0.163838058710098267 -0.0318079255521297455 0.283333063125610352
-0.112339653074741364 0.330770760774612427 0.284123420715332031
-0.0182231254875659943 0.318188220262527466 0.130923181772232056
0.0085163116455078125 0.0091070961207151413 0.0573174133896827698
-0.0149536123499274254 0.118496894836425781 0.201029971241950989
0.0254933033138513565 0.272231101989746094 0.11612633615732193
0.127709701657295227 0.179604455828666687 0.232325389981269836
0.151162147521972656 0.153899118304252625 -0.0316915884613990784
0.196561798453330994 0.0883866250514984131 0.13161817193031311
0.167978599667549133 0.0522275418043136597 0.190003901720046997
0.296483039855957031 0.159835666418075562 0.124008648097515106
0.101803138852119446 0.00905883871018886566 -0.0220700092613697052
0.101739563047885895 0.185536444187164307 0.0169946737587451935
0.274098694324493408 -0.0243771504610776901 0.116932190954685211
0.29034772515296936 0.0748297274112701416 -0.0297242384403944016
-0.248285919427871704 0.303822934627532959 0.229879602789878845
-0.282093673944473267 0.0991207659244537354 0.315368175506591797
-0.123160675168037415 -0.0334576070308685303 0.389820903539657593
-0.0803804397583007812 0.229235082864761353 0.103309743106365204
-0.121793739497661591 0.0185815338045358658 0.176564246416091919
0.036207832396030426 0.107637926936149597 0.303777843713760376
0.0653473511338233948 0.0928969159722328186 0.20859876275062561
0.0383615493774414062 -0.0556274242699146271 0.0412176027894020081
0.197331100702285767 -0.00573192490264773369 0.191182687878608704
3 0 1 2
3 1 3 4
3 2 1 4
3 3 5 6
3 4 3 6
3 5 7 6
3 0 8 9
3 1 0 9
3 9 10 1
3 1 10 3
3 10 11 3
3 3 11 5
3 5 11 12
3 7 5 12
3 8 13 14
3 9 8 14
3 14 15 9
3 9 15 10
3 15 16 10
3 10 16 11
3 11 16 17
3 12 11 17
3 14 13 18
3 15 14 18
3 19 15 18
3 16 15 19
3 20 16 19
3 16 20 17
3 21 22 23
3 22 24 25
3 23 22 25
3 24 26 27
3 25 24 27
3 26 28 27
3 29 30 31
3 2 22 21
3 0 2 21
3 0 21 31
3 0 31 30
3 4 22 2
3 24 22 4
3 6 24 4
3 26 24 6
3 26 32 28
3 6 32 26
3 6 33 32
3 6 7 33
3 33 34 32
3 29 35 36
3 30 29 36
3 36 0 30
3 8 0 36
3 12 33 7
3 37 33 12
3 33 37 38
3 34 33 38
3 35 39 40
3 36 35 40
3 40 8 36
3 13 8 40
3 17 37 12
3 41 37 17
3 37 41 42
3 38 37 42
3 40 39 43
3 43 44 45
3 40 43 45
3 40 45 18
3 40 18 13
3 18 46 19
3 45 46 18
3 19 47 20
3 46 47 19
3 48 49 41
3 47 48 41
3 47 41 17
3 47 17 20
3 41 49 42
3 45 44 50
3 46 45 50
3 51 46 50
3 47 46 51
3 52 47 51
3 47 52 48
3 53 21 23
3 54 53 23
3 23 25 54
3 25 55 54
3 25 27 55
3 27 56 55
3 28 57 56
3 27 28 56
3 58 29 31
3 59 58 31
3 31 53 59
3 21 53 31
3 60 28 32
3 57 28 60
3 34 61 60
3 32 34 60
3 35 29 62
3 62 29 58
3 38 63 34
3 63 61 34
3 39 35 64
3 64 35 62
3 42 65 38
3 65 63 38
3 66 43 39
3 64 66 39
3 44 66 67
3 43 66 44
3 68 49 48
3 69 49 68
3 49 69 65
3 42 49 65
3 70 50 44
3 67 70 44
3 50 70 51
3 51 70 71
3 51 71 52
3 52 71 72
3 52 72 68
3 48 52 68
3 73 53 54
3 74 73 54
3 54 55 74
3 55 75 74
3 55 56 75
3 56 76 75
3 57 77 76
3 56 57 76
3 78 58 59
3 79 78 59
3 59 73 79
3 53 73 59
3 80 57 60
3 77 57 80
3 61 81 80
3 60 61 80
3 62 58 82
3 82 58 78
3 63 83 61
3 83 81 61
3 64 62 84
3 84 62 82
3 65 85 63
3 85 83 63
3 86 66 64
3 84 86 64
3 67 86 87
3 66 86 67
3 88 69 68
3 89 69 88
3 69 89 85
3 65 69 85
3 90 70 67
3 87 90 67
3 70 90 71
3 71 90 91
3 71 91 72
3 72 91 92
3 72 92 88
3 68 72 88
3 73 74 93
3 74 75 94
3 93 74 94
3 75 76 95
3 94 75 95
3 76 77 95
3 78 79 96
3 97 93 98
3 96 93 97
3 96 73 93
3 96 79 73
3 94 98 93
3 99 98 94
3 95 99 94
3 100 99 95
3 100 101 102
3 95 101 100
3 95 80 101
3 95 77 80
3 80 81 101
3 82 78 96
3 103 82 96
3 96 104 103
3 97 104 96
3 102 105 106
3 101 105 102
3 105 101 81
3 83 105 81
3 84 82 103
3 107 84 103
3 103 108 107
3 104 108 103
3 106 109 110
3 105 109 106
3 109 105 83
3 85 109 83
3 86 84 107
3 107 108 111
3 86 107 111
3 86 111 112
3 86 112 87
3 112 113 114
3 111 113 112
3 114 115 116
3 113 115 114
3 89 110 109
3 88 110 89
3 88 115 110
3 88 116 115
3 89 109 85
3 90 87 112
3 91 90 112
3 114 91 112
3 92 91 114
3 116 92 114
3 92 116 88
3 97 98 117
3 98 99 118
3 117 98 118
3 99 100 119
3 118 99 119
3 100 102 119
3 104 97 117
3 120 104 117
3 120 117 121
3 117 118 121
3 121 118 122
3 118 119 122
3 122 119 102
3 106 122 102
3 108 104 120
3 123 108 120
3 123 120 124
3 120 121 124
3 124 121 125
3 121 122 125
3 125 122 106
3 110 125 106
3 111 108 123
3 113 111 123
3 124 113 123
3 115 113 124
3 125 115 124
3 115 125 110
