ply
format ascii 1.0
comment VCGLIB generated
element vertex 126
property float x
property float y
property float z
element face 248
property list uchar int vertex_indices
end_header
-0.160071060061454773 0.250309914350509644 -0.509826183319091797
-0.181681320071220398 0.158961430191993713 -0.404639720916748047
-0.247587844729423523 0.17042011022567749 -0.494684368371963501
-0.177454635500907898 -0.0896887257695198059 -0.371805816888809204
-0.266156524419784546 -0.0534069538116455078 -0.457532554864883423
-0.2048187255859375 -0.288193374872207642 -0.447762638330459595
-0.279797881841659546 -0.306249558925628662 -0.429606914520263672
-0.187650039792060852 -0.35213768482208252 -0.369591087102890015
0.0474764518439769745 0.227432310581207275 -0.482156276702880859
0.067002616822719574 0.136401847004890442 -0.381075054407119751
0.0397656746208667755 -0.0749828442931175232 -0.495966106653213501
0.0243097934871912003 -0.294007331132888794 -0.381374984979629517
0.0522181205451488495 -0.375812411308288574 -0.411334037780761719
0.256066650152206421 0.188323065638542175 -0.38454785943031311
0.242232009768486023 0.164629802107810974 -0.473525047302246094
0.234167739748954773 -0.071289844810962677 -0.404115825891494751
0.257320404052734375 -0.275872319936752319 -0.355599552392959595
0.277873992919921875 -0.413141459226608276 -0.387678146362304688
0.359100341796875 0.130621239542961121 -0.436913967132568359
0.342814117670059204 -0.0518439114093780518 -0.429516315460205078
0.339083343744277954 -0.277681112289428711 -0.41131243109703064
-0.396452575922012329 0.254742473363876343 -0.299042224884033203
-0.414441436529159546 0.159986123442649841 -0.381645053625106812
-0.378997802734375 0.130861371755599976 -0.296452850103378296
-0.421900421380996704 -0.0738094523549079895 -0.377480357885360718
-0.338789612054824829 -0.0571714788675308228 -0.247992992401123047
-0.399349212646484375 -0.236074209213256836 -0.253695011138916016
-0.447121948003768921 -0.286928087472915649 -0.231134727597236633
-0.454219818115234375 -0.375900179147720337 -0.192779853940010071
-0.188074752688407898 0.321724504232406616 -0.354589313268661499
-0.171979263424873352 0.407202333211898804 -0.395363181829452515
-0.298010498285293579 0.405280977487564087 -0.336512893438339233
-0.304682403802871704 -0.512966632843017578 -0.21519024670124054
-0.180646255612373352 -0.527019739151000977 -0.292862564325332642
-0.228458404541015625 -0.500006556510925293 -0.189815834164619446
0.0427449531853199005 0.320539206266403198 -0.298839718103408813
0.0286394748836755753 0.369766861200332642 -0.423138946294784546
0.0410893745720386505 -0.484543561935424805 -0.234281376004219055
-0.015193939208984375 -0.462712526321411133 -0.128402233123779297
0.249846145510673523 0.325656801462173462 -0.275837898254394531
0.254650115966796875 0.401691198348999023 -0.380532413721084595
0.269451141357421875 -0.449740886688232422 -0.19534890353679657
0.231683090329170227 -0.502934277057647705 -0.0926726683974266052
0.315333038568496704 0.422342211008071899 -0.261811256408691406
0.493152618408203125 0.282525688409805298 -0.237288787961006165
0.395640045404434204 0.170086339116096497 -0.259766250848770142
0.363744109869003296 -0.00662529701367020607 -0.215660884976387024
0.407222747802734375 -0.255870461463928223 -0.219270870089530945
0.477169036865234375 -0.313617676496505737 -0.139311626553535461
0.3110504150390625 -0.475285798311233521 -0.0869971886277198792
0.387934356927871704 0.222908362746238708 -0.180468246340751648
0.397719055414199829 -0.018724510446190834 -0.142805576324462891
0.404469817876815796 -0.253495067358016968 -0.114153861999511719
-0.472944885492324829 0.282719343900680542 -0.101167835295200348
-0.441378265619277954 0.19943864643573761 -0.0582256317138671875
-0.358514159917831421 -0.0155915720388293266 -0.0405459403991699219
-0.396045684814453125 -0.238348230719566345 0.00834862422198057175
-0.494626373052597046 -0.369204550981521606 0.0175488796085119247
-0.211404159665107727 0.360351443290710449 -0.0975642204284667969
-0.3083038330078125 0.435178428888320923 -0.0960446968674659729
-0.304464966058731079 -0.458377242088317871 0.0236566867679357529
-0.236867263913154602 -0.410665005445480347 0.0445780754089355469
0.010341644287109375 0.384417742490768433 -0.104448162019252777
-0.013217926025390625 -0.376060843467712402 0.0556313209235668182
0.210706070065498352 0.432318061590194702 -0.0626440048217773438
0.212540939450263977 -0.40807989239692688 0.0968648567795753479
0.335590362548828125 0.4258899986743927 -0.0801040306687355042
0.432257324457168579 0.334799975156784058 0.00528987264260649681
0.454469054937362671 -0.267972260713577271 0.110157810151576996
0.2869873046875 -0.356272339820861816 0.118760742247104645
0.521294891834259033 0.237118527293205261 0.00488742208108305931
0.539727509021759033 -0.00640379264950752258 0.0332066230475902557
0.381228119134902954 -0.196097150444984436 0.104517459869384766
-0.475518554449081421 0.333923071622848511 0.11744149774312973
-0.46178436279296875 0.232828870415687561 0.07561492919921875
-0.408297210931777954 0.0164981260895729065 0.132773563265800476
-0.45339202880859375 -0.199878096580505371 0.234008476138114929
-0.389127105474472046 -0.262085378170013428 0.184854030609130859
-0.281735748052597046 0.394445508718490601 0.131618499755859375
-0.339575439691543579 0.455812960863113403 0.11594168096780777
-0.314098358154296875 -0.411883383989334106 0.281291007995605469
-0.250762939453125 -0.441717356443405151 0.271444648504257202
-0.034038543701171875 0.459108948707580566 0.163626030087471008
-0.017871856689453125 -0.483352065086364746 0.316809028387069702
0.192029312252998352 0.399123162031173706 0.149521350860595703
0.163265228271484375 -0.32102540135383606 0.32616010308265686
0.286373138427734375 0.479474663734436035 0.157549068331718445
0.444445282220840454 0.381378144025802612 0.206073760986328125
0.447282165288925171 -0.232309281826019287 0.341429561376571655
0.2597808837890625 -0.304403692483901978 0.32096371054649353
0.498996734619140625 0.229693770408630371 0.196579292416572571
0.514125823974609375 0.0590180791914463043 0.272378295660018921
0.393281310796737671 -0.175516560673713684 0.342741817235946655
-0.4608154296875 0.237352728843688965 0.226458713412284851
-0.363989502191543579 0.0564025044441223145 0.242803260684013367
-0.39838409423828125 -0.208094194531440735 0.309547275304794312
-0.260082244873046875 0.462797969579696655 0.245341464877128601
-0.27800750732421875 0.380103498697280884 0.384095668792724609
-0.340409606695175171 0.302659660577774048 0.339802265167236328
-0.327336639165878296 0.0639972016215324402 0.400197356939315796
-0.277693420648574829 -0.179885879158973694 0.450472831726074219
-0.317591339349746704 -0.500805318355560303 0.427596718072891235
-0.2827606201171875 -0.301549166440963745 0.508273601531982422
-0.0369860343635082245 0.485391229391098022 0.220044136047363281
-0.0559755973517894745 0.419508934020996094 0.410350948572158813
-0.06217193603515625 -0.471508145332336426 0.478823274374008179
-0.04044342041015625 -0.274912148714065552 0.457365036010742188
0.223644256591796875 0.437413930892944336 0.253282219171524048
0.148174285888671875 0.256611406803131104 0.374792575836181641
0.186800643801689148 -0.409106940031051636 0.424963623285293579
0.185993194580078125 -0.217058882117271423 0.532620131969451904
0.241725921630859375 0.322046071290969849 0.462057739496231079
0.378754943609237671 0.275748699903488159 0.339099735021591187
0.28591156005859375 0.106078408658504486 0.435606956481933594
0.419417053461074829 0.078023664653301239 0.332119792699813843
0.219056442379951477 -0.162641853094100952 0.413341373205184937
0.406508117914199829 -0.128842979669570923 0.432472854852676392
-0.270659118890762329 0.307823747396469116 0.410054683685302734
-0.246172592043876648 0.0661658123135566711 0.421908527612686157
-0.258464813232421875 -0.204626724123954773 0.458517551422119141
-0.0400339774787425995 0.302970319986343384 0.383827537298202515
-0.05495452880859375 0.0678728669881820679 0.359527587890625
-0.07724761962890625 -0.163708284497261047 0.452857017517089844
0.203657791018486023 0.319553166627883911 0.338514178991317749
0.137181594967842102 0.0508337132632732391 0.376567840576171875
0.165873214602470398 -0.170677021145820618 0.453897804021835327
3 0 1 2
3 1 3 4
3 2 1 4
3 3 5 6
3 4 3 6
3 5 7 6
3 0 8 9
3 1 0 9
3 9 10 1
3 1 10 3
3 10 11 3
3 3 11 5
3 5 11 12
3 7 5 12
3 8 13 14
3 9 8 14
3 14 15 9
3 9 15 10
3 15 16 10
3 10 16 11
3 11 16 17
3 12 11 17
3 14 13 18
3 15 14 18
3 19 15 18
3 16 15 19
3 20 16 19
3 16 20 17
3 21 22 23
3 22 24 25
3 23 22 25
3 24 26 27
3 25 24 27
3 26 28 27
3 29 30 31
3 2 22 21
3 0 2 21
3 0 21 31
3 0 31 30
3 4 22 2
3 24 22 4
3 6 24 4
3 26 24 6
3 26 32 28
3 6 32 26
3 6 33 32
3 6 7 33
3 33 34 32
3 29 35 36
3 30 29 36
3 36 0 30
3 8 0 36
3 12 33 7
3 37 33 12
3 33 37 38
3 34 33 38
3 35 39 40
3 36 35 40
3 40 8 36
3 13 8 40
3 17 37 12
3 41 37 17
3 37 41 42
3 38 37 42
3 40 39 43
3 43 44 45
3 40 43 45
3 40 45 18
3 40 18 13
3 18 46 19
3 45 46 18
3 19 47 20
3 46 47 19
3 48 49 41
3 47 48 41
3 47 41 17
3 47 17 20
3 41 49 42
3 45 44 50
3 46 45 50
3 51 46 50
3 47 46 51
3 52 47 51
3 47 52 48
3 53 21 23
3 54 53 23
3 23 25 54
3 25 55 54
3 25 27 55
3 27 56 55
3 28 57 56
3 27 28 56
3 58 29 31
3 59 58 31
3 31 53 59
3 21 53 31
3 60 28 32
3 57 28 60
3 34 61 60
3 32 34 60
3 35 29 62
3 62 29 58
3 38 63 34
3 63 61 34
3 39 35 64
3 64 35 62
3 42 65 38
3 65 63 38
3 66 43 39
3 64 66 39
3 44 66 67
3 43 66 44
3 68 49 48
3 69 49 68
3 49 69 65
3 42 49 65
3 70 50 44
3 67 70 44
3 50 70 51
3 51 70 71
3 51 71 52
3 52 71 72
3 52 72 68
3 48 52 68
3 73 53 54
3 74 73 54
3 54 55 74
3 55 75 74
3 55 56 75
3 56 76 75
3 57 77 76
3 56 57 76
3 78 58 59
3 79 78 59
3 59 73 79
3 53 73 59
3 80 57 60
3 77 57 80
3 61 81 80
3 60 61 80
3 62 58 82
3 82 58 78
3 63 83 61
3 83 81 61
3 64 62 84
3 84 62 82
3 65 85 63
3 85 83 63
3 86 66 64
3 84 86 64
3 67 86 87
3 66 86 67
3 88 69 68
3 89 69 88
3 69 89 85
3 65 69 85
3 90 70 67
3 87 90 67
3 70 90 71
3 71 90 91
3 71 91 72
3 72 91 92
3 72 92 88
3 68 72 88
3 73 74 93
3 74 75 94
3 93 74 94
3 75 76 95
3 94 75 95
3 76 77 95
3 78 79 96
3 97 93 98
3 96 93 97
3 96 73 93
3 96 79 73
3 94 98 93
3 99 98 94
3 95 99 94
3 100 99 95
3 100 101 102
3 95 101 100
3 95 80 101
3 95 77 80
3 80 81 101
3 82 78 96
3 103 82 96
3 96 104 103
3 97 104 96
3 102 105 106
3 101 105 102
3 105 101 81
3 83 105 81
3 84 82 103
3 107 84 103
3 103 108 107
3 104 108 103
3 106 109 110
3 105 109 106
3 109 105 83
3 85 109 83
3 86 84 107
3 107 108 111
3 86 107 111
3 86 111 112
3 86 112 87
3 112 113 114
3 111 113 112
3 114 115 116
3 113 115 114
3 89 110 109
3 88 110 89
3 88 115 110
3 88 116 115
3 89 109 85
3 90 87 112
3 91 90 112
3 114 91 112
3 92 91 114
3 116 92 114
3 92 116 88
3 97 98 117
3 98 99 118
3 117 98 118
3 99 100 119
3 118 99 119
3 100 102 119
3 104 97 117
3 120 104 117
3 120 117 121
3 117 118 121
3 121 118 122
3 118 119 122
3 122 119 102
3 106 122 102
3 108 104 120
3 123 108 120
3 123 120 124
3 120 121 124
3 124 121 125
3 121 122 125
3 125 122 106
3 110 125 106
3 111 108 123
3 113 111 123
3 124 113 123
3 115 113 124
3 125 115 124
3 115 125 110
