ply
format ascii 1.0
comment VCGLIB generated
element vertex 126
property float x
property float y
property float z
element face 248
property list uchar int vertex_indices
end_header
-0.425151824951171875 0.181796148419380188 -0.403527736663818359
-0.419793456792831421 0.134530574083328247 -0.515637695789337158
-0.517812073230743408 0.101158373057842255 -0.429790347814559937
-0.33905029296875 -0.0742918625473976135 -0.490273803472518921
-0.402392059564590454 -0.0859873071312904358 -0.398371845483779907
-0.166538238525390625 -0.0472947359085083008 -0.348914772272109985
-0.235464736819267273 0.0121125644072890282 -0.284781128168106079
-0.151376083493232727 -0.0932754799723625183 -0.25554165244102478
-0.219389602541923523 0.207700863480567932 -0.35448184609413147
-0.199963882565498352 0.220608547329902649 -0.463042885065078735
-0.130200698971748352 0.00525431707501411438 -0.465040683746337891
-0.0498911552131175995 -0.208497270941734314 -0.434789180755615234
-0.029815673828125 -0.262470662593841553 -0.321571022272109985
-0.0407574959099292755 0.319776296615600586 -0.275465160608291626
0.00483449315652251244 0.290093183517456055 -0.376535087823867798
0.077509559690952301 0.0805549174547195435 -0.416192054748535156
0.154530838131904602 -0.130066812038421631 -0.409001350402832031
0.180609390139579773 -0.20935387909412384 -0.332100719213485718
0.088251747190952301 0.30667605996131897 -0.307894080877304077
0.178447723388671875 0.117509186267852783 -0.390054374933242798
0.253115326166152954 -0.0986037179827690125 -0.390333175659179688
-0.589350402355194092 0.165739908814430237 -0.146587848663330078
-0.523209869861602783 0.120910726487636566 -0.251902729272842407
-0.4937286376953125 0.116243340075016022 -0.138512447476387024
-0.501332581043243408 -0.0994222685694694519 -0.255352169275283813
-0.511431396007537842 -0.107810623943805695 -0.148358985781669617
-0.271741241216659546 -0.146251887083053589 -0.220612525939941406
-0.30623626708984375 -0.194364383816719055 -0.134893253445625305
-0.199069976806640625 -0.190689101815223694 -0.117991924285888672
-0.366077423095703125 0.309313476085662842 -0.14539019763469696
-0.400086730718612671 0.228646710515022278 -0.225748375058174133
-0.4788360595703125 0.312650680541992188 -0.164589241147041321
-0.132659912109375 -0.0858417972922325134 0.0105306310579180717
-0.0522715263068675995 -0.092694014310836792 -0.0995806083083152771
-0.1349945068359375 -0.159683153033256531 -0.0671393051743507385
-0.297461181879043579 0.110763132572174072 -0.121345840394496918
-0.216191604733467102 0.117503784596920013 -0.200159072875976562
-0.0150133771821856499 -0.306681722402572632 -0.144745662808418274
-0.00855763722211122513 -0.333107411861419678 -0.037460964173078537
-0.101788841187953949 0.196748435497283936 -0.0671327933669090271
-0.110772453248500824 0.294178694486618042 -0.110342822968959808
0.201023101806640625 -0.290280014276504517 -0.17034737765789032
0.214678451418876648 -0.296731442213058472 -0.0562523193657398224
-0.0174967441707849503 0.249716520309448242 -0.0214153919368982315
0.108072914183139801 0.173478260636329651 -0.128960922360420227
0.201681777834892273 0.276007741689682007 -0.174904033541679382
0.205478668212890625 0.061146855354309082 -0.220422431826591492
0.389818817377090454 -0.0487745068967342377 -0.285854488611221313
0.422025054693222046 -0.13267873227596283 -0.17358715832233429
0.304108947515487671 -0.253018379211425781 -0.105664730072021484
0.093585968017578125 0.279451996088027954 -0.152825996279716492
0.265343993902206421 0.142029762268066406 -0.170120552182197571
0.343419402837753296 -0.0629484280943870544 -0.193538978695869446
-0.585421264171600342 0.189166054129600525 0.0764649733901023865
-0.63780975341796875 0.0952425524592399597 0.0565689392387866974
-0.51850128173828125 -0.0911511853337287903 0.0816793441772460938
-0.328777313232421875 -0.227093040943145752 0.0810621604323387146
-0.230228424072265625 -0.245912864804267883 0.0955602303147315979
-0.429973602294921875 0.290191739797592163 0.072188057005405426
-0.518662750720977783 0.341248899698257446 0.0478684119880199432
-0.080108642578125 -0.255748569965362549 0.153842449188232422
-0.189493820071220398 -0.225727930665016174 0.141426399350166321
-0.316298156976699829 0.105421818792819977 0.108816944062709808
0.03539276123046875 -0.262662321329116821 0.163961097598075867
-0.097852073609828949 0.0283127725124359131 0.0875088348984718323
0.249512985348701477 -0.229500710964202881 0.143109485507011414
-0.00850804615765810013 0.0813885927200317383 0.125622585415840149
0.0163065586239099503 0.248012229800224304 0.0685125961899757385
0.4387359619140625 -0.0544603876769542694 0.0374754257500171661
0.323389679193496704 -0.158243760466575623 0.0950511321425437927
0.118715919554233551 0.302745997905731201 0.0708966255187988281
0.22275543212890625 0.104202218353748322 0.0455689430236816406
0.429345458745956421 0.0423553586006164551 -0.0151570634916424751
-0.636246979236602783 0.216074630618095398 0.290633827447891235
-0.547274291515350342 0.170154809951782227 0.246837779879570007
-0.391605377197265625 0.0218426082283258438 0.247727707028388977
-0.280612945556640625 -0.000917582539841532707 0.0672087669372558594
-0.190174102783203125 -0.0154594602063298225 0.0162053108215332031
-0.397365570068359375 0.289313077926635742 0.285520404577255249
-0.482321411371231079 0.319787919521331787 0.245893314480781555
-0.0397593192756175995 -0.0340193174779415131 0.103059925138950348
-0.130306243896484375 -0.0130350030958652496 0.169625282287597656
-0.237842559814453125 0.161670222878456116 0.290770858526229858
0.05809783935546875 -0.055086866021156311 0.27936825156211853
-0.0521837882697582245 0.066317729651927948 0.295415401458740234
0.272745758295059204 -0.122727058827877045 0.339288383722305298
-0.137959793210029602 0.144043669104576111 0.303294330835342407
0.0231412257999181747 0.220091119408607483 0.290953308343887329
0.47674560546875 0.0259881522506475449 0.230768993496894836
0.3773040771484375 -0.103929542005062103 0.305507034063339233
0.118925727903842926 0.275137156248092651 0.291385501623153687
0.299006134271621704 0.287028759717941284 0.152219459414482117
0.444852203130722046 0.126403823494911194 0.191044166684150696
-0.555460631847381592 0.0977350994944572449 0.336825042963027954
-0.444285064935684204 -0.0699179023504257202 0.244805335998535156
-0.310918182134628296 -0.0997965633869171143 0.0642836913466453552
-0.383591979742050171 0.361982792615890503 0.332379966974258423
-0.307675689458847046 0.212464869022369385 0.244104862213134766
-0.407488495111465454 0.189271166920661926 0.337816089391708374
-0.30406951904296875 -0.0157406721264123917 0.340083271265029907
-0.201581314206123352 -0.153162881731987 0.194280624389648438
-0.08919525146484375 0.0937992334365844727 0.152930259704589844
-0.157924652099609375 -0.051628846675157547 0.24135272204875946
-0.239018753170967102 0.240847811102867126 0.221200466156005859
-0.095560707151889801 0.301364779472351074 0.288374572992324829
0.109363555908203125 0.0374277792870998383 0.233858585357666016
0.05852508544921875 -0.122272200882434845 0.199263259768486023
-0.104938507080078125 0.0554782859981060028 0.208198711276054382
0.030712127685546875 0.168019771575927734 0.152860477566719055
0.288115173578262329 -0.015231303870677948 0.349257618188858032
0.170424148440361023 0.0725613385438919067 0.232815101742744446
0.147884368896484375 0.171784162521362305 0.234396457672119141
0.0578715018928050995 0.321456760168075562 0.207145050168037415
0.112782798707485199 0.111310809850692749 0.0224877987056970596
0.233500167727470398 0.232808589935302734 0.0885423049330711365
0.216510772705078125 -0.0388301163911819458 0.155675098299980164
0.370290130376815796 0.0612133890390396118 0.143726184964179993
-0.31630706787109375 0.234829127788543701 0.349760681390762329
-0.2177886962890625 0.0310576334595680237 0.315562576055526733
-0.109835304319858551 -0.151056393980979919 0.253207206726074219
-0.1509246826171875 0.317046195268630981 0.198450729250907898
-0.0331853218376636505 0.132363647222518921 0.229757621884346008
0.089769996702671051 -0.0500153414905071259 0.281886100769042969
0.02555084228515625 0.183739736676216125 0.259878158569335938
0.135298416018486023 0.194047644734382629 0.0827860832214355469
0.269756317138671875 0.0437616519629955292 0.18581390380859375
3 0 1 2
3 1 3 4
3 2 1 4
3 3 5 6
3 4 3 6
3 5 7 6
3 0 8 9
3 1 0 9
3 9 10 1
3 1 10 3
3 10 11 3
3 3 11 5
3 5 11 12
3 7 5 12
3 8 13 14
3 9 8 14
3 14 15 9
3 9 15 10
3 15 16 10
3 10 16 11
3 11 16 17
3 12 11 17
3 14 13 18
3 15 14 18
3 19 15 18
3 16 15 19
3 20 16 19
3 16 20 17
3 21 22 23
3 22 24 25
3 23 22 25
3 24 26 27
3 25 24 27
3 26 28 27
3 29 30 31
3 2 22 21
3 0 2 21
3 0 21 31
3 0 31 30
3 4 22 2
3 24 22 4
3 6 24 4
3 26 24 6
3 26 32 28
3 6 32 26
3 6 33 32
3 6 7 33
3 33 34 32
3 29 35 36
3 30 29 36
3 36 0 30
3 8 0 36
3 12 33 7
3 37 33 12
3 33 37 38
3 34 33 38
3 35 39 40
3 36 35 40
3 40 8 36
3 13 8 40
3 17 37 12
3 41 37 17
3 37 41 42
3 38 37 42
3 40 39 43
3 43 44 45
3 40 43 45
3 40 45 18
3 40 18 13
3 18 46 19
3 45 46 18
3 19 47 20
3 46 47 19
3 48 49 41
3 47 48 41
3 47 41 17
3 47 17 20
3 41 49 42
3 45 44 50
3 46 45 50
3 51 46 50
3 47 46 51
3 52 47 51
3 47 52 48
3 53 21 23
3 54 53 23
3 23 25 54
3 25 55 54
3 25 27 55
3 27 56 55
3 28 57 56
3 27 28 56
3 58 29 31
3 59 58 31
3 31 53 59
3 21 53 31
3 60 28 32
3 57 28 60
3 34 61 60
3 32 34 60
3 35 29 62
3 62 29 58
3 38 63 34
3 63 61 34
3 39 35 64
3 64 35 62
3 42 65 38
3 65 63 38
3 66 43 39
3 64 66 39
3 44 66 67
3 43 66 44
3 68 49 48
3 69 49 68
3 49 69 65
3 42 49 65
3 70 50 44
3 67 70 44
3 50 70 51
3 51 70 71
3 51 71 52
3 52 71 72
3 52 72 68
3 48 52 68
3 73 53 54
3 74 73 54
3 54 55 74
3 55 75 74
3 55 56 75
3 56 76 75
3 57 77 76
3 56 57 76
3 78 58 59
3 79 78 59
3 59 73 79
3 53 73 59
3 80 57 60
3 77 57 80
3 61 81 80
3 60 61 80
3 62 58 82
3 82 58 78
3 63 83 61
3 83 81 61
3 64 62 84
3 84 62 82
3 65 85 63
3 85 83 63
3 86 66 64
3 84 86 64
3 67 86 87
3 66 86 67
3 88 69 68
3 89 69 88
3 69 89 85
3 65 69 85
3 90 70 67
3 87 90 67
3 70 90 71
3 71 90 91
3 71 91 72
3 72 91 92
3 72 92 88
3 68 72 88
3 73 74 93
3 74 75 94
3 93 74 94
3 75 76 95
3 94 75 95
3 76 77 95
3 78 79 96
3 97 93 98
3 96 93 97
3 96 73 93
3 96 79 73
3 94 98 93
3 99 98 94
3 95 99 94
3 100 99 95
3 100 101 102
3 95 101 100
3 95 80 101
3 95 77 80
3 80 81 101
3 82 78 96
3 103 82 96
3 96 104 103
3 97 104 96
3 102 105 106
3 101 105 102
3 105 101 81
3 83 105 81
3 84 82 103
3 107 84 103
3 103 108 107
3 104 108 103
3 106 109 110
3 105 109 106
3 109 105 83
3 85 109 83
3 86 84 107
3 107 108 111
3 86 107 111
3 86 111 112
3 86 112 87
3 112 113 114
3 111 113 112
3 114 115 116
3 113 115 114
3 89 110 109
3 88 110 89
3 88 115 110
3 88 116 115
3 89 109 85
3 90 87 112
3 91 90 112
3 114 91 112
3 92 91 114
3 116 92 114
3 92 116 88
3 97 98 117
3 98 99 118
3 117 98 118
3 99 100 119
3 118 99 119
3 100 102 119
3 104 97 117
3 120 104 117
3 120 117 121
3 117 118 121
3 121 118 122
3 118 119 122
3 122 119 102
3 106 122 102
3 108 104 120
3 123 108 120
3 123 120 124
3 120 121 124
3 124 121 125
3 121 122 125
3 125 122 106
3 110 125 106
3 111 108 123
3 113 111 123
3 124 113 123
3 115 113 124
3 125 115 124
3 115 125 110
