ply
format ascii 1.0
comment VCGLIB generated
element vertex 126
property float x
property float y
property float z
element face 248
property list uchar int vertex_indices
end_header
-0.376508086919784546 0.204680845141410828 -0.399204105138778687
-0.361878722906112671 0.142630904912948608 -0.518308937549591064
-0.457589477300643921 0.100853800773620605 -0.486824512481689453
-0.294720977544784546 -0.067058369517326355 -0.490612834692001343
-0.349674224853515625 -0.0977178215980529785 -0.403525978326797485
-0.138945266604423523 -0.0497767478227615356 -0.327791839838027954
-0.202824905514717102 0.0218267012387514114 -0.272167354822158813
-0.138451889157295227 -0.0988877341151237488 -0.228606224060058594
-0.171235397458076477 0.26259535551071167 -0.356309890747070312
-0.1553802490234375 0.207703292369842529 -0.444860786199569702
-0.079671226441860199 -0.0126649988815188408 -0.508801460266113281
-0.03826141357421875 -0.228845536708831787 -0.419802337884902954
-0.0318514518439769745 -0.272755950689315796 -0.320688098669052124
0.04505157470703125 0.319526582956314087 -0.345983505249023438
0.06253814697265625 0.264449596405029297 -0.442441612482070923
0.117780052125453949 0.0476613976061344147 -0.413040310144424438
0.178647354245185852 -0.169881507754325867 -0.410733699798583984
0.192811325192451477 -0.246087014675140381 -0.334434986114501953
0.164231613278388977 0.292325645685195923 -0.397151142358779907
0.2311553955078125 0.0732417628169059753 -0.42542615532875061
0.267686218023300171 -0.134188205003738403 -0.350193500518798828
-0.622450530529022217 0.145362332463264465 -0.250163555145263672
-0.531897246837615967 0.106785215437412262 -0.339047759771347046
-0.514561951160430908 0.122388541698455811 -0.237481117248535156
-0.463570922613143921 -0.0913635566830635071 -0.264966964721679688
-0.383951812982559204 -0.0782784745097160339 -0.252404063940048218
-0.26383209228515625 -0.149423971772193909 -0.261850357055664062
-0.2331085205078125 -0.20484451949596405 -0.16871325671672821
-0.140462234616279602 -0.187984630465507507 -0.16730944812297821
-0.456577301025390625 0.17677171528339386 -0.118725776672363281
-0.406777709722518921 0.19531548023223877 -0.219066619873046875
-0.50562286376953125 0.281843870878219604 -0.165555790066719055
-0.16506195068359375 -0.141277089715003967 -0.00710360193625092506
-0.0515034981071949005 -0.123434968292713165 -0.0733674392104148865
-0.128813430666923523 -0.187287628650665283 -0.108129657804965973
-0.220806121826171875 0.154250383377075195 -0.0932548865675926208
-0.198064163327217102 0.209226429462432861 -0.179069995880126953
-0.0163815822452306747 -0.331269413232803345 -0.163290023803710938
0.00310389208607375622 -0.365138798952102661 -0.062679290771484375
-0.00724029541015625 0.29565274715423584 -0.0735920295119285583
-0.0298779811710119247 0.341930866241455078 -0.167833641171455383
0.2152862548828125 -0.353051185607910156 -0.191107913851737976
0.220709487795829773 -0.339831233024597168 -0.0837772712111473083
0.0170745849609375 0.420211881399154663 -0.0413514785468578339
0.149522140622138977 0.337417036294937134 -0.12019713968038559
0.239751175045967102 0.28527030348777771 -0.223860740661621094
0.199403122067451477 0.0631440803408622742 -0.245482131838798523
0.370591491460800171 -0.0762831196188926697 -0.215471580624580383
0.402034759521484375 -0.163449943065643311 -0.115472316741943359
0.324164062738418579 -0.317687183618545532 -0.0958546027541160583
0.249093368649482727 0.293077975511550903 -0.129127979278564453
0.188126876950263977 0.0866375863552093506 -0.131445243954658508
0.311313629150390625 -0.0932464823126792908 -0.120323501527309418
-0.635814666748046875 0.143585965037345886 -0.0171430911868810654
-0.583567321300506592 0.0458681173622608185 -0.0394434928894042969
-0.3701171875 0.0589399300515651703 -0.0870409011840820312
-0.339633941650390625 -0.144722223281860352 -0.0172977447509765625
-0.242262527346611023 -0.228096142411231995 0.0245461463928222656
-0.3620452880859375 0.235048785805702209 0.0367450714111328125
-0.47061920166015625 0.285068988800048828 0.0447549819946289062
-0.104310356080532074 -0.305143862962722778 0.108508110046386719
-0.193152114748954773 -0.255557775497436523 0.0781623497605323792
-0.245619460940361023 0.0511703044176101685 0.115772247314453125
0.001201629638671875 -0.297985106706619263 0.151824161410331726
-0.0158449802547693253 0.19339732825756073 0.126228019595146179
0.2347412109375 -0.301420420408248901 0.137461662292480469
0.0197194423526525497 0.322065055370330811 0.17308489978313446
0.113108314573764801 0.282249152660369873 0.0903062820434570312
0.433745056390762329 -0.106963068246841431 0.0918327942490577698
0.35596466064453125 -0.267415255308151245 0.126433208584785461
0.2056427001953125 0.343474477529525757 0.0909587517380714417
0.188139602541923523 0.136428549885749817 0.0859154090285301208
0.3676605224609375 -0.00216063926927745342 0.0524961166083812714
-0.645173370838165283 0.168439343571662903 0.206131458282470703
-0.590525329113006592 0.134997099637985229 0.135967567563056946
-0.385964721441268921 0.167162969708442688 0.101625122129917145
-0.234100341796875 -0.0031536987517029047 0.127405330538749695
-0.157526656985282898 -0.013869602233171463 0.0366954803466796875
-0.396478027105331421 0.3011607825756073 0.26198163628578186
-0.534576416015625 0.338449150323867798 0.246923759579658508
-0.027042388916015625 -0.0934267714619636536 0.148034259676933289
-0.11612701416015625 -0.0498183704912662506 0.149022892117500305
-0.272398620843887329 0.150711312890052795 0.319813251495361328
0.01190948486328125 -0.11765781044960022 0.285093635320663452
-0.05931854248046875 0.18971329927444458 0.354698330163955688
0.231271103024482727 -0.149598434567451477 0.289483875036239624
-0.051361083984375 0.323336541652679443 0.354683876037597656
0.081904090940952301 0.429168671369552612 0.271388381719589233
0.421892791986465454 -0.0241712052375078201 0.302842140197753906
0.325249999761581421 -0.181447818875312805 0.33965650200843811
0.174597427248954773 0.392961233854293823 0.298926025629043579
0.338443756103515625 0.270116865634918213 0.173053577542304993
0.439281463623046875 0.0570943988859653473 0.244818851351737976
-0.559096038341522217 0.0826468691229820251 0.244415283203125
-0.347581237554550171 0.0930072367191314697 0.135505840182304382
-0.292569488286972046 -0.0585538297891616821 0.034359615296125412
-0.4294891357421875 0.346567124128341675 0.331595897674560547
-0.397623687982559204 0.223088428378105164 0.444846302270889282
-0.443440765142440796 0.133577719330787659 0.382149070501327515
-0.233830764889717102 0.150177553296089172 0.247218295931816101
-0.331053406000137329 -0.0507570989429950714 0.21224212646484375
-0.073246002197265625 0.0353729389607906342 0.209789752960205078
-0.243062332272529602 0.0101681863889098167 0.288623660802841187
-0.197355911135673523 0.329624354839324951 0.332387596368789673
-0.133500412106513977 0.27203938364982605 0.455325126647949219
0.0304501857608556747 -0.0336245819926261902 0.378104537725448608
-0.064942680299282074 -0.149153918027877808 0.353796482086181641
0.00916417408734560013 0.365672588348388672 0.451500415802001953
0.078451789915561676 0.313512563705444336 0.307234287261962891
0.20690155029296875 -0.139664977788925171 0.399383395910263062
0.113573707640171051 -0.0058048684149980545 0.270494788885116577
0.139802291989326477 0.262162357568740845 0.187491104006767273
0.203922271728515625 0.453766435384750366 0.234446212649345398
0.22243499755859375 0.285136014223098755 0.000187397003173828125
0.38222503662109375 0.314223706722259521 0.171484783291816711
0.211811065673828125 0.0581219792366027832 0.168159648776054382
0.3545379638671875 0.13357989490032196 0.271477848291397095
-0.328515380620956421 0.217118725180625916 0.345233440399169922
-0.206133529543876648 0.0816972404718399048 0.333530426025390625
-0.33747100830078125 -0.0673812925815582275 0.318817615509033203
-0.100001014769077301 0.266266375780105591 0.313305050134658813
0.06539154052734375 0.17651975154876709 0.367309421300888062
-0.094393409788608551 -0.153978481888771057 0.280033111572265625
0.0232073459774255753 0.25254783034324646 0.119021572172641754
0.225437164306640625 0.279806762933731079 0.158238723874092102
0.167120620608329773 -0.0532943867146968842 0.271613270044326782
3 0 1 2
3 1 3 4
3 2 1 4
3 3 5 6
3 4 3 6
3 5 7 6
3 0 8 9
3 1 0 9
3 9 10 1
3 1 10 3
3 10 11 3
3 3 11 5
3 5 11 12
3 7 5 12
3 8 13 14
3 9 8 14
3 14 15 9
3 9 15 10
3 15 16 10
3 10 16 11
3 11 16 17
3 12 11 17
3 14 13 18
3 15 14 18
3 19 15 18
3 16 15 19
3 20 16 19
3 16 20 17
3 21 22 23
3 22 24 25
3 23 22 25
3 24 26 27
3 25 24 27
3 26 28 27
3 29 30 31
3 2 22 21
3 0 2 21
3 0 21 31
3 0 31 30
3 4 22 2
3 24 22 4
3 6 24 4
3 26 24 6
3 26 32 28
3 6 32 26
3 6 33 32
3 6 7 33
3 33 34 32
3 29 35 36
3 30 29 36
3 36 0 30
3 8 0 36
3 12 33 7
3 37 33 12
3 33 37 38
3 34 33 38
3 35 39 40
3 36 35 40
3 40 8 36
3 13 8 40
3 17 37 12
3 41 37 17
3 37 41 42
3 38 37 42
3 40 39 43
3 43 44 45
3 40 43 45
3 40 45 18
3 40 18 13
3 18 46 19
3 45 46 18
3 19 47 20
3 46 47 19
3 48 49 41
3 47 48 41
3 47 41 17
3 47 17 20
3 41 49 42
3 45 44 50
3 46 45 50
3 51 46 50
3 47 46 51
3 52 47 51
3 47 52 48
3 53 21 23
3 54 53 23
3 23 25 54
3 25 55 54
3 25 27 55
3 27 56 55
3 28 57 56
3 27 28 56
3 58 29 31
3 59 58 31
3 31 53 59
3 21 53 31
3 60 28 32
3 57 28 60
3 34 61 60
3 32 34 60
3 35 29 62
3 62 29 58
3 38 63 34
3 63 61 34
3 39 35 64
3 64 35 62
3 42 65 38
3 65 63 38
3 66 43 39
3 64 66 39
3 44 66 67
3 43 66 44
3 68 49 48
3 69 49 68
3 49 69 65
3 42 49 65
3 70 50 44
3 67 70 44
3 50 70 51
3 51 70 71
3 51 71 52
3 52 71 72
3 52 72 68
3 48 52 68
3 73 53 54
3 74 73 54
3 54 55 74
3 55 75 74
3 55 56 75
3 56 76 75
3 57 77 76
3 56 57 76
3 78 58 59
3 79 78 59
3 59 73 79
3 53 73 59
3 80 57 60
3 77 57 80
3 61 81 80
3 60 61 80
3 62 58 82
3 82 58 78
3 63 83 61
3 83 81 61
3 64 62 84
3 84 62 82
3 65 85 63
3 85 83 63
3 86 66 64
3 84 86 64
3 67 86 87
3 66 86 67
3 88 69 68
3 89 69 88
3 69 89 85
3 65 69 85
3 90 70 67
3 87 90 67
3 70 90 71
3 71 90 91
3 71 91 72
3 72 91 92
3 72 92 88
3 68 72 88
3 73 74 93
3 74 75 94
3 93 74 94
3 75 76 95
3 94 75 95
3 76 77 95
3 78 79 96
3 97 93 98
3 96 93 97
3 96 73 93
3 96 79 73
3 94 98 93
3 99 98 94
3 95 99 94
3 100 99 95
3 100 101 102
3 95 101 100
3 95 80 101
3 95 77 80
3 80 81 101
3 82 78 96
3 103 82 96
3 96 104 103
3 97 104 96
3 102 105 106
3 101 105 102
3 105 101 81
3 83 105 81
3 84 82 103
3 107 84 103
3 103 108 107
3 104 108 103
3 106 109 110
3 105 109 106
3 109 105 83
3 85 109 83
3 86 84 107
3 107 108 111
3 86 107 111
3 86 111 112
3 86 112 87
3 112 113 114
3 111 113 112
3 114 115 116
3 113 115 114
3 89 110 109
3 88 110 89
3 88 115 110
3 88 116 115
3 89 109 85
3 90 87 112
3 91 90 112
3 114 91 112
3 92 91 114
3 116 92 114
3 92 116 88
3 97 98 117
3 98 99 118
3 117 98 118
3 99 100 119
3 118 99 119
3 100 102 119
3 104 97 117
3 120 104 117
3 120 117 121
3 117 118 121
3 121 118 122
3 118 119 122
3 122 119 102
3 106 122 102
3 108 104 120
3 123 108 120
3 123 120 124
3 120 121 124
3 124 121 125
3 121 122 125
3 125 122 106
3 110 125 106
3 111 108 123
3 113 111 123
3 124 113 123
3 115 113 124
3 125 115 124
3 115 125 110
