ply
format ascii 1.0
comment VCGLIB generated
element vertex 126
property float x
property float y
property float z
element face 248
property list uchar int vertex_indices
end_header
-0.203394576907157898 0.204629197716712952 -0.499728351831436157
-0.171227768063545227 0.0856310650706291199 -0.536798298358917236
-0.219486236572265625 0.0927066430449485779 -0.435271739959716797
-0.157381698489189148 -0.152651667594909668 -0.512106418609619141
-0.236687973141670227 -0.129126474261283875 -0.432115703821182251
-0.098097480833530426 -0.179198816418647766 -0.303247600793838501
-0.061107635498046875 -0.0761398971080780029 -0.300051838159561157
-0.0559539794921875 -0.172405317425727844 -0.208402320742607117
-0.00607172632589936256 0.192607447504997253 -0.394635528326034546
-0.0281473789364099503 0.0844057798385620117 -0.365393012762069702
0.0182825718075037003 -0.132720977067947388 -0.377585560083389282
0.025264739990234375 -0.356359720230102539 -0.320606708526611328
0.0609601326286792755 -0.353902697563171387 -0.205496475100517273
0.151961013674736023 0.186431646347045898 -0.2348480224609375
0.141981765627861023 0.0823175981640815735 -0.226222038269042969
0.191220596432685852 -0.125385567545890808 -0.243865326046943665
0.192181900143623352 -0.322064906358718872 -0.179441764950752258
0.2813873291015625 -0.355634361505508423 -0.260589450597763062
0.180418655276298523 0.0911120697855949402 -0.33227953314781189
0.199207305908203125 -0.140657797455787659 -0.35529676079750061
0.142618820071220398 -0.342177271842956543 -0.271653801202774048
-0.402525573968887329 0.194498375058174133 -0.254900455474853516
-0.294218689203262329 0.103089816868305206 -0.272381782531738281
-0.391626983880996704 0.0938272774219512939 -0.226472377777099609
-0.349783569574356079 -0.111732698976993561 -0.290033817291259766
-0.384540557861328125 -0.11944291740655899 -0.18586556613445282
-0.161501571536064148 -0.140108212828636169 -0.169643878936767578
-0.200410202145576477 -0.23096950352191925 -0.129925891757011414
-0.096174873411655426 -0.252050250768661499 -0.111822925508022308
-0.260854095220565796 0.411354899406433105 -0.293385356664657593
-0.240132644772529602 0.337031960487365723 -0.377174526453018188
-0.352664947509765625 0.357747465372085571 -0.308559268712997437
0.069661460816860199 -0.228595256805419922 -0.0573894195258617401
-0.077508293092250824 -0.157041698694229126 -0.0357302017509937286
-0.006999969482421875 -0.134480342268943787 -0.107992492616176605
-0.0575319938361644745 0.346565693616867065 -0.229364559054374695
-0.0215250644832849503 0.359886974096298218 -0.33379855751991272
0.113393150269985199 -0.252611428499221802 -0.0710307732224464417
0.06026458740234375 -0.354349523782730103 -0.100787796080112457
0.153392791748046875 0.296774715185165405 -0.173991993069648743
0.190624237060546875 0.35648772120475769 -0.260847896337509155
0.263209015130996704 -0.445691913366317749 -0.0903504714369773865
0.236980438232421875 -0.429310232400894165 0.0281276702880859375
0.252348572015762329 0.333389788866043091 -0.141075924038887024
0.292624145746231079 0.160629525780677795 -0.109342098236083984
0.209952041506767273 0.0614505745470523834 -0.156986549496650696
0.211340591311454773 -0.157916083931922913 -0.184889480471611023
0.016490936279296875 -0.272122651338577271 -0.176325008273124695
0.120627082884311676 -0.227302685379981995 -0.11244964599609375
0.148035690188407898 -0.399163037538528442 -0.0388104133307933807
0.292634338140487671 0.0557786375284194946 -0.0856008529663085938
0.220444992184638977 -0.155548080801963806 -0.0804781913757324219
0.08150482177734375 -0.328104943037033081 -0.0981680527329444885
-0.338560730218887329 0.249029576778411865 -0.0426044464111328125
-0.331708282232284546 0.139197811484336853 -0.014704863540828228
-0.424421936273574829 -0.0624272413551807404 0.026914915069937706
-0.2615509033203125 -0.224627122282981873 0.0818567276000976562
-0.1657867431640625 -0.181499719619750977 0.0905974730849266052
-0.274476379156112671 0.367061525583267212 -0.071043647825717926
-0.370146423578262329 0.424278765916824341 -0.0889286994934082031
-0.00579325342550873756 -0.180821359157562256 0.152639076113700867
0.0285326633602380753 -0.103258579969406128 0.100342430174350739
-0.077958427369594574 0.47237706184387207 -0.0430316925048828125
0.00790913868695497513 -0.321341782808303833 0.133840560913085938
0.137486770749092102 0.428609639406204224 0.00497325276955962181
0.206778213381767273 -0.199719905853271484 0.0997269973158836365
0.174176529049873352 0.348633378744125366 0.0706361159682273865
0.250849395990371704 0.192661523818969727 0.111328922212123871
0.119815826416015625 -0.172194883227348328 0.108252845704555511
0.269418090581893921 -0.232318893074989319 0.0156286563724279404
0.197002410888671875 0.096988387405872345 0.113865695893764496
0.0530955009162425995 -0.0254210531711578369 -0.00912411976605653763
0.196935012936592102 -0.193251952528953552 0.0348881073296070099
-0.488590240478515625 0.268641650676727295 0.123165763914585114
-0.407564789056777954 0.220375299453735352 0.17877371609210968
-0.418609619140625 -0.00672344816848635674 0.245275184512138367
-0.302509307861328125 -0.196833908557891846 0.301385879516601562
-0.220648452639579773 -0.114538200199604034 0.301174640655517578
-0.269570678472518921 0.460943609476089478 0.138319328427314758
-0.366544097661972046 0.401583433151245117 0.132912471890449524
-0.073561348021030426 -0.0171368550509214401 0.305584758520126343
-0.084454856812953949 -0.118299134075641632 0.293730735778808594
-0.0544217415153980255 0.378887534141540527 0.154715225100517273
0.0276006069034337997 -0.285779237747192383 0.371435493230819702
0.079190574586391449 0.217931687831878662 0.0558327026665210724
0.249956771731376648 -0.251176983118057251 0.296072155237197876
-0.0256932582706212997 0.251644015312194824 0.0687940940260887146
0.0748291015625 0.282720714807510376 0.217809990048408508
0.266778320074081421 -0.0620274506509304047 0.24067242443561554
0.238890334963798523 -0.23050457239151001 0.204436466097831726
0.020069122314453125 0.191578194499015808 0.218225002288818359
-0.018604278564453125 -0.032420918345451355 0.205881118774414062
0.179491683840751648 -0.127625137567520142 0.249835655093193054
-0.481229156255722046 0.161787420511245728 0.217416450381278992
-0.332065582275390625 -0.0118417227640748024 0.202888324856758118
-0.253330230712890625 -0.210779353976249695 0.20860464870929718
-0.285549163818359375 0.416626781225204468 0.23992474377155304
-0.299132019281387329 0.298771947622299194 0.373921066522598267
-0.401902526617050171 0.208995088934898376 0.372539043426513672
-0.342769622802734375 -0.00331867230124771595 0.380165725946426392
-0.259119659662246704 -0.208684682846069336 0.398374885320663452
0.008602142333984375 -0.118732653558254242 0.359600692987442017
-0.135040283203125 -0.185409143567085266 0.443343967199325562
-0.114654541015625 0.294345974922180176 0.185558319091796875
-0.078318275511264801 0.250126689672470093 0.355052947998046875
0.066492713987827301 -0.311751067638397217 0.275443077087402344
-0.074270881712436676 -0.199827894568443298 0.230609580874443054
0.0328699760138988495 0.13572557270526886 0.115193046629428864
-0.00953165721148252487 0.0493114031851291656 0.273045867681503296
0.200785323977470398 -0.144942477345466614 0.30424007773399353
0.065709434449672699 -0.245606362819671631 0.398389816284179688
-0.085835777223110199 0.132735595107078552 0.358673721551895142
0.080621086061000824 0.174368903040885925 0.306573241949081421
-0.0102106733247637749 -0.0238141361624002457 0.492825746536254883
-0.0384979248046875 -0.0170525945723056793 0.314750999212265015
0.149957016110420227 -0.169823825359344482 0.467017173767089844
0.174128219485282898 -0.0515144206583499908 0.335806846618652344
-0.321192413568496704 0.22891700267791748 0.298146575689315796
-0.269763946533203125 0.00771808112040162086 0.295965045690536499
-0.174143478274345398 -0.187131687998771667 0.339615345001220703
-0.102261863648891449 0.279561251401901245 0.258415699005126953
-0.05797576904296875 0.0635964348912239075 0.245134353637695312
0.0163853969424962997 -0.139546811580657959 0.242417022585868835
-0.119556427001953125 0.0567935146391391754 0.285843044519424438
0.0462697334587574005 0.0601001046597957611 0.439719527959823608
0.0353902168571949005 -0.161795899271965027 0.456484317779541016
3 0 1 2
3 1 3 4
3 2 1 4
3 3 5 6
3 4 3 6
3 5 7 6
3 0 8 9
3 1 0 9
3 9 10 1
3 1 10 3
3 10 11 3
3 3 11 5
3 5 11 12
3 7 5 12
3 8 13 14
3 9 8 14
3 14 15 9
3 9 15 10
3 15 16 10
3 10 16 11
3 11 16 17
3 12 11 17
3 14 13 18
3 15 14 18
3 19 15 18
3 16 15 19
3 20 16 19
3 16 20 17
3 21 22 23
3 22 24 25
3 23 22 25
3 24 26 27
3 25 24 27
3 26 28 27
3 29 30 31
3 2 22 21
3 0 2 21
3 0 21 31
3 0 31 30
3 4 22 2
3 24 22 4
3 6 24 4
3 26 24 6
3 26 32 28
3 6 32 26
3 6 33 32
3 6 7 33
3 33 34 32
3 29 35 36
3 30 29 36
3 36 0 30
3 8 0 36
3 12 33 7
3 37 33 12
3 33 37 38
3 34 33 38
3 35 39 40
3 36 35 40
3 40 8 36
3 13 8 40
3 17 37 12
3 41 37 17
3 37 41 42
3 38 37 42
3 40 39 43
3 43 44 45
3 40 43 45
3 40 45 18
3 40 18 13
3 18 46 19
3 45 46 18
3 19 47 20
3 46 47 19
3 48 49 41
3 47 48 41
3 47 41 17
3 47 17 20
3 41 49 42
3 45 44 50
3 46 45 50
3 51 46 50
3 47 46 51
3 52 47 51
3 47 52 48
3 53 21 23
3 54 53 23
3 23 25 54
3 25 55 54
3 25 27 55
3 27 56 55
3 28 57 56
3 27 28 56
3 58 29 31
3 59 58 31
3 31 53 59
3 21 53 31
3 60 28 32
3 57 28 60
3 34 61 60
3 32 34 60
3 35 29 62
3 62 29 58
3 38 63 34
3 63 61 34
3 39 35 64
3 64 35 62
3 42 65 38
3 65 63 38
3 66 43 39
3 64 66 39
3 44 66 67
3 43 66 44
3 68 49 48
3 69 49 68
3 49 69 65
3 42 49 65
3 70 50 44
3 67 70 44
3 50 70 51
3 51 70 71
3 51 71 52
3 52 71 72
3 52 72 68
3 48 52 68
3 73 53 54
3 74 73 54
3 54 55 74
3 55 75 74
3 55 56 75
3 56 76 75
3 57 77 76
3 56 57 76
3 78 58 59
3 79 78 59
3 59 73 79
3 53 73 59
3 80 57 60
3 77 57 80
3 61 81 80
3 60 61 80
3 62 58 82
3 82 58 78
3 63 83 61
3 83 81 61
3 64 62 84
3 84 62 82
3 65 85 63
3 85 83 63
3 86 66 64
3 84 86 64
3 67 86 87
3 66 86 67
3 88 69 68
3 89 69 88
3 69 89 85
3 65 69 85
3 90 70 67
3 87 90 67
3 70 90 71
3 71 90 91
3 71 91 72
3 72 91 92
3 72 92 88
3 68 72 88
3 73 74 93
3 74 75 94
3 93 74 94
3 75 76 95
3 94 75 95
3 76 77 95
3 78 79 96
3 97 93 98
3 96 93 97
3 96 73 93
3 96 79 73
3 94 98 93
3 99 98 94
3 95 99 94
3 100 99 95
3 100 101 102
3 95 101 100
3 95 80 101
3 95 77 80
3 80 81 101
3 82 78 96
3 103 82 96
3 96 104 103
3 97 104 96
3 102 105 106
3 101 105 102
3 105 101 81
3 83 105 81
3 84 82 103
3 107 84 103
3 103 108 107
3 104 108 103
3 106 109 110
3 105 109 106
3 109 105 83
3 85 109 83
3 86 84 107
3 107 108 111
3 86 107 111
3 86 111 112
3 86 112 87
3 112 113 114
3 111 113 112
3 114 115 116
3 113 115 114
3 89 110 109
3 88 110 89
3 88 115 110
3 88 116 115
3 89 109 85
3 90 87 112
3 91 90 112
3 114 91 112
3 92 91 114
3 116 92 114
3 92 116 88
3 97 98 117
3 98 99 118
3 117 98 118
3 99 100 119
3 118 99 119
3 100 102 119
3 104 97 117
3 120 104 117
3 120 117 121
3 117 118 121
3 121 118 122
3 118 119 122
3 122 119 102
3 106 122 102
3 108 104 120
3 123 108 120
3 123 120 124
3 120 121 124
3 124 121 125
3 121 122 125
3 125 122 106
3 110 125 106
3 111 108 123
3 113 111 123
3 124 113 123
3 115 113 124
3 125 115 124
3 115 125 110
