ply
format ascii 1.0
comment VCGLIB generated
element vertex 126
property float x
property float y
property float z
element face 248
property list uchar int vertex_indices
end_header
-0.3082122802734375 0.289042025804519653 -0.372685760259628296
-0.265542358160018921 0.177296236157417297 -0.391717910766601562
-0.320814758539199829 0.174038812518119812 -0.300188541412353516
-0.246233627200126648 -0.0508128292858600616 -0.382626861333847046
-0.322040557861328125 -0.0475048236548900604 -0.290441036224365234
-0.0578511543571949005 -0.0686337277293205261 -0.24899880588054657
-0.131877899169921875 -0.0367767848074436188 -0.174811050295829773
-0.00121307373046875 -0.11792418360710144 -0.163393497467041016
-0.097337089478969574 0.216271102428436279 -0.352397114038467407
-0.070912681519985199 0.202218905091285706 -0.488704681396484375
-0.02344512939453125 -0.0217838454991579056 -0.437468856573104858
0.00884755421429872513 -0.244619309902191162 -0.363546520471572876
0.022464752197265625 -0.30812227725982666 -0.269437640905380249
0.09752655029296875 0.315547138452529907 -0.30657958984375
0.14163970947265625 0.245980158448219299 -0.385504722595214844
0.181226089596748352 0.0240303725004196167 -0.375417858362197876
0.22025299072265625 -0.20360863208770752 -0.32195553183555603
0.249231979250907898 -0.298338055610656738 -0.275825172662734985
0.224122360348701477 0.262680262327194214 -0.306754738092422485
0.266298919916152954 0.0381933264434337616 -0.310155242681503296
0.278174072504043579 -0.172322973608970642 -0.226283237338066101
-0.49166107177734375 0.29314306378364563 -0.108383499085903168
-0.416900634765625 0.196942701935768127 -0.15650351345539093
-0.490824371576309204 0.20186181366443634 -0.0655457153916358948
-0.447797149419784546 -0.0252768676728010178 -0.164145156741142273
-0.4958038330078125 -0.00983074121177196503 -0.0588725395500659943
-0.257508605718612671 -0.122845493257045746 -0.0843103751540184021
-0.294411987066268921 -0.0638855323195457458 -0.00324805569835007191
-0.22025299072265625 -0.0729019418358802795 0.0523354224860668182
-0.394181579351425171 0.339926838874816895 -0.118943534791469574
-0.35157012939453125 0.354057073593139648 -0.214594200253486633
-0.429840087890625 0.445174664258956909 -0.133406326174736023
-0.069873809814453125 -0.181377768516540527 0.104856334626674652
0.0336888618767261505 -0.172666728496551514 0.000605901062954217196
-0.0645599365234375 -0.214923128485679626 -0.00152158737182617188
-0.175272628664970398 0.309901297092437744 -0.070528663694858551
-0.145872756838798523 0.261825472116470337 -0.164058521389961243
0.04801177978515625 -0.383055657148361206 -0.0960189476609230042
0.0586268119513988495 -0.422868102788925171 0.013840516097843647
0.00695927953347563744 0.445162385702133179 -0.0687111243605613708
0.0297457370907068253 0.406748682260513306 -0.168478652834892273
0.269753783941268921 -0.386903434991836548 -0.114430584013462067
0.273122161626815796 -0.395366460084915161 0.00165541970636695623
0.115264892578125 0.444701105356216431 -0.0604284591972827911
0.276395171880722046 0.370694965124130249 -0.0434007644653320312
0.312559753656387329 0.272127300500869751 -0.143111228942871094
0.315282195806503296 0.0515781231224536896 -0.140160396695137024
0.440181732177734375 -0.130261451005935669 -0.16020965576171875
0.474283844232559204 -0.220128238201141357 -0.0430949516594409943
0.377886444330215454 -0.386061578989028931 -0.0255325641483068466
0.234678909182548523 0.272953182458877563 -0.0559679679572582245
0.361348479986190796 0.0936196222901344299 -0.0485707931220531464
0.447925567626953125 -0.10361354798078537 -0.0566198043525218964
-0.577897369861602783 0.329156666994094849 0.10784546285867691
-0.635707855224609375 0.242543637752532959 0.108136177062988281
-0.526576995849609375 0.0767906084656715393 0.138878986239433289
-0.542437255382537842 -0.153394162654876709 0.0631478652358055115
-0.388300567865371704 -0.200856685638427734 0.0751334801316261292
-0.455440521240234375 0.457009553909301758 0.0953265801072120667
-0.581063568592071533 0.524970948696136475 0.075115203857421875
-0.236331939697265625 -0.331589072942733765 0.124198593199253082
-0.122927345335483551 -0.357182025909423828 0.153529807925224304
-0.234013870358467102 0.413882851600646973 0.126541301608085632
0.099408470094203949 -0.344485282897949219 0.217844173312187195
-0.0242144260555505753 0.47778022289276123 0.15066210925579071
0.244579315185546875 -0.195420145988464355 0.086362205445766449
0.093915306031703949 0.497816324234008789 0.158371448516845703
0.207485198974609375 0.36992490291595459 0.171322986483573914
0.433957427740097046 -0.19051717221736908 0.180001735687255859
0.299615234136581421 -0.281537145376205444 0.155748680233955383
0.199605301022529602 0.265396922826766968 0.172083690762519836
0.295907348394393921 0.069457031786441803 0.164851352572441101
0.330893188714981079 -0.139655023813247681 0.135338306427001953
-0.636408507823944092 0.369276374578475952 0.321259975433349609
-0.63668060302734375 0.275447428226470947 0.33439365029335022
-0.669923126697540283 0.0309400018304586411 0.307700634002685547
-0.416416168212890625 -0.00242809043265879154 0.239188507199287415
-0.319169372320175171 -0.0388543792068958282 0.233314990997314453
-0.464909881353378296 0.58041912317276001 0.304293632507324219
-0.540651977062225342 0.499525994062423706 0.300779342651367188
-0.267528533935546875 -0.196925461292266846 0.312630802392959595
-0.168652847409248352 -0.171475276350975037 0.26513400673866272
-0.253648132085800171 0.502697288990020752 0.323012202978134155
0.0584996528923511505 -0.106389962136745453 0.204583480954170227
-0.04972076416015625 0.505156815052032471 0.37973371148109436
0.252821594476699829 -0.0694239959120750427 0.270082622766494751
0.0449129752814769745 0.503006875514984131 0.38025251030921936
0.179548904299736023 0.385995984077453613 0.391545295715332031
0.354731231927871704 -0.107135273516178131 0.376619011163711548
0.218407943844795227 -0.165607616305351257 0.301875591278076172
0.19001007080078125 0.276521235704421997 0.396240562200546265
0.291273742914199829 0.0848702564835548401 0.385578304529190063
0.244424179196357727 -0.133687630295753479 0.348475456237792969
-0.627142608165740967 0.279863923788070679 0.440045982599258423
-0.555811583995819092 0.0890449061989784241 0.460958003997802734
-0.374820709228515625 0.0359505303204059601 0.336861938238143921
-0.490454345941543579 0.537220418453216553 0.409397125244140625
-0.461160033941268921 0.417714357376098633 0.554962217807769775
-0.549054443836212158 0.339918941259384155 0.598936736583709717
-0.4569854736328125 0.127987101674079895 0.584227621555328369
-0.344977051019668579 -0.0798846185207366943 0.487893730401992798
-0.1556243896484375 -0.215123787522315979 0.338415145874023438
-0.2065887451171875 -0.0947148427367210388 0.465076595544815063
-0.296632140874862671 0.536315798759460449 0.457983165979385376
-0.259164184331893921 0.46735680103302002 0.607543289661407471
0.0428708381950855255 -0.103600054979324341 0.313195377588272095
-0.0168558750301599503 0.0461980365216732025 0.401095718145370483
-0.072055816650390625 0.520988881587982178 0.478707879781723022
-0.08358001708984375 0.411155134439468384 0.609701156616210938
0.252400726079940796 -0.0656076371669769287 0.370950549840927124
0.127112075686454773 -0.0960069075226783752 0.539826571941375732
0.0241292323917150497 0.298514127731323242 0.614281177520751953
0.182140350341796875 0.302312552928924561 0.502133071422576904
0.0384356193244457245 0.0761509910225868225 0.552453756332397461
0.214841201901435852 0.097995460033416748 0.467253357172012329
0.052257537841796875 -0.126970648765563965 0.46268048882484436
0.226401016116142273 -0.121141158044338226 0.445739895105361938
-0.474917083978652954 0.331409424543380737 0.560147225856781006
-0.381099700927734375 0.138614192605018616 0.523440062999725342
-0.257082611322402954 -0.0117236180230975151 0.535632610321044922
-0.307373046875 0.349354147911071777 0.64742666482925415
-0.171496078372001648 0.217717960476875305 0.594361782073974609
-0.069680534303188324 0.0917331874370574951 0.488612085580825806
-0.08522796630859375 0.289628058671951294 0.615976810455322266
-0.088268280029296875 0.0651225224137306213 0.571755826473236084
0.073090873658657074 -0.050406869500875473 0.585407733917236328
3 0 1 2
3 1 3 4
3 2 1 4
3 3 5 6
3 4 3 6
3 5 7 6
3 0 8 9
3 1 0 9
3 9 10 1
3 1 10 3
3 10 11 3
3 3 11 5
3 5 11 12
3 7 5 12
3 8 13 14
3 9 8 14
3 14 15 9
3 9 15 10
3 15 16 10
3 10 16 11
3 11 16 17
3 12 11 17
3 14 13 18
3 15 14 18
3 19 15 18
3 16 15 19
3 20 16 19
3 16 20 17
3 21 22 23
3 22 24 25
3 23 22 25
3 24 26 27
3 25 24 27
3 26 28 27
3 29 30 31
3 2 22 21
3 0 2 21
3 0 21 31
3 0 31 30
3 4 22 2
3 24 22 4
3 6 24 4
3 26 24 6
3 26 32 28
3 6 32 26
3 6 33 32
3 6 7 33
3 33 34 32
3 29 35 36
3 30 29 36
3 36 0 30
3 8 0 36
3 12 33 7
3 37 33 12
3 33 37 38
3 34 33 38
3 35 39 40
3 36 35 40
3 40 8 36
3 13 8 40
3 17 37 12
3 41 37 17
3 37 41 42
3 38 37 42
3 40 39 43
3 43 44 45
3 40 43 45
3 40 45 18
3 40 18 13
3 18 46 19
3 45 46 18
3 19 47 20
3 46 47 19
3 48 49 41
3 47 48 41
3 47 41 17
3 47 17 20
3 41 49 42
3 45 44 50
3 46 45 50
3 51 46 50
3 47 46 51
3 52 47 51
3 47 52 48
3 53 21 23
3 54 53 23
3 23 25 54
3 25 55 54
3 25 27 55
3 27 56 55
3 28 57 56
3 27 28 56
3 58 29 31
3 59 58 31
3 31 53 59
3 21 53 31
3 60 28 32
3 57 28 60
3 34 61 60
3 32 34 60
3 35 29 62
3 62 29 58
3 38 63 34
3 63 61 34
3 39 35 64
3 64 35 62
3 42 65 38
3 65 63 38
3 66 43 39
3 64 66 39
3 44 66 67
3 43 66 44
3 68 49 48
3 69 49 68
3 49 69 65
3 42 49 65
3 70 50 44
3 67 70 44
3 50 70 51
3 51 70 71
3 51 71 52
3 52 71 72
3 52 72 68
3 48 52 68
3 73 53 54
3 74 73 54
3 54 55 74
3 55 75 74
3 55 56 75
3 56 76 75
3 57 77 76
3 56 57 76
3 78 58 59
3 79 78 59
3 59 73 79
3 53 73 59
3 80 57 60
3 77 57 80
3 61 81 80
3 60 61 80
3 62 58 82
3 82 58 78
3 63 83 61
3 83 81 61
3 64 62 84
3 84 62 82
3 65 85 63
3 85 83 63
3 86 66 64
3 84 86 64
3 67 86 87
3 66 86 67
3 88 69 68
3 89 69 88
3 69 89 85
3 65 69 85
3 90 70 67
3 87 90 67
3 70 90 71
3 71 90 91
3 71 91 72
3 72 91 92
3 72 92 88
3 68 72 88
3 73 74 93
3 74 75 94
3 93 74 94
3 75 76 95
3 94 75 95
3 76 77 95
3 78 79 96
3 97 93 98
3 96 93 97
3 96 73 93
3 96 79 73
3 94 98 93
3 99 98 94
3 95 99 94
3 100 99 95
3 100 101 102
3 95 101 100
3 95 80 101
3 95 77 80
3 80 81 101
3 82 78 96
3 103 82 96
3 96 104 103
3 97 104 96
3 102 105 106
3 101 105 102
3 105 101 81
3 83 105 81
3 84 82 103
3 107 84 103
3 103 108 107
3 104 108 103
3 106 109 110
3 105 109 106
3 109 105 83
3 85 109 83
3 86 84 107
3 107 108 111
3 86 107 111
3 86 111 112
3 86 112 87
3 112 113 114
3 111 113 112
3 114 115 116
3 113 115 114
3 89 110 109
3 88 110 89
3 88 115 110
3 88 116 115
3 89 109 85
3 90 87 112
3 91 90 112
3 114 91 112
3 92 91 114
3 116 92 114
3 92 116 88
3 97 98 117
3 98 99 118
3 117 98 118
3 99 100 119
3 118 99 119
3 100 102 119
3 104 97 117
3 120 104 117
3 120 117 121
3 117 118 121
3 121 118 122
3 118 119 122
3 122 119 102
3 106 122 102
3 108 104 120
3 123 108 120
3 123 120 124
3 120 121 124
3 124 121 125
3 121 122 125
3 125 122 106
3 110 125 106
3 111 108 123
3 113 111 123
3 124 113 123
3 115 113 124
3 125 115 124
3 115 125 110
