ply
format ascii 1.0
comment VCGLIB generated
element vertex 126
property float x
property float y
property float z
element face 248
property list uchar int vertex_indices
end_header
-0.42241668701171875 0.168078914284706116 -0.394176483154296875
-0.4256744384765625 0.134761378169059753 -0.510465800762176514
-0.527498900890350342 0.0990354642271995544 -0.423830360174179077
-0.339277893304824829 -0.0728465616703033447 -0.495198726654052734
-0.40169525146484375 -0.085969872772693634 -0.401003509759902954
-0.167998000979423523 -0.0458810962736606598 -0.352787494659423828
-0.235146835446357727 0.012447861023247242 -0.28638458251953125
-0.152350112795829773 -0.0925543680787086487 -0.256072372198104858
-0.224107101559638977 0.216091766953468323 -0.351876407861709595
-0.202672317624092102 0.217737078666687012 -0.463314056396484375
-0.13173675537109375 0.00412937114015221596 -0.468268394470214844
-0.049716949462890625 -0.206711426377296448 -0.443027347326278687
-0.024913787841796875 -0.258515894412994385 -0.330590248107910156
-0.04205322265625 0.314024031162261963 -0.275694042444229126
0.00213877367787063122 0.289219826459884644 -0.379764407873153687
0.076452888548374176 0.0803477391600608826 -0.420138835906982422
0.1585540771484375 -0.12746836245059967 -0.427886635065078735
0.186687469482421875 -0.210824787616729736 -0.352062076330184937
0.084828697144985199 0.306832492351531982 -0.311121463775634766
0.175303146243095398 0.118441395461559296 -0.389349937438964844
0.255982726812362671 -0.0925806388258934021 -0.393101692199707031
-0.596522033214569092 0.163915231823921204 -0.149684429168701172
-0.519939422607421875 0.12204384058713913 -0.242122963070869446
-0.491059631109237671 0.10862269252538681 -0.136806324124336243
-0.503946959972381592 -0.097127966582775116 -0.25284084677696228
-0.513987243175506592 -0.111525535583496094 -0.149794742465019226
-0.275057464838027954 -0.145875111222267151 -0.22939617931842804
-0.308209747076034546 -0.193842992186546326 -0.1387786865234375
-0.192296341061592102 -0.193034470081329346 -0.117509044706821442
-0.3655548095703125 0.31049230694770813 -0.134500026702880859
-0.39739990234375 0.222137048840522766 -0.210959598422050476
-0.47275543212890625 0.309651225805282593 -0.160806968808174133
-0.139119461178779602 -0.0832981094717979431 0.00623861933127045631
-0.0550587959587574005 -0.0983627811074256897 -0.104032836854457855
-0.121713005006313324 -0.154208347201347351 -0.0711436271667480469
-0.297487884759902954 0.112666189670562744 -0.12411864846944809
-0.207693740725517273 0.118611343204975128 -0.197947666049003601
0.00186284387018531561 -0.304123848676681519 -0.135973289608955383
-0.00763448094949126244 -0.331734329462051392 -0.016039213165640831
-0.098355613648891449 0.192481651902198792 -0.076285041868686676
-0.110385894775390625 0.296391218900680542 -0.10863494873046875
0.220705673098564148 -0.29271659255027771 -0.187692165374755859
0.220289871096611023 -0.295066624879837036 -0.0644683837890625
-0.01717376708984375 0.245328560471534729 -0.0244892444461584091
0.111363731324672699 0.171817615628242493 -0.130714893341064453
0.199502304196357727 0.277682691812515259 -0.179887458682060242
0.20404052734375 0.061671081930398941 -0.220464065670967102
0.393403381109237671 -0.0379309691488742828 -0.288748592138290405
0.430662781000137329 -0.125410899519920349 -0.18174569308757782
0.308565765619277954 -0.248186275362968445 -0.099614463746547699
0.091746009886264801 0.277951538562774658 -0.151208400726318359
0.264222472906112671 0.142147555947303772 -0.16887219250202179
0.3440704345703125 -0.0621552281081676483 -0.194685295224189758
-0.587738037109375 0.174999117851257324 0.0782910957932472229
-0.634003937244415283 0.0986489281058311462 0.0471580810844898224
-0.52356719970703125 -0.0885559916496276855 0.076416015625
-0.326901763677597046 -0.222441911697387695 0.0749045982956886292
-0.224436447024345398 -0.23980654776096344 0.0959437713027000427
-0.431082397699356079 0.290995776653289795 0.0750945433974266052
-0.52147674560546875 0.352202743291854858 0.051894504576921463
-0.074021659791469574 -0.260229408740997314 0.150043964385986328
-0.191349029541015625 -0.23035275936126709 0.143561840057373047
-0.320316314697265625 0.102693982422351837 0.110045112669467926
0.026439666748046875 -0.268476247787475586 0.189392566680908203
-0.100439704954624176 0.0299458745867013931 0.0867509841918945312
0.247201278805732727 -0.22117866575717926 0.14138476550579071
-0.00889714527875185013 0.0820387303829193115 0.124093055725097656
0.0208981838077306747 0.248173460364341736 0.0628628730773925781
0.45081329345703125 -0.056047443300485611 0.030668577179312706
0.319544464349746704 -0.173601701855659485 0.101269565522670746
0.122777305543422699 0.304779499769210815 0.070254005491733551
0.220973968505859375 0.103782683610916138 0.0467748641967773438
0.428616851568222046 0.0500136427581310272 -0.0169954299926757812
-0.635272979736328125 0.21828848123550415 0.292447417974472046
-0.555803954601287842 0.169153168797492981 0.248284980654716492
-0.39228057861328125 0.0304813291877508163 0.245100021362304688
-0.281233459711074829 -0.00210739392787218094 0.0720025673508644104
-0.190118148922920227 -0.0166030228137969971 0.020372709259390831
-0.388750702142715454 0.273027390241622925 0.291090965270996094
-0.477709442377090454 0.318592041730880737 0.256318569183349609
-0.0469601936638355255 -0.034661557525396347 0.106176853179931641
-0.1294708251953125 -0.0167917739599943161 0.166740730404853821
-0.242907211184501648 0.163347259163856506 0.289306789636611938
0.062160491943359375 -0.0613742507994174957 0.273271709680557251
-0.0571390800178050995 0.0660798400640487671 0.2996673583984375
0.269242614507675171 -0.126134872436523438 0.331175476312637329
-0.147168472409248352 0.154881283640861511 0.291392803192138672
0.0145670576021075249 0.224507972598075867 0.284566402435302734
0.477268218994140625 0.0291708726435899734 0.227421283721923828
0.373144775629043579 -0.102212369441986084 0.298603206872940063
0.113482154905796051 0.271873980760574341 0.290716797113418579
0.296398162841796875 0.2882671058177948 0.155141517519950867
0.443752288818359375 0.130482539534568787 0.190938472747802734
-0.554866790771484375 0.102821417152881622 0.337660789489746094
-0.443088531494140625 -0.0648591294884681702 0.236876323819160461
-0.307100921869277954 -0.097211398184299469 0.0598489455878734589
-0.389947265386581421 0.361520379781723022 0.331916183233261108
-0.305843353271484375 0.223780691623687744 0.246180370450019836
-0.400295257568359375 0.19069613516330719 0.332807689905166626
-0.31095123291015625 -0.020396798849105835 0.345288604497909546
-0.203831985592842102 -0.147745832800865173 0.190423011779785156
-0.090624488890171051 0.0983159318566322327 0.150049999356269836
-0.154744461178779602 -0.044619288295507431 0.242532417178153992
-0.244767501950263977 0.241025388240814209 0.221528217196464539
-0.10102081298828125 0.299336999654769897 0.288313716650009155
0.111652374267578125 0.0302227959036827087 0.228780269622802734
0.0613530464470386505 -0.117711536586284637 0.199550464749336243
-0.106728874146938324 0.0590294338762760162 0.206242397427558899
0.0300966892391443253 0.168696954846382141 0.152175113558769226
0.288538604974746704 -0.014043009839951992 0.346845626831054688
0.171985626220703125 0.0739956721663475037 0.232163429260253906
0.146135970950126648 0.168585494160652161 0.235422924160957336
0.0589955635368824005 0.324468940496444702 0.206492587924003601
0.113633476197719574 0.111705057322978973 0.0216890964657068253
0.232390090823173523 0.233930394053459167 0.0892809256911277771
0.217439010739326477 -0.037830796092748642 0.155781909823417664
0.370807647705078125 0.0627399906516075134 0.143443107604980469
-0.309661865234375 0.240264818072319031 0.349850982427597046
-0.219136551022529602 0.0309161785989999771 0.315813392400741577
-0.110852561891078949 -0.147193506360054016 0.256587982177734375
-0.148061111569404602 0.316333502531051636 0.199117347598075867
-0.0285135898739099503 0.13310675323009491 0.230023697018623352
0.090089164674282074 -0.0487900488078594208 0.282020717859268188
0.0283304844051599503 0.184063911437988281 0.259499222040176392
0.137022659182548523 0.194782838225364685 0.0811738967895507812
0.271504729986190796 0.0441669486463069916 0.185339763760566711
3 0 1 2
3 1 3 4
3 2 1 4
3 3 5 6
3 4 3 6
3 5 7 6
3 0 8 9
3 1 0 9
3 9 10 1
3 1 10 3
3 10 11 3
3 3 11 5
3 5 11 12
3 7 5 12
3 8 13 14
3 9 8 14
3 14 15 9
3 9 15 10
3 15 16 10
3 10 16 11
3 11 16 17
3 12 11 17
3 14 13 18
3 15 14 18
3 19 15 18
3 16 15 19
3 20 16 19
3 16 20 17
3 21 22 23
3 22 24 25
3 23 22 25
3 24 26 27
3 25 24 27
3 26 28 27
3 29 30 31
3 2 22 21
3 0 2 21
3 0 21 31
3 0 31 30
3 4 22 2
3 24 22 4
3 6 24 4
3 26 24 6
3 26 32 28
3 6 32 26
3 6 33 32
3 6 7 33
3 33 34 32
3 29 35 36
3 30 29 36
3 36 0 30
3 8 0 36
3 12 33 7
3 37 33 12
3 33 37 38
3 34 33 38
3 35 39 40
3 36 35 40
3 40 8 36
3 13 8 40
3 17 37 12
3 41 37 17
3 37 41 42
3 38 37 42
3 40 39 43
3 43 44 45
3 40 43 45
3 40 45 18
3 40 18 13
3 18 46 19
3 45 46 18
3 19 47 20
3 46 47 19
3 48 49 41
3 47 48 41
3 47 41 17
3 47 17 20
3 41 49 42
3 45 44 50
3 46 45 50
3 51 46 50
3 47 46 51
3 52 47 51
3 47 52 48
3 53 21 23
3 54 53 23
3 23 25 54
3 25 55 54
3 25 27 55
3 27 56 55
3 28 57 56
3 27 28 56
3 58 29 31
3 59 58 31
3 31 53 59
3 21 53 31
3 60 28 32
3 57 28 60
3 34 61 60
3 32 34 60
3 35 29 62
3 62 29 58
3 38 63 34
3 63 61 34
3 39 35 64
3 64 35 62
3 42 65 38
3 65 63 38
3 66 43 39
3 64 66 39
3 44 66 67
3 43 66 44
3 68 49 48
3 69 49 68
3 49 69 65
3 42 49 65
3 70 50 44
3 67 70 44
3 50 70 51
3 51 70 71
3 51 71 52
3 52 71 72
3 52 72 68
3 48 52 68
3 73 53 54
3 74 73 54
3 54 55 74
3 55 75 74
3 55 56 75
3 56 76 75
3 57 77 76
3 56 57 76
3 78 58 59
3 79 78 59
3 59 73 79
3 53 73 59
3 80 57 60
3 77 57 80
3 61 81 80
3 60 61 80
3 62 58 82
3 82 58 78
3 63 83 61
3 83 81 61
3 64 62 84
3 84 62 82
3 65 85 63
3 85 83 63
3 86 66 64
3 84 86 64
3 67 86 87
3 66 86 67
3 88 69 68
3 89 69 88
3 69 89 85
3 65 69 85
3 90 70 67
3 87 90 67
3 70 90 71
3 71 90 91
3 71 91 72
3 72 91 92
3 72 92 88
3 68 72 88
3 73 74 93
3 74 75 94
3 93 74 94
3 75 76 95
3 94 75 95
3 76 77 95
3 78 79 96
3 97 93 98
3 96 93 97
3 96 73 93
3 96 79 73
3 94 98 93
3 99 98 94
3 95 99 94
3 100 99 95
3 100 101 102
3 95 101 100
3 95 80 101
3 95 77 80
3 80 81 101
3 82 78 96
3 103 82 96
3 96 104 103
3 97 104 96
3 102 105 106
3 101 105 102
3 105 101 81
3 83 105 81
3 84 82 103
3 107 84 103
3 103 108 107
3 104 108 103
3 106 109 110
3 105 109 106
3 109 105 83
3 85 109 83
3 86 84 107
3 107 108 111
3 86 107 111
3 86 111 112
3 86 112 87
3 112 113 114
3 111 113 112
3 114 115 116
3 113 115 114
3 89 110 109
3 88 110 89
3 88 115 110
3 88 116 115
3 89 109 85
3 90 87 112
3 91 90 112
3 114 91 112
3 92 91 114
3 116 92 114
3 92 116 88
3 97 98 117
3 98 99 118
3 117 98 118
3 99 100 119
3 118 99 119
3 100 102 119
3 104 97 117
3 120 104 117
3 120 117 121
3 117 118 121
3 121 118 122
3 118 119 122
3 122 119 102
3 106 122 102
3 108 104 120
3 123 108 120
3 123 120 124
3 120 121 124
3 124 121 125
3 121 122 125
3 125 122 106
3 110 125 106
3 111 108 123
3 113 111 123
3 124 113 123
3 115 113 124
3 125 115 124
3 115 125 110
