ply
format ascii 1.0
comment VCGLIB generated
element vertex 126
property float x
property float y
property float z
element face 248
property list uchar int vertex_indices
end_header
-0.189325973391532898 0.234758839011192322 -0.435514926910400391
-0.166821792721748352 0.123349785804748535 -0.505945980548858643
-0.292391449213027954 0.159940853714942932 -0.445164680480957031
-0.142930343747138977 -0.0596605390310287476 -0.366157203912734985
-0.184566497802734375 0.0173070002347230911 -0.306376785039901733
-0.102001190185546875 -0.233689352869987488 -0.21502240002155304
-0.0599797554314136505 -0.0763806849718093872 -0.165893390774726868
-0.0467427559196949005 -0.266385525465011597 -0.155395984649658203
0.02631378173828125 0.217911049723625183 -0.402481704950332642
0.026622772216796875 0.0842009410262107849 -0.407810062170028687
-0.0154622392728924751 -0.169984236359596252 -0.31824001669883728
-0.108145393431186676 -0.419210940599441528 -0.203101634979248047
-0.128712967038154602 -0.539786279201507568 -0.12266000360250473
0.244731903076171875 0.194598928093910217 -0.357507705688476562
0.22260284423828125 0.074059903621673584 -0.355625629425048828
0.205221816897392273 -0.166899845004081726 -0.325414806604385376
0.108806610107421875 -0.435343295335769653 -0.214833423495292664
0.104284919798374176 -0.617240428924560547 -0.170052051544189453
0.3025970458984375 0.0608755610883235931 -0.321580082178115845
0.262433379888534546 -0.238464578986167908 -0.287579208612442017
0.164203643798828125 -0.473550409078598022 -0.180588722229003906
-0.418168395757675171 0.286117702722549438 -0.215350627899169922
-0.400652557611465454 0.209225013852119446 -0.308497905731201172
-0.333844512701034546 0.2238873690366745 -0.202480792999267578
-0.341231018304824829 0.0101864170283079147 -0.255766242742538452
-0.392793029546737671 0.0104304524138569832 -0.166724681854248047
-0.182193756103515625 -0.129305317997932434 -0.272537082433700562
-0.212267562747001648 -0.153686359524726868 -0.156715705990791321
-0.26873016357421875 -0.225267961621284485 -0.212644100189208984
-0.222698211669921875 0.475172877311706543 -0.239268466830253601
-0.202234908938407898 0.388762980699539185 -0.326690673828125
-0.267683655023574829 0.377678185701370239 -0.210692569613456726
-0.167008712887763977 -0.347472429275512695 -0.142520904541015625
-0.171030685305595398 -0.261939018964767456 -0.0455881766974925995
-0.169694259762763977 -0.187167882919311523 -0.161322429776191711
-0.00493748998269438744 0.447004228830337524 -0.197440937161445618
0.01311492919921875 0.379852294921875 -0.292624473571777344
-0.03217315673828125 -0.445342898368835449 0.011256377212703228
-0.0371462516486644745 -0.382757812738418579 -0.19296582043170929
0.198211669921875 0.371203035116195679 -0.168434306979179382
0.231843307614326477 0.352815002202987671 -0.263244777917861938
-0.0417633056640625 -0.570604920387268066 -0.115986347198486328
0.033077239990234375 -0.631332576274871826 -0.0908454284071922302
0.298748016357421875 0.360835433006286621 -0.135962486267089844
0.417255401611328125 0.230515763163566589 -0.0942556038498878479
0.411181122064590454 0.10648711770772934 -0.176670387387275696
0.344829559326171875 -0.137775883078575134 -0.156195804476737976
0.202752426266670227 -0.351791739463806152 -0.0854202881455421448
0.233308151364326477 -0.459862023591995239 -0.061771392822265625
0.107252754271030426 -0.549218118190765381 -0.100688137114048004
0.417481750249862671 0.103659950196743011 -0.0747768059372901917
0.325611114501953125 -0.117788515985012054 -0.0620522499084472656
0.287554413080215454 -0.347702234983444214 -0.0424342155456542969
-0.445931762456893921 0.320347219705581665 0.00149424874689429998
-0.3419952392578125 0.287928551435470581 0.0220818519592285156
-0.335918426513671875 0.0614633411169052124 0.0354873351752758026
-0.3955230712890625 -0.151875093579292297 -0.0114855766296386719
-0.321437835693359375 -0.247108891606330872 0.004791259765625
-0.26409149169921875 0.506669044494628906 -0.00894292164593935013
-0.286089569330215454 0.402492135763168335 0.0103162126615643501
-0.1538543701171875 -0.257871896028518677 0.059452693909406662
-0.0936737060546875 -0.342536062002182007 0.0115116434171795845
-0.07016754150390625 0.390535235404968262 0.0196693744510412216
0.016078948974609375 -0.233910217881202698 0.0962432250380516052
0.13355255126953125 0.273456722497940063 0.0266563091427087784
-0.11476898193359375 -0.46477469801902771 0.0898982658982276917
0.203015640377998352 0.347135573625564575 0.0706001892685890198
0.347841888666152954 0.263165831565856934 0.115692615509033203
0.103078208863735199 -0.445475786924362183 0.122014202177524567
-0.0206387843936681747 -0.628782212734222412 0.121342979371547699
0.288028717041015625 0.161899104714393616 0.101836360991001129
0.198277786374092102 -0.0506735853850841522 0.0945628508925437927
0.149275466799736023 -0.28637269139289856 0.124468803405761719
-0.494391113519668579 0.36273995041847229 0.21239025890827179
-0.384031921625137329 0.295242100954055786 0.24181954562664032
-0.4415283203125 0.0488727502524852753 0.231347396969795227
-0.36602783203125 -0.151717469096183777 0.220771953463554382
-0.311079651117324829 -0.234603151679039001 0.233658790588378906
-0.2434539794921875 0.513704001903533936 0.227454826235771179
-0.366163879632949829 0.47649848461151123 0.199770286679267883
-0.139317825436592102 -0.255835235118865967 0.266099125146865845
-0.209204360842704773 -0.252188295125961304 0.179891109466552734
-0.174203231930732727 0.308832496404647827 0.22323782742023468
0.00527826929464936256 -0.228202536702156067 0.277621269226074219
0.042331695556640625 0.227210745215415955 0.238751575350761414
0.065965019166469574 -0.370850473642349243 0.316784709692001343
0.10687255859375 0.33008536696434021 0.264405250549316406
0.267636626958847046 0.282994121313095093 0.323164612054824829
0.208571121096611023 -0.424184650182723999 0.305968284606933594
0.083817802369594574 -0.401301413774490356 0.205173179507255554
0.239373520016670227 0.177010342478752136 0.323222637176513672
0.271272033452987671 -0.0425935573875904083 0.310126632452011108
0.252475738525390625 -0.279307276010513306 0.319351524114608765
-0.439313262701034546 0.250664174556732178 0.313196182250976562
-0.412394195795059204 0.0475363731384277344 0.334380477666854858
-0.387021392583847046 -0.176968380808830261 0.333132117986679077
-0.2926483154296875 0.484222650527954102 0.339400142431259155
-0.188079833984375 0.356330722570419312 0.309504032135009766
-0.29058074951171875 0.296772360801696777 0.36855664849281311
-0.369874328374862671 0.0864815413951873779 0.473613262176513672
-0.259785979986190796 -0.0362329930067062378 0.349696487188339233
-0.104391731321811676 -0.19421367347240448 0.158411815762519836
-0.195288345217704773 -0.125416681170463562 0.304534107446670532
-0.209757491946220398 0.266167879104614258 0.342074871063232422
-0.191738128662109375 0.299387067556381226 0.520153701305389404
0.00897216796875 -0.336922913789749146 0.268523216247558594
-0.073200225830078125 -0.253961175680160522 0.409240394830703735
0.0102373762056231499 0.273560702800750732 0.324685096740722656
0.0389378853142261505 0.268633604049682617 0.493677377700805664
0.192097976803779602 -0.340391635894775391 0.329946994781494141
0.118971504271030426 -0.150455757975578308 0.39768633246421814
0.13883209228515625 0.176776036620140076 0.543788731098175049
0.275060027837753296 0.187704429030418396 0.427000373601913452
0.174048110842704773 -0.044911455363035202 0.562814533710479736
0.280096679925918579 -0.0434313267469406128 0.419270038604736328
0.104245506227016449 -0.252269089221954346 0.501706779003143311
0.255664825439453125 -0.297257751226425171 0.415148109197616577
-0.223981216549873352 0.260135650634765625 0.303049713373184204
-0.272960662841796875 0.0697724521160125732 0.434639602899551392
-0.2449188232421875 -0.137203887104988098 0.402826786041259766
-0.181986495852470398 0.165103301405906677 0.529643118381500244
-0.08123779296875 0.00318727921694517136 0.388275474309921265
-0.0517450980842113495 -0.167721673846244812 0.49015045166015625
0.035198211669921875 0.182832002639770508 0.552543938159942627
0.108313240110874176 0.0141082741320133209 0.49029231071472168
0.186763763427734375 -0.192330405116081238 0.418043136596679688
3 0 1 2
3 1 3 4
3 2 1 4
3 3 5 6
3 4 3 6
3 5 7 6
3 0 8 9
3 1 0 9
3 9 10 1
3 1 10 3
3 10 11 3
3 3 11 5
3 5 11 12
3 7 5 12
3 8 13 14
3 9 8 14
3 14 15 9
3 9 15 10
3 15 16 10
3 10 16 11
3 11 16 17
3 12 11 17
3 14 13 18
3 15 14 18
3 19 15 18
3 16 15 19
3 20 16 19
3 16 20 17
3 21 22 23
3 22 24 25
3 23 22 25
3 24 26 27
3 25 24 27
3 26 28 27
3 29 30 31
3 2 22 21
3 0 2 21
3 0 21 31
3 0 31 30
3 4 22 2
3 24 22 4
3 6 24 4
3 26 24 6
3 26 32 28
3 6 32 26
3 6 33 32
3 6 7 33
3 33 34 32
3 29 35 36
3 30 29 36
3 36 0 30
3 8 0 36
3 12 33 7
3 37 33 12
3 33 37 38
3 34 33 38
3 35 39 40
3 36 35 40
3 40 8 36
3 13 8 40
3 17 37 12
3 41 37 17
3 37 41 42
3 38 37 42
3 40 39 43
3 43 44 45
3 40 43 45
3 40 45 18
3 40 18 13
3 18 46 19
3 45 46 18
3 19 47 20
3 46 47 19
3 48 49 41
3 47 48 41
3 47 41 17
3 47 17 20
3 41 49 42
3 45 44 50
3 46 45 50
3 51 46 50
3 47 46 51
3 52 47 51
3 47 52 48
3 53 21 23
3 54 53 23
3 23 25 54
3 25 55 54
3 25 27 55
3 27 56 55
3 28 57 56
3 27 28 56
3 58 29 31
3 59 58 31
3 31 53 59
3 21 53 31
3 60 28 32
3 57 28 60
3 34 61 60
3 32 34 60
3 35 29 62
3 62 29 58
3 38 63 34
3 63 61 34
3 39 35 64
3 64 35 62
3 42 65 38
3 65 63 38
3 66 43 39
3 64 66 39
3 44 66 67
3 43 66 44
3 68 49 48
3 69 49 68
3 49 69 65
3 42 49 65
3 70 50 44
3 67 70 44
3 50 70 51
3 51 70 71
3 51 71 52
3 52 71 72
3 52 72 68
3 48 52 68
3 73 53 54
3 74 73 54
3 54 55 74
3 55 75 74
3 55 56 75
3 56 76 75
3 57 77 76
3 56 57 76
3 78 58 59
3 79 78 59
3 59 73 79
3 53 73 59
3 80 57 60
3 77 57 80
3 61 81 80
3 60 61 80
3 62 58 82
3 82 58 78
3 63 83 61
3 83 81 61
3 64 62 84
3 84 62 82
3 65 85 63
3 85 83 63
3 86 66 64
3 84 86 64
3 67 86 87
3 66 86 67
3 88 69 68
3 89 69 88
3 69 89 85
3 65 69 85
3 90 70 67
3 87 90 67
3 70 90 71
3 71 90 91
3 71 91 72
3 72 91 92
3 72 92 88
3 68 72 88
3 73 74 93
3 74 75 94
3 93 74 94
3 75 76 95
3 94 75 95
3 76 77 95
3 78 79 96
3 97 93 98
3 96 93 97
3 96 73 93
3 96 79 73
3 94 98 93
3 99 98 94
3 95 99 94
3 100 99 95
3 100 101 102
3 95 101 100
3 95 80 101
3 95 77 80
3 80 81 101
3 82 78 96
3 103 82 96
3 96 104 103
3 97 104 96
3 102 105 106
3 101 105 102
3 105 101 81
3 83 105 81
3 84 82 103
3 107 84 103
3 103 108 107
3 104 108 103
3 106 109 110
3 105 109 106
3 109 105 83
3 85 109 83
3 86 84 107
3 107 108 111
3 86 107 111
3 86 111 112
3 86 112 87
3 112 113 114
3 111 113 112
3 114 115 116
3 113 115 114
3 89 110 109
3 88 110 89
3 88 115 110
3 88 116 115
3 89 109 85
3 90 87 112
3 91 90 112
3 114 91 112
3 92 91 114
3 116 92 114
3 92 116 88
3 97 98 117
3 98 99 118
3 117 98 118
3 99 100 119
3 118 99 119
3 100 102 119
3 104 97 117
3 120 104 117
3 120 117 121
3 117 118 121
3 121 118 122
3 118 119 122
3 122 119 102
3 106 122 102
3 108 104 120
3 123 108 120
3 123 120 124
3 120 121 124
3 124 121 125
3 121 122 125
3 125 122 106
3 110 125 106
3 111 108 123
3 113 111 123
3 124 113 123
3 115 113 124
3 125 115 124
3 115 125 110
