ply
format ascii 1.0
comment VCGLIB generated
element vertex 126
property float x
property float y
property float z
element face 248
property list uchar int vertex_indices
end_header
-0.262622833251953125 0.29809609055519104 -0.55671006441116333
-0.194189712405204773 0.231348052620887756 -0.499895244836807251
-0.258669525384902954 0.237299665808677673 -0.431360870599746704
-0.179303482174873352 0.0116350911557674408 -0.433431297540664673
-0.259044647216796875 0.0250220876187086105 -0.357325226068496704
-0.191922500729560852 -0.22344285249710083 -0.434639304876327515
-0.291800171136856079 -0.209632277488708496 -0.370265156030654907
-0.174124404788017273 -0.201015353202819824 -0.353676468133926392
-0.03607177734375 0.300351768732070923 -0.516346275806427002
0.00465265894308686256 0.205738559365272522 -0.481759548187255859
0.0197385158389806747 -0.0235179904848337173 -0.47893872857093811
0.01416778564453125 -0.255013853311538696 -0.438157707452774048
0.026096343994140625 -0.273855775594711304 -0.328391700983047485
0.190691635012626648 0.287783771753311157 -0.440954834222793579
0.195873260498046875 0.185890913009643555 -0.460782527923583984
0.234846755862236023 -0.0497840829193592072 -0.448707431554794312
0.221575424075126648 -0.276723235845565796 -0.3822479248046875
0.183413192629814148 -0.423541277647018433 -0.381173133850097656
0.281246185302734375 0.179539069533348083 -0.421816200017929077
0.346988677978515625 -0.0628177300095558167 -0.402231544256210327
0.329408019781112671 -0.294388800859451294 -0.348176956176757812
-0.4513397216796875 0.41145661473274231 -0.329861164093017578
-0.388842254877090454 0.277830749750137329 -0.32455095648765564
-0.469285339117050171 0.315048933029174805 -0.2691802978515625
-0.417972564697265625 0.0465344004333019257 -0.283229827880859375
-0.443378448486328125 0.0863958895206451416 -0.183077976107597351
-0.39376068115234375 -0.165298700332641602 -0.225454643368721008
-0.367679595947265625 -0.12896573543548584 -0.12558428943157196
-0.359914153814315796 -0.237454578280448914 -0.108553729951381683
-0.275082916021347046 0.58360135555267334 -0.547978579998016357
-0.339529663324356079 0.506889998912811279 -0.62958526611328125
-0.33348846435546875 0.533852517604827881 -0.430509895086288452
-0.181462600827217102 -0.241212233901023865 -0.0643048286437988281
-0.1518402099609375 -0.158182874321937561 -0.16421954333782196
-0.108655296266078949 -0.162325158715248108 -0.0469759292900562286
-0.076137542724609375 0.518715858459472656 -0.438461631536483765
-0.092437744140625 0.473871350288391113 -0.521136581897735596
-0.0239690151065587997 -0.30833098292350769 -0.181215927004814148
-0.005084991455078125 -0.357519745826721191 -0.0786833763122558594
0.127656295895576477 0.482396483421325684 -0.305965423583984375
0.138943985104560852 0.441228181123733521 -0.388896316289901733
0.177501678466796875 -0.471177488565444946 -0.17591412365436554
0.217722579836845398 -0.414672732353210449 -0.0624642372131347656
0.204324081540107727 0.421638756990432739 -0.258214324712753296
0.363390594720840454 0.301918953657150269 -0.201374217867851257
0.345666259527206421 0.19592536985874176 -0.285157352685928345
0.374310821294784546 -0.0376673378050327301 -0.232656791806221008
0.438706725835800171 -0.264551430940628052 -0.208385780453681946
0.432408660650253296 -0.343200773000717163 -0.0898863449692726135
0.30702972412109375 -0.469441384077072144 -0.0598893165588378906
0.335318237543106079 0.193491086363792419 -0.174365833401679993
0.435036987066268921 -0.0135680064558982849 -0.143341064453125
0.472283691167831421 -0.234449073672294617 -0.102821983397006989
-0.342707306146621704 0.483450919389724731 -0.127463817596435547
-0.34761810302734375 0.374775439500808716 -0.0942265167832374573
-0.342665344476699829 0.159874305129051208 0.0008602142333984375
-0.354607909917831421 -0.0672255977988243103 0.0853842124342918396
-0.404780060052871704 -0.173518478870391846 0.107337154448032379
-0.248135879635810852 0.661807715892791748 -0.252906471490859985
-0.329184204339981079 0.665377020835876465 -0.193575218319892883
-0.247249603271484375 -0.198813751339912415 0.146835014224052429
-0.192980453372001648 -0.277610808610916138 0.121030807495117188
-0.09686279296875 0.495974332094192505 -0.227453067898750305
-0.0352490730583667755 -0.418030530214309692 0.134133175015449524
0.102550506591796875 0.550840675830841064 -0.1309814453125
0.18596649169921875 -0.423057109117507935 0.162348583340644836
0.217774704098701477 0.493138670921325684 -0.0569432564079761505
0.280481964349746704 0.30462232232093811 -0.000838120758999139071
0.412628173828125 -0.291386187076568604 0.129886463284492493
0.235509231686592102 -0.339642554521560669 0.116341911256313324
0.331523895263671875 0.217362657189369202 0.0411418266594409943
0.311166137456893921 -0.00625866279006004333 0.0496807098388671875
0.34174346923828125 -0.223119854927062988 0.0795439109206199646
-0.407819122076034546 0.542638063430786133 0.0879832878708839417
-0.413057953119277954 0.432898253202438354 0.123801864683628082
-0.418701171875 0.213787496089935303 0.21279732882976532
-0.455715179443359375 0.00116510328371077776 0.271595805883407593
-0.388980865478515625 -0.077426813542842865 0.312208503484725952
-0.202222183346748352 0.467689663171768188 -0.0987286567687988281
-0.287195831537246704 0.504009127616882324 -0.026617368683218956
-0.249224349856376648 -0.169255077838897705 0.355009227991104126
-0.262479156255722046 -0.287689954042434692 0.330416679382324219
-0.020229339599609375 0.543609321117401123 -0.0278684291988611221
-0.0428009033203125 -0.388158887624740601 0.370120525360107422
0.163653060793876648 0.565167665481567383 0.0382161140441894531
0.151125594973564148 -0.310948193073272705 0.35108676552772522
0.125626876950263977 0.482378989458084106 0.129882335662841797
0.218579605221748352 0.347780823707580566 0.217307567596435547
0.382110595703125 -0.199657917022705078 0.322266906499862671
0.267426818609237671 -0.339132159948348999 0.32972988486289978
0.213934585452079773 0.240857228636741638 0.229599475860595703
0.237806960940361023 0.0273990780115127563 0.257009983062744141
0.2696533203125 -0.186980962753295898 0.286668628454208374
-0.394053131341934204 0.455429583787918091 0.224526092410087585
-0.436960846185684204 0.239160910248756409 0.312363296747207642
-0.455623626708984375 0.0123290307819843292 0.375727653503417969
-0.198622390627861023 0.391847163438796997 -0.0207505226135253906
-0.143965408205986023 0.374984532594680786 0.148080989718437195
-0.21694183349609375 0.401960581541061401 0.273976802825927734
-0.265577942132949829 0.210584327578544617 0.397326141595840454
-0.319634765386581421 0.00792953744530677795 0.493525594472885132
-0.275929778814315796 -0.262028485536575317 0.436890751123428345
-0.243104293942451477 -0.105896890163421631 0.515011310577392578
0.00513585424050688744 0.42443963885307312 0.0369416885077953339
0.0246378574520349503 0.237964734435081482 0.0748559609055519104
-0.0520375557243824005 -0.310379356145858765 0.454911082983016968
0.00426483154296875 -0.0783772468566894531 0.469892174005508423
0.233796432614326477 0.46560707688331604 0.0768248215317726135
0.21451568603515625 0.32200971245765686 0.178814888000488281
0.231421157717704773 -0.236947283148765564 0.357066154479980469
0.201265975832939148 -0.182556852698326111 0.558544397354125977
0.301984161138534546 0.221593752503395081 0.214159011840820312
0.164908096194267273 0.267745912075042725 0.32039642333984375
0.328502655029296875 0.0365931056439876556 0.351748943328857422
0.151393890380859375 0.0396227799355983734 0.321670055389404297
0.280315399169921875 -0.088076375424861908 0.545661449432373047
0.273881286382675171 -0.137000590562820435 0.380583435297012329
-0.144510909914970398 0.334070831537246704 0.242784023284912109
-0.159655258059501648 0.200940132141113281 0.421195358037948608
-0.214565277099609375 0.00517199700698256493 0.530417978763580322
0.00023651123046875 0.192191541194915771 0.178551360964775085
0.0409228019416332245 0.110657833516597748 0.380371421575546265
0.00295257568359375 -0.0525150410830974579 0.528685569763183594
0.20561981201171875 0.224316611886024475 0.247172355651855469
0.229523971676826477 0.00754255242645740509 0.320998340845108032
0.197057083249092102 -0.151845425367355347 0.483760595321655273
3 0 1 2
3 1 3 4
3 2 1 4
3 3 5 6
3 4 3 6
3 5 7 6
3 0 8 9
3 1 0 9
3 9 10 1
3 1 10 3
3 10 11 3
3 3 11 5
3 5 11 12
3 7 5 12
3 8 13 14
3 9 8 14
3 14 15 9
3 9 15 10
3 15 16 10
3 10 16 11
3 11 16 17
3 12 11 17
3 14 13 18
3 15 14 18
3 19 15 18
3 16 15 19
3 20 16 19
3 16 20 17
3 21 22 23
3 22 24 25
3 23 22 25
3 24 26 27
3 25 24 27
3 26 28 27
3 29 30 31
3 2 22 21
3 0 2 21
3 0 21 31
3 0 31 30
3 4 22 2
3 24 22 4
3 6 24 4
3 26 24 6
3 26 32 28
3 6 32 26
3 6 33 32
3 6 7 33
3 33 34 32
3 29 35 36
3 30 29 36
3 36 0 30
3 8 0 36
3 12 33 7
3 37 33 12
3 33 37 38
3 34 33 38
3 35 39 40
3 36 35 40
3 40 8 36
3 13 8 40
3 17 37 12
3 41 37 17
3 37 41 42
3 38 37 42
3 40 39 43
3 43 44 45
3 40 43 45
3 40 45 18
3 40 18 13
3 18 46 19
3 45 46 18
3 19 47 20
3 46 47 19
3 48 49 41
3 47 48 41
3 47 41 17
3 47 17 20
3 41 49 42
3 45 44 50
3 46 45 50
3 51 46 50
3 47 46 51
3 52 47 51
3 47 52 48
3 53 21 23
3 54 53 23
3 23 25 54
3 25 55 54
3 25 27 55
3 27 56 55
3 28 57 56
3 27 28 56
3 58 29 31
3 59 58 31
3 31 53 59
3 21 53 31
3 60 28 32
3 57 28 60
3 34 61 60
3 32 34 60
3 35 29 62
3 62 29 58
3 38 63 34
3 63 61 34
3 39 35 64
3 64 35 62
3 42 65 38
3 65 63 38
3 66 43 39
3 64 66 39
3 44 66 67
3 43 66 44
3 68 49 48
3 69 49 68
3 49 69 65
3 42 49 65
3 70 50 44
3 67 70 44
3 50 70 51
3 51 70 71
3 51 71 52
3 52 71 72
3 52 72 68
3 48 52 68
3 73 53 54
3 74 73 54
3 54 55 74
3 55 75 74
3 55 56 75
3 56 76 75
3 57 77 76
3 56 57 76
3 78 58 59
3 79 78 59
3 59 73 79
3 53 73 59
3 80 57 60
3 77 57 80
3 61 81 80
3 60 61 80
3 62 58 82
3 82 58 78
3 63 83 61
3 83 81 61
3 64 62 84
3 84 62 82
3 65 85 63
3 85 83 63
3 86 66 64
3 84 86 64
3 67 86 87
3 66 86 67
3 88 69 68
3 89 69 88
3 69 89 85
3 65 69 85
3 90 70 67
3 87 90 67
3 70 90 71
3 71 90 91
3 71 91 72
3 72 91 92
3 72 92 88
3 68 72 88
3 73 74 93
3 74 75 94
3 93 74 94
3 75 76 95
3 94 75 95
3 76 77 95
3 78 79 96
3 97 93 98
3 96 93 97
3 96 73 93
3 96 79 73
3 94 98 93
3 99 98 94
3 95 99 94
3 100 99 95
3 100 101 102
3 95 101 100
3 95 80 101
3 95 77 80
3 80 81 101
3 82 78 96
3 103 82 96
3 96 104 103
3 97 104 96
3 102 105 106
3 101 105 102
3 105 101 81
3 83 105 81
3 84 82 103
3 107 84 103
3 103 108 107
3 104 108 103
3 106 109 110
3 105 109 106
3 109 105 83
3 85 109 83
3 86 84 107
3 107 108 111
3 86 107 111
3 86 111 112
3 86 112 87
3 112 113 114
3 111 113 112
3 114 115 116
3 113 115 114
3 89 110 109
3 88 110 89
3 88 115 110
3 88 116 115
3 89 109 85
3 90 87 112
3 91 90 112
3 114 91 112
3 92 91 114
3 116 92 114
3 92 116 88
3 97 98 117
3 98 99 118
3 117 98 118
3 99 100 119
3 118 99 119
3 100 102 119
3 104 97 117
3 120 104 117
3 120 117 121
3 117 118 121
3 121 118 122
3 118 119 122
3 122 119 102
3 106 122 102
3 108 104 120
3 123 108 120
3 123 120 124
3 120 121 124
3 124 121 125
3 121 122 125
3 125 122 106
3 110 125 106
3 111 108 123
3 113 111 123
3 124 113 123
3 115 113 124
3 125 115 124
3 115 125 110
