ply
format ascii 1.0
comment VCGLIB generated
element vertex 126
property float x
property float y
property float z
element face 248
property list uchar int vertex_indices
end_header
-0.299642741680145264 0.400779366493225098 -0.399106204509735107
-0.21980111300945282 0.325436621904373169 -0.340831488370895386
-0.24874599277973175 0.280721753835678101 -0.228332817554473877
-0.318166553974151611 0.067936725914478302 -0.440854579210281372
-0.28632768988609314 0.0119133898988366127 -0.302437633275985718
-0.267306238412857056 -0.146719247102737427 -0.26853516697883606
-0.310547560453414917 -0.255679696798324585 -0.342505186796188354
-0.232245698571205139 -0.251158773899078369 -0.179585546255111694
-0.0429985746741294861 0.503343880176544189 -0.533748507499694824
-0.024410594254732132 0.357802629470825195 -0.560045003890991211
-0.0308106150478124619 0.0518723279237747192 -0.530822932720184326
-0.0448903143405914307 -0.220858737826347351 -0.432488918304443359
-0.0192139353603124619 -0.330079048871994019 -0.333394765853881836
0.218308180570602417 0.483083158731460571 -0.406697452068328857
0.156184107065200806 0.357284605503082275 -0.351497024297714233
0.166863530874252319 0.0884369909763336182 -0.313731968402862549
0.210670113563537598 -0.175544798374176025 -0.303978264331817627
0.258263677358627319 -0.285503894090652466 -0.329739391803741455
0.293572157621383667 0.373977303504943848 -0.349842190742492676
0.308229267597198486 0.116650484502315521 -0.331832259893417358
0.343123346567153931 -0.142040550708770752 -0.283514142036437988
-0.540615439414978027 0.411967813968658447 -0.0702920779585838318
-0.471451491117477417 0.296059846878051758 -0.168767616152763367
-0.54874420166015625 0.265997141599655151 -0.0633415281772613525
-0.475547075271606445 0.016170131042599678 -0.161843076348304749
-0.426389515399932861 0.00786531064659357071 -0.0299356188625097275
-0.477203011512756348 -0.264669895172119141 -0.182983651757240295
-0.44605255126953125 -0.27623748779296875 -0.0502980835735797882
-0.519551336765289307 -0.403585582971572876 -0.0674525126814842224
-0.206598803400993347 0.563202619552612305 -0.132498309016227722
-0.246370479464530945 0.474721074104309082 -0.211614906787872314
-0.31508183479309082 0.493092894554138184 -0.0681031793355941772
-0.37101396918296814 -0.575778663158416748 -0.0735629647970199585
-0.273952484130859375 -0.449017167091369629 -0.0752316787838935852
-0.224992573261260986 -0.585254788398742676 -0.0561579763889312744
0.00339334644377231598 0.666840970516204834 -0.213378995656967163
-0.00653353612869977951 0.614424943923950195 -0.331803232431411743
0.00697569409385323524 -0.49097287654876709 -0.1748017817735672
0.0103135537356138229 -0.405522972345352173 -0.0739440023899078369
0.253533452749252319 0.598830521106719971 -0.22072465717792511
0.270911127328872681 0.689127683639526367 -0.357849597930908203
0.286386668682098389 -0.445077359676361084 -0.167220711708068848
0.277730762958526611 -0.363838404417037964 -0.043209463357925415
0.327398121356964111 0.69073718786239624 -0.187262177467346191
0.430164337158203125 0.484078794717788696 -0.14160524308681488
0.268400371074676514 0.367498785257339478 -0.119534619152545929
0.417192637920379639 0.132669925689697266 -0.144840583205223083
0.512305140495300293 -0.118807874619960785 -0.136084124445915222
0.508025765419006348 -0.22650320827960968 -0.00124909658916294575
0.402847617864608765 -0.416098058223724365 -0.0368614606559276581
0.340638577938079834 0.429607957601547241 -0.0274825096130371094
0.315359294414520264 0.139099180698394775 -0.0513070262968540192
0.411742806434631348 -0.136907875537872314 -0.0287433099001646042
-0.56018829345703125 0.433186799287796021 0.214569777250289917
-0.566922962665557861 0.307777494192123413 0.200763821601867676
-0.574377238750457764 0.0120763247832655907 0.206105709075927734
-0.536419272422790527 -0.278659939765930176 0.218692690134048462
-0.547348380088806152 -0.409315705299377441 0.221058666706085205
-0.231813952326774597 0.608646988868713379 0.158447995781898499
-0.418432414531707764 0.618038535118103027 0.182471916079521179
-0.393286615610122681 -0.581474661827087402 0.219118595123291016
-0.285363614559173584 -0.502444624900817871 0.21304476261138916
0.00975001882761716843 0.643924593925476074 0.123511873185634613
-0.0509972982108592987 -0.345540344715118408 0.214218869805335999
0.230047047138214111 0.513718485832214355 0.0557942800223827362
0.234121844172477722 -0.381163418292999268 0.24011307954788208
0.271913349628448486 0.643111884593963623 0.119427762925624847
0.482032060623168945 0.546448409557342529 0.141612187027931213
0.502894997596740723 -0.262015461921691895 0.27137148380279541
0.359902799129486084 -0.439056038856506348 0.245203092694282532
0.499385476112365723 0.405327737331390381 0.176167488098144531
0.355980604887008667 0.141915082931518555 0.23844631016254425
0.432314425706863403 -0.154132485389709473 0.251311808824539185
-0.531796514987945557 0.409999549388885498 0.489384889602661133
-0.607317149639129639 0.290220648050308228 0.487170636653900146
-0.529107153415679932 0.0150061137974262238 0.495562970638275146
-0.605912625789642334 -0.264086395502090454 0.496941477060317993
-0.518185019493103027 -0.359439492225646973 0.509073734283447266
-0.253757119178771973 0.562296867370605469 0.43740379810333252
-0.376030296087265015 0.555680036544799805 0.466898113489151001
-0.392294794321060181 -0.536374688148498535 0.518153548240661621
-0.277184575796127319 -0.471271038055419922 0.498998582363128662
0.00456203101202845573 0.473083794116973877 0.396005243062973022
-0.00219865282997488976 -0.410469532012939453 0.483482092618942261
0.217370122671127319 0.356551378965377808 0.297607064247131348
0.217137768864631653 -0.22911207377910614 0.471870660781860352
0.199246838688850403 0.497618645429611206 0.367662906646728516
0.419257760047912598 0.459455668926239014 0.396429628133773804
0.513884782791137695 -0.320538491010665894 0.534417629241943359
0.342162728309631348 -0.231723487377166748 0.441379755735397339
0.565391898155212402 0.40600016713142395 0.447025716304779053
0.463445812463760376 0.0997196361422538757 0.516195058822631836
0.526322424411773682 -0.185933932662010193 0.521934032440185547
-0.556397855281829834 0.296961575746536255 0.616954684257507324
-0.530837655067443848 0.0185216367244720459 0.632860839366912842
-0.591751456260681152 -0.263931185007095337 0.643156647682189941
-0.243200823664665222 0.524689078330993652 0.588154971599578857
-0.285299479961395264 0.419336259365081787 0.800087451934814453
-0.433037489652633667 0.322266668081283569 0.817175984382629395
-0.479670435190200806 0.0266805868595838547 0.855622947216033936
-0.46614384651184082 -0.265485525131225586 0.822704672813415527
-0.266884893178939819 -0.495454549789428711 0.639137566089630127
-0.328669100999832153 -0.290608197450637817 0.722358882427215576
-0.0475311279296875 0.37586483359336853 0.493502169847488403
-0.027462352067232132 0.293104112148284912 0.767041981220245361
0.00398115674033761024 -0.40290030837059021 0.622189700603485107
-0.0569638311862945557 -0.202514663338661194 0.724400818347930908
0.207947820425033569 0.331135809421539307 0.441602796316146851
0.22567574679851532 0.350230604410171509 0.681848704814910889
0.268036216497421265 -0.299711138010025024 0.589305698871612549
0.221229895949363708 -0.159942984580993652 0.760470926761627197
0.38329729437828064 0.377613037824630737 0.739357471466064453
0.460305631160736084 0.369400560855865479 0.544800519943237305
0.360695213079452515 0.0950959324836730957 0.797637820243835449
0.494490534067153931 0.0931699648499488831 0.63317948579788208
0.369177728891372681 -0.198073193430900574 0.842818737030029297
0.453276187181472778 -0.200933247804641724 0.640696585178375244
-0.314787089824676514 0.328360021114349365 0.904761552810668945
-0.346025973558425903 0.0358942747116088867 0.938106298446655273
-0.333968073129653931 -0.259961783885955811 0.901906013488769531
-0.01743316650390625 0.3433208167552948 0.927572548389434814
-0.0463693775236606598 0.0541620180010795593 0.956617236137390137
-0.0507684163749217987 -0.219686523079872131 0.87916100025177002
0.249625116586685181 0.366318732500076294 0.803101897239685059
0.252444535493850708 0.0786508023738861084 0.883084535598754883
0.229698523879051208 -0.213142365217208862 0.885580301284790039
3 0 1 2
3 1 3 4
3 2 1 4
3 3 5 6
3 4 3 6
3 5 7 6
3 0 8 9
3 1 0 9
3 9 10 1
3 1 10 3
3 10 11 3
3 3 11 5
3 5 11 12
3 7 5 12
3 8 13 14
3 9 8 14
3 14 15 9
3 9 15 10
3 15 16 10
3 10 16 11
3 11 16 17
3 12 11 17
3 14 13 18
3 15 14 18
3 19 15 18
3 16 15 19
3 20 16 19
3 16 20 17
3 21 22 23
3 22 24 25
3 23 22 25
3 24 26 27
3 25 24 27
3 26 28 27
3 29 30 31
3 2 22 21
3 0 2 21
3 0 21 31
3 0 31 30
3 4 22 2
3 24 22 4
3 6 24 4
3 26 24 6
3 26 32 28
3 6 32 26
3 6 33 32
3 6 7 33
3 33 34 32
3 29 35 36
3 30 29 36
3 36 0 30
3 8 0 36
3 12 33 7
3 37 33 12
3 33 37 38
3 34 33 38
3 35 39 40
3 36 35 40
3 40 8 36
3 13 8 40
3 17 37 12
3 41 37 17
3 37 41 42
3 38 37 42
3 40 39 43
3 43 44 45
3 40 43 45
3 40 45 18
3 40 18 13
3 18 46 19
3 45 46 18
3 19 47 20
3 46 47 19
3 48 49 41
3 47 48 41
3 47 41 17
3 47 17 20
3 41 49 42
3 45 44 50
3 46 45 50
3 51 46 50
3 47 46 51
3 52 47 51
3 47 52 48
3 53 21 23
3 54 53 23
3 23 25 54
3 25 55 54
3 25 27 55
3 27 56 55
3 28 57 56
3 27 28 56
3 58 29 31
3 59 58 31
3 31 53 59
3 21 53 31
3 60 28 32
3 57 28 60
3 34 61 60
3 32 34 60
3 35 29 62
3 62 29 58
3 38 63 34
3 63 61 34
3 39 35 64
3 64 35 62
3 42 65 38
3 65 63 38
3 66 43 39
3 64 66 39
3 44 66 67
3 43 66 44
3 68 49 48
3 69 49 68
3 49 69 65
3 42 49 65
3 70 50 44
3 67 70 44
3 50 70 51
3 51 70 71
3 51 71 52
3 52 71 72
3 52 72 68
3 48 52 68
3 73 53 54
3 74 73 54
3 54 55 74
3 55 75 74
3 55 56 75
3 56 76 75
3 57 77 76
3 56 57 76
3 78 58 59
3 79 78 59
3 59 73 79
3 53 73 59
3 80 57 60
3 77 57 80
3 61 81 80
3 60 61 80
3 62 58 82
3 82 58 78
3 63 83 61
3 83 81 61
3 64 62 84
3 84 62 82
3 65 85 63
3 85 83 63
3 86 66 64
3 84 86 64
3 67 86 87
3 66 86 67
3 88 69 68
3 89 69 88
3 69 89 85
3 65 69 85
3 90 70 67
3 87 90 67
3 70 90 71
3 71 90 91
3 71 91 72
3 72 91 92
3 72 92 88
3 68 72 88
3 73 74 93
3 74 75 94
3 93 74 94
3 75 76 95
3 94 75 95
3 76 77 95
3 78 79 96
3 97 93 98
3 96 93 97
3 96 73 93
3 96 79 73
3 94 98 93
3 99 98 94
3 95 99 94
3 100 99 95
3 100 101 102
3 95 101 100
3 95 80 101
3 95 77 80
3 80 81 101
3 82 78 96
3 103 82 96
3 96 104 103
3 97 104 96
3 102 105 106
3 101 105 102
3 105 101 81
3 83 105 81
3 84 82 103
3 107 84 103
3 103 108 107
3 104 108 103
3 106 109 110
3 105 109 106
3 109 105 83
3 85 109 83
3 86 84 107
3 107 108 111
3 86 107 111
3 86 111 112
3 86 112 87
3 112 113 114
3 111 113 112
3 114 115 116
3 113 115 114
3 89 110 109
3 88 110 89
3 88 115 110
3 88 116 115
3 89 109 85
3 90 87 112
3 91 90 112
3 114 91 112
3 92 91 114
3 116 92 114
3 92 116 88
3 97 98 117
3 98 99 118
3 117 98 118
3 99 100 119
3 118 99 119
3 100 102 119
3 104 97 117
3 120 104 117
3 120 117 121
3 117 118 121
3 121 118 122
3 118 119 122
3 122 119 102
3 106 122 102
3 108 104 120
3 123 108 120
3 123 120 124
3 120 121 124
3 124 121 125
3 121 122 125
3 125 122 106
3 110 125 106
3 111 108 123
3 113 111 123
3 124 113 123
3 115 113 124
3 125 115 124
3 115 125 110
