ply
format ascii 1.0
comment VCGLIB generated
element vertex 126
property float x
property float y
property float z
element face 248
property list uchar int vertex_indices
end_header
-0.17890167236328125 0.233514025807380676 -0.519056499004364014
-0.173430129885673523 0.129090845584869385 -0.550695240497589111
-0.275240570306777954 0.135103121399879456 -0.510261356830596924
-0.16948699951171875 -0.0911999419331550598 -0.512299716472625732
-0.272382110357284546 -0.0866174325346946716 -0.472475051879882812
-0.166451767086982727 -0.312016725540161133 -0.47391924262046814
-0.269055694341659546 -0.306574791669845581 -0.433553367853164673
-0.171960189938545227 -0.401262521743774414 -0.407818317413330078
0.0439275093376636505 0.240111842751502991 -0.495996147394180298
0.0508181266486644745 0.134434521198272705 -0.52923506498336792
0.0523618049919605255 -0.084953896701335907 -0.489520549774169922
0.055561065673828125 -0.305264562368392944 -0.449539661407470703
0.0502688102424144745 -0.393054455518722534 -0.382826477289199829
0.2660675048828125 0.247547388076782227 -0.473436355590820312
0.273862212896347046 0.141176164150238037 -0.505504906177520752
0.276070922613143921 -0.0787706524133682251 -0.46804395318031311
0.279003143310546875 -0.298734843730926514 -0.427891731262207031
0.274010986089706421 -0.386367678642272949 -0.360487133264541626
0.363766998052597046 0.153206661343574524 -0.446643203496932983
0.366189330816268921 -0.0669486597180366516 -0.405875533819198608
0.370251983404159546 -0.287709355354309082 -0.366700023412704468
-0.426167815923690796 0.266015201807022095 -0.321866989135742188
-0.41579437255859375 0.151281207799911499 -0.399794906377792358
-0.477216094732284546 0.168305352330207825 -0.309942245483398438
-0.411715179681777954 -0.0675514489412307739 -0.361491531133651733
-0.474130004644393921 -0.0542314201593399048 -0.270301342010498047
-0.410196930170059204 -0.288418382406234741 -0.323220103979110718
-0.471712738275527954 -0.273614287376403809 -0.232846572995185852
-0.418156951665878296 -0.369152665138244629 -0.209870338439941406
-0.205888107419013977 0.44607129693031311 -0.329003661870956421
-0.195164993405342102 0.380923181772232056 -0.414950370788574219
-0.301453918218612671 0.393711209297180176 -0.329714298248291016
-0.291762024164199829 -0.489199846982955933 -0.174670383334159851
-0.18257904052734375 -0.502611935138702393 -0.260936886072158813
-0.192709609866142273 -0.538201630115509033 -0.156899452209472656
0.0164044704288244247 0.454587727785110474 -0.307103633880615234
0.02878570556640625 0.385937601327896118 -0.394303798675537109
0.0401153564453125 -0.496025890111923218 -0.236832305788993835
0.029163360595703125 -0.531323075294494629 -0.132878616452217102
0.239671066403388977 0.45992705225944519 -0.282500416040420532
0.251962035894393921 0.395065158605575562 -0.369274139404296875
0.262945801019668579 -0.490303725004196167 -0.214975044131278992
0.252596527338027954 -0.525264859199523926 -0.109976291656494141
0.338762909173965454 0.413532257080078125 -0.263516098260879517
0.465321868658065796 0.291952818632125854 -0.230158165097236633
0.478026062250137329 0.180790126323699951 -0.308072715997695923
0.481099456548690796 -0.0413717217743396759 -0.26948198676109314
0.483002990484237671 -0.263493657112121582 -0.231579139828681946
0.473397582769393921 -0.342154711484909058 -0.119125686585903168
0.348059326410293579 -0.471823900938034058 -0.110067211091518402
0.517969787120819092 0.196501120924949646 -0.206491947174072266
0.5199127197265625 -0.0231164116412401199 -0.16968981921672821
0.523432433605194092 -0.244677305221557617 -0.131106853485107422
-0.449677795171737671 0.304464578628540039 -0.101931415498256683
-0.498872131109237671 0.205244943499565125 -0.0891515389084815979
-0.497678130865097046 -0.0161529723554849625 -0.0496889762580394745
-0.495122283697128296 -0.235326632857322693 -0.0130704240873456001
-0.443468719720840454 -0.331133753061294556 0.00952847767621278763
-0.227947235107421875 0.485143452882766724 -0.109514392912387848
-0.324179321527481079 0.432669967412948608 -0.111874423921108246
-0.314657837152481079 -0.450875133275985718 0.0459987334907054901
-0.217238113284111023 -0.498249322175979614 0.0628792420029640198
-0.00616709375753998756 0.492258429527282715 -0.087029777467250824
0.00624974584206938744 -0.492412537336349487 0.0879225730895996094
0.216302230954170227 0.497903734445571899 -0.0644502639770507812
0.228130340576171875 -0.485250711441040039 0.108641780912876129
0.3133544921875 0.453122586011886597 -0.0449768714606761932
0.442063659429550171 0.330438524484634399 -0.008907318115234375
0.45084381103515625 -0.30460020899772644 0.101918376982212067
0.325991302728652954 -0.432680338621139526 0.110094703733921051
0.495016723871231079 0.236335679888725281 0.0121305780485272408
0.496721893548965454 0.0151500487700104713 0.0520995445549488068
0.499759674072265625 -0.205236136913299561 0.0908133164048194885
-0.473323822021484375 0.342574566602706909 0.117190204560756683
-0.522879302501678467 0.244782447814941406 0.130072906613349915
-0.521933257579803467 0.0242555812001228333 0.16858227550983429
-0.517826080322265625 -0.196483269333839417 0.208818912506103516
-0.46598052978515625 -0.292715609073638916 0.229616329073905945
-0.25331878662109375 0.523974895477294922 0.11037667840719223
-0.349867492914199829 0.470530420541763306 0.110112667083740234
-0.339168548583984375 -0.413857728242874146 0.265754073858261108
-0.239687606692314148 -0.460805505514144897 0.283425480127334595
-0.0300534572452306747 0.530972540378570557 0.133052662014961243
-0.01853179931640625 -0.454362362623214722 0.305458873510360718
0.192206069827079773 0.537854850292205811 0.157107040286064148
0.204415634274482727 -0.447654008865356445 0.329668998718261719
0.291535705327987671 0.490819960832595825 0.174706935882568359
0.418398529291152954 0.368618994951248169 0.209775283932685852
0.425687164068222046 -0.265549600124359131 0.320453792810440063
0.301855713129043579 -0.394886136054992676 0.330768108367919922
0.471922546625137329 0.274205029010772705 0.230770900845527649
0.472876220941543579 0.053019985556602478 0.270390510559082031
0.476701110601425171 -0.16657671332359314 0.309447914361953735
-0.482386261224746704 0.261648654937744141 0.230813026428222656
-0.481142669916152954 0.0423372946679592133 0.268415600061416626
-0.477629333734512329 -0.179440274834632874 0.309133380651473999
-0.262671142816543579 0.490541338920593262 0.21511395275592804
-0.273583739995956421 0.387536317110061646 0.361655086278915405
-0.36907958984375 0.287594527006149292 0.368419647216796875
-0.366174072027206421 0.0662956610321998596 0.405954688787460327
-0.363727569580078125 -0.15292637050151825 0.446266978979110718
-0.250659942626953125 -0.393048614263534546 0.37147030234336853
-0.266236633062362671 -0.246709361672401428 0.473840862512588501
-0.0395329780876636505 0.497650772333145142 0.238332107663154602
-0.050495147705078125 0.393241316080093384 0.382942825555801392
-0.028278350830078125 -0.386866778135299683 0.392051547765731812
-0.0442225150763988495 -0.241567924618721008 0.495995998382568359
0.184876754879951477 0.503603458404541016 0.259518623352050781
0.172028854489326477 0.400272607803344727 0.405685096979141235
0.195837661623954773 -0.379012316465377808 0.416368633508682251
0.180913284420967102 -0.234278380870819092 0.518472373485565186
0.270131438970565796 0.306604951620101929 0.434469550848007202
0.408827453851699829 0.288971036672592163 0.321451663970947266
0.271928161382675171 0.0877085328102111816 0.473543733358383179
0.411607116460800171 0.0682990998029708862 0.362019062042236328
0.275417327880859375 -0.134852036833763123 0.510423362255096436
0.414597839117050171 -0.152668759226799011 0.399608761072158813
-0.278733581304550171 0.299929976463317871 0.427467674016952515
-0.276507049798965454 0.0788775309920310974 0.467337131500244141
-0.272403717041015625 -0.142986014485359192 0.505883753299713135
-0.055908203125 0.305262476205825806 0.451630264520645142
-0.0529009513556957245 0.0854306221008300781 0.490247100591659546
-0.05133819580078125 -0.136521667242050171 0.528884351253509521
0.168842315673828125 0.31340634822845459 0.474650532007217407
0.169452667236328125 0.0922523960471153259 0.511931002140045166
0.171742752194404602 -0.128831610083580017 0.552475035190582275
3 0 1 2
3 1 3 4
3 2 1 4
3 3 5 6
3 4 3 6
3 5 7 6
3 0 8 9
3 1 0 9
3 9 10 1
3 1 10 3
3 10 11 3
3 3 11 5
3 5 11 12
3 7 5 12
3 8 13 14
3 9 8 14
3 14 15 9
3 9 15 10
3 15 16 10
3 10 16 11
3 11 16 17
3 12 11 17
3 14 13 18
3 15 14 18
3 19 15 18
3 16 15 19
3 20 16 19
3 16 20 17
3 21 22 23
3 22 24 25
3 23 22 25
3 24 26 27
3 25 24 27
3 26 28 27
3 29 30 31
3 2 22 21
3 0 2 21
3 0 21 31
3 0 31 30
3 4 22 2
3 24 22 4
3 6 24 4
3 26 24 6
3 26 32 28
3 6 32 26
3 6 33 32
3 6 7 33
3 33 34 32
3 29 35 36
3 30 29 36
3 36 0 30
3 8 0 36
3 12 33 7
3 37 33 12
3 33 37 38
3 34 33 38
3 35 39 40
3 36 35 40
3 40 8 36
3 13 8 40
3 17 37 12
3 41 37 17
3 37 41 42
3 38 37 42
3 40 39 43
3 43 44 45
3 40 43 45
3 40 45 18
3 40 18 13
3 18 46 19
3 45 46 18
3 19 47 20
3 46 47 19
3 48 49 41
3 47 48 41
3 47 41 17
3 47 17 20
3 41 49 42
3 45 44 50
3 46 45 50
3 51 46 50
3 47 46 51
3 52 47 51
3 47 52 48
3 53 21 23
3 54 53 23
3 23 25 54
3 25 55 54
3 25 27 55
3 27 56 55
3 28 57 56
3 27 28 56
3 58 29 31
3 59 58 31
3 31 53 59
3 21 53 31
3 60 28 32
3 57 28 60
3 34 61 60
3 32 34 60
3 35 29 62
3 62 29 58
3 38 63 34
3 63 61 34
3 39 35 64
3 64 35 62
3 42 65 38
3 65 63 38
3 66 43 39
3 64 66 39
3 44 66 67
3 43 66 44
3 68 49 48
3 69 49 68
3 49 69 65
3 42 49 65
3 70 50 44
3 67 70 44
3 50 70 51
3 51 70 71
3 51 71 52
3 52 71 72
3 52 72 68
3 48 52 68
3 73 53 54
3 74 73 54
3 54 55 74
3 55 75 74
3 55 56 75
3 56 76 75
3 57 77 76
3 56 57 76
3 78 58 59
3 79 78 59
3 59 73 79
3 53 73 59
3 80 57 60
3 77 57 80
3 61 81 80
3 60 61 80
3 62 58 82
3 82 58 78
3 63 83 61
3 83 81 61
3 64 62 84
3 84 62 82
3 65 85 63
3 85 83 63
3 86 66 64
3 84 86 64
3 67 86 87
3 66 86 67
3 88 69 68
3 89 69 88
3 69 89 85
3 65 69 85
3 90 70 67
3 87 90 67
3 70 90 71
3 71 90 91
3 71 91 72
3 72 91 92
3 72 92 88
3 68 72 88
3 73 74 93
3 74 75 94
3 93 74 94
3 75 76 95
3 94 75 95
3 76 77 95
3 78 79 96
3 97 93 98
3 96 93 97
3 96 73 93
3 96 79 73
3 94 98 93
3 99 98 94
3 95 99 94
3 100 99 95
3 100 101 102
3 95 101 100
3 95 80 101
3 95 77 80
3 80 81 101
3 82 78 96
3 103 82 96
3 96 104 103
3 97 104 96
3 102 105 106
3 101 105 102
3 105 101 81
3 83 105 81
3 84 82 103
3 107 84 103
3 103 108 107
3 104 108 103
3 106 109 110
3 105 109 106
3 109 105 83
3 85 109 83
3 86 84 107
3 107 108 111
3 86 107 111
3 86 111 112
3 86 112 87
3 112 113 114
3 111 113 112
3 114 115 116
3 113 115 114
3 89 110 109
3 88 110 89
3 88 115 110
3 88 116 115
3 89 109 85
3 90 87 112
3 91 90 112
3 114 91 112
3 92 91 114
3 116 92 114
3 92 116 88
3 97 98 117
3 98 99 118
3 117 98 118
3 99 100 119
3 118 99 119
3 100 102 119
3 104 97 117
3 120 104 117
3 120 117 121
3 117 118 121
3 121 118 122
3 118 119 122
3 122 119 102
3 106 122 102
3 108 104 120
3 123 108 120
3 123 120 124
3 120 121 124
3 124 121 125
3 121 122 125
3 125 122 106
3 110 125 106
3 111 108 123
3 113 111 123
3 124 113 123
3 115 113 124
3 125 115 124
3 115 125 110
