ply
format ascii 1.0
comment VCGLIB generated
element vertex 126
property float x
property float y
property float z
element face 248
property list uchar int vertex_indices
end_header
-0.165665939450263977 0.265832096338272095 -0.474957793951034546
-0.146595001220703125 0.166396081447601318 -0.423730522394180298
-0.2269439697265625 0.150405243039131165 -0.508635044097900391
-0.182342529296875 -0.0555959232151508331 -0.358565956354141235
-0.2683563232421875 -0.0567272305488586426 -0.410712093114852905
-0.182605743408203125 -0.262550383806228638 -0.449282974004745483
-0.285125732421875 -0.298937410116195679 -0.382276207208633423
-0.204334259033203125 -0.384637266397476196 -0.392500072717666626
0.015865325927734375 0.226491272449493408 -0.416332095861434937
0.0314356498420238495 0.165968626737594604 -0.379044532775878906
0.0370992012321949005 -0.0677008479833602905 -0.426976203918457031
0.0180918369442224503 -0.306175857782363892 -0.372985988855361938
0.037899017333984375 -0.38700413703918457 -0.422276496887207031
0.21773529052734375 0.208936095237731934 -0.383655071258544922
0.295453399419784546 0.129069045186042786 -0.445498466491699219
0.250102996826171875 -0.0646085664629936218 -0.36150774359703064
0.248363494873046875 -0.281011879444122314 -0.338733196258544922
0.271952301263809204 -0.396079868078231812 -0.367683082818984985
0.368043273687362671 0.140460267663002014 -0.447062015533447266
0.311093658208847046 -0.0469573847949504852 -0.421360969543457031
0.358470916748046875 -0.294267654418945312 -0.386946350336074829
-0.368194580078125 0.255852997303009033 -0.257886558771133423
-0.411572784185409546 0.170302018523216248 -0.363298267126083374
-0.440029144287109375 0.130394622683525085 -0.292512416839599609
-0.40056610107421875 -0.0665593519806861877 -0.369669586420059204
-0.341387420892715454 -0.0655870735645294189 -0.26435360312461853
-0.3606719970703125 -0.248548045754432678 -0.243187114596366882
-0.410334259271621704 -0.287441492080688477 -0.219011470675468445
-0.455526977777481079 -0.362778812646865845 -0.218107700347900391
-0.186777755618095398 0.292814463376998901 -0.301366180181503296
-0.179339095950126648 0.395407408475875854 -0.417955726385116577
-0.301738739013671875 0.364912956953048706 -0.339074134826660156
-0.314565032720565796 -0.50904160737991333 -0.195692852139472961
-0.161210373044013977 -0.501462399959564209 -0.289218425750732422
-0.2187652587890625 -0.487850338220596313 -0.175498649477958679
0.0428479500114917755 0.281688094139099121 -0.304048389196395874
0.067957557737827301 0.361409187316894531 -0.431417942047119141
0.0129648847505450249 -0.480726391077041626 -0.246018722653388977
0.00067138671875 -0.53272855281829834 -0.113543510437011719
0.284423828125 0.357499569654464722 -0.309605926275253296
0.230332687497138977 0.38911709189414978 -0.360057204961776733
0.239040374755859375 -0.496141791343688965 -0.208079174160957336
0.221096038818359375 -0.474588960409164429 -0.100338302552700043
0.34035491943359375 0.421251684427261353 -0.269249290227890015
0.437224060297012329 0.29822048544883728 -0.213460445404052734
0.413377135992050171 0.146280929446220398 -0.273092746734619141
0.286614745855331421 -0.0119426287710666656 -0.216276958584785461
0.375420898199081421 -0.220002517104148865 -0.23808114230632782
0.429773956537246704 -0.315474480390548706 -0.124173484742641449
0.326770782470703125 -0.439165800809860229 -0.0633858069777488708
0.37705230712890625 0.21534574031829834 -0.182333469390869141
0.413767486810684204 -0.0199860874563455582 -0.14117257297039032
0.356344848871231079 -0.244243457913398743 -0.127984687685966492
-0.46012115478515625 0.28660130500793457 -0.0862855911254882812
-0.406307220458984375 0.172502577304840088 -0.121911682188510895
-0.301686614751815796 -0.0483681447803974152 -0.0552217178046703339
-0.420917510986328125 -0.255472689867019653 0.0178891811519861221
-0.427130371332168579 -0.345509320497512817 0.0383927039802074432
-0.235612228512763977 0.367219716310501099 -0.0896175727248191833
-0.296605437994003296 0.408178180456161499 -0.0844108238816261292
-0.306763976812362671 -0.471579074859619141 0.014250914566218853
-0.240079239010810852 -0.418442845344543457 0.0694867745041847229
-0.010265350341796875 0.425156384706497192 -0.110971450805664062
-0.0259882602840662003 -0.384522676467895508 0.0553458519279956818
0.2164154052734375 0.411552757024765015 -0.0638221129775047302
0.183649703860282898 -0.37703096866607666 0.11876901239156723
0.34214019775390625 0.420599251985549927 -0.0526415519416332245
0.465709686279296875 0.314150780439376831 -0.0188228283077478409
0.423505157232284546 -0.266117572784423828 0.119311012327671051
0.336912781000137329 -0.396578818559646606 0.139824077486991882
0.457515716552734375 0.242443397641181946 0.0133260088041424751
0.454877227544784546 0.000139708281494677067 0.0655056610703468323
0.368616729974746704 -0.183959722518920898 0.0911478996276855469
-0.486340850591659546 0.311976402997970581 0.0985582694411277771
-0.414003998041152954 0.22428344190120697 0.113512836396694183
-0.372561126947402954 0.0216971021145582199 0.149397850036621094
-0.451717376708984375 -0.164401039481163025 0.20267486572265625
-0.3209381103515625 -0.232191607356071472 0.178431347012519836
-0.274260193109512329 0.367263227701187134 0.132920905947685242
-0.322648376226425171 0.456268876791000366 0.119867801666259766
-0.327067047357559204 -0.431493043899536133 0.27476772665977478
-0.237723037600517273 -0.502311050891876221 0.302598953247070312
-0.0306154880672693253 0.391473919153213501 0.130080059170722961
-0.0487543754279613495 -0.392900943756103516 0.333259254693984985
0.194179534912109375 0.399392694234848022 0.146746158599853516
0.155033111572265625 -0.329640656709671021 0.307569354772567749
0.303424835205078125 0.433281272649765015 0.152258872985839844
0.430837005376815796 0.375136286020278931 0.20593579113483429
0.44316864013671875 -0.240140214562416077 0.352189689874649048
0.274651855230331421 -0.315969020128250122 0.302696377038955688
0.461232513189315796 0.235496759414672852 0.212357997894287109
0.453072875738143921 0.0470488555729389191 0.294890880584716797
0.388659149408340454 -0.164652302861213684 0.293728828430175781
-0.457079559564590454 0.213757380843162537 0.20989990234375
-0.335608154535293579 0.0364765115082263947 0.227667331695556641
-0.413941711187362671 -0.185885414481163025 0.285747379064559937
-0.244049072265625 0.470739603042602539 0.183386802673339844
-0.267913818359375 0.37645229697227478 0.378493934869766235
-0.374224334955215454 0.298236936330795288 0.341818809509277344
-0.348103851079940796 0.0578427314758300781 0.399116188287734985
-0.336938232183456421 -0.204610764980316162 0.410720676183700562
-0.329237610101699829 -0.498409271240234375 0.451503276824951172
-0.289315551519393921 -0.299528777599334717 0.516594409942626953
-0.0147692365571856499 0.46623682975769043 0.243368789553642273
-0.0303942356258630753 0.37998548150062561 0.416097164154052734
-0.0465113334357738495 -0.469125181436538696 0.439497143030166626
-0.0484364815056324005 -0.310174167156219482 0.477894306182861328
0.151554107666015625 0.395574182271957397 0.212882041931152344
0.1622314453125 0.264739483594894409 0.342885345220565796
0.16114044189453125 -0.363471239805221558 0.440602302551269531
0.157784774899482727 -0.240763351321220398 0.509366273880004883
0.2555694580078125 0.303476423025131226 0.42190900444984436
0.399907439947128296 0.288592517375946045 0.316189438104629517
0.255237579345703125 0.0536499284207820892 0.411054939031600952
0.396162658929824829 0.0803562700748443604 0.342786639928817749
0.23052215576171875 -0.105899475514888763 0.410798072814941406
0.409342437982559204 -0.135055214166641235 0.413398891687393188
-0.261178344488143921 0.303157538175582886 0.429553508758544922
-0.2777252197265625 0.0375856421887874603 0.43477281928062439
-0.23043060302734375 -0.162088736891746521 0.492573261260986328
-0.042812347412109375 0.289849013090133667 0.381508827209472656
-0.04364013671875 0.0584574155509471893 0.357039302587509155
-0.077592216432094574 -0.208805367350578308 0.361793190240859985
0.19434356689453125 0.287814587354660034 0.306179672479629517
0.1558380126953125 0.0874899402260780334 0.384727627038955688
0.150278732180595398 -0.157122552394866943 0.411165863275527954
3 0 1 2
3 1 3 4
3 2 1 4
3 3 5 6
3 4 3 6
3 5 7 6
3 0 8 9
3 1 0 9
3 9 10 1
3 1 10 3
3 10 11 3
3 3 11 5
3 5 11 12
3 7 5 12
3 8 13 14
3 9 8 14
3 14 15 9
3 9 15 10
3 15 16 10
3 10 16 11
3 11 16 17
3 12 11 17
3 14 13 18
3 15 14 18
3 19 15 18
3 16 15 19
3 20 16 19
3 16 20 17
3 21 22 23
3 22 24 25
3 23 22 25
3 24 26 27
3 25 24 27
3 26 28 27
3 29 30 31
3 2 22 21
3 0 2 21
3 0 21 31
3 0 31 30
3 4 22 2
3 24 22 4
3 6 24 4
3 26 24 6
3 26 32 28
3 6 32 26
3 6 33 32
3 6 7 33
3 33 34 32
3 29 35 36
3 30 29 36
3 36 0 30
3 8 0 36
3 12 33 7
3 37 33 12
3 33 37 38
3 34 33 38
3 35 39 40
3 36 35 40
3 40 8 36
3 13 8 40
3 17 37 12
3 41 37 17
3 37 41 42
3 38 37 42
3 40 39 43
3 43 44 45
3 40 43 45
3 40 45 18
3 40 18 13
3 18 46 19
3 45 46 18
3 19 47 20
3 46 47 19
3 48 49 41
3 47 48 41
3 47 41 17
3 47 17 20
3 41 49 42
3 45 44 50
3 46 45 50
3 51 46 50
3 47 46 51
3 52 47 51
3 47 52 48
3 53 21 23
3 54 53 23
3 23 25 54
3 25 55 54
3 25 27 55
3 27 56 55
3 28 57 56
3 27 28 56
3 58 29 31
3 59 58 31
3 31 53 59
3 21 53 31
3 60 28 32
3 57 28 60
3 34 61 60
3 32 34 60
3 35 29 62
3 62 29 58
3 38 63 34
3 63 61 34
3 39 35 64
3 64 35 62
3 42 65 38
3 65 63 38
3 66 43 39
3 64 66 39
3 44 66 67
3 43 66 44
3 68 49 48
3 69 49 68
3 49 69 65
3 42 49 65
3 70 50 44
3 67 70 44
3 50 70 51
3 51 70 71
3 51 71 52
3 52 71 72
3 52 72 68
3 48 52 68
3 73 53 54
3 74 73 54
3 54 55 74
3 55 75 74
3 55 56 75
3 56 76 75
3 57 77 76
3 56 57 76
3 78 58 59
3 79 78 59
3 59 73 79
3 53 73 59
3 80 57 60
3 77 57 80
3 61 81 80
3 60 61 80
3 62 58 82
3 82 58 78
3 63 83 61
3 83 81 61
3 64 62 84
3 84 62 82
3 65 85 63
3 85 83 63
3 86 66 64
3 84 86 64
3 67 86 87
3 66 86 67
3 88 69 68
3 89 69 88
3 69 89 85
3 65 69 85
3 90 70 67
3 87 90 67
3 70 90 71
3 71 90 91
3 71 91 72
3 72 91 92
3 72 92 88
3 68 72 88
3 73 74 93
3 74 75 94
3 93 74 94
3 75 76 95
3 94 75 95
3 76 77 95
3 78 79 96
3 97 93 98
3 96 93 97
3 96 73 93
3 96 79 73
3 94 98 93
3 99 98 94
3 95 99 94
3 100 99 95
3 100 101 102
3 95 101 100
3 95 80 101
3 95 77 80
3 80 81 101
3 82 78 96
3 103 82 96
3 96 104 103
3 97 104 96
3 102 105 106
3 101 105 102
3 105 101 81
3 83 105 81
3 84 82 103
3 107 84 103
3 103 108 107
3 104 108 103
3 106 109 110
3 105 109 106
3 109 105 83
3 85 109 83
3 86 84 107
3 107 108 111
3 86 107 111
3 86 111 112
3 86 112 87
3 112 113 114
3 111 113 112
3 114 115 116
3 113 115 114
3 89 110 109
3 88 110 89
3 88 115 110
3 88 116 115
3 89 109 85
3 90 87 112
3 91 90 112
3 114 91 112
3 92 91 114
3 116 92 114
3 92 116 88
3 97 98 117
3 98 99 118
3 117 98 118
3 99 100 119
3 118 99 119
3 100 102 119
3 104 97 117
3 120 104 117
3 120 117 121
3 117 118 121
3 121 118 122
3 118 119 122
3 122 119 102
3 106 122 102
3 108 104 120
3 123 108 120
3 123 120 124
3 120 121 124
3 124 121 125
3 121 122 125
3 125 122 106
3 110 125 106
3 111 108 123
3 113 111 123
3 124 113 123
3 115 113 124
3 125 115 124
3 115 125 110
