ply
format ascii 1.0
comment VCGLIB generated
element vertex 126
property float x
property float y
property float z
element face 248
property list uchar int vertex_indices
end_header
-0.295030415058135986 0.405873149633407593 -0.411662191152572632
-0.22743050754070282 0.337150782346725464 -0.347052276134490967
-0.256075412034988403 0.305888116359710693 -0.245202451944351196
-0.305234730243682861 0.0737151950597763062 -0.401453524827957153
-0.255529224872589111 0.0208441819995641708 -0.271589100360870361
-0.267571538686752319 -0.149750083684921265 -0.260340303182601929
-0.314847767353057861 -0.251397818326950073 -0.349152088165283203
-0.241586506366729736 -0.243217453360557556 -0.17927299439907074
-0.0395636111497879028 0.501318752765655518 -0.521634459495544434
-0.0298222620040178299 0.346814453601837158 -0.548491239547729492
-0.025882720947265625 0.0585112385451793671 -0.507065832614898682
-0.0315839573740959167 -0.210608139634132385 -0.412952244281768799
-0.031110590323805809 -0.337622940540313721 -0.341077268123626709
0.224699541926383972 0.475505143404006958 -0.402403295040130615
0.176558062434196472 0.366687238216400146 -0.336590021848678589
0.162464484572410583 0.0759096890687942505 -0.308389455080032349
0.199212163686752319 -0.20947970449924469 -0.270333290100097656
0.260698139667510986 -0.308045119047164917 -0.349908739328384399
0.323467254638671875 0.339946746826171875 -0.357266992330551147
0.307587713003158569 0.0810859724879264832 -0.332396239042282104
0.330536574125289917 -0.178508520126342773 -0.257067888975143433
-0.544969379901885986 0.416653066873550415 -0.0819635391235351562
-0.460302174091339111 0.298133313655853271 -0.175300717353820801
-0.555277705192565918 0.271302789449691772 -0.0739515870809555054
-0.474905520677566528 0.0171685796231031418 -0.163483187556266785
-0.419526517391204834 0.0130119957029819489 -0.0318119749426841736
-0.474371463060379028 -0.269072055816650391 -0.188524723052978516
-0.453713148832321167 -0.275765448808670044 -0.0523695051670074463
-0.51043248176574707 -0.395735472440719604 -0.0705361366271972656
-0.22487466037273407 0.465565651655197144 -0.109739087522029877
-0.254003345966339111 0.444402903318405151 -0.23581048846244812
-0.347151309251785278 0.435719966888427734 -0.0703371614217758179
-0.372808635234832764 -0.58219832181930542 -0.0778900459408760071
-0.286001712083816528 -0.450229167938232422 -0.0914682000875473022
-0.234498098492622375 -0.571632921695709229 -0.0552279278635978699
-0.0268415957689285278 0.703735053539276123 -0.182965666055679321
-0.00982978101819753647 0.622978925704956055 -0.322770625352859497
-0.00428286474198102951 -0.497951000928878784 -0.17698417603969574
0.00187787134200334549 -0.403196930885314941 -0.0798279568552970886
0.244060859084129333 0.586820483207702637 -0.20589524507522583
0.267670363187789917 0.684075474739074707 -0.345435142517089844
0.278857827186584473 -0.45046570897102356 -0.16889636218547821
0.271119207143783569 -0.35484546422958374 -0.0668933168053627014
0.324930697679519653 0.698149800300598145 -0.162503495812416077
0.385358989238739014 0.475410431623458862 -0.129649847745895386
0.261715978384017944 0.352992385625839233 -0.126052334904670715
0.439087241888046265 0.129449933767318726 -0.11157989501953125
0.507670283317565918 -0.133997440338134766 -0.138712137937545776
0.519046783447265625 -0.233021020889282227 -0.0125562055036425591
0.393605649471282959 -0.411871612071990967 -0.0487661361694335938
0.316193312406539917 0.433186739683151245 -0.0321271196007728577
0.333489507436752319 0.134139746427536011 -0.0405823104083538055
0.413097023963928223 -0.137481436133384705 -0.0357742719352245331
-0.550630748271942139 0.444918930530548096 0.201484933495521545
-0.588517606258392334 0.296777129173278809 0.201930999755859375
-0.571160733699798584 0.0129855629056692123 0.206941470503807068
-0.541820526123046875 -0.265775591135025024 0.219089329242706299
-0.540526986122131348 -0.406279087066650391 0.218718260526657104
-0.276369601488113403 0.613841354846954346 0.159680187702178955
-0.436290383338928223 0.632894337177276611 0.182310223579406738
-0.389310657978057861 -0.57245403528213501 0.223201185464859009
-0.27862200140953064 -0.497291296720504761 0.21267370879650116
0.0438135303556919098 0.686317205429077148 0.139635905623435974
-0.0396208316087722778 -0.344626367092132568 0.197468012571334839
0.240759417414665222 0.516493797302246094 0.0587185919284820557
0.24158303439617157 -0.380773276090621948 0.226395338773727417
0.280073344707489014 0.654768288135528564 0.121123790740966797
0.476701885461807251 0.527347803115844727 0.150537058711051941
0.504708707332611084 -0.227516666054725647 0.256731718778610229
0.362640708684921265 -0.406402349472045898 0.224785581231117249
0.524846851825714111 0.399513483047485352 0.161594480276107788
0.36190032958984375 0.148409709334373474 0.243626713752746582
0.377911657094955444 -0.153471663594245911 0.245692074298858643
-0.558818459510803223 0.418649882078170776 0.483620584011077881
-0.608834326267242432 0.296371728181838989 0.487734168767929077
-0.535661518573760986 0.0202047601342201233 0.487732023000717163
-0.621644794940948486 -0.254208981990814209 0.494935274124145508
-0.533941447734832764 -0.361906647682189941 0.509048163890838623
-0.251365989446640015 0.586937904357910156 0.45121300220489502
-0.391819685697555542 0.586962878704071045 0.460067003965377808
-0.391982674598693848 -0.537913680076599121 0.514365077018737793
-0.269638389348983765 -0.480247467756271362 0.49473002552986145
0.00771262403577566147 0.496111124753952026 0.402151674032211304
0.00511516211554408073 -0.419015586376190186 0.485663414001464844
0.226313844323158264 0.369034230709075928 0.295551896095275879
0.222873687744140625 -0.237145736813545227 0.468218952417373657
0.194637984037399292 0.497028857469558716 0.36757621169090271
0.402301430702209473 0.426325798034667969 0.409353852272033691
0.518190205097198486 -0.308706313371658325 0.525360286235809326
0.338302940130233765 -0.215072140097618103 0.428557604551315308
0.537222087383270264 0.404912054538726807 0.443605720996856689
0.505719602108001709 0.118635453283786774 0.500462710857391357
0.516057431697845459 -0.178016617894172668 0.486564189195632935
-0.570777535438537598 0.294125467538833618 0.622489452362060547
-0.530480444431304932 0.0160061344504356384 0.630451321601867676
-0.585384368896484375 -0.254905492067337036 0.636977672576904297
-0.256732583045959473 0.535429298877716064 0.582002043724060059
-0.282698541879653931 0.422900021076202393 0.789525926113128662
-0.420331090688705444 0.31025540828704834 0.806466877460479736
-0.446444422006607056 0.0198108740150928497 0.853891491889953613
-0.456192702054977417 -0.264229416847229004 0.850609004497528076
-0.269369632005691528 -0.486594647169113159 0.640982508659362793
-0.317157387733459473 -0.292883634567260742 0.796453297138214111
-0.0692540928721427917 0.344060003757476807 0.493723690509796143
-0.030151713639497757 0.310998797416687012 0.739078700542449951
0.00315926293842494488 -0.404362201690673828 0.635354518890380859
-0.0493309721350669861 -0.214336127042770386 0.75037848949432373
0.191125005483627319 0.342804461717605591 0.425247699022293091
0.232913270592689514 0.328537404537200928 0.669981777667999268
0.271011680364608765 -0.294704526662826538 0.577477991580963135
0.224389150738716125 -0.16156807541847229 0.75980079174041748
0.358517378568649292 0.391989529132843018 0.728250861167907715
0.482474237680435181 0.388643801212310791 0.551119506359100342
0.372350871562957764 0.0956811532378196716 0.775116801261901855
0.521687567234039307 0.0968761667609214783 0.622049033641815186
0.38176274299621582 -0.187793448567390442 0.822471499443054199
0.46573638916015625 -0.180936306715011597 0.617553293704986572
-0.303297907114028931 0.329089105129241943 0.899684488773345947
-0.34099578857421875 0.0336180925369262695 0.963547945022583008
-0.347361117601394653 -0.264547377824783325 0.933426260948181152
-0.011766606941819191 0.34099772572517395 0.902144670486450195
-0.0303736589848995209 0.0523985922336578369 0.953204512596130371
-0.0499482564628124237 -0.234552890062332153 0.896795868873596191
0.251591414213180542 0.378890544176101685 0.817643046379089355
0.255395710468292236 0.0801936313509941101 0.86726003885269165
0.244612261652946472 -0.218905910849571228 0.879882454872131348
3 0 1 2
3 1 3 4
3 2 1 4
3 3 5 6
3 4 3 6
3 5 7 6
3 0 8 9
3 1 0 9
3 9 10 1
3 1 10 3
3 10 11 3
3 3 11 5
3 5 11 12
3 7 5 12
3 8 13 14
3 9 8 14
3 14 15 9
3 9 15 10
3 15 16 10
3 10 16 11
3 11 16 17
3 12 11 17
3 14 13 18
3 15 14 18
3 19 15 18
3 16 15 19
3 20 16 19
3 16 20 17
3 21 22 23
3 22 24 25
3 23 22 25
3 24 26 27
3 25 24 27
3 26 28 27
3 29 30 31
3 2 22 21
3 0 2 21
3 0 21 31
3 0 31 30
3 4 22 2
3 24 22 4
3 6 24 4
3 26 24 6
3 26 32 28
3 6 32 26
3 6 33 32
3 6 7 33
3 33 34 32
3 29 35 36
3 30 29 36
3 36 0 30
3 8 0 36
3 12 33 7
3 37 33 12
3 33 37 38
3 34 33 38
3 35 39 40
3 36 35 40
3 40 8 36
3 13 8 40
3 17 37 12
3 41 37 17
3 37 41 42
3 38 37 42
3 40 39 43
3 43 44 45
3 40 43 45
3 40 45 18
3 40 18 13
3 18 46 19
3 45 46 18
3 19 47 20
3 46 47 19
3 48 49 41
3 47 48 41
3 47 41 17
3 47 17 20
3 41 49 42
3 45 44 50
3 46 45 50
3 51 46 50
3 47 46 51
3 52 47 51
3 47 52 48
3 53 21 23
3 54 53 23
3 23 25 54
3 25 55 54
3 25 27 55
3 27 56 55
3 28 57 56
3 27 28 56
3 58 29 31
3 59 58 31
3 31 53 59
3 21 53 31
3 60 28 32
3 57 28 60
3 34 61 60
3 32 34 60
3 35 29 62
3 62 29 58
3 38 63 34
3 63 61 34
3 39 35 64
3 64 35 62
3 42 65 38
3 65 63 38
3 66 43 39
3 64 66 39
3 44 66 67
3 43 66 44
3 68 49 48
3 69 49 68
3 49 69 65
3 42 49 65
3 70 50 44
3 67 70 44
3 50 70 51
3 51 70 71
3 51 71 52
3 52 71 72
3 52 72 68
3 48 52 68
3 73 53 54
3 74 73 54
3 54 55 74
3 55 75 74
3 55 56 75
3 56 76 75
3 57 77 76
3 56 57 76
3 78 58 59
3 79 78 59
3 59 73 79
3 53 73 59
3 80 57 60
3 77 57 80
3 61 81 80
3 60 61 80
3 62 58 82
3 82 58 78
3 63 83 61
3 83 81 61
3 64 62 84
3 84 62 82
3 65 85 63
3 85 83 63
3 86 66 64
3 84 86 64
3 67 86 87
3 66 86 67
3 88 69 68
3 89 69 88
3 69 89 85
3 65 69 85
3 90 70 67
3 87 90 67
3 70 90 71
3 71 90 91
3 71 91 72
3 72 91 92
3 72 92 88
3 68 72 88
3 73 74 93
3 74 75 94
3 93 74 94
3 75 76 95
3 94 75 95
3 76 77 95
3 78 79 96
3 97 93 98
3 96 93 97
3 96 73 93
3 96 79 73
3 94 98 93
3 99 98 94
3 95 99 94
3 100 99 95
3 100 101 102
3 95 101 100
3 95 80 101
3 95 77 80
3 80 81 101
3 82 78 96
3 103 82 96
3 96 104 103
3 97 104 96
3 102 105 106
3 101 105 102
3 105 101 81
3 83 105 81
3 84 82 103
3 107 84 103
3 103 108 107
3 104 108 103
3 106 109 110
3 105 109 106
3 109 105 83
3 85 109 83
3 86 84 107
3 107 108 111
3 86 107 111
3 86 111 112
3 86 112 87
3 112 113 114
3 111 113 112
3 114 115 116
3 113 115 114
3 89 110 109
3 88 110 89
3 88 115 110
3 88 116 115
3 89 109 85
3 90 87 112
3 91 90 112
3 114 91 112
3 92 91 114
3 116 92 114
3 92 116 88
3 97 98 117
3 98 99 118
3 117 98 118
3 99 100 119
3 118 99 119
3 100 102 119
3 104 97 117
3 120 104 117
3 120 117 121
3 117 118 121
3 121 118 122
3 118 119 122
3 122 119 102
3 106 122 102
3 108 104 120
3 123 108 120
3 123 120 124
3 120 121 124
3 124 121 125
3 121 122 125
3 125 122 106
3 110 125 106
3 111 108 123
3 113 111 123
3 124 113 123
3 115 113 124
3 125 115 124
3 115 125 110
