ply
format ascii 1.0
comment VCGLIB generated
element vertex 126
property float x
property float y
property float z
element face 248
property list uchar int vertex_indices
end_header
-0.14431317150592804 0.070427723228931427 -0.548131644725799561
-0.13717968761920929 0.0444149225950241089 -0.441806107759475708
-0.129756927490234375 -0.0532296262681484222 -0.489274054765701294
-0.149952560663223267 -0.172292843461036682 -0.365641117095947266
-0.0474627800285816193 -0.156622037291526794 -0.312418520450592041
-0.173548057675361633 -0.335096478462219238 -0.213506609201431274
-0.0683959275484085083 -0.364304214715957642 -0.223067194223403931
-0.136078193783760071 -0.310920089483261108 -0.115818969905376434
0.0448751449584960938 0.10724252462387085 -0.440416723489761353
0.0812435150146484375 0.00667147990316152573 -0.45650598406791687
0.0607887879014015198 -0.136858448386192322 -0.285541415214538574
0.050776798278093338 -0.344177126884460449 -0.19520142674446106
0.045719146728515625 -0.43953058123588562 -0.145357251167297363
0.234171539545059204 0.153412148356437683 -0.337005853652954102
0.241694435477256775 0.0457211919128894806 -0.30287662148475647
0.281941086053848267 -0.17059403657913208 -0.282741189002990723
0.263921409845352173 -0.341758519411087036 -0.14138360321521759
0.251059532165527344 -0.410977095365524292 -0.059280790388584137
0.342033684253692627 0.0721331760287284851 -0.31601327657699585
0.265450477600097656 -0.100800193846225739 -0.195842579007148743
0.285809814929962158 -0.275421231985092163 -0.0546542778611183167
-0.21774609386920929 0.0212663654237985611 -0.244732096791267395
-0.224903419613838196 0.0616058111190795898 -0.370060384273529053
-0.298999130725860596 0.0804616138339042664 -0.285804867744445801
-0.227513298392295837 -0.145670846104621887 -0.314732372760772705
-0.242527320981025696 -0.123224750161170959 -0.20621199905872345
-0.166387557983398438 -0.238419458270072937 -0.119634263217449188
-0.076872505247592926 -0.260829389095306396 -0.135159879922866821
-0.0781027451157569885 -0.363695710897445679 -0.0889265537261962891
-0.183024406433105469 0.0785886496305465698 -0.258833944797515869
-0.170203834772109985 0.0720544531941413879 -0.370252519845962524
-0.109817184507846832 0.15955054759979248 -0.283948779106140137
-0.102152816951274872 -0.386467665433883667 0.0880591049790382385
-0.199853569269180298 -0.437334954738616943 -0.00431219721212983131
-0.213003143668174744 -0.39167475700378418 0.0930466204881668091
-0.0864346772432327271 0.28361433744430542 -0.272246181964874268
-0.0214465446770191193 0.242371946573257446 -0.352309137582778931
-0.0219821929931640625 -0.311215221881866455 -0.0381873026490211487
-0.0036478040274232626 -0.30413508415222168 0.0713564902544021606
0.100425079464912415 0.157754287123680115 -0.249497681856155396
0.150084495544433594 0.244911879301071167 -0.207935556769371033
0.170771270990371704 -0.330730050802230835 0.0790695324540138245
0.211318328976631165 -0.254663407802581787 0.0133814411237835884
0.163342148065567017 0.114544019103050232 -0.170943930745124817
0.320115089416503906 0.175477936863899231 -0.226560428738594055
0.440610229969024658 0.127486437559127808 -0.179140567779541016
0.346105873584747314 -0.0282636117190122604 -0.0486018247902393341
0.452885597944259644 -0.226154610514640808 -0.0183276329189538956
0.351579964160919189 -0.25153622031211853 -0.107618965208530426
0.196828827261924744 -0.338323920965194702 -0.0589378662407398224
0.375628441572189331 0.209075108170509338 -0.138961464166641235
0.445240318775177002 0.014396163634955883 -0.0690956860780715942
0.450514137744903564 -0.204203054308891296 -0.125846058130264282
-0.272804886102676392 0.114057384431362152 -0.0514302626252174377
-0.376392990350723267 0.137594953179359436 -0.0868386030197143555
-0.21794477105140686 -0.0027872500941157341 -0.0196123123168945312
-0.177669525146484375 -0.209093183279037476 0.0742139369249343872
-0.246837928891181946 -0.297687053680419922 0.0498396120965480804
-0.113835327327251434 0.0788969323039054871 -0.045769810676574707
-0.106800392270088196 0.184856921434402466 -0.0569295845925807953
-0.141218498349189758 -0.153528377413749695 0.0738598853349685669
-0.247491195797920227 -0.170915842056274414 0.0657651796936988831
-0.0988896638154983521 0.301573663949966431 -0.0509631596505641937
-0.0862010270357131958 -0.165979519486427307 -0.0900310277938842773
0.0984891206026077271 0.201114386320114136 -0.0289907045662403107
0.126636818051338196 -0.110851660370826721 -0.139603018760681152
0.136788681149482727 0.301980763673782349 -0.0475764237344264984
0.299714386463165283 0.236667975783348083 -0.0129801025614142418
0.297532081604003906 -0.0889948531985282898 0.0362052507698535919
0.133523941040039062 -0.12633049488067627 -0.0298752374947071075
0.195522293448448181 0.204833582043647766 -0.00785291194915771484
0.227548271417617798 0.0199986789375543594 -0.125387102365493774
0.257170975208282471 -0.174554005265235901 -0.0208435449749231339
-0.323953628540039062 0.24259379506111145 0.129648834466934204
-0.420945465564727783 0.192119240760803223 0.129744201898574829
-0.246416717767715454 0.0831599980592727661 0.187705948948860168
-0.332819610834121704 -0.120976895093917847 0.202485516667366028
-0.300159454345703125 -0.208651840686798096 0.253200322389602661
-0.0887886658310890198 0.100965477526187897 0.17724156379699707
-0.159166648983955383 0.179304331541061401 0.162815049290657043
-0.121184982359409332 -0.183739691972732544 0.277840495109558105
-0.054311748594045639 -0.187270566821098328 0.183411628007888794
-0.102353088557720184 0.324885249137878418 0.1679583340883255
0.0543133392930030823 -0.0607858076691627502 0.0415398664772510529
0.108561508357524872 0.251116484403610229 0.186265498399734497
0.0794903412461280823 0.105865903198719025 -0.102915756404399872
0.114278785884380341 0.358624458312988281 0.167586803436279297
0.173927932977676392 0.187919646501541138 0.16689637303352356
0.345729172229766846 0.023183995857834816 -0.151219964027404785
0.172917038202285767 0.0644395574927330017 -0.141923621296882629
0.23709455132484436 0.0978811308741569519 0.184910088777542114
0.0783284455537796021 0.080586947500705719 0.0298968944698572159
0.242115646600723267 0.0282210912555456161 -0.115504257380962372
-0.416671425104141235 0.231862947344779968 0.237835437059402466
-0.257383972406387329 0.0723770633339881897 0.283970415592193604
-0.38222309947013855 -0.105141483247280121 0.30726093053817749
-0.134026199579238892 0.105286359786987305 0.276504933834075928
-0.161163002252578735 0.287423878908157349 0.302952110767364502
-0.293180137872695923 0.35031852126121521 0.315264642238616943
-0.295260727405548096 0.145133763551712036 0.422109544277191162
-0.223805099725723267 -0.0716080740094184875 0.387797921895980835
-0.12272198498249054 -0.131184101104736328 0.137854814529418945
-0.153605133295059204 -0.0284966416656970978 0.282121092081069946
-0.107816055417060852 0.327440887689590454 0.279850542545318604
-0.0131559362635016441 0.318460017442703247 0.13101041316986084
-0.00454266835004091263 0.0309408139437437057 0.0513801947236061096
-0.00260988855734467506 0.121354654431343079 0.209595754742622375
0.028309820219874382 0.266940325498580933 0.110708072781562805
0.135240554809570312 0.178315490484237671 0.227031901478767395
0.15610058605670929 0.15322837233543396 -0.0335903950035572052
0.204507499933242798 0.0870793834328651428 0.12869437038898468
0.173832565546035767 0.0490607656538486481 0.186354711651802063
0.300601303577423096 0.159507066011428833 0.121167697012424469
0.105997718870639801 0.0107216285541653633 -0.0256784744560718536
0.104118980467319489 0.184880942106246948 0.0191199779510498047
0.282195389270782471 -0.0240334626287221909 0.110245935618877411
0.296181023120880127 0.0806455016136169434 -0.0344194956123828888
-0.24167536199092865 0.305355876684188843 0.231485351920127869
-0.271859169006347656 0.100944630801677704 0.313578248023986816
-0.116977684199810028 -0.0342264212667942047 0.387752234935760498
-0.0751050263643264771 0.228506460785865784 0.107065834105014801
-0.110216133296489716 0.0181698035448789597 0.182749226689338684
0.0513474121689796448 0.103498116135597229 0.309976726770401001
0.0722217559814453125 0.0909626707434654236 0.207344874739646912
0.0459178276360034943 -0.0558736510574817657 0.038544733077287674
0.206704124808311462 -0.00696706166490912437 0.188167288899421692
3 0 1 2
3 1 3 4
3 2 1 4
3 3 5 6
3 4 3 6
3 5 7 6
3 0 8 9
3 1 0 9
3 9 10 1
3 1 10 3
3 10 11 3
3 3 11 5
3 5 11 12
3 7 5 12
3 8 13 14
3 9 8 14
3 14 15 9
3 9 15 10
3 15 16 10
3 10 16 11
3 11 16 17
3 12 11 17
3 14 13 18
3 15 14 18
3 19 15 18
3 16 15 19
3 20 16 19
3 16 20 17
3 21 22 23
3 22 24 25
3 23 22 25
3 24 26 27
3 25 24 27
3 26 28 27
3 29 30 31
3 2 22 21
3 0 2 21
3 0 21 31
3 0 31 30
3 4 22 2
3 24 22 4
3 6 24 4
3 26 24 6
3 26 32 28
3 6 32 26
3 6 33 32
3 6 7 33
3 33 34 32
3 29 35 36
3 30 29 36
3 36 0 30
3 8 0 36
3 12 33 7
3 37 33 12
3 33 37 38
3 34 33 38
3 35 39 40
3 36 35 40
3 40 8 36
3 13 8 40
3 17 37 12
3 41 37 17
3 37 41 42
3 38 37 42
3 40 39 43
3 43 44 45
3 40 43 45
3 40 45 18
3 40 18 13
3 18 46 19
3 45 46 18
3 19 47 20
3 46 47 19
3 48 49 41
3 47 48 41
3 47 41 17
3 47 17 20
3 41 49 42
3 45 44 50
3 46 45 50
3 51 46 50
3 47 46 51
3 52 47 51
3 47 52 48
3 53 21 23
3 54 53 23
3 23 25 54
3 25 55 54
3 25 27 55
3 27 56 55
3 28 57 56
3 27 28 56
3 58 29 31
3 59 58 31
3 31 53 59
3 21 53 31
3 60 28 32
3 57 28 60
3 34 61 60
3 32 34 60
3 35 29 62
3 62 29 58
3 38 63 34
3 63 61 34
3 39 35 64
3 64 35 62
3 42 65 38
3 65 63 38
3 66 43 39
3 64 66 39
3 44 66 67
3 43 66 44
3 68 49 48
3 69 49 68
3 49 69 65
3 42 49 65
3 70 50 44
3 67 70 44
3 50 70 51
3 51 70 71
3 51 71 52
3 52 71 72
3 52 72 68
3 48 52 68
3 73 53 54
3 74 73 54
3 54 55 74
3 55 75 74
3 55 56 75
3 56 76 75
3 57 77 76
3 56 57 76
3 78 58 59
3 79 78 59
3 59 73 79
3 53 73 59
3 80 57 60
3 77 57 80
3 61 81 80
3 60 61 80
3 62 58 82
3 82 58 78
3 63 83 61
3 83 81 61
3 64 62 84
3 84 62 82
3 65 85 63
3 85 83 63
3 86 66 64
3 84 86 64
3 67 86 87
3 66 86 67
3 88 69 68
3 89 69 88
3 69 89 85
3 65 69 85
3 90 70 67
3 87 90 67
3 70 90 71
3 71 90 91
3 71 91 72
3 72 91 92
3 72 92 88
3 68 72 88
3 73 74 93
3 74 75 94
3 93 74 94
3 75 76 95
3 94 75 95
3 76 77 95
3 78 79 96
3 97 93 98
3 96 93 97
3 96 73 93
3 96 79 73
3 94 98 93
3 99 98 94
3 95 99 94
3 100 99 95
3 100 101 102
3 95 101 100
3 95 80 101
3 95 77 80
3 80 81 101
3 82 78 96
3 103 82 96
3 96 104 103
3 97 104 96
3 102 105 106
3 101 105 102
3 105 101 81
3 83 105 81
3 84 82 103
3 107 84 103
3 103 108 107
3 104 108 103
3 106 109 110
3 105 109 106
3 109 105 83
3 85 109 83
3 86 84 107
3 107 108 111
3 86 107 111
3 86 111 112
3 86 112 87
3 112 113 114
3 111 113 112
3 114 115 116
3 113 115 114
3 89 110 109
3 88 110 89
3 88 115 110
3 88 116 115
3 89 109 85
3 90 87 112
3 91 90 112
3 114 91 112
3 92 91 114
3 116 92 114
3 92 116 88
3 97 98 117
3 98 99 118
3 117 98 118
3 99 100 119
3 118 99 119
3 100 102 119
3 104 97 117
3 120 104 117
3 120 117 121
3 117 118 121
3 121 118 122
3 118 119 122
3 122 119 102
3 106 122 102
3 108 104 120
3 123 108 120
3 123 120 124
3 120 121 124
3 124 121 125
3 121 122 125
3 125 122 106
3 110 125 106
3 111 108 123
3 113 111 123
3 124 113 123
3 115 113 124
3 125 115 124
3 115 125 110
