ply
format ascii 1.0
comment VCGLIB generated
element vertex 126
property float x
property float y
property float z
element face 248
property list uchar int vertex_indices
end_header
-0.131150871515274048 0.0914810299873352051 -0.547290444374084473
-0.135561615228652954 0.0495962388813495636 -0.441546022891998291
-0.157302215695381165 -0.035656273365020752 -0.506060302257537842
-0.155477523803710938 -0.155173644423484802 -0.347439229488372803
-0.0500885620713233948 -0.171277403831481934 -0.361915826797485352
-0.168816238641738892 -0.349036037921905518 -0.238333329558372498
-0.058447517454624176 -0.356447070837020874 -0.233019977807998657
-0.143119484186172485 -0.318196535110473633 -0.135827451944351196
0.0608062706887722015 0.121432848274707794 -0.44087567925453186
0.0856288224458694458 0.0147755946964025497 -0.444698899984359741
0.0600576363503932953 -0.13632357120513916 -0.280318260192871094
0.046672821044921875 -0.335848629474639893 -0.183524489402770996
0.048170085996389389 -0.436797022819519043 -0.145662218332290649
0.24917919933795929 0.161736488342285156 -0.327648907899856567
0.243051841855049133 0.058452315628528595 -0.286930203437805176
0.28275647759437561 -0.161061570048332214 -0.269065290689468384
0.262862831354141235 -0.338348448276519775 -0.135287642478942871
0.248869255185127258 -0.406834661960601807 -0.0520773716270923615
0.351724624633789062 0.0766134634613990784 -0.301247626543045044
0.274812370538711548 -0.0945837274193763733 -0.181074529886245728
0.285501480102539062 -0.27393043041229248 -0.0486463271081447601
-0.216442734003067017 0.0393631309270858765 -0.244621619582176208
-0.183399513363838196 0.0869376212358474731 -0.37583884596824646
-0.149099022150039673 0.123947136104106903 -0.270994484424591064
-0.211091026663780212 -0.124864473938941956 -0.294311821460723877
-0.159842163324356079 -0.088753916323184967 -0.200384244322776794
-0.207220703363418579 -0.302348166704177856 -0.158007338643074036
-0.104672111570835114 -0.285262495279312134 -0.128169059753417969
-0.126069381833076477 -0.386710017919540405 -0.0831699371337890625
-0.17009735107421875 0.0902290120720863342 -0.259816437959671021
-0.158346489071846008 0.0926780849695205688 -0.368943214416503906
-0.11032421886920929 0.179839015007019043 -0.27647554874420166
-0.102698005735874176 -0.376113176345825195 0.0826746225357055664
-0.204401001334190369 -0.425990849733352661 -0.00805040169507265091
-0.207042679190635681 -0.373481035232543945 0.0948639661073684692
-0.0768105164170265198 0.290771722793579102 -0.271667242050170898
-0.00811894703656435013 0.259403884410858154 -0.350025475025177002
-0.019858676940202713 -0.306582450866699219 -0.041755039244890213
0.00262101483531296253 -0.311997413635253906 0.0686411038041114807
0.104994766414165497 0.159865304827690125 -0.240102201700210571
0.158635765314102173 0.248393654823303223 -0.200475648045539856
0.161805152893066406 -0.330781340599060059 0.0855652466416358948
0.21401563286781311 -0.253341823816299438 0.0265429411083459854
0.170362785458564758 0.116160094738006592 -0.159519106149673462
0.32963910698890686 0.172307103872299194 -0.21391788125038147
0.448168098926544189 0.12670174241065979 -0.160728096961975098
0.348162651062011719 -0.0264008399099111557 -0.0323559828102588654
0.448096573352813721 -0.225836724042892456 0.0084219370037317276
0.355364471673965454 -0.244566962122917175 -0.0901528149843215942
0.205863311886787415 -0.335528522729873657 -0.0457060337066650391
0.383251488208770752 0.207693591713905334 -0.125475317239761353
0.447608619928359985 0.0169206596910953522 -0.0350036211311817169
0.458358108997344971 -0.200079292058944702 -0.0978569164872169495
-0.251318603754043579 0.120106212794780731 -0.0314726419746875763
-0.231625229120254517 0.201746091246604919 -0.0838891640305519104
-0.135149955749511719 0.01215409766882658 -0.00835478305816650391
-0.174085289239883423 -0.200430572032928467 0.0645836144685745239
-0.0887823104858398438 -0.288611233234405518 0.117450155317783356
-0.118082359433174133 0.0953198149800300598 -0.0420202799141407013
-0.0959952622652053833 0.202042341232299805 -0.0501944608986377716
-0.101777710020542145 -0.129756048321723938 0.0737714767456054688
-0.203965499997138977 -0.157050266861915588 0.0899712219834327698
-0.0909948348999023438 0.318540811538696289 -0.0505318231880664825
-0.0692478790879249573 -0.172187685966491699 -0.0894910097122192383
0.0998067781329154968 0.204522296786308289 -0.0204885005950927734
0.142087936401367188 -0.107410833239555359 -0.127992227673530579
0.142974853515625 0.303918749094009399 -0.0401103496551513672
0.304592430591583252 0.238293573260307312 -0.000854333222378045321
0.293962150812149048 -0.0824262797832489014 0.0513776130974292755
0.133312538266181946 -0.124894969165325165 -0.0177649650722742081
0.197676017880439758 0.211732625961303711 -0.00290711713023483753
0.235376343131065369 0.0228457488119602203 -0.113375179469585419
0.259195953607559204 -0.171219602227210999 -0.00438888836652040482
-0.297204643487930298 0.269258558750152588 0.145458772778511047
-0.367430031299591064 0.198196187615394592 0.102607406675815582
-0.194145828485488892 0.100506879389286041 0.19943593442440033
-0.230364784598350525 -0.093529336154460907 0.263425290584564209
-0.248235061764717102 -0.185686051845550537 0.248931035399436951
-0.0858100205659866333 0.102456703782081604 0.179651379585266113
-0.131785064935684204 0.195954427123069763 0.174604058265686035
-0.0931056290864944458 -0.118813090026378632 0.318402230739593506
-0.029412904754281044 -0.172580927610397339 0.223984912037849426
-0.109178222715854645 0.328451544046401978 0.172251060605049133
0.0794839859008789062 -0.0708746984601020813 0.0476745739579200745
0.102306999266147614 0.259344875812530518 0.196045026183128357
0.0779676437377929688 0.105441778898239136 -0.096537664532661438
0.116489723324775696 0.366295844316482544 0.173019170761108398
0.164213180541992188 0.194453433156013489 0.168969824910163879
0.344397217035293579 0.0244802031666040421 -0.138895899057388306
0.169769912958145142 0.0633098706603050232 -0.136875510215759277
0.222668632864952087 0.103667221963405609 0.19290943443775177
0.0711218491196632385 0.0796983018517494202 0.030042329803109169
0.239302307367324829 0.0266389790922403336 -0.108412101864814758
-0.409906685352325439 0.212116971611976624 0.204608231782913208
-0.256776809692382812 0.0666687265038490295 0.283687502145767212
-0.365969330072402954 -0.100879788398742676 0.303894072771072388
-0.123662941157817841 0.108015336096286774 0.285858303308486938
-0.175786018371582031 0.286883771419525146 0.303321868181228638
-0.315853744745254517 0.337617605924606323 0.308592498302459717
-0.295182853937149048 0.146232068538665771 0.431182354688644409
-0.224542602896690369 -0.0643225982785224915 0.401373475790023804
-0.109798111021518707 -0.150525778532028198 0.16492009162902832
-0.168248802423477173 -0.031063055619597435 0.281865596771240234
-0.118548072874546051 0.332193166017532349 0.283988505601882935
-0.025636354461312294 0.322868227958679199 0.133961230516433716
0.00590006494894623756 0.0100544290617108345 0.0572560206055641174
-0.0229962654411792755 0.11960919201374054 0.198542669415473938
0.024094579741358757 0.280334502458572388 0.119215644896030426
0.120194748044013977 0.179059416055679321 0.231978282332420349
0.150461196899414062 0.153238385915756226 -0.0297892075031995773
0.18971918523311615 0.0881366804242134094 0.133637785911560059
0.160004287958145142 0.0526953712105751038 0.189944103360176086
0.290334999561309814 0.15834362804889679 0.125953555107116699
0.096537269651889801 0.00910271797329187393 -0.0216623134911060333
0.0954786911606788635 0.185093671083450317 0.0194076690822839737
0.269301712512969971 -0.0215169340372085571 0.12080787867307663
0.288540512323379517 0.0797919332981109619 -0.0252525005489587784
-0.258639633655548096 0.298255473375320435 0.225768879055976868
-0.284026443958282471 0.0965118184685707092 0.326730608940124512
-0.118978813290596008 -0.0352166220545768738 0.382355034351348877
-0.0837691575288772583 0.229822680354118347 0.103784002363681793
-0.127778053283691406 0.0182959083467721939 0.176998764276504517
0.031072298064827919 0.115297578275203705 0.2982063889503479
0.057992931455373764 0.0905256196856498718 0.210153847932815552
0.0357007980346679688 -0.0582510456442832947 0.0418935194611549377
0.18982250988483429 -0.00494452193379402161 0.194870427250862122
3 0 1 2
3 1 3 4
3 2 1 4
3 3 5 6
3 4 3 6
3 5 7 6
3 0 8 9
3 1 0 9
3 9 10 1
3 1 10 3
3 10 11 3
3 3 11 5
3 5 11 12
3 7 5 12
3 8 13 14
3 9 8 14
3 14 15 9
3 9 15 10
3 15 16 10
3 10 16 11
3 11 16 17
3 12 11 17
3 14 13 18
3 15 14 18
3 19 15 18
3 16 15 19
3 20 16 19
3 16 20 17
3 21 22 23
3 22 24 25
3 23 22 25
3 24 26 27
3 25 24 27
3 26 28 27
3 29 30 31
3 2 22 21
3 0 2 21
3 0 21 31
3 0 31 30
3 4 22 2
3 24 22 4
3 6 24 4
3 26 24 6
3 26 32 28
3 6 32 26
3 6 33 32
3 6 7 33
3 33 34 32
3 29 35 36
3 30 29 36
3 36 0 30
3 8 0 36
3 12 33 7
3 37 33 12
3 33 37 38
3 34 33 38
3 35 39 40
3 36 35 40
3 40 8 36
3 13 8 40
3 17 37 12
3 41 37 17
3 37 41 42
3 38 37 42
3 40 39 43
3 43 44 45
3 40 43 45
3 40 45 18
3 40 18 13
3 18 46 19
3 45 46 18
3 19 47 20
3 46 47 19
3 48 49 41
3 47 48 41
3 47 41 17
3 47 17 20
3 41 49 42
3 45 44 50
3 46 45 50
3 51 46 50
3 47 46 51
3 52 47 51
3 47 52 48
3 53 21 23
3 54 53 23
3 23 25 54
3 25 55 54
3 25 27 55
3 27 56 55
3 28 57 56
3 27 28 56
3 58 29 31
3 59 58 31
3 31 53 59
3 21 53 31
3 60 28 32
3 57 28 60
3 34 61 60
3 32 34 60
3 35 29 62
3 62 29 58
3 38 63 34
3 63 61 34
3 39 35 64
3 64 35 62
3 42 65 38
3 65 63 38
3 66 43 39
3 64 66 39
3 44 66 67
3 43 66 44
3 68 49 48
3 69 49 68
3 49 69 65
3 42 49 65
3 70 50 44
3 67 70 44
3 50 70 51
3 51 70 71
3 51 71 52
3 52 71 72
3 52 72 68
3 48 52 68
3 73 53 54
3 74 73 54
3 54 55 74
3 55 75 74
3 55 56 75
3 56 76 75
3 57 77 76
3 56 57 76
3 78 58 59
3 79 78 59
3 59 73 79
3 53 73 59
3 80 57 60
3 77 57 80
3 61 81 80
3 60 61 80
3 62 58 82
3 82 58 78
3 63 83 61
3 83 81 61
3 64 62 84
3 84 62 82
3 65 85 63
3 85 83 63
3 86 66 64
3 84 86 64
3 67 86 87
3 66 86 67
3 88 69 68
3 89 69 88
3 69 89 85
3 65 69 85
3 90 70 67
3 87 90 67
3 70 90 71
3 71 90 91
3 71 91 72
3 72 91 92
3 72 92 88
3 68 72 88
3 73 74 93
3 74 75 94
3 93 74 94
3 75 76 95
3 94 75 95
3 76 77 95
3 78 79 96
3 97 93 98
3 96 93 97
3 96 73 93
3 96 79 73
3 94 98 93
3 99 98 94
3 95 99 94
3 100 99 95
3 100 101 102
3 95 101 100
3 95 80 101
3 95 77 80
3 80 81 101
3 82 78 96
3 103 82 96
3 96 104 103
3 97 104 96
3 102 105 106
3 101 105 102
3 105 101 81
3 83 105 81
3 84 82 103
3 107 84 103
3 103 108 107
3 104 108 103
3 106 109 110
3 105 109 106
3 109 105 83
3 85 109 83
3 86 84 107
3 107 108 111
3 86 107 111
3 86 111 112
3 86 112 87
3 112 113 114
3 111 113 112
3 114 115 116
3 113 115 114
3 89 110 109
3 88 110 89
3 88 115 110
3 88 116 115
3 89 109 85
3 90 87 112
3 91 90 112
3 114 91 112
3 92 91 114
3 116 92 114
3 92 116 88
3 97 98 117
3 98 99 118
3 117 98 118
3 99 100 119
3 118 99 119
3 100 102 119
3 104 97 117
3 120 104 117
3 120 117 121
3 117 118 121
3 121 118 122
3 118 119 122
3 122 119 102
3 106 122 102
3 108 104 120
3 123 108 120
3 123 120 124
3 120 121 124
3 124 121 125
3 121 122 125
3 125 122 106
3 110 125 106
3 111 108 123
3 113 111 123
3 124 113 123
3 115 113 124
3 125 115 124
3 115 125 110
