ply
format ascii 1.0
comment VCGLIB generated
element vertex 126
property float x
property float y
property float z
element face 248
property list uchar int vertex_indices
end_header
-0.128804981708526611 0.217447161674499512 -0.529503822326660156
-0.13934914767742157 0.119470596313476562 -0.501977503299713135
-0.248074963688850403 0.150779649615287781 -0.477948188781738281
-0.185333594679832458 -0.0884482413530349731 -0.391378819942474365
-0.304230779409408569 -0.090221993625164032 -0.442749142646789551
-0.177785694599151611 -0.299124330282211304 -0.468876570463180542
-0.301402688026428223 -0.338006794452667236 -0.433393388986587524
-0.194360554218292236 -0.319027960300445557 -0.337970256805419922
0.0245597139000892639 0.258329540491104126 -0.360822677612304688
0.043796192854642868 0.14252375066280365 -0.333642095327377319
0.0500124134123325348 -0.0927855968475341797 -0.315731227397918701
0.0564488470554351807 -0.321602374315261841 -0.41667938232421875
0.036296844482421875 -0.415632963180541992 -0.336992949247360229
0.267848968505859375 0.256107717752456665 -0.391885131597518921
0.291588515043258667 0.16613459587097168 -0.32141035795211792
0.2886199951171875 -0.0870682448148727417 -0.306682586669921875
0.277689158916473389 -0.332251608371734619 -0.38184511661529541
0.28716692328453064 -0.442318588495254517 -0.322916269302368164
0.377015203237533569 0.165190324187278748 -0.40708845853805542
0.344789683818817139 -0.080005258321762085 -0.396308034658432007
0.316555708646774292 -0.288319677114486694 -0.266405671834945679
-0.321181893348693848 0.317795127630233765 -0.241565048694610596
-0.35701751708984375 0.196833252906799316 -0.328985333442687988
-0.27438768744468689 0.204094603657722473 -0.244752272963523865
-0.418867617845535278 -0.0447442196309566498 -0.309747546911239624
-0.384309947490692139 -0.0331371277570724487 -0.211447358131408691
-0.37218785285949707 -0.274659872055053711 -0.274115890264511108
-0.390212297439575195 -0.274529159069061279 -0.173145860433578491
-0.413251340389251709 -0.389576196670532227 -0.167434215545654297
-0.135641962289810181 0.252085775136947632 -0.231222674250602722
-0.158953234553337097 0.257233232259750366 -0.337930142879486084
-0.206545040011405945 0.166847586631774902 -0.222865015268325806
-0.302793323993682861 -0.524037003517150879 -0.131899014115333557
-0.214144960045814514 -0.406403899192810059 -0.158042475581169128
-0.171186268329620361 -0.499807626008987427 -0.107824802398681641
-0.00772822974249720573 0.474955976009368896 -0.209704965353012085
0.0250174775719642639 0.435872882604598999 -0.347750395536422729
0.0188896860927343369 -0.488472998142242432 -0.157192185521125793
0.0481241382658481598 -0.416192442178726196 -0.0712000206112861633
0.194823518395423889 0.394909262657165527 -0.202905908226966858
0.267124176025390625 0.430544793605804443 -0.289737522602081299
0.256429135799407959 -0.501857638359069824 -0.155063539743423462
0.284912794828414917 -0.465017646551132202 -0.0579820983111858368
0.282072573900222778 0.362359672784805298 -0.176145374774932861
0.377759069204330444 0.220756694674491882 -0.18138711154460907
0.474537938833236694 0.145154222846031189 -0.237674713134765625
0.390416920185089111 -0.0807727724313735962 -0.227195993065834045
0.51230168342590332 -0.279704391956329346 -0.207088202238082886
0.503486275672912598 -0.370239019393920898 -0.0809179618954658508
0.307700425386428833 -0.352484673261642456 -0.112744458019733429
0.452234089374542236 0.170339867472648621 -0.109258130192756653
0.36501622200012207 -0.0491845495998859406 -0.13057534396648407
0.438778609037399292 -0.274645775556564331 -0.110129870474338531
-0.453961104154586792 0.237872019410133362 -0.0447908304631710052
-0.340439170598983765 0.247015565633773804 -0.0116445794701576233
-0.335239052772521973 -0.00549362553283572197 0.0299375709146261215
-0.347068071365356445 -0.248983412981033325 0.0657710134983062744
-0.424922585487365723 -0.341931253671646118 0.0782320722937583923
-0.138248100876808167 0.241619229316711426 0.0209292490035295486
-0.267259418964385986 0.229701444506645203 0.00422586081549525261
-0.292089641094207764 -0.487669646739959717 0.093825511634349823
-0.207744941115379333 -0.388050556182861328 0.106037959456443787
0.00668785767629742622 0.457514792680740356 0.0146512547507882118
0.0205889604985713959 -0.41869056224822998 0.161683768033981323
0.229509517550468445 0.38262784481048584 0.0317430496215820312
0.247468069195747375 -0.303458034992218018 0.156660720705986023
0.313772708177566528 0.493590235710144043 -0.000932650116737931967
0.373405098915100098 0.327288627624511719 0.0509314090013504028
0.459799319505691528 -0.302090048789978027 0.159437656402587891
0.290466636419296265 -0.386805295944213867 0.137175649404525757
0.314913660287857056 0.214994922280311584 0.074413686990737915
0.340988844633102417 -0.0344956144690513611 0.110398419201374054
0.525197088718414307 -0.201820909976959229 0.101879291236400604
-0.505287826061248779 0.356192469596862793 0.170242562890052795
-0.512310385704040527 0.236951708793640137 0.157387897372245789
-0.477019220590591431 0.0282827038317918777 0.235625386238098145
-0.363963723182678223 -0.182424083352088928 0.290125936269760132
-0.336735457181930542 -0.304672509431838989 0.306547552347183228
-0.216171950101852417 0.413431525230407715 0.145784720778465271
-0.326251983642578125 0.370628833770751953 0.196896672248840332
-0.344057947397232056 -0.483191013336181641 0.335786342620849609
-0.25432237982749939 -0.410394757986068726 0.347858548164367676
0.015694011002779007 0.470790952444076538 0.257045358419418335
-0.015676671639084816 -0.343197345733642578 0.381197273731231689
0.254918873310089111 0.475241571664810181 0.260823637247085571
0.228245466947555542 -0.324890315532684326 0.411256015300750732
0.253849029541015625 0.580101668834686279 0.199177473783493042
0.270448148250579834 0.390316158533096313 0.268502235412597656
0.456856817007064819 -0.245497524738311768 0.374776870012283325
0.325348585844039917 -0.387282788753509521 0.374283552169799805
0.273919522762298584 0.269065558910369873 0.301603406667709351
0.44302678108215332 0.0831316709518432617 0.294044435024261475
0.390196710824966431 -0.160294204950332642 0.296434253454208374
-0.448650002479553223 0.229481533169746399 0.267830759286880493
-0.390425592660903931 0.0247012991458177567 0.312711954116821289
-0.431828916072845459 -0.190226361155509949 0.352722495794296265
-0.204994887113571167 0.451225459575653076 0.217468306422233582
-0.179880306124687195 0.333379417657852173 0.409988045692443848
-0.352339297533035278 0.317937493324279785 0.438994050025939941
-0.349436670541763306 0.0878668427467346191 0.49965965747833252
-0.269706040620803833 -0.144121244549751282 0.444820791482925415
-0.244116351008415222 -0.454325407743453979 0.464471906423568726
-0.257289201021194458 -0.267266333103179932 0.449723750352859497
-0.04177093505859375 0.507082760334014893 0.352993428707122803
0.0196352861821651459 0.380838394165039062 0.443483471870422363
-0.00620408495888113976 -0.413481652736663818 0.481876671314239502
-0.019300634041428566 -0.231787443161010742 0.426241040229797363
0.18997018039226532 0.570494472980499268 0.318236351013183594
0.240573883056640625 0.427482485771179199 0.380418956279754639
0.236686348915100098 -0.362932145595550537 0.515777826309204102
0.189202040433883667 -0.181941434741020203 0.570037364959716797
0.141369208693504333 0.301605552434921265 0.364234656095504761
0.261833876371383667 0.264080584049224854 0.204633146524429321
0.252035319805145264 0.107645362615585327 0.508751213550567627
0.340605646371841431 0.0975986495614051819 0.361772447824478149
0.296540677547454834 -0.0966545864939689636 0.595097541809082031
0.333231151103973389 -0.153009340167045593 0.407575458288192749
-0.239155501127243042 0.325737655162811279 0.501057446002960205
-0.233299940824508667 0.0885893777012825012 0.536879420280456543
-0.232788428664207458 -0.181676924228668213 0.545038521289825439
0.0206132363528013229 0.310204058885574341 0.526815533638000488
0.00997023098170757294 0.112579137086868286 0.396769911050796509
-0.0261982996016740799 -0.117574818432331085 0.437018007040023804
0.236946448683738708 0.340252816677093506 0.435171335935592651
0.289485245943069458 0.124665915966033936 0.434412717819213867
0.212802886962890625 -0.113845802843570709 0.481666415929794312
3 0 1 2
3 1 3 4
3 2 1 4
3 3 5 6
3 4 3 6
3 5 7 6
3 0 8 9
3 1 0 9
3 9 10 1
3 1 10 3
3 10 11 3
3 3 11 5
3 5 11 12
3 7 5 12
3 8 13 14
3 9 8 14
3 14 15 9
3 9 15 10
3 15 16 10
3 10 16 11
3 11 16 17
3 12 11 17
3 14 13 18
3 15 14 18
3 19 15 18
3 16 15 19
3 20 16 19
3 16 20 17
3 21 22 23
3 22 24 25
3 23 22 25
3 24 26 27
3 25 24 27
3 26 28 27
3 29 30 31
3 2 22 21
3 0 2 21
3 0 21 31
3 0 31 30
3 4 22 2
3 24 22 4
3 6 24 4
3 26 24 6
3 26 32 28
3 6 32 26
3 6 33 32
3 6 7 33
3 33 34 32
3 29 35 36
3 30 29 36
3 36 0 30
3 8 0 36
3 12 33 7
3 37 33 12
3 33 37 38
3 34 33 38
3 35 39 40
3 36 35 40
3 40 8 36
3 13 8 40
3 17 37 12
3 41 37 17
3 37 41 42
3 38 37 42
3 40 39 43
3 43 44 45
3 40 43 45
3 40 45 18
3 40 18 13
3 18 46 19
3 45 46 18
3 19 47 20
3 46 47 19
3 48 49 41
3 47 48 41
3 47 41 17
3 47 17 20
3 41 49 42
3 45 44 50
3 46 45 50
3 51 46 50
3 47 46 51
3 52 47 51
3 47 52 48
3 53 21 23
3 54 53 23
3 23 25 54
3 25 55 54
3 25 27 55
3 27 56 55
3 28 57 56
3 27 28 56
3 58 29 31
3 59 58 31
3 31 53 59
3 21 53 31
3 60 28 32
3 57 28 60
3 34 61 60
3 32 34 60
3 35 29 62
3 62 29 58
3 38 63 34
3 63 61 34
3 39 35 64
3 64 35 62
3 42 65 38
3 65 63 38
3 66 43 39
3 64 66 39
3 44 66 67
3 43 66 44
3 68 49 48
3 69 49 68
3 49 69 65
3 42 49 65
3 70 50 44
3 67 70 44
3 50 70 51
3 51 70 71
3 51 71 52
3 52 71 72
3 52 72 68
3 48 52 68
3 73 53 54
3 74 73 54
3 54 55 74
3 55 75 74
3 55 56 75
3 56 76 75
3 57 77 76
3 56 57 76
3 78 58 59
3 79 78 59
3 59 73 79
3 53 73 59
3 80 57 60
3 77 57 80
3 61 81 80
3 60 61 80
3 62 58 82
3 82 58 78
3 63 83 61
3 83 81 61
3 64 62 84
3 84 62 82
3 65 85 63
3 85 83 63
3 86 66 64
3 84 86 64
3 67 86 87
3 66 86 67
3 88 69 68
3 89 69 88
3 69 89 85
3 65 69 85
3 90 70 67
3 87 90 67
3 70 90 71
3 71 90 91
3 71 91 72
3 72 91 92
3 72 92 88
3 68 72 88
3 73 74 93
3 74 75 94
3 93 74 94
3 75 76 95
3 94 75 95
3 76 77 95
3 78 79 96
3 97 93 98
3 96 93 97
3 96 73 93
3 96 79 73
3 94 98 93
3 99 98 94
3 95 99 94
3 100 99 95
3 100 101 102
3 95 101 100
3 95 80 101
3 95 77 80
3 80 81 101
3 82 78 96
3 103 82 96
3 96 104 103
3 97 104 96
3 102 105 106
3 101 105 102
3 105 101 81
3 83 105 81
3 84 82 103
3 107 84 103
3 103 108 107
3 104 108 103
3 106 109 110
3 105 109 106
3 109 105 83
3 85 109 83
3 86 84 107
3 107 108 111
3 86 107 111
3 86 111 112
3 86 112 87
3 112 113 114
3 111 113 112
3 114 115 116
3 113 115 114
3 89 110 109
3 88 110 89
3 88 115 110
3 88 116 115
3 89 109 85
3 90 87 112
3 91 90 112
3 114 91 112
3 92 91 114
3 116 92 114
3 92 116 88
3 97 98 117
3 98 99 118
3 117 98 118
3 99 100 119
3 118 99 119
3 100 102 119
3 104 97 117
3 120 104 117
3 120 117 121
3 117 118 121
3 121 118 122
3 118 119 122
3 122 119 102
3 106 122 102
3 108 104 120
3 123 108 120
3 123 120 124
3 120 121 124
3 124 121 125
3 121 122 125
3 125 122 106
3 110 125 106
3 111 108 123
3 113 111 123
3 124 113 123
3 115 113 124
3 125 115 124
3 115 125 110
