ply
format ascii 1.0
comment VCGLIB generated
element vertex 126
property float x
property float y
property float z
element face 248
property list uchar int vertex_indices
end_header
-0.204196929931640625 0.240483328700065613 -0.564719021320343018
-0.186758682131767273 0.159031197428703308 -0.445910781621932983
-0.237328842282295227 0.105096228420734406 -0.548962771892547607
-0.192522689700126648 -0.105696447193622589 -0.482783645391464233
-0.268685668706893921 -0.0705334395170211792 -0.426193565130233765
-0.185311630368232727 -0.288141399621963501 -0.385989665985107422
-0.249730423092842102 -0.324789434671401978 -0.391811519861221313
-0.1800689697265625 -0.386925607919692993 -0.457498550415039062
0.0332183837890625 0.235363498330116272 -0.466792911291122437
0.0357195548713207245 0.145975187420845032 -0.527266979217529297
0.069043479859828949 -0.0928176715970039368 -0.460429519414901733
0.066145576536655426 -0.309495121240615845 -0.421789497137069702
0.0615628547966480255 -0.421040773391723633 -0.394568443298339844
0.277289062738418579 0.227914020419120789 -0.455336093902587891
0.2785186767578125 0.138868615031242371 -0.490314483642578125
0.275287628173828125 -0.0588728226721286774 -0.380340427160263062
0.304011017084121704 -0.264074981212615967 -0.335105270147323608
0.259270995855331421 -0.399138927459716797 -0.32816806435585022
0.39764404296875 0.1377858966588974 -0.4164886474609375
0.343579620122909546 -0.05135364830493927 -0.444908291101455688
0.346597045660018921 -0.311592429876327515 -0.394808769226074219
-0.377904266119003296 0.220973923802375793 -0.338133484125137329
-0.451290130615234375 0.135449662804603577 -0.38464084267616272
-0.506258666515350342 0.216665878891944885 -0.290506362915039062
-0.41661834716796875 -0.0692625343799591064 -0.349133163690567017
-0.485768646001815796 -0.0576580800116062164 -0.253353267908096313
-0.430531829595565796 -0.3141651451587677 -0.304201126098632812
-0.378915160894393921 -0.289263814687728882 -0.226028919219970703
-0.451203674077987671 -0.350197792053222656 -0.185250446200370789
-0.173344925045967102 0.466644406318664551 -0.307820945978164673
-0.156939193606376648 0.348259776830673218 -0.424323409795761108
-0.255016326904296875 0.320527523756027222 -0.282935291528701782
-0.248920440673828125 -0.427776306867599487 -0.19997994601726532
-0.187323257327079773 -0.506991386413574219 -0.237214401364326477
-0.213217422366142273 -0.458007365465164185 -0.136116191744804382
0.0269482936710119247 0.415713638067245483 -0.314555644989013672
0.0222524013370275497 0.40224495530128479 -0.421516746282577515
0.0443776436150074005 -0.464381188154220581 -0.260636806488037109
0.0410054512321949005 -0.423607468605041504 -0.116148948669433594
0.256196349859237671 0.435829877853393555 -0.287745803594589233
0.234233856201171875 0.390245884656906128 -0.368498653173446655
0.2859649658203125 -0.420097798109054565 -0.18506033718585968
0.240704849362373352 -0.470088154077529907 -0.133278056979179382
0.340475708246231079 0.407695025205612183 -0.23979949951171875
0.500033080577850342 0.278705507516860962 -0.269606918096542358
0.485738128423690796 0.184125125408172607 -0.312414973974227905
0.44202423095703125 -0.0420718640089035034 -0.291238784790039062
0.496587127447128296 -0.264776110649108887 -0.201503440737724304
0.485438019037246704 -0.341529965400695801 -0.148650333285331726
0.324999481439590454 -0.515056192874908447 -0.104429878294467926
0.444187164306640625 0.208819583058357239 -0.216451957821846008
0.484411865472793579 -0.0298225078731775284 -0.14012908935546875
0.4111328125 -0.209575816988945007 -0.164809390902519226
-0.458666473627090454 0.277825862169265747 -0.0782753601670265198
-0.404013305902481079 0.195102766156196594 -0.105760253965854645
-0.3674163818359375 -0.0334587953984737396 -0.0718572959303855896
-0.428652435541152954 -0.250191718339920044 -0.0275751743465662003
-0.474493652582168579 -0.31101951003074646 0.0352945327758789062
-0.257574707269668579 0.454993456602096558 -0.122840724885463715
-0.299776703119277954 0.460387915372848511 -0.0631699562072753906
-0.298777252435684204 -0.447329014539718628 0.0686888694763183594
-0.24045562744140625 -0.497903615236282349 0.0504255294799804688
-0.0133514404296875 0.442519217729568481 -0.0858785286545753479
-0.0168355312198400497 -0.484929710626602173 0.0833311080932617188
0.231629684567451477 0.400288850069046021 -0.061600368469953537
0.225667312741279602 -0.472811013460159302 0.098824821412563324
0.315339416265487671 0.460355430841445923 -0.0725483894348144531
0.436547607183456421 0.333683282136917114 -0.0109699564054608345
0.429454803466796875 -0.318493157625198364 0.119444847106933594
0.292772918939590454 -0.413628131151199341 0.0976681709289550781
0.439908355474472046 0.223050817847251892 -0.01006317138671875
0.443144470453262329 0.0351774245500564575 0.0366829223930835724
0.452246338129043579 -0.202448904514312744 0.0791330337524414062
-0.49127960205078125 0.307495415210723877 0.131634876132011414
-0.373263031244277954 0.25365293025970459 0.12990252673625946
-0.360627502202987671 -0.00616998272016644478 0.183513164520263672
-0.427111297845840454 -0.243415847420692444 0.229259490966796875
-0.471363067626953125 -0.307153314352035522 0.271626323461532593
-0.256917327642440796 0.486801385879516602 0.13062460720539093
-0.341924041509628296 0.428000599145889282 0.102692127227783203
-0.361632019281387329 -0.387720197439193726 0.280703067779541016
-0.27016448974609375 -0.448272466659545898 0.285383701324462891
-0.056827545166015625 0.495470732450485229 0.128595665097236633
-0.0249455776065587997 -0.365633398294448853 0.227355167269706726
0.206598922610282898 0.46301540732383728 0.1800384521484375
0.179925277829170227 -0.414945811033248901 0.328316062688827515
0.275323241949081421 0.490811944007873535 0.143692493438720703
0.361553192138671875 0.350318193435668945 0.210847541689872742
0.425982147455215454 -0.25315508246421814 0.361004352569580078
0.32891845703125 -0.382235884666442871 0.294010967016220093
0.468972533941268921 0.241777285933494568 0.249223396182060242
0.384464263916015625 0.0159848127514123917 0.233666732907295227
0.349664062261581421 -0.150430306792259216 0.31647762656211853
-0.41481781005859375 0.280237942934036255 0.228100299835205078
-0.358203887939453125 0.0281970947980880737 0.265976577997207642
-0.504388153553009033 -0.165141314268112183 0.26331678032875061
-0.229887649416923523 0.462065666913986206 0.242923423647880554
-0.2985076904296875 0.423817634582519531 0.386210113763809204
-0.3408966064453125 0.307436615228652954 0.3514251708984375
-0.383099883794784546 0.0611849874258041382 0.433488368988037109
-0.329310089349746704 -0.114666491746902466 0.474165052175521851
-0.231836959719657898 -0.42163655161857605 0.347104072570800781
-0.233357742428779602 -0.210493385791778564 0.513682425022125244
-0.039554595947265625 0.479227304458618164 0.250834792852401733
-0.0375111885368824005 0.31322091817855835 0.306803375482559204
-0.04073333740234375 -0.305546104907989502 0.366403579711914062
-0.064472198486328125 -0.20976768434047699 0.489742428064346313
0.175815582275390625 0.503648817539215088 0.251319259405136108
0.233064010739326477 0.327233225107192993 0.31942477822303772
0.198327377438545227 -0.30853426456451416 0.386219173669815063
0.184733077883720398 -0.215021774172782898 0.51915663480758667
0.221266433596611023 0.299413770437240601 0.400022029876708984
0.425566345453262329 0.28450426459312439 0.300268501043319702
0.29723358154296875 0.0515066832304000854 0.460393279790878296
0.40966796875 0.0599291808903217316 0.391242831945419312
0.195766448974609375 -0.101936362683773041 0.586938619613647461
0.4515838623046875 -0.147427946329116821 0.367854118347167969
-0.2825775146484375 0.246447518467903137 0.325840622186660767
-0.250448852777481079 0.0353088080883026123 0.412078529596328735
-0.305545806884765625 -0.197586193680763245 0.425378799438476562
0.00676727294921875 0.23289768397808075 0.37744554877281189
-0.077075958251953125 0.0901196599006652832 0.472807407379150391
-0.032199859619140625 -0.162046775221824646 0.463607311248779297
0.239267989993095398 0.345357179641723633 0.425345093011856079
0.174373626708984375 0.0697357729077339172 0.466026932001113892
0.139565780758857727 -0.108413942158222198 0.521138131618499756
3 0 1 2
3 1 3 4
3 2 1 4
3 3 5 6
3 4 3 6
3 5 7 6
3 0 8 9
3 1 0 9
3 9 10 1
3 1 10 3
3 10 11 3
3 3 11 5
3 5 11 12
3 7 5 12
3 8 13 14
3 9 8 14
3 14 15 9
3 9 15 10
3 15 16 10
3 10 16 11
3 11 16 17
3 12 11 17
3 14 13 18
3 15 14 18
3 19 15 18
3 16 15 19
3 20 16 19
3 16 20 17
3 21 22 23
3 22 24 25
3 23 22 25
3 24 26 27
3 25 24 27
3 26 28 27
3 29 30 31
3 2 22 21
3 0 2 21
3 0 21 31
3 0 31 30
3 4 22 2
3 24 22 4
3 6 24 4
3 26 24 6
3 26 32 28
3 6 32 26
3 6 33 32
3 6 7 33
3 33 34 32
3 29 35 36
3 30 29 36
3 36 0 30
3 8 0 36
3 12 33 7
3 37 33 12
3 33 37 38
3 34 33 38
3 35 39 40
3 36 35 40
3 40 8 36
3 13 8 40
3 17 37 12
3 41 37 17
3 37 41 42
3 38 37 42
3 40 39 43
3 43 44 45
3 40 43 45
3 40 45 18
3 40 18 13
3 18 46 19
3 45 46 18
3 19 47 20
3 46 47 19
3 48 49 41
3 47 48 41
3 47 41 17
3 47 17 20
3 41 49 42
3 45 44 50
3 46 45 50
3 51 46 50
3 47 46 51
3 52 47 51
3 47 52 48
3 53 21 23
3 54 53 23
3 23 25 54
3 25 55 54
3 25 27 55
3 27 56 55
3 28 57 56
3 27 28 56
3 58 29 31
3 59 58 31
3 31 53 59
3 21 53 31
3 60 28 32
3 57 28 60
3 34 61 60
3 32 34 60
3 35 29 62
3 62 29 58
3 38 63 34
3 63 61 34
3 39 35 64
3 64 35 62
3 42 65 38
3 65 63 38
3 66 43 39
3 64 66 39
3 44 66 67
3 43 66 44
3 68 49 48
3 69 49 68
3 49 69 65
3 42 49 65
3 70 50 44
3 67 70 44
3 50 70 51
3 51 70 71
3 51 71 52
3 52 71 72
3 52 72 68
3 48 52 68
3 73 53 54
3 74 73 54
3 54 55 74
3 55 75 74
3 55 56 75
3 56 76 75
3 57 77 76
3 56 57 76
3 78 58 59
3 79 78 59
3 59 73 79
3 53 73 59
3 80 57 60
3 77 57 80
3 61 81 80
3 60 61 80
3 62 58 82
3 82 58 78
3 63 83 61
3 83 81 61
3 64 62 84
3 84 62 82
3 65 85 63
3 85 83 63
3 86 66 64
3 84 86 64
3 67 86 87
3 66 86 67
3 88 69 68
3 89 69 88
3 69 89 85
3 65 69 85
3 90 70 67
3 87 90 67
3 70 90 71
3 71 90 91
3 71 91 72
3 72 91 92
3 72 92 88
3 68 72 88
3 73 74 93
3 74 75 94
3 93 74 94
3 75 76 95
3 94 75 95
3 76 77 95
3 78 79 96
3 97 93 98
3 96 93 97
3 96 73 93
3 96 79 73
3 94 98 93
3 99 98 94
3 95 99 94
3 100 99 95
3 100 101 102
3 95 101 100
3 95 80 101
3 95 77 80
3 80 81 101
3 82 78 96
3 103 82 96
3 96 104 103
3 97 104 96
3 102 105 106
3 101 105 102
3 105 101 81
3 83 105 81
3 84 82 103
3 107 84 103
3 103 108 107
3 104 108 103
3 106 109 110
3 105 109 106
3 109 105 83
3 85 109 83
3 86 84 107
3 107 108 111
3 86 107 111
3 86 111 112
3 86 112 87
3 112 113 114
3 111 113 112
3 114 115 116
3 113 115 114
3 89 110 109
3 88 110 89
3 88 115 110
3 88 116 115
3 89 109 85
3 90 87 112
3 91 90 112
3 114 91 112
3 92 91 114
3 116 92 114
3 92 116 88
3 97 98 117
3 98 99 118
3 117 98 118
3 99 100 119
3 118 99 119
3 100 102 119
3 104 97 117
3 120 104 117
3 120 117 121
3 117 118 121
3 121 118 122
3 118 119 122
3 122 119 102
3 106 122 102
3 108 104 120
3 123 108 120
3 123 120 124
3 120 121 124
3 124 121 125
3 121 122 125
3 125 122 106
3 110 125 106
3 111 108 123
3 113 111 123
3 124 113 123
3 115 113 124
3 125 115 124
3 115 125 110
