ply
format ascii 1.0
comment VCGLIB generated
element vertex 126
property float x
property float y
property float z
element face 248
property list uchar int vertex_indices
end_header
-0.204392746090888977 0.208993658423423767 -0.498304694890975952
-0.175268813967704773 0.089974522590637207 -0.537135899066925049
-0.220638275146484375 0.0954350009560585022 -0.432960182428359985
-0.158826187252998352 -0.144419208168983459 -0.511923313140869141
-0.240899398922920227 -0.12571503221988678 -0.437754631042480469
-0.10256195068359375 -0.184793934226036072 -0.299771308898925781
-0.0602404288947582245 -0.0737540051341056824 -0.303290516138076782
-0.0571835823357105255 -0.170753642916679382 -0.212661907076835632
-0.00849405955523252487 0.192540600895881653 -0.392078399658203125
-0.0308990478515625 0.0855401679873466492 -0.368165165185928345
0.0162747707217931747 -0.130230426788330078 -0.388366371393203735
0.0214742030948400497 -0.345757961273193359 -0.317886829376220703
0.05834197998046875 -0.363783806562423706 -0.198633834719657898
0.151959732174873352 0.184094548225402832 -0.235946342349052429
0.140931442379951477 0.0793419703841209412 -0.229634121060371399
0.175284072756767273 -0.134877905249595642 -0.246129199862480164
0.169114425778388977 -0.332682222127914429 -0.179230853915214539
0.265355437994003296 -0.365932464599609375 -0.254102706909179688
0.180720016360282898 0.0910333767533302307 -0.334264129400253296
0.186313629150390625 -0.142080232501029968 -0.360310405492782593
0.132216140627861023 -0.346736162900924683 -0.297006130218505859
-0.39676666259765625 0.199698984622955322 -0.24612744152545929
-0.297387450933456421 0.102801479399204254 -0.269698143005371094
-0.397457122802734375 0.0975606217980384827 -0.22524578869342804
-0.344106048345565796 -0.11484488844871521 -0.290845870971679688
-0.383958190679550171 -0.118262879550457001 -0.184392452239990234
-0.154839828610420227 -0.1364583820104599 -0.169974327087402344
-0.195116683840751648 -0.22721584141254425 -0.133213207125663757
-0.098341621458530426 -0.250995039939880371 -0.108553729951381683
-0.263434082269668579 0.408958554267883301 -0.292437076568603516
-0.241861984133720398 0.335623770952224731 -0.375519424676895142
-0.354105621576309204 0.357412248849868774 -0.305762141942977905
0.074493408203125 -0.230448797345161438 -0.0573414154350757599
-0.077974952757358551 -0.158162236213684082 -0.0430790595710277557
-0.00351969408802688122 -0.161379635334014893 -0.116975151002407074
-0.0592829398810863495 0.345946341753005981 -0.229513168334960938
-0.022823333740234375 0.358437985181808472 -0.333682864904403687
0.109508514404296875 -0.253842562437057495 -0.0800522193312644958
0.05664825439453125 -0.369522958993911743 -0.0798201560974121094
0.153104141354560852 0.292432427406311035 -0.173883914947509766
0.1894073486328125 0.354490667581558228 -0.261157512664794922
0.254315704107284546 -0.456210047006607056 -0.0911351814866065979
0.231146499514579773 -0.431930899620056152 0.0218944549560546875
0.250331878662109375 0.330787092447280884 -0.13871319591999054
0.289129883050918579 0.161039099097251892 -0.109317779541015625
0.210011795163154602 0.0589134693145751953 -0.156668022274971008
0.211544036865234375 -0.157798632979393005 -0.190686389803886414
0.0175488796085119247 -0.27287176251411438 -0.179134845733642578
0.127607986330986023 -0.226580485701560974 -0.117665290832519531
0.152692154049873352 -0.399134367704391479 -0.0599795989692211151
0.295528411865234375 0.0557378940284252167 -0.0851178169250488281
0.222620651125907898 -0.154469311237335205 -0.0839088782668113708
0.081202186644077301 -0.323891550302505493 -0.10465780645608902
-0.333086639642715454 0.248934164643287659 -0.036396026611328125
-0.329943329095840454 0.140501245856285095 -0.0139667196199297905
-0.421934753656387329 -0.0605776347219944 0.0306496620178222656
-0.259203583002090454 -0.221272870898246765 0.0801304206252098083
-0.161164596676826477 -0.175451323390007019 0.0920734405517578125
-0.273723602294921875 0.36129876971244812 -0.0725978240370750427
-0.370625823736190796 0.419226080179214478 -0.0878208503127098083
0.00249608349986374378 -0.173415198922157288 0.150477096438407898
0.0281829833984375 -0.101796530187129974 0.100506149232387543
-0.0819091796875 0.470696926116943359 -0.0422649383544921875
-0.0135243730619549751 -0.317115306854248047 0.15422821044921875
0.136731460690498352 0.426227778196334839 0.00340700149536132812
0.196885421872138977 -0.195905208587646484 0.0971838608384132385
0.17168426513671875 0.347663849592208862 0.0707281455397605896
0.248561859130859375 0.190854981541633606 0.110948242247104645
0.118663787841796875 -0.183630585670471191 0.104039512574672699
0.265885680913925171 -0.230559453368186951 0.0113034248352050781
0.194272354245185852 0.0972613468766212463 0.11218038946390152
0.0563189201056957245 -0.0235998723655939102 -0.00945504475384950638
0.2010955810546875 -0.189661383628845215 0.0366196632385253906
-0.489125579595565796 0.269060105085372925 0.125048473477363586
-0.407000213861465454 0.221504330635070801 0.178810596466064453
-0.417397826910018921 -0.00782438460737466812 0.247988387942314148
-0.29662322998046875 -0.193982943892478943 0.303680568933486938
-0.2183685302734375 -0.121126912534236908 0.304757595062255859
-0.263515472412109375 0.455999523401260376 0.136198356747627258
-0.365177154541015625 0.39865875244140625 0.133693218231201172
-0.075216926634311676 -0.0150590250268578529 0.309076160192489624
-0.086088813841342926 -0.118158936500549316 0.290375232696533203
-0.0505231209099292755 0.37197422981262207 0.155902385711669922
0.030059814453125 -0.286748915910720825 0.376204162836074829
0.077276863157749176 0.214564695954322815 0.0555764846503734589
0.248709365725517273 -0.248917356133460999 0.290136337280273438
-0.0280392970889806747 0.248516067862510681 0.0688827857375144958
0.075430549681186676 0.28022196888923645 0.2164459228515625
0.26467132568359375 -0.0621236898005008698 0.238881751894950867
0.235819503664970398 -0.238685145974159241 0.201768398284912109
0.017673492431640625 0.190595135092735291 0.21855609118938446
-0.018947601318359375 -0.0321686938405036926 0.204207107424736023
0.17771148681640625 -0.126435041427612305 0.253078937530517578
-0.477605193853378296 0.163801908493041992 0.214940071105957031
-0.32765960693359375 -0.00958492327481508255 0.200184985995292664
-0.252573639154434204 -0.209289804100990295 0.213676765561103821
-0.285228729248046875 0.418822526931762695 0.239287212491035461
-0.298830658197402954 0.304914981126785278 0.373373031616210938
-0.398606628179550171 0.206876412034034729 0.373741626739501953
-0.350233703851699829 -0.00516944844275712967 0.376475334167480469
-0.261399596929550171 -0.207456633448600769 0.401526123285293579
0.00474039698019623756 -0.118769086897373199 0.362482219934463501
-0.138651534914970398 -0.185993731021881104 0.440764755010604858
-0.117043815553188324 0.29217943549156189 0.183132007718086243
-0.081349693238735199 0.249755740165710449 0.358747154474258423
0.0577519722282886505 -0.318099051713943481 0.275426864624023438
-0.07292938232421875 -0.195659026503562927 0.233036831021308899
0.0309804286807775497 0.132919207215309143 0.114327274262905121
-0.0121320085600018501 0.0503345690667629242 0.273573398590087891
0.202715560793876648 -0.145807340741157532 0.30455431342124939
0.063343048095703125 -0.247287139296531677 0.396661132574081421
-0.086259208619594574 0.130901947617530823 0.358637958765029907
0.080529533326625824 0.171936020255088806 0.307350486516952515
-0.00911458302289247513 -0.0262162685394287109 0.492761999368667603
-0.0405527763068675995 -0.0177263598889112473 0.313177108764648438
0.149157211184501648 -0.173375189304351807 0.467927455902099609
0.177336379885673523 -0.0540807135403156281 0.337992191314697266
-0.321725219488143921 0.22673015296459198 0.295011848211288452
-0.270627349615097046 0.00849868264049291611 0.289489895105361938
-0.177282974123954773 -0.183493614196777344 0.339669853448867798
-0.105485282838344574 0.278347998857498169 0.256230354309082031
-0.0590527839958667755 0.0613576062023639679 0.248197555541992188
0.014041900634765625 -0.141678467392921448 0.239734962582588196
-0.120240531861782074 0.0551527626812458038 0.286799758672714233
0.0482317619025707245 0.0559139139950275421 0.438678741455078125
0.0339978523552417755 -0.1655607670545578 0.456096798181533813
3 0 1 2
3 1 3 4
3 2 1 4
3 3 5 6
3 4 3 6
3 5 7 6
3 0 8 9
3 1 0 9
3 9 10 1
3 1 10 3
3 10 11 3
3 3 11 5
3 5 11 12
3 7 5 12
3 8 13 14
3 9 8 14
3 14 15 9
3 9 15 10
3 15 16 10
3 10 16 11
3 11 16 17
3 12 11 17
3 14 13 18
3 15 14 18
3 19 15 18
3 16 15 19
3 20 16 19
3 16 20 17
3 21 22 23
3 22 24 25
3 23 22 25
3 24 26 27
3 25 24 27
3 26 28 27
3 29 30 31
3 2 22 21
3 0 2 21
3 0 21 31
3 0 31 30
3 4 22 2
3 24 22 4
3 6 24 4
3 26 24 6
3 26 32 28
3 6 32 26
3 6 33 32
3 6 7 33
3 33 34 32
3 29 35 36
3 30 29 36
3 36 0 30
3 8 0 36
3 12 33 7
3 37 33 12
3 33 37 38
3 34 33 38
3 35 39 40
3 36 35 40
3 40 8 36
3 13 8 40
3 17 37 12
3 41 37 17
3 37 41 42
3 38 37 42
3 40 39 43
3 43 44 45
3 40 43 45
3 40 45 18
3 40 18 13
3 18 46 19
3 45 46 18
3 19 47 20
3 46 47 19
3 48 49 41
3 47 48 41
3 47 41 17
3 47 17 20
3 41 49 42
3 45 44 50
3 46 45 50
3 51 46 50
3 47 46 51
3 52 47 51
3 47 52 48
3 53 21 23
3 54 53 23
3 23 25 54
3 25 55 54
3 25 27 55
3 27 56 55
3 28 57 56
3 27 28 56
3 58 29 31
3 59 58 31
3 31 53 59
3 21 53 31
3 60 28 32
3 57 28 60
3 34 61 60
3 32 34 60
3 35 29 62
3 62 29 58
3 38 63 34
3 63 61 34
3 39 35 64
3 64 35 62
3 42 65 38
3 65 63 38
3 66 43 39
3 64 66 39
3 44 66 67
3 43 66 44
3 68 49 48
3 69 49 68
3 49 69 65
3 42 49 65
3 70 50 44
3 67 70 44
3 50 70 51
3 51 70 71
3 51 71 52
3 52 71 72
3 52 72 68
3 48 52 68
3 73 53 54
3 74 73 54
3 54 55 74
3 55 75 74
3 55 56 75
3 56 76 75
3 57 77 76
3 56 57 76
3 78 58 59
3 79 78 59
3 59 73 79
3 53 73 59
3 80 57 60
3 77 57 80
3 61 81 80
3 60 61 80
3 62 58 82
3 82 58 78
3 63 83 61
3 83 81 61
3 64 62 84
3 84 62 82
3 65 85 63
3 85 83 63
3 86 66 64
3 84 86 64
3 67 86 87
3 66 86 67
3 88 69 68
3 89 69 88
3 69 89 85
3 65 69 85
3 90 70 67
3 87 90 67
3 70 90 71
3 71 90 91
3 71 91 72
3 72 91 92
3 72 92 88
3 68 72 88
3 73 74 93
3 74 75 94
3 93 74 94
3 75 76 95
3 94 75 95
3 76 77 95
3 78 79 96
3 97 93 98
3 96 93 97
3 96 73 93
3 96 79 73
3 94 98 93
3 99 98 94
3 95 99 94
3 100 99 95
3 100 101 102
3 95 101 100
3 95 80 101
3 95 77 80
3 80 81 101
3 82 78 96
3 103 82 96
3 96 104 103
3 97 104 96
3 102 105 106
3 101 105 102
3 105 101 81
3 83 105 81
3 84 82 103
3 107 84 103
3 103 108 107
3 104 108 103
3 106 109 110
3 105 109 106
3 109 105 83
3 85 109 83
3 86 84 107
3 107 108 111
3 86 107 111
3 86 111 112
3 86 112 87
3 112 113 114
3 111 113 112
3 114 115 116
3 113 115 114
3 89 110 109
3 88 110 89
3 88 115 110
3 88 116 115
3 89 109 85
3 90 87 112
3 91 90 112
3 114 91 112
3 92 91 114
3 116 92 114
3 92 116 88
3 97 98 117
3 98 99 118
3 117 98 118
3 99 100 119
3 118 99 119
3 100 102 119
3 104 97 117
3 120 104 117
3 120 117 121
3 117 118 121
3 121 118 122
3 118 119 122
3 122 119 102
3 106 122 102
3 108 104 120
3 123 108 120
3 123 120 124
3 120 121 124
3 124 121 125
3 121 122 125
3 125 122 106
3 110 125 106
3 111 108 123
3 113 111 123
3 124 113 123
3 115 113 124
3 125 115 124
3 115 125 110
