ply
format ascii 1.0
comment VCGLIB generated
element vertex 126
property float x
property float y
property float z
element face 248
property list uchar int vertex_indices
end_header
-0.247280940413475037 0.272650450468063354 -0.374656736850738525
-0.241083428263664246 0.19336487352848053 -0.450959384441375732
-0.330482214689254761 0.167034000158309937 -0.386000871658325195
-0.220018118619918823 -0.0242855437099933624 -0.495324313640594482
-0.269530177116394043 -0.048906330019235611 -0.395801424980163574
-0.114190243184566498 -0.118187166750431061 -0.321793049573898315
-0.0702163130044937134 -0.0196696426719427109 -0.296888172626495361
-0.0352995730936527252 -0.145276471972465515 -0.249716728925704956
-0.0936412811279296875 0.163925260305404663 -0.252792328596115112
-0.0720977783203125 0.0967888012528419495 -0.341864138841629028
0.00130517140496522188 0.00175883469637483358 -0.536724865436553955
0.0312096737325191498 -0.212180301547050476 -0.465596407651901245
0.0428554005920886993 -0.29768824577331543 -0.394514113664627075
0.0642667487263679504 0.306365936994552612 -0.324025154113769531
0.10176386684179306 0.229322686791419983 -0.393789678812026978
0.213210240006446838 0.0488678961992263794 -0.467425256967544556
0.226925447583198547 -0.156127616763114929 -0.375858724117279053
0.263723641633987427 -0.259949088096618652 -0.386413693428039551
0.194504603743553162 0.271202892065048218 -0.351896971464157104
0.300030022859573364 0.0799946412444114685 -0.403708726167678833
0.335238337516784668 -0.141436025500297546 -0.389137774705886841
-0.478158682584762573 0.225578680634498596 -0.157180681824684143
-0.439428597688674927 0.133505970239639282 -0.250984936952590942
-0.380330771207809448 0.177334830164909363 -0.163030281662940979
-0.338122516870498657 -0.0761829391121864319 -0.229631319642066956
-0.315499991178512573 -0.0436283312737941742 -0.136900290846824646
-0.151164188981056213 -0.0282943993806838989 -0.142479628324508667
-0.115049906075000763 -0.0699623003602027893 -0.0721722021698951721
-0.0350516177713871002 -0.119760528206825256 -0.0760875418782234192
-0.304733008146286011 0.449703425168991089 -0.157116487622261047
-0.27461734414100647 0.389203488826751709 -0.242757290601730347
-0.385280340909957886 0.375479847192764282 -0.160646438598632812
-0.0363213680684566498 -0.285953044891357422 -0.13632434606552124
-0.156676426529884338 -0.262802541255950928 -0.190597772598266602
-0.103089474141597748 -0.360749036073684692 -0.186180725693702698
-0.151591986417770386 0.346246242523193359 -0.0287973880767822266
-0.130293712019920349 0.275308549404144287 -0.113519772887229919
0.047454833984375 -0.354621052742004395 -0.223489150404930115
0.0873892679810523987 -0.254323691129684448 -0.240792214870452881
0.0236020777374505997 0.470848888158798218 -0.0906801223754882812
0.0278404783457517624 0.416482537984848022 -0.187069013714790344
0.271231800317764282 -0.364503383636474609 -0.24015103280544281
0.282081872224807739 -0.30653652548789978 -0.146139353513717651
0.131367281079292297 0.462231248617172241 -0.107074804604053497
0.216290608048439026 0.307136386632919312 -0.138926848769187927
0.321593970060348511 0.306010305881500244 -0.2283305823802948
0.404616773128509521 0.101087369024753571 -0.2584075927734375
0.463416248559951782 -0.113459967076778412 -0.266933947801589966
0.483345299959182739 -0.204410046339035034 -0.165135517716407776
0.31783786416053772 -0.236619263887405396 -0.224316805601119995
0.32338416576385498 0.292274326086044312 -0.118753403425216675
0.32378879189491272 0.0793462768197059631 -0.186354100704193115
0.458034783601760864 -0.0968305543065071106 -0.158452987670898438
-0.452389031648635864 0.216189265251159668 0.0730621814727783203
-0.344980776309967041 0.204169198870658875 0.0617986060678958893
-0.355405807495117188 -0.0172806885093450546 0.0851930901408195496
-0.201583594083786011 -0.183372527360916138 0.0927358046174049377
-0.209354683756828308 -0.244806185364723206 0.0138202738016843796
-0.354106098413467407 0.483703404664993286 0.0596601627767086029
-0.402529597282409668 0.38262641429901123 0.0651499181985855103
-0.0936957746744155884 -0.374378949403762817 0.0616650916635990143
-0.0129904067143797874 -0.43240058422088623 0.00866072531789541245
-0.139417648315429688 0.532147586345672607 0.0994765758514404297
0.182071417570114136 -0.336319297552108765 -0.0527490898966789246
0.0801522433757781982 0.502518236637115479 0.123823881149291992
0.260855823755264282 -0.131585791707038879 -0.00553335482254624367
0.165497913956642151 0.434678167104721069 0.113038681447505951
0.168725430965423584 0.259725391864776611 0.0753527060151100159
0.414277493953704834 -0.229507938027381897 0.0466654971241950989
0.35084998607635498 -0.0920157581567764282 -0.0560968257486820221
0.27240753173828125 0.226353511214256287 0.09159088134765625
0.214257925748825073 0.0295922011137008667 0.00281929969787597656
0.342433124780654907 -0.151954427361488342 0.0261596273630857468
-0.427198410034179688 0.204077646136283875 0.299793154001235962
-0.316946864128112793 0.213201940059661865 0.289945423603057861
-0.190527781844139099 0.13304901123046875 0.138581648468971252
-0.0928470045328140259 -0.0195188522338867188 -0.000618525897152721882
-0.0733770653605461121 -0.0812446027994155884 0.0921564474701881409
-0.269264489412307739 0.446286410093307495 0.265030026435852051
-0.355136066675186157 0.368948459625244141 0.281926393508911133
0.0512055009603500366 -0.207481488585472107 0.105409286916255951
-0.0335257388651371002 -0.21631622314453125 0.0332771018147468567
-0.10424342006444931 0.323337674140930176 0.173843085765838623
0.170625954866409302 -0.200176388025283813 0.123948715627193451
0.0461891740560531616 0.402042120695114136 0.321699738502502441
0.392916560173034668 -0.216343596577644348 0.153930187225341797
0.15533311665058136 0.387525737285614014 0.332482039928436279
0.25851932168006897 0.250100970268249512 0.281114757061004639
0.545383214950561523 -0.0847243368625640869 0.157432213425636292
0.470244556665420532 -0.225501313805580139 0.0742680728435516357
0.210866928100585938 0.151970267295837402 0.296328753232955933
0.358897626399993896 0.145367801189422607 0.130093097686767578
0.447371363639831543 -0.0504641346633434296 0.198206737637519836
-0.327938616275787354 0.105293460190296173 0.277949064970016479
-0.129735127091407776 0.0639029443264007568 0.178427010774612427
-0.188555046916007996 -0.0836960375308990479 0.0238345358520746231
-0.249293193221092224 0.39922332763671875 0.364385843276977539
-0.168109625577926636 0.258088052272796631 0.43946540355682373
-0.219493597745895386 0.137904256582260132 0.445143669843673706
-0.189161300659179688 -0.0339730717241764069 0.307561159133911133
-0.0532559007406234741 -0.0696249827742576599 0.13990078866481781
0.0349753238260746002 -0.30806279182434082 0.0165520403534173965
-0.0664111524820327759 -0.201383009552955627 0.110689230263233185
-0.135218754410743713 0.245998680591583252 0.247219979763031006
0.0181429721415042877 0.299736857414245605 0.321179807186126709
0.207493647933006287 -0.166231140494346619 0.0245322510600090027
0.118992671370506287 -0.081922873854637146 0.15532374382019043
0.0706018730998039246 0.333899170160293579 0.238139122724533081
0.133423119783401489 0.178803786635398865 0.171580314636230469
0.402923315763473511 -0.111513949930667877 0.11478356271982193
0.277224957942962646 -0.039732765406370163 0.00416261795908212662
0.17314910888671875 0.0792435705661773682 0.25891152024269104
0.291937410831451416 0.15164029598236084 0.372355997562408447
0.279953837394714355 0.180487096309661865 0.0894125849008560181
0.424616694450378418 0.199571892619132996 0.197458267211914062
0.274485170841217041 -0.037380170077085495 0.142452031373977661
0.446859091520309448 -0.00279255211353302002 0.100847311317920685
-0.209569931030273438 0.205164447426795959 0.352607965469360352
-0.140636995434761047 0.0259295105934143066 0.238260373473167419
-0.0148827694356441498 -0.154779940843582153 0.195111721754074097
0.0100653516128659248 0.211738243699073792 0.385860562324523926
0.0474970676004886627 0.139591455459594727 0.178462773561477661
0.112532205879688263 -0.0355648696422576904 0.0550012923777103424
0.0759778693318367004 0.0912405326962471008 0.207425877451896667
0.264539718627929688 0.208206906914710999 0.195494890213012695
0.328145712614059448 0.0294159911572933197 0.0746115595102310181
3 0 1 2
3 1 3 4
3 2 1 4
3 3 5 6
3 4 3 6
3 5 7 6
3 0 8 9
3 1 0 9
3 9 10 1
3 1 10 3
3 10 11 3
3 3 11 5
3 5 11 12
3 7 5 12
3 8 13 14
3 9 8 14
3 14 15 9
3 9 15 10
3 15 16 10
3 10 16 11
3 11 16 17
3 12 11 17
3 14 13 18
3 15 14 18
3 19 15 18
3 16 15 19
3 20 16 19
3 16 20 17
3 21 22 23
3 22 24 25
3 23 22 25
3 24 26 27
3 25 24 27
3 26 28 27
3 29 30 31
3 2 22 21
3 0 2 21
3 0 21 31
3 0 31 30
3 4 22 2
3 24 22 4
3 6 24 4
3 26 24 6
3 26 32 28
3 6 32 26
3 6 33 32
3 6 7 33
3 33 34 32
3 29 35 36
3 30 29 36
3 36 0 30
3 8 0 36
3 12 33 7
3 37 33 12
3 33 37 38
3 34 33 38
3 35 39 40
3 36 35 40
3 40 8 36
3 13 8 40
3 17 37 12
3 41 37 17
3 37 41 42
3 38 37 42
3 40 39 43
3 43 44 45
3 40 43 45
3 40 45 18
3 40 18 13
3 18 46 19
3 45 46 18
3 19 47 20
3 46 47 19
3 48 49 41
3 47 48 41
3 47 41 17
3 47 17 20
3 41 49 42
3 45 44 50
3 46 45 50
3 51 46 50
3 47 46 51
3 52 47 51
3 47 52 48
3 53 21 23
3 54 53 23
3 23 25 54
3 25 55 54
3 25 27 55
3 27 56 55
3 28 57 56
3 27 28 56
3 58 29 31
3 59 58 31
3 31 53 59
3 21 53 31
3 60 28 32
3 57 28 60
3 34 61 60
3 32 34 60
3 35 29 62
3 62 29 58
3 38 63 34
3 63 61 34
3 39 35 64
3 64 35 62
3 42 65 38
3 65 63 38
3 66 43 39
3 64 66 39
3 44 66 67
3 43 66 44
3 68 49 48
3 69 49 68
3 49 69 65
3 42 49 65
3 70 50 44
3 67 70 44
3 50 70 51
3 51 70 71
3 51 71 52
3 52 71 72
3 52 72 68
3 48 52 68
3 73 53 54
3 74 73 54
3 54 55 74
3 55 75 74
3 55 56 75
3 56 76 75
3 57 77 76
3 56 57 76
3 78 58 59
3 79 78 59
3 59 73 79
3 53 73 59
3 80 57 60
3 77 57 80
3 61 81 80
3 60 61 80
3 62 58 82
3 82 58 78
3 63 83 61
3 83 81 61
3 64 62 84
3 84 62 82
3 65 85 63
3 85 83 63
3 86 66 64
3 84 86 64
3 67 86 87
3 66 86 67
3 88 69 68
3 89 69 88
3 69 89 85
3 65 69 85
3 90 70 67
3 87 90 67
3 70 90 71
3 71 90 91
3 71 91 72
3 72 91 92
3 72 92 88
3 68 72 88
3 73 74 93
3 74 75 94
3 93 74 94
3 75 76 95
3 94 75 95
3 76 77 95
3 78 79 96
3 97 93 98
3 96 93 97
3 96 73 93
3 96 79 73
3 94 98 93
3 99 98 94
3 95 99 94
3 100 99 95
3 100 101 102
3 95 101 100
3 95 80 101
3 95 77 80
3 80 81 101
3 82 78 96
3 103 82 96
3 96 104 103
3 97 104 96
3 102 105 106
3 101 105 102
3 105 101 81
3 83 105 81
3 84 82 103
3 107 84 103
3 103 108 107
3 104 108 103
3 106 109 110
3 105 109 106
3 109 105 83
3 85 109 83
3 86 84 107
3 107 108 111
3 86 107 111
3 86 111 112
3 86 112 87
3 112 113 114
3 111 113 112
3 114 115 116
3 113 115 114
3 89 110 109
3 88 110 89
3 88 115 110
3 88 116 115
3 89 109 85
3 90 87 112
3 91 90 112
3 114 91 112
3 92 91 114
3 116 92 114
3 92 116 88
3 97 98 117
3 98 99 118
3 117 98 118
3 99 100 119
3 118 99 119
3 100 102 119
3 104 97 117
3 120 104 117
3 120 117 121
3 117 118 121
3 121 118 122
3 118 119 122
3 122 119 102
3 106 122 102
3 108 104 120
3 123 108 120
3 123 120 124
3 120 121 124
3 124 121 125
3 121 122 125
3 125 122 106
3 110 125 106
3 111 108 123
3 113 111 123
3 124 113 123
3 115 113 124
3 125 115 124
3 115 125 110
