ply
format ascii 1.0
comment VCGLIB generated
element vertex 126
property float x
property float y
property float z
element face 248
property list uchar int vertex_indices
end_header
-0.163721352815628052 0.303862810134887695 -0.40528520941734314
-0.144010275602340698 0.208948388695716858 -0.470533549785614014
-0.246612012386322021 0.198615178465843201 -0.428600817918777466
-0.128462657332420349 -0.0149735761806368828 -0.529095649719238281
-0.228181570768356323 -0.0213964600116014481 -0.458766579627990723
-0.117011755704879761 -0.202037245035171509 -0.40147051215171814
-0.196020945906639099 -0.245128199458122253 -0.453388184309005737
-0.11172022670507431 -0.305471122264862061 -0.359355717897415161
-0.0144604276865720749 0.216909795999526978 -0.259775608777999878
0.00957761518657207489 0.136800855398178101 -0.328427731990814209
0.0915445610880851746 -0.00379778607748448849 -0.488236308097839355
0.0973401740193367004 -0.208144590258598328 -0.399357080459594727
0.108902797102928162 -0.279975295066833496 -0.322843611240386963
0.177568703889846802 0.317497849464416504 -0.32033836841583252
0.210831508040428162 0.226141884922981262 -0.368203610181808472
0.294887006282806396 0.0235334392637014389 -0.403875797986984253
0.308474123477935791 -0.183539837598800659 -0.334961920976638794
0.321053087711334229 -0.287023603916168213 -0.30941656231880188
0.300574988126754761 0.254997879266738892 -0.311401247978210449
0.39035525918006897 0.0540050752460956573 -0.357622265815734863
0.400262564420700073 -0.168319672346115112 -0.308603554964065552
-0.421806067228317261 0.285432994365692139 -0.22665722668170929
-0.385916590690612793 0.186673060059547424 -0.321154087781906128
-0.363886713981628418 0.194894030690193176 -0.210164964199066162
-0.349453508853912354 -0.033360455185174942 -0.319053620100021362
-0.380886644124984741 -0.0294833127409219742 -0.207348048686981201
-0.293193548917770386 -0.247396081686019897 -0.300464987754821777
-0.315956383943557739 -0.239056780934333801 -0.188519790768623352
-0.273748129606246948 -0.331522583961486816 -0.195218324661254883
-0.238846376538276672 0.504539251327514648 -0.198236703872680664
-0.207428261637687683 0.434321820735931396 -0.286034524440765381
-0.317326962947845459 0.431090444326400757 -0.204813316464424133
-0.109115332365036011 -0.413544386625289917 -0.199415519833564758
-0.137055262923240662 -0.285156577825546265 -0.188148200511932373
-0.0335843227803707123 -0.346324145793914795 -0.231242701411247253
-0.0688457489013671875 0.430806249380111694 -0.0788848772644996643
-0.0468567460775375366 0.352971673011779785 -0.151569336652755737
0.0708661749958992004 -0.3023701012134552 -0.153459146618843079
0.0920431986451148987 -0.198246687650680542 -0.132903039455413818
0.128827780485153198 0.524677932262420654 -0.123251169919967651
0.14297349750995636 0.454942077398300171 -0.210210427641868591
0.280581891536712646 -0.349805504083633423 -0.153954535722732544
0.287020564079284668 -0.301328688859939575 -0.0580198429524898529
0.228229254484176636 0.478739410638809204 -0.104492396116256714
0.348123818635940552 0.345069289207458496 -0.0662944987416267395
0.392120927572250366 0.261008203029632568 -0.16252058744430542
0.449013024568557739 0.040852520614862442 -0.190658912062644958
0.53850853443145752 -0.153999596834182739 -0.227994412183761597
0.524283826351165771 -0.246379464864730835 -0.131720483303070068
0.337294161319732666 -0.230483949184417725 -0.139954268932342529
0.394875675439834595 0.240378618240356445 -0.0577393621206283569
0.378712266683578491 0.0211705006659030914 -0.109902113676071167
0.505522310733795166 -0.151206120848655701 -0.115324944257736206
-0.466221421957015991 0.30562293529510498 -0.00365189160220324993
-0.431538999080657959 0.202081680297851562 0.00428557395935058594
-0.442002177238464355 -0.0267648622393608093 0.00418135104700922966
-0.351512104272842407 -0.236594483256340027 0.0271276067942380905
-0.26638031005859375 -0.321786224842071533 0.0306001733988523483
-0.300118595361709595 0.536267280578613281 0.0207069944590330124
-0.401096343994140625 0.484393447637557983 0.0107589792460203171
-0.0970418155193328857 -0.350226074457168579 0.0111859189346432686
-0.0405434221029281616 -0.441048204898834229 -0.00979253277182579041
-0.0847734734416007996 0.607168316841125488 0.0614758916199207306
0.161654606461524963 -0.365661501884460449 -0.0015243462985381484
0.138939455151557922 0.590877115726470947 0.0956838503479957581
0.245641991496086121 -0.215486481785774231 0.132944762706756592
0.194298878312110901 0.499664813280105591 0.116156168282032013
0.233090266585350037 0.328734457492828369 0.128036737442016602
0.456384927034378052 -0.273912012577056885 0.0936615467071533203
0.26935306191444397 -0.166988492012023926 0.0380885601043701172
0.26729312539100647 0.212350144982337952 0.119773149490356445
0.35644260048866272 0.00313492142595350742 0.108031719923019409
0.362521588802337646 -0.211866229772567749 0.0745119377970695496
-0.485679090023040771 0.298389345407485962 0.223099678754806519
-0.513820648193359375 0.195216938853263855 0.218403175473213196
-0.47673499584197998 -0.0286262296140193939 0.232732981443405151
-0.316128045320510864 -0.180979505181312561 0.236403271555900574
-0.232561662793159485 -0.282744914293289185 0.258035659790039062
-0.311679840087890625 0.509542346000671387 0.249401167035102844
-0.38059234619140625 0.438545018434524536 0.238599434494972229
-0.0354044772684574127 -0.282362997531890869 0.193788662552833557
-0.0449493974447250366 -0.230268880724906921 0.0919164940714836121
-0.0848906412720680237 0.5158882737159729 0.250292003154754639
0.129043042659759521 -0.287798613309860229 0.209753856062889099
0.115413665771484375 0.571483373641967773 0.316877543926239014
0.380990177392959595 -0.335437297821044922 0.193831071257591248
0.233929499983787537 0.542614102363586426 0.329787731170654297
0.308866500854492188 0.372130841016769409 0.326044917106628418
0.510268926620483398 -0.0841365903615951538 0.157685622572898865
0.421767920255661011 -0.28671678900718689 0.0972574129700660706
0.353616982698440552 0.255776584148406982 0.320352494716644287
0.484395712614059448 0.0912999063730239868 0.237504929304122925
0.529884636402130127 -0.102342046797275543 0.204087331891059875
-0.457715988159179688 0.208635464310646057 0.324299156665802002
-0.38345065712928772 0.00504929525777697563 0.299835383892059326
-0.258620142936706543 -0.123883679509162903 0.167993307113647461
-0.299532771110534668 0.462681055068969727 0.352762103080749512
-0.241907671093940735 0.343920081853866577 0.47997748851776123
-0.340426325798034668 0.282344192266464233 0.414358228445053101
-0.244297310709953308 0.0983487814664840698 0.372349202632904053
-0.158337190747261047 -0.00651723472401499748 0.235695332288742065
0.04314422607421875 -0.174468070268630981 0.112800426781177521
-0.0910554602742195129 -0.0832686424255371094 0.132723197340965271
-0.0928797051310539246 0.470453411340713501 0.343210190534591675
-0.0278009697794914246 0.389489710330963135 0.468528449535369873
0.117549896240234375 -0.216293588280677795 0.300661325454711914
0.112224310636520386 -0.04932369664311409 0.273631632328033447
0.109940938651561737 0.507618546485900879 0.427229255437850952
0.170811250805854797 0.360615909099578857 0.382976531982421875
0.341469913721084595 -0.260061532258987427 0.254693210124969482
0.267174601554870605 -0.06434641033411026 0.187057092785835266
0.217102602124214172 0.245444849133491516 0.355431854724884033
0.414432793855667114 0.311264216899871826 0.383071750402450562
0.328454971313476562 0.2387971431016922 0.156308412551879883
0.512268900871276855 0.199891760945320129 0.224711224436759949
0.283249437808990479 0.0331111215054988861 0.282462656497955322
0.469018399715423584 -0.00598586024716496468 0.254369288682937622
-0.239308223128318787 0.323143869638442993 0.379463791847229004
-0.143030717968940735 0.13501209020614624 0.329307824373245239
-0.0826508700847625732 -0.0697762295603752136 0.247626647353172302
-0.0227873660624027252 0.275010138750076294 0.46197807788848877
0.053272247314453125 0.254115909337997437 0.268488436937332153
0.126243323087692261 0.0311723407357931137 0.20932692289352417
0.110529489815235138 0.289683789014816284 0.312610030174255371
0.274945676326751709 0.313131034374237061 0.255627989768981934
0.356355398893356323 0.0601023510098457336 0.246394708752632141
3 0 1 2
3 1 3 4
3 2 1 4
3 3 5 6
3 4 3 6
3 5 7 6
3 0 8 9
3 1 0 9
3 9 10 1
3 1 10 3
3 10 11 3
3 3 11 5
3 5 11 12
3 7 5 12
3 8 13 14
3 9 8 14
3 14 15 9
3 9 15 10
3 15 16 10
3 10 16 11
3 11 16 17
3 12 11 17
3 14 13 18
3 15 14 18
3 19 15 18
3 16 15 19
3 20 16 19
3 16 20 17
3 21 22 23
3 22 24 25
3 23 22 25
3 24 26 27
3 25 24 27
3 26 28 27
3 29 30 31
3 2 22 21
3 0 2 21
3 0 21 31
3 0 31 30
3 4 22 2
3 24 22 4
3 6 24 4
3 26 24 6
3 26 32 28
3 6 32 26
3 6 33 32
3 6 7 33
3 33 34 32
3 29 35 36
3 30 29 36
3 36 0 30
3 8 0 36
3 12 33 7
3 37 33 12
3 33 37 38
3 34 33 38
3 35 39 40
3 36 35 40
3 40 8 36
3 13 8 40
3 17 37 12
3 41 37 17
3 37 41 42
3 38 37 42
3 40 39 43
3 43 44 45
3 40 43 45
3 40 45 18
3 40 18 13
3 18 46 19
3 45 46 18
3 19 47 20
3 46 47 19
3 48 49 41
3 47 48 41
3 47 41 17
3 47 17 20
3 41 49 42
3 45 44 50
3 46 45 50
3 51 46 50
3 47 46 51
3 52 47 51
3 47 52 48
3 53 21 23
3 54 53 23
3 23 25 54
3 25 55 54
3 25 27 55
3 27 56 55
3 28 57 56
3 27 28 56
3 58 29 31
3 59 58 31
3 31 53 59
3 21 53 31
3 60 28 32
3 57 28 60
3 34 61 60
3 32 34 60
3 35 29 62
3 62 29 58
3 38 63 34
3 63 61 34
3 39 35 64
3 64 35 62
3 42 65 38
3 65 63 38
3 66 43 39
3 64 66 39
3 44 66 67
3 43 66 44
3 68 49 48
3 69 49 68
3 49 69 65
3 42 49 65
3 70 50 44
3 67 70 44
3 50 70 51
3 51 70 71
3 51 71 52
3 52 71 72
3 52 72 68
3 48 52 68
3 73 53 54
3 74 73 54
3 54 55 74
3 55 75 74
3 55 56 75
3 56 76 75
3 57 77 76
3 56 57 76
3 78 58 59
3 79 78 59
3 59 73 79
3 53 73 59
3 80 57 60
3 77 57 80
3 61 81 80
3 60 61 80
3 62 58 82
3 82 58 78
3 63 83 61
3 83 81 61
3 64 62 84
3 84 62 82
3 65 85 63
3 85 83 63
3 86 66 64
3 84 86 64
3 67 86 87
3 66 86 67
3 88 69 68
3 89 69 88
3 69 89 85
3 65 69 85
3 90 70 67
3 87 90 67
3 70 90 71
3 71 90 91
3 71 91 72
3 72 91 92
3 72 92 88
3 68 72 88
3 73 74 93
3 74 75 94
3 93 74 94
3 75 76 95
3 94 75 95
3 76 77 95
3 78 79 96
3 97 93 98
3 96 93 97
3 96 73 93
3 96 79 73
3 94 98 93
3 99 98 94
3 95 99 94
3 100 99 95
3 100 101 102
3 95 101 100
3 95 80 101
3 95 77 80
3 80 81 101
3 82 78 96
3 103 82 96
3 96 104 103
3 97 104 96
3 102 105 106
3 101 105 102
3 105 101 81
3 83 105 81
3 84 82 103
3 107 84 103
3 103 108 107
3 104 108 103
3 106 109 110
3 105 109 106
3 109 105 83
3 85 109 83
3 86 84 107
3 107 108 111
3 86 107 111
3 86 111 112
3 86 112 87
3 112 113 114
3 111 113 112
3 114 115 116
3 113 115 114
3 89 110 109
3 88 110 89
3 88 115 110
3 88 116 115
3 89 109 85
3 90 87 112
3 91 90 112
3 114 91 112
3 92 91 114
3 116 92 114
3 92 116 88
3 97 98 117
3 98 99 118
3 117 98 118
3 99 100 119
3 118 99 119
3 100 102 119
3 104 97 117
3 120 104 117
3 120 117 121
3 117 118 121
3 121 118 122
3 118 119 122
3 122 119 102
3 106 122 102
3 108 104 120
3 123 108 120
3 123 120 124
3 120 121 124
3 124 121 125
3 121 122 125
3 125 122 106
3 110 125 106
3 111 108 123
3 113 111 123
3 124 113 123
3 115 113 124
3 125 115 124
3 115 125 110
