ply
format ascii 1.0
comment VCGLIB generated
element vertex 126
property float x
property float y
property float z
element face 248
property list uchar int vertex_indices
end_header
-0.129137039184570312 0.256571054458618164 -0.552991032600402832
-0.11818249523639679 0.199451878666877747 -0.457607895135879517
-0.195153549313545227 0.143366426229476929 -0.513498544692993164
-0.102632835507392883 0.0149918757379055023 -0.331398636102676392
-0.136928558349609375 -0.0505515709519386292 -0.411448448896408081
-0.181186988949775696 -0.197756350040435791 -0.329709649085998535
-0.083789825439453125 -0.226689860224723816 -0.279128730297088623
-0.203305870294570923 -0.295249223709106445 -0.28075137734413147
0.08289337158203125 0.26592552661895752 -0.483091652393341064
0.0932931900024414062 0.15644150972366333 -0.510433495044708252
0.060831703245639801 -0.0613256692886352539 -0.464495211839675903
0.0202131271362304688 -0.270224690437316895 -0.392732799053192139
-0.00287373852916061878 -0.368829429149627686 -0.349060893058776855
0.285887718200683594 0.246275797486305237 -0.387512624263763428
0.264617592096328735 0.139536097645759583 -0.367751508951187134
0.278097778558731079 -0.0818846821784973145 -0.41010814905166626
0.241525962948799133 -0.298943161964416504 -0.360000133514404297
0.216635063290596008 -0.390943825244903564 -0.302112698554992676
0.376777619123458862 0.1437654048204422 -0.368647158145904541
0.330885231494903564 -0.0702961534261703491 -0.313705593347549438
0.223272636532783508 -0.259960293769836426 -0.258818656206130981
-0.300474166870117188 0.260948389768600464 -0.287482142448425293
-0.319223403930664062 0.16443401575088501 -0.381032615900039673
-0.347887665033340454 0.167606264352798462 -0.276653766632080078
-0.303653061389923096 -0.0515788942575454712 -0.334792524576187134
-0.364877372980117798 -0.0503126047551631927 -0.242468908429145813
-0.258305847644805908 -0.246426954865455627 -0.241210058331489563
-0.358640342950820923 -0.260461181402206421 -0.203161820769309998
-0.303703933954238892 -0.356637388467788696 -0.169267654418945312
-0.0910774841904640198 0.194634422659873962 -0.281915247440338135
-0.093123115599155426 0.212019696831703186 -0.38999059796333313
-0.123836196959018707 0.299246519804000854 -0.275998502969741821
-0.171389579772949219 -0.426048159599304199 -0.0564744062721729279
-0.225362762808799744 -0.442780971527099609 -0.181873634457588196
-0.23784954845905304 -0.360558569431304932 -0.106519855558872223
-0.0185839328914880753 0.401508867740631104 -0.271846234798431396
0.0408458709716796875 0.386014223098754883 -0.358982086181640625
-0.0338252373039722443 -0.331980288028717041 -0.176421195268630981
-0.0278631839901208878 -0.333274513483047485 -0.0646088495850563049
0.149521827697753906 0.257384598255157471 -0.259324103593826294
0.222722679376602173 0.335734099149703979 -0.243708878755569458
0.123236969113349915 -0.494623363018035889 -0.190342053771018982
0.122547142207622528 -0.499966681003570557 -0.0782924890518188477
0.206363990902900696 0.212669730186462402 -0.183682039380073547
0.383307129144668579 0.251351892948150635 -0.195921853184700012
0.466202080249786377 0.137456133961677551 -0.20983634889125824
0.317371666431427002 -0.0206024013459682465 -0.143071204423904419
0.251736640930175781 -0.225545406341552734 -0.0851144343614578247
0.310734093189239502 -0.346992790699005127 -0.0559125319123268127
0.231426551938056946 -0.503924965858459473 -0.104437068104743958
0.436978310346603394 0.193489834666252136 -0.117009274661540985
0.402855843305587769 -0.0261496249586343765 -0.0740983039140701294
0.351742088794708252 -0.243609979748725891 -0.0446609631180763245
-0.320938408374786377 0.292448341846466064 -0.0656459704041481018
-0.40127912163734436 0.222242936491966248 -0.070044592022895813
-0.404493004083633423 -0.000238550113863311708 -0.0255860872566699982
-0.413419395685195923 -0.223030045628547668 0.00234762812033295631
-0.437413841485977173 -0.346861332654953003 0.00797390937805175781
-0.0591071434319019318 0.177879557013511658 -0.0630499869585037231
-0.164699554443359375 0.21120530366897583 -0.0713318586349487305
-0.325872093439102173 -0.474054306745529175 0.0964069291949272156
-0.230131134390830994 -0.499943733215332031 0.0628332272171974182
-0.0243123359978199005 0.399614036083221436 -0.049425758421421051
-0.0332721062004566193 -0.4540061354637146 0.123534001410007477
0.147242546081542969 0.262537777423858643 -0.0351295843720436096
0.191133812069892883 -0.459935545921325684 0.132769733667373657
0.173303276300430298 0.370270639657974243 -0.0339535847306251526
0.335510551929473877 0.315847635269165039 0.0164308138191699982
0.114107124507427216 -0.277179151773452759 0.0268322210758924484
0.0942993089556694031 -0.446552962064743042 0.0711476802825927734
0.256613075733184814 0.243383035063743591 0.0124049177393317223
0.197332695126533508 0.0324016138911247253 -0.00770767498761415482
0.139276176691055298 -0.180980831384658813 -0.013957618735730648
-0.317314445972442627 0.307756572961807251 0.156449273228645325
-0.42237439751625061 0.26814684271812439 0.143754869699478149
-0.495885193347930908 0.0462098941206932068 0.171736478805541992
-0.491263061761856079 -0.194770753383636475 0.1920461505651474
-0.370357811450958252 -0.268519163131713867 0.201444417238235474
-0.0754864960908889771 0.151537060737609863 0.154395699501037598
-0.16017913818359375 0.229670867323875427 0.151755809783935547
-0.197178512811660767 -0.286472976207733154 0.175286918878555298
-0.231959015130996704 -0.270966142416000366 0.145169883966445923
-0.0507052727043628693 0.380706280469894409 0.172853067517280579
-0.0836261063814163208 -0.302220523357391357 0.264719903469085693
0.15546002984046936 0.287834107875823975 0.189140826463699341
0.159502029418945312 -0.265646785497665405 0.228473931550979614
0.103484787046909332 0.372985601425170898 0.182274177670478821
0.273737907409667969 0.341135323047637939 0.229333832859992981
0.315709114074707031 -0.281885892152786255 0.127271801233291626
0.142331123352050781 -0.22484251856803894 0.123816125094890594
0.233249649405479431 0.237590685486793518 0.232269555330276489
0.251576095819473267 0.0151487309485673904 0.208954006433486938
0.321906387805938721 -0.176748946309089661 0.119199745357036591
-0.405791580677032471 0.276190191507339478 0.252290546894073486
-0.45010724663734436 0.0488686114549636841 0.271500736474990845
-0.456263214349746704 -0.182262524962425232 0.2820320725440979
-0.116230644285678864 0.151231363415718079 0.252119302749633789
-0.189010292291641235 0.215302452445030212 0.402304112911224365
-0.31621137261390686 0.26945146918296814 0.408499419689178467
-0.318921387195587158 0.0447282120585441589 0.407575935125350952
-0.355397850275039673 -0.180340170860290527 0.423795968294143677
-0.242718055844306946 -0.372402459383010864 0.243718609213829041
-0.295232117176055908 -0.302999764680862427 0.452372997999191284
-0.0754849091172218323 0.375161886215209961 0.274570375680923462
-0.00527858734130859375 0.344318002462387085 0.43403664231300354
-0.0532547608017921448 -0.267049133777618408 0.313502728939056396
-0.0727224349975585938 -0.31802251935005188 0.478044122457504272
0.0681813508272171021 0.233870342373847961 0.188223108649253845
0.182255104184150696 0.276030153036117554 0.323699891567230225
0.131540298461914062 -0.187494158744812012 0.266984105110168457
0.123612083494663239 -0.306335538625717163 0.377847731113433838
0.191218048334121704 0.191163107752799988 0.431475609540939331
0.311549484729766846 0.235348910093307495 0.307468950748443604
0.274387985467910767 -0.0185800287872552872 0.437435686588287354
0.340085029602050781 0.0133646959438920021 0.276011019945144653
0.237525299191474915 -0.232848092913627625 0.388555318117141724
0.268740653991699219 -0.190112456679344177 0.217207059264183044
-0.24159589409828186 0.270488262176513672 0.488124459981918335
-0.269327163696289062 0.043592207133769989 0.51228642463684082
-0.290921509265899658 -0.186504095792770386 0.508334994316101074
-0.0261751804500818253 0.242140829563140869 0.457528799772262573
-0.050878521054983139 0.0231756363064050674 0.440548032522201538
-0.0719086304306983948 -0.198858141899108887 0.449068725109100342
0.147054985165596008 0.172700703144073486 0.333422601222991943
0.171298980712890625 -0.00474450318142771721 0.467674106359481812
0.149275451898574829 -0.225308328866958618 0.449654638767242432
3 0 1 2
3 1 3 4
3 2 1 4
3 3 5 6
3 4 3 6
3 5 7 6
3 0 8 9
3 1 0 9
3 9 10 1
3 1 10 3
3 10 11 3
3 3 11 5
3 5 11 12
3 7 5 12
3 8 13 14
3 9 8 14
3 14 15 9
3 9 15 10
3 15 16 10
3 10 16 11
3 11 16 17
3 12 11 17
3 14 13 18
3 15 14 18
3 19 15 18
3 16 15 19
3 20 16 19
3 16 20 17
3 21 22 23
3 22 24 25
3 23 22 25
3 24 26 27
3 25 24 27
3 26 28 27
3 29 30 31
3 2 22 21
3 0 2 21
3 0 21 31
3 0 31 30
3 4 22 2
3 24 22 4
3 6 24 4
3 26 24 6
3 26 32 28
3 6 32 26
3 6 33 32
3 6 7 33
3 33 34 32
3 29 35 36
3 30 29 36
3 36 0 30
3 8 0 36
3 12 33 7
3 37 33 12
3 33 37 38
3 34 33 38
3 35 39 40
3 36 35 40
3 40 8 36
3 13 8 40
3 17 37 12
3 41 37 17
3 37 41 42
3 38 37 42
3 40 39 43
3 43 44 45
3 40 43 45
3 40 45 18
3 40 18 13
3 18 46 19
3 45 46 18
3 19 47 20
3 46 47 19
3 48 49 41
3 47 48 41
3 47 41 17
3 47 17 20
3 41 49 42
3 45 44 50
3 46 45 50
3 51 46 50
3 47 46 51
3 52 47 51
3 47 52 48
3 53 21 23
3 54 53 23
3 23 25 54
3 25 55 54
3 25 27 55
3 27 56 55
3 28 57 56
3 27 28 56
3 58 29 31
3 59 58 31
3 31 53 59
3 21 53 31
3 60 28 32
3 57 28 60
3 34 61 60
3 32 34 60
3 35 29 62
3 62 29 58
3 38 63 34
3 63 61 34
3 39 35 64
3 64 35 62
3 42 65 38
3 65 63 38
3 66 43 39
3 64 66 39
3 44 66 67
3 43 66 44
3 68 49 48
3 69 49 68
3 49 69 65
3 42 49 65
3 70 50 44
3 67 70 44
3 50 70 51
3 51 70 71
3 51 71 52
3 52 71 72
3 52 72 68
3 48 52 68
3 73 53 54
3 74 73 54
3 54 55 74
3 55 75 74
3 55 56 75
3 56 76 75
3 57 77 76
3 56 57 76
3 78 58 59
3 79 78 59
3 59 73 79
3 53 73 59
3 80 57 60
3 77 57 80
3 61 81 80
3 60 61 80
3 62 58 82
3 82 58 78
3 63 83 61
3 83 81 61
3 64 62 84
3 84 62 82
3 65 85 63
3 85 83 63
3 86 66 64
3 84 86 64
3 67 86 87
3 66 86 67
3 88 69 68
3 89 69 88
3 69 89 85
3 65 69 85
3 90 70 67
3 87 90 67
3 70 90 71
3 71 90 91
3 71 91 72
3 72 91 92
3 72 92 88
3 68 72 88
3 73 74 93
3 74 75 94
3 93 74 94
3 75 76 95
3 94 75 95
3 76 77 95
3 78 79 96
3 97 93 98
3 96 93 97
3 96 73 93
3 96 79 73
3 94 98 93
3 99 98 94
3 95 99 94
3 100 99 95
3 100 101 102
3 95 101 100
3 95 80 101
3 95 77 80
3 80 81 101
3 82 78 96
3 103 82 96
3 96 104 103
3 97 104 96
3 102 105 106
3 101 105 102
3 105 101 81
3 83 105 81
3 84 82 103
3 107 84 103
3 103 108 107
3 104 108 103
3 106 109 110
3 105 109 106
3 109 105 83
3 85 109 83
3 86 84 107
3 107 108 111
3 86 107 111
3 86 111 112
3 86 112 87
3 112 113 114
3 111 113 112
3 114 115 116
3 113 115 114
3 89 110 109
3 88 110 89
3 88 115 110
3 88 116 115
3 89 109 85
3 90 87 112
3 91 90 112
3 114 91 112
3 92 91 114
3 116 92 114
3 92 116 88
3 97 98 117
3 98 99 118
3 117 98 118
3 99 100 119
3 118 99 119
3 100 102 119
3 104 97 117
3 120 104 117
3 120 117 121
3 117 118 121
3 121 118 122
3 118 119 122
3 122 119 102
3 106 122 102
3 108 104 120
3 123 108 120
3 123 120 124
3 120 121 124
3 124 121 125
3 121 122 125
3 125 122 106
3 110 125 106
3 111 108 123
3 113 111 123
3 124 113 123
3 115 113 124
3 125 115 124
3 115 125 110
