ply
format ascii 1.0
comment VCGLIB generated
element vertex 126
property float x
property float y
property float z
element face 248
property list uchar int vertex_indices
end_header
-0.306310027837753296 0.284986943006515503 -0.367382854223251343
-0.263413757085800171 0.176573023200035095 -0.391637325286865234
-0.319927215576171875 0.169927135109901428 -0.301592022180557251
-0.242677047848701477 -0.0514118857681751251 -0.383385658264160156
-0.319555908441543579 -0.051386568695306778 -0.29210248589515686
-0.05828857421875 -0.0724324658513069153 -0.245608016848564148
-0.129876449704170227 -0.0370268970727920532 -0.174285411834716797
0.000120798744319472462 -0.118399463593959808 -0.163007423281669617
-0.096141815185546875 0.214195534586906433 -0.347975254058837891
-0.06922149658203125 0.20108477771282196 -0.485365241765975952
-0.0198618564754724503 -0.0232749227434396744 -0.436676979064941406
0.0136578874662518501 -0.246021509170532227 -0.362211376428604126
0.0234578456729650497 -0.310191482305526733 -0.270222991704940796
0.098346710205078125 0.31682354211807251 -0.307700961828231812
0.143421173095703125 0.245913967490196228 -0.382341057062149048
0.182806655764579773 0.0240150764584541321 -0.372069031000137329
0.223742172122001648 -0.203482940793037415 -0.320133060216903687
0.249310806393623352 -0.29991227388381958 -0.271726280450820923
0.226233169436454773 0.263799101114273071 -0.30450931191444397
0.27022552490234375 0.0400950312614440918 -0.307679325342178345
0.277028411626815796 -0.171302616596221924 -0.226791545748710632
-0.492792755365371704 0.294913023710250854 -0.106019653379917145
-0.412981659173965454 0.193726822733879089 -0.158790901303291321
-0.489107757806777954 0.202139034867286682 -0.0634628906846046448
-0.448332458734512329 -0.0254908781498670578 -0.166294261813163757
-0.505137145519256592 -0.0131517574191093445 -0.0583939552307128906
-0.259588867425918579 -0.122473277151584625 -0.0873347893357276917
-0.281585693359375 -0.0684192553162574768 -0.00479793548583984375
-0.207396194338798523 -0.0663373693823814392 0.0451777763664722443
-0.390768676996231079 0.348737090826034546 -0.119320869445800781
-0.35111236572265625 0.348948568105697632 -0.21365801990032196
-0.425017029047012329 0.443867325782775879 -0.137785598635673523
-0.072962440550327301 -0.174929201602935791 0.101425327360630035
0.036067962646484375 -0.175136849284172058 0.00100199377629905939
-0.062915802001953125 -0.210787728428840637 -0.00379419326782226562
-0.174256637692451477 0.314777106046676636 -0.0689614638686180115
-0.143166854977607727 0.2629413902759552 -0.157732799649238586
0.0448277778923511505 -0.382871896028518677 -0.0980254784226417542
0.061161041259765625 -0.416640371084213257 0.0134970350190997124
0.009502410888671875 0.445844084024429321 -0.0672241821885108948
0.0318196602165699005 0.408132344484329224 -0.16778390109539032
0.265636444091796875 -0.387517541646957397 -0.109458602964878082
0.272145599126815796 -0.40114322304725647 -0.00373093294911086559
0.117972053587436676 0.446720868349075317 -0.0632079467177391052
0.2784423828125 0.369667857885360718 -0.0427021980285644531
0.313395172357559204 0.269266784191131592 -0.144447967410087585
0.318714141845703125 0.049923676997423172 -0.136671543121337891
0.437769562005996704 -0.130897358059883118 -0.154934406280517578
0.475765228271484375 -0.215797781944274902 -0.045352935791015625
0.377939850091934204 -0.387956112623214722 -0.0184928569942712784
0.243190765380859375 0.270740151405334473 -0.0511515922844409943
0.366171509027481079 0.0904226601123809814 -0.0428274460136890411
0.449281066656112671 -0.104977644979953766 -0.0581129379570484161
-0.578333556652069092 0.332581609487533569 0.110242046415805817
-0.640280425548553467 0.245316341519355774 0.110307060182094574
-0.523148834705352783 0.0755704045295715332 0.14238150417804718
-0.509699523448944092 -0.139575168490409851 0.0752574577927589417
-0.385763794183731079 -0.19857807457447052 0.0803327560424804688
-0.450186401605606079 0.456741243600845337 0.0918246880173683167
-0.563018798828125 0.519957959651947021 0.076658882200717926
-0.234432220458984375 -0.330436497926712036 0.127900600433349609
-0.122229255735874176 -0.365282803773880005 0.152947902679443359
-0.239650726318359375 0.416259407997131348 0.130088016390800476
0.096619926393032074 -0.345989078283309937 0.217737838625907898
-0.0191980991512537003 0.473648279905319214 0.153414085507392883
0.247053787112236023 -0.202135637402534485 0.0910108909010887146
0.097287498414516449 0.495726257562637329 0.158506706357002258
0.211175277829170227 0.367878049612045288 0.17350451648235321
0.42682647705078125 -0.185449719429016113 0.181328132748603821
0.299908965826034546 -0.29159972071647644 0.160778358578681946
0.198630020022392273 0.265185058116912842 0.171999618411064148
0.290760040283203125 0.0669075027108192444 0.162867233157157898
0.328463226556777954 -0.143356159329414368 0.137737274169921875
-0.635434448719024658 0.372082322835922241 0.321552425622940063
-0.63825225830078125 0.284932196140289307 0.33499908447265625
-0.6419219970703125 0.0488517545163631439 0.321058124303817749
-0.413333892822265625 0.00226386100985109806 0.244472667574882507
-0.311710357666015625 -0.0421476848423480988 0.237105205655097961
-0.466908782720565796 0.582974135875701904 0.300863116979598999
-0.53174591064453125 0.497232288122177124 0.312858909368515015
-0.260417938232421875 -0.19799359142780304 0.308967441320419312
-0.15606689453125 -0.173776090145111084 0.265160888433456421
-0.25439453125 0.503588736057281494 0.328424930572509766
0.0592219047248363495 -0.110061109066009521 0.199631527066230774
-0.053050994873046875 0.504884183406829834 0.380685180425643921
0.25464630126953125 -0.0695420876145362854 0.273583263158798218
0.0423304252326488495 0.501574516296386719 0.37977328896522522
0.18105316162109375 0.388995975255966187 0.392974853515625
0.356877654790878296 -0.113465428352355957 0.377316474914550781
0.218354538083076477 -0.164650321006774902 0.298089176416397095
0.190799713134765625 0.277291595935821533 0.39701494574546814
0.291951507329940796 0.082798980176448822 0.385507732629776001
0.258722931146621704 -0.137261256575584412 0.352437973022460938
-0.630753815174102783 0.285032987594604492 0.443720012903213501
-0.552112579345703125 0.0915120020508766174 0.455405563116073608
-0.372425079345703125 0.0381562821567058563 0.333933353424072266
-0.495096832513809204 0.534778714179992676 0.410691261291503906
-0.470297485589981079 0.430889278650283813 0.560438156127929688
-0.548123657703399658 0.339935630559921265 0.60122758150100708
-0.455385833978652954 0.128396347165107727 0.594034969806671143
-0.354132324457168579 -0.0698463544249534607 0.491676419973373413
-0.154804229736328125 -0.229273185133934021 0.339485019445419312
-0.211203262209892273 -0.0989440903067588806 0.472392410039901733
-0.296807616949081421 0.535854816436767578 0.457502841949462891
-0.261102050542831421 0.467909008264541626 0.607000172138214111
0.0414072684943675995 -0.105318553745746613 0.31280517578125
-0.02142333984375 0.0299935489892959595 0.40463605523109436
-0.072779335081577301 0.517367839813232422 0.477007865905761719
-0.085384368896484375 0.412016183137893677 0.610686838626861572
0.25775909423828125 -0.0653856471180915833 0.369100421667098999
0.127779647707939148 -0.103612639009952545 0.530808508396148682
0.026340484619140625 0.302205294370651245 0.615558862686157227
0.184457138180732727 0.302115321159362793 0.502085685729980469
0.0372632332146167755 0.0762461498379707336 0.554775536060333252
0.21483612060546875 0.096902213990688324 0.465663284063339233
0.0550562553107738495 -0.129117608070373535 0.468878895044326782
0.238572433590888977 -0.119727708399295807 0.456338077783584595
-0.479462951421737671 0.332648962736129761 0.56019216775894165
-0.3784637451171875 0.147170647978782654 0.52435070276260376
-0.248148605227470398 -0.0170558635145425797 0.536332368850708008
-0.309048980474472046 0.351311087608337402 0.649133443832397461
-0.170499160885810852 0.215577378869056702 0.59486919641494751
-0.069573722779750824 0.0888258889317512512 0.491814464330673218
-0.080683387815952301 0.288799196481704712 0.615365445613861084
-0.087769828736782074 0.0632547512650489807 0.573235034942626953
0.069095611572265625 -0.0503910146653652191 0.592199802398681641
3 0 1 2
3 1 3 4
3 2 1 4
3 3 5 6
3 4 3 6
3 5 7 6
3 0 8 9
3 1 0 9
3 9 10 1
3 1 10 3
3 10 11 3
3 3 11 5
3 5 11 12
3 7 5 12
3 8 13 14
3 9 8 14
3 14 15 9
3 9 15 10
3 15 16 10
3 10 16 11
3 11 16 17
3 12 11 17
3 14 13 18
3 15 14 18
3 19 15 18
3 16 15 19
3 20 16 19
3 16 20 17
3 21 22 23
3 22 24 25
3 23 22 25
3 24 26 27
3 25 24 27
3 26 28 27
3 29 30 31
3 2 22 21
3 0 2 21
3 0 21 31
3 0 31 30
3 4 22 2
3 24 22 4
3 6 24 4
3 26 24 6
3 26 32 28
3 6 32 26
3 6 33 32
3 6 7 33
3 33 34 32
3 29 35 36
3 30 29 36
3 36 0 30
3 8 0 36
3 12 33 7
3 37 33 12
3 33 37 38
3 34 33 38
3 35 39 40
3 36 35 40
3 40 8 36
3 13 8 40
3 17 37 12
3 41 37 17
3 37 41 42
3 38 37 42
3 40 39 43
3 43 44 45
3 40 43 45
3 40 45 18
3 40 18 13
3 18 46 19
3 45 46 18
3 19 47 20
3 46 47 19
3 48 49 41
3 47 48 41
3 47 41 17
3 47 17 20
3 41 49 42
3 45 44 50
3 46 45 50
3 51 46 50
3 47 46 51
3 52 47 51
3 47 52 48
3 53 21 23
3 54 53 23
3 23 25 54
3 25 55 54
3 25 27 55
3 27 56 55
3 28 57 56
3 27 28 56
3 58 29 31
3 59 58 31
3 31 53 59
3 21 53 31
3 60 28 32
3 57 28 60
3 34 61 60
3 32 34 60
3 35 29 62
3 62 29 58
3 38 63 34
3 63 61 34
3 39 35 64
3 64 35 62
3 42 65 38
3 65 63 38
3 66 43 39
3 64 66 39
3 44 66 67
3 43 66 44
3 68 49 48
3 69 49 68
3 49 69 65
3 42 49 65
3 70 50 44
3 67 70 44
3 50 70 51
3 51 70 71
3 51 71 52
3 52 71 72
3 52 72 68
3 48 52 68
3 73 53 54
3 74 73 54
3 54 55 74
3 55 75 74
3 55 56 75
3 56 76 75
3 57 77 76
3 56 57 76
3 78 58 59
3 79 78 59
3 59 73 79
3 53 73 59
3 80 57 60
3 77 57 80
3 61 81 80
3 60 61 80
3 62 58 82
3 82 58 78
3 63 83 61
3 83 81 61
3 64 62 84
3 84 62 82
3 65 85 63
3 85 83 63
3 86 66 64
3 84 86 64
3 67 86 87
3 66 86 67
3 88 69 68
3 89 69 88
3 69 89 85
3 65 69 85
3 90 70 67
3 87 90 67
3 70 90 71
3 71 90 91
3 71 91 72
3 72 91 92
3 72 92 88
3 68 72 88
3 73 74 93
3 74 75 94
3 93 74 94
3 75 76 95
3 94 75 95
3 76 77 95
3 78 79 96
3 97 93 98
3 96 93 97
3 96 73 93
3 96 79 73
3 94 98 93
3 99 98 94
3 95 99 94
3 100 99 95
3 100 101 102
3 95 101 100
3 95 80 101
3 95 77 80
3 80 81 101
3 82 78 96
3 103 82 96
3 96 104 103
3 97 104 96
3 102 105 106
3 101 105 102
3 105 101 81
3 83 105 81
3 84 82 103
3 107 84 103
3 103 108 107
3 104 108 103
3 106 109 110
3 105 109 106
3 109 105 83
3 85 109 83
3 86 84 107
3 107 108 111
3 86 107 111
3 86 111 112
3 86 112 87
3 112 113 114
3 111 113 112
3 114 115 116
3 113 115 114
3 89 110 109
3 88 110 89
3 88 115 110
3 88 116 115
3 89 109 85
3 90 87 112
3 91 90 112
3 114 91 112
3 92 91 114
3 116 92 114
3 92 116 88
3 97 98 117
3 98 99 118
3 117 98 118
3 99 100 119
3 118 99 119
3 100 102 119
3 104 97 117
3 120 104 117
3 120 117 121
3 117 118 121
3 121 118 122
3 118 119 122
3 122 119 102
3 106 122 102
3 108 104 120
3 123 108 120
3 123 120 124
3 120 121 124
3 124 121 125
3 121 122 125
3 125 122 106
3 110 125 106
3 111 108 123
3 113 111 123
3 124 113 123
3 115 113 124
3 125 115 124
3 115 125 110
