ply
format ascii 1.0
comment VCGLIB generated
element vertex 126
property float x
property float y
property float z
element face 248
property list uchar int vertex_indices
end_header
-0.165115088224411011 0.299246311187744141 -0.400647968053817749
-0.146413534879684448 0.208211198449134827 -0.471670478582382202
-0.248673304915428162 0.194854140281677246 -0.430005460977554321
-0.132540300488471985 -0.017757955938577652 -0.529066324234008789
-0.222650259733200073 -0.0262442454695701599 -0.452805608510971069
-0.125075757503509521 -0.200204700231552124 -0.392969518899917603
-0.197063177824020386 -0.247481465339660645 -0.454586058855056763
-0.114269256591796875 -0.30954289436340332 -0.364243805408477783
-0.0148214614018797874 0.217308595776557922 -0.257605999708175659
0.00854219682514667511 0.132838219404220581 -0.328250110149383545
0.0917966067790985107 0.000438026676420122385 -0.487499594688415527
0.0988483428955078125 -0.205516770482063293 -0.413141101598739624
0.103781566023826599 -0.278290808200836182 -0.335710406303405762
0.175428390502929688 0.321022778749465942 -0.313726842403411865
0.208061769604682922 0.230438858270645142 -0.366629034280776978
0.299464643001556396 0.0314769558608531952 -0.413300842046737671
0.303457796573638916 -0.181398972868919373 -0.335869967937469482
0.317516326904296875 -0.291444569826126099 -0.318051934242248535
0.300209879875183105 0.259992450475692749 -0.316315561532974243
0.393668591976165771 0.0525482110679149628 -0.363873422145843506
0.39258277416229248 -0.170324891805648804 -0.327289789915084839
-0.423137128353118896 0.2826823890209198 -0.226183965802192688
-0.380845755338668823 0.184609025716781616 -0.317593634128570557
-0.3659820556640625 0.192670300602912903 -0.205015465617179871
-0.339414060115814209 -0.0333965271711349487 -0.319519221782684326
-0.386408418416976929 -0.0336532816290855408 -0.212600231170654297
-0.287699013948440552 -0.242978081107139587 -0.299570739269256592
-0.31238555908203125 -0.241195440292358398 -0.193389654159545898
-0.282598227262496948 -0.344368666410446167 -0.196527585387229919
-0.240436285734176636 0.504964172840118408 -0.197679996490478516
-0.208191201090812683 0.43236425518989563 -0.28306126594543457
-0.315204352140426636 0.427022933959960938 -0.198322877287864685
-0.117722921073436737 -0.427374303340911865 -0.205568075180053711
-0.137228280305862427 -0.290052264928817749 -0.185755833983421326
-0.0481210462749004364 -0.344762235879898071 -0.231597423553466797
-0.0708879753947257996 0.432250291109085083 -0.0765497386455535889
-0.0470788143575191498 0.353130906820297241 -0.146386280655860901
0.0724479109048843384 -0.299534112215042114 -0.160692080855369568
0.0987175554037094116 -0.190915212035179138 -0.15224882960319519
0.12927873432636261 0.524699091911315918 -0.117743529379367828
0.140085220336914062 0.456802517175674438 -0.20571880042552948
0.2809906005859375 -0.362851589918136597 -0.162845849990844727
0.301227569580078125 -0.298037499189376831 -0.0808984935283660889
0.2300262451171875 0.475860297679901123 -0.102674111723899841
0.35069739818572998 0.345759600400924683 -0.0687972158193588257
0.39302554726600647 0.26228758692741394 -0.165109634399414062
0.451878160238265991 0.049413193017244339 -0.196519926190376282
0.52514350414276123 -0.158286571502685547 -0.206321656703948975
0.506455540657043457 -0.270435154438018799 -0.125597715377807617
0.314558565616607666 -0.21023869514465332 -0.162402734160423279
0.395762592554092407 0.242895320057868958 -0.0525127165019512177
0.374898910522460938 0.0266197677701711655 -0.120806358754634857
0.491897046566009521 -0.164847791194915771 -0.0930012986063957214
-0.465094715356826782 0.310419410467147827 -0.000456060690339654684
-0.440526694059371948 0.199036136269569397 0.0047094481997191906
-0.44086185097694397 -0.0322116091847419739 0.00979730114340782166
-0.338558465242385864 -0.248174816370010376 0.0307457800954580307
-0.280269891023635864 -0.352911710739135742 0.0435914322733879089
-0.303079068660736084 0.538323283195495605 0.0227294657379388809
-0.402777552604675293 0.479734718799591064 0.017418520525097847
-0.0989573374390602112 -0.353983312845230103 0.00671284552663564682
-0.0567654222249984741 -0.43040803074836731 -0.0105980467051267624
-0.0841726586222648621 0.606144487857818604 0.0605492927134037018
0.157801762223243713 -0.322977811098098755 -0.0234876368194818497
0.141303196549415588 0.590982258319854736 0.0983612909913063049
0.251361310482025146 -0.1913023442029953 0.111292265355587006
0.195019587874412537 0.49740639328956604 0.11887669563293457
0.232163846492767334 0.321637272834777832 0.120708942413330078
0.386193156242370605 -0.282277524471282959 0.0839863494038581848
0.254650115966796875 -0.14962400496006012 0.0347626209259033203
0.251855850219726562 0.211233943700790405 0.119820661842823029
0.287523269653320312 0.011115523986518383 0.105183638632297516
0.346206933259963989 -0.186375260353088379 0.0991031154990196228
-0.476230889558792114 0.306114017963409424 0.226989477872848511
-0.51120758056640625 0.199398338794708252 0.221629664301872253
-0.453830450773239136 -0.026731099933385849 0.233930692076683044
-0.289576411247253418 -0.217017635703086853 0.249957695603370667
-0.241971701383590698 -0.333419203758239746 0.256430923938751221
-0.304013669490814209 0.523697137832641602 0.249807834625244141
-0.375792652368545532 0.445760786533355713 0.241528749465942383
-0.0405257083475589752 -0.285019189119338989 0.195602014660835266
-0.0511005967855453491 -0.228934094309806824 0.0978047549724578857
-0.0782557874917984009 0.513063311576843262 0.246500119566917419
0.140916287899017334 -0.266226440668106079 0.182233706116676331
0.126827791333198547 0.572188019752502441 0.316642701625823975
0.421795159578323364 -0.260022789239883423 0.130066871643066406
0.228267401456832886 0.531639277935028076 0.334535151720046997
0.313858300447463989 0.367648720741271973 0.326879203319549561
0.519593119621276855 -0.0895816534757614136 0.142694205045700073
0.450796395540237427 -0.241189688444137573 0.0754719153046607971
0.355772286653518677 0.257331281900405884 0.316627025604248047
0.450367242097854614 0.104904212057590485 0.215205475687980652
0.536824643611907959 -0.0873853787779808044 0.222520321607589722
-0.468602865934371948 0.21625874936580658 0.330002486705780029
-0.375652313232421875 0.0162042472511529922 0.307135939598083496
-0.250829964876174927 -0.144566982984542847 0.200421303510665894
-0.306940078735351562 0.499630063772201538 0.388750702142715454
-0.253249585628509521 0.366810023784637451 0.50282752513885498
-0.326904565095901489 0.283945351839065552 0.401971697807312012
-0.227180212736129761 0.089733026921749115 0.37550315260887146
-0.145130157470703125 -0.00333370175212621689 0.23054446280002594
0.0454671047627925873 -0.177533313632011414 0.111499004065990448
-0.0846917331218719482 -0.0822727084159851074 0.151393920183181763
-0.0907107740640640259 0.471384495496749878 0.33799019455909729
-0.03475189208984375 0.401541054248809814 0.495569378137588501
0.11952536553144455 -0.231465891003608704 0.293944239616394043
0.112875528633594513 -0.0425386764109134674 0.279882639646530151
0.120931357145309448 0.504663705825805664 0.433093994855880737
0.175523757934570312 0.349141329526901245 0.384477734565734863
0.344014853239059448 -0.249209880828857422 0.198526382446289062
0.266805380582809448 -0.0555789843201637268 0.178600385785102844
0.227395474910736084 0.238791152834892273 0.356525540351867676
0.403615415096282959 0.313890337944030762 0.397349447011947632
0.315136224031448364 0.223055362701416016 0.165686264634132385
0.495613664388656616 0.18915984034538269 0.221015393733978271
0.272504270076751709 0.025493428111076355 0.255762845277786255
0.44776645302772522 -0.0143645321950316429 0.231641188263893127
-0.236868187785148621 0.328650563955307007 0.377087593078613281
-0.13957841694355011 0.138337835669517517 0.328076571226119995
-0.0688048750162124634 -0.0614889822900295258 0.231400385499000549
-0.029682433232665062 0.283638685941696167 0.459360569715499878
0.0532422773540019989 0.240818113088607788 0.254558682441711426
0.130657464265823364 0.0324471034109592438 0.198756977915763855
0.112755641341209412 0.273632913827896118 0.303120613098144531
0.269779473543167114 0.306151747703552246 0.253977954387664795
0.339013516902923584 0.0598027072846889496 0.211629197001457214
3 0 1 2
3 1 3 4
3 2 1 4
3 3 5 6
3 4 3 6
3 5 7 6
3 0 8 9
3 1 0 9
3 9 10 1
3 1 10 3
3 10 11 3
3 3 11 5
3 5 11 12
3 7 5 12
3 8 13 14
3 9 8 14
3 14 15 9
3 9 15 10
3 15 16 10
3 10 16 11
3 11 16 17
3 12 11 17
3 14 13 18
3 15 14 18
3 19 15 18
3 16 15 19
3 20 16 19
3 16 20 17
3 21 22 23
3 22 24 25
3 23 22 25
3 24 26 27
3 25 24 27
3 26 28 27
3 29 30 31
3 2 22 21
3 0 2 21
3 0 21 31
3 0 31 30
3 4 22 2
3 24 22 4
3 6 24 4
3 26 24 6
3 26 32 28
3 6 32 26
3 6 33 32
3 6 7 33
3 33 34 32
3 29 35 36
3 30 29 36
3 36 0 30
3 8 0 36
3 12 33 7
3 37 33 12
3 33 37 38
3 34 33 38
3 35 39 40
3 36 35 40
3 40 8 36
3 13 8 40
3 17 37 12
3 41 37 17
3 37 41 42
3 38 37 42
3 40 39 43
3 43 44 45
3 40 43 45
3 40 45 18
3 40 18 13
3 18 46 19
3 45 46 18
3 19 47 20
3 46 47 19
3 48 49 41
3 47 48 41
3 47 41 17
3 47 17 20
3 41 49 42
3 45 44 50
3 46 45 50
3 51 46 50
3 47 46 51
3 52 47 51
3 47 52 48
3 53 21 23
3 54 53 23
3 23 25 54
3 25 55 54
3 25 27 55
3 27 56 55
3 28 57 56
3 27 28 56
3 58 29 31
3 59 58 31
3 31 53 59
3 21 53 31
3 60 28 32
3 57 28 60
3 34 61 60
3 32 34 60
3 35 29 62
3 62 29 58
3 38 63 34
3 63 61 34
3 39 35 64
3 64 35 62
3 42 65 38
3 65 63 38
3 66 43 39
3 64 66 39
3 44 66 67
3 43 66 44
3 68 49 48
3 69 49 68
3 49 69 65
3 42 49 65
3 70 50 44
3 67 70 44
3 50 70 51
3 51 70 71
3 51 71 52
3 52 71 72
3 52 72 68
3 48 52 68
3 73 53 54
3 74 73 54
3 54 55 74
3 55 75 74
3 55 56 75
3 56 76 75
3 57 77 76
3 56 57 76
3 78 58 59
3 79 78 59
3 59 73 79
3 53 73 59
3 80 57 60
3 77 57 80
3 61 81 80
3 60 61 80
3 62 58 82
3 82 58 78
3 63 83 61
3 83 81 61
3 64 62 84
3 84 62 82
3 65 85 63
3 85 83 63
3 86 66 64
3 84 86 64
3 67 86 87
3 66 86 67
3 88 69 68
3 89 69 88
3 69 89 85
3 65 69 85
3 90 70 67
3 87 90 67
3 70 90 71
3 71 90 91
3 71 91 72
3 72 91 92
3 72 92 88
3 68 72 88
3 73 74 93
3 74 75 94
3 93 74 94
3 75 76 95
3 94 75 95
3 76 77 95
3 78 79 96
3 97 93 98
3 96 93 97
3 96 73 93
3 96 79 73
3 94 98 93
3 99 98 94
3 95 99 94
3 100 99 95
3 100 101 102
3 95 101 100
3 95 80 101
3 95 77 80
3 80 81 101
3 82 78 96
3 103 82 96
3 96 104 103
3 97 104 96
3 102 105 106
3 101 105 102
3 105 101 81
3 83 105 81
3 84 82 103
3 107 84 103
3 103 108 107
3 104 108 103
3 106 109 110
3 105 109 106
3 109 105 83
3 85 109 83
3 86 84 107
3 107 108 111
3 86 107 111
3 86 111 112
3 86 112 87
3 112 113 114
3 111 113 112
3 114 115 116
3 113 115 114
3 89 110 109
3 88 110 89
3 88 115 110
3 88 116 115
3 89 109 85
3 90 87 112
3 91 90 112
3 114 91 112
3 92 91 114
3 116 92 114
3 92 116 88
3 97 98 117
3 98 99 118
3 117 98 118
3 99 100 119
3 118 99 119
3 100 102 119
3 104 97 117
3 120 104 117
3 120 117 121
3 117 118 121
3 121 118 122
3 118 119 122
3 122 119 102
3 106 122 102
3 108 104 120
3 123 108 120
3 123 120 124
3 120 121 124
3 124 121 125
3 121 122 125
3 125 122 106
3 110 125 106
3 111 108 123
3 113 111 123
3 124 113 123
3 115 113 124
3 125 115 124
3 115 125 110
