ply
format ascii 1.0
comment VCGLIB generated
element vertex 126
property float x
property float y
property float z
element face 248
property list uchar int vertex_indices
end_header
-0.179347991943359375 0.262110084295272827 -0.483148574829101562
-0.16593170166015625 0.165851578116416931 -0.481472820043563843
-0.280035644769668579 0.157217144966125488 -0.503093540668487549
-0.186779022216796875 -0.0625212565064430237 -0.413759857416152954
-0.250918060541152954 -0.0589460693299770355 -0.479698508977890015
-0.170561477541923523 -0.282528311014175415 -0.381368786096572876
-0.268321990966796875 -0.292956888675689697 -0.414101123809814453
-0.174407958984375 -0.390658289194107056 -0.386527866125106812
0.0270525608211755753 0.249443948268890381 -0.403654575347900391
0.0379880256950855255 0.143141642212867737 -0.408567905426025391
0.0418408699333667755 -0.0636771991848945618 -0.446464389562606812
0.052379608154296875 -0.285866975784301758 -0.407114654779434204
0.0441462211310863495 -0.397429823875427246 -0.375639766454696655
0.240893051028251648 0.244401276111602783 -0.352289050817489624
0.248443603515625 0.144178286194801331 -0.40073123574256897
0.240314483642578125 -0.0648903623223304749 -0.363253593444824219
0.262479156255722046 -0.291662842035293579 -0.363738864660263062
0.273240417242050171 -0.386369854211807251 -0.337900012731552124
0.3602752685546875 0.176898181438446045 -0.38042941689491272
0.349273681640625 -0.0635280907154083252 -0.38706699013710022
0.362139374017715454 -0.277562350034713745 -0.336646407842636108
-0.406955718994140625 0.278372377157211304 -0.27772250771522522
-0.338581085205078125 0.167101487517356873 -0.333817631006240845
-0.397043853998184204 0.1728220134973526 -0.2484130859375
-0.40930938720703125 -0.0518737398087978363 -0.353073447942733765
-0.440097808837890625 -0.0346846692264080048 -0.254392951726913452
-0.40802764892578125 -0.258722126483917236 -0.301925033330917358
-0.34870147705078125 -0.240073129534721375 -0.202073261141777039
-0.402965545654296875 -0.328103601932525635 -0.179815769195556641
-0.209470108151435852 0.447004318237304688 -0.224236011505126953
-0.194609329104423523 0.377092689275741577 -0.340134143829345703
-0.3025054931640625 0.425024539232254028 -0.272708266973495483
-0.263704925775527954 -0.430336266756057739 -0.149148628115653992
-0.189606979489326477 -0.50119704008102417 -0.238545417785644531
-0.182965591549873352 -0.498044282197952271 -0.127605751156806946
-0.00257110595703125 0.441990941762924194 -0.188244983553886414
0.0226885471493005753 0.359876424074172974 -0.280426830053329468
0.0294100437313318253 -0.465581327676773071 -0.216000720858573914
0.0227139797061681747 -0.413788825273513794 -0.121291004121303558
0.219696044921875 0.490744590759277344 -0.202664211392402649
0.229296371340751648 0.413781493902206421 -0.277755260467529297
0.245072677731513977 -0.450053781270980835 -0.162571117281913757
0.221888229250907898 -0.455983519554138184 -0.057942073792219162
0.288420349359512329 0.443030476570129395 -0.156076118350028992
0.397434234619140625 0.314207524061203003 -0.130247429013252258
0.416795104742050171 0.184142723679542542 -0.201633930206298828
0.373368591070175171 -0.0421837158501148224 -0.210866138339042664
0.457399994134902954 -0.234668120741844177 -0.193899795413017273
0.466447204351425171 -0.301677793264389038 -0.0559886284172534943
0.323191314935684204 -0.407783538103103638 -0.0553719215095043182
0.340113312005996704 0.210862979292869568 -0.139851406216621399
0.400730133056640625 0.018766423687338829 -0.13736279308795929
0.41168975830078125 -0.20198822021484375 -0.0898025855422019958
-0.463559478521347046 0.320265740156173706 -0.0608032532036304474
-0.465382903814315796 0.215751484036445618 -0.0454664230346679688
-0.43802642822265625 -0.00530121102929115295 -0.0258960723876953125
-0.313695281744003296 -0.171197950839996338 0.0127832097932696342
-0.329664856195449829 -0.267630815505981445 0.0117373466491699219
-0.280492156744003296 0.56179964542388916 -0.0424942970275878906
-0.32068634033203125 0.441213846206665039 -0.0510533638298511505
-0.314676910638809204 -0.439179807901382446 0.0716315880417823792
-0.24114227294921875 -0.362733244895935059 0.0560062713921070099
-0.0316530875861644745 0.5938759446144104 -0.0129556655883789062
-0.0199139919131994247 -0.342979699373245239 0.0830124244093894958
0.188294723629951477 0.574800670146942139 -0.00380659103393554688
0.197434738278388977 -0.334449440240859985 0.132496044039726257
0.197322845458984375 0.472823411226272583 0.0449261665344238281
0.328809112310409546 0.369129687547683716 0.0761284828186035156
0.407243102788925171 -0.23398841917514801 0.153168365359306335
0.282278686761856079 -0.368081837892532349 0.169995948672294617
0.277479797601699829 0.264121145009994507 0.0710598602890968323
0.351960510015487671 0.0613910406827926636 0.0774736404418945312
0.377535492181777954 -0.140703469514846802 0.0988396033644676208
-0.42986297607421875 0.250772386789321899 0.167345523834228516
-0.541990935802459717 0.179247930645942688 0.164761379361152649
-0.480077117681503296 0.0274748951196670532 0.212181568145751953
-0.395571380853652954 -0.164573058485984802 0.225189685821533203
-0.3104095458984375 -0.234412148594856262 0.229951217770576477
-0.318363189697265625 0.542732596397399902 0.169949844479560852
-0.319475799798965454 0.376993805170059204 0.173218563199043274
-0.368157714605331421 -0.388043999671936035 0.272637218236923218
-0.263523101806640625 -0.340943783521652222 0.290142059326171875
-0.110296882688999176 0.656597673892974854 0.214617565274238586
-0.071675620973110199 -0.2924785315990448 0.32252010703086853
0.117382049560546875 0.649289131164550781 0.235907390713691711
0.116558074951171875 -0.314838409423828125 0.361776500940322876
0.158707931637763977 0.547981202602386475 0.236058875918388367
0.198108673095703125 0.376724392175674438 0.268120616674423218
0.35301971435546875 -0.148774608969688416 0.346752166748046875
0.22011566162109375 -0.28189164400100708 0.364229202270507812
0.2535858154296875 0.292233973741531372 0.281868129968643188
0.395112365484237671 0.144812420010566711 0.27864345908164978
0.3463134765625 -0.0597993619740009308 0.300202518701553345
-0.503665924072265625 0.236639738082885742 0.283501476049423218
-0.435841888189315796 0.0444121621549129486 0.302540302276611328
-0.302563995122909546 -0.0965270474553108215 0.275210708379745483
-0.29827117919921875 0.497687458992004395 0.254536956548690796
-0.369668334722518921 0.456208586692810059 0.412602901458740234
-0.4160614013671875 0.325217574834823608 0.394434303045272827
-0.412592560052871704 0.127893522381782532 0.46234545111656189
-0.426252990961074829 -0.107446305453777313 0.431613922119140625
-0.274789184331893921 -0.35355532169342041 0.39706149697303772
-0.3245086669921875 -0.180819198489189148 0.505593299865722656
-0.128814697265625 0.623195946216583252 0.331853866577148438
-0.135431930422782898 0.546512901782989502 0.495893865823745728
-0.084536232054233551 -0.234803870320320129 0.447037845849990845
-0.106328330934047699 -0.144409507513046265 0.611056089401245117
0.092389427125453949 0.59915924072265625 0.338431507349014282
0.094427742063999176 0.562360823154449463 0.542794167995452881
0.128482818603515625 -0.242709651589393616 0.459819793701171875
0.062145233154296875 -0.0951094329357147217 0.501124203205108643
0.149367019534111023 0.401698946952819824 0.5200539231300354
0.278066009283065796 0.356523782014846802 0.389009952545166016
0.107037864625453949 0.200699135661125183 0.499218612909317017
0.28301239013671875 0.171948835253715515 0.339791625738143921
0.101252235472202301 -0.0400141067802906036 0.382982879877090454
0.286333709955215454 -0.0240150745958089828 0.340646266937255859
-0.341053009033203125 0.371597141027450562 0.472670882940292358
-0.392939239740371704 0.167556285858154297 0.607264101505279541
-0.393503814935684204 -0.093771032989025116 0.550375163555145264
-0.098561607301235199 0.460341721773147583 0.413657993078231812
-0.130425766110420227 0.204309597611427307 0.501980781555175781
-0.167629241943359375 -0.0167709905654191971 0.642828226089477539
0.124361671507358551 0.433116912841796875 0.444319874048233032
0.1488037109375 0.219365194439888 0.420932143926620483
0.053974151611328125 -0.000609679205808788538 0.510324656963348389
3 0 1 2
3 1 3 4
3 2 1 4
3 3 5 6
3 4 3 6
3 5 7 6
3 0 8 9
3 1 0 9
3 9 10 1
3 1 10 3
3 10 11 3
3 3 11 5
3 5 11 12
3 7 5 12
3 8 13 14
3 9 8 14
3 14 15 9
3 9 15 10
3 15 16 10
3 10 16 11
3 11 16 17
3 12 11 17
3 14 13 18
3 15 14 18
3 19 15 18
3 16 15 19
3 20 16 19
3 16 20 17
3 21 22 23
3 22 24 25
3 23 22 25
3 24 26 27
3 25 24 27
3 26 28 27
3 29 30 31
3 2 22 21
3 0 2 21
3 0 21 31
3 0 31 30
3 4 22 2
3 24 22 4
3 6 24 4
3 26 24 6
3 26 32 28
3 6 32 26
3 6 33 32
3 6 7 33
3 33 34 32
3 29 35 36
3 30 29 36
3 36 0 30
3 8 0 36
3 12 33 7
3 37 33 12
3 33 37 38
3 34 33 38
3 35 39 40
3 36 35 40
3 40 8 36
3 13 8 40
3 17 37 12
3 41 37 17
3 37 41 42
3 38 37 42
3 40 39 43
3 43 44 45
3 40 43 45
3 40 45 18
3 40 18 13
3 18 46 19
3 45 46 18
3 19 47 20
3 46 47 19
3 48 49 41
3 47 48 41
3 47 41 17
3 47 17 20
3 41 49 42
3 45 44 50
3 46 45 50
3 51 46 50
3 47 46 51
3 52 47 51
3 47 52 48
3 53 21 23
3 54 53 23
3 23 25 54
3 25 55 54
3 25 27 55
3 27 56 55
3 28 57 56
3 27 28 56
3 58 29 31
3 59 58 31
3 31 53 59
3 21 53 31
3 60 28 32
3 57 28 60
3 34 61 60
3 32 34 60
3 35 29 62
3 62 29 58
3 38 63 34
3 63 61 34
3 39 35 64
3 64 35 62
3 42 65 38
3 65 63 38
3 66 43 39
3 64 66 39
3 44 66 67
3 43 66 44
3 68 49 48
3 69 49 68
3 49 69 65
3 42 49 65
3 70 50 44
3 67 70 44
3 50 70 51
3 51 70 71
3 51 71 52
3 52 71 72
3 52 72 68
3 48 52 68
3 73 53 54
3 74 73 54
3 54 55 74
3 55 75 74
3 55 56 75
3 56 76 75
3 57 77 76
3 56 57 76
3 78 58 59
3 79 78 59
3 59 73 79
3 53 73 59
3 80 57 60
3 77 57 80
3 61 81 80
3 60 61 80
3 62 58 82
3 82 58 78
3 63 83 61
3 83 81 61
3 64 62 84
3 84 62 82
3 65 85 63
3 85 83 63
3 86 66 64
3 84 86 64
3 67 86 87
3 66 86 67
3 88 69 68
3 89 69 88
3 69 89 85
3 65 69 85
3 90 70 67
3 87 90 67
3 70 90 71
3 71 90 91
3 71 91 72
3 72 91 92
3 72 92 88
3 68 72 88
3 73 74 93
3 74 75 94
3 93 74 94
3 75 76 95
3 94 75 95
3 76 77 95
3 78 79 96
3 97 93 98
3 96 93 97
3 96 73 93
3 96 79 73
3 94 98 93
3 99 98 94
3 95 99 94
3 100 99 95
3 100 101 102
3 95 101 100
3 95 80 101
3 95 77 80
3 80 81 101
3 82 78 96
3 103 82 96
3 96 104 103
3 97 104 96
3 102 105 106
3 101 105 102
3 105 101 81
3 83 105 81
3 84 82 103
3 107 84 103
3 103 108 107
3 104 108 103
3 106 109 110
3 105 109 106
3 109 105 83
3 85 109 83
3 86 84 107
3 107 108 111
3 86 107 111
3 86 111 112
3 86 112 87
3 112 113 114
3 111 113 112
3 114 115 116
3 113 115 114
3 89 110 109
3 88 110 89
3 88 115 110
3 88 116 115
3 89 109 85
3 90 87 112
3 91 90 112
3 114 91 112
3 92 91 114
3 116 92 114
3 92 116 88
3 97 98 117
3 98 99 118
3 117 98 118
3 99 100 119
3 118 99 119
3 100 102 119
3 104 97 117
3 120 104 117
3 120 117 121
3 117 118 121
3 121 118 122
3 118 119 122
3 122 119 102
3 106 122 102
3 108 104 120
3 123 108 120
3 123 120 124
3 120 121 124
3 124 121 125
3 121 122 125
3 125 122 106
3 110 125 106
3 111 108 123
3 113 111 123
3 124 113 123
3 115 113 124
3 125 115 124
3 115 125 110
