ply
format ascii 1.0
comment VCGLIB generated
element vertex 126
property float x
property float y
property float z
element face 248
property list uchar int vertex_indices
end_header
-0.144678741693496704 0.0717841610312461853 -0.546683251857757568
-0.150926902890205383 0.0407653264701366425 -0.439613640308380127
-0.186330467462539673 -0.0487872622907161713 -0.492358773946762085
-0.170192718505859375 -0.149765834212303162 -0.320300459861755371
-0.0670321732759475708 -0.176168680191040039 -0.350076735019683838
-0.183663368225097656 -0.350903183221817017 -0.221766620874404907
-0.0751717835664749146 -0.364358872175216675 -0.231735900044441223
-0.147512748837471008 -0.302646636962890625 -0.129854872822761536
0.0536521263420581818 0.115605279803276062 -0.450033128261566162
0.0707944184541702271 0.00747824925929307938 -0.436624467372894287
0.0474294014275074005 -0.143110349774360657 -0.271605432033538818
0.0240023918449878693 -0.323390811681747437 -0.13882794976234436
0.0344991683959960938 -0.431970477104187012 -0.131352931261062622
0.242516189813613892 0.153951883316040039 -0.335345268249511719
0.23628552258014679 0.0526111237704753876 -0.291625648736953735
0.270045578479766846 -0.167173236608505249 -0.262406468391418457
0.246837928891181946 -0.343255519866943359 -0.126138925552368164
0.238504394888877869 -0.41012275218963623 -0.0399472303688526154
0.345047295093536377 0.0690336823463439941 -0.298846542835235596
0.267926841974258423 -0.0999845713376998901 -0.17517407238483429
0.278588920831680298 -0.278936117887496948 -0.0413844957947731018
-0.256457328796386719 0.0590571053326129913 -0.247011378407478333
-0.196022972464561462 0.0791720449924468994 -0.368143707513809204
-0.165770843625068665 0.115647792816162109 -0.268841385841369629
-0.226723343133926392 -0.126574993133544922 -0.284816622734069824
-0.201333358883857727 -0.0882158130407333374 -0.183091163635253906
-0.22587934136390686 -0.306501269340515137 -0.151724815368652344
-0.121124580502510071 -0.289558768272399902 -0.128949671983718872
-0.133508041501045227 -0.393543630838394165 -0.0956294909119606018
-0.179155662655830383 0.0702847912907600403 -0.254457980394363403
-0.170605972409248352 0.0696215108036994934 -0.367350369691848755
-0.100773170590400696 0.142761290073394775 -0.276573687791824341
-0.106487266719341278 -0.395566582679748535 0.0812395364046096802
-0.218755394220352173 -0.406773090362548828 -0.000940362573601305485
-0.211434349417686462 -0.386868894100189209 0.106805756688117981
-0.0897057801485061646 0.275389045476913452 -0.270193219184875488
-0.0244681034237146378 0.241506963968276978 -0.350606441497802734
-0.0245761852711439133 -0.297009021043777466 -0.027861395850777626
0.000694592774379998446 -0.31738397479057312 0.0772130489349365234
0.0938558503985404968 0.152201011776924133 -0.231609135866165161
0.150858551263809204 0.243481963872909546 -0.210683137178421021
0.155819252133369446 -0.33217129111289978 0.098463885486125946
0.211683899164199829 -0.254601091146469116 0.0425781793892383575
0.163957267999649048 0.117904365062713623 -0.153431296348571777
0.323069870471954346 0.176768526434898376 -0.207896426320075989
0.440325707197189331 0.124523907899856567 -0.15800812840461731
0.342604309320449829 -0.0306105818599462509 -0.0293930359184741974
0.441805511713027954 -0.229780718684196472 0.0151435527950525284
0.346862465143203735 -0.242941662669181824 -0.0819991007447242737
0.201824501156806946 -0.335434854030609131 -0.0313689298927783966
0.377108246088027954 0.204481169581413269 -0.11712510883808136
0.440322548151016235 0.0150324627757072449 -0.0207632780075073242
0.451292961835861206 -0.200937718152999878 -0.0898655205965042114
-0.280912697315216064 0.174021214246749878 -0.054769512265920639
-0.174466758966445923 0.203081101179122925 -0.0631544962525367737
-0.13669171929359436 -0.00549417687579989433 0.0137835731729865074
-0.166765838861465454 -0.218971386551856995 0.0782116204500198364
-0.183478981256484985 -0.321613848209381104 0.113163985311985016
-0.127903610467910767 0.0830978378653526306 -0.0344546623528003693
-0.102553360164165497 0.1873922199010849 -0.0534882135689258575
-0.0920263901352882385 -0.169972479343414307 0.0814237147569656372
-0.200874000787734985 -0.164339393377304077 0.0985870733857154846
-0.107914604246616364 0.305042415857315063 -0.0507434196770191193
-0.0656270980834960938 -0.171256676316261292 -0.0788525715470314026
0.0906101837754249573 0.209289878606796265 -0.015913844108581543
0.145101547241210938 -0.10612151026725769 -0.11167704313993454
0.134534835815429688 0.307555019855499268 -0.0378320589661598206
0.295440346002578735 0.238692134618759155 0.00631689978763461113
0.293992340564727783 -0.08112325519323349 0.0641496926546096802
0.132320716977119446 -0.122955039143562317 -0.00293234968557953835
0.189711242914199829 0.211792603135108948 0.00338435149751603603
0.231823906302452087 0.0236483290791511536 -0.106650985777378082
0.253874450922012329 -0.167583420872688293 0.00886738300323486328
-0.288899719715118408 0.302402883768081665 0.131970241665840149
-0.346581131219863892 0.225438743829727173 0.0800800323486328125
-0.237865433096885681 0.0638668686151504517 0.199212029576301575
-0.305234581232070923 -0.142044141888618469 0.239217266440391541
-0.235929474234580994 -0.200156703591346741 0.297221720218658447
-0.091342926025390625 0.1067013218998909 0.186301067471504211
-0.156437546014785767 0.189892858266830444 0.165621832013130188
-0.0682608261704444885 -0.136192783713340759 0.302703976631164551
-0.00606059981510043144 -0.173252537846565247 0.219181373715400696
-0.125535324215888977 0.330246865749359131 0.168273642659187317
0.0973240509629249573 -0.0728693604469299316 0.0444638729095458984
0.0869719162583351135 0.266460925340652466 0.199456006288528442
0.0857877731323242188 0.108954153954982758 -0.0876138582825660706
0.105590812861919403 0.372301369905471802 0.174649551510810852
0.154404640197753906 0.199336409568786621 0.177520111203193665
0.345228493213653564 0.0216874945908784866 -0.128568604588508606
0.168754249811172485 0.0539262443780899048 -0.135455131530761719
0.209809929132461548 0.105746865272521973 0.20010550320148468
0.0659195557236671448 0.085679277777671814 0.0305358562618494034
0.238378837704658508 0.0265515148639678955 -0.101832546293735504
-0.410526573657989502 0.256412625312805176 0.169366389513015747
-0.317748367786407471 0.0726771056652069092 0.267510592937469482
-0.343098640441894531 -0.12367500364780426 0.344381123781204224
-0.149079948663711548 0.115732692182064056 0.283741146326065063
-0.181457191705703735 0.29689866304397583 0.300016194581985474
-0.319538116455078125 0.349253714084625244 0.302753031253814697
-0.28824964165687561 0.153999596834182739 0.418911159038543701
-0.191070228815078735 -0.0490686260163784027 0.402133047580718994
-0.0899871140718460083 -0.142073079943656921 0.162387683987617493
-0.155235916376113892 -0.0159533154219388962 0.272111475467681885
-0.137907654047012329 0.338984757661819458 0.277718305587768555
-0.0344451256096363068 0.324527651071548462 0.130044415593147278
0.024034181609749794 0.0099491514265537262 0.0494899339973926544
-0.0318129844963550568 0.137659415602684021 0.163837075233459473
0.0123008089140057564 0.286482185125350952 0.121124580502510071
0.10214010626077652 0.184115096926689148 0.240498378872871399
0.173188835382461548 0.151591703295707703 -0.0368467941880226135
0.18596966564655304 0.0985402986407279968 0.135246515274047852
0.145392417907714844 0.058909732848405838 0.196779564023017883
0.280475616455078125 0.162169679999351501 0.137591361999511719
0.091673530638217926 0.0136331506073474884 -0.0172537565231323242
0.0937573090195655823 0.19035397469997406 0.0174814462661743164
0.259795188903808594 -0.0170726682990789413 0.129586651921272278
0.286176979541778564 0.0802415236830711365 -0.0181462354958057404
-0.263495445251464844 0.306980282068252563 0.224076300859451294
-0.287213325500488281 0.10420883446931839 0.319728046655654907
-0.0973590165376663208 -0.00233074463903903961 0.365046262741088867
-0.0941165238618850708 0.234409019351005554 0.09761829674243927
-0.13634839653968811 0.0243342723697423935 0.173969462513923645
0.021649995818734169 0.157770738005638123 0.259327679872512817
0.04169464111328125 0.0961417555809020996 0.212314322590827942
0.027848878875374794 -0.0524752512574195862 0.0433619804680347443
0.17887432873249054 0.00765206944197416306 0.199292495846748352
3 0 1 2
3 1 3 4
3 2 1 4
3 3 5 6
3 4 3 6
3 5 7 6
3 0 8 9
3 1 0 9
3 9 10 1
3 1 10 3
3 10 11 3
3 3 11 5
3 5 11 12
3 7 5 12
3 8 13 14
3 9 8 14
3 14 15 9
3 9 15 10
3 15 16 10
3 10 16 11
3 11 16 17
3 12 11 17
3 14 13 18
3 15 14 18
3 19 15 18
3 16 15 19
3 20 16 19
3 16 20 17
3 21 22 23
3 22 24 25
3 23 22 25
3 24 26 27
3 25 24 27
3 26 28 27
3 29 30 31
3 2 22 21
3 0 2 21
3 0 21 31
3 0 31 30
3 4 22 2
3 24 22 4
3 6 24 4
3 26 24 6
3 26 32 28
3 6 32 26
3 6 33 32
3 6 7 33
3 33 34 32
3 29 35 36
3 30 29 36
3 36 0 30
3 8 0 36
3 12 33 7
3 37 33 12
3 33 37 38
3 34 33 38
3 35 39 40
3 36 35 40
3 40 8 36
3 13 8 40
3 17 37 12
3 41 37 17
3 37 41 42
3 38 37 42
3 40 39 43
3 43 44 45
3 40 43 45
3 40 45 18
3 40 18 13
3 18 46 19
3 45 46 18
3 19 47 20
3 46 47 19
3 48 49 41
3 47 48 41
3 47 41 17
3 47 17 20
3 41 49 42
3 45 44 50
3 46 45 50
3 51 46 50
3 47 46 51
3 52 47 51
3 47 52 48
3 53 21 23
3 54 53 23
3 23 25 54
3 25 55 54
3 25 27 55
3 27 56 55
3 28 57 56
3 27 28 56
3 58 29 31
3 59 58 31
3 31 53 59
3 21 53 31
3 60 28 32
3 57 28 60
3 34 61 60
3 32 34 60
3 35 29 62
3 62 29 58
3 38 63 34
3 63 61 34
3 39 35 64
3 64 35 62
3 42 65 38
3 65 63 38
3 66 43 39
3 64 66 39
3 44 66 67
3 43 66 44
3 68 49 48
3 69 49 68
3 49 69 65
3 42 49 65
3 70 50 44
3 67 70 44
3 50 70 51
3 51 70 71
3 51 71 52
3 52 71 72
3 52 72 68
3 48 52 68
3 73 53 54
3 74 73 54
3 54 55 74
3 55 75 74
3 55 56 75
3 56 76 75
3 57 77 76
3 56 57 76
3 78 58 59
3 79 78 59
3 59 73 79
3 53 73 59
3 80 57 60
3 77 57 80
3 61 81 80
3 60 61 80
3 62 58 82
3 82 58 78
3 63 83 61
3 83 81 61
3 64 62 84
3 84 62 82
3 65 85 63
3 85 83 63
3 86 66 64
3 84 86 64
3 67 86 87
3 66 86 67
3 88 69 68
3 89 69 88
3 69 89 85
3 65 69 85
3 90 70 67
3 87 90 67
3 70 90 71
3 71 90 91
3 71 91 72
3 72 91 92
3 72 92 88
3 68 72 88
3 73 74 93
3 74 75 94
3 93 74 94
3 75 76 95
3 94 75 95
3 76 77 95
3 78 79 96
3 97 93 98
3 96 93 97
3 96 73 93
3 96 79 73
3 94 98 93
3 99 98 94
3 95 99 94
3 100 99 95
3 100 101 102
3 95 101 100
3 95 80 101
3 95 77 80
3 80 81 101
3 82 78 96
3 103 82 96
3 96 104 103
3 97 104 96
3 102 105 106
3 101 105 102
3 105 101 81
3 83 105 81
3 84 82 103
3 107 84 103
3 103 108 107
3 104 108 103
3 106 109 110
3 105 109 106
3 109 105 83
3 85 109 83
3 86 84 107
3 107 108 111
3 86 107 111
3 86 111 112
3 86 112 87
3 112 113 114
3 111 113 112
3 114 115 116
3 113 115 114
3 89 110 109
3 88 110 89
3 88 115 110
3 88 116 115
3 89 109 85
3 90 87 112
3 91 90 112
3 114 91 112
3 92 91 114
3 116 92 114
3 92 116 88
3 97 98 117
3 98 99 118
3 117 98 118
3 99 100 119
3 118 99 119
3 100 102 119
3 104 97 117
3 120 104 117
3 120 117 121
3 117 118 121
3 121 118 122
3 118 119 122
3 122 119 102
3 106 122 102
3 108 104 120
3 123 108 120
3 123 120 124
3 120 121 124
3 124 121 125
3 121 122 125
3 125 122 106
3 110 125 106
3 111 108 123
3 113 111 123
3 124 113 123
3 115 113 124
3 125 115 124
3 115 125 110
