ply
format ascii 1.0
comment VCGLIB generated
element vertex 126
property float x
property float y
property float z
element face 248
property list uchar int vertex_indices
end_header
-0.230185195803642273 0.161376610398292542 -0.408014774322509766
-0.2462921142578125 0.0804143846035003662 -0.508289337158203125
-0.3455810546875 0.10536155104637146 -0.457071781158447266
-0.218471527099609375 -0.0341516733169555664 -0.321850448846817017
-0.34417724609375 -0.0675170272588729858 -0.311086326837539673
-0.292537689208984375 -0.191972911357879639 -0.185487434267997742
-0.231844589114189148 -0.243060186505317688 -0.219035625457763672
-0.272287994623184204 -0.249208018183708191 -0.0932838097214698792
-0.00983428955078125 0.141915753483772278 -0.367950290441513062
-0.0188458766788244247 0.0446788780391216278 -0.428558677434921265
-0.066158294677734375 -0.174475237727165222 -0.412791252136230469
-0.125523880124092102 -0.330700725317001343 -0.262396484613418579
-0.158860519528388977 -0.413078457117080688 -0.198674365878105164
0.207625076174736023 0.107867181301116943 -0.31638827919960022
0.192473098635673523 5.52288438484538347e-05 -0.345824718475341797
0.136777237057685852 -0.221636652946472168 -0.328137069940567017
0.070767723023891449 -0.430941373109817505 -0.267210334539413452
0.0363642387092113495 -0.517433404922485352 -0.196175098419189453
0.19916534423828125 -0.00504979817196726799 -0.234978839755058289
0.2112579345703125 -0.227535083889961243 -0.241263866424560547
0.07936859130859375 -0.391506314277648926 -0.163903877139091492
-0.461053222417831421 0.175839737057685852 -0.210067585110664368
-0.513312041759490967 0.140957832336425781 -0.354708820581436157
-0.564679443836212158 0.151729017496109009 -0.245880126953125
-0.523204803466796875 -0.106897324323654175 -0.331230491399765015
-0.659025847911834717 -0.0833231136202812195 -0.232753276824951172
-0.407239288091659546 -0.25307464599609375 -0.21036083996295929
-0.529799163341522217 -0.293797165155410767 -0.156876727938652039
-0.441242218017578125 -0.359197378158569336 -0.121424831449985504
-0.253691345453262329 0.339462965726852417 -0.181623458862304688
-0.231466934084892273 0.299872756004333496 -0.281875461339950562
-0.328820556402206421 0.269884467124938965 -0.174281284213066101
-0.333643585443496704 -0.493058890104293823 -0.0843078270554542542
-0.353216797113418579 -0.379827111959457397 0.00241772341541945934
-0.349114745855331421 -0.370712131261825562 -0.0961828231811523438
-0.0299212131649255753 0.336870819330215454 -0.161297634243965149
-0.0148289995267987251 0.286354094743728638 -0.258449077606201172
-0.129580184817314148 -0.343602031469345093 -0.029267946258187294
-0.1364593505859375 -0.391101926565170288 -0.100134849548339844
0.189798995852470398 0.322516292333602905 -0.122086368501186371
0.2039947509765625 0.264591604471206665 -0.218359634280204773
-0.092400871217250824 -0.562231957912445068 -0.0760693550109863281
-0.095137275755405426 -0.5782051682472229 0.034000396728515625
0.277105957269668579 0.267086327075958252 -0.0990913733839988708
0.363843291997909546 0.115400761365890503 -0.0539209060370922089
0.338242858648300171 -0.00415833573788404465 -0.121660709381103516
0.2983856201171875 -0.222900077700614929 -0.0797359123826026917
0.131120041012763977 -0.353405952453613281 0.00483926152810454369
0.148915603756904602 -0.490642637014389038 0.0380770377814769745
0.00839106272906064987 -0.601291239261627197 0.00525426864624023438
0.375100463628768921 0.0107055166736245155 -0.0191736221313476562
0.328388214111328125 -0.205014824867248535 0.0209199581295251846
0.217271164059638977 -0.406717151403427124 0.0206240024417638779
-0.539675414562225342 0.203232407569885254 0.00619935989379882812
-0.62470245361328125 0.136191174387931824 0.00298070907592773438
-0.48090362548828125 0.011977754533290863 -0.0845125541090965271
-0.396120697259902954 -0.200759276747703552 0.0288613643497228622
-0.372049957513809204 -0.303382247686386108 0.089853920042514801
-0.279137939214706421 0.401875615119934082 0.0366551093757152557
-0.368020385503768921 0.318416357040405273 0.0256012286990880966
-0.208150222897529602 -0.431100815534591675 0.0923312529921531677
-0.188535049557685852 -0.389302611351013184 0.0252639446407556534
-0.060394287109375 0.354406952857971191 0.0642213821411132812
-0.101061500608921051 -0.213689789175987244 0.0908786430954933167
0.158082321286201477 0.337481379508972168 0.0900920256972312927
-0.0285352077335119247 -0.416771769523620605 0.176838234066963196
0.25453948974609375 0.318407744169235229 0.121138252317905426
0.307599395513534546 0.155997246503829956 0.160544872283935547
0.006145477294921875 -0.368571758270263672 0.157808303833007812
-0.058055877685546875 -0.522878110408782959 0.203344658017158508
0.239650726318359375 0.0792363658547401428 0.152899742126464844
0.181723281741142273 -0.130836561322212219 0.169344738125801086
0.0376040153205394745 -0.289033800363540649 0.094114936888217926
-0.536301910877227783 0.201856613159179688 0.216319724917411804
-0.633192718029022217 0.149516627192497253 0.178676441311836243
-0.448041290044784546 0.0324634760618209839 0.150019332766532898
-0.324330657720565796 -0.138662636280059814 0.262461990118026733
-0.28228759765625 -0.251332312822341919 0.287298202514648438
-0.283597320318222046 0.351603031158447266 0.255219936370849609
-0.402331024408340454 0.335733622312545776 0.247920036315917969
-0.124753318727016449 -0.252887725830078125 0.206878498196601868
-0.069911956787109375 -0.396954625844955444 0.153642013669013977
-0.087572731077671051 0.258913636207580566 0.25899776816368103
0.0230763759464025497 -0.192312583327293396 0.223725005984306335
0.12823486328125 0.267657011747360229 0.30753740668296814
-0.066783905029296875 -0.341527789831161499 0.375706195831298828
0.18170166015625 0.356069445610046387 0.333026409149169922
0.224332168698310852 0.188067987561225891 0.355358749628067017
0.167498275637626648 -0.372446894645690918 0.29759979248046875
0.0149714155122637749 -0.422039151191711426 0.380894333124160767
0.134538009762763977 0.128602907061576843 0.345013290643692017
0.0439300537109375 -0.0750843584537506104 0.334251552820205688
0.127875015139579773 -0.28089594841003418 0.285783618688583374
-0.579098999500274658 0.173749938607215881 0.330341815948486328
-0.504487335681915283 -0.0118128769099712372 0.271935135126113892
-0.4011688232421875 -0.192204654216766357 0.219975307583808899
-0.315464019775390625 0.339413553476333618 0.358359664678573608
-0.3457489013671875 0.208623543381690979 0.485496610403060913
-0.485118865966796875 0.178071081638336182 0.496545076370239258
-0.460032135248184204 -0.0411498807370662689 0.445279449224472046
-0.292279571294784546 -0.187311246991157532 0.362761020660400391
-0.168130233883857727 -0.376813411712646484 0.186735793948173523
-0.293764740228652954 -0.320931524038314819 0.312850475311279297
-0.122758232057094574 0.23227788507938385 0.350226879119873047
-0.132695510983467102 0.185109928250312805 0.528010368347167969
-0.0438690185546875 -0.21233426034450531 0.261803954839706421
-0.176212310791015625 -0.136660993099212646 0.391873031854629517
0.074025474488735199 0.326253622770309448 0.383200973272323608
0.077364601194858551 0.231826424598693848 0.555200099945068359
0.0343907661736011505 -0.322847932577133179 0.446554183959960938
0.01445770263671875 -0.157578125596046448 0.486109018325805664
0.0121129350736737251 0.114689894020557404 0.53252410888671875
0.184047698974609375 0.11223217099905014 0.456549018621444702
-0.0490875244140625 -0.0324290730059146881 0.364321082830429077
0.131361648440361023 -0.07187691330909729 0.400719016790390015
-0.0577799491584300995 -0.263289272785186768 0.427613109350204468
0.119945526123046875 -0.295396178960800171 0.399593830108642578
-0.387482970952987671 0.184621930122375488 0.579184830188751221
-0.385476440191268921 -0.0499717332422733307 0.527391374111175537
-0.356845855712890625 -0.268095284700393677 0.409499645233154297
-0.170322418212890625 0.158904463052749634 0.624882519245147705
-0.1723785400390625 -0.0266588795930147171 0.492168813943862915
-0.139128372073173523 -0.229483023285865784 0.46427503228187561
0.02422332763671875 0.176745831966400146 0.496640831232070923
0.0293629970401525497 -0.024473605677485466 0.414192348718643188
0.0611394234001636505 -0.231572017073631287 0.415534496307373047
3 0 1 2
3 1 3 4
3 2 1 4
3 3 5 6
3 4 3 6
3 5 7 6
3 0 8 9
3 1 0 9
3 9 10 1
3 1 10 3
3 10 11 3
3 3 11 5
3 5 11 12
3 7 5 12
3 8 13 14
3 9 8 14
3 14 15 9
3 9 15 10
3 15 16 10
3 10 16 11
3 11 16 17
3 12 11 17
3 14 13 18
3 15 14 18
3 19 15 18
3 16 15 19
3 20 16 19
3 16 20 17
3 21 22 23
3 22 24 25
3 23 22 25
3 24 26 27
3 25 24 27
3 26 28 27
3 29 30 31
3 2 22 21
3 0 2 21
3 0 21 31
3 0 31 30
3 4 22 2
3 24 22 4
3 6 24 4
3 26 24 6
3 26 32 28
3 6 32 26
3 6 33 32
3 6 7 33
3 33 34 32
3 29 35 36
3 30 29 36
3 36 0 30
3 8 0 36
3 12 33 7
3 37 33 12
3 33 37 38
3 34 33 38
3 35 39 40
3 36 35 40
3 40 8 36
3 13 8 40
3 17 37 12
3 41 37 17
3 37 41 42
3 38 37 42
3 40 39 43
3 43 44 45
3 40 43 45
3 40 45 18
3 40 18 13
3 18 46 19
3 45 46 18
3 19 47 20
3 46 47 19
3 48 49 41
3 47 48 41
3 47 41 17
3 47 17 20
3 41 49 42
3 45 44 50
3 46 45 50
3 51 46 50
3 47 46 51
3 52 47 51
3 47 52 48
3 53 21 23
3 54 53 23
3 23 25 54
3 25 55 54
3 25 27 55
3 27 56 55
3 28 57 56
3 27 28 56
3 58 29 31
3 59 58 31
3 31 53 59
3 21 53 31
3 60 28 32
3 57 28 60
3 34 61 60
3 32 34 60
3 35 29 62
3 62 29 58
3 38 63 34
3 63 61 34
3 39 35 64
3 64 35 62
3 42 65 38
3 65 63 38
3 66 43 39
3 64 66 39
3 44 66 67
3 43 66 44
3 68 49 48
3 69 49 68
3 49 69 65
3 42 49 65
3 70 50 44
3 67 70 44
3 50 70 51
3 51 70 71
3 51 71 52
3 52 71 72
3 52 72 68
3 48 52 68
3 73 53 54
3 74 73 54
3 54 55 74
3 55 75 74
3 55 56 75
3 56 76 75
3 57 77 76
3 56 57 76
3 78 58 59
3 79 78 59
3 59 73 79
3 53 73 59
3 80 57 60
3 77 57 80
3 61 81 80
3 60 61 80
3 62 58 82
3 82 58 78
3 63 83 61
3 83 81 61
3 64 62 84
3 84 62 82
3 65 85 63
3 85 83 63
3 86 66 64
3 84 86 64
3 67 86 87
3 66 86 67
3 88 69 68
3 89 69 88
3 69 89 85
3 65 69 85
3 90 70 67
3 87 90 67
3 70 90 71
3 71 90 91
3 71 91 72
3 72 91 92
3 72 92 88
3 68 72 88
3 73 74 93
3 74 75 94
3 93 74 94
3 75 76 95
3 94 75 95
3 76 77 95
3 78 79 96
3 97 93 98
3 96 93 97
3 96 73 93
3 96 79 73
3 94 98 93
3 99 98 94
3 95 99 94
3 100 99 95
3 100 101 102
3 95 101 100
3 95 80 101
3 95 77 80
3 80 81 101
3 82 78 96
3 103 82 96
3 96 104 103
3 97 104 96
3 102 105 106
3 101 105 102
3 105 101 81
3 83 105 81
3 84 82 103
3 107 84 103
3 103 108 107
3 104 108 103
3 106 109 110
3 105 109 106
3 109 105 83
3 85 109 83
3 86 84 107
3 107 108 111
3 86 107 111
3 86 111 112
3 86 112 87
3 112 113 114
3 111 113 112
3 114 115 116
3 113 115 114
3 89 110 109
3 88 110 89
3 88 115 110
3 88 116 115
3 89 109 85
3 90 87 112
3 91 90 112
3 114 91 112
3 92 91 114
3 116 92 114
3 92 116 88
3 97 98 117
3 98 99 118
3 117 98 118
3 99 100 119
3 118 99 119
3 100 102 119
3 104 97 117
3 120 104 117
3 120 117 121
3 117 118 121
3 121 118 122
3 118 119 122
3 122 119 102
3 106 122 102
3 108 104 120
3 123 108 120
3 123 120 124
3 120 121 124
3 124 121 125
3 121 122 125
3 125 122 106
3 110 125 106
3 111 108 123
3 113 111 123
3 124 113 123
3 115 113 124
3 125 115 124
3 115 125 110
