ply
format ascii 1.0
comment VCGLIB generated
element vertex 126
property float x
property float y
property float z
element face 248
property list uchar int vertex_indices
end_header
-0.156161442399024963 0.318085074424743652 -0.397869855165481567
-0.156330376863479614 0.225137278437614441 -0.462520629167556763
-0.255883097648620605 0.221271663904190063 -0.422417968511581421
-0.143521174788475037 0.0118711711838841438 -0.527282774448394775
-0.224771499633789062 -0.00305861933156847954 -0.431171506643295288
-0.0951140299439430237 -0.105882108211517334 -0.338736087083816528
-0.0432123467326164246 -0.0380632951855659485 -0.300873696804046631
-0.0738784223794937134 -0.12136155366897583 -0.257633417844772339
-0.0153854917734861374 0.215003982186317444 -0.256440639495849609
0.00431333296000957489 0.142012715339660645 -0.335202902555465698
0.083370208740234375 0.00600922992452979088 -0.495460540056228638
0.08758544921875 -0.210569128394126892 -0.435093998908996582
0.0803361609578132629 -0.285019934177398682 -0.367995858192443848
0.169492453336715698 0.323325186967849731 -0.316302955150604248
0.20626068115234375 0.235415339469909668 -0.371170908212661743
0.288512378931045532 0.0319936946034431458 -0.417657583951950073
0.283982425928115845 -0.177966684103012085 -0.328626811504364014
0.303490519523620605 -0.284211993217468262 -0.313694477081298828
0.295611798763275146 0.269255906343460083 -0.32247084379196167
0.36681857705116272 0.0556746982038021088 -0.344891726970672607
0.384746283292770386 -0.167992159724235535 -0.311300069093704224
-0.402317047119140625 0.284171491861343384 -0.19774743914604187
-0.37960052490234375 0.19389970600605011 -0.29688069224357605
-0.367204129695892334 0.182588398456573486 -0.18611772358417511
-0.310708463191986084 -0.0223330110311508179 -0.27845194935798645
-0.374566495418548584 -0.0348786525428295135 -0.202141836285591125
-0.156891688704490662 -0.0792909935116767883 -0.124204672873020172
-0.188426971435546875 -0.169096887111663818 -0.154360190033912659
-0.0954546257853507996 -0.168661773204803467 -0.137244299054145813
-0.223552167415618896 0.502586781978607178 -0.190604925155639648
-0.187399730086326599 0.443634688854217529 -0.272130280733108521
-0.302336573600769043 0.430419743061065674 -0.193202152848243713
0.0258350372314453125 -0.301730930805206299 -0.15408208966255188
-0.133221492171287537 -0.28279384970664978 -0.180120304226875305
-0.0811536014080047607 -0.345789521932601929 -0.209522426128387451
-0.0626591295003890991 0.418200701475143433 -0.0539009906351566315
-0.0454562045633792877 0.338830292224884033 -0.131794720888137817
0.0610882900655269623 -0.332186579704284668 -0.192609518766403198
0.101022720336914062 -0.229130074381828308 -0.237294435501098633
0.122169770300388336 0.527314245700836182 -0.115532368421554565
0.129653394222259521 0.458910614252090454 -0.206657484173774719
0.273271292448043823 -0.373804152011871338 -0.157360345125198364
0.259913027286529541 -0.294860184192657471 -0.0810740664601325989
0.221470430493354797 0.486754834651947021 -0.108721427619457245
0.360401690006256104 0.376774758100509644 -0.0837472528219223022
0.395327985286712646 0.285705685615539551 -0.17526949942111969
0.411353796720504761 0.0648085549473762512 -0.169677570462226868
0.471207767724990845 -0.137155041098594666 -0.158831730484962463
0.470853537321090698 -0.214292481541633606 -0.0529026985168457031
0.323220670223236084 -0.238196954131126404 -0.151382863521575928
0.402701258659362793 0.278011322021484375 -0.0637355893850326538
0.31688418984413147 0.0706600546836853027 -0.116208113729953766
0.455346792936325073 -0.0960510000586509705 -0.0706395059823989868
-0.430465430021286011 0.292745739221572876 0.0254086088389158249
-0.455737799406051636 0.182447388768196106 0.0261095594614744186
-0.392535090446472168 -0.0298904869705438614 0.0351927950978279114
-0.296275287866592407 -0.225770860910415649 0.00186528486665338278
-0.214360103011131287 -0.297437876462936401 0.000283036904875189066
-0.282847553491592407 0.541891515254974365 0.025325162336230278
-0.336456298828125 0.441653817892074585 0.0266167093068361282
-0.111167095601558685 -0.382321089506149292 0.0352871417999267578
-0.0260339472442865372 -0.424479037523269653 -0.00982471928000450134
-0.0652340501546859741 0.606992900371551514 0.0667013451457023621
0.167913436889648438 -0.323509812355041504 -0.0536687038838863373
0.154040202498435974 0.600452661514282227 0.0983721911907196045
0.211700722575187683 -0.111811257898807526 0.029497997835278511
0.232665196061134338 0.530057668685913086 0.109534949064254761
0.214174821972846985 0.34776461124420166 0.0986736193299293518
0.354102015495300293 -0.184201180934906006 0.130267485976219177
0.295273929834365845 -0.053483184427022934 -0.0202907845377922058
0.289862513542175293 0.276181459426879883 0.127300530672073364
0.216851919889450073 0.0741099342703819275 0.0808450132608413696
0.300024569034576416 -0.123498231172561646 0.0709111392498016357
-0.455293655395507812 0.301189392805099487 0.246167704463005066
-0.477639615535736084 0.185592710971832275 0.249241426587104797
-0.390986055135726929 -0.0280898921191692352 0.256673097610473633
-0.247388571500778198 -0.190516665577888489 0.232747793197631836
-0.166326254606246948 -0.256354033946990967 0.220862627029418945
-0.287478327751159668 0.51818394660949707 0.259057104587554932
-0.368389397859573364 0.459680348634719849 0.253455817699432373
0.0105449128895998001 -0.288202941417694092 0.202372252941131592
-0.0449207872152328491 -0.239355668425559998 0.141141921281814575
-0.0634929090738296509 0.501862287521362305 0.252571612596511841
0.176330298185348511 -0.266923069953918457 0.149523869156837463
0.141090661287307739 0.565974175930023193 0.320028573274612427
0.397822529077529907 -0.216691970825195312 0.11098027229309082
0.238174721598625183 0.517906010150909424 0.326988011598587036
0.280005604028701782 0.347607880830764771 0.323372900485992432
0.549741506576538086 -0.0753146335482597351 0.136163920164108276
0.449488520622253418 -0.18114820122718811 0.025486435741186142
0.259990692138671875 0.250651776790618896 0.342516899108886719
0.395028263330459595 0.159329697489738464 0.190380468964576721
0.465033411979675293 -0.0355379618704319 0.201093301177024841
-0.428397327661514282 0.210420295596122742 0.343313723802566528
-0.344112932682037354 -5.95303790760226548e-05 0.359989583492279053
-0.198106765747070312 -0.16939157247543335 0.325734794139862061
-0.285764425992965698 0.49125373363494873 0.373828411102294922
-0.211823329329490662 0.356403112411499023 0.463914364576339722
-0.301965981721878052 0.267296522855758667 0.46151009202003479
-0.202474594116210938 0.0920270606875419617 0.41012236475944519
-0.174643650650978088 -0.0345138125121593475 0.215459391474723816
0.0369385331869125366 -0.200687482953071594 0.0973512455821037292
-0.0916780754923820496 -0.155104830861091614 0.194494053721427917
-0.0871099755167961121 0.463070720434188843 0.335830628871917725
-0.00297955120913684368 0.405612438917160034 0.455196589231491089
0.204418733716011047 -0.199387907981872559 0.22201964259147644
0.108247488737106323 -0.0642993450164794922 0.270260930061340332
0.135714665055274963 0.469530016183853149 0.38804548978805542
0.157358989119529724 0.307279348373413086 0.311404138803482056
0.344152450561523438 -0.102956235408782959 0.0682708173990249634
0.240869522094726562 0.00602023955434560776 0.135714158415794373
0.212045401334762573 0.200619891285896301 0.357757300138473511
0.361979365348815918 0.279628217220306396 0.405408650636672974
0.296573638916015625 0.201325997710227966 0.151557758450508118
0.473437994718551636 0.230672836303710938 0.213329121470451355
0.318835139274597168 0.00174377730581909418 0.250388383865356445
0.444845467805862427 0.0288591776043176651 0.10673028975725174
-0.233290538191795349 0.313118904829025269 0.375242233276367188
-0.151722773909568787 0.121175810694694519 0.329431474208831787
-0.0985200107097625732 -0.0843993201851844788 0.277039676904678345
-0.0343009419739246368 0.304959774017333984 0.441842764616012573
0.0517422817647457123 0.221036121249198914 0.257456123828887939
0.0965322777628898621 0.00933987181633710861 0.200006455183029175
0.104112625122070312 0.200838133692741394 0.331569582223892212
0.263873517513275146 0.266026526689529419 0.246424674987792969
0.302444189786911011 0.0710555315017700195 0.146754816174507141
3 0 1 2
3 1 3 4
3 2 1 4
3 3 5 6
3 4 3 6
3 5 7 6
3 0 8 9
3 1 0 9
3 9 10 1
3 1 10 3
3 10 11 3
3 3 11 5
3 5 11 12
3 7 5 12
3 8 13 14
3 9 8 14
3 14 15 9
3 9 15 10
3 15 16 10
3 10 16 11
3 11 16 17
3 12 11 17
3 14 13 18
3 15 14 18
3 19 15 18
3 16 15 19
3 20 16 19
3 16 20 17
3 21 22 23
3 22 24 25
3 23 22 25
3 24 26 27
3 25 24 27
3 26 28 27
3 29 30 31
3 2 22 21
3 0 2 21
3 0 21 31
3 0 31 30
3 4 22 2
3 24 22 4
3 6 24 4
3 26 24 6
3 26 32 28
3 6 32 26
3 6 33 32
3 6 7 33
3 33 34 32
3 29 35 36
3 30 29 36
3 36 0 30
3 8 0 36
3 12 33 7
3 37 33 12
3 33 37 38
3 34 33 38
3 35 39 40
3 36 35 40
3 40 8 36
3 13 8 40
3 17 37 12
3 41 37 17
3 37 41 42
3 38 37 42
3 40 39 43
3 43 44 45
3 40 43 45
3 40 45 18
3 40 18 13
3 18 46 19
3 45 46 18
3 19 47 20
3 46 47 19
3 48 49 41
3 47 48 41
3 47 41 17
3 47 17 20
3 41 49 42
3 45 44 50
3 46 45 50
3 51 46 50
3 47 46 51
3 52 47 51
3 47 52 48
3 53 21 23
3 54 53 23
3 23 25 54
3 25 55 54
3 25 27 55
3 27 56 55
3 28 57 56
3 27 28 56
3 58 29 31
3 59 58 31
3 31 53 59
3 21 53 31
3 60 28 32
3 57 28 60
3 34 61 60
3 32 34 60
3 35 29 62
3 62 29 58
3 38 63 34
3 63 61 34
3 39 35 64
3 64 35 62
3 42 65 38
3 65 63 38
3 66 43 39
3 64 66 39
3 44 66 67
3 43 66 44
3 68 49 48
3 69 49 68
3 49 69 65
3 42 49 65
3 70 50 44
3 67 70 44
3 50 70 51
3 51 70 71
3 51 71 52
3 52 71 72
3 52 72 68
3 48 52 68
3 73 53 54
3 74 73 54
3 54 55 74
3 55 75 74
3 55 56 75
3 56 76 75
3 57 77 76
3 56 57 76
3 78 58 59
3 79 78 59
3 59 73 79
3 53 73 59
3 80 57 60
3 77 57 80
3 61 81 80
3 60 61 80
3 62 58 82
3 82 58 78
3 63 83 61
3 83 81 61
3 64 62 84
3 84 62 82
3 65 85 63
3 85 83 63
3 86 66 64
3 84 86 64
3 67 86 87
3 66 86 67
3 88 69 68
3 89 69 88
3 69 89 85
3 65 69 85
3 90 70 67
3 87 90 67
3 70 90 71
3 71 90 91
3 71 91 72
3 72 91 92
3 72 92 88
3 68 72 88
3 73 74 93
3 74 75 94
3 93 74 94
3 75 76 95
3 94 75 95
3 76 77 95
3 78 79 96
3 97 93 98
3 96 93 97
3 96 73 93
3 96 79 73
3 94 98 93
3 99 98 94
3 95 99 94
3 100 99 95
3 100 101 102
3 95 101 100
3 95 80 101
3 95 77 80
3 80 81 101
3 82 78 96
3 103 82 96
3 96 104 103
3 97 104 96
3 102 105 106
3 101 105 102
3 105 101 81
3 83 105 81
3 84 82 103
3 107 84 103
3 103 108 107
3 104 108 103
3 106 109 110
3 105 109 106
3 109 105 83
3 85 109 83
3 86 84 107
3 107 108 111
3 86 107 111
3 86 111 112
3 86 112 87
3 112 113 114
3 111 113 112
3 114 115 116
3 113 115 114
3 89 110 109
3 88 110 89
3 88 115 110
3 88 116 115
3 89 109 85
3 90 87 112
3 91 90 112
3 114 91 112
3 92 91 114
3 116 92 114
3 92 116 88
3 97 98 117
3 98 99 118
3 117 98 118
3 99 100 119
3 118 99 119
3 100 102 119
3 104 97 117
3 120 104 117
3 120 117 121
3 117 118 121
3 121 118 122
3 118 119 122
3 122 119 102
3 106 122 102
3 108 104 120
3 123 108 120
3 123 120 124
3 120 121 124
3 124 121 125
3 121 122 125
3 125 122 106
3 110 125 106
3 111 108 123
3 113 111 123
3 124 113 123
3 115 113 124
3 125 115 124
3 115 125 110
