ply
format ascii 1.0
comment VCGLIB generated
element vertex 126
property float x
property float y
property float z
element face 248
property list uchar int vertex_indices
end_header
-0.147595405578613281 0.0764507651329040527 -0.542104244232177734
-0.137678772211074829 0.0426110066473484039 -0.428081542253494263
-0.141102463006973267 -0.0485609732568264008 -0.482770591974258423
-0.140932396054267883 -0.169273614883422852 -0.353762507438659668
-0.0383202210068702698 -0.167368963360786438 -0.32484927773475647
-0.167279243469238281 -0.348304420709609985 -0.219497665762901306
-0.057719547301530838 -0.36312180757522583 -0.223941192030906677
-0.138060241937637329 -0.323282122611999512 -0.117640294134616852
0.0499200783669948578 0.112964577972888947 -0.446946591138839722
0.0756470337510108948 0.00748509587720036507 -0.440721482038497925
0.0651725083589553833 -0.146472975611686707 -0.277302652597427368
0.0519482269883155823 -0.345820635557174683 -0.176311731338500977
0.0459400787949562073 -0.450662761926651001 -0.144422441720962524
0.240507110953330994 0.157574042677879333 -0.340438663959503174
0.237681061029434204 0.0561278462409973145 -0.290695607662200928
0.287117958068847656 -0.163320288062095642 -0.276248246431350708
0.271900475025177002 -0.343017548322677612 -0.141958385705947876
0.251310646533966064 -0.412284523248672485 -0.0535054989159107208
0.345918327569961548 0.0739559978246688843 -0.311536788940429688
0.270601898431777954 -0.0968176349997520447 -0.188577368855476379
0.280319839715957642 -0.276320725679397583 -0.0549552813172340393
-0.208412796258926392 0.0173292811959981918 -0.231417611241340637
-0.15022595226764679 0.0811089053750038147 -0.348156094551086426
-0.202469810843467712 0.12160009890794754 -0.264782696962356567
-0.212812408804893494 -0.137603089213371277 -0.311901748180389404
-0.185535743832588196 -0.0936638414859771729 -0.201027184724807739
-0.193831115961074829 -0.285198211669921875 -0.145781040191650391
-0.0747076645493507385 -0.257592111825942993 -0.137177497148513794
-0.0923124924302101135 -0.374270975589752197 -0.100849069654941559
-0.180594116449356079 0.0779898017644882202 -0.258399426937103271
-0.170628219842910767 0.0842997431755065918 -0.367750704288482666
-0.110387794673442841 0.156104207038879395 -0.274229437112808228
-0.0993744507431983948 -0.377389013767242432 0.0882824212312698364
-0.20164807140827179 -0.439190149307250977 0.0055607156828045845
-0.210539489984512329 -0.38550528883934021 0.102024272084236145
-0.0859053879976272583 0.279828667640686035 -0.274429500102996826
-0.017894107848405838 0.248674198985099792 -0.35344243049621582
-0.0214274711906909943 -0.318552970886230469 -0.0433226414024829865
-0.00192801153752952814 -0.307914912700653076 0.0675861015915870667
0.0961796417832374573 0.152595892548561096 -0.245209529995918274
0.152726173400878906 0.243224561214447021 -0.212851956486701965
0.163124397397041321 -0.330030888319015503 0.081087745726108551
0.209906890988349915 -0.251956939697265625 0.0188660621643066406
0.167013794183731079 0.114742472767829895 -0.167493611574172974
0.324368476867675781 0.172528445720672607 -0.22353847324848175
0.443728744983673096 0.128546804189682007 -0.173497200012207031
0.349949181079864502 -0.0279153566807508469 -0.0433941669762134552
0.450134247541427612 -0.230066120624542236 -0.00880539417266845703
0.352875381708145142 -0.251810371875762939 -0.10368366539478302
0.200988441705703735 -0.336119681596755981 -0.0525267906486988068
0.378481537103652954 0.207971572875976562 -0.135363340377807617
0.448134720325469971 0.0119768697768449783 -0.0589853487908840179
0.454616516828536987 -0.207160517573356628 -0.116532042622566223
-0.268465667963027954 0.127170160412788391 -0.0342780351638793945
-0.352282524108886719 0.160597637295722961 -0.0882858037948608398
-0.21984417736530304 0.00201421254314482212 -0.0200291462242603302
-0.185963302850723267 -0.202770128846168518 0.0502163134515285492
-0.235137924551963806 -0.294709861278533936 0.0551050864160060883
-0.115408889949321747 0.0820427760481834412 -0.0411305800080299377
-0.109407104551792145 0.192464709281921387 -0.0488553419709205627
-0.122001960873603821 -0.151538610458374023 0.0685234814882278442
-0.232270553708076477 -0.166977480053901672 0.0758159160614013672
-0.0931835174560546875 0.307410210371017456 -0.0545825548470020294
-0.0817139893770217896 -0.168683171272277832 -0.091082647442817688
0.102149643003940582 0.201703667640686035 -0.0288257990032434464
0.130904510617256165 -0.109498009085655212 -0.136402636766433716
0.139252334833145142 0.3030376136302948 -0.0489681921899318695
0.302678734064102173 0.239006519317626953 -0.0101196765899658203
0.299739837646484375 -0.0863474532961845398 0.039698481559753418
0.134358406066894531 -0.123738095164299011 -0.0254660826176404953
0.198202118277549744 0.207346156239509583 -0.00703513575717806816
0.232327774167060852 0.0191339980810880661 -0.1225556880235672
0.259332656860351562 -0.174011856317520142 -0.0158890075981616974
-0.315783798694610596 0.24712739884853363 0.143283605575561523
-0.416722267866134644 0.202975645661354065 0.125505328178405762
-0.245056137442588806 0.0782210826873779297 0.179816678166389465
-0.338241249322891235 -0.124210670590400696 0.198300868272781372
-0.281235367059707642 -0.196033045649528503 0.261994987726211548
-0.0869719162583351135 0.0964397042989730835 0.183268576860427856
-0.154447555541992188 0.177247852087020874 0.170168280601501465
-0.10917980968952179 -0.165659815073013306 0.287678033113479614
-0.04367828369140625 -0.191881269216537476 0.200189545750617981
-0.107380546629428864 0.322220265865325928 0.166847497224807739
0.0658003464341163635 -0.0694352090358734131 0.0453056879341602325
0.105845130980014801 0.253362685441970825 0.187344744801521301
0.078754425048828125 0.106611669063568115 -0.101271666586399078
0.113131202757358551 0.36114928126335144 0.165807798504829407
0.17364819347858429 0.191893860697746277 0.16858258843421936
0.345476448535919189 0.0237970016896724701 -0.148366689682006836
0.171694755554199219 0.0647528469562530518 -0.143275454640388489
0.233349785208702087 0.0991270244121551514 0.186089068651199341
0.0773413926362991333 0.0794127434492111206 0.0291671343147754669
0.239322975277900696 0.0255252402275800705 -0.116328194737434387
-0.418028801679611206 0.228549480438232422 0.237334161996841431
-0.262330353260040283 0.0662898942828178406 0.272964239120483398
-0.382269203662872314 -0.109746001660823822 0.303917914628982544
-0.127073913812637329 0.106884360313415527 0.286072880029678345
-0.160148933529853821 0.286035835742950439 0.296317338943481445
-0.292332947254180908 0.343595176935195923 0.316465288400650024
-0.299255043268203735 0.143999531865119934 0.426251262426376343
-0.231010109186172485 -0.0624136179685592651 0.393357843160629272
-0.119264915585517883 -0.141537562012672424 0.150202110409736633
-0.162881210446357727 -0.0330051891505718231 0.285459756851196289
-0.112044014036655426 0.33031877875328064 0.278127580881118774
-0.0148010244593024254 0.319003701210021973 0.128640726208686829
0.000391006440622732043 0.0162292290478944778 0.0590600557625293732
-0.0117778768762946129 0.116114191710948944 0.206411674618721008
0.023864109069108963 0.270912736654281616 0.113706983625888824
0.130645424127578735 0.180141285061836243 0.228873878717422485
0.154561996459960938 0.148224398493766785 -0.0314253568649291992
0.20314691960811615 0.0878622457385063171 0.12923915684223175
0.169790580868721008 0.0515496022999286652 0.188656836748123169
0.298490524291992188 0.159412682056427002 0.12348194420337677
0.103383056819438934 0.0108121708035469055 -0.0232913084328174591
0.101936653256416321 0.184339076280593872 0.0215033683925867081
0.277843475341796875 -0.0259426813572645187 0.113514654338359833
0.290365219116210938 0.076392829418182373 -0.0329283848404884338
-0.2456807941198349 0.306815803050994873 0.2276124507188797
-0.27736663818359375 0.101771526038646698 0.325174331665039062
-0.120542839169502258 -0.0312592834234237671 0.387371957302093506
-0.0761175155639648438 0.230918064713478088 0.105803206562995911
-0.120862320065498352 0.0222597662359476089 0.17840266227722168
0.0416103973984718323 0.107636585831642151 0.304935961961746216
0.0680144578218460083 0.0913881659507751465 0.209711387753486633
0.0418329238891601562 -0.054831918329000473 0.0402249880135059357
0.200559288263320923 -0.00528432196006178856 0.191103607416152954
3 0 1 2
3 1 3 4
3 2 1 4
3 3 5 6
3 4 3 6
3 5 7 6
3 0 8 9
3 1 0 9
3 9 10 1
3 1 10 3
3 10 11 3
3 3 11 5
3 5 11 12
3 7 5 12
3 8 13 14
3 9 8 14
3 14 15 9
3 9 15 10
3 15 16 10
3 10 16 11
3 11 16 17
3 12 11 17
3 14 13 18
3 15 14 18
3 19 15 18
3 16 15 19
3 20 16 19
3 16 20 17
3 21 22 23
3 22 24 25
3 23 22 25
3 24 26 27
3 25 24 27
3 26 28 27
3 29 30 31
3 2 22 21
3 0 2 21
3 0 21 31
3 0 31 30
3 4 22 2
3 24 22 4
3 6 24 4
3 26 24 6
3 26 32 28
3 6 32 26
3 6 33 32
3 6 7 33
3 33 34 32
3 29 35 36
3 30 29 36
3 36 0 30
3 8 0 36
3 12 33 7
3 37 33 12
3 33 37 38
3 34 33 38
3 35 39 40
3 36 35 40
3 40 8 36
3 13 8 40
3 17 37 12
3 41 37 17
3 37 41 42
3 38 37 42
3 40 39 43
3 43 44 45
3 40 43 45
3 40 45 18
3 40 18 13
3 18 46 19
3 45 46 18
3 19 47 20
3 46 47 19
3 48 49 41
3 47 48 41
3 47 41 17
3 47 17 20
3 41 49 42
3 45 44 50
3 46 45 50
3 51 46 50
3 47 46 51
3 52 47 51
3 47 52 48
3 53 21 23
3 54 53 23
3 23 25 54
3 25 55 54
3 25 27 55
3 27 56 55
3 28 57 56
3 27 28 56
3 58 29 31
3 59 58 31
3 31 53 59
3 21 53 31
3 60 28 32
3 57 28 60
3 34 61 60
3 32 34 60
3 35 29 62
3 62 29 58
3 38 63 34
3 63 61 34
3 39 35 64
3 64 35 62
3 42 65 38
3 65 63 38
3 66 43 39
3 64 66 39
3 44 66 67
3 43 66 44
3 68 49 48
3 69 49 68
3 49 69 65
3 42 49 65
3 70 50 44
3 67 70 44
3 50 70 51
3 51 70 71
3 51 71 52
3 52 71 72
3 52 72 68
3 48 52 68
3 73 53 54
3 74 73 54
3 54 55 74
3 55 75 74
3 55 56 75
3 56 76 75
3 57 77 76
3 56 57 76
3 78 58 59
3 79 78 59
3 59 73 79
3 53 73 59
3 80 57 60
3 77 57 80
3 61 81 80
3 60 61 80
3 62 58 82
3 82 58 78
3 63 83 61
3 83 81 61
3 64 62 84
3 84 62 82
3 65 85 63
3 85 83 63
3 86 66 64
3 84 86 64
3 67 86 87
3 66 86 67
3 88 69 68
3 89 69 88
3 69 89 85
3 65 69 85
3 90 70 67
3 87 90 67
3 70 90 71
3 71 90 91
3 71 91 72
3 72 91 92
3 72 92 88
3 68 72 88
3 73 74 93
3 74 75 94
3 93 74 94
3 75 76 95
3 94 75 95
3 76 77 95
3 78 79 96
3 97 93 98
3 96 93 97
3 96 73 93
3 96 79 73
3 94 98 93
3 99 98 94
3 95 99 94
3 100 99 95
3 100 101 102
3 95 101 100
3 95 80 101
3 95 77 80
3 80 81 101
3 82 78 96
3 103 82 96
3 96 104 103
3 97 104 96
3 102 105 106
3 101 105 102
3 105 101 81
3 83 105 81
3 84 82 103
3 107 84 103
3 103 108 107
3 104 108 103
3 106 109 110
3 105 109 106
3 109 105 83
3 85 109 83
3 86 84 107
3 107 108 111
3 86 107 111
3 86 111 112
3 86 112 87
3 112 113 114
3 111 113 112
3 114 115 116
3 113 115 114
3 89 110 109
3 88 110 89
3 88 115 110
3 88 116 115
3 89 109 85
3 90 87 112
3 91 90 112
3 114 91 112
3 92 91 114
3 116 92 114
3 92 116 88
3 97 98 117
3 98 99 118
3 117 98 118
3 99 100 119
3 118 99 119
3 100 102 119
3 104 97 117
3 120 104 117
3 120 117 121
3 117 118 121
3 121 118 122
3 118 119 122
3 122 119 102
3 106 122 102
3 108 104 120
3 123 108 120
3 123 120 124
3 120 121 124
3 124 121 125
3 121 122 125
3 125 122 106
3 110 125 106
3 111 108 123
3 113 111 123
3 124 113 123
3 115 113 124
3 125 115 124
3 115 125 110
