ply
format ascii 1.0
comment VCGLIB generated
element vertex 126
property float x
property float y
property float z
element face 248
property list uchar int vertex_indices
end_header
-0.377559661865234375 0.223531246185302734 -0.410987704992294312
-0.366475433111190796 0.13489927351474762 -0.522307693958282471
-0.45960235595703125 0.0941976532340049744 -0.489491790533065796
-0.292551666498184204 -0.0692419633269309998 -0.489737510681152344
-0.346991211175918579 -0.100275643169879913 -0.402178138494491577
-0.139872238039970398 -0.0489050894975662231 -0.326927334070205688
-0.205502822995185852 0.0196526758372783661 -0.270307540893554688
-0.138690948486328125 -0.0984697267413139343 -0.22794659435749054
-0.176194503903388977 0.270307868719100952 -0.366179794073104858
-0.154964447021484375 0.207034215331077576 -0.474649429321289062
-0.078648887574672699 -0.016312258318066597 -0.510512173175811768
-0.037212371826171875 -0.229928120970726013 -0.419728279113769531
-0.0335439033806324005 -0.271813780069351196 -0.31953778862953186
0.0403989143669605255 0.316911369562149048 -0.358836323022842407
0.064965568482875824 0.263538450002670288 -0.453315258026123047
0.115016937255859375 0.0466892234981060028 -0.414022117853164673
0.1793060302734375 -0.168805882334709167 -0.405409663915634155
0.1920013427734375 -0.24695761501789093 -0.33203125
0.164747878909111023 0.291281908750534058 -0.403334289789199829
0.224933624267578125 0.0748679414391517639 -0.420454502105712891
0.268224090337753296 -0.134310096502304077 -0.347931236028671265
-0.618143737316131592 0.145938470959663391 -0.247304752469062805
-0.524297058582305908 0.105426579713821411 -0.345551162958145142
-0.510626494884490967 0.11648782342672348 -0.240880802273750305
-0.463849395513534546 -0.0911592543125152588 -0.262422233819961548
-0.384604126214981079 -0.0811536088585853577 -0.248710319399833679
-0.254620879888534546 -0.147887244820594788 -0.266068309545516968
-0.235936477780342102 -0.199129179120063782 -0.163642719388008118
-0.135827377438545227 -0.189043536782264709 -0.160009697079658508
-0.455338805913925171 0.197022497653961182 -0.121617794036865234
-0.4026031494140625 0.223281994462013245 -0.221901580691337585
-0.515963256359100342 0.280776947736740112 -0.180867508053779602
-0.169415786862373352 -0.128315553069114685 -0.0114620523527264595
-0.0527394600212574005 -0.126518264412879944 -0.0722799301147460938
-0.128645583987236023 -0.19157099723815918 -0.108524799346923828
-0.218888595700263977 0.176005437970161438 -0.0947106704115867615
-0.208276107907295227 0.237419053912162781 -0.169819042086601257
-0.0196444187313318253 -0.332569122314453125 -0.159878090023994446
0.00217564892955124378 -0.358318895101547241 -0.0587534904479980469
-0.022762298583984375 0.319281458854675293 -0.076076507568359375
-0.015430450439453125 0.345644980669021606 -0.179378822445869446
0.209534958004951477 -0.35358080267906189 -0.189915820956230164
0.220399215817451477 -0.337508171796798706 -0.0867528915405273438
0.0276425685733556747 0.434423089027404785 -0.0880883559584617615
0.167148590087890625 0.350701093673706055 -0.129012897610664368
0.25423431396484375 0.279652953147888184 -0.236010387539863586
0.199347183108329773 0.0598770268261432648 -0.24625985324382782
0.370639801025390625 -0.0770721361041069031 -0.215956211090087891
0.405534118413925171 -0.172239959239959717 -0.122773014008998871
0.322821289300918579 -0.322122007608413696 -0.0981006622314453125
0.256735473871231079 0.285023808479309082 -0.137507915496826172
0.187811538577079773 0.0793368667364120483 -0.134823322296142578
0.313135772943496704 -0.0989629030227661133 -0.118968166410923004
-0.646756470203399658 0.150798901915550232 -0.0191974639892578125
-0.582981109619140625 0.0425964146852493286 -0.04253387451171875
-0.367830902338027954 0.0602424442768096924 -0.0903372764587402344
-0.345156341791152954 -0.144935876131057739 -0.0140377683565020561
-0.248090103268623352 -0.228846445679664612 0.0345009155571460724
-0.366408020257949829 0.253052502870559692 0.0535804443061351776
-0.496243804693222046 0.307178229093551636 0.0380269698798656464
-0.095001220703125 -0.302469342947006226 0.110121406614780426
-0.190775558352470398 -0.257855743169784546 0.0870935097336769104
-0.243907928466796875 0.0647131800651550293 0.122900165617465973
0.00313059496693313122 -0.304051667451858521 0.157052680850028992
0.00569280004128813744 0.219716891646385193 0.138599708676338196
0.241273239254951477 -0.30813896656036377 0.135375186800956726
0.0107358293607831001 0.353001832962036133 0.160840824246406555
0.106492362916469574 0.302939563989639282 0.0801882743835449219
0.436304718255996704 -0.117412440478801727 0.0930223464965820312
0.3618621826171875 -0.27509346604347229 0.120384059846401215
0.208141326904296875 0.339895009994506836 0.0819849967956542969
0.188454940915107727 0.141978427767753601 0.0777465477585792542
0.367154449224472046 -0.00983162317425012589 0.0559161491692066193
-0.647441864013671875 0.169309481978416443 0.20040448009967804
-0.591135680675506592 0.136523127555847168 0.138521835207939148
-0.392730712890625 0.16301475465297699 0.100711822509765625
-0.236092880368232727 -0.0053422912023961544 0.129328727722167969
-0.158437088131904602 -0.0189252682030200958 0.040737152099609375
-0.396288543939590454 0.316104680299758911 0.26665845513343811
-0.550085723400115967 0.341875642538070679 0.234558746218681335
-0.024982452392578125 -0.0935368910431861877 0.148157283663749695
-0.116546630859375 -0.0523107610642910004 0.150858238339424133
-0.267134338617324829 0.163659289479255676 0.332091003656387329
0.0149676008149981499 -0.118013143539428711 0.288667678833007812
-0.0431645698845386505 0.204021811485290527 0.359587669372558594
0.234784439206123352 -0.153306052088737488 0.290214061737060547
-0.0487721748650074005 0.346165329217910767 0.366116374731063843
0.066354118287563324 0.433365613222122192 0.266341686248779297
0.423229217529296875 -0.0294618606567382812 0.303885310888290405
0.326814025640487671 -0.191119790077209473 0.325945377349853516
0.184800460934638977 0.403048038482666016 0.298184722661972046
0.338147491216659546 0.269349485635757446 0.177147865295410156
0.448247283697128296 0.0679306909441947937 0.23766326904296875
-0.567854583263397217 0.0803809165954589844 0.246240302920341492
-0.352593749761581421 0.0932023227214813232 0.148736640810966492
-0.292352050542831421 -0.0634090080857276917 0.0345865897834300995
-0.439898163080215454 0.351097464561462402 0.327295452356338501
-0.405597686767578125 0.229593575000762939 0.443093627691268921
-0.449873596429824829 0.133418366312980652 0.386192172765731812
-0.233462020754814148 0.146747991442680359 0.246026992797851562
-0.328164428472518921 -0.0540367402136325836 0.214386299252510071
-0.071618400514125824 0.0341895446181297302 0.207543060183525085
-0.242680862545967102 0.012539873830974102 0.285479873418807983
-0.202135726809501648 0.332100659608840942 0.33097076416015625
-0.14455413818359375 0.27281266450881958 0.460064411163330078
0.0301793422549962997 -0.0331440083682537079 0.374597400426864624
-0.076917015016078949 -0.148441299796104431 0.343833118677139282
0.0324300117790699005 0.390864759683609009 0.436696857213973999
0.077939353883266449 0.316040962934494019 0.326312869787216187
0.208993270993232727 -0.137679234147071838 0.395647674798965454
0.116146087646484375 -0.0141595704481005669 0.278978496789932251
0.133871719241142273 0.277764618396759033 0.190328434109687805
0.198365524411201477 0.450307577848434448 0.233850955963134766
0.240858718752861023 0.297158747911453247 0.00859689712524414062
0.401714324951171875 0.313664227724075317 0.190624713897705078
0.213305160403251648 0.0684736892580986023 0.165953949093818665
0.365741729736328125 0.139426484704017639 0.297760009765625
-0.3442230224609375 0.209028080105781555 0.340204715728759766
-0.223688766360282898 0.0893972888588905334 0.33540615439414978
-0.346571594476699829 -0.0618301592767238617 0.3166656494140625
-0.102382659912109375 0.265964120626449585 0.32645687460899353
0.062920890748500824 0.148160591721534729 0.37276807427406311
-0.109887443482875824 -0.172050222754478455 0.279911041259765625
0.0220858249813318253 0.259691387414932251 0.118088722229003906
0.221379593014717102 0.291481584310531616 0.162701919674873352
0.160359695553779602 -0.0712568685412406921 0.276450157165527344
3 0 1 2
3 1 3 4
3 2 1 4
3 3 5 6
3 4 3 6
3 5 7 6
3 0 8 9
3 1 0 9
3 9 10 1
3 1 10 3
3 10 11 3
3 3 11 5
3 5 11 12
3 7 5 12
3 8 13 14
3 9 8 14
3 14 15 9
3 9 15 10
3 15 16 10
3 10 16 11
3 11 16 17
3 12 11 17
3 14 13 18
3 15 14 18
3 19 15 18
3 16 15 19
3 20 16 19
3 16 20 17
3 21 22 23
3 22 24 25
3 23 22 25
3 24 26 27
3 25 24 27
3 26 28 27
3 29 30 31
3 2 22 21
3 0 2 21
3 0 21 31
3 0 31 30
3 4 22 2
3 24 22 4
3 6 24 4
3 26 24 6
3 26 32 28
3 6 32 26
3 6 33 32
3 6 7 33
3 33 34 32
3 29 35 36
3 30 29 36
3 36 0 30
3 8 0 36
3 12 33 7
3 37 33 12
3 33 37 38
3 34 33 38
3 35 39 40
3 36 35 40
3 40 8 36
3 13 8 40
3 17 37 12
3 41 37 17
3 37 41 42
3 38 37 42
3 40 39 43
3 43 44 45
3 40 43 45
3 40 45 18
3 40 18 13
3 18 46 19
3 45 46 18
3 19 47 20
3 46 47 19
3 48 49 41
3 47 48 41
3 47 41 17
3 47 17 20
3 41 49 42
3 45 44 50
3 46 45 50
3 51 46 50
3 47 46 51
3 52 47 51
3 47 52 48
3 53 21 23
3 54 53 23
3 23 25 54
3 25 55 54
3 25 27 55
3 27 56 55
3 28 57 56
3 27 28 56
3 58 29 31
3 59 58 31
3 31 53 59
3 21 53 31
3 60 28 32
3 57 28 60
3 34 61 60
3 32 34 60
3 35 29 62
3 62 29 58
3 38 63 34
3 63 61 34
3 39 35 64
3 64 35 62
3 42 65 38
3 65 63 38
3 66 43 39
3 64 66 39
3 44 66 67
3 43 66 44
3 68 49 48
3 69 49 68
3 49 69 65
3 42 49 65
3 70 50 44
3 67 70 44
3 50 70 51
3 51 70 71
3 51 71 52
3 52 71 72
3 52 72 68
3 48 52 68
3 73 53 54
3 74 73 54
3 54 55 74
3 55 75 74
3 55 56 75
3 56 76 75
3 57 77 76
3 56 57 76
3 78 58 59
3 79 78 59
3 59 73 79
3 53 73 59
3 80 57 60
3 77 57 80
3 61 81 80
3 60 61 80
3 62 58 82
3 82 58 78
3 63 83 61
3 83 81 61
3 64 62 84
3 84 62 82
3 65 85 63
3 85 83 63
3 86 66 64
3 84 86 64
3 67 86 87
3 66 86 67
3 88 69 68
3 89 69 88
3 69 89 85
3 65 69 85
3 90 70 67
3 87 90 67
3 70 90 71
3 71 90 91
3 71 91 72
3 72 91 92
3 72 92 88
3 68 72 88
3 73 74 93
3 74 75 94
3 93 74 94
3 75 76 95
3 94 75 95
3 76 77 95
3 78 79 96
3 97 93 98
3 96 93 97
3 96 73 93
3 96 79 73
3 94 98 93
3 99 98 94
3 95 99 94
3 100 99 95
3 100 101 102
3 95 101 100
3 95 80 101
3 95 77 80
3 80 81 101
3 82 78 96
3 103 82 96
3 96 104 103
3 97 104 96
3 102 105 106
3 101 105 102
3 105 101 81
3 83 105 81
3 84 82 103
3 107 84 103
3 103 108 107
3 104 108 103
3 106 109 110
3 105 109 106
3 109 105 83
3 85 109 83
3 86 84 107
3 107 108 111
3 86 107 111
3 86 111 112
3 86 112 87
3 112 113 114
3 111 113 112
3 114 115 116
3 113 115 114
3 89 110 109
3 88 110 89
3 88 115 110
3 88 116 115
3 89 109 85
3 90 87 112
3 91 90 112
3 114 91 112
3 92 91 114
3 116 92 114
3 92 116 88
3 97 98 117
3 98 99 118
3 117 98 118
3 99 100 119
3 118 99 119
3 100 102 119
3 104 97 117
3 120 104 117
3 120 117 121
3 117 118 121
3 121 118 122
3 118 119 122
3 122 119 102
3 106 122 102
3 108 104 120
3 123 108 120
3 123 120 124
3 120 121 124
3 124 121 125
3 121 122 125
3 125 122 106
3 110 125 106
3 111 108 123
3 113 111 123
3 124 113 123
3 115 113 124
3 125 115 124
3 115 125 110
