ply
format ascii 1.0
comment VCGLIB generated
element vertex 126
property float x
property float y
property float z
element face 248
property list uchar int vertex_indices
end_header
-0.141092926263809204 0.0709903836250305176 -0.543094635009765625
-0.139069557189941406 0.0405489206314086914 -0.430547982454299927
-0.145627647638320923 -0.0488487780094146729 -0.481970876455307007
-0.144284561276435852 -0.172669306397438049 -0.350400984287261963
-0.034583408385515213 -0.171203657984733582 -0.34220355749130249
-0.166594177484512329 -0.355512022972106934 -0.222297698259353638
-0.0588226281106472015 -0.37079504132270813 -0.228693082928657532
-0.13844648003578186 -0.330660879611968994 -0.120951727032661438
0.0577147789299488068 0.116338163614273071 -0.452110737562179565
0.079504646360874176 0.00779924402013421059 -0.440962702035903931
0.0640471726655960083 -0.144468873739242554 -0.27474898099899292
0.0519561730325222015 -0.347557663917541504 -0.174561142921447754
0.049257274717092514 -0.453164845705032349 -0.136351585388183594
0.243484169244766235 0.158782348036766052 -0.339143872261047363
0.242288902401924133 0.0544409379363059998 -0.294790267944335938
0.286450386047363281 -0.164039328694343567 -0.27268606424331665
0.272232681512832642 -0.343717664480209351 -0.138743117451667786
0.251204162836074829 -0.412390470504760742 -0.0506478510797023773
0.347657203674316406 0.0743220746517181396 -0.309062004089355469
0.270255386829376221 -0.0983536764979362488 -0.185103803873062134
0.282419502735137939 -0.278051763772964478 -0.0483510866761207581
-0.200950294733047485 0.0331219546496868134 -0.23208954930305481
-0.143671035766601562 0.0970489457249641418 -0.365255653858184814
-0.166428878903388977 0.142625615000724792 -0.260805487632751465
-0.18960157036781311 -0.112498015165328979 -0.294976621866226196
-0.158184364438056946 -0.0812470689415931702 -0.19882519543170929
-0.200551345944404602 -0.29099610447883606 -0.158831477165222168
-0.0978247299790382385 -0.274854600429534912 -0.126173093914985657
-0.104506805539131165 -0.376047611236572266 -0.104169048368930817
-0.174163177609443665 0.0759056806564331055 -0.252738386392593384
-0.178171783685684204 0.082336820662021637 -0.3633880615234375
-0.116000168025493622 0.168017357587814331 -0.275059133768081665
-0.100409187376499176 -0.37637600302696228 0.0821516886353492737
-0.198806121945381165 -0.439573049545288086 0.00766138220205903053
-0.207773834466934204 -0.381243199110031128 0.105898775160312653
-0.086669921875 0.281271785497665405 -0.272496342658996582
-0.0226004905998706818 0.242314949631690979 -0.350943803787231445
-0.0211842842400074005 -0.316996186971664429 -0.0437806025147438049
0.000952084839809685946 -0.306604474782943726 0.0672918558120727539
0.096823371946811676 0.155222967267036438 -0.244100481271743774
0.152571991086006165 0.243416294455528259 -0.210473135113716125
0.161617591977119446 -0.331365138292312622 0.0823060646653175354
0.209919601678848267 -0.251377195119857788 0.0204149875789880753
0.167716339230537415 0.113525435328483582 -0.16742725670337677
0.326822578907012939 0.172347754240036011 -0.221298724412918091
0.445780724287033081 0.127629891037940979 -0.168965846300125122
0.348706245422363281 -0.0280785448849201202 -0.042273402214050293
0.448802292346954346 -0.22856554388999939 -0.00250120949931442738
0.352025032043457031 -0.247558966279029846 -0.100511506199836731
0.202388748526573181 -0.335533976554870605 -0.0511636324226856232
0.381051689386367798 0.207450389862060547 -0.133223533630371094
0.449794113636016846 0.0127703277394175529 -0.0531693287193775177
0.455892860889434814 -0.205417215824127197 -0.111182324588298798
-0.261816978454589844 0.103386521339416504 -0.0286660585552453995
-0.299787521362304688 0.193325042724609375 -0.0912801399827003479
-0.162038803100585938 0.0161531064659357071 -0.0156390666961669922
-0.190091118216514587 -0.196282133460044861 0.0549830980598926544
-0.220678642392158508 -0.306356936693191528 0.0744213610887527466
-0.116496078670024872 0.0852467864751815796 -0.0370343513786792755
-0.109157554805278778 0.195111840963363647 -0.0470459423959255219
-0.122075073421001434 -0.151343554258346558 0.0641391649842262268
-0.227262169122695923 -0.157255321741104126 0.0771029740571975708
-0.0960286408662796021 0.308757871389389038 -0.0494619198143482208
-0.07701873779296875 -0.169640570878982544 -0.0908249616622924805
0.102345146238803864 0.205108672380447388 -0.0276132412254810333
0.135407447814941406 -0.107918329536914825 -0.134634166955947876
0.141609504818916321 0.305071860551834106 -0.0491360798478126526
0.303969383239746094 0.238117441534996033 -0.00791331101208925247
0.298422157764434814 -0.0840716883540153503 0.0421235933899879456
0.135755538940429688 -0.124537855386734009 -0.0237075481563806534
0.199238449335098267 0.205755442380905151 -0.00614345027133822441
0.235109314322471619 0.0207270868122577667 -0.120437540113925934
0.260912567377090454 -0.17257516086101532 -0.0118748340755701065
-0.313588768243789673 0.24765738844871521 0.142559602856636047
-0.414144188165664673 0.199313879013061523 0.117245309054851532
-0.247136741876602173 0.0760892406105995178 0.187292695045471191
-0.344576835632324219 -0.125183418393135071 0.201101884245872498
-0.283780097961425781 -0.198352336883544922 0.254461348056793213
-0.0854905396699905396 0.0961202308535575867 0.18383343517780304
-0.153347641229629517 0.182037845253944397 0.174670413136482239
-0.106922782957553864 -0.16478218138217926 0.290470510721206665
-0.035425819456577301 -0.187169954180717468 0.204537898302078247
-0.108021095395088196 0.3238200843334198 0.171935752034187317
0.0768311768770217896 -0.0745485052466392517 0.0409873314201831818
0.105973877012729645 0.256094485521316528 0.190310671925544739
0.0778420716524124146 0.106002248823642731 -0.100185863673686981
0.11440594494342804 0.363387495279312134 0.166128069162368774
0.172279670834541321 0.193350046873092651 0.1689014732837677
0.345409691333770752 0.0236986763775348663 -0.146581321954727173
0.17078717052936554 0.0650415197014808655 -0.139752626419067383
0.232130676507949829 0.101107873022556305 0.188548550009727478
0.0771935731172561646 0.0801425576210021973 0.0287808962166309357
0.239809349179267883 0.0257161222398281097 -0.116030566394329071
-0.417653709650039673 0.228933408856391907 0.235576421022415161
-0.261545181274414062 0.0704582259058952332 0.276019960641860962
-0.379869133234024048 -0.107901476323604584 0.304484367370605469
-0.128533035516738892 0.108215495944023132 0.289011001586914062
-0.161752700805664062 0.287427127361297607 0.297299414873123169
-0.293863594532012939 0.346145749092102051 0.318154275417327881
-0.299800217151641846 0.143287539482116699 0.421549052000045776
-0.229204490780830383 -0.0700686350464820862 0.396359533071517944
-0.118775360286235809 -0.148181408643722534 0.152239590883255005
-0.163857132196426392 -0.0303227435797452927 0.285294830799102783
-0.112506546080112457 0.330805987119674683 0.281537353992462158
-0.0168673191219568253 0.318300306797027588 0.130845308303833008
0.00598112726584076881 0.0092926025390625 0.0569768734276294708
-0.0142510728910565376 0.116223327815532684 0.202330142259597778
0.0251738224178552628 0.271284580230712891 0.114696815609931946
0.128706291317939758 0.180090069770812988 0.231483772397041321
0.151419639587402344 0.152357161045074463 -0.0316198654472827911
0.198864921927452087 0.0881926417350769043 0.131029874086380005
0.168299674987792969 0.0521258972585201263 0.189569786190986633
0.297182381153106689 0.159951359033584595 0.123431481420993805
0.102529518306255341 0.00942049082368612289 -0.0225232038646936417
0.10235150158405304 0.184835001826286316 0.0191839523613452911
0.275246292352676392 -0.0250663384795188904 0.116159714758396149
0.291271209716796875 0.0746563896536827087 -0.0312491245567798615
-0.246922165155410767 0.303371697664260864 0.230198696255683899
-0.279498100280761719 0.0996866524219512939 0.317564398050308228
-0.120199516415596008 -0.0352301634848117828 0.390880286693572998
-0.078837074339389801 0.230135664343833923 0.10396142303943634
-0.120638206601142883 0.0188878439366817474 0.177112415432929993
0.0368785858154296875 0.10776306688785553 0.304856300354003906
0.0655953064560890198 0.0926997587084770203 0.209044411778450012
0.0393215790390968323 -0.0548460818827152252 0.041017729789018631
0.196604713797569275 -0.00521903298795223236 0.190743595361709595
3 0 1 2
3 1 3 4
3 2 1 4
3 3 5 6
3 4 3 6
3 5 7 6
3 0 8 9
3 1 0 9
3 9 10 1
3 1 10 3
3 10 11 3
3 3 11 5
3 5 11 12
3 7 5 12
3 8 13 14
3 9 8 14
3 14 15 9
3 9 15 10
3 15 16 10
3 10 16 11
3 11 16 17
3 12 11 17
3 14 13 18
3 15 14 18
3 19 15 18
3 16 15 19
3 20 16 19
3 16 20 17
3 21 22 23
3 22 24 25
3 23 22 25
3 24 26 27
3 25 24 27
3 26 28 27
3 29 30 31
3 2 22 21
3 0 2 21
3 0 21 31
3 0 31 30
3 4 22 2
3 24 22 4
3 6 24 4
3 26 24 6
3 26 32 28
3 6 32 26
3 6 33 32
3 6 7 33
3 33 34 32
3 29 35 36
3 30 29 36
3 36 0 30
3 8 0 36
3 12 33 7
3 37 33 12
3 33 37 38
3 34 33 38
3 35 39 40
3 36 35 40
3 40 8 36
3 13 8 40
3 17 37 12
3 41 37 17
3 37 41 42
3 38 37 42
3 40 39 43
3 43 44 45
3 40 43 45
3 40 45 18
3 40 18 13
3 18 46 19
3 45 46 18
3 19 47 20
3 46 47 19
3 48 49 41
3 47 48 41
3 47 41 17
3 47 17 20
3 41 49 42
3 45 44 50
3 46 45 50
3 51 46 50
3 47 46 51
3 52 47 51
3 47 52 48
3 53 21 23
3 54 53 23
3 23 25 54
3 25 55 54
3 25 27 55
3 27 56 55
3 28 57 56
3 27 28 56
3 58 29 31
3 59 58 31
3 31 53 59
3 21 53 31
3 60 28 32
3 57 28 60
3 34 61 60
3 32 34 60
3 35 29 62
3 62 29 58
3 38 63 34
3 63 61 34
3 39 35 64
3 64 35 62
3 42 65 38
3 65 63 38
3 66 43 39
3 64 66 39
3 44 66 67
3 43 66 44
3 68 49 48
3 69 49 68
3 49 69 65
3 42 49 65
3 70 50 44
3 67 70 44
3 50 70 51
3 51 70 71
3 51 71 52
3 52 71 72
3 52 72 68
3 48 52 68
3 73 53 54
3 74 73 54
3 54 55 74
3 55 75 74
3 55 56 75
3 56 76 75
3 57 77 76
3 56 57 76
3 78 58 59
3 79 78 59
3 59 73 79
3 53 73 59
3 80 57 60
3 77 57 80
3 61 81 80
3 60 61 80
3 62 58 82
3 82 58 78
3 63 83 61
3 83 81 61
3 64 62 84
3 84 62 82
3 65 85 63
3 85 83 63
3 86 66 64
3 84 86 64
3 67 86 87
3 66 86 67
3 88 69 68
3 89 69 88
3 69 89 85
3 65 69 85
3 90 70 67
3 87 90 67
3 70 90 71
3 71 90 91
3 71 91 72
3 72 91 92
3 72 92 88
3 68 72 88
3 73 74 93
3 74 75 94
3 93 74 94
3 75 76 95
3 94 75 95
3 76 77 95
3 78 79 96
3 97 93 98
3 96 93 97
3 96 73 93
3 96 79 73
3 94 98 93
3 99 98 94
3 95 99 94
3 100 99 95
3 100 101 102
3 95 101 100
3 95 80 101
3 95 77 80
3 80 81 101
3 82 78 96
3 103 82 96
3 96 104 103
3 97 104 96
3 102 105 106
3 101 105 102
3 105 101 81
3 83 105 81
3 84 82 103
3 107 84 103
3 103 108 107
3 104 108 103
3 106 109 110
3 105 109 106
3 109 105 83
3 85 109 83
3 86 84 107
3 107 108 111
3 86 107 111
3 86 111 112
3 86 112 87
3 112 113 114
3 111 113 112
3 114 115 116
3 113 115 114
3 89 110 109
3 88 110 89
3 88 115 110
3 88 116 115
3 89 109 85
3 90 87 112
3 91 90 112
3 114 91 112
3 92 91 114
3 116 92 114
3 92 116 88
3 97 98 117
3 98 99 118
3 117 98 118
3 99 100 119
3 118 99 119
3 100 102 119
3 104 97 117
3 120 104 117
3 120 117 121
3 117 118 121
3 121 118 122
3 118 119 122
3 122 119 102
3 106 122 102
3 108 104 120
3 123 108 120
3 123 120 124
3 120 121 124
3 124 121 125
3 121 122 125
3 125 122 106
3 110 125 106
3 111 108 123
3 113 111 123
3 124 113 123
3 115 113 124
3 125 115 124
3 115 125 110
