ply
format ascii 1.0
comment VCGLIB generated
element vertex 126
property float x
property float y
property float z
element face 248
property list uchar int vertex_indices
end_header
-0.403818756341934204 0.131597459316253662 -0.411730289459228516
-0.403498321771621704 0.156679883599281311 -0.521191120147705078
-0.5222015380859375 0.129500284790992737 -0.437786728143692017
-0.320163726806640625 -0.0632730796933174133 -0.491630405187606812
-0.38341522216796875 -0.0480731464922428131 -0.400993973016738892
-0.148316696286201477 -0.0411167815327644348 -0.34610477089881897
-0.202077224850654602 0.0248122271150350571 -0.295426696538925171
-0.143595382571220398 -0.0975976660847663879 -0.248305484652519226
-0.221468612551689148 0.228685691952705383 -0.338445991277694702
-0.186869308352470398 0.225852265954017639 -0.442716926336288452
-0.112444557249546051 0.0109199052676558495 -0.45884975790977478
-0.025508880615234375 -0.195962890982627869 -0.436850547790527344
-0.0113538103178143501 -0.247105240821838379 -0.339029163122177124
-0.046504974365234375 0.307039171457290649 -0.245857402682304382
0.00963083934038877487 0.304355770349502563 -0.33945116400718689
0.089138031005859375 0.0831004530191421509 -0.373353958129882812
0.178202316164970398 -0.130124270915985107 -0.395606040954589844
0.199565887451171875 -0.206175088882446289 -0.32010379433631897
0.091302238404750824 0.29056897759437561 -0.260382652282714844
0.197374984622001648 0.110208682715892792 -0.337493270635604858
0.2719268798828125 -0.100814677774906158 -0.332130104303359985
-0.600973784923553467 0.160187765955924988 -0.168177440762519836
-0.60123443603515625 0.0886752679944038391 -0.276478290557861328
-0.637540161609649658 0.0464315414428710938 -0.164469718933105469
-0.468976348638534546 -0.0946704819798469543 -0.26774325966835022
-0.432389587163925171 -0.0595434308052062988 -0.180927753448486328
-0.252780914306640625 -0.138971805572509766 -0.253256648778915405
-0.270071655511856079 -0.200728580355644226 -0.171362876892089844
-0.168999984860420227 -0.201412484049797058 -0.157246112823486328
-0.389546722173690796 0.161688566207885742 -0.129739284515380859
-0.391134887933731079 0.140576198697090149 -0.235587283968925476
-0.429026275873184204 0.2546958327293396 -0.15301068127155304
-0.137280777096748352 -0.0940067470073699951 -0.00916131306439638138
-0.0460688285529613495 -0.0905251875519752502 -0.0975213050842285156
-0.126162216067314148 -0.158416911959648132 -0.104353748261928558
-0.228678390383720398 0.00832957122474908829 -0.110139049589633942
-0.179213210940361023 0.0679587945342063904 -0.22754843533039093
-0.0123278303071856499 -0.299717456102371216 -0.158646747469902039
-0.00897216796875 -0.33362308144569397 -0.0424359627068042755
-0.0394121818244457245 0.11748155951499939 -0.0815563201904296875
-0.098219551146030426 0.220897972583770752 -0.0859099999070167542
0.209561660885810852 -0.310261636972427368 -0.174698516726493835
0.217592880129814148 -0.329977899789810181 -0.0720168724656105042
-0.00794347096234560013 0.179939344525337219 -0.00402100896462798119
0.159512832760810852 0.162402525544166565 -0.0690412521362304688
0.216106414794921875 0.265764802694320679 -0.133936092257499695
0.2126007080078125 0.0513097383081912994 -0.168604686856269836
0.398441314697265625 -0.0615690536797046661 -0.212962314486503601
0.436346679925918579 -0.161296531558036804 -0.139512062072753906
0.31760406494140625 -0.283429950475692749 -0.0849078521132469177
0.115634918212890625 0.264646977186203003 -0.0830659866333007812
0.258450835943222046 0.09133148193359375 -0.0822173729538917542
0.327748626470565796 -0.116193927824497223 -0.136082485318183899
-0.609093964099884033 0.184062540531158447 0.0563472099602222443
-0.580145537853240967 0.0591381341218948364 0.0699702873826026917
-0.40711212158203125 0.0629430040717124939 -0.0415612868964672089
-0.345136016607284546 -0.142361655831336975 0.0231838226318359375
-0.260730743408203125 -0.216269299387931824 0.0418500900268554688
-0.350786834955215454 0.231014728546142578 0.067944847047328949
-0.445565551519393921 0.211349591612815857 0.075562797486782074
-0.100738525390625 -0.262365609407424927 0.125060558319091797
-0.194693252444267273 -0.208159670233726501 0.101866722106933594
-0.271806091070175171 0.0107100429013371468 0.127417564392089844
0.007205963134765625 -0.244658425450325012 0.172657489776611328
-0.0475362129509449005 0.045827861875295639 0.117846488952636719
0.227411910891532898 -0.246487796306610107 0.140932247042655945
0.0384572334587574005 0.0827050581574440002 0.174621269106864929
0.0600293464958667755 0.247986435890197754 0.125485584139823914
0.434079498052597046 -0.0667284652590751648 0.0669020041823387146
0.330996185541152954 -0.213503018021583557 0.129399463534355164
0.161373138427734375 0.30470728874206543 0.126424312591552734
0.237964630126953125 0.0805956795811653137 0.127042770385742188
0.419854491949081421 0.0371451638638973236 -0.00147755944635719061
-0.602230072021484375 0.148468583822250366 0.288973957300186157
-0.510162353515625 0.130221858620643616 0.273425579071044922
-0.362855285406112671 0.176374554634094238 0.108548961579799652
-0.21457672119140625 0.0123609304428100586 0.112461887300014496
-0.165493011474609375 -0.0255561694502830505 0.0286250114440917969
-0.359774261713027954 0.324833303689956665 0.279219776391983032
-0.424383789300918579 0.238626539707183838 0.289579868316650391
-0.0330975838005542755 -0.0424653142690658569 0.15740029513835907
-0.124655403196811676 -0.0072398982010781765 0.168981239199638367
-0.213125869631767273 0.140149936079978943 0.314825206995010376
0.0195477809756994247 -0.0608933717012405396 0.307431697845458984
-0.0222918186336755753 0.0696637779474258423 0.324900776147842407
0.241850540041923523 -0.0926007628440856934 0.314878940582275391
-0.096769966185092926 0.148149624466896057 0.342340946197509766
0.0359369926154613495 0.262358695268630981 0.350919246673583984
0.437760680913925171 0.00274322996847331524 0.266989231109619141
0.344903320074081421 -0.129874810576438904 0.348440170288085938
0.1325836181640625 0.304610520601272583 0.339153915643692017
0.308756500482559204 0.280152171850204468 0.17977459728717804
0.398563385009765625 0.0924997851252555847 0.213430881500244141
-0.511658966541290283 0.0367070883512496948 0.317120552062988281
-0.337282806634902954 0.0902322754263877869 0.159372806549072266
-0.294492095708847046 -0.0783553794026374817 0.0809615477919578552
-0.387301117181777954 0.303343206644058228 0.395631641149520874
-0.281222015619277954 0.171728953719139099 0.402363628149032593
-0.42425537109375 0.191932499408721924 0.420751720666885376
-0.264952331781387329 0.146967634558677673 0.282705157995223999
-0.221927642822265625 -0.0819097161293029785 0.227774307131767273
-0.0542208366096019745 0.098704017698764801 0.156462192535400391
-0.176701858639717102 0.038106139749288559 0.290828853845596313
-0.236531570553779602 0.241581305861473083 0.282142013311386108
-0.083957672119140625 0.27610740065574646 0.343650668859481812
0.095315299928188324 0.0208778064697980881 0.286478191614151001
-0.000924428284633904696 -0.109722495079040527 0.259971946477890015
-0.057697296142578125 0.101825833320617676 0.210240200161933899
0.0583826713263988495 0.286938220262527466 0.176675796508789062
0.247656509280204773 -0.0427205711603164673 0.396867275238037109
0.135913848876953125 0.0258004684001207352 0.255739212036132812
0.153575897216796875 0.200943350791931152 0.1615753173828125
0.063435874879360199 0.319904297590255737 0.228647395968437195
0.151885986328125 0.149725452065467834 -0.0370252914726734161
0.22316741943359375 0.246962741017341614 0.100159965455532074
0.171539306640625 -0.00455650174990296364 0.142045497894287109
0.33880615234375 0.0470004267990589142 0.147829368710517883
-0.331912994384765625 0.275664806365966797 0.397394031286239624
-0.180960342288017273 0.132883846759796143 0.339520454406738281
-0.150110885500907898 -0.0740908533334732056 0.28290066123008728
-0.167219802737236023 0.279841125011444092 0.247645378112792969
0.0148976640775799751 0.234905734658241272 0.295980304479598999
0.062592826783657074 -0.0101114828139543533 0.309152603149414062
-0.01116180419921875 0.210035741329193115 0.159435585141181946
0.148966476321220398 0.230051860213279724 0.0769181251525878906
0.236548110842704773 0.0321811698377132416 0.217936515808105469
3 0 1 2
3 1 3 4
3 2 1 4
3 3 5 6
3 4 3 6
3 5 7 6
3 0 8 9
3 1 0 9
3 9 10 1
3 1 10 3
3 10 11 3
3 3 11 5
3 5 11 12
3 7 5 12
3 8 13 14
3 9 8 14
3 14 15 9
3 9 15 10
3 15 16 10
3 10 16 11
3 11 16 17
3 12 11 17
3 14 13 18
3 15 14 18
3 19 15 18
3 16 15 19
3 20 16 19
3 16 20 17
3 21 22 23
3 22 24 25
3 23 22 25
3 24 26 27
3 25 24 27
3 26 28 27
3 29 30 31
3 2 22 21
3 0 2 21
3 0 21 31
3 0 31 30
3 4 22 2
3 24 22 4
3 6 24 4
3 26 24 6
3 26 32 28
3 6 32 26
3 6 33 32
3 6 7 33
3 33 34 32
3 29 35 36
3 30 29 36
3 36 0 30
3 8 0 36
3 12 33 7
3 37 33 12
3 33 37 38
3 34 33 38
3 35 39 40
3 36 35 40
3 40 8 36
3 13 8 40
3 17 37 12
3 41 37 17
3 37 41 42
3 38 37 42
3 40 39 43
3 43 44 45
3 40 43 45
3 40 45 18
3 40 18 13
3 18 46 19
3 45 46 18
3 19 47 20
3 46 47 19
3 48 49 41
3 47 48 41
3 47 41 17
3 47 17 20
3 41 49 42
3 45 44 50
3 46 45 50
3 51 46 50
3 47 46 51
3 52 47 51
3 47 52 48
3 53 21 23
3 54 53 23
3 23 25 54
3 25 55 54
3 25 27 55
3 27 56 55
3 28 57 56
3 27 28 56
3 58 29 31
3 59 58 31
3 31 53 59
3 21 53 31
3 60 28 32
3 57 28 60
3 34 61 60
3 32 34 60
3 35 29 62
3 62 29 58
3 38 63 34
3 63 61 34
3 39 35 64
3 64 35 62
3 42 65 38
3 65 63 38
3 66 43 39
3 64 66 39
3 44 66 67
3 43 66 44
3 68 49 48
3 69 49 68
3 49 69 65
3 42 49 65
3 70 50 44
3 67 70 44
3 50 70 51
3 51 70 71
3 51 71 52
3 52 71 72
3 52 72 68
3 48 52 68
3 73 53 54
3 74 73 54
3 54 55 74
3 55 75 74
3 55 56 75
3 56 76 75
3 57 77 76
3 56 57 76
3 78 58 59
3 79 78 59
3 59 73 79
3 53 73 59
3 80 57 60
3 77 57 80
3 61 81 80
3 60 61 80
3 62 58 82
3 82 58 78
3 63 83 61
3 83 81 61
3 64 62 84
3 84 62 82
3 65 85 63
3 85 83 63
3 86 66 64
3 84 86 64
3 67 86 87
3 66 86 67
3 88 69 68
3 89 69 88
3 69 89 85
3 65 69 85
3 90 70 67
3 87 90 67
3 70 90 71
3 71 90 91
3 71 91 72
3 72 91 92
3 72 92 88
3 68 72 88
3 73 74 93
3 74 75 94
3 93 74 94
3 75 76 95
3 94 75 95
3 76 77 95
3 78 79 96
3 97 93 98
3 96 93 97
3 96 73 93
3 96 79 73
3 94 98 93
3 99 98 94
3 95 99 94
3 100 99 95
3 100 101 102
3 95 101 100
3 95 80 101
3 95 77 80
3 80 81 101
3 82 78 96
3 103 82 96
3 96 104 103
3 97 104 96
3 102 105 106
3 101 105 102
3 105 101 81
3 83 105 81
3 84 82 103
3 107 84 103
3 103 108 107
3 104 108 103
3 106 109 110
3 105 109 106
3 109 105 83
3 85 109 83
3 86 84 107
3 107 108 111
3 86 107 111
3 86 111 112
3 86 112 87
3 112 113 114
3 111 113 112
3 114 115 116
3 113 115 114
3 89 110 109
3 88 110 89
3 88 115 110
3 88 116 115
3 89 109 85
3 90 87 112
3 91 90 112
3 114 91 112
3 92 91 114
3 116 92 114
3 92 116 88
3 97 98 117
3 98 99 118
3 117 98 118
3 99 100 119
3 118 99 119
3 100 102 119
3 104 97 117
3 120 104 117
3 120 117 121
3 117 118 121
3 121 118 122
3 118 119 122
3 122 119 102
3 106 122 102
3 108 104 120
3 123 108 120
3 123 120 124
3 120 121 124
3 124 121 125
3 121 122 125
3 125 122 106
3 110 125 106
3 111 108 123
3 113 111 123
3 124 113 123
3 115 113 124
3 125 115 124
3 115 125 110
