ply
format ascii 1.0
comment VCGLIB generated
element vertex 126
property float x
property float y
property float z
element face 248
property list uchar int vertex_indices
end_header
-0.39109039306640625 0.147005364298820496 -0.416045337915420532
-0.38226318359375 0.146939143538475037 -0.518069565296173096
-0.50074005126953125 0.132016018033027649 -0.438837051391601562
-0.291720062494277954 -0.064040057361125946 -0.49800601601600647
-0.362420409917831421 -0.0600856505334377289 -0.403887897729873657
-0.137631729245185852 -0.0531010925769805908 -0.336613982915878296
-0.199331924319267273 0.023653792217373848 -0.284001827239990234
-0.140562698245048523 -0.0987577661871910095 -0.236922577023506165
-0.209583282470703125 0.229966819286346436 -0.347337394952774048
-0.16066741943359375 0.206919372081756592 -0.459294795989990234
-0.086373649537563324 -0.00596573203802108765 -0.460400581359863281
-0.0133514404296875 -0.218879416584968567 -0.432607650756835938
-0.0131009416654706001 -0.265122264623641968 -0.336218208074569702
-0.015949249267578125 0.294472008943557739 -0.252851635217666626
0.03287506103515625 0.23714156448841095 -0.322321891784667969
0.117762245237827301 0.0640546306967735291 -0.376718848943710327
0.192096710205078125 -0.138567402958869934 -0.399669498205184937
0.2152557373046875 -0.240724310278892517 -0.342578411102294922
0.10715484619140625 0.318843245506286621 -0.293416023254394531
0.208632156252861023 0.120305627584457397 -0.354119300842285156
0.267492920160293579 -0.098440319299697876 -0.355669498443603516
-0.592585265636444092 0.193929120898246765 -0.183148860931396484
-0.58646392822265625 0.10120014101266861 -0.278843879699707031
-0.530381500720977783 0.121737726032733917 -0.189510032534599304
-0.463858276605606079 -0.091855853796005249 -0.269713073968887329
-0.391387939453125 -0.0244162548333406448 -0.248452827334403992
-0.241692855954170227 -0.151834532618522644 -0.29242214560508728
-0.266385406255722046 -0.206923529505729675 -0.204950809478759766
-0.176114395260810852 -0.201265111565589905 -0.181220367550849915
-0.420693725347518921 0.166678860783576965 -0.119816623628139496
-0.378742218017578125 0.210932686924934387 -0.245877742767333984
-0.453244537115097046 0.263161540031433105 -0.161143943667411804
-0.14565277099609375 -0.113116353750228882 -0.021488189697265625
-0.0328051261603832245 -0.105227001011371613 -0.0964350700378417969
-0.133253738284111023 -0.162300184369087219 -0.107089363038539886
-0.249507904052734375 0.0679427012801170349 -0.117675624787807465
-0.193074539303779602 0.14307481050491333 -0.197040557861328125
-0.00607426976785063744 -0.321015745401382446 -0.165211677551269531
0.002040863037109375 -0.341876775026321411 -0.0591406822204589844
-0.069653831422328949 0.185512140393257141 -0.0684450492262840271
-0.087781272828578949 0.275018364191055298 -0.0882709845900535583
0.2150726318359375 -0.330229014158248901 -0.177921459078788757
0.225638076663017273 -0.349663585424423218 -0.0648277625441551208
0.0080718994140625 0.237831413745880127 0.0103203458711504936
0.165114089846611023 0.188398763537406921 -0.0790103301405906677
0.221253708004951477 0.310273140668869019 -0.140715599060058594
0.22412872314453125 0.0914474129676818848 -0.179765701293945312
0.37500762939453125 -0.05975385382771492 -0.218048885464668274
0.405401855707168579 -0.14311593770980835 -0.117706932127475739
0.307805389165878296 -0.285007596015930176 -0.0836663246154785156
0.131315872073173523 0.293520420789718628 -0.0724341049790382385
0.226301833987236023 0.10291609913110733 -0.0951712951064109802
0.307071685791015625 -0.086787693202495575 -0.130938693881034851
-0.616643249988555908 0.158175244927406311 0.0578126907348632812
-0.591025054454803467 0.0707944780588150024 0.0203100834041833878
-0.386763244867324829 0.0591975189745426178 -0.0659537315368652344
-0.319067627191543579 -0.131986960768699646 -0.00445715570822358131
-0.262704223394393921 -0.216249182820320129 0.0191601123660802841
-0.322221130132675171 0.205899789929389954 0.0574884414672851562
-0.442103058099746704 0.180936142802238464 0.0740551948547363281
-0.119551338255405426 -0.29416126012802124 0.0866972580552101135
-0.221424102783203125 -0.231976434588432312 0.101080574095249176
-0.238994598388671875 -0.00716403685510158539 0.0791226997971534729
-0.00207392382435500622 -0.267668992280960083 0.155488014221191406
-0.070779167115688324 0.109507851302623749 0.128577709197998047
0.226612091064453125 -0.263991266489028931 0.148074150085449219
0.00573984766378998756 0.0886858776211738586 0.161038234829902649
0.116823829710483551 0.210480466485023499 0.119622550904750824
0.400732666254043579 -0.0823664739727973938 0.0974884033203125
0.335213989019393921 -0.238704264163970947 0.135348007082939148
0.207827255129814148 0.291441589593887329 0.133909702301025391
0.195023849606513977 0.0723903104662895203 0.120653308928012848
0.384789794683456421 0.00740038370713591576 0.0371775627136230469
-0.622966766357421875 0.174228951334953308 0.288523674011230469
-0.55136871337890625 0.134919241070747375 0.217509105801582336
-0.362349182367324829 0.185042396187782288 0.0996775627136230469
-0.225599929690361023 0.0128464465960860252 0.110686302185058594
-0.158367156982421875 -0.021371990442276001 0.0300768222659826279
-0.404590606689453125 0.288582861423492432 0.288454532623291016
-0.499388366937637329 0.259323924779891968 0.281449943780899048
-0.0349604301154613495 -0.0869228243827819824 0.149017974734306335
-0.133083343505859375 -0.0240555405616760254 0.147799327969551086
-0.252562195062637329 0.143828555941581726 0.31037139892578125
-0.006397247314453125 -0.106269575655460358 0.311392456293106079
-0.0576464347541332245 0.113957874476909637 0.351202636957168579
0.212778732180595398 -0.105539709329605103 0.312248557806015015
-0.099835716187953949 0.187897518277168274 0.328992515802383423
0.0511143989861011505 0.280616790056228638 0.324862152338027954
0.408833831548690796 0.0204103942960500717 0.280678898096084595
0.328857421875 -0.131507828831672668 0.312775135040283203
0.118375144898891449 0.332933098077774048 0.311468273401260376
0.310129791498184204 0.27924877405166626 0.187685802578926086
0.445837646722793579 0.112155996263027191 0.212907955050468445
-0.504161834716796875 0.0623478442430496216 0.315501362085342407
-0.340243011713027954 0.107024826109409332 0.123936496675014496
-0.286649078130722046 -0.0745290219783782959 0.0400872230529785156
-0.398625701665878296 0.310046225786209106 0.41153445839881897
-0.266855865716934204 0.173743382096290588 0.452543109655380249
-0.391184478998184204 0.169421747326850891 0.386022895574569702
-0.186745956540107727 0.132827132940292358 0.221625640988349915
-0.298407226800918579 -0.0821527987718582153 0.241141632199287415
-0.083698272705078125 0.0501656271517276764 0.199826240539550781
-0.217280074954032898 0.00601143529638648033 0.310317665338516235
-0.211307525634765625 0.282831102609634399 0.313080310821533203
-0.08416748046875 0.26953810453414917 0.39832305908203125
0.063145957887172699 0.0149563020095229149 0.32621350884437561
-0.0346094779670238495 -0.0959869697690010071 0.329040378332138062
-0.0124905901029706001 0.163109064102172852 0.295111984014511108
0.0571581535041332245 0.292372465133666992 0.201426669955253601
0.2279510498046875 -0.0787702575325965881 0.405456691980361938
0.105701446533203125 0.00185381982009857893 0.278769642114639282
0.173544570803642273 0.20604000985622406 0.153039619326591492
0.079517364501953125 0.348589658737182617 0.203833103179931641
0.155432388186454773 0.197535336017608643 -0.0349140167236328125
0.266134887933731079 0.243001535534858704 0.101290859282016754
0.156279250979423523 -0.0180511474609375 0.117798648774623871
0.35578155517578125 0.049743354320526123 0.166197940707206726
-0.336212158203125 0.253648579120635986 0.371777057647705078
-0.168661758303642273 0.16853642463684082 0.34388318657875061
-0.158498123288154602 -0.0844189748167991638 0.302083343267440796
-0.159365341067314148 0.274607211351394653 0.252610534429550171
0.033946990966796875 0.218251422047615051 0.307706683874130249
0.048061370849609375 -0.0149596231058239937 0.288897186517715454
0.0268198642879724503 0.231354787945747375 0.144601345062255859
0.192534133791923523 0.20829308032989502 0.139856979250907898
0.213756561279296875 0.0414228029549121857 0.236811324954032898
3 0 1 2
3 1 3 4
3 2 1 4
3 3 5 6
3 4 3 6
3 5 7 6
3 0 8 9
3 1 0 9
3 9 10 1
3 1 10 3
3 10 11 3
3 3 11 5
3 5 11 12
3 7 5 12
3 8 13 14
3 9 8 14
3 14 15 9
3 9 15 10
3 15 16 10
3 10 16 11
3 11 16 17
3 12 11 17
3 14 13 18
3 15 14 18
3 19 15 18
3 16 15 19
3 20 16 19
3 16 20 17
3 21 22 23
3 22 24 25
3 23 22 25
3 24 26 27
3 25 24 27
3 26 28 27
3 29 30 31
3 2 22 21
3 0 2 21
3 0 21 31
3 0 31 30
3 4 22 2
3 24 22 4
3 6 24 4
3 26 24 6
3 26 32 28
3 6 32 26
3 6 33 32
3 6 7 33
3 33 34 32
3 29 35 36
3 30 29 36
3 36 0 30
3 8 0 36
3 12 33 7
3 37 33 12
3 33 37 38
3 34 33 38
3 35 39 40
3 36 35 40
3 40 8 36
3 13 8 40
3 17 37 12
3 41 37 17
3 37 41 42
3 38 37 42
3 40 39 43
3 43 44 45
3 40 43 45
3 40 45 18
3 40 18 13
3 18 46 19
3 45 46 18
3 19 47 20
3 46 47 19
3 48 49 41
3 47 48 41
3 47 41 17
3 47 17 20
3 41 49 42
3 45 44 50
3 46 45 50
3 51 46 50
3 47 46 51
3 52 47 51
3 47 52 48
3 53 21 23
3 54 53 23
3 23 25 54
3 25 55 54
3 25 27 55
3 27 56 55
3 28 57 56
3 27 28 56
3 58 29 31
3 59 58 31
3 31 53 59
3 21 53 31
3 60 28 32
3 57 28 60
3 34 61 60
3 32 34 60
3 35 29 62
3 62 29 58
3 38 63 34
3 63 61 34
3 39 35 64
3 64 35 62
3 42 65 38
3 65 63 38
3 66 43 39
3 64 66 39
3 44 66 67
3 43 66 44
3 68 49 48
3 69 49 68
3 49 69 65
3 42 49 65
3 70 50 44
3 67 70 44
3 50 70 51
3 51 70 71
3 51 71 52
3 52 71 72
3 52 72 68
3 48 52 68
3 73 53 54
3 74 73 54
3 54 55 74
3 55 75 74
3 55 56 75
3 56 76 75
3 57 77 76
3 56 57 76
3 78 58 59
3 79 78 59
3 59 73 79
3 53 73 59
3 80 57 60
3 77 57 80
3 61 81 80
3 60 61 80
3 62 58 82
3 82 58 78
3 63 83 61
3 83 81 61
3 64 62 84
3 84 62 82
3 65 85 63
3 85 83 63
3 86 66 64
3 84 86 64
3 67 86 87
3 66 86 67
3 88 69 68
3 89 69 88
3 69 89 85
3 65 69 85
3 90 70 67
3 87 90 67
3 70 90 71
3 71 90 91
3 71 91 72
3 72 91 92
3 72 92 88
3 68 72 88
3 73 74 93
3 74 75 94
3 93 74 94
3 75 76 95
3 94 75 95
3 76 77 95
3 78 79 96
3 97 93 98
3 96 93 97
3 96 73 93
3 96 79 73
3 94 98 93
3 99 98 94
3 95 99 94
3 100 99 95
3 100 101 102
3 95 101 100
3 95 80 101
3 95 77 80
3 80 81 101
3 82 78 96
3 103 82 96
3 96 104 103
3 97 104 96
3 102 105 106
3 101 105 102
3 105 101 81
3 83 105 81
3 84 82 103
3 107 84 103
3 103 108 107
3 104 108 103
3 106 109 110
3 105 109 106
3 109 105 83
3 85 109 83
3 86 84 107
3 107 108 111
3 86 107 111
3 86 111 112
3 86 112 87
3 112 113 114
3 111 113 112
3 114 115 116
3 113 115 114
3 89 110 109
3 88 110 89
3 88 115 110
3 88 116 115
3 89 109 85
3 90 87 112
3 91 90 112
3 114 91 112
3 92 91 114
3 116 92 114
3 92 116 88
3 97 98 117
3 98 99 118
3 117 98 118
3 99 100 119
3 118 99 119
3 100 102 119
3 104 97 117
3 120 104 117
3 120 117 121
3 117 118 121
3 121 118 122
3 118 119 122
3 122 119 102
3 106 122 102
3 108 104 120
3 123 108 120
3 123 120 124
3 120 121 124
3 124 121 125
3 121 122 125
3 125 122 106
3 110 125 106
3 111 108 123
3 113 111 123
3 124 113 123
3 115 113 124
3 125 115 124
3 115 125 110
