ply
format ascii 1.0
comment VCGLIB generated
element vertex 126
property float x
property float y
property float z
element face 248
property list uchar int vertex_indices
end_header
-0.166830584406852722 0.130256190896034241 -0.470095545053482056
-0.13313119113445282 0.133794739842414856 -0.330922812223434448
-0.155953496694564819 0.157165020704269409 -0.382982164621353149
-0.151218071579933167 -0.0413158237934112549 -0.494457811117172241
-0.159464746713638306 -0.0484856702387332916 -0.394392877817153931
-0.18581216037273407 -0.205047130584716797 -0.352919310331344604
-0.0966054722666740417 -0.246904700994491577 -0.398485660552978516
-0.107187792658805847 -0.160690411925315857 -0.299794465303421021
-0.017793828621506691 0.147670745849609375 -0.373330771923065186
0.0178007651120424271 0.143299385905265808 -0.295459359884262085
0.0246932283043861389 -0.0386840775609016418 -0.43077358603477478
0.026891881600022316 -0.244922608137130737 -0.41704481840133667
0.00427419459447264671 -0.299093425273895264 -0.347645699977874756
0.219006970524787903 0.143423169851303101 -0.36437639594078064
0.223086953163146973 0.12980380654335022 -0.301343530416488647
0.244135424494743347 -0.0572601817548274994 -0.340248227119445801
0.182099774479866028 -0.238373443484306335 -0.287432223558425903
0.191627845168113708 -0.309327304363250732 -0.342590570449829102
0.24238412082195282 0.153196096420288086 -0.219909489154815674
0.258910447359085083 -0.0143354162573814392 -0.304327428340911865
0.276471912860870361 -0.224226653575897217 -0.328968435525894165
-0.383777618408203125 0.190002560615539551 -0.285363852977752686
-0.348900884389877319 0.133254110813140869 -0.360419958829879761
-0.299486666917800903 0.154099836945533752 -0.314763665199279785
-0.303639501333236694 -0.0572289787232875824 -0.332327753305435181
-0.248820558190345764 -0.0482009463012218475 -0.249496579170227051
-0.170903638005256653 -0.212109342217445374 -0.276961982250213623
-0.182817623019218445 -0.22278989851474762 -0.19595666229724884
-0.276541262865066528 -0.292549312114715576 -0.248069539666175842
-0.200068727135658264 0.313961774110794067 -0.326882064342498779
-0.158658459782600403 0.271531015634536743 -0.3927631676197052
-0.284293770790100098 0.286795049905776978 -0.333865761756896973
-0.167040392756462097 -0.412670105695724487 -0.169344589114189148
-0.169887542724609375 -0.287964582443237305 -0.167946383357048035
-0.169674262404441833 -0.387331306934356689 -0.136880874633789062
0.000941536622121930122 0.230382561683654785 -0.307874232530593872
0.051463734358549118 0.256702303886413574 -0.356734007596969604
-0.0152293117716908455 -0.384114742279052734 -0.21027672290802002
-0.00286622485145926476 -0.343425005674362183 -0.107487760484218597
0.142966181039810181 0.355859965085983276 -0.294172108173370361
0.217872962355613708 0.324729263782501221 -0.354611426591873169
0.194324135780334473 -0.373334646224975586 -0.212664172053337097
0.210718676447868347 -0.370842874050140381 -0.13785882294178009
0.157309442758560181 0.260278254747390747 -0.274998277425765991
0.369238406419754028 0.200901642441749573 -0.273809850215911865
0.385024309158325195 0.109402433037757874 -0.23899446427822113
0.301248371601104736 -0.0527335032820701599 -0.112360604107379913
0.421149492263793945 -0.216291517019271851 -0.244027048349380493
0.395058721303939819 -0.20277056097984314 -0.128558322787284851
0.296637803316116333 -0.341841340065002441 -0.156140759587287903
0.294139176607131958 0.19135749340057373 -0.209040209650993347
0.316422194242477417 0.00493971584364771843 -0.202314853668212891
0.333005726337432861 -0.202183455228805542 -0.205323696136474609
-0.302722245454788208 0.140272289514541626 -0.0898729637265205383
-0.38084721565246582 0.147961989045143127 -0.129498139023780823
-0.360157698392868042 -0.0442164838314056396 -0.0660441145300865173
-0.328499168157577515 -0.197248220443725586 -0.0333512909710407257
-0.316628545522689819 -0.275925993919372559 -0.0709470808506011963
-0.18043343722820282 0.336181342601776123 -0.131682917475700378
-0.207502186298370361 0.257021456956863403 -0.138294041156768799
-0.200795263051986694 -0.264927059412002563 0.00263040699064731598
-0.133732885122299194 -0.260714322328567505 -0.0289628710597753525
0.000943270570132881403 0.274979859590530396 -0.118655070662498474
0.00215183594264090061 -0.194272607564926147 0.05348161980509758
0.185683846473693848 0.347337186336517334 -0.123950347304344177
0.205300062894821167 -0.26958078145980835 0.0685607269406318665
0.215332716703414917 0.279751569032669067 -0.0738007351756095886
0.371723175048828125 0.261702179908752441 -0.0471201799809932709
0.313980787992477417 -0.219317987561225891 0.0303877480328083038
0.265610426664352417 -0.366248100996017456 0.0305591914802789688
0.386444419622421265 0.191413864493370056 -0.0324114896357059479
0.224500134587287903 0.0213368460536003113 -0.0232070144265890121
0.367904990911483765 -0.140236362814903259 -0.00411510467529296875
-0.391847431659698486 0.295169949531555176 0.0291679110378026962
-0.361319452524185181 0.228123739361763 0.06550636887550354
-0.299158960580825806 0.0237491130828857422 0.101861521601676941
-0.433113783597946167 -0.131344422698020935 0.114233493804931641
-0.349030911922454834 -0.190369516611099243 0.137654438614845276
-0.168656438589096069 0.301057189702987671 0.0656639412045478821
-0.232318520545959473 0.377089560031890869 0.0534681826829910278
-0.247820064425468445 -0.288631826639175415 0.166102752089500427
-0.185950875282287598 -0.311369597911834717 0.169208258390426636
-0.00354766845703125 0.194515809416770935 0.0786358639597892761
-0.029693949967622757 -0.280954509973526001 0.26423799991607666
0.170796126127243042 0.342117071151733398 0.0857450738549232483
0.131079927086830139 -0.401305675506591797 0.221830487251281738
0.210002541542053223 0.418643414974212646 0.0926162973046302795
0.305548578500747681 0.315048158168792725 0.152520909905433655
0.342436701059341431 -0.233264043927192688 0.250108450651168823
0.262572556734085083 -0.36523863673210144 0.214543774724006653
0.274115473031997681 0.239930227398872375 0.132062435150146484
0.233710885047912598 0.0379022322595119476 0.188520163297653198
0.30002593994140625 -0.141961410641670227 0.189040780067443848
-0.385756045579910278 0.166795805096626282 0.130985647439956665
-0.347140908241271973 0.0263377167284488678 0.176817715167999268
-0.420967429876327515 -0.132810428738594055 0.219343140721321106
-0.163281172513961792 0.382755070924758911 0.114044271409511566
-0.208315417170524597 0.296899408102035522 0.239799454808235168
-0.287796348333358765 0.260260790586471558 0.175211429595947266
-0.311301827430725098 0.109990842640399933 0.310895234346389771
-0.275356978178024292 -0.0941840484738349915 0.271438241004943848
-0.230813458561897278 -0.346370607614517212 0.282085150480270386
-0.235677197575569153 -0.211991965770721436 0.26830977201461792
-0.0393988862633705139 0.277914464473724365 0.12099330872297287
-0.0363783389329910278 0.212942883372306824 0.263601005077362061
-0.00289050000719726086 -0.34676206111907959 0.307989537715911865
-0.0801346525549888611 -0.186939716339111328 0.25247877836227417
0.098419189453125 0.389076918363571167 0.132780715823173523
0.139754906296730042 0.289458364248275757 0.253889560699462891
0.160969823598861694 -0.343626946210861206 0.30368456244468689
0.091457366943359375 -0.192351788282394409 0.324550747871398926
0.208872005343437195 0.242837473750114441 0.335312098264694214
0.329270780086517334 0.235316753387451172 0.245235607028007507
0.178921431303024292 0.0184183381497859955 0.258612632751464844
0.335981190204620361 0.0347249656915664673 0.233482003211975098
0.203840076923370361 -0.146814823150634766 0.408622980117797852
0.229408949613571167 -0.149641379714012146 0.290141522884368896
-0.273990631103515625 0.245152413845062256 0.248628735542297363
-0.23368661105632782 0.0962512120604515076 0.317308664321899414
-0.190662026405334473 -0.104244068264961243 0.252411782741546631
-0.0715012997388839722 0.224809542298316956 0.195096179842948914
-0.0690130740404129028 0.0221827011555433273 0.271948903799057007
-0.0524503514170646667 -0.132459819316864014 0.347977966070175171
0.115897439420223236 0.220888763666152954 0.281342595815658569
0.108802102506160736 0.022153608500957489 0.270863860845565796
0.137393251061439514 -0.130255088210105896 0.351049453020095825
3 0 1 2
3 1 3 4
3 2 1 4
3 3 5 6
3 4 3 6
3 5 7 6
3 0 8 9
3 1 0 9
3 9 10 1
3 1 10 3
3 10 11 3
3 3 11 5
3 5 11 12
3 7 5 12
3 8 13 14
3 9 8 14
3 14 15 9
3 9 15 10
3 15 16 10
3 10 16 11
3 11 16 17
3 12 11 17
3 14 13 18
3 15 14 18
3 19 15 18
3 16 15 19
3 20 16 19
3 16 20 17
3 21 22 23
3 22 24 25
3 23 22 25
3 24 26 27
3 25 24 27
3 26 28 27
3 29 30 31
3 2 22 21
3 0 2 21
3 0 21 31
3 0 31 30
3 4 22 2
3 24 22 4
3 6 24 4
3 26 24 6
3 26 32 28
3 6 32 26
3 6 33 32
3 6 7 33
3 33 34 32
3 29 35 36
3 30 29 36
3 36 0 30
3 8 0 36
3 12 33 7
3 37 33 12
3 33 37 38
3 34 33 38
3 35 39 40
3 36 35 40
3 40 8 36
3 13 8 40
3 17 37 12
3 41 37 17
3 37 41 42
3 38 37 42
3 40 39 43
3 43 44 45
3 40 43 45
3 40 45 18
3 40 18 13
3 18 46 19
3 45 46 18
3 19 47 20
3 46 47 19
3 48 49 41
3 47 48 41
3 47 41 17
3 47 17 20
3 41 49 42
3 45 44 50
3 46 45 50
3 51 46 50
3 47 46 51
3 52 47 51
3 47 52 48
3 53 21 23
3 54 53 23
3 23 25 54
3 25 55 54
3 25 27 55
3 27 56 55
3 28 57 56
3 27 28 56
3 58 29 31
3 59 58 31
3 31 53 59
3 21 53 31
3 60 28 32
3 57 28 60
3 34 61 60
3 32 34 60
3 35 29 62
3 62 29 58
3 38 63 34
3 63 61 34
3 39 35 64
3 64 35 62
3 42 65 38
3 65 63 38
3 66 43 39
3 64 66 39
3 44 66 67
3 43 66 44
3 68 49 48
3 69 49 68
3 49 69 65
3 42 49 65
3 70 50 44
3 67 70 44
3 50 70 51
3 51 70 71
3 51 71 52
3 52 71 72
3 52 72 68
3 48 52 68
3 73 53 54
3 74 73 54
3 54 55 74
3 55 75 74
3 55 56 75
3 56 76 75
3 57 77 76
3 56 57 76
3 78 58 59
3 79 78 59
3 59 73 79
3 53 73 59
3 80 57 60
3 77 57 80
3 61 81 80
3 60 61 80
3 62 58 82
3 82 58 78
3 63 83 61
3 83 81 61
3 64 62 84
3 84 62 82
3 65 85 63
3 85 83 63
3 86 66 64
3 84 86 64
3 67 86 87
3 66 86 67
3 88 69 68
3 89 69 88
3 69 89 85
3 65 69 85
3 90 70 67
3 87 90 67
3 70 90 71
3 71 90 91
3 71 91 72
3 72 91 92
3 72 92 88
3 68 72 88
3 73 74 93
3 74 75 94
3 93 74 94
3 75 76 95
3 94 75 95
3 76 77 95
3 78 79 96
3 97 93 98
3 96 93 97
3 96 73 93
3 96 79 73
3 94 98 93
3 99 98 94
3 95 99 94
3 100 99 95
3 100 101 102
3 95 101 100
3 95 80 101
3 95 77 80
3 80 81 101
3 82 78 96
3 103 82 96
3 96 104 103
3 97 104 96
3 102 105 106
3 101 105 102
3 105 101 81
3 83 105 81
3 84 82 103
3 107 84 103
3 103 108 107
3 104 108 103
3 106 109 110
3 105 109 106
3 109 105 83
3 85 109 83
3 86 84 107
3 107 108 111
3 86 107 111
3 86 111 112
3 86 112 87
3 112 113 114
3 111 113 112
3 114 115 116
3 113 115 114
3 89 110 109
3 88 110 89
3 88 115 110
3 88 116 115
3 89 109 85
3 90 87 112
3 91 90 112
3 114 91 112
3 92 91 114
3 116 92 114
3 92 116 88
3 97 98 117
3 98 99 118
3 117 98 118
3 99 100 119
3 118 99 119
3 100 102 119
3 104 97 117
3 120 104 117
3 120 117 121
3 117 118 121
3 121 118 122
3 118 119 122
3 122 119 102
3 106 122 102
3 108 104 120
3 123 108 120
3 123 120 124
3 120 121 124
3 124 121 125
3 121 122 125
3 125 122 106
3 110 125 106
3 111 108 123
3 113 111 123
3 124 113 123
3 115 113 124
3 125 115 124
3 115 125 110
