ply
format ascii 1.0
comment VCGLIB generated
element vertex 126
property float x
property float y
property float z
element face 248
property list uchar int vertex_indices
end_header
-0.115345314145088196 0.223985031247138977 -0.551648139953613281
-0.118718139827251434 0.15240989625453949 -0.464750319719314575
-0.193964630365371704 0.112737663090229034 -0.534076094627380371
-0.144019126892089844 -0.0437619984149932861 -0.358154177665710449
-0.152165085077285767 -0.094053708016872406 -0.454245001077651978
-0.18181164562702179 -0.253647536039352417 -0.281713992357254028
-0.107078544795513153 -0.289018690586090088 -0.353430092334747314
-0.223568275570869446 -0.35169646143913269 -0.312750518321990967
0.0982808992266654968 0.210541397333145142 -0.492845743894577026
0.0947093889117240906 0.100952580571174622 -0.498476207256317139
0.0453011170029640198 -0.118576496839523315 -0.458459228277206421
0.00577131891623139381 -0.324321091175079346 -0.380459815263748169
-0.0133323660120368004 -0.427092134952545166 -0.345614343881607056
0.297552734613418579 0.189326167106628418 -0.396246284246444702
0.268549919128417969 0.0910984054207801819 -0.355617403984069824
0.230642944574356079 -0.128086671233177185 -0.332569271326065063
0.222584396600723267 -0.353782355785369873 -0.350058078765869141
0.207557663321495056 -0.448580473661422729 -0.296603620052337646
0.374817848205566406 0.0745782554149627686 -0.380077749490737915
0.334099113941192627 -0.13545621931552887 -0.311696708202362061
0.245776161551475525 -0.328959822654724121 -0.245584636926651001
-0.289773941040039062 0.186498850584030151 -0.288403809070587158
-0.323816925287246704 0.127469241619110107 -0.408510953187942505
-0.381194740533828735 0.127833157777786255 -0.316186338663101196
-0.3163909912109375 -0.0963285490870475769 -0.37859615683555603
-0.315314918756484985 -0.0808741077780723572 -0.270233750343322754
-0.272072136402130127 -0.29285082221031189 -0.282935082912445068
-0.355817466974258423 -0.289340972900390625 -0.21087983250617981
-0.296786606311798096 -0.371502697467803955 -0.165139034390449524
-0.0102790193632245064 0.16068480908870697 -0.280638337135314941
-0.0444920845329761505 0.172600582242012024 -0.388755589723587036
-0.118832580745220184 0.194755971431732178 -0.27975994348526001
-0.15980084240436554 -0.375437825918197632 -0.0541704855859279633
-0.229881599545478821 -0.43672257661819458 -0.155276447534561157
-0.228918388485908508 -0.329920202493667603 -0.133280947804450989
0.023118654265999794 0.382804661989212036 -0.302907824516296387
0.0831301957368850708 0.359900504350662231 -0.393614143133163452
-0.0301663074642419815 -0.351346880197525024 -0.188095957040786743
-0.0119940433651208878 -0.326963603496551514 -0.0831564217805862427
0.159824684262275696 0.215290278196334839 -0.256491899490356445
0.244161278009414673 0.282827168703079224 -0.254845201969146729
0.109794929623603821 -0.537566900253295898 -0.179092079401016235
0.124718345701694489 -0.502959966659545898 -0.0793741121888160706
0.209221825003623962 0.177592769265174866 -0.167006447911262512
0.368316948413848877 0.165599972009658813 -0.233163028955459595
0.459160774946212769 0.0572343319654464722 -0.221971258521080017
0.292447388172149658 -0.0732380896806716919 -0.148678213357925415
0.262138038873672485 -0.281558185815811157 -0.0759305506944656372
0.322934776544570923 -0.398770928382873535 -0.0687557458877563477
0.223298057913780212 -0.547029554843902588 -0.0975511446595191956
0.431454956531524658 0.134309634566307068 -0.147605538368225098
0.396416962146759033 -0.0786218643188476562 -0.105132855474948883
0.369944572448730469 -0.297663480043411255 -0.0591307841241359711
-0.300370842218399048 0.0896420776844024658 -0.0842940807342529297
-0.277640014886856079 0.194730296730995178 -0.12578149139881134
-0.323397308588027954 -0.0152873396873474121 -0.0531480684876441956
-0.383494675159454346 -0.224435821175575256 0.00655968952924013138
-0.412561088800430298 -0.330433458089828491 0.0334316492080688477
-0.0301488228142261505 0.176753252744674683 -0.0579301491379737854
-0.131023719906806946 0.124848246574401855 -0.0689413100481033325
-0.258091270923614502 -0.271565616130828857 0.108667604625225067
-0.249722793698310852 -0.375302404165267944 0.080846346914768219
0.00709374714642763138 0.401515543460845947 -0.0766094475984573364
-0.0340557098388671875 -0.458508759737014771 0.0880483761429786682
0.193220764398574829 0.288304895162582397 -0.0464258566498756409
0.195919662714004517 -0.494296878576278687 0.112204544246196747
0.240796402096748352 0.377393186092376709 -0.0742526799440383911
0.354213714599609375 0.251729726791381836 -0.0274376068264245987
0.233228996396064758 -0.384219229221343994 0.140987232327461243
0.291088402271270752 -0.557561814785003662 0.129461884498596191
0.264453887939453125 0.190277099609375 -0.00692586088553071022
0.237251907587051392 -0.0319590270519256592 0.0453015156090259552
0.210103973746299744 -0.253411769866943359 0.109577767550945282
-0.362234115600585938 0.188227474689483643 0.105772212147712708
-0.408344238996505737 0.27348858118057251 0.0446093082427978516
-0.450859040021896362 0.0609420016407966614 0.116936162114143372
-0.495168358087539673 -0.152836516499519348 0.187493354082107544
-0.457846313714981079 -0.245846420526504517 0.235718876123428345
-0.0796206742525100708 0.212835460901260376 0.153478175401687622
-0.187280967831611633 0.190054565668106079 0.135681226849555969
-0.322618484497070312 -0.350242763757705688 0.308843433856964111
-0.231439262628555298 -0.281959295272827148 0.288044393062591553
-0.0093555450439453125 0.424082010984420776 0.149277448654174805
-0.00858783721923828125 -0.337817490100860596 0.280915886163711548
0.200583130121231079 0.344409137964248657 0.175362616777420044
0.232871368527412415 -0.319283872842788696 0.231084808707237244
0.211674362421035767 0.42860943078994751 0.157263472676277161
0.344670593738555908 0.315467983484268188 0.183602765202522278
0.434651345014572144 -0.282555490732192993 0.118295349180698395
0.287135422229766846 -0.342120081186294556 0.104399122297763824
0.293224632740020752 0.221995547413825989 0.210906848311424255
0.342993736267089844 -0.00497743114829063416 0.247789815068244934
0.356829941272735596 -0.246941357851028442 0.23410816490650177
-0.412201851606369019 0.311989843845367432 0.151913553476333618
-0.435121834278106689 0.0991766825318336487 0.222094044089317322
-0.451898545026779175 -0.116491436958312988 0.284717679023742676
-0.131004646420478821 0.222636222839355469 0.243201449513435364
-0.199597671627998352 0.376635909080505371 0.311910897493362427
-0.316842377185821533 0.329067051410675049 0.319312810897827148
-0.30232587456703186 0.117915987968444824 0.347207784652709961
-0.282190620899200439 -0.101466499269008636 0.334744244813919067
-0.234103187918663025 -0.340364634990692139 0.20352800190448761
-0.191761642694473267 -0.20002274215221405 0.313825607299804688
-0.0394725799560546875 0.431261628866195679 0.262737870216369629
-0.0055694580078125 0.340406924486160278 0.432760298252105713
-0.00463008880615234375 -0.330356568098068237 0.177263617515563965
0.00736236525699496269 -0.306390374898910522 0.373933106660842896
0.118460647761821747 0.320671766996383667 0.18623650074005127
0.187760978937149048 0.268862992525100708 0.336755901575088501
0.22018750011920929 -0.297702401876449585 0.206202253699302673
0.237425163388252258 -0.441520184278488159 0.361220419406890869
0.266602814197540283 0.217784613370895386 0.410904079675674438
0.371872574090957642 0.224515959620475769 0.281457692384719849
0.283400207757949829 -0.0271329265087842941 0.400834053754806519
0.425202041864395142 -0.00389401172287762165 0.306390523910522461
0.269411385059356689 -0.254263579845428467 0.347403287887573242
0.429658859968185425 -0.202749341726303101 0.263796240091323853
-0.228888183832168579 0.281543195247650146 0.362828969955444336
-0.191561371088027954 0.0878677517175674438 0.332432180643081665
-0.191148117184638977 -0.103413082659244537 0.268486320972442627
-0.029034612700343132 0.207530677318572998 0.415537923574447632
0.0131368627771735191 0.0407710857689380646 0.250083595514297485
0.019019443541765213 -0.17359413206577301 0.28445899486541748
0.178267151117324829 0.164014577865600586 0.42374071478843689
0.180880218744277954 -0.0226143375039100647 0.355597138404846191
0.191731438040733337 -0.253033190965652466 0.309588313102722168
3 0 1 2
3 1 3 4
3 2 1 4
3 3 5 6
3 4 3 6
3 5 7 6
3 0 8 9
3 1 0 9
3 9 10 1
3 1 10 3
3 10 11 3
3 3 11 5
3 5 11 12
3 7 5 12
3 8 13 14
3 9 8 14
3 14 15 9
3 9 15 10
3 15 16 10
3 10 16 11
3 11 16 17
3 12 11 17
3 14 13 18
3 15 14 18
3 19 15 18
3 16 15 19
3 20 16 19
3 16 20 17
3 21 22 23
3 22 24 25
3 23 22 25
3 24 26 27
3 25 24 27
3 26 28 27
3 29 30 31
3 2 22 21
3 0 2 21
3 0 21 31
3 0 31 30
3 4 22 2
3 24 22 4
3 6 24 4
3 26 24 6
3 26 32 28
3 6 32 26
3 6 33 32
3 6 7 33
3 33 34 32
3 29 35 36
3 30 29 36
3 36 0 30
3 8 0 36
3 12 33 7
3 37 33 12
3 33 37 38
3 34 33 38
3 35 39 40
3 36 35 40
3 40 8 36
3 13 8 40
3 17 37 12
3 41 37 17
3 37 41 42
3 38 37 42
3 40 39 43
3 43 44 45
3 40 43 45
3 40 45 18
3 40 18 13
3 18 46 19
3 45 46 18
3 19 47 20
3 46 47 19
3 48 49 41
3 47 48 41
3 47 41 17
3 47 17 20
3 41 49 42
3 45 44 50
3 46 45 50
3 51 46 50
3 47 46 51
3 52 47 51
3 47 52 48
3 53 21 23
3 54 53 23
3 23 25 54
3 25 55 54
3 25 27 55
3 27 56 55
3 28 57 56
3 27 28 56
3 58 29 31
3 59 58 31
3 31 53 59
3 21 53 31
3 60 28 32
3 57 28 60
3 34 61 60
3 32 34 60
3 35 29 62
3 62 29 58
3 38 63 34
3 63 61 34
3 39 35 64
3 64 35 62
3 42 65 38
3 65 63 38
3 66 43 39
3 64 66 39
3 44 66 67
3 43 66 44
3 68 49 48
3 69 49 68
3 49 69 65
3 42 49 65
3 70 50 44
3 67 70 44
3 50 70 51
3 51 70 71
3 51 71 52
3 52 71 72
3 52 72 68
3 48 52 68
3 73 53 54
3 74 73 54
3 54 55 74
3 55 75 74
3 55 56 75
3 56 76 75
3 57 77 76
3 56 57 76
3 78 58 59
3 79 78 59
3 59 73 79
3 53 73 59
3 80 57 60
3 77 57 80
3 61 81 80
3 60 61 80
3 62 58 82
3 82 58 78
3 63 83 61
3 83 81 61
3 64 62 84
3 84 62 82
3 65 85 63
3 85 83 63
3 86 66 64
3 84 86 64
3 67 86 87
3 66 86 67
3 88 69 68
3 89 69 88
3 69 89 85
3 65 69 85
3 90 70 67
3 87 90 67
3 70 90 71
3 71 90 91
3 71 91 72
3 72 91 92
3 72 92 88
3 68 72 88
3 73 74 93
3 74 75 94
3 93 74 94
3 75 76 95
3 94 75 95
3 76 77 95
3 78 79 96
3 97 93 98
3 96 93 97
3 96 73 93
3 96 79 73
3 94 98 93
3 99 98 94
3 95 99 94
3 100 99 95
3 100 101 102
3 95 101 100
3 95 80 101
3 95 77 80
3 80 81 101
3 82 78 96
3 103 82 96
3 96 104 103
3 97 104 96
3 102 105 106
3 101 105 102
3 105 101 81
3 83 105 81
3 84 82 103
3 107 84 103
3 103 108 107
3 104 108 103
3 106 109 110
3 105 109 106
3 109 105 83
3 85 109 83
3 86 84 107
3 107 108 111
3 86 107 111
3 86 111 112
3 86 112 87
3 112 113 114
3 111 113 112
3 114 115 116
3 113 115 114
3 89 110 109
3 88 110 89
3 88 115 110
3 88 116 115
3 89 109 85
3 90 87 112
3 91 90 112
3 114 91 112
3 92 91 114
3 116 92 114
3 92 116 88
3 97 98 117
3 98 99 118
3 117 98 118
3 99 100 119
3 118 99 119
3 100 102 119
3 104 97 117
3 120 104 117
3 120 117 121
3 117 118 121
3 121 118 122
3 118 119 122
3 122 119 102
3 106 122 102
3 108 104 120
3 123 108 120
3 123 120 124
3 120 121 124
3 124 121 125
3 121 122 125
3 125 122 106
3 110 125 106
3 111 108 123
3 113 111 123
3 124 113 123
3 115 113 124
3 125 115 124
3 115 125 110
