ply
format ascii 1.0
comment VCGLIB generated
element vertex 126
property float x
property float y
property float z
element face 248
property list uchar int vertex_indices
end_header
-0.201846033334732056 0.292866826057434082 -0.53618389368057251
-0.194870337843894958 0.141202569007873535 -0.436672717332839966
-0.378492534160614014 0.144655868411064148 -0.50385671854019165
-0.188971430063247681 -0.0925246775150299072 -0.526649713516235352
-0.322281211614608765 -0.0859032720327377319 -0.488022446632385254
-0.235619977116584778 -0.425794661045074463 -0.440372765064239502
-0.322395652532577515 -0.422172605991363525 -0.430855751037597656
-0.199005812406539917 -0.49045988917350769 -0.400959789752960205
0.0792468637228012085 0.329912006855010986 -0.474852651357650757
0.0382683500647544861 0.147924751043319702 -0.433239072561264038
0.046218525618314743 -0.088357195258140564 -0.486968427896499634
0.0770811587572097778 -0.3601226806640625 -0.316762059926986694
0.0471548587083816528 -0.529045343399047852 -0.335350453853607178
0.310450464487075806 0.290399849414825439 -0.493428260087966919
0.318997114896774292 0.201387509703636169 -0.530724704265594482
0.328436762094497681 -0.114809311926364899 -0.324483573436737061
0.327836811542510986 -0.401478111743927002 -0.279923558235168457
0.374603271484375 -0.467625081539154053 -0.306944847106933594
0.496054559946060181 0.170896083116531372 -0.399395555257797241
0.497022092342376709 -0.0783393830060958862 -0.357377737760543823
0.503860831260681152 -0.434240490198135376 -0.307953149080276489
-0.56957244873046875 0.312736302614212036 -0.296973526477813721
-0.552765250205993652 0.220678538084030151 -0.347153693437576294
-0.582174837589263916 0.238154232501983643 -0.283264011144638062
-0.548544764518737793 -0.0628989711403846741 -0.295987337827682495
-0.580392301082611084 -0.0919847562909126282 -0.2313871830701828
-0.546857655048370361 -0.394084423780441284 -0.249580681324005127
-0.576131999492645264 -0.372347772121429443 -0.181040763854980469
-0.559779047966003418 -0.443575412034988403 -0.149660751223564148
-0.230504810810089111 0.466086030006408691 -0.289476990699768066
-0.247811391949653625 0.563744843006134033 -0.316937178373336792
-0.414754688739776611 0.52656865119934082 -0.262718617916107178
-0.343288064002990723 -0.649429619312286377 -0.114828884601593018
-0.153964653611183167 -0.616701900959014893 -0.218791306018829346
-0.265563607215881348 -0.561764419078826904 -0.0416833683848381042
0.045410502701997757 0.553510725498199463 -0.230987071990966797
0.0595942400395870209 0.520087361335754395 -0.33843645453453064
0.117253385484218597 -0.62232506275177002 -0.191079482436180115
0.0667155832052230835 -0.645582914352416992 -0.00347896036691963673
0.333069890737533569 0.562628030776977539 -0.249738693237304688
0.296107202768325806 0.524184107780456543 -0.307498842477798462
0.319954246282577515 -0.649413108825683594 -0.15966111421585083
0.302767306566238403 -0.676219582557678223 -0.00585642736405134201
0.404295474290847778 0.553557515144348145 -0.195071473717689514
0.453992307186126709 0.374225437641143799 -0.139314904808998108
0.622752785682678223 0.204186558723449707 -0.176282569766044617
0.583848059177398682 -0.0419862270355224609 -0.229072779417037964
0.589707076549530029 -0.310018479824066162 -0.184314891695976257
0.621303200721740723 -0.429038435220718384 0.0167679786682128906
0.471052676439285278 -0.678503751754760742 0.0303383301943540573
0.594426929950714111 0.315420717000961304 -0.0808481723070144653
0.669742941856384277 -0.0413674004375934601 -0.0986391827464103699
0.640820562839508057 -0.286014318466186523 -0.00204671500250697136
-0.597449183464050293 0.361301630735397339 0.0338693074882030487
-0.616697847843170166 0.286804825067520142 0.048926960676908493
-0.74054718017578125 -0.0513548478484153748 0.0436136946082115173
-0.515649974346160889 -0.314223557710647583 0.149132981896400452
-0.583851516246795654 -0.407402485609054565 0.210011005401611328
-0.31943058967590332 0.634862005710601807 0.020025208592414856
-0.390848666429519653 0.57565009593963623 0.0205898284912109375
-0.369873046875 -0.595930039882659912 0.218612059950828552
-0.301005631685256958 -0.608231306076049805 0.193741530179977417
0.020138133317232132 0.597944676876068115 0.000552697631064802408
0.0301603823900222778 -0.522021651268005371 0.219726994633674622
0.248126983642578125 0.533332467079162598 0.0840436294674873352
0.265587896108627319 -0.546281397342681885 0.264694482088088989
0.425661265850067139 0.558597087860107422 0.106138527393341064
0.54060673713684082 0.446237683296203613 0.141584649682044983
0.546490073204040527 -0.384424805641174316 0.282385140657424927
0.441292852163314819 -0.534957826137542725 0.249201372265815735
0.478747963905334473 0.319287598133087158 0.123063646256923676
0.662132620811462402 -0.00562622863799333572 0.174692749977111816
0.562627971172332764 -0.284454256296157837 0.223946347832679749
-0.633867442607879639 0.405919075012207031 0.312601864337921143
-0.751536965370178223 0.322985231876373291 0.291745454072952271
-0.759096980094909668 -0.0402156859636306763 0.379005759954452515
-0.512599945068359375 -0.219964981079101562 0.394767612218856812
-0.587950587272644043 -0.394868016242980957 0.461353600025177002
-0.293976157903671265 0.642455339431762695 0.251580357551574707
-0.475864410400390625 0.630311310291290283 0.249288082122802734
-0.435059279203414917 -0.548938870429992676 0.455546587705612183
-0.32992100715637207 -0.563196063041687012 0.521475851535797119
-0.009860992431640625 0.578218579292297363 0.283142209053039551
-0.00121376733295619488 -0.555423557758331299 0.549525558948516846
0.263741225004196167 0.658394038677215576 0.359058588743209839
0.262163341045379639 -0.552364468574523926 0.555750012397766113
0.346034646034240723 0.630280077457427979 0.337641000747680664
0.62945103645324707 0.392541706562042236 0.377476871013641357
0.567696273326873779 -0.365588247776031494 0.521204650402069092
0.409396767616271973 -0.52218163013458252 0.533724486827850342
0.463392078876495361 0.323163539171218872 0.425399869680404663
0.573024749755859375 0.094360746443271637 0.507095932960510254
0.597060799598693848 -0.238414078950881958 0.549918532371520996
-0.647446036338806152 0.352541178464889526 0.402977019548416138
-0.544549763202667236 0.0261315368115901947 0.431800961494445801
-0.632202804088592529 -0.202978461980819702 0.506070077419281006
-0.313901036977767944 0.520221292972564697 0.343243420124053955
-0.375128656625747681 0.47069549560546875 0.573512852191925049
-0.445863544940948486 0.392134517431259155 0.630168259143829346
-0.497479856014251709 0.10983692854642868 0.633605360984802246
-0.43613085150718689 -0.223649501800537109 0.730218887329101562
-0.294676691293716431 -0.529396176338195801 0.630961954593658447
-0.364442288875579834 -0.290813148021697998 0.718795359134674072
-0.0540594607591629028 0.605321168899536133 0.459480702877044678
-0.0592734590172767639 0.531979918479919434 0.597470223903656006
-0.0559737458825111389 -0.52075272798538208 0.610839664936065674
-0.0268450640141963959 -0.288305819034576416 0.781864643096923828
0.160921260714530945 0.647443175315856934 0.444002151489257812
0.195478960871696472 0.486079216003417969 0.673789501190185547
0.222537294030189514 -0.562766969203948975 0.599744975566864014
0.205012232065200806 -0.289510011672973633 0.811236321926116943
0.314100444316864014 0.416111141443252563 0.660740673542022705
0.493018388748168945 0.343489080667495728 0.569772303104400635
0.322862088680267334 0.133908137679100037 0.713434875011444092
0.549455106258392334 0.111968919634819031 0.572277605533599854
0.327436268329620361 -0.197831481695175171 0.805350840091705322
0.496276497840881348 -0.165507256984710693 0.536300480365753174
-0.436807096004486084 0.458109200000762939 0.700394213199615479
-0.322279483079910278 0.089176274836063385 0.752212107181549072
-0.323201954364776611 -0.158727467060089111 0.804266273975372314
-0.100747883319854736 0.358565330505371094 0.640856325626373291
-0.0946703776717185974 0.137879312038421631 0.877107799053192139
-0.0882495492696762085 -0.198050752282142639 0.784156501293182373
0.235755220055580139 0.376050978899002075 0.711418271064758301
0.239575117826461792 0.095129258930683136 0.794890999794006348
0.243913471698760986 -0.132060378789901733 0.711446642875671387
3 0 1 2
3 1 3 4
3 2 1 4
3 3 5 6
3 4 3 6
3 5 7 6
3 0 8 9
3 1 0 9
3 9 10 1
3 1 10 3
3 10 11 3
3 3 11 5
3 5 11 12
3 7 5 12
3 8 13 14
3 9 8 14
3 14 15 9
3 9 15 10
3 15 16 10
3 10 16 11
3 11 16 17
3 12 11 17
3 14 13 18
3 15 14 18
3 19 15 18
3 16 15 19
3 20 16 19
3 16 20 17
3 21 22 23
3 22 24 25
3 23 22 25
3 24 26 27
3 25 24 27
3 26 28 27
3 29 30 31
3 2 22 21
3 0 2 21
3 0 21 31
3 0 31 30
3 4 22 2
3 24 22 4
3 6 24 4
3 26 24 6
3 26 32 28
3 6 32 26
3 6 33 32
3 6 7 33
3 33 34 32
3 29 35 36
3 30 29 36
3 36 0 30
3 8 0 36
3 12 33 7
3 37 33 12
3 33 37 38
3 34 33 38
3 35 39 40
3 36 35 40
3 40 8 36
3 13 8 40
3 17 37 12
3 41 37 17
3 37 41 42
3 38 37 42
3 40 39 43
3 43 44 45
3 40 43 45
3 40 45 18
3 40 18 13
3 18 46 19
3 45 46 18
3 19 47 20
3 46 47 19
3 48 49 41
3 47 48 41
3 47 41 17
3 47 17 20
3 41 49 42
3 45 44 50
3 46 45 50
3 51 46 50
3 47 46 51
3 52 47 51
3 47 52 48
3 53 21 23
3 54 53 23
3 23 25 54
3 25 55 54
3 25 27 55
3 27 56 55
3 28 57 56
3 27 28 56
3 58 29 31
3 59 58 31
3 31 53 59
3 21 53 31
3 60 28 32
3 57 28 60
3 34 61 60
3 32 34 60
3 35 29 62
3 62 29 58
3 38 63 34
3 63 61 34
3 39 35 64
3 64 35 62
3 42 65 38
3 65 63 38
3 66 43 39
3 64 66 39
3 44 66 67
3 43 66 44
3 68 49 48
3 69 49 68
3 49 69 65
3 42 49 65
3 70 50 44
3 67 70 44
3 50 70 51
3 51 70 71
3 51 71 52
3 52 71 72
3 52 72 68
3 48 52 68
3 73 53 54
3 74 73 54
3 54 55 74
3 55 75 74
3 55 56 75
3 56 76 75
3 57 77 76
3 56 57 76
3 78 58 59
3 79 78 59
3 59 73 79
3 53 73 59
3 80 57 60
3 77 57 80
3 61 81 80
3 60 61 80
3 62 58 82
3 82 58 78
3 63 83 61
3 83 81 61
3 64 62 84
3 84 62 82
3 65 85 63
3 85 83 63
3 86 66 64
3 84 86 64
3 67 86 87
3 66 86 67
3 88 69 68
3 89 69 88
3 69 89 85
3 65 69 85
3 90 70 67
3 87 90 67
3 70 90 71
3 71 90 91
3 71 91 72
3 72 91 92
3 72 92 88
3 68 72 88
3 73 74 93
3 74 75 94
3 93 74 94
3 75 76 95
3 94 75 95
3 76 77 95
3 78 79 96
3 97 93 98
3 96 93 97
3 96 73 93
3 96 79 73
3 94 98 93
3 99 98 94
3 95 99 94
3 100 99 95
3 100 101 102
3 95 101 100
3 95 80 101
3 95 77 80
3 80 81 101
3 82 78 96
3 103 82 96
3 96 104 103
3 97 104 96
3 102 105 106
3 101 105 102
3 105 101 81
3 83 105 81
3 84 82 103
3 107 84 103
3 103 108 107
3 104 108 103
3 106 109 110
3 105 109 106
3 109 105 83
3 85 109 83
3 86 84 107
3 107 108 111
3 86 107 111
3 86 111 112
3 86 112 87
3 112 113 114
3 111 113 112
3 114 115 116
3 113 115 114
3 89 110 109
3 88 110 89
3 88 115 110
3 88 116 115
3 89 109 85
3 90 87 112
3 91 90 112
3 114 91 112
3 92 91 114
3 116 92 114
3 92 116 88
3 97 98 117
3 98 99 118
3 117 98 118
3 99 100 119
3 118 99 119
3 100 102 119
3 104 97 117
3 120 104 117
3 120 117 121
3 117 118 121
3 121 118 122
3 118 119 122
3 122 119 102
3 106 122 102
3 108 104 120
3 123 108 120
3 123 120 124
3 120 121 124
3 124 121 125
3 121 122 125
3 125 122 106
3 110 125 106
3 111 108 123
3 113 111 123
3 124 113 123
3 115 113 124
3 125 115 124
3 115 125 110
