ply
format ascii 1.0
comment VCGLIB generated
element vertex 126
property float x
property float y
property float z
element face 248
property list uchar int vertex_indices
end_header
-0.163006097078323364 0.306777536869049072 -0.407231539487838745
-0.143834531307220459 0.209236100316047668 -0.470496088266372681
-0.246308192610740662 0.20127202570438385 -0.42698979377746582
-0.127934053540229797 -0.0136141134425997734 -0.527846336364746094
-0.230187013745307922 -0.019371354952454567 -0.461113959550857544
-0.1142229363322258 -0.201852396130561829 -0.402843445539474487
-0.197805687785148621 -0.243225499987602234 -0.452384799718856812
-0.110618047416210175 -0.302807629108428955 -0.360160887241363525
-0.0139686046168208122 0.217566132545471191 -0.260672390460968018
0.0108460020273923874 0.137512475252151489 -0.330040961503982544
0.0902884379029273987 -0.00485349260270595551 -0.487423986196517944
0.0978837683796882629 -0.208027288317680359 -0.396577119827270508
0.108488626778125763 -0.281534403562545776 -0.319439530372619629
0.178188592195510864 0.316145271062850952 -0.32275080680847168
0.21167619526386261 0.224722027778625488 -0.369267821311950684
0.294701725244522095 0.0207387711852788925 -0.400491446256637573
0.307230263948440552 -0.185073673725128174 -0.336911857128143311
0.322866439819335938 -0.284736484289169312 -0.308261096477508545
0.300264358520507812 0.252417892217636108 -0.311213910579681396
0.387908399105072021 0.0527030937373638153 -0.355100452899932861
0.403810232877731323 -0.167097628116607666 -0.303790390491485596
-0.420797914266586304 0.285944759845733643 -0.226099833846092224
-0.387577325105667114 0.188296318054199219 -0.322350949048995972
-0.364945292472839355 0.19573742151260376 -0.211396738886833191
-0.352039337158203125 -0.0327951833605766296 -0.320610493421554565
-0.378138691186904907 -0.027460901066660881 -0.205971181392669678
-0.297461926937103271 -0.247597873210906982 -0.301498681306838989
-0.316051751375198364 -0.239150315523147583 -0.187767922878265381
-0.271934777498245239 -0.330148518085479736 -0.196254253387451172
-0.23841722309589386 0.504411876201629639 -0.19857458770275116
-0.206891477108001709 0.435777157545089722 -0.286368310451507568
-0.319126665592193604 0.432484030723571777 -0.207352295517921448
-0.105237960815429688 -0.41035538911819458 -0.196269407868385315
-0.13843400776386261 -0.283139705657958984 -0.189010083675384521
-0.0301361083984375 -0.346974641084671021 -0.230121269822120667
-0.0679629221558570862 0.429214209318161011 -0.0792978480458259583
-0.0468008853495121002 0.353066504001617432 -0.152159929275512695
0.0695024207234382629 -0.30475965142250061 -0.151544809341430664
0.089054107666015625 -0.19677300751209259 -0.133139744400978088
0.130282819271087646 0.524415373802185059 -0.124904774129390717
0.144487112760543823 0.454090595245361328 -0.211160525679588318
0.280880242586135864 -0.346569031476974487 -0.15452827513217926
0.284635007381439209 -0.294203996658325195 -0.0516263097524642944
0.228485390543937683 0.478366822004318237 -0.105249881744384766
0.347379952669143677 0.346224546432495117 -0.0665753260254859924
0.391792565584182739 0.260137408971786499 -0.16196131706237793
0.44755256175994873 0.0382696576416492462 -0.188450813293457031
0.54518425464630127 -0.151625886559486389 -0.230561837553977966
0.531116247177124023 -0.238775208592414856 -0.128148287534713745
0.344495773315429688 -0.245021864771842957 -0.128080159425735474
0.39260593056678772 0.241177335381507874 -0.0571206659078598022
0.381227225065231323 0.0187746025621891022 -0.105668477714061737
0.50706183910369873 -0.144125059247016907 -0.122799023985862732
-0.465829044580459595 0.304113030433654785 -0.00484057841822504997
-0.428295135498046875 0.201913505792617798 0.00387583463452756405
-0.439444959163665771 -0.0260660909116268158 0.00507099274545907974
-0.356280475854873657 -0.231520608067512512 0.0253537725657224655
-0.265175968408584595 -0.303465694189071655 0.028366701677441597
-0.298185348510742188 0.535275280475616455 0.0201581213623285294
-0.398505091667175293 0.481094270944595337 0.00900455936789512634
-0.0948756113648414612 -0.34902191162109375 0.0120929311960935593
-0.0366755910217761993 -0.433249920606613159 -0.0159513950347900391
-0.0845922753214836121 0.607663810253143311 0.0612664222717285156
0.167262211441993713 -0.360825181007385254 0.00335114356130361557
0.13801439106464386 0.590799868106842041 0.0948199257254600525
0.239548012614250183 -0.21290193498134613 0.137096986174583435
0.193196713924407959 0.501594066619873047 0.114820003509521484
0.23277147114276886 0.32933121919631958 0.1293773353099823
0.47626224160194397 -0.272742867469787598 0.0975162684917449951
0.274054676294326782 -0.17191198468208313 0.0473921634256839752
0.266727715730667114 0.215074911713600159 0.121845006942749023
0.372668683528900146 0.00660959770902991295 0.108411826193332672
0.368739545345306396 -0.220318391919136047 0.0613958500325679779
-0.489055097103118896 0.296687096357345581 0.220686197280883789
-0.511144936084747314 0.192985668778419495 0.2184123694896698
-0.480655938386917114 -0.0280331242829561234 0.232159420847892761
-0.321546286344528198 -0.181668832898139954 0.237264469265937805
-0.222906395792961121 -0.245916232466697693 0.23396611213684082
-0.31291690468788147 0.505146324634552002 0.246938124299049377
-0.383115500211715698 0.435090035200119019 0.235179498791694641
-0.037364959716796875 -0.278585612773895264 0.19622156023979187
-0.0424153469502925873 -0.235443115234375 0.0916751772165298462
-0.0880908966064453125 0.515228152275085449 0.253230690956115723
0.127450406551361084 -0.288607209920883179 0.21631292998790741
0.111958645284175873 0.571026027202606201 0.317221552133560181
0.371056973934173584 -0.346077799797058105 0.209779232740402222
0.233437672257423401 0.544821202754974365 0.329058170318603516
0.305343359708786011 0.372062981128692627 0.325800538063049316
0.510252535343170166 -0.0815839692950248718 0.162429466843605042
0.411311566829681396 -0.30354684591293335 0.106470078229904175
0.345742374658584595 0.255402684211730957 0.320477157831192017
0.490203589200973511 0.0892042145133018494 0.249117270112037659
0.531440496444702148 -0.104163885116577148 0.20815730094909668
-0.45821872353553772 0.202079072594642639 0.320644557476043701
-0.388434290885925293 -0.000752677733544260263 0.299535661935806274
-0.262358546257019043 -0.12073051929473877 0.162448540329933167
-0.300324320793151855 0.457790583372116089 0.350568979978561401
-0.246364057064056396 0.344055891036987305 0.480856567621231079
-0.344614297151565552 0.277298808097839355 0.418427497148513794
-0.251778185367584229 0.0995101481676101685 0.372836768627166748
-0.159793585538864136 -0.00990567915141582489 0.23293989896774292
0.0420733876526355743 -0.173450663685798645 0.11318717896938324
-0.0895445719361305237 -0.080936431884765625 0.131837636232376099
-0.0932925119996070862 0.468851089477539062 0.345124691724777222
-0.0242669247090816498 0.387613058090209961 0.462761282920837402
0.117720194160938263 -0.212466269731521606 0.301626592874526978
0.108064927160739899 -0.05281100794672966 0.271442621946334839
0.108447760343551636 0.510802745819091797 0.422657221555709839
0.174489706754684448 0.366072148084640503 0.378820210695266724
0.340633392333984375 -0.256587952375411987 0.275203168392181396
0.268241345882415771 -0.0686288550496101379 0.190563887357711792
0.215982720255851746 0.248049691319465637 0.355444818735122681
0.414220273494720459 0.310025513172149658 0.382421374320983887
0.32077518105506897 0.241254061460494995 0.158601492643356323
0.516984105110168457 0.198509052395820618 0.222222134470939636
0.28793063759803772 0.0396718122065067291 0.293209552764892578
0.47210693359375 -0.00789803918451070786 0.265646994113922119
-0.240212857723236084 0.320161551237106323 0.377976387739181519
-0.144044339656829834 0.133212611079216003 0.329692035913467407
-0.0866794586181640625 -0.0686207562685012817 0.25572657585144043
-0.0235734675079584122 0.271965742111206055 0.464642912149429321
0.0571073815226554871 0.256902337074279785 0.272309094667434692
0.12255532294511795 0.0335797928273677826 0.213615730404853821
0.108814239501953125 0.292897880077362061 0.316515326499938965
0.278028756380081177 0.314495205879211426 0.255974352359771729
0.357097893953323364 0.0617689453065395355 0.259020328521728516
3 0 1 2
3 1 3 4
3 2 1 4
3 3 5 6
3 4 3 6
3 5 7 6
3 0 8 9
3 1 0 9
3 9 10 1
3 1 10 3
3 10 11 3
3 3 11 5
3 5 11 12
3 7 5 12
3 8 13 14
3 9 8 14
3 14 15 9
3 9 15 10
3 15 16 10
3 10 16 11
3 11 16 17
3 12 11 17
3 14 13 18
3 15 14 18
3 19 15 18
3 16 15 19
3 20 16 19
3 16 20 17
3 21 22 23
3 22 24 25
3 23 22 25
3 24 26 27
3 25 24 27
3 26 28 27
3 29 30 31
3 2 22 21
3 0 2 21
3 0 21 31
3 0 31 30
3 4 22 2
3 24 22 4
3 6 24 4
3 26 24 6
3 26 32 28
3 6 32 26
3 6 33 32
3 6 7 33
3 33 34 32
3 29 35 36
3 30 29 36
3 36 0 30
3 8 0 36
3 12 33 7
3 37 33 12
3 33 37 38
3 34 33 38
3 35 39 40
3 36 35 40
3 40 8 36
3 13 8 40
3 17 37 12
3 41 37 17
3 37 41 42
3 38 37 42
3 40 39 43
3 43 44 45
3 40 43 45
3 40 45 18
3 40 18 13
3 18 46 19
3 45 46 18
3 19 47 20
3 46 47 19
3 48 49 41
3 47 48 41
3 47 41 17
3 47 17 20
3 41 49 42
3 45 44 50
3 46 45 50
3 51 46 50
3 47 46 51
3 52 47 51
3 47 52 48
3 53 21 23
3 54 53 23
3 23 25 54
3 25 55 54
3 25 27 55
3 27 56 55
3 28 57 56
3 27 28 56
3 58 29 31
3 59 58 31
3 31 53 59
3 21 53 31
3 60 28 32
3 57 28 60
3 34 61 60
3 32 34 60
3 35 29 62
3 62 29 58
3 38 63 34
3 63 61 34
3 39 35 64
3 64 35 62
3 42 65 38
3 65 63 38
3 66 43 39
3 64 66 39
3 44 66 67
3 43 66 44
3 68 49 48
3 69 49 68
3 49 69 65
3 42 49 65
3 70 50 44
3 67 70 44
3 50 70 51
3 51 70 71
3 51 71 52
3 52 71 72
3 52 72 68
3 48 52 68
3 73 53 54
3 74 73 54
3 54 55 74
3 55 75 74
3 55 56 75
3 56 76 75
3 57 77 76
3 56 57 76
3 78 58 59
3 79 78 59
3 59 73 79
3 53 73 59
3 80 57 60
3 77 57 80
3 61 81 80
3 60 61 80
3 62 58 82
3 82 58 78
3 63 83 61
3 83 81 61
3 64 62 84
3 84 62 82
3 65 85 63
3 85 83 63
3 86 66 64
3 84 86 64
3 67 86 87
3 66 86 67
3 88 69 68
3 89 69 88
3 69 89 85
3 65 69 85
3 90 70 67
3 87 90 67
3 70 90 71
3 71 90 91
3 71 91 72
3 72 91 92
3 72 92 88
3 68 72 88
3 73 74 93
3 74 75 94
3 93 74 94
3 75 76 95
3 94 75 95
3 76 77 95
3 78 79 96
3 97 93 98
3 96 93 97
3 96 73 93
3 96 79 73
3 94 98 93
3 99 98 94
3 95 99 94
3 100 99 95
3 100 101 102
3 95 101 100
3 95 80 101
3 95 77 80
3 80 81 101
3 82 78 96
3 103 82 96
3 96 104 103
3 97 104 96
3 102 105 106
3 101 105 102
3 105 101 81
3 83 105 81
3 84 82 103
3 107 84 103
3 103 108 107
3 104 108 103
3 106 109 110
3 105 109 106
3 109 105 83
3 85 109 83
3 86 84 107
3 107 108 111
3 86 107 111
3 86 111 112
3 86 112 87
3 112 113 114
3 111 113 112
3 114 115 116
3 113 115 114
3 89 110 109
3 88 110 89
3 88 115 110
3 88 116 115
3 89 109 85
3 90 87 112
3 91 90 112
3 114 91 112
3 92 91 114
3 116 92 114
3 92 116 88
3 97 98 117
3 98 99 118
3 117 98 118
3 99 100 119
3 118 99 119
3 100 102 119
3 104 97 117
3 120 104 117
3 120 117 121
3 117 118 121
3 121 118 122
3 118 119 122
3 122 119 102
3 106 122 102
3 108 104 120
3 123 108 120
3 123 120 124
3 120 121 124
3 124 121 125
3 121 122 125
3 125 122 106
3 110 125 106
3 111 108 123
3 113 111 123
3 124 113 123
3 115 113 124
3 125 115 124
3 115 125 110
