ply
format ascii 1.0
comment VCGLIB generated
element vertex 126
property float x
property float y
property float z
element face 248
property list uchar int vertex_indices
end_header
1.49804377555847168 -0.354285180568695068 -0.541061043739318848
1.51073276996612549 -0.458746165037155151 -0.483399510383605957
1.49195230007171631 -0.387057989835739136 -0.404488176107406616
1.51203322410583496 -0.468240737915039062 -0.25987321138381958
1.42766773700714111 -0.54091942310333252 -0.253573328256607056
1.47009587287902832 -0.68689429759979248 -0.254741579294204712
1.54717183113098145 -0.714132010936737061 -0.323518604040145874
1.51121139526367188 -0.784341990947723389 -0.213258266448974609
1.72164571285247803 -0.322885632514953613 -0.509896934032440186
1.73223495483398438 -0.422614693641662598 -0.464288085699081421
1.72914159297943115 -0.510863184928894043 -0.257939189672470093
1.68997848033905029 -0.724734187126159668 -0.202945142984390259
1.70966756343841553 -0.735032021999359131 -0.305837482213973999
1.94030928611755371 -0.290417969226837158 -0.466173559427261353
1.93593454360961914 -0.365786612033843994 -0.387346088886260986
1.94723641872406006 -0.553157985210418701 -0.266136676073074341
1.91097080707550049 -0.757988929748535156 -0.181314513087272644
1.92724740505218506 -0.749102175235748291 -0.290301501750946045
2.03291630744934082 -0.388706386089324951 -0.433790683746337891
1.98677575588226318 -0.596825957298278809 -0.358094066381454468
2.01754641532897949 -0.743402957916259766 -0.18872910737991333
1.26135039329528809 -0.252068877220153809 -0.342248767614364624
1.30779778957366943 -0.358847767114639282 -0.42364811897277832
1.25848424434661865 -0.347445249557495117 -0.314449161291122437
1.3011394739151001 -0.585702896118164062 -0.375919342041015625
1.31844079494476318 -0.558509349822998047 -0.274759858846664429
1.38619327545166016 -0.795325756072998047 -0.308772414922714233
1.33149576187133789 -0.779980480670928955 -0.226770520210266113
1.38154458999633789 -0.868756949901580811 -0.185447379946708679
1.46043598651885986 -0.252713263034820557 -0.266723424196243286
1.47273838520050049 -0.290159016847610474 -0.373083025217056274
1.42224574089050293 -0.174146637320518494 -0.332767307758331299
1.45544743537902832 -0.802819371223449707 -0.0440460965037345886
1.57974755764007568 -0.759426474571228027 -0.0529258884489536285
1.53771138191223145 -0.848711490631103516 -0.100047372281551361
1.6828380823135376 -0.239601507782936096 -0.255746185779571533
1.68667876720428467 -0.22403283417224884 -0.366455197334289551
1.68958830833435059 -0.889645040035247803 -0.205055147409439087
1.74246180057525635 -0.937362432479858398 -0.109652817249298096
1.90307271480560303 -0.207739785313606262 -0.247061252593994141
1.90034341812133789 -0.162506282329559326 -0.348074197769165039
1.89872908592224121 -0.85738760232925415 -0.149009436368942261
1.87889266014099121 -0.760009407997131348 -0.105434112250804901
1.98636829853057861 -0.137323588132858276 -0.242031693458557129
2.14053058624267578 -0.226222842931747437 -0.263278692960739136
2.1419975757598877 -0.359707236289978027 -0.293895095586776733
2.07316994667053223 -0.556542336940765381 -0.207190722227096558
2.19041657447814941 -0.749089956283569336 -0.22405754029750824
2.16732549667358398 -0.804234504699707031 -0.0997952967882156372
1.9935833215713501 -0.764747977256774902 -0.117179475724697113
2.0790863037109375 -0.305464029312133789 -0.220834553241729736
2.16287088394165039 -0.508040130138397217 -0.172611579298973083
2.23133087158203125 -0.7164650559425354 -0.129408180713653564
1.24468016624450684 -0.19641973078250885 -0.112073421478271484
1.23493540287017822 -0.298557013273239136 -0.100176982581615448
1.31786513328552246 -0.503194272518157959 -0.061518494039773941
1.32027709484100342 -0.724848628044128418 -0.00444087106734514236
1.33559489250183105 -0.823210954666137695 0.0311652086675167084
1.46828043460845947 -0.119506552815437317 -0.0877228602766990662
1.37968063354492188 -0.0805057063698768616 -0.121511757373809814
1.3663707971572876 -0.987956047058105469 0.0985232219099998474
1.54245030879974365 -0.962737143039703369 0.0867700576782226562
1.67744195461273193 -0.128801614046096802 -0.0603355057537555695
1.76755905151367188 -0.935896933078765869 0.107849724590778351
1.89363479614257812 -0.154651448130607605 -0.0296549350023269653
1.90795719623565674 -0.765221238136291504 0.112695477902889252
2.00146746635437012 -0.163155898451805115 -0.0195928048342466354
2.1767113208770752 -0.167810767889022827 -0.0644469261169433594
2.16145586967468262 -0.730861544609069824 0.109687931835651398
1.98850977420806885 -0.692588984966278076 0.100580774247646332
2.11425089836120605 -0.243741646409034729 -0.00972162559628486633
2.22582554817199707 -0.439787238836288452 0.0287324730306863785
2.1226189136505127 -0.638334333896636963 0.0489401817321777344
1.2659679651260376 -0.177408009767532349 0.121458657085895538
1.20093262195587158 -0.264503002166748047 0.110451087355613708
1.3219226598739624 -0.454503268003463745 0.159662634134292603
1.36692047119140625 -0.669564008712768555 0.21622072160243988
1.3294757604598999 -0.76044851541519165 0.25284615159034729
1.4867088794708252 -0.0180610325187444687 0.100510552525520325
1.43211019039154053 -0.117728829383850098 0.093135833740234375
1.45759928226470947 -0.863689601421356201 0.294229328632354736
1.55349206924438477 -0.88975977897644043 0.315444469451904297
1.70368707180023193 0.0364810079336166382 0.0809387713670730591
1.75097203254699707 -0.83076775074005127 0.294311463832855225
1.92231428623199463 0.0519023537635803223 0.0418413765728473663
1.9680560827255249 -0.803353548049926758 0.331328123807907104
2.02835941314697266 0.0338337793946266174 0.0754265338182449341
2.12529611587524414 -0.0942372977733612061 0.140397548675537109
2.18538808822631836 -0.628631711006164551 0.302355080842971802
2.05492544174194336 -0.755185127258300781 0.306310653686523438
2.21962833404541016 -0.157917335629463196 0.166189238429069519
2.10132431983947754 -0.3425617516040802 0.190509229898452759
2.12602949142456055 -0.556487619876861572 0.247679829597473145
1.31453073024749756 -0.298252671957015991 0.0788029730319976807
1.31625783443450928 -0.417694926261901855 0.261015444993972778
1.3441154956817627 -0.635741829872131348 0.322884410619735718
1.49720966815948486 -0.0641887113451957703 0.201433345675468445
1.56852889060974121 -0.255398839712142944 0.184807553887367249
1.45146799087524414 -0.206344947218894958 0.153330013155937195
1.47810149192810059 -0.393012762069702148 0.301095575094223022
1.48757588863372803 -0.584125101566314697 0.214661464095115662
1.57127726078033447 -0.841058194637298584 0.218362808227539062
1.54855203628540039 -0.680101275444030762 0.136991634964942932
1.72318017482757568 0.0336508192121982574 0.188645005226135254
1.7614520788192749 -0.120447598397731781 0.242274016141891479
1.75011539459228516 -0.730433940887451172 0.334293186664581299
1.75048995018005371 -0.615708470344543457 0.198973953723907471
1.92615330219268799 -0.0483843311667442322 0.0999749749898910522
1.96719777584075928 -0.0895399376749992371 0.272062689065933228
1.95588362216949463 -0.702553868293762207 0.391717374324798584
1.88534986972808838 -0.540721476078033447 0.322729676961898804
2.05695939064025879 -0.181915745139122009 0.311994343996047974
2.19573616981506348 -0.105957940220832825 0.242242589592933655
2.02392911911010742 -0.327853858470916748 0.16636696457862854
2.12403202056884766 -0.315994799137115479 0.307016372680664062
1.9356224536895752 -0.525574803352355957 0.244893595576286316
2.08044052124023438 -0.537577927112579346 0.343720912933349609
1.52215433120727539 -0.175287500023841858 0.224877476692199707
1.56503677368164062 -0.400573790073394775 0.270073622465133667
1.58139133453369141 -0.609857797622680664 0.197786629199981689
1.73086678981781006 -0.217657878994941711 0.27597731351852417
1.73355615139007568 -0.398572921752929688 0.132358282804489136
1.79128122329711914 -0.593165338039398193 0.114896945655345917
1.95717203617095947 -0.164581194519996643 0.331601440906524658
1.95229089260101318 -0.308290958404541016 0.126801177859306335
1.98311197757720947 -0.526764571666717529 0.222568944096565247
3 0 1 2
3 1 3 4
3 2 1 4
3 3 5 6
3 4 3 6
3 5 7 6
3 0 8 9
3 1 0 9
3 9 10 1
3 1 10 3
3 10 11 3
3 3 11 5
3 5 11 12
3 7 5 12
3 8 13 14
3 9 8 14
3 14 15 9
3 9 15 10
3 15 16 10
3 10 16 11
3 11 16 17
3 12 11 17
3 14 13 18
3 15 14 18
3 19 15 18
3 16 15 19
3 20 16 19
3 16 20 17
3 21 22 23
3 22 24 25
3 23 22 25
3 24 26 27
3 25 24 27
3 26 28 27
3 29 30 31
3 2 22 21
3 0 2 21
3 0 21 31
3 0 31 30
3 4 22 2
3 24 22 4
3 6 24 4
3 26 24 6
3 26 32 28
3 6 32 26
3 6 33 32
3 6 7 33
3 33 34 32
3 29 35 36
3 30 29 36
3 36 0 30
3 8 0 36
3 12 33 7
3 37 33 12
3 33 37 38
3 34 33 38
3 35 39 40
3 36 35 40
3 40 8 36
3 13 8 40
3 17 37 12
3 41 37 17
3 37 41 42
3 38 37 42
3 40 39 43
3 43 44 45
3 40 43 45
3 40 45 18
3 40 18 13
3 18 46 19
3 45 46 18
3 19 47 20
3 46 47 19
3 48 49 41
3 47 48 41
3 47 41 17
3 47 17 20
3 41 49 42
3 45 44 50
3 46 45 50
3 51 46 50
3 47 46 51
3 52 47 51
3 47 52 48
3 53 21 23
3 54 53 23
3 23 25 54
3 25 55 54
3 25 27 55
3 27 56 55
3 28 57 56
3 27 28 56
3 58 29 31
3 59 58 31
3 31 53 59
3 21 53 31
3 60 28 32
3 57 28 60
3 34 61 60
3 32 34 60
3 35 29 62
3 62 29 58
3 38 63 34
3 63 61 34
3 39 35 64
3 64 35 62
3 42 65 38
3 65 63 38
3 66 43 39
3 64 66 39
3 44 66 67
3 43 66 44
3 68 49 48
3 69 49 68
3 49 69 65
3 42 49 65
3 70 50 44
3 67 70 44
3 50 70 51
3 51 70 71
3 51 71 52
3 52 71 72
3 52 72 68
3 48 52 68
3 73 53 54
3 74 73 54
3 54 55 74
3 55 75 74
3 55 56 75
3 56 76 75
3 57 77 76
3 56 57 76
3 78 58 59
3 79 78 59
3 59 73 79
3 53 73 59
3 80 57 60
3 77 57 80
3 61 81 80
3 60 61 80
3 62 58 82
3 82 58 78
3 63 83 61
3 83 81 61
3 64 62 84
3 84 62 82
3 65 85 63
3 85 83 63
3 86 66 64
3 84 86 64
3 67 86 87
3 66 86 67
3 88 69 68
3 89 69 88
3 69 89 85
3 65 69 85
3 90 70 67
3 87 90 67
3 70 90 71
3 71 90 91
3 71 91 72
3 72 91 92
3 72 92 88
3 68 72 88
3 73 74 93
3 74 75 94
3 93 74 94
3 75 76 95
3 94 75 95
3 76 77 95
3 78 79 96
3 97 93 98
3 96 93 97
3 96 73 93
3 96 79 73
3 94 98 93
3 99 98 94
3 95 99 94
3 100 99 95
3 100 101 102
3 95 101 100
3 95 80 101
3 95 77 80
3 80 81 101
3 82 78 96
3 103 82 96
3 96 104 103
3 97 104 96
3 102 105 106
3 101 105 102
3 105 101 81
3 83 105 81
3 84 82 103
3 107 84 103
3 103 108 107
3 104 108 103
3 106 109 110
3 105 109 106
3 109 105 83
3 85 109 83
3 86 84 107
3 107 108 111
3 86 107 111
3 86 111 112
3 86 112 87
3 112 113 114
3 111 113 112
3 114 115 116
3 113 115 114
3 89 110 109
3 88 110 89
3 88 115 110
3 88 116 115
3 89 109 85
3 90 87 112
3 91 90 112
3 114 91 112
3 92 91 114
3 116 92 114
3 92 116 88
3 97 98 117
3 98 99 118
3 117 98 118
3 99 100 119
3 118 99 119
3 100 102 119
3 104 97 117
3 120 104 117
3 120 117 121
3 117 118 121
3 121 118 122
3 118 119 122
3 122 119 102
3 106 122 102
3 108 104 120
3 123 108 120
3 123 120 124
3 120 121 124
3 124 121 125
3 121 122 125
3 125 122 106
3 110 125 106
3 111 108 123
3 113 111 123
3 124 113 123
3 115 113 124
3 125 115 124
3 115 125 110
