ply
format ascii 1.0
comment VCGLIB generated
element vertex 126
property float x
property float y
property float z
element face 248
property list uchar int vertex_indices
end_header
0.0108642578125 -0.0530053786933422089 -0.319588810205459595
0.0522295646369457245 -0.06400318443775177 -0.220125675201416016
-0.01949310302734375 -0.150841653347015381 -0.231658771634101868
-0.0245450343936681747 -0.129974216222763062 -0.0193300247192382812
0.0425351448357105255 -0.211517035961151123 -0.0272049903869628906
0.133563995361328125 -0.204946950078010559 0.129443168640136719
0.0490125007927417755 -0.248296737670898438 0.184921577572822571
0.068632759153842926 -0.125779882073402405 0.153994083404541016
-0.0196406040340662003 0.152677386999130249 -0.24140167236328125
-0.0185864772647619247 0.124614857137203217 -0.136999443173408508
0.023593902587890625 0.0664934441447257996 0.072614036500453949
0.078809104859828949 -0.0323757492005825043 0.265296131372451782
0.17272186279296875 -0.0367779843509197235 0.317771285772323608
0.18975830078125 0.0784896016120910645 -0.251325458288192749
0.202185317873954773 0.0827953144907951355 -0.144208908081054688
0.227495834231376648 0.161724776029586792 0.063309989869594574
0.261119842529296875 0.0999345779418945312 0.278672069311141968
0.265291839838027954 0.101177744567394257 0.169971302151679993
0.28981781005859375 0.142390027642250061 -0.178344562649726868
0.320626586675643921 0.103306084871292114 0.037953060120344162
0.36821746826171875 0.125624984502792358 0.256274223327636719
-0.26822662353515625 -0.0405663065612316132 -0.193301364779472351
-0.132345840334892273 -0.0284818410873413086 -0.168417930603027344
-0.215777084231376648 -0.0404549241065979004 -0.0944465026259422302
0.027637481689453125 -0.0273963082581758499 -0.00306844711303710938
-0.063012443482875824 -0.00682725990191102028 0.0679246559739112854
-0.069258369505405426 -0.22113877534866333 0.0486502647399902344
-0.155216217041015625 -0.192717805504798889 -0.00685071945190429688
-0.10422515869140625 -0.0934453234076499939 0.0197866763919591904
-0.182537078857421875 0.0452518202364444733 -0.44848904013633728
-0.136904403567314148 0.0444828569889068604 -0.349535614252090454
-0.25897216796875 -0.0106996484100818634 -0.377972453832626343
-0.067579902708530426 0.0445298440754413605 0.135892868041992188
0.0410919189453125 0.00663676252588629723 0.060181301087141037
-0.054607391357421875 -0.040488269180059433 0.0804872512817382812
-0.0166269931942224503 0.203558966517448425 -0.518298625946044922
-0.0100199384614825249 0.219414174556732178 -0.409707695245742798
0.01363372802734375 0.0372112579643726349 0.280334800481796265
0.0140711469575762749 -0.0704862996935844421 0.295640945434570312
0.13222503662109375 0.156915262341499329 -0.348260551691055298
0.191226959228515625 0.109244950115680695 -0.42791476845741272
0.234991714358329773 0.0310136023908853531 0.342397212982177734
0.2332305908203125 -0.0743253305554389954 0.340073436498641968
0.240706130862236023 0.184568941593170166 -0.325546741485595703
0.379375457763671875 0.135745152831077576 -0.214583083987236023
0.391755431890487671 -0.00405159080401062965 -0.201864555478096008
0.485791534185409546 0.0379639677703380585 0.00386667251586914062
0.529022216796875 0.0510526262223720551 0.226812049746513367
0.489701598882675171 -0.0502603761851787567 0.318919181823730469
0.322797149419784546 -0.0870580598711967468 0.399445861577987671
0.310679107904434204 0.0620034784078598022 -0.166101619601249695
0.399897247552871704 -0.0275228153914213181 0.025636991485953331
0.521741211414337158 -0.0540864057838916779 0.213725090026855469
-0.316064208745956421 0.178303360939025879 -0.180389568209648132
-0.268183380365371704 0.178804382681846619 -0.0834097862243652344
-0.273189544677734375 0.0718485340476036072 0.111692428588867188
-0.324537903070449829 -0.149096012115478516 0.140800788998603821
-0.23169708251953125 -0.166875302791595459 0.188437938690185547
-0.269276946783065796 0.231249257922172546 -0.345266968011856079
-0.365152984857559204 0.205738469958305359 -0.352526336908340454
-0.248769119381904602 -0.00193013844545930624 0.247444942593574524
-0.175463363528251648 0.0828492268919944763 0.225551769137382507
-0.065022788941860199 0.291180878877639771 -0.306391388177871704
0.00928370188921689987 0.153410851955413818 0.332723140716552734
0.136197403073310852 0.354642003774642944 -0.266920894384384155
0.22560882568359375 0.14966098964214325 0.389718532562255859
0.190626785159111023 0.344814211130142212 -0.180437251925468445
0.319660186767578125 0.299075156450271606 -0.0593109130859375
0.397324889898300171 0.155454382300376892 0.294399887323379517
0.227428436279296875 0.0810125917196273804 0.315550327301025391
0.234588623046875 0.232106313109397888 -0.0441629104316234589
0.261247009038925171 0.107738025486469269 0.140324905514717102
0.366825103759765625 0.0531412027776241302 0.332464069128036499
-0.441483825445175171 0.346379399299621582 -0.105290733277797699
-0.464459747076034546 0.28012511134147644 -0.0300606098026037216
-0.492131561040878296 0.120302647352218628 0.114040374755859375
-0.356402069330215454 0.0313392467796802521 0.26770290732383728
-0.271167755126953125 -0.00408881437033414841 0.334977775812149048
-0.286914825439453125 0.125379517674446106 -0.142207935452461243
-0.316876739263534546 0.223208591341972351 -0.131174400448799133
-0.129103347659111023 -0.0532412789762020111 0.433725357055664062
-0.238705947995185852 -0.0448282770812511444 0.396868377923965454
-0.0599772147834300995 0.148244336247444153 -0.139124229550361633
-0.0361887626349925995 0.00541632762178778648 0.494534164667129517
0.125628158450126648 0.236980319023132324 -0.0622728653252124786
0.186997726559638977 0.0367496348917484283 0.568249285221099854
0.090373992919921875 0.154740616679191589 -0.124251686036586761
0.115725196897983551 0.257794409990310669 0.0190401077270507812
0.362598419189453125 0.223156169056892395 0.513140499591827393
0.303896576166152954 0.051909368485212326 0.537419974803924561
0.095279693603515625 0.363161534070968628 0.0535421371459960938
0.23261260986328125 0.315658301115036011 0.223348930478096008
0.345640808343887329 0.261871844530105591 0.41098436713218689
-0.462614685297012329 0.359300166368484497 0.0411853790283203125
-0.453336089849472046 0.185904815793037415 0.196873024106025696
-0.275789886713027954 0.0417774654924869537 0.204824924468994141
-0.291924804449081421 0.120038658380508423 -0.0355348587036132812
-0.199858352541923523 0.280911475419998169 -0.0391105003654956818
-0.281805664300918579 0.353635907173156738 0.0490126609802246094
-0.3395538330078125 0.311319202184677124 0.269255161285400391
-0.23880767822265625 0.126824274659156799 0.355849266052246094
-0.216161087155342102 -0.144208893179893494 0.449901103973388672
-0.269863128662109375 0.0271192863583564758 0.445801883935928345
-0.122636161744594574 0.237689897418022156 -0.126847431063652039
-0.0177179966121912003 0.143383979797363281 -0.00507354736328125
4.1961669921875e-05 -0.0728235766291618347 0.433869361877441406
-0.068143211305141449 0.0464658476412296295 0.5537109375
0.0436070747673511505 0.163581416010856628 -0.0107529954984784126
0.109484352171421051 0.309965997934341431 0.0447847060859203339
0.206776931881904602 -0.0177683029323816299 0.477211475372314453
0.090190887451171875 0.0923217236995697021 0.39814487099647522
0.179546356201171875 0.298478096723556519 0.165614292025566101
0.0168774928897619247 0.297835618257522583 0.0984031334519386292
0.101010642945766449 0.199084281921386719 0.358260303735733032
0.195697784423828125 0.212140396237373352 0.216095760464668274
0.206185653805732727 0.01116982102394104 0.432552963495254517
0.300860077142715454 0.161442294716835022 0.408487796783447266
-0.243268325924873352 0.243511363863945007 0.0508529357612133026
-0.246275588870048523 0.260806530714035034 0.272887706756591797
-0.272204071283340454 0.141443684697151184 0.454283088445663452
-0.0568491630256175995 0.139730170369148254 0.0932450294494628906
-0.03094482421875 0.239955902099609375 0.294034481048583984
-0.0502166748046875 0.136811628937721252 0.493722200393676758
0.063948310911655426 0.320670336484909058 0.144933059811592102
0.183864593505859375 0.203454375267028809 0.28940853476524353
0.169096633791923523 0.0958704575896263123 0.486769527196884155
3 0 1 2
3 1 3 4
3 2 1 4
3 3 5 6
3 4 3 6
3 5 7 6
3 0 8 9
3 1 0 9
3 9 10 1
3 1 10 3
3 10 11 3
3 3 11 5
3 5 11 12
3 7 5 12
3 8 13 14
3 9 8 14
3 14 15 9
3 9 15 10
3 15 16 10
3 10 16 11
3 11 16 17
3 12 11 17
3 14 13 18
3 15 14 18
3 19 15 18
3 16 15 19
3 20 16 19
3 16 20 17
3 21 22 23
3 22 24 25
3 23 22 25
3 24 26 27
3 25 24 27
3 26 28 27
3 29 30 31
3 2 22 21
3 0 2 21
3 0 21 31
3 0 31 30
3 4 22 2
3 24 22 4
3 6 24 4
3 26 24 6
3 26 32 28
3 6 32 26
3 6 33 32
3 6 7 33
3 33 34 32
3 29 35 36
3 30 29 36
3 36 0 30
3 8 0 36
3 12 33 7
3 37 33 12
3 33 37 38
3 34 33 38
3 35 39 40
3 36 35 40
3 40 8 36
3 13 8 40
3 17 37 12
3 41 37 17
3 37 41 42
3 38 37 42
3 40 39 43
3 43 44 45
3 40 43 45
3 40 45 18
3 40 18 13
3 18 46 19
3 45 46 18
3 19 47 20
3 46 47 19
3 48 49 41
3 47 48 41
3 47 41 17
3 47 17 20
3 41 49 42
3 45 44 50
3 46 45 50
3 51 46 50
3 47 46 51
3 52 47 51
3 47 52 48
3 53 21 23
3 54 53 23
3 23 25 54
3 25 55 54
3 25 27 55
3 27 56 55
3 28 57 56
3 27 28 56
3 58 29 31
3 59 58 31
3 31 53 59
3 21 53 31
3 60 28 32
3 57 28 60
3 34 61 60
3 32 34 60
3 35 29 62
3 62 29 58
3 38 63 34
3 63 61 34
3 39 35 64
3 64 35 62
3 42 65 38
3 65 63 38
3 66 43 39
3 64 66 39
3 44 66 67
3 43 66 44
3 68 49 48
3 69 49 68
3 49 69 65
3 42 49 65
3 70 50 44
3 67 70 44
3 50 70 51
3 51 70 71
3 51 71 52
3 52 71 72
3 52 72 68
3 48 52 68
3 73 53 54
3 74 73 54
3 54 55 74
3 55 75 74
3 55 56 75
3 56 76 75
3 57 77 76
3 56 57 76
3 78 58 59
3 79 78 59
3 59 73 79
3 53 73 59
3 80 57 60
3 77 57 80
3 61 81 80
3 60 61 80
3 62 58 82
3 82 58 78
3 63 83 61
3 83 81 61
3 64 62 84
3 84 62 82
3 65 85 63
3 85 83 63
3 86 66 64
3 84 86 64
3 67 86 87
3 66 86 67
3 88 69 68
3 89 69 88
3 69 89 85
3 65 69 85
3 90 70 67
3 87 90 67
3 70 90 71
3 71 90 91
3 71 91 72
3 72 91 92
3 72 92 88
3 68 72 88
3 73 74 93
3 74 75 94
3 93 74 94
3 75 76 95
3 94 75 95
3 76 77 95
3 78 79 96
3 97 93 98
3 96 93 97
3 96 73 93
3 96 79 73
3 94 98 93
3 99 98 94
3 95 99 94
3 100 99 95
3 100 101 102
3 95 101 100
3 95 80 101
3 95 77 80
3 80 81 101
3 82 78 96
3 103 82 96
3 96 104 103
3 97 104 96
3 102 105 106
3 101 105 102
3 105 101 81
3 83 105 81
3 84 82 103
3 107 84 103
3 103 108 107
3 104 108 103
3 106 109 110
3 105 109 106
3 109 105 83
3 85 109 83
3 86 84 107
3 107 108 111
3 86 107 111
3 86 111 112
3 86 112 87
3 112 113 114
3 111 113 112
3 114 115 116
3 113 115 114
3 89 110 109
3 88 110 89
3 88 115 110
3 88 116 115
3 89 109 85
3 90 87 112
3 91 90 112
3 114 91 112
3 92 91 114
3 116 92 114
3 92 116 88
3 97 98 117
3 98 99 118
3 117 98 118
3 99 100 119
3 118 99 119
3 100 102 119
3 104 97 117
3 120 104 117
3 120 117 121
3 117 118 121
3 121 118 122
3 118 119 122
3 122 119 102
3 106 122 102
3 108 104 120
3 123 108 120
3 123 120 124
3 120 121 124
3 124 121 125
3 121 122 125
3 125 122 106
3 110 125 106
3 111 108 123
3 113 111 123
3 124 113 123
3 115 113 124
3 125 115 124
3 115 125 110
