ply
format ascii 1.0
comment VCGLIB generated
element vertex 126
property float x
property float y
property float z
element face 248
property list uchar int vertex_indices
end_header
-0.117923416197299957 0.22134082019329071 -0.55047231912612915
-0.117918647825717926 0.153827071189880371 -0.463786303997039795
-0.19719599187374115 0.111610621213912964 -0.532237052917480469
-0.141045242547988892 -0.0435075350105762482 -0.352790355682373047
-0.151809051632881165 -0.0929978489875793457 -0.452562958002090454
-0.183014869689941406 -0.252563416957855225 -0.282085925340652466
-0.10675588995218277 -0.290202528238296509 -0.352829277515411377
-0.224219948053359985 -0.351031303405761719 -0.312431842088699341
0.0958712846040725708 0.20632132887840271 -0.489278823137283325
0.0941467210650444031 0.0980503931641578674 -0.495360672473907471
0.0428056716918945312 -0.118229061365127563 -0.458560764789581299
0.00656445790082216263 -0.323315709829330444 -0.37719765305519104
-0.016328493133187294 -0.427973657846450806 -0.348676025867462158
0.296724617481231689 0.188020378351211548 -0.392510473728179932
0.2692413330078125 0.0874071121215820312 -0.356226742267608643
0.226953819394111633 -0.129990875720977783 -0.325688302516937256
0.22362072765827179 -0.356267333030700684 -0.350109726190567017
0.208524063229560852 -0.45167309045791626 -0.295289754867553711
0.373635292053222656 0.0731334909796714783 -0.379268914461135864
0.333677917718887329 -0.133894160389900208 -0.311848908662796021
0.246882423758506775 -0.331492871046066284 -0.246435791254043579
-0.288278251886367798 0.183857157826423645 -0.283471941947937012
-0.325212478637695312 0.128621533513069153 -0.406653463840484619
-0.381946533918380737 0.128565430641174316 -0.314070761203765869
-0.318185478448867798 -0.0968904644250869751 -0.377410829067230225
-0.313569694757461548 -0.0830118730664253235 -0.271235287189483643
-0.269708633422851562 -0.284927040338516235 -0.27611115574836731
-0.355830192565917969 -0.290683597326278687 -0.210073575377464294
-0.294405609369277954 -0.36998826265335083 -0.165166452527046204
-0.00753879500553011894 0.158242732286453247 -0.280932784080505371
-0.042095184326171875 0.171111136674880981 -0.388141065835952759
-0.116424553096294403 0.194221019744873047 -0.279028415679931641
-0.160519272089004517 -0.379310846328735352 -0.050954815000295639
-0.233252838253974915 -0.435234278440475464 -0.156893923878669739
-0.225605949759483337 -0.329456329345703125 -0.134788542985916138
0.0222349166870117188 0.379747599363327026 -0.303502857685089111
0.0842523574829101562 0.356708675622940063 -0.394213974475860596
-0.0296783428639173508 -0.353760659694671631 -0.187131762504577637
-0.0106875095516443253 -0.322374105453491211 -0.0865453481674194336
0.162636429071426392 0.211767002940177917 -0.25731503963470459
0.243668541312217712 0.282173186540603638 -0.252976417541503906
0.110758140683174133 -0.538660168647766113 -0.172257423400878906
0.128038719296455383 -0.503210008144378662 -0.0717399492859840393
0.20847637951374054 0.179004892706871033 -0.164461523294448853
0.370629608631134033 0.166665777564048767 -0.232942894101142883
0.457057923078536987 0.0567946247756481171 -0.220149144530296326
0.291899025440216064 -0.0741249695420265198 -0.149083733558654785
0.260863304138183594 -0.283158451318740845 -0.0762863904237747192
0.323710441589355469 -0.401906222105026245 -0.0637916699051856995
0.223569855093955994 -0.546995580196380615 -0.0905323028564453125
0.430226296186447144 0.13581278920173645 -0.148120313882827759
0.394290268421173096 -0.0788103565573692322 -0.106952182948589325
0.369806289672851562 -0.297168523073196411 -0.062443811446428299
-0.304463684558868408 0.0943525806069374084 -0.0809240341186523438
-0.279370933771133423 0.192292541265487671 -0.12369333952665329
-0.317983627319335938 -0.0182717759162187576 -0.0535414591431617737
-0.384751945734024048 -0.226954683661460876 0.00965833663940429688
-0.407821327447891235 -0.332581520080566406 0.0306258592754602432
-0.0289138145744800568 0.176642447710037231 -0.056864418089389801
-0.130049377679824829 0.124012738466262817 -0.0670280009508132935
-0.261019051074981689 -0.273115783929824829 0.110097125172615051
-0.254303604364395142 -0.377961456775665283 0.0794881582260131836
0.00586032820865511894 0.396185338497161865 -0.0767054110765457153
-0.041907627135515213 -0.448270916938781738 0.0904776602983474731
0.195725753903388977 0.284800082445144653 -0.0479024611413478851
0.19269147515296936 -0.462519347667694092 0.118883445858955383
0.244291618466377258 0.379795312881469727 -0.0775738507509231567
0.356384903192520142 0.248890504240989685 -0.0262737255543470383
0.236778244376182556 -0.369254201650619507 0.138403177261352539
0.277579605579376221 -0.557371735572814941 0.129553869366645813
0.266361236572265625 0.19050203263759613 -0.00409503746777772903
0.233627945184707642 -0.0290343873202800751 0.0411905832588672638
0.238294586539268494 -0.251428306102752686 0.114932253956794739
-0.361421883106231689 0.191253319382667542 0.102297656238079071
-0.405066788196563721 0.272187352180480957 0.0458101406693458557
-0.444930374622344971 0.0579100772738456726 0.116049639880657196
-0.496026664972305298 -0.152724668383598328 0.186851218342781067
-0.461484581232070923 -0.249925121665000916 0.239010646939277649
-0.0811688080430030823 0.21586647629737854 0.15379825234413147
-0.190048202872276306 0.192128643393516541 0.138887360692024231
-0.325376182794570923 -0.352431595325469971 0.308637022972106934
-0.238275513052940369 -0.276219040155410767 0.286523699760437012
-0.00805695820599794388 0.424647301435470581 0.145885542035102844
-0.0278774891048669815 -0.347483664751052856 0.288329899311065674
0.200195297598838806 0.348051488399505615 0.172788500785827637
0.19909222424030304 -0.351968854665756226 0.26030498743057251
0.212440475821495056 0.437248766422271729 0.148220449686050415
0.343391090631484985 0.326663553714752197 0.178980231285095215
0.418699562549591064 -0.305358916521072388 0.15010872483253479
0.2412557452917099 -0.372759699821472168 0.115903809666633606
0.287316620349884033 0.231504872441291809 0.210883006453514099
0.335337311029434204 -0.0036488331388682127 0.245377808809280396
0.381485611200332642 -0.247721269726753235 0.259490400552749634
-0.415574699640274048 0.31133309006690979 0.149878054857254028
-0.442215591669082642 0.100876368582248688 0.219991400837898254
-0.456598579883575439 -0.118390344083309174 0.28294682502746582
-0.127768516540527344 0.221954703330993652 0.249518349766731262
-0.203769996762275696 0.373541206121444702 0.310501843690872192
-0.328915894031524658 0.340367615222930908 0.317827850580215454
-0.322968155145645142 0.123591892421245575 0.352602779865264893
-0.288596153259277344 -0.0978022366762161255 0.34414905309677124
-0.229058250784873962 -0.341302663087844849 0.206138283014297485
-0.212354645133018494 -0.18795284628868103 0.284631252288818359
-0.044256843626499176 0.434568166732788086 0.251847296953201294
-0.0166956577450037003 0.3778877854347229 0.430869638919830322
-0.008869171142578125 -0.30893176794052124 0.181707531213760376
0.0269031506031751633 -0.296251147985458374 0.380621135234832764
0.120210640132427216 0.325653791427612305 0.187137514352798462
0.166074424982070923 0.267978966236114502 0.343771159648895264
0.203925758600234985 -0.312573820352554321 0.198474317789077759
0.243039116263389587 -0.437588214874267578 0.366564184427261353
0.265679359436035156 0.239563107490539551 0.416794002056121826
0.364155769348144531 0.237824440002441406 0.285967588424682617
0.265885978937149048 -0.00313847255893051624 0.42336699366569519
0.408660560846328735 0.00190633733291178942 0.309481024742126465
0.26028791069984436 -0.238802775740623474 0.375056833028793335
0.448538452386856079 -0.203006833791732788 0.271458625793457031
-0.23266156017780304 0.292178332805633545 0.380539476871490479
-0.203382164239883423 0.101635299623012543 0.327525734901428223
-0.205442100763320923 -0.089122578501701355 0.266265273094177246
-0.0301694851368665695 0.220215141773223877 0.402782738208770752
0.00667571974918246269 0.056240476667881012 0.284363210201263428
0.00699837971478700638 -0.177385210990905762 0.295286566019058228
0.17612457275390625 0.194694742560386658 0.44066426157951355
0.191868141293525696 -0.022606952115893364 0.362998843193054199
0.183060958981513977 -0.253788024187088013 0.302670389413833618
3 0 1 2
3 1 3 4
3 2 1 4
3 3 5 6
3 4 3 6
3 5 7 6
3 0 8 9
3 1 0 9
3 9 10 1
3 1 10 3
3 10 11 3
3 3 11 5
3 5 11 12
3 7 5 12
3 8 13 14
3 9 8 14
3 14 15 9
3 9 15 10
3 15 16 10
3 10 16 11
3 11 16 17
3 12 11 17
3 14 13 18
3 15 14 18
3 19 15 18
3 16 15 19
3 20 16 19
3 16 20 17
3 21 22 23
3 22 24 25
3 23 22 25
3 24 26 27
3 25 24 27
3 26 28 27
3 29 30 31
3 2 22 21
3 0 2 21
3 0 21 31
3 0 31 30
3 4 22 2
3 24 22 4
3 6 24 4
3 26 24 6
3 26 32 28
3 6 32 26
3 6 33 32
3 6 7 33
3 33 34 32
3 29 35 36
3 30 29 36
3 36 0 30
3 8 0 36
3 12 33 7
3 37 33 12
3 33 37 38
3 34 33 38
3 35 39 40
3 36 35 40
3 40 8 36
3 13 8 40
3 17 37 12
3 41 37 17
3 37 41 42
3 38 37 42
3 40 39 43
3 43 44 45
3 40 43 45
3 40 45 18
3 40 18 13
3 18 46 19
3 45 46 18
3 19 47 20
3 46 47 19
3 48 49 41
3 47 48 41
3 47 41 17
3 47 17 20
3 41 49 42
3 45 44 50
3 46 45 50
3 51 46 50
3 47 46 51
3 52 47 51
3 47 52 48
3 53 21 23
3 54 53 23
3 23 25 54
3 25 55 54
3 25 27 55
3 27 56 55
3 28 57 56
3 27 28 56
3 58 29 31
3 59 58 31
3 31 53 59
3 21 53 31
3 60 28 32
3 57 28 60
3 34 61 60
3 32 34 60
3 35 29 62
3 62 29 58
3 38 63 34
3 63 61 34
3 39 35 64
3 64 35 62
3 42 65 38
3 65 63 38
3 66 43 39
3 64 66 39
3 44 66 67
3 43 66 44
3 68 49 48
3 69 49 68
3 49 69 65
3 42 49 65
3 70 50 44
3 67 70 44
3 50 70 51
3 51 70 71
3 51 71 52
3 52 71 72
3 52 72 68
3 48 52 68
3 73 53 54
3 74 73 54
3 54 55 74
3 55 75 74
3 55 56 75
3 56 76 75
3 57 77 76
3 56 57 76
3 78 58 59
3 79 78 59
3 59 73 79
3 53 73 59
3 80 57 60
3 77 57 80
3 61 81 80
3 60 61 80
3 62 58 82
3 82 58 78
3 63 83 61
3 83 81 61
3 64 62 84
3 84 62 82
3 65 85 63
3 85 83 63
3 86 66 64
3 84 86 64
3 67 86 87
3 66 86 67
3 88 69 68
3 89 69 88
3 69 89 85
3 65 69 85
3 90 70 67
3 87 90 67
3 70 90 71
3 71 90 91
3 71 91 72
3 72 91 92
3 72 92 88
3 68 72 88
3 73 74 93
3 74 75 94
3 93 74 94
3 75 76 95
3 94 75 95
3 76 77 95
3 78 79 96
3 97 93 98
3 96 93 97
3 96 73 93
3 96 79 73
3 94 98 93
3 99 98 94
3 95 99 94
3 100 99 95
3 100 101 102
3 95 101 100
3 95 80 101
3 95 77 80
3 80 81 101
3 82 78 96
3 103 82 96
3 96 104 103
3 97 104 96
3 102 105 106
3 101 105 102
3 105 101 81
3 83 105 81
3 84 82 103
3 107 84 103
3 103 108 107
3 104 108 103
3 106 109 110
3 105 109 106
3 109 105 83
3 85 109 83
3 86 84 107
3 107 108 111
3 86 107 111
3 86 111 112
3 86 112 87
3 112 113 114
3 111 113 112
3 114 115 116
3 113 115 114
3 89 110 109
3 88 110 89
3 88 115 110
3 88 116 115
3 89 109 85
3 90 87 112
3 91 90 112
3 114 91 112
3 92 91 114
3 116 92 114
3 92 116 88
3 97 98 117
3 98 99 118
3 117 98 118
3 99 100 119
3 118 99 119
3 100 102 119
3 104 97 117
3 120 104 117
3 120 117 121
3 117 118 121
3 121 118 122
3 118 119 122
3 122 119 102
3 106 122 102
3 108 104 120
3 123 108 120
3 123 120 124
3 120 121 124
3 124 121 125
3 121 122 125
3 125 122 106
3 110 125 106
3 111 108 123
3 113 111 123
3 124 113 123
3 115 113 124
3 125 115 124
3 115 125 110
