ply
format ascii 1.0
comment VCGLIB generated
element vertex 126
property float x
property float y
property float z
element face 248
property list uchar int vertex_indices
end_header
1.505279541015625 -0.351376861333847046 -0.54758763313293457
1.51293659210205078 -0.448354542255401611 -0.488893747329711914
1.49927830696105957 -0.376816302537918091 -0.409434258937835693
1.51740336418151855 -0.466944307088851929 -0.266307473182678223
1.437225341796875 -0.536109387874603271 -0.262097448110580444
1.478271484375 -0.686837196350097656 -0.269435733556747437
1.55327880382537842 -0.70411527156829834 -0.34748879075050354
1.52448129653930664 -0.777971863746643066 -0.232981115579605103
1.7247546911239624 -0.316051870584487915 -0.512357413768768311
1.73484277725219727 -0.417827785015106201 -0.470695048570632935
1.7336585521697998 -0.510482966899871826 -0.267629414796829224
1.69553232192993164 -0.727524518966674805 -0.229684218764305115
1.71563231945037842 -0.729619741439819336 -0.336750209331512451
1.94359171390533447 -0.286936581134796143 -0.46847495436668396
1.93773269653320312 -0.364639908075332642 -0.391217559576034546
1.9499969482421875 -0.558841049671173096 -0.280828028917312622
1.91397058963775635 -0.762172400951385498 -0.196469038724899292
1.93558084964752197 -0.74351203441619873 -0.301560252904891968
2.03577208518981934 -0.38624003529548645 -0.436199992895126343
2.00444483757019043 -0.599911332130432129 -0.36650007963180542
2.02153635025024414 -0.741965115070343018 -0.192912265658378601
1.27812814712524414 -0.225020885467529297 -0.360015720129013062
1.32332015037536621 -0.336724817752838135 -0.428213417530059814
1.26328551769256592 -0.332158505916595459 -0.335519313812255859
1.30717182159423828 -0.557515263557434082 -0.380254000425338745
1.33874022960662842 -0.535273075103759766 -0.275580674409866333
1.38623499870300293 -0.756139934062957764 -0.311039358377456665
1.31892633438110352 -0.753089308738708496 -0.22426430881023407
1.3904796838760376 -0.833640158176422119 -0.18987719714641571
1.45865523815155029 -0.257868200540542603 -0.273715794086456299
1.47846221923828125 -0.3042946457862854 -0.37441253662109375
1.44935262203216553 -0.173163369297981262 -0.343302369117736816
1.46502578258514404 -0.762389183044433594 -0.0455390326678752899
1.59511566162109375 -0.724778175354003906 -0.0760403499007225037
1.53671085834503174 -0.826404809951782227 -0.0998167544603347778
1.68213236331939697 -0.246714651584625244 -0.258057326078414917
1.68652439117431641 -0.221110105514526367 -0.365961670875549316
1.6888427734375 -0.866192936897277832 -0.221309661865234375
1.73750269412994385 -0.919631242752075195 -0.135499775409698486
1.90357029438018799 -0.212843343615531921 -0.24549981951713562
1.9015190601348877 -0.163653969764709473 -0.344289869070053101
1.90353739261627197 -0.853209614753723145 -0.16260211169719696
1.88730061054229736 -0.752905905246734619 -0.121075235307216644
1.98747289180755615 -0.141547366976737976 -0.237925916910171509
2.14296174049377441 -0.2271624356508255 -0.259193927049636841
2.14474582672119141 -0.360343843698501587 -0.29546239972114563
2.08434176445007324 -0.559141457080841064 -0.211746469140052795
2.19831299781799316 -0.752802014350891113 -0.21888299286365509
2.16802430152893066 -0.812040448188781738 -0.0977678745985031128
1.9981313943862915 -0.760753333568572998 -0.12380729615688324
2.08258700370788574 -0.309540838003158569 -0.21983492374420166
2.17522192001342773 -0.50951617956161499 -0.172725796699523926
2.22744512557983398 -0.721513628959655762 -0.117070674896240234
1.24682509899139404 -0.178089141845703125 -0.14098687469959259
1.22553908824920654 -0.284403979778289795 -0.119074039161205292
1.31110274791717529 -0.482971549034118652 -0.0573435686528682709
1.28349995613098145 -0.700107753276824951 -0.00931999925523996353
1.34246134757995605 -0.803609013557434082 0.0274825096130371094
1.44660258293151855 -0.116010822355747223 -0.0990080833435058594
1.37846851348876953 -0.0577624477446079254 -0.162891030311584473
1.40413105487823486 -1.027779221534729 0.0917482376098632812
1.52170693874359131 -0.974439918994903564 0.0769402757287025452
1.66503214836120605 -0.147264197468757629 -0.0582961589097976685
1.75207138061523438 -0.947928071022033691 0.088035188615322113
1.88563251495361328 -0.168690010905265808 -0.0264052897691726685
1.8927539587020874 -0.773723423480987549 0.101011231541633606
1.99585127830505371 -0.174916163086891174 -0.0164816584438085556
2.17033219337463379 -0.154451638460159302 -0.050533682107925415
2.15336871147155762 -0.752039313316345215 0.116892725229263306
1.981353759765625 -0.707782387733459473 0.0948771536350250244
2.12050175666809082 -0.243185430765151978 -0.00922506488859653473
2.19715285301208496 -0.449444234371185303 0.0405996479094028473
2.11592936515808105 -0.656094253063201904 0.0691151618957519531
1.24586105346679688 -0.135057315230369568 0.0796122997999191284
1.19750285148620605 -0.231743156909942627 0.0971390977501869202
1.28007709980010986 -0.432592511177062988 0.160775184631347656
1.25573062896728516 -0.652928829193115234 0.207541421055793762
1.30569803714752197 -0.758471250534057617 0.238166719675064087
1.45064783096313477 0.054975554347038269 0.048183094710111618
1.35683059692382812 0.0016602313844487071 0.0535269193351268768
1.40516448020935059 -0.955541133880615234 0.318880736827850342
1.51599013805389404 -0.928524911403656006 0.294760555028915405
1.67161250114440918 0.0446040108799934387 0.0568680316209793091
1.73621785640716553 -0.889313399791717529 0.303090482950210571
1.89313709735870361 0.0333512313663959503 0.0700705721974372864
1.95217132568359375 -0.83683478832244873 0.308321177959442139
1.99678933620452881 0.0141395507380366325 0.102703355252742767
2.08815646171569824 -0.131915003061294556 0.156339734792709351
2.16499495506286621 -0.64361494779586792 0.312215834856033325
2.03924179077148438 -0.769499778747558594 0.298279404640197754
2.17979264259338379 -0.174850687384605408 0.199187234044075012
2.09032058715820312 -0.378841787576675415 0.223797008395195007
2.07632923126220703 -0.595103442668914795 0.283652633428573608
1.28875553607940674 -0.24109514057636261 0.154821440577507019
1.22677016258239746 -0.423844069242477417 0.258134931325912476
1.2934424877166748 -0.640967667102813721 0.308609873056411743
1.4441143274307251 0.0373505838215351105 0.155616015195846558
1.43420994281768799 -0.0609266273677349091 0.302116662263870239
1.33263492584228516 -0.155261993408203125 0.305787861347198486
1.39307022094726562 -0.369939118623733521 0.300761997699737549
1.43950200080871582 -0.576839029788970947 0.230158671736717224
1.53459715843200684 -0.8337249755859375 0.247548922896385193
1.54681980609893799 -0.657179832458496094 0.197147458791732788
1.6604163646697998 -0.013013206422328949 0.149795785546302795
1.65516757965087891 -0.0629184916615486145 0.320720672607421875
1.71789336204528809 -0.807880222797393799 0.373910993337631226
1.6948474645614624 -0.632944583892822266 0.363883316516876221
1.88225829601287842 -0.0504134632647037506 0.143464699387550354
1.87510228157043457 -0.116452880203723907 0.308509081602096558
1.94013416767120361 -0.781482040882110596 0.396977990865707397
1.89179325103759766 -0.640317976474761963 0.481175929307937622
1.9818652868270874 -0.119984783232212067 0.390188694000244141
2.12508988380432129 -0.13893456757068634 0.290426552295684814
1.96661853790283203 -0.334893286228179932 0.440920472145080566
2.11726093292236328 -0.352554887533187866 0.329454600811004639
1.9100189208984375 -0.534118235111236572 0.385635107755661011
2.08681964874267578 -0.566190004348754883 0.392029047012329102
1.42722737789154053 -0.149742841720581055 0.368119806051254272
1.49344527721405029 -0.33746376633644104 0.259186774492263794
1.5408775806427002 -0.54637378454208374 0.197137266397476196
1.64671289920806885 -0.111013121902942657 0.417000383138656616
1.68999576568603516 -0.32690882682800293 0.37758868932723999
1.73119628429412842 -0.537719905376434326 0.317986011505126953
1.87356770038604736 -0.111404091119766235 0.41895410418510437
1.87372720241546631 -0.318457067012786865 0.511900961399078369
1.89748585224151611 -0.531445980072021484 0.466317683458328247
3 0 1 2
3 1 3 4
3 2 1 4
3 3 5 6
3 4 3 6
3 5 7 6
3 0 8 9
3 1 0 9
3 9 10 1
3 1 10 3
3 10 11 3
3 3 11 5
3 5 11 12
3 7 5 12
3 8 13 14
3 9 8 14
3 14 15 9
3 9 15 10
3 15 16 10
3 10 16 11
3 11 16 17
3 12 11 17
3 14 13 18
3 15 14 18
3 19 15 18
3 16 15 19
3 20 16 19
3 16 20 17
3 21 22 23
3 22 24 25
3 23 22 25
3 24 26 27
3 25 24 27
3 26 28 27
3 29 30 31
3 2 22 21
3 0 2 21
3 0 21 31
3 0 31 30
3 4 22 2
3 24 22 4
3 6 24 4
3 26 24 6
3 26 32 28
3 6 32 26
3 6 33 32
3 6 7 33
3 33 34 32
3 29 35 36
3 30 29 36
3 36 0 30
3 8 0 36
3 12 33 7
3 37 33 12
3 33 37 38
3 34 33 38
3 35 39 40
3 36 35 40
3 40 8 36
3 13 8 40
3 17 37 12
3 41 37 17
3 37 41 42
3 38 37 42
3 40 39 43
3 43 44 45
3 40 43 45
3 40 45 18
3 40 18 13
3 18 46 19
3 45 46 18
3 19 47 20
3 46 47 19
3 48 49 41
3 47 48 41
3 47 41 17
3 47 17 20
3 41 49 42
3 45 44 50
3 46 45 50
3 51 46 50
3 47 46 51
3 52 47 51
3 47 52 48
3 53 21 23
3 54 53 23
3 23 25 54
3 25 55 54
3 25 27 55
3 27 56 55
3 28 57 56
3 27 28 56
3 58 29 31
3 59 58 31
3 31 53 59
3 21 53 31
3 60 28 32
3 57 28 60
3 34 61 60
3 32 34 60
3 35 29 62
3 62 29 58
3 38 63 34
3 63 61 34
3 39 35 64
3 64 35 62
3 42 65 38
3 65 63 38
3 66 43 39
3 64 66 39
3 44 66 67
3 43 66 44
3 68 49 48
3 69 49 68
3 49 69 65
3 42 49 65
3 70 50 44
3 67 70 44
3 50 70 51
3 51 70 71
3 51 71 52
3 52 71 72
3 52 72 68
3 48 52 68
3 73 53 54
3 74 73 54
3 54 55 74
3 55 75 74
3 55 56 75
3 56 76 75
3 57 77 76
3 56 57 76
3 78 58 59
3 79 78 59
3 59 73 79
3 53 73 59
3 80 57 60
3 77 57 80
3 61 81 80
3 60 61 80
3 62 58 82
3 82 58 78
3 63 83 61
3 83 81 61
3 64 62 84
3 84 62 82
3 65 85 63
3 85 83 63
3 86 66 64
3 84 86 64
3 67 86 87
3 66 86 67
3 88 69 68
3 89 69 88
3 69 89 85
3 65 69 85
3 90 70 67
3 87 90 67
3 70 90 71
3 71 90 91
3 71 91 72
3 72 91 92
3 72 92 88
3 68 72 88
3 73 74 93
3 74 75 94
3 93 74 94
3 75 76 95
3 94 75 95
3 76 77 95
3 78 79 96
3 97 93 98
3 96 93 97
3 96 73 93
3 96 79 73
3 94 98 93
3 99 98 94
3 95 99 94
3 100 99 95
3 100 101 102
3 95 101 100
3 95 80 101
3 95 77 80
3 80 81 101
3 82 78 96
3 103 82 96
3 96 104 103
3 97 104 96
3 102 105 106
3 101 105 102
3 105 101 81
3 83 105 81
3 84 82 103
3 107 84 103
3 103 108 107
3 104 108 103
3 106 109 110
3 105 109 106
3 109 105 83
3 85 109 83
3 86 84 107
3 107 108 111
3 86 107 111
3 86 111 112
3 86 112 87
3 112 113 114
3 111 113 112
3 114 115 116
3 113 115 114
3 89 110 109
3 88 110 89
3 88 115 110
3 88 116 115
3 89 109 85
3 90 87 112
3 91 90 112
3 114 91 112
3 92 91 114
3 116 92 114
3 92 116 88
3 97 98 117
3 98 99 118
3 117 98 118
3 99 100 119
3 118 99 119
3 100 102 119
3 104 97 117
3 120 104 117
3 120 117 121
3 117 118 121
3 121 118 122
3 118 119 122
3 122 119 102
3 106 122 102
3 108 104 120
3 123 108 120
3 123 120 124
3 120 121 124
3 124 121 125
3 121 122 125
3 125 122 106
3 110 125 106
3 111 108 123
3 113 111 123
3 124 113 123
3 115 113 124
3 125 115 124
3 115 125 110
