ply
format ascii 1.0
comment VCGLIB generated
element vertex 126
property float x
property float y
property float z
element face 248
property list uchar int vertex_indices
end_header
-0.303727477788925171 0.280787259340286255 -0.365049988031387329
-0.263907104730606079 0.175362691283226013 -0.390789508819580078
-0.320012420415878296 0.166108563542366028 -0.301639080047607422
-0.237923935055732727 -0.0519548393785953522 -0.384622424840927124
-0.316570281982421875 -0.0554419904947280884 -0.294375419616699219
-0.0594927482306957245 -0.0769717171788215637 -0.243686676025390625
-0.128037765622138977 -0.0373879298567771912 -0.173418834805488586
0.0012664794921875 -0.118770889937877655 -0.162627220153808594
-0.09514617919921875 0.213144898414611816 -0.344815105199813843
-0.067091621458530426 0.199703887104988098 -0.483230113983154297
-0.017436981201171875 -0.0258975755423307419 -0.434019416570663452
0.0186144504696130753 -0.246974468231201172 -0.361127227544784546
0.0249532070010900497 -0.311406493186950684 -0.268016189336776733
0.099847160279750824 0.317763358354568481 -0.309720516204833984
0.1445159912109375 0.245520353317260742 -0.380739837884902954
0.184612274169921875 0.0238721370697021484 -0.367770999670028687
0.227389022707939148 -0.201623395085334778 -0.320582389831542969
0.249209091067314148 -0.30104944109916687 -0.267509311437606812
0.227906540036201477 0.264227390289306641 -0.302396446466445923
0.273881286382675171 0.042917642742395401 -0.305443435907363892
0.275755554437637329 -0.170126453042030334 -0.228079155087471008
-0.493488311767578125 0.295187264680862427 -0.105361305177211761
-0.410264343023300171 0.190275132656097412 -0.15957053005695343
-0.485094696283340454 0.201214268803596497 -0.0632163658738136292
-0.446317046880722046 -0.0257964078336954117 -0.168793037533760071
-0.51165008544921875 -0.0170787069946527481 -0.0582100562751293182
-0.261623382568359375 -0.121639974415302277 -0.0901649817824363708
-0.290442138910293579 -0.0740811899304389954 -0.00497500086203217506
-0.210801437497138977 -0.0628363490104675293 0.0379885025322437286
-0.386956542730331421 0.352591514587402344 -0.118332862854003906
-0.34864044189453125 0.344173938035964966 -0.211861297488212585
-0.422135680913925171 0.443801611661911011 -0.141311809420585632
-0.072086334228515625 -0.168869927525520325 0.0973122939467430115
0.0381685905158519745 -0.178162515163421631 0.00055694580078125
-0.061367034912109375 -0.210913553833961487 -0.00733486795797944069
-0.174784347414970398 0.321366041898727417 -0.0651353225111961365
-0.140050247311592102 0.26440700888633728 -0.152421951293945312
0.0389734916388988495 -0.381330966949462891 -0.0993343964219093323
0.0583559684455394745 -0.413340777158737183 0.0102326078340411186
0.0116068525239825249 0.445933789014816284 -0.0665802955627441406
0.0337702445685863495 0.408101290464401245 -0.168833896517753601
0.26399993896484375 -0.388019651174545288 -0.105079494416713715
0.275892883539199829 -0.408647328615188599 -0.00898869801312685013
0.120911918580532074 0.448848605155944824 -0.0661498680710792542
0.279610961675643921 0.368941903114318848 -0.0413304977118968964
0.311926513910293579 0.267506301403045654 -0.142862632870674133
0.321683257818222046 0.048175320029258728 -0.132112503051757812
0.435873657464981079 -0.132635250687599182 -0.149413585662841797
0.470719665288925171 -0.213621065020561218 -0.0454341582953929901
0.380757659673690796 -0.382667034864425659 -0.0130243301391601562
0.251399993896484375 0.268705368041992188 -0.0468538589775562286
0.37067413330078125 0.0870966240763664246 -0.037940341979265213
0.45073699951171875 -0.108258195221424103 -0.0559846572577953339
-0.576666533946990967 0.341128945350646973 0.108491420745849609
-0.645050048828125 0.247411325573921204 0.110197387635707855
-0.515411376953125 0.0718713924288749695 0.145416572690010071
-0.463541656732559204 -0.119073159992694855 0.0898555144667625427
-0.387392669916152954 -0.194053009152412415 0.0849274024367332458
-0.448694854974746704 0.46082305908203125 0.0894252434372901917
-0.533818542957305908 0.504399359226226807 0.0776185989379882812
-0.2350921630859375 -0.327627390623092651 0.132106468081474304
-0.123493194580078125 -0.370949536561965942 0.153841808438301086
-0.241842910647392273 0.41879919171333313 0.135477229952812195
0.095550537109375 -0.341649025678634644 0.217993572354316711
-0.0134404497221112251 0.469455152750015259 0.155913352966308594
0.251692444086074829 -0.21085222065448761 0.0997055396437644958
0.098527275025844574 0.493017882108688354 0.157689094543457031
0.216014862060546875 0.368626952171325684 0.175120994448661804
0.421133667230606079 -0.177976980805397034 0.179533317685127258
0.297832489013671875 -0.30379900336265564 0.163434669375419617
0.197923019528388977 0.263962388038635254 0.17013104259967804
0.283852905035018921 0.0649610087275505066 0.162026569247245789
0.330041259527206421 -0.146803423762321472 0.14067395031452179
-0.634882628917694092 0.374732047319412231 0.3213958740234375
-0.640679657459259033 0.293491333723068237 0.335835456848144531
-0.602747619152069092 0.0709057971835136414 0.34015163779258728
-0.413232177495956421 0.00327109661884605885 0.246907234191894531
-0.304897308349609375 -0.0467660985887050629 0.239518478512763977
-0.46886444091796875 0.58369368314743042 0.295996040105819702
-0.521952331066131592 0.494911551475524902 0.322238922119140625
-0.249699905514717102 -0.202353060245513916 0.3053436279296875
-0.146119430661201477 -0.176325380802154541 0.260575771331787109
-0.258028656244277954 0.505001425743103027 0.338657528162002563
0.05959320068359375 -0.115580342710018158 0.195233508944511414
-0.0572497062385082245 0.504524588584899902 0.380460113286972046
0.257137298583984375 -0.0698046833276748657 0.276708453893661499
0.0416768379509449005 0.5005950927734375 0.379908561706542969
0.183046981692314148 0.390163034200668335 0.395253807306289673
0.360605865716934204 -0.119709312915802002 0.379289150238037109
0.215700790286064148 -0.165098264813423157 0.291230052709579468
0.191968277096748352 0.277266472578048706 0.39664044976234436
0.291075378656387329 0.0803007930517196655 0.383512496948242188
0.272060394287109375 -0.139157697558403015 0.356852531433105469
-0.638060271739959717 0.289824545383453369 0.447366565465927124
-0.554133117198944092 0.0894162431359291077 0.441458225250244141
-0.369862884283065796 0.0391326434910297394 0.332418292760848999
-0.498690277338027954 0.534773170948028564 0.414775848388671875
-0.480617523193359375 0.451957941055297852 0.568310976028442383
-0.550146758556365967 0.33487364649772644 0.606996774673461914
-0.452716827392578125 0.124825112521648407 0.606076419353485107
-0.360276550054550171 -0.0558273307979106903 0.493789911270141602
-0.154588058590888977 -0.239151656627655029 0.345996856689453125
-0.214808151125907898 -0.105374068021774292 0.477522611618041992
-0.295773833990097046 0.53528672456741333 0.456371456384658813
-0.267072051763534546 0.468329280614852905 0.606396019458770752
0.0423227958381175995 -0.106744296848773956 0.313687801361083984
-0.0279019679874181747 0.0117846420034766197 0.407500416040420532
-0.071158088743686676 0.514700412750244141 0.474256366491317749
-0.084836326539516449 0.412636607885360718 0.611829221248626709
0.2612152099609375 -0.0649643018841743469 0.369554519653320312
0.129019424319267273 -0.111142419278621674 0.522055149078369141
0.0293706264346837997 0.305974811315536499 0.616224229335784912
0.187761947512626648 0.303033500909805298 0.502234876155853271
0.0358263663947582245 0.0764369666576385498 0.5572395920753479
0.21378326416015625 0.0924826040863990784 0.463693618774414062
0.05928802490234375 -0.130458548665046692 0.475175291299819946
0.251989990472793579 -0.119865201413631439 0.467900127172470093
-0.483361572027206421 0.333407431840896606 0.559457480907440186
-0.375912994146347046 0.157900393009185791 0.525382339954376221
-0.2401123046875 -0.0252968836575746536 0.537072181701660156
-0.309087127447128296 0.35313907265663147 0.651058375835418701
-0.170588180422782898 0.214380159974098206 0.595861375331878662
-0.068018592894077301 0.0853755399584770203 0.494758129119873047
-0.0763397216796875 0.288754880428314209 0.614692509174346924
-0.08744049072265625 0.0617035664618015289 0.574714243412017822
0.064595542848110199 -0.0526524148881435394 0.600811958312988281
3 0 1 2
3 1 3 4
3 2 1 4
3 3 5 6
3 4 3 6
3 5 7 6
3 0 8 9
3 1 0 9
3 9 10 1
3 1 10 3
3 10 11 3
3 3 11 5
3 5 11 12
3 7 5 12
3 8 13 14
3 9 8 14
3 14 15 9
3 9 15 10
3 15 16 10
3 10 16 11
3 11 16 17
3 12 11 17
3 14 13 18
3 15 14 18
3 19 15 18
3 16 15 19
3 20 16 19
3 16 20 17
3 21 22 23
3 22 24 25
3 23 22 25
3 24 26 27
3 25 24 27
3 26 28 27
3 29 30 31
3 2 22 21
3 0 2 21
3 0 21 31
3 0 31 30
3 4 22 2
3 24 22 4
3 6 24 4
3 26 24 6
3 26 32 28
3 6 32 26
3 6 33 32
3 6 7 33
3 33 34 32
3 29 35 36
3 30 29 36
3 36 0 30
3 8 0 36
3 12 33 7
3 37 33 12
3 33 37 38
3 34 33 38
3 35 39 40
3 36 35 40
3 40 8 36
3 13 8 40
3 17 37 12
3 41 37 17
3 37 41 42
3 38 37 42
3 40 39 43
3 43 44 45
3 40 43 45
3 40 45 18
3 40 18 13
3 18 46 19
3 45 46 18
3 19 47 20
3 46 47 19
3 48 49 41
3 47 48 41
3 47 41 17
3 47 17 20
3 41 49 42
3 45 44 50
3 46 45 50
3 51 46 50
3 47 46 51
3 52 47 51
3 47 52 48
3 53 21 23
3 54 53 23
3 23 25 54
3 25 55 54
3 25 27 55
3 27 56 55
3 28 57 56
3 27 28 56
3 58 29 31
3 59 58 31
3 31 53 59
3 21 53 31
3 60 28 32
3 57 28 60
3 34 61 60
3 32 34 60
3 35 29 62
3 62 29 58
3 38 63 34
3 63 61 34
3 39 35 64
3 64 35 62
3 42 65 38
3 65 63 38
3 66 43 39
3 64 66 39
3 44 66 67
3 43 66 44
3 68 49 48
3 69 49 68
3 49 69 65
3 42 49 65
3 70 50 44
3 67 70 44
3 50 70 51
3 51 70 71
3 51 71 52
3 52 71 72
3 52 72 68
3 48 52 68
3 73 53 54
3 74 73 54
3 54 55 74
3 55 75 74
3 55 56 75
3 56 76 75
3 57 77 76
3 56 57 76
3 78 58 59
3 79 78 59
3 59 73 79
3 53 73 59
3 80 57 60
3 77 57 80
3 61 81 80
3 60 61 80
3 62 58 82
3 82 58 78
3 63 83 61
3 83 81 61
3 64 62 84
3 84 62 82
3 65 85 63
3 85 83 63
3 86 66 64
3 84 86 64
3 67 86 87
3 66 86 67
3 88 69 68
3 89 69 88
3 69 89 85
3 65 69 85
3 90 70 67
3 87 90 67
3 70 90 71
3 71 90 91
3 71 91 72
3 72 91 92
3 72 92 88
3 68 72 88
3 73 74 93
3 74 75 94
3 93 74 94
3 75 76 95
3 94 75 95
3 76 77 95
3 78 79 96
3 97 93 98
3 96 93 97
3 96 73 93
3 96 79 73
3 94 98 93
3 99 98 94
3 95 99 94
3 100 99 95
3 100 101 102
3 95 101 100
3 95 80 101
3 95 77 80
3 80 81 101
3 82 78 96
3 103 82 96
3 96 104 103
3 97 104 96
3 102 105 106
3 101 105 102
3 105 101 81
3 83 105 81
3 84 82 103
3 107 84 103
3 103 108 107
3 104 108 103
3 106 109 110
3 105 109 106
3 109 105 83
3 85 109 83
3 86 84 107
3 107 108 111
3 86 107 111
3 86 111 112
3 86 112 87
3 112 113 114
3 111 113 112
3 114 115 116
3 113 115 114
3 89 110 109
3 88 110 89
3 88 115 110
3 88 116 115
3 89 109 85
3 90 87 112
3 91 90 112
3 114 91 112
3 92 91 114
3 116 92 114
3 92 116 88
3 97 98 117
3 98 99 118
3 117 98 118
3 99 100 119
3 118 99 119
3 100 102 119
3 104 97 117
3 120 104 117
3 120 117 121
3 117 118 121
3 121 118 122
3 118 119 122
3 122 119 102
3 106 122 102
3 108 104 120
3 123 108 120
3 123 120 124
3 120 121 124
3 124 121 125
3 121 122 125
3 125 122 106
3 110 125 106
3 111 108 123
3 113 111 123
3 124 113 123
3 115 113 124
3 125 115 124
3 115 125 110
