ply
format ascii 1.0
comment VCGLIB generated
element vertex 126
property float x
property float y
property float z
element face 248
property list uchar int vertex_indices
end_header
-0.40003204345703125 0.126577481627464294 -0.410490840673446655
-0.405253082513809204 0.157575622200965881 -0.523942291736602783
-0.52333831787109375 0.132502719759941101 -0.441708087921142578
-0.322165161371231079 -0.0567526482045650482 -0.495271533727645874
-0.382069915533065796 -0.0494381599128246307 -0.401379436254501343
-0.150786086916923523 -0.041632678359746933 -0.349077701568603516
-0.203032180666923523 0.025176437571644783 -0.295541137456893921
-0.144234970211982727 -0.0971807613968849182 -0.249763011932373047
-0.224116012454032898 0.219450756907463074 -0.337804943323135376
-0.187330886721611023 0.224789083003997803 -0.438744872808456421
-0.115325927734375 0.0144208520650863647 -0.456265777349472046
-0.02661895751953125 -0.194086149334907532 -0.437138408422470093
-0.015522003173828125 -0.24980415403842926 -0.33552899956703186
-0.0466868095099925995 0.307399541139602661 -0.242115974426269531
0.00985209178179502487 0.304004579782485962 -0.339145034551620483
0.087640129029750824 0.0841356739401817322 -0.379935890436172485
0.176595047116279602 -0.127809539437294006 -0.394981056451797485
0.195822402834892273 -0.209174513816833496 -0.321495532989501953
0.09273529052734375 0.292278140783309937 -0.264180988073348999
0.195964813232421875 0.111672081053256989 -0.33404889702796936
0.269528716802597046 -0.099282480776309967 -0.335911601781845093
-0.597277343273162842 0.153791680932044983 -0.160342052578926086
-0.6023712158203125 0.0877436399459838867 -0.279735416173934937
-0.643765747547149658 0.0513333640992641449 -0.163100078701972961
-0.468692779541015625 -0.097856670618057251 -0.265054702758789062
-0.441707611083984375 -0.0668640881776809692 -0.178863048553466797
-0.251290649175643921 -0.140298262238502502 -0.248721122741699219
-0.2747039794921875 -0.201940909028053284 -0.167109012603759766
-0.168633773922920227 -0.197024062275886536 -0.154639884829521179
-0.386819213628768921 0.165149211883544922 -0.127506569027900696
-0.387722015380859375 0.130521968007087708 -0.231198787689208984
-0.42967987060546875 0.24931490421295166 -0.156156226992607117
-0.137648269534111023 -0.0887489542365074158 -0.00802580546587705612
-0.04555511474609375 -0.0895464196801185608 -0.0968139991164207458
-0.128451034426689148 -0.152472242712974548 -0.101500511169433594
-0.235312148928642273 0.0114815868437290192 -0.120162166655063629
-0.185718536376953125 0.0600805096328258514 -0.219853401184082031
-0.0178705845028162003 -0.301459550857543945 -0.157176494598388672
-0.00721104955300688744 -0.330100804567337036 -0.0410110168159008026
-0.0312105808407068253 0.109102129936218262 -0.0724712982773780823
-0.094277702271938324 0.211646243929862976 -0.0896984711289405823
0.207949325442314148 -0.308737665414810181 -0.171836376190185547
0.217618301510810852 -0.32851526141166687 -0.0693661347031593323
-0.00688680028542876244 0.183346971869468689 -0.00245984387584030628
0.157324478030204773 0.161874458193778992 -0.0687397345900535583
0.214773818850517273 0.261912018060684204 -0.130452632904052734
0.204193115234375 0.0434800535440444946 -0.168560504913330078
0.394521087408065796 -0.0604040957987308502 -0.212984398007392883
0.436360687017440796 -0.162910535931587219 -0.134667083621025085
0.317996978759765625 -0.283919811248779297 -0.0848169326782226562
0.112036384642124176 0.263203352689743042 -0.0894993171095848083
0.261469513177871704 0.0931411460041999817 -0.089914955198764801
0.330380767583847046 -0.113570548593997955 -0.139771297574043274
-0.609263122081756592 0.175136759877204895 0.0520790405571460724
-0.5847320556640625 0.0589924193918704987 0.0611906051635742188
-0.404641479253768921 0.0621002651751041412 -0.0400296859443187714
-0.347329467535018921 -0.143881544470787048 0.0294508934020996094
-0.257387787103652954 -0.216200783848762512 0.0483352355659008026
-0.348636627197265625 0.226934149861335754 0.073741912841796875
-0.446478515863418579 0.214147195219993591 0.0756425857543945312
-0.097591400146484375 -0.255533516407012939 0.127569675445556641
-0.195017501711845398 -0.204601600766181946 0.106912292540073395
-0.274579375982284546 0.015682535246014595 0.128519371151924133
0.0100682573392987251 -0.243600249290466309 0.171383216977119446
-0.0456186942756175995 0.0369369871914386749 0.120041050016880035
0.23177337646484375 -0.241770192980766296 0.141714096069335938
0.0348688773810863495 0.0761392936110496521 0.17754538357257843
0.053050994873046875 0.255448997020721436 0.117018222808837891
0.439554840326309204 -0.0639740005135536194 0.0622280426323413849
0.335489898920059204 -0.210480645298957825 0.126870155334472656
0.156313583254814148 0.302465140819549561 0.12563498318195343
0.23084259033203125 0.0798218920826911926 0.121896743774414062
0.42916107177734375 0.0398258715867996216 0.00476090097799897194
-0.599835693836212158 0.147162452340126038 0.292058467864990234
-0.509328186511993408 0.132571086287498474 0.276040881872177124
-0.360089629888534546 0.176437079906463623 0.112035907804965973
-0.216897323727607727 0.0110044442117214203 0.113752365112304688
-0.164577484130859375 -0.0233258996158838272 0.0297509822994470596
-0.356044769287109375 0.325756937265396118 0.280355304479598999
-0.4222259521484375 0.234573110938072205 0.292433410882949829
-0.0317815132439136505 -0.0380964837968349457 0.156974002718925476
-0.124118804931640625 -0.0022191337775439024 0.168696090579032898
-0.21343994140625 0.138162970542907715 0.314601749181747437
0.0221544895321130753 -0.0623758621513843536 0.302967697381973267
-0.0206438694149255753 0.0668757930397987366 0.319734573364257812
0.247342422604560852 -0.0923209488391876221 0.316361755132675171
-0.092259727418422699 0.139625892043113708 0.343496173620223999
0.0388806648552417755 0.263719409704208374 0.34545135498046875
0.44628143310546875 -0.000190745806321501732 0.264433383941650391
0.343198150396347046 -0.12750716507434845 0.344712734222412109
0.140167236328125 0.294927150011062622 0.33756747841835022
0.303941100835800171 0.284777551889419556 0.173003032803535461
0.40360260009765625 0.0952619835734367371 0.221531227231025696
-0.50878143310546875 0.0365175679326057434 0.314636856317520142
-0.339649200439453125 0.0915527567267417908 0.159780338406562805
-0.293917328119277954 -0.0816665887832641602 0.0804831162095069885
-0.38523101806640625 0.306961089372634888 0.391827911138534546
-0.281363159418106079 0.172816097736358643 0.397077083587646484
-0.424925476312637329 0.190449655055999756 0.411933422088623047
-0.270966857671737671 0.140777572989463806 0.288377135992050171
-0.231970474123954773 -0.0751383975148200989 0.226770877838134766
-0.0548032112419605255 0.0978930294513702393 0.152282401919364929
-0.171527862548828125 0.0359352417290210724 0.284841060638427734
-0.23619842529296875 0.237910553812980652 0.277945995330810547
-0.087624870240688324 0.276930451393127441 0.33897748589515686
0.09748077392578125 0.0247802343219518661 0.282298415899276733
0.004695892333984375 -0.113311938941478729 0.255060344934463501
-0.05905914306640625 0.0934316739439964294 0.209730625152587891
0.0541407279670238495 0.286264926195144653 0.175555706024169922
0.249650314450263977 -0.0414003022015094757 0.396402359008789062
0.135239914059638977 0.031416725367307663 0.257360607385635376
0.149720504879951477 0.198512420058250427 0.164618968963623047
0.0618298836052417755 0.322402238845825195 0.223556205630302429
0.15100860595703125 0.147284850478172302 -0.0361450500786304474
0.229136154055595398 0.251648098230361938 0.0973927155137062073
0.17432403564453125 -0.00580194359645247459 0.142581775784492493
0.341412872076034546 0.0488866157829761505 0.149156093597412109
-0.328596740961074829 0.272210389375686646 0.399972587823867798
-0.186403915286064148 0.133746623992919922 0.340391635894775391
-0.149288177490234375 -0.0779311656951904297 0.283322662115097046
-0.17037200927734375 0.281813532114028931 0.247595787048339844
0.0190289821475744247 0.231895163655281067 0.294593960046768188
0.066453300416469574 -0.0101437028497457504 0.310987949371337891
-0.00817616749554872513 0.205322757363319397 0.160280227661132812
0.144234970211982727 0.229748114943504333 0.0727518424391746521
0.237761184573173523 0.0309084579348564148 0.21551513671875
3 0 1 2
3 1 3 4
3 2 1 4
3 3 5 6
3 4 3 6
3 5 7 6
3 0 8 9
3 1 0 9
3 9 10 1
3 1 10 3
3 10 11 3
3 3 11 5
3 5 11 12
3 7 5 12
3 8 13 14
3 9 8 14
3 14 15 9
3 9 15 10
3 15 16 10
3 10 16 11
3 11 16 17
3 12 11 17
3 14 13 18
3 15 14 18
3 19 15 18
3 16 15 19
3 20 16 19
3 16 20 17
3 21 22 23
3 22 24 25
3 23 22 25
3 24 26 27
3 25 24 27
3 26 28 27
3 29 30 31
3 2 22 21
3 0 2 21
3 0 21 31
3 0 31 30
3 4 22 2
3 24 22 4
3 6 24 4
3 26 24 6
3 26 32 28
3 6 32 26
3 6 33 32
3 6 7 33
3 33 34 32
3 29 35 36
3 30 29 36
3 36 0 30
3 8 0 36
3 12 33 7
3 37 33 12
3 33 37 38
3 34 33 38
3 35 39 40
3 36 35 40
3 40 8 36
3 13 8 40
3 17 37 12
3 41 37 17
3 37 41 42
3 38 37 42
3 40 39 43
3 43 44 45
3 40 43 45
3 40 45 18
3 40 18 13
3 18 46 19
3 45 46 18
3 19 47 20
3 46 47 19
3 48 49 41
3 47 48 41
3 47 41 17
3 47 17 20
3 41 49 42
3 45 44 50
3 46 45 50
3 51 46 50
3 47 46 51
3 52 47 51
3 47 52 48
3 53 21 23
3 54 53 23
3 23 25 54
3 25 55 54
3 25 27 55
3 27 56 55
3 28 57 56
3 27 28 56
3 58 29 31
3 59 58 31
3 31 53 59
3 21 53 31
3 60 28 32
3 57 28 60
3 34 61 60
3 32 34 60
3 35 29 62
3 62 29 58
3 38 63 34
3 63 61 34
3 39 35 64
3 64 35 62
3 42 65 38
3 65 63 38
3 66 43 39
3 64 66 39
3 44 66 67
3 43 66 44
3 68 49 48
3 69 49 68
3 49 69 65
3 42 49 65
3 70 50 44
3 67 70 44
3 50 70 51
3 51 70 71
3 51 71 52
3 52 71 72
3 52 72 68
3 48 52 68
3 73 53 54
3 74 73 54
3 54 55 74
3 55 75 74
3 55 56 75
3 56 76 75
3 57 77 76
3 56 57 76
3 78 58 59
3 79 78 59
3 59 73 79
3 53 73 59
3 80 57 60
3 77 57 80
3 61 81 80
3 60 61 80
3 62 58 82
3 82 58 78
3 63 83 61
3 83 81 61
3 64 62 84
3 84 62 82
3 65 85 63
3 85 83 63
3 86 66 64
3 84 86 64
3 67 86 87
3 66 86 67
3 88 69 68
3 89 69 88
3 69 89 85
3 65 69 85
3 90 70 67
3 87 90 67
3 70 90 71
3 71 90 91
3 71 91 72
3 72 91 92
3 72 92 88
3 68 72 88
3 73 74 93
3 74 75 94
3 93 74 94
3 75 76 95
3 94 75 95
3 76 77 95
3 78 79 96
3 97 93 98
3 96 93 97
3 96 73 93
3 96 79 73
3 94 98 93
3 99 98 94
3 95 99 94
3 100 99 95
3 100 101 102
3 95 101 100
3 95 80 101
3 95 77 80
3 80 81 101
3 82 78 96
3 103 82 96
3 96 104 103
3 97 104 96
3 102 105 106
3 101 105 102
3 105 101 81
3 83 105 81
3 84 82 103
3 107 84 103
3 103 108 107
3 104 108 103
3 106 109 110
3 105 109 106
3 109 105 83
3 85 109 83
3 86 84 107
3 107 108 111
3 86 107 111
3 86 111 112
3 86 112 87
3 112 113 114
3 111 113 112
3 114 115 116
3 113 115 114
3 89 110 109
3 88 110 89
3 88 115 110
3 88 116 115
3 89 109 85
3 90 87 112
3 91 90 112
3 114 91 112
3 92 91 114
3 116 92 114
3 92 116 88
3 97 98 117
3 98 99 118
3 117 98 118
3 99 100 119
3 118 99 119
3 100 102 119
3 104 97 117
3 120 104 117
3 120 117 121
3 117 118 121
3 121 118 122
3 118 119 122
3 122 119 102
3 106 122 102
3 108 104 120
3 123 108 120
3 123 120 124
3 120 121 124
3 124 121 125
3 121 122 125
3 125 122 106
3 110 125 106
3 111 108 123
3 113 111 123
3 124 113 123
3 115 113 124
3 125 115 124
3 115 125 110
