ply
format ascii 1.0
comment VCGLIB generated
element vertex 126
property float x
property float y
property float z
element face 248
property list uchar int vertex_indices
end_header
-0.15800340473651886 0.316106528043746948 -0.397590070962905884
-0.152725487947463989 0.226262912154197693 -0.463254451751708984
-0.253847658634185791 0.213662564754486084 -0.424037158489227295
-0.143816813826560974 0.0112528884783387184 -0.53397214412689209
-0.207554951310157776 -0.0056802527979016304 -0.441015273332595825
-0.0840037241578102112 -0.0796174034476280212 -0.325754374265670776
-0.0441987179219722748 -0.0263013299554586411 -0.298073470592498779
-0.0431060791015625 -0.1151885986328125 -0.196668252348899841
-0.0174031946808099747 0.216922938823699951 -0.253183841705322266
0.00405039126053452492 0.14129793643951416 -0.32991376519203186
0.0808783918619155884 0.00919723976403474808 -0.492494285106658936
0.0757544413208961487 -0.195784375071525574 -0.438161253929138184
0.0699983313679695129 -0.268692612648010254 -0.363508820533752441
0.167258128523826599 0.327278733253479004 -0.316864937543869019
0.20122392475605011 0.235946059226989746 -0.371206313371658325
0.290483742952346802 0.0334048159420490265 -0.412852257490158081
0.280094146728515625 -0.175454899668693542 -0.329123049974441528
0.296519160270690918 -0.277303099632263184 -0.31889796257019043
0.29292789101600647 0.272269219160079956 -0.328283995389938354
0.365213662385940552 0.0557909049093723297 -0.341801464557647705
0.385499686002731323 -0.169100001454353333 -0.310760557651519775
-0.397487372159957886 0.286630809307098389 -0.199545115232467651
-0.378006547689437866 0.188703328371047974 -0.29944726824760437
-0.363472521305084229 0.188427507877349854 -0.186398714780807495
-0.32893863320350647 -0.00721199112012982368 -0.281190365552902222
-0.357734143733978271 -0.0361639149487018585 -0.193315401673316956
-0.147893086075782776 -0.0574783682823181152 -0.132722347974777222
-0.164839878678321838 -0.166770905256271362 -0.144212245941162109
-0.0534112118184566498 -0.151453495025634766 -0.122131109237670898
-0.219048097729682922 0.502568364143371582 -0.188829228281974792
-0.185386121273040771 0.443855196237564087 -0.271618366241455078
-0.301000058650970459 0.434128701686859131 -0.193677127361297607
0.0130762374028563499 -0.299074500799179077 -0.152370929718017578
-0.13557298481464386 -0.25384172797203064 -0.181797578930854797
-0.0854519456624984741 -0.347905963659286499 -0.203675031661987305
-0.0625065416097640991 0.419247835874557495 -0.0508339069783687592
-0.04474639892578125 0.34065738320350647 -0.128845319151878357
0.0665460303425788879 -0.342156320810317993 -0.201245725154876709
0.110966823995113373 -0.236272111535072327 -0.239528253674507141
0.122385025024414062 0.528534591197967529 -0.112993888556957245
0.12882232666015625 0.46105465292930603 -0.204547137022018433
0.283043742179870605 -0.374886304140090942 -0.153348445892333984
0.262967526912689209 -0.28714028000831604 -0.0757122039794921875
0.223283767700195312 0.487993568181991577 -0.110496968030929565
0.356359481811523438 0.374786555767059326 -0.0893424227833747864
0.396608620882034302 0.286720484495162964 -0.181827038526535034
0.412487298250198364 0.0660650283098220825 -0.174883261322975159
0.476739078760147095 -0.134955033659934998 -0.160861864686012268
0.472841262817382812 -0.207273811101913452 -0.0535874702036380768
0.3243255615234375 -0.240222468972206116 -0.147226706147193909
0.40372169017791748 0.280869960784912109 -0.0674215406179428101
0.322843283414840698 0.0730242356657981873 -0.118132658302783966
0.462619245052337646 -0.0908460766077041626 -0.0714741423726081848
-0.427608489990234375 0.292216122150421143 0.0247231554239988327
-0.448647916316986084 0.182440638542175293 0.0258728433400392532
-0.409257084131240845 -0.0288450885564088821 0.0254506729543209076
-0.272790372371673584 -0.198654130101203918 0.00718048634007573128
-0.19317626953125 -0.276819050312042236 -0.00675320625305175781
-0.282268524169921875 0.542626321315765381 0.0281468462198972702
-0.333449512720108032 0.440780103206634521 0.0297377798706293106
-0.102751597762107849 -0.395184725522994995 0.0324017666280269623
-0.0237764641642570496 -0.439341813325881958 0.00408019358292222023
-0.0668375864624977112 0.607262909412384033 0.0662975683808326721
0.168576925992965698 -0.328973740339279175 -0.0498175621032714844
0.154576987028121948 0.601685404777526855 0.100073814392089844
0.211153030395507812 -0.114068806171417236 0.0393850468099117279
0.238293245434761047 0.530526340007781982 0.108362950384616852
0.225647523999214172 0.346200674772262573 0.104455947875976562
0.347306400537490845 -0.176826238632202148 0.131935909390449524
0.282614588737487793 -0.0519933439791202545 -0.0143340658396482468
0.303767085075378418 0.280747473239898682 0.132372215390205383
0.218895509839057922 0.0771295279264450073 0.078821524977684021
0.308380126953125 -0.117620602250099182 0.0583214424550533295
-0.457067489624023438 0.297792792320251465 0.249318912625312805
-0.48035895824432373 0.186938047409057617 0.252526313066482544
-0.388798028230667114 -0.024338865652680397 0.252300173044204712
-0.240301415324211121 -0.184007197618484497 0.223713263869285583
-0.159880772233009338 -0.255222976207733154 0.220084875822067261
-0.282730370759963989 0.51326596736907959 0.266975671052932739
-0.367593765258789062 0.445674628019332886 0.258534640073776245
0.0190653130412101746 -0.289053678512573242 0.195192620158195496
-0.03978729248046875 -0.245368078351020813 0.142572954297065735
-0.0603185407817363739 0.502976417541503906 0.247139424085617065
0.188744410872459412 -0.275984346866607666 0.158994540572166443
0.141342714428901672 0.564933836460113525 0.319767177104949951
0.39597785472869873 -0.217188403010368347 0.107298068702220917
0.24021148681640625 0.517152190208435059 0.326190859079360962
0.288318902254104614 0.352894872426986694 0.319395065307617188
0.545364141464233398 -0.073080800473690033 0.136611118912696838
0.449222832918167114 -0.183653518557548523 0.0241535063832998276
0.268226355314254761 0.250520259141921997 0.346047371625900269
0.384321212768554688 0.170385733246803284 0.184124365448951721
0.465041577816009521 -0.0262679532170295715 0.199432209134101868
-0.422220230102539062 0.214515775442123413 0.348515182733535767
-0.353033900260925293 2.25149306061211973e-05 0.358033686876296997
-0.193800255656242371 -0.176363661885261536 0.326706677675247192
-0.28943336009979248 0.491479635238647461 0.376059859991073608
-0.211478650569915771 0.359784841537475586 0.465719014406204224
-0.310911446809768677 0.274408936500549316 0.459317833185195923
-0.203075408935546875 0.0859138667583465576 0.409207522869110107
-0.167536050081253052 -0.0375947095453739166 0.216726064682006836
0.0328499935567378998 -0.201496511697769165 0.0960992053151130676
-0.0921794325113296509 -0.162470802664756775 0.204261720180511475
-0.0863211527466773987 0.465120524168014526 0.330364525318145752
0.00311034079641103745 0.401447921991348267 0.451017469167709351
0.206383302807807922 -0.197406008839607239 0.219557121396064758
0.105119436979293823 -0.06494159996509552 0.268848806619644165
0.13153076171875 0.464254319667816162 0.384255141019821167
0.153467997908592224 0.299733608961105347 0.300987273454666138
0.343035280704498291 -0.105301059782505035 0.0678598880767822266
0.2397918701171875 0.0125671075657010078 0.130668193101882935
0.216150283813476562 0.199267208576202393 0.361307680606842041
0.362544745206832886 0.283466368913650513 0.410589486360549927
0.290918350219726562 0.203006267547607422 0.154021978378295898
0.466233670711517334 0.235223367810249329 0.210523098707199097
0.317660748958587646 0.00265104393474757671 0.243898287415504456
0.45257568359375 0.0361053943634033203 0.117554157972335815
-0.236617505550384521 0.314329028129577637 0.375882387161254883
-0.152743205428123474 0.12468632310628891 0.329019695520401001
-0.0929042249917984009 -0.0900616049766540527 0.280459612607955933
-0.0253391265869140625 0.300820440053939819 0.444727301597595215
0.0454262346029281616 0.219882071018218994 0.258555769920349121
0.0956671610474586487 0.00338429724797606468 0.200557544827461243
0.102292470633983612 0.191237568855285645 0.329545915126800537
0.263156890869140625 0.263694196939468384 0.246633470058441162
0.304723471403121948 0.0691641420125961304 0.152401924133300781
3 0 1 2
3 1 3 4
3 2 1 4
3 3 5 6
3 4 3 6
3 5 7 6
3 0 8 9
3 1 0 9
3 9 10 1
3 1 10 3
3 10 11 3
3 3 11 5
3 5 11 12
3 7 5 12
3 8 13 14
3 9 8 14
3 14 15 9
3 9 15 10
3 15 16 10
3 10 16 11
3 11 16 17
3 12 11 17
3 14 13 18
3 15 14 18
3 19 15 18
3 16 15 19
3 20 16 19
3 16 20 17
3 21 22 23
3 22 24 25
3 23 22 25
3 24 26 27
3 25 24 27
3 26 28 27
3 29 30 31
3 2 22 21
3 0 2 21
3 0 21 31
3 0 31 30
3 4 22 2
3 24 22 4
3 6 24 4
3 26 24 6
3 26 32 28
3 6 32 26
3 6 33 32
3 6 7 33
3 33 34 32
3 29 35 36
3 30 29 36
3 36 0 30
3 8 0 36
3 12 33 7
3 37 33 12
3 33 37 38
3 34 33 38
3 35 39 40
3 36 35 40
3 40 8 36
3 13 8 40
3 17 37 12
3 41 37 17
3 37 41 42
3 38 37 42
3 40 39 43
3 43 44 45
3 40 43 45
3 40 45 18
3 40 18 13
3 18 46 19
3 45 46 18
3 19 47 20
3 46 47 19
3 48 49 41
3 47 48 41
3 47 41 17
3 47 17 20
3 41 49 42
3 45 44 50
3 46 45 50
3 51 46 50
3 47 46 51
3 52 47 51
3 47 52 48
3 53 21 23
3 54 53 23
3 23 25 54
3 25 55 54
3 25 27 55
3 27 56 55
3 28 57 56
3 27 28 56
3 58 29 31
3 59 58 31
3 31 53 59
3 21 53 31
3 60 28 32
3 57 28 60
3 34 61 60
3 32 34 60
3 35 29 62
3 62 29 58
3 38 63 34
3 63 61 34
3 39 35 64
3 64 35 62
3 42 65 38
3 65 63 38
3 66 43 39
3 64 66 39
3 44 66 67
3 43 66 44
3 68 49 48
3 69 49 68
3 49 69 65
3 42 49 65
3 70 50 44
3 67 70 44
3 50 70 51
3 51 70 71
3 51 71 52
3 52 71 72
3 52 72 68
3 48 52 68
3 73 53 54
3 74 73 54
3 54 55 74
3 55 75 74
3 55 56 75
3 56 76 75
3 57 77 76
3 56 57 76
3 78 58 59
3 79 78 59
3 59 73 79
3 53 73 59
3 80 57 60
3 77 57 80
3 61 81 80
3 60 61 80
3 62 58 82
3 82 58 78
3 63 83 61
3 83 81 61
3 64 62 84
3 84 62 82
3 65 85 63
3 85 83 63
3 86 66 64
3 84 86 64
3 67 86 87
3 66 86 67
3 88 69 68
3 89 69 88
3 69 89 85
3 65 69 85
3 90 70 67
3 87 90 67
3 70 90 71
3 71 90 91
3 71 91 72
3 72 91 92
3 72 92 88
3 68 72 88
3 73 74 93
3 74 75 94
3 93 74 94
3 75 76 95
3 94 75 95
3 76 77 95
3 78 79 96
3 97 93 98
3 96 93 97
3 96 73 93
3 96 79 73
3 94 98 93
3 99 98 94
3 95 99 94
3 100 99 95
3 100 101 102
3 95 101 100
3 95 80 101
3 95 77 80
3 80 81 101
3 82 78 96
3 103 82 96
3 96 104 103
3 97 104 96
3 102 105 106
3 101 105 102
3 105 101 81
3 83 105 81
3 84 82 103
3 107 84 103
3 103 108 107
3 104 108 103
3 106 109 110
3 105 109 106
3 109 105 83
3 85 109 83
3 86 84 107
3 107 108 111
3 86 107 111
3 86 111 112
3 86 112 87
3 112 113 114
3 111 113 112
3 114 115 116
3 113 115 114
3 89 110 109
3 88 110 89
3 88 115 110
3 88 116 115
3 89 109 85
3 90 87 112
3 91 90 112
3 114 91 112
3 92 91 114
3 116 92 114
3 92 116 88
3 97 98 117
3 98 99 118
3 117 98 118
3 99 100 119
3 118 99 119
3 100 102 119
3 104 97 117
3 120 104 117
3 120 117 121
3 117 118 121
3 121 118 122
3 118 119 122
3 122 119 102
3 106 122 102
3 108 104 120
3 123 108 120
3 123 120 124
3 120 121 124
3 124 121 125
3 121 122 125
3 125 122 106
3 110 125 106
3 111 108 123
3 113 111 123
3 124 113 123
3 115 113 124
3 125 115 124
3 115 125 110
