ply
format ascii 1.0
comment VCGLIB generated
element vertex 126
property float x
property float y
property float z
element face 248
property list uchar int vertex_indices
end_header
-0.156220033764839172 0.318605214357376099 -0.397854030132293701
-0.153869897127151489 0.227408453822135925 -0.464797019958496094
-0.256938934326171875 0.226104304194450378 -0.421093374490737915
-0.141586571931838989 0.00974764768034219742 -0.515704154968261719
-0.233774185180664062 -0.0036363240797072649 -0.429719001054763794
-0.105075836181640625 -0.126110509037971497 -0.359964042901992798
-0.041408538818359375 -0.0419834740459918976 -0.300646692514419556
-0.0878579318523406982 -0.142027527093887329 -0.284576088190078735
-0.0143854962661862373 0.213825151324272156 -0.258145153522491455
0.00585283571854233742 0.14147631824016571 -0.336784482002258301
0.0814546868205070496 0.00563337001949548721 -0.497846603393554688
0.0936876013875007629 -0.214161619544029236 -0.433715254068374634
0.0836699381470680237 -0.290513962507247925 -0.36167299747467041
0.171045571565628052 0.321258723735809326 -0.316417902708053589
0.208065852522850037 0.234201923012733459 -0.372041463851928711
0.288384318351745605 0.0315708518028259277 -0.418928861618041992
0.284298479557037354 -0.177684605121612549 -0.330644160509109497
0.306948244571685791 -0.287456750869750977 -0.314672172069549561
0.296960562467575073 0.267368614673614502 -0.320467442274093628
0.368287235498428345 0.0563620403409004211 -0.345818161964416504
0.385427474975585938 -0.167290151119232178 -0.311625361442565918
-0.406683534383773804 0.283701777458190918 -0.195902928709983826
-0.381028324365615845 0.197706952691078186 -0.294777512550354004
-0.369464337825775146 0.17925243079662323 -0.185916930437088013
-0.303603589534759521 -0.0291853565722703934 -0.282602995634078979
-0.386191785335540771 -0.0363106988370418549 -0.199406489729881287
-0.160583764314651489 -0.0892602428793907166 -0.123481243848800659
-0.200263440608978271 -0.171564012765884399 -0.166182175278663635
-0.111030854284763336 -0.182832628488540649 -0.147881686687469482
-0.225708827376365662 0.502892732620239258 -0.190484359860420227
-0.188312530517578125 0.441912263631820679 -0.273155838251113892
-0.303927838802337646 0.427234470844268799 -0.194251716136932373
0.0231538508087396622 -0.304006785154342651 -0.153151750564575195
-0.133577078580856323 -0.29314345121383667 -0.177297934889793396
-0.0782871246337890625 -0.344977676868438721 -0.214931294322013855
-0.0628566741943359375 0.417640507221221924 -0.0557906292378902435
-0.0459725521504878998 0.338643789291381836 -0.133666142821311951
0.0561114735901355743 -0.326802253723144531 -0.189984366297721863
0.0961140245199203491 -0.230321183800697327 -0.236858978867530823
0.12175288051366806 0.526745855808258057 -0.116651915013790131
0.130397260189056396 0.457390695810317993 -0.207514762878417969
0.267538338899612427 -0.37285614013671875 -0.161638766527175903
0.260981142520904541 -0.300633341073989868 -0.0843191146850585938
0.220847815275192261 0.486143022775650024 -0.107835359871387482
0.36144256591796875 0.377229541540145874 -0.0802591890096664429
0.394946515560150146 0.2850189208984375 -0.171799317002296448
0.411089509725570679 0.0631952807307243347 -0.167695119976997375
0.47039031982421875 -0.137426957488059998 -0.160334452986717224
0.470233649015426636 -0.216222509741783142 -0.0515580177307128906
0.322070807218551636 -0.23771919310092926 -0.153449267148971558
0.400762557983398438 0.277285337448120117 -0.0619467683136463165
0.316940039396286011 0.0693103671073913574 -0.115118369460105896
0.454034805297851562 -0.0978393852710723877 -0.0692858025431632996
-0.433252900838851929 0.292183578014373779 0.0259423255920410156
-0.457910805940628052 0.182658866047859192 0.0246397089213132858
-0.38394927978515625 -0.0307605136185884476 0.0370250418782234192
-0.316588550806045532 -0.241438597440719604 0.00628931215032935143
-0.233275547623634338 -0.298532366752624512 0.00752704497426748276
-0.282121390104293823 0.541175127029418945 0.0259498190134763718
-0.337576180696487427 0.444225072860717773 0.0260972976684570312
-0.108789719641208649 -0.377069324254989624 0.0390950292348861694
-0.0307001397013664246 -0.412463217973709106 -0.0164181850850582123
-0.0644683837890625 0.606900990009307861 0.0667508989572525024
0.170060575008392334 -0.321374863386154175 -0.0561506412923336029
0.15346527099609375 0.599501252174377441 0.097466200590133667
0.212545394897460938 -0.110111512243747711 0.0247175358235836029
0.228300094604492188 0.529446125030517578 0.110483169555664062
0.210234776139259338 0.348736852407455444 0.0972044467926025391
0.353768229484558105 -0.183785602450370789 0.128050357103347778
0.302603602409362793 -0.0563865862786769867 -0.0169958397746086121
0.283125460147857666 0.272892981767654419 0.124084271490573883
0.218602597713470459 0.0728240534663200378 0.0817479416728019714
0.296565473079681396 -0.126503884792327881 0.0807392597198486328
-0.453307300806045532 0.303582370281219482 0.245691880583763123
-0.47185218334197998 0.183764725923538208 0.247892320156097412
-0.391422003507614136 -0.0299424603581428528 0.257281064987182617
-0.251188278198242188 -0.196014121174812317 0.228671014308929443
-0.168169572949409485 -0.257493913173675537 0.219385966658592224
-0.288761675357818604 0.522223412990570068 0.252492606639862061
-0.368821293115615845 0.465653806924819946 0.251660168170928955
0.00531469099223613739 -0.290233701467514038 0.20513075590133667
-0.0484561920166015625 -0.238243415951728821 0.137349709868431091
-0.0656059831380844116 0.50123298168182373 0.255576729774475098
0.171210423111915588 -0.259800970554351807 0.149380475282669067
0.140451699495315552 0.566407442092895508 0.320097893476486206
0.399299353361129761 -0.214068025350570679 0.117786787450313568
0.238146111369132996 0.519601821899414062 0.327368646860122681
0.273853033781051636 0.347039759159088135 0.322743147611618042
0.550993502140045166 -0.0765040218830108643 0.135526835918426514
0.44940948486328125 -0.179228916764259338 0.0263326521962881088
0.257117420434951782 0.250783175230026245 0.340263843536376953
0.396464228630065918 0.154587328433990479 0.19290277361869812
0.468066096305847168 -0.0410252213478088379 0.200871407985687256
-0.428446382284164429 0.207269921898841858 0.341885596513748169
-0.340523034334182739 0.000796865555457770824 0.359034031629562378
-0.200198039412498474 -0.166350781917572021 0.323814660310745239
-0.285570979118347168 0.48832392692565918 0.368591219186782837
-0.213715687394142151 0.355316817760467529 0.463827848434448242
-0.299475550651550293 0.26599159836769104 0.461694866418838501
-0.20183427631855011 0.0951545089483261108 0.411966025829315186
-0.176595956087112427 -0.0339026637375354767 0.214371174573898315
0.038890838623046875 -0.199961304664611816 0.0979244709014892578
-0.0902257636189460754 -0.14874953031539917 0.191173553466796875
-0.0856849104166030884 0.461055189371109009 0.338599860668182373
-0.00729969562962651253 0.406624346971511841 0.457471460103988647
0.201386049389839172 -0.200266391038894653 0.224253624677658081
0.111165732145309448 -0.0643099322915077209 0.270877242088317871
0.136974886059761047 0.471925109624862671 0.390071719884872437
0.15819413959980011 0.313018530607223511 0.316861867904663086
0.344281882047653198 -0.104223437607288361 0.0700788870453834534
0.242112025618553162 0.00119954196270555258 0.138285338878631592
0.208896920084953308 0.200975075364112854 0.356660753488540649
0.361140131950378418 0.277742952108383179 0.403553098440170288
0.297831118106842041 0.201336324214935303 0.151682242751121521
0.476029276847839355 0.226425111293792725 0.214135825634002686
0.31842505931854248 0.00292332656681537628 0.251730501651763916
0.440534859895706177 0.0221951920539140701 0.107873000204563141
-0.2336883544921875 0.314111500978469849 0.374765068292617798
-0.150329053401947021 0.120132587850093842 0.329367786645889282
-0.100141257047653198 -0.0827866941690444946 0.274550914764404297
-0.0365529730916023254 0.308225542306900024 0.441622734069824219
0.05352020263671875 0.221386641263961792 0.257038384675979614
0.0978211015462875366 0.0124718109145760536 0.19900067150592804
0.105870112776756287 0.203314006328582764 0.332133442163467407
0.264426648616790771 0.267308503389358521 0.246376827359199524
0.301776617765426636 0.0718768909573554993 0.144647702574729919
3 0 1 2
3 1 3 4
3 2 1 4
3 3 5 6
3 4 3 6
3 5 7 6
3 0 8 9
3 1 0 9
3 9 10 1
3 1 10 3
3 10 11 3
3 3 11 5
3 5 11 12
3 7 5 12
3 8 13 14
3 9 8 14
3 14 15 9
3 9 15 10
3 15 16 10
3 10 16 11
3 11 16 17
3 12 11 17
3 14 13 18
3 15 14 18
3 19 15 18
3 16 15 19
3 20 16 19
3 16 20 17
3 21 22 23
3 22 24 25
3 23 22 25
3 24 26 27
3 25 24 27
3 26 28 27
3 29 30 31
3 2 22 21
3 0 2 21
3 0 21 31
3 0 31 30
3 4 22 2
3 24 22 4
3 6 24 4
3 26 24 6
3 26 32 28
3 6 32 26
3 6 33 32
3 6 7 33
3 33 34 32
3 29 35 36
3 30 29 36
3 36 0 30
3 8 0 36
3 12 33 7
3 37 33 12
3 33 37 38
3 34 33 38
3 35 39 40
3 36 35 40
3 40 8 36
3 13 8 40
3 17 37 12
3 41 37 17
3 37 41 42
3 38 37 42
3 40 39 43
3 43 44 45
3 40 43 45
3 40 45 18
3 40 18 13
3 18 46 19
3 45 46 18
3 19 47 20
3 46 47 19
3 48 49 41
3 47 48 41
3 47 41 17
3 47 17 20
3 41 49 42
3 45 44 50
3 46 45 50
3 51 46 50
3 47 46 51
3 52 47 51
3 47 52 48
3 53 21 23
3 54 53 23
3 23 25 54
3 25 55 54
3 25 27 55
3 27 56 55
3 28 57 56
3 27 28 56
3 58 29 31
3 59 58 31
3 31 53 59
3 21 53 31
3 60 28 32
3 57 28 60
3 34 61 60
3 32 34 60
3 35 29 62
3 62 29 58
3 38 63 34
3 63 61 34
3 39 35 64
3 64 35 62
3 42 65 38
3 65 63 38
3 66 43 39
3 64 66 39
3 44 66 67
3 43 66 44
3 68 49 48
3 69 49 68
3 49 69 65
3 42 49 65
3 70 50 44
3 67 70 44
3 50 70 51
3 51 70 71
3 51 71 52
3 52 71 72
3 52 72 68
3 48 52 68
3 73 53 54
3 74 73 54
3 54 55 74
3 55 75 74
3 55 56 75
3 56 76 75
3 57 77 76
3 56 57 76
3 78 58 59
3 79 78 59
3 59 73 79
3 53 73 59
3 80 57 60
3 77 57 80
3 61 81 80
3 60 61 80
3 62 58 82
3 82 58 78
3 63 83 61
3 83 81 61
3 64 62 84
3 84 62 82
3 65 85 63
3 85 83 63
3 86 66 64
3 84 86 64
3 67 86 87
3 66 86 67
3 88 69 68
3 89 69 88
3 69 89 85
3 65 69 85
3 90 70 67
3 87 90 67
3 70 90 71
3 71 90 91
3 71 91 72
3 72 91 92
3 72 92 88
3 68 72 88
3 73 74 93
3 74 75 94
3 93 74 94
3 75 76 95
3 94 75 95
3 76 77 95
3 78 79 96
3 97 93 98
3 96 93 97
3 96 73 93
3 96 79 73
3 94 98 93
3 99 98 94
3 95 99 94
3 100 99 95
3 100 101 102
3 95 101 100
3 95 80 101
3 95 77 80
3 80 81 101
3 82 78 96
3 103 82 96
3 96 104 103
3 97 104 96
3 102 105 106
3 101 105 102
3 105 101 81
3 83 105 81
3 84 82 103
3 107 84 103
3 103 108 107
3 104 108 103
3 106 109 110
3 105 109 106
3 109 105 83
3 85 109 83
3 86 84 107
3 107 108 111
3 86 107 111
3 86 111 112
3 86 112 87
3 112 113 114
3 111 113 112
3 114 115 116
3 113 115 114
3 89 110 109
3 88 110 89
3 88 115 110
3 88 116 115
3 89 109 85
3 90 87 112
3 91 90 112
3 114 91 112
3 92 91 114
3 116 92 114
3 92 116 88
3 97 98 117
3 98 99 118
3 117 98 118
3 99 100 119
3 118 99 119
3 100 102 119
3 104 97 117
3 120 104 117
3 120 117 121
3 117 118 121
3 121 118 122
3 118 119 122
3 122 119 102
3 106 122 102
3 108 104 120
3 123 108 120
3 123 120 124
3 120 121 124
3 124 121 125
3 121 122 125
3 125 122 106
3 110 125 106
3 111 108 123
3 113 111 123
3 124 113 123
3 115 113 124
3 125 115 124
3 115 125 110
