ply
format ascii 1.0
comment VCGLIB generated
element vertex 126
property float x
property float y
property float z
element face 248
property list uchar int vertex_indices
end_header
-0.168331146240234375 0.237484350800514221 -0.525609195232391357
-0.194021865725517273 0.150796607136726379 -0.428840011358261108
-0.262540191411972046 0.175216794013977051 -0.486215591430664062
-0.175852462649345398 -0.0804042890667915344 -0.392327308654785156
-0.256046295166015625 -0.0665944889187812805 -0.471546977758407593
-0.197780609130859375 -0.302726894617080688 -0.448828697204589844
-0.288682311773300171 -0.296025216579437256 -0.447913318872451782
-0.170628860592842102 -0.350203752517700195 -0.360738903284072876
0.04343414306640625 0.21754378080368042 -0.505319118499755859
0.074206031858921051 0.133076786994934082 -0.392275959253311157
0.0274899806827306747 -0.0797868296504020691 -0.49774584174156189
0.0403683967888355255 -0.286191076040267944 -0.397213935852050781
0.0479914359748363495 -0.385947376489639282 -0.397252410650253296
0.276243835687637329 0.18572622537612915 -0.380584716796875
0.226027175784111023 0.169870510697364807 -0.480520248413085938
0.245522812008857727 -0.0674099922180175781 -0.422230720520019531
0.2666168212890625 -0.289058297872543335 -0.364451557397842407
0.262307494878768921 -0.404590398073196411 -0.394127994775772095
0.353165954351425171 0.141823634505271912 -0.448870658874511719
0.349704742431640625 -0.067051328718662262 -0.420970112085342407
0.328000396490097046 -0.265399336814880371 -0.417346477508544922
-0.415089935064315796 0.242787882685661316 -0.308014065027236938
-0.402512878179550171 0.143062710762023926 -0.398153156042098999
-0.371817260980606079 0.147377669811248779 -0.289974212646484375
-0.430866241455078125 -0.0629262253642082214 -0.363862037658691406
-0.357496887445449829 -0.0699510052800178528 -0.266819477081298828
-0.399865478277206421 -0.244345203042030334 -0.264802783727645874
-0.450887054204940796 -0.274036020040512085 -0.225704357028007507
-0.437090545892715454 -0.385542303323745728 -0.180733680725097656
-0.193993881344795227 0.344090014696121216 -0.368125438690185547
-0.174373626708984375 0.410187005996704102 -0.382225513458251953
-0.29204559326171875 0.418190956115722656 -0.325254291296005249
-0.311923980712890625 -0.510244369506835938 -0.222642898559570312
-0.194609329104423523 -0.537036299705505371 -0.288472980260848999
-0.213237762451171875 -0.495596170425415039 -0.199116230010986328
0.0297648105770349503 0.322849184274673462 -0.310356765985488892
0.0297088623046875 0.384034544229507446 -0.406423896551132202
0.0560938529670238495 -0.474971681833267212 -0.241452857851982117
-0.00177001953125 -0.463396340608596802 -0.144808128476142883
0.233632400631904602 0.322020888328552246 -0.260740906000137329
0.269152313470840454 0.40178874135017395 -0.389666229486465454
0.26593780517578125 -0.459195703268051147 -0.188809394836425781
0.225034072995185852 -0.510867297649383545 -0.0918676033616065979
0.312408447265625 0.4177379310131073 -0.273721367120742798
0.508324921131134033 0.270872563123703003 -0.253518432378768921
0.401948302984237671 0.183411791920661926 -0.256956726312637329
0.381890624761581421 -0.0206063408404588699 -0.220320060849189758
0.430797576904296875 -0.251255929470062256 -0.213318347930908203
0.477719634771347046 -0.320973664522171021 -0.131153106689453125
0.318145751953125 -0.477729678153991699 -0.106010593473911285
0.402548462152481079 0.227215126156806946 -0.177859142422676086
0.382516235113143921 -0.0140400147065520287 -0.145382404327392578
0.415845245122909546 -0.246492922306060791 -0.113799892365932465
-0.4593048095703125 0.293597012758255005 -0.114875160157680511
-0.444619506597518921 0.198601320385932922 -0.0501128844916820526
-0.377207428216934204 -0.0155809186398983002 -0.0413764305412769318
-0.404974609613418579 -0.248434841632843018 -0.0083522796630859375
-0.493623107671737671 -0.361794084310531616 0.0119058294221758842
-0.200789138674736023 0.352675080299377441 -0.114623069763183594
-0.325269073247909546 0.43239322304725647 -0.110449634492397308
-0.317166656255722046 -0.444891095161437988 0.0421959571540355682
-0.225720718502998352 -0.413351625204086304 0.0417621918022632599
0.0108591718599200249 0.389658570289611816 -0.0871891975402832031
-0.0139401750639081001 -0.380123525857925415 0.0748146399855613708
0.221215561032295227 0.433988690376281738 -0.0750379562377929688
0.215789794921875 -0.415647178888320923 0.096312202513217926
0.319669097661972046 0.440428107976913452 -0.0659311637282371521
0.433013916015625 0.333192288875579834 0.00177240371704101562
0.474352508783340454 -0.271593064069747925 0.102223716676235199
0.270249694585800171 -0.349063485860824585 0.105605125427246094
0.544237792491912842 0.224917888641357422 -0.000995159149169921875
0.558308899402618408 -0.0127179548144340515 0.0249883327633142471
0.3949737548828125 -0.191821694374084473 0.111917652189731598
-0.460893005132675171 0.348820775747299194 0.131364032626152039
-0.480269104242324829 0.242110207676887512 0.0800714492797851562
-0.421688079833984375 0.0159682389348745346 0.138258621096611023
-0.449372619390487671 -0.213220834732055664 0.222808361053466797
-0.416283935308456421 -0.271669596433639526 0.193756267428398132
-0.27065277099609375 0.412734270095825195 0.140957042574882507
-0.355565398931503296 0.453037947416305542 0.117227397859096527
-0.313067108392715454 -0.42596590518951416 0.275412708520889282
-0.253551483154296875 -0.436365365982055664 0.276497989892959595
-0.0378163643181324005 0.458473443984985352 0.15530078113079071
-0.0195871982723474503 -0.494858980178833008 0.301507145166397095
0.192745208740234375 0.400196820497512817 0.145193099975585938
0.151165008544921875 -0.340951293706893921 0.339277744293212891
0.276582092046737671 0.497121691703796387 0.167190715670585632
0.454889923334121704 0.367987304925918579 0.214975520968437195
0.435995727777481079 -0.242457672953605652 0.330747127532958984
0.266371399164199829 -0.303239315748214722 0.335734695196151733
0.487496703863143921 0.246579393744468689 0.21006186306476593
0.522558867931365967 0.049917563796043396 0.259046703577041626
0.397983551025390625 -0.166140377521514893 0.359069019556045532
-0.46225738525390625 0.260401219129562378 0.221604824066162109
-0.373704284429550171 0.0457030199468135834 0.240122795104980469
-0.390379577875137329 -0.200844958424568176 0.317156791687011719
-0.272661834955215454 0.452393978834152222 0.266305118799209595
-0.274112701416015625 0.393535703420639038 0.378653198480606079
-0.328486114740371704 0.286611676216125488 0.343965679407119751
-0.321523040533065796 0.0547625161707401276 0.407754570245742798
-0.286734253168106079 -0.165303796529769897 0.449625968933105469
-0.306193023920059204 -0.491995692253112793 0.415261596441268921
-0.273302704095840454 -0.309568464756011963 0.501756131649017334
-0.0349528007209300995 0.480643481016159058 0.228489398956298828
-0.0563290901482105255 0.423216342926025391 0.392859131097793579
-0.072666168212890625 -0.470865100622177124 0.482834577560424805
-0.051975250244140625 -0.252911686897277832 0.457363277673721313
0.236555740237236023 0.446745842695236206 0.273056179285049438
0.143688201904296875 0.273135155439376831 0.376517921686172485
0.202116653323173523 -0.418408840894699097 0.409483760595321655
0.200406387448310852 -0.207386016845703125 0.532832086086273193
0.237450912594795227 0.32146880030632019 0.479001432657241821
0.390230804681777954 0.284978002309799194 0.33059421181678772
0.276770263910293579 0.111717022955417633 0.450736522674560547
0.429472595453262329 0.0651903152465820312 0.327365726232528687
0.234402969479560852 -0.177812695503234863 0.413547992706298828
0.39357757568359375 -0.12442421168088913 0.429620593786239624
-0.261684417724609375 0.29334530234336853 0.410969406366348267
-0.263530731201171875 0.0835474655032157898 0.416767120361328125
-0.273370116949081421 -0.195723816752433777 0.456828922033309937
-0.05513763427734375 0.319091290235519409 0.390136092901229858
-0.067813873291015625 0.0607309155166149139 0.378787994384765625
-0.0606371574103832245 -0.148788243532180786 0.471663624048233032
0.206872299313545227 0.321907192468643188 0.353267669677734375
0.152408599853515625 0.0482537560164928436 0.393968731164932251
0.154493972659111023 -0.174865409731864929 0.475931793451309204
3 0 1 2
3 1 3 4
3 2 1 4
3 3 5 6
3 4 3 6
3 5 7 6
3 0 8 9
3 1 0 9
3 9 10 1
3 1 10 3
3 10 11 3
3 3 11 5
3 5 11 12
3 7 5 12
3 8 13 14
3 9 8 14
3 14 15 9
3 9 15 10
3 15 16 10
3 10 16 11
3 11 16 17
3 12 11 17
3 14 13 18
3 15 14 18
3 19 15 18
3 16 15 19
3 20 16 19
3 16 20 17
3 21 22 23
3 22 24 25
3 23 22 25
3 24 26 27
3 25 24 27
3 26 28 27
3 29 30 31
3 2 22 21
3 0 2 21
3 0 21 31
3 0 31 30
3 4 22 2
3 24 22 4
3 6 24 4
3 26 24 6
3 26 32 28
3 6 32 26
3 6 33 32
3 6 7 33
3 33 34 32
3 29 35 36
3 30 29 36
3 36 0 30
3 8 0 36
3 12 33 7
3 37 33 12
3 33 37 38
3 34 33 38
3 35 39 40
3 36 35 40
3 40 8 36
3 13 8 40
3 17 37 12
3 41 37 17
3 37 41 42
3 38 37 42
3 40 39 43
3 43 44 45
3 40 43 45
3 40 45 18
3 40 18 13
3 18 46 19
3 45 46 18
3 19 47 20
3 46 47 19
3 48 49 41
3 47 48 41
3 47 41 17
3 47 17 20
3 41 49 42
3 45 44 50
3 46 45 50
3 51 46 50
3 47 46 51
3 52 47 51
3 47 52 48
3 53 21 23
3 54 53 23
3 23 25 54
3 25 55 54
3 25 27 55
3 27 56 55
3 28 57 56
3 27 28 56
3 58 29 31
3 59 58 31
3 31 53 59
3 21 53 31
3 60 28 32
3 57 28 60
3 34 61 60
3 32 34 60
3 35 29 62
3 62 29 58
3 38 63 34
3 63 61 34
3 39 35 64
3 64 35 62
3 42 65 38
3 65 63 38
3 66 43 39
3 64 66 39
3 44 66 67
3 43 66 44
3 68 49 48
3 69 49 68
3 49 69 65
3 42 49 65
3 70 50 44
3 67 70 44
3 50 70 51
3 51 70 71
3 51 71 52
3 52 71 72
3 52 72 68
3 48 52 68
3 73 53 54
3 74 73 54
3 54 55 74
3 55 75 74
3 55 56 75
3 56 76 75
3 57 77 76
3 56 57 76
3 78 58 59
3 79 78 59
3 59 73 79
3 53 73 59
3 80 57 60
3 77 57 80
3 61 81 80
3 60 61 80
3 62 58 82
3 82 58 78
3 63 83 61
3 83 81 61
3 64 62 84
3 84 62 82
3 65 85 63
3 85 83 63
3 86 66 64
3 84 86 64
3 67 86 87
3 66 86 67
3 88 69 68
3 89 69 88
3 69 89 85
3 65 69 85
3 90 70 67
3 87 90 67
3 70 90 71
3 71 90 91
3 71 91 72
3 72 91 92
3 72 92 88
3 68 72 88
3 73 74 93
3 74 75 94
3 93 74 94
3 75 76 95
3 94 75 95
3 76 77 95
3 78 79 96
3 97 93 98
3 96 93 97
3 96 73 93
3 96 79 73
3 94 98 93
3 99 98 94
3 95 99 94
3 100 99 95
3 100 101 102
3 95 101 100
3 95 80 101
3 95 77 80
3 80 81 101
3 82 78 96
3 103 82 96
3 96 104 103
3 97 104 96
3 102 105 106
3 101 105 102
3 105 101 81
3 83 105 81
3 84 82 103
3 107 84 103
3 103 108 107
3 104 108 103
3 106 109 110
3 105 109 106
3 109 105 83
3 85 109 83
3 86 84 107
3 107 108 111
3 86 107 111
3 86 111 112
3 86 112 87
3 112 113 114
3 111 113 112
3 114 115 116
3 113 115 114
3 89 110 109
3 88 110 89
3 88 115 110
3 88 116 115
3 89 109 85
3 90 87 112
3 91 90 112
3 114 91 112
3 92 91 114
3 116 92 114
3 92 116 88
3 97 98 117
3 98 99 118
3 117 98 118
3 99 100 119
3 118 99 119
3 100 102 119
3 104 97 117
3 120 104 117
3 120 117 121
3 117 118 121
3 121 118 122
3 118 119 122
3 122 119 102
3 106 122 102
3 108 104 120
3 123 108 120
3 123 120 124
3 120 121 124
3 124 121 125
3 121 122 125
3 125 122 106
3 110 125 106
3 111 108 123
3 113 111 123
3 124 113 123
3 115 113 124
3 125 115 124
3 115 125 110
