ply
format ascii 1.0
comment VCGLIB generated
element vertex 126
property float x
property float y
property float z
element face 248
property list uchar int vertex_indices
end_header
-0.187447860836982727 0.110892906785011292 -0.538123011589050293
-0.166360527276992798 0.0917537957429885864 -0.428856790065765381
-0.218598037958145142 0.0062475954182446003 -0.455357819795608521
-0.173864364624023438 -0.137175843119621277 -0.399114459753036499
-0.0938033983111381531 -0.128684327006340027 -0.324754714965820312
-0.158850342035293579 -0.241516217589378357 -0.19972403347492218
-0.145176246762275696 -0.337517023086547852 -0.248535856604576111
-0.162377357482910156 -0.313029676675796509 -0.113674595952033997
0.0164286289364099503 0.153173550963401794 -0.456335723400115967
0.0463088341057300568 0.046770092099905014 -0.468283474445343018
0.0384839363396167755 -0.123363517224788666 -0.322959214448928833
0.0332117080688476562 -0.340367347002029419 -0.265159398317337036
0.0142542514950037003 -0.422182768583297729 -0.189149171113967896
0.216735199093818665 0.189986139535903931 -0.364019453525543213
0.218316704034805298 0.0858793333172798157 -0.328322052955627441
0.263727486133575439 -0.133628338575363159 -0.319283008575439453
0.249972328543663025 -0.324099808931350708 -0.199381500482559204
0.227530792355537415 -0.396353602409362793 -0.120034016668796539
0.326226532459259033 0.107304409146308899 -0.338653504848480225
0.263131439685821533 -0.0759144648909568787 -0.225027590990066528
0.267604172229766846 -0.265890985727310181 -0.105841353535652161
-0.336701065301895142 0.108353443443775177 -0.239441379904747009
-0.216615989804267883 0.128293126821517944 -0.320546805858612061
-0.219648674130439758 0.121879003942012787 -0.222980767488479614
-0.220982223749160767 -0.0616994984447956085 -0.230838850140571594
-0.127973556518554688 -0.0649712234735488892 -0.162118673324584961
-0.126873642206192017 -0.220219776034355164 -0.122466281056404114
-0.222860962152481079 -0.262663900852203369 -0.0939645320177078247
-0.176970154047012329 -0.360620439052581787 -0.0797414779663085938
-0.122847549617290497 0.0390013121068477631 -0.264575481414794922
-0.150470733642578125 0.0793681815266609192 -0.375377506017684937
-0.175674751400947571 0.110652245581150055 -0.249704912304878235
-0.117448166012763977 -0.399683475494384766 0.0812079459428787231
-0.204251602292060852 -0.45556303858757019 -0.00966668128967285156
-0.227316215634346008 -0.381580621004104614 0.0742417573928833008
-0.108849205076694489 0.280248045921325684 -0.262179762125015259
-0.0478331223130226135 0.273691713809967041 -0.351200103759765625
-0.0435050316154956818 -0.306075066328048706 -0.0672201290726661682
-0.0129063921049237251 -0.305236011743545532 0.0397181510925292969
0.0858783721923828125 0.180792197585105896 -0.255351245403289795
0.138548210263252258 0.271486788988113403 -0.224027425050735474
0.150804519653320312 -0.348864972591400146 0.0316439047455787659
0.202237755060195923 -0.26703992486000061 -0.0246645994484424591
0.158605575561523438 0.140872746706008911 -0.182760953903198242
0.314404159784317017 0.212828949093818665 -0.234591752290725708
0.432952225208282471 0.151074975728988647 -0.202111199498176575
0.344028472900390625 -0.0141177801415324211 -0.0783447399735450745
0.428573280572891235 -0.221098572015762329 -0.0402110815048217773
0.341038703918457031 -0.248110115528106689 -0.14240601658821106
0.194633796811103821 -0.345545858144760132 -0.101586177945137024
0.377597779035568237 0.226316958665847778 -0.144968420267105103
0.446534126996994019 0.0195069834589958191 -0.0963209047913551331
0.444350212812423706 -0.202450171113014221 -0.146719008684158325
-0.327420234680175781 0.152435317635536194 -0.0114377336576581001
-0.203571304678916931 0.215865790843963623 -0.0260732565075159073
-0.177276924252510071 0.023445451632142067 0.0567603074014186859
-0.231912925839424133 -0.184372365474700928 0.112030498683452606
-0.261144638061523438 -0.209967955946922302 0.0241615362465381622
-0.117735855281352997 0.072260834276676178 -0.0302642565220594406
-0.159284263849258423 0.175986006855964661 -0.0369924306869506836
-0.111625984311103821 -0.164827167987823486 0.0689907819032669067
-0.229090049862861633 -0.157666429877281189 0.0638361722230911255
-0.108726814389228821 0.287046253681182861 -0.0415821857750415802
-0.0837993621826171875 -0.152711853384971619 -0.107774928212165833
0.0975338593125343323 0.209103018045425415 -0.0341794863343238831
0.128808021545410156 -0.114818878471851349 -0.17302095890045166
0.124939277768135071 0.315164297819137573 -0.0464953966438770294
0.29438018798828125 0.261226832866668701 -0.0163517389446496964
0.286588668823242188 -0.102469086647033691 0.0193915758281946182
0.130678802728652954 -0.1356707364320755 -0.0635502710938453674
0.200147613883018494 0.206482976675033569 -0.0114178657531738281
0.226796463131904602 0.0234750192612409592 -0.133493736386299133
0.24567762017250061 -0.182082444429397583 -0.0439051762223243713
-0.304352432489395142 0.238913759589195251 0.200903609395027161
-0.370362579822540283 0.237595632672309875 0.131978988647460938
-0.316799461841583252 0.146046459674835205 0.316565215587615967
-0.384545296430587769 -0.0881350412964820862 0.214617446064949036
-0.276433616876602173 -0.10398390144109726 0.267189323902130127
-0.0895531922578811646 0.0643352940678596497 0.184204176068305969
-0.162719085812568665 0.13658575713634491 0.18285214900970459
-0.109210006892681122 -0.126038253307342529 0.288448125123977661
-0.0656843185424804688 -0.151165515184402466 0.21919606626033783
-0.107514061033725739 0.298508018255233765 0.186793595552444458
0.0724156647920608521 -0.0718865171074867249 0.0433808565139770508
0.109575584530830383 0.241260021924972534 0.186279803514480591
0.0951878204941749573 0.101241670548915863 -0.128039911389350891
0.10094006359577179 0.350621461868286133 0.173676997423171997
0.18842218816280365 0.190855070948600769 0.170266628265380859
0.357850372791290283 0.00905676092952489853 -0.161671832203865051
0.188064560294151306 0.0586401820182800293 -0.160785511136054993
0.263619422912597656 0.104963697493076324 0.176456168293952942
0.0983762666583061218 0.0889018550515174866 0.0320398807525634766
0.253248214721679688 0.026164742186665535 -0.123930171132087708
-0.397327721118927002 0.188986405730247498 0.249722391366958618
-0.220019012689590454 0.086901448667049408 0.290903836488723755
-0.367093086242675781 -0.0989634320139884949 0.347445189952850342
-0.112775161862373352 0.0750566571950912476 0.297839224338531494
-0.160242706537246704 0.247541934251785278 0.319707781076431274
-0.286288261413574219 0.31138908863067627 0.342921614646911621
-0.236312538385391235 0.11049778014421463 0.434346586465835571
-0.192591339349746704 -0.107737690210342407 0.393277794122695923
-0.112942054867744446 -0.155736953020095825 0.145270824432373047
-0.140070915222167969 -0.0488333553075790405 0.281550467014312744
-0.104363754391670227 0.297540813684463501 0.299044430255889893
-0.0245809536427259445 0.299824386835098267 0.14210064709186554
0.0102170305326581001 0.00910603348165750504 0.0496822558343410492
0.012323061004281044 0.101000949740409851 0.204440340399742126
0.0222953148186206818 0.251983106136322021 0.118982985615730286
0.146158531308174133 0.174535095691680908 0.224436312913894653
0.158591270446777344 0.137570291757583618 -0.0486040078103542328
0.219319656491279602 0.0993480756878852844 0.11108814924955368
0.20287671685218811 0.0538270957767963409 0.178443580865859985
0.315759956836700439 0.184067785739898682 0.122980467975139618
0.148054748773574829 0.0188015289604663849 -0.037463504821062088
0.124707214534282684 0.191888391971588135 0.00828444957733154297
0.31907239556312561 0.0041248248890042305 0.107696846127510071
0.31304517388343811 0.0833414047956466675 -0.0526356659829616547
-0.24380047619342804 0.254725217819213867 0.251537352800369263
-0.245377212762832642 0.0558586716651916504 0.334903597831726074
-0.0838120728731155396 -0.0855268463492393494 0.373214870691299438
-0.0724347382783889771 0.202591463923454285 0.109737910330295563
-0.0840139389038085938 -0.0130751058459281921 0.17612755298614502
0.0703732147812843323 0.0734189450740814209 0.307163596153259277
0.0959984436631202698 0.0804853811860084534 0.198919370770454407
0.08941650390625 -0.0540769770741462708 0.0204817447811365128
0.237213760614395142 0.0114531628787517548 0.175199896097183228
3 0 1 2
3 1 3 4
3 2 1 4
3 3 5 6
3 4 3 6
3 5 7 6
3 0 8 9
3 1 0 9
3 9 10 1
3 1 10 3
3 10 11 3
3 3 11 5
3 5 11 12
3 7 5 12
3 8 13 14
3 9 8 14
3 14 15 9
3 9 15 10
3 15 16 10
3 10 16 11
3 11 16 17
3 12 11 17
3 14 13 18
3 15 14 18
3 19 15 18
3 16 15 19
3 20 16 19
3 16 20 17
3 21 22 23
3 22 24 25
3 23 22 25
3 24 26 27
3 25 24 27
3 26 28 27
3 29 30 31
3 2 22 21
3 0 2 21
3 0 21 31
3 0 31 30
3 4 22 2
3 24 22 4
3 6 24 4
3 26 24 6
3 26 32 28
3 6 32 26
3 6 33 32
3 6 7 33
3 33 34 32
3 29 35 36
3 30 29 36
3 36 0 30
3 8 0 36
3 12 33 7
3 37 33 12
3 33 37 38
3 34 33 38
3 35 39 40
3 36 35 40
3 40 8 36
3 13 8 40
3 17 37 12
3 41 37 17
3 37 41 42
3 38 37 42
3 40 39 43
3 43 44 45
3 40 43 45
3 40 45 18
3 40 18 13
3 18 46 19
3 45 46 18
3 19 47 20
3 46 47 19
3 48 49 41
3 47 48 41
3 47 41 17
3 47 17 20
3 41 49 42
3 45 44 50
3 46 45 50
3 51 46 50
3 47 46 51
3 52 47 51
3 47 52 48
3 53 21 23
3 54 53 23
3 23 25 54
3 25 55 54
3 25 27 55
3 27 56 55
3 28 57 56
3 27 28 56
3 58 29 31
3 59 58 31
3 31 53 59
3 21 53 31
3 60 28 32
3 57 28 60
3 34 61 60
3 32 34 60
3 35 29 62
3 62 29 58
3 38 63 34
3 63 61 34
3 39 35 64
3 64 35 62
3 42 65 38
3 65 63 38
3 66 43 39
3 64 66 39
3 44 66 67
3 43 66 44
3 68 49 48
3 69 49 68
3 49 69 65
3 42 49 65
3 70 50 44
3 67 70 44
3 50 70 51
3 51 70 71
3 51 71 52
3 52 71 72
3 52 72 68
3 48 52 68
3 73 53 54
3 74 73 54
3 54 55 74
3 55 75 74
3 55 56 75
3 56 76 75
3 57 77 76
3 56 57 76
3 78 58 59
3 79 78 59
3 59 73 79
3 53 73 59
3 80 57 60
3 77 57 80
3 61 81 80
3 60 61 80
3 62 58 82
3 82 58 78
3 63 83 61
3 83 81 61
3 64 62 84
3 84 62 82
3 65 85 63
3 85 83 63
3 86 66 64
3 84 86 64
3 67 86 87
3 66 86 67
3 88 69 68
3 89 69 88
3 69 89 85
3 65 69 85
3 90 70 67
3 87 90 67
3 70 90 71
3 71 90 91
3 71 91 72
3 72 91 92
3 72 92 88
3 68 72 88
3 73 74 93
3 74 75 94
3 93 74 94
3 75 76 95
3 94 75 95
3 76 77 95
3 78 79 96
3 97 93 98
3 96 93 97
3 96 73 93
3 96 79 73
3 94 98 93
3 99 98 94
3 95 99 94
3 100 99 95
3 100 101 102
3 95 101 100
3 95 80 101
3 95 77 80
3 80 81 101
3 82 78 96
3 103 82 96
3 96 104 103
3 97 104 96
3 102 105 106
3 101 105 102
3 105 101 81
3 83 105 81
3 84 82 103
3 107 84 103
3 103 108 107
3 104 108 103
3 106 109 110
3 105 109 106
3 109 105 83
3 85 109 83
3 86 84 107
3 107 108 111
3 86 107 111
3 86 111 112
3 86 112 87
3 112 113 114
3 111 113 112
3 114 115 116
3 113 115 114
3 89 110 109
3 88 110 89
3 88 115 110
3 88 116 115
3 89 109 85
3 90 87 112
3 91 90 112
3 114 91 112
3 92 91 114
3 116 92 114
3 92 116 88
3 97 98 117
3 98 99 118
3 117 98 118
3 99 100 119
3 118 99 119
3 100 102 119
3 104 97 117
3 120 104 117
3 120 117 121
3 117 118 121
3 121 118 122
3 118 119 122
3 122 119 102
3 106 122 102
3 108 104 120
3 123 108 120
3 123 120 124
3 120 121 124
3 124 121 125
3 121 122 125
3 125 122 106
3 110 125 106
3 111 108 123
3 113 111 123
3 124 113 123
3 115 113 124
3 125 115 124
3 115 125 110
