ply
format ascii 1.0
comment VCGLIB generated
element vertex 126
property float x
property float y
property float z
element face 248
property list uchar int vertex_indices
end_header
0.0190569553524255753 -0.046805504709482193 -0.326328277587890625
0.0607007332146167755 -0.0675346106290817261 -0.228818580508232117
-0.0142491655424237251 -0.148458376526832581 -0.23652331531047821
-0.0200958251953125 -0.13749358057975769 -0.0263566970825195312
0.0592931099236011505 -0.208483412861824036 -0.0309227313846349716
0.126466110348701477 -0.205528214573860168 0.130837753415107727
0.0422693900763988495 -0.247335731983184814 0.189899608492851257
0.0483156852424144745 -0.128474816679954529 0.157778099179267883
-0.0168622341006994247 0.159621670842170715 -0.246260643005371094
-0.0173174533993005753 0.122815333306789398 -0.143207550048828125
0.030498504638671875 0.0573383569717407227 0.0627983435988426208
0.076749168336391449 -0.0309616569429636002 0.260474205017089844
0.172391250729560852 -0.0386852994561195374 0.314900070428848267
0.193665817379951477 0.08345843106508255 -0.253064483404159546
0.20368194580078125 0.0893426015973091125 -0.146293476223945618
0.227254226803779602 0.157185599207878113 0.0644211769104003906
0.259379059076309204 0.0973888412117958069 0.281183868646621704
0.266712188720703125 0.10057608038187027 0.171978160738945007
0.2933502197265625 0.141586765646934509 -0.176814869046211243
0.318364471197128296 0.0996224582195281982 0.0406910590827465057
0.366999298334121704 0.123265482485294342 0.26028713583946228
-0.267594665288925171 -0.0383418910205364227 -0.206361770629882812
-0.1380462646484375 -0.0485433824360370636 -0.165898323059082031
-0.225172683596611023 -0.0385061725974082947 -0.0995893478393554688
0.0196215305477380753 -0.030678117647767067 -0.00296163558959960938
-0.070321403443813324 -0.011199084110558033 0.0675358772277832031
-0.0622227974236011505 -0.223398402333259583 0.0513421706855297089
-0.159601852297782898 -0.203055277466773987 0.0105549497529864311
-0.111141204833984375 -0.100955210626125336 0.0145600633695721626
-0.183865860104560852 0.0504240281879901886 -0.451370090246200562
-0.130544021725654602 0.0507354736328125 -0.352393627166748047
-0.249956771731376648 -0.0140234781429171562 -0.388115257024765015
-0.068525947630405426 0.0439987294375896454 0.12377389520406723
0.043071746826171875 0.00798492971807718277 0.0614647865295410156
-0.054843902587890625 -0.0507750771939754486 0.0861045494675636292
-0.016345977783203125 0.195640608668327332 -0.516812801361083984
0.00611241674050688744 0.222185790538787842 -0.413851261138916016
0.0141995744779706001 0.0382740125060081482 0.282094627618789673
0.0126787824556231499 -0.0691483765840530396 0.296004921197891235
0.133336380124092102 0.155232354998588562 -0.353169292211532593
0.196402236819267273 0.102418601512908936 -0.42898145318031311
0.231770828366279602 0.0284528527408838272 0.340420395135879517
0.227687835693359375 -0.0754403993487358093 0.34250369668006897
0.240304306149482727 0.1779908686876297 -0.32435193657875061
0.382937103509902954 0.135611966252326965 -0.220763519406318665
0.402929931879043579 0.00166115863248705864 -0.198822975158691406
0.483773559331893921 0.0370404385030269623 0.009899933822453022
0.5272674560546875 0.0426070205867290497 0.22968117892742157
0.485453277826309204 -0.0512720011174678802 0.325024276971817017
0.316600799560546875 -0.090596221387386322 0.400798320770263672
0.314454406499862671 0.0596675127744674683 -0.169090747833251953
0.39544677734375 -0.0280746463686227798 0.0254548396915197372
0.507352173328399658 -0.0626273676753044128 0.217124462127685547
-0.311097472906112671 0.177616670727729797 -0.184134647250175476
-0.261389404535293579 0.180397272109985352 -0.0836027488112449646
-0.274721771478652954 0.0744275897741317749 0.116650901734828949
-0.32216644287109375 -0.144711226224899292 0.145370319485664368
-0.22757720947265625 -0.169450655579566956 0.193287849426269531
-0.275140136480331421 0.22873222827911377 -0.346849769353866577
-0.374243408441543579 0.178694367408752441 -0.35056576132774353
-0.252643585205078125 -0.000544140988495200872 0.242620781064033508
-0.17633819580078125 0.0798645913600921631 0.220904350280761719
-0.066422782838344574 0.297899842262268066 -0.313851684331893921
0.00981013011187314987 0.150192946195602417 0.328286319971084595
0.136778518557548523 0.352778911590576172 -0.270501762628555298
0.229746505618095398 0.148816391825675964 0.388680458068847656
0.190157577395439148 0.341975003480911255 -0.180904701352119446
0.323352813720703125 0.301805675029754639 -0.0673178061842918396
0.390073150396347046 0.151891931891441345 0.295366764068603516
0.219323471188545227 0.0774775967001914978 0.316540241241455078
0.241161346435546875 0.236054494976997375 -0.0485243797302246094
0.255575805902481079 0.109501801431179047 0.136885479092597961
0.355810791254043579 0.0516598112881183624 0.329820483922958374
-0.436709076166152954 0.347280114889144897 -0.118230022490024567
-0.462579101324081421 0.272283285856246948 -0.0455179214477539062
-0.49707794189453125 0.120732821524143219 0.115853153169155121
-0.368010193109512329 0.0257282350212335587 0.273557662963867188
-0.286412566900253296 -0.00977261457592248917 0.330613613128662109
-0.268622070550918579 0.112502992153167725 -0.152742862701416016
-0.336491912603378296 0.202916279435157776 -0.132950305938720703
-0.130444839596748352 -0.0325371883809566498 0.425980418920516968
-0.240308120846748352 -0.0323593951761722565 0.415212154388427734
-0.06047821044921875 0.137738242745399475 -0.147712066769599915
-0.0343030281364917755 0.0104975448921322823 0.500394105911254883
0.113341011106967926 0.235107243061065674 -0.0630435943603515625
0.19055938720703125 0.0258628427982330322 0.563183307647705078
0.094333648681640625 0.15071462094783783 -0.127352401614189148
0.116579689085483551 0.263539105653762817 0.00958315562456846237
0.359282165765762329 0.222973629832267761 0.508477747440338135
0.30358123779296875 0.0518112778663635254 0.536656320095062256
0.094167076051235199 0.364711165428161621 0.0456401519477367401
0.227755233645439148 0.316697448492050171 0.21831338107585907
0.338803619146347046 0.262003719806671143 0.40524020791053772
-0.457014709711074829 0.36341586709022522 0.019804319366812706
-0.455235809087753296 0.193245589733123779 0.185673072934150696
-0.281592041254043579 0.0399809479713439941 0.198416545987129211
-0.291880279779434204 0.11487945169210434 -0.0445278473198413849
-0.200976058840751648 0.268822044134140015 -0.0410610847175121307
-0.274472564458847046 0.350213915109634399 0.0465267486870288849
-0.339742034673690796 0.305046319961547852 0.266384601593017578
-0.23242950439453125 0.119631558656692505 0.354677200317382812
-0.218301132321357727 -0.141540512442588806 0.442945808172225952
-0.269517272710800171 0.0302007999271154404 0.456636756658554077
-0.114011131227016449 0.229444071650505066 -0.135364532470703125
-0.0178438816219568253 0.145736038684844971 -0.00692256307229399681
-0.000742594420444220304 -0.0818397775292396545 0.441817909479141235
-0.064051307737827301 0.0424254052340984344 0.544949114322662354
0.0519282035529613495 0.144132614135742188 -0.00351381301879882812
0.111372627317905426 0.314000070095062256 0.0403243713080883026
0.209967300295829773 -0.016472717747092247 0.465970844030380249
0.087717689573764801 0.101272620260715485 0.398185580968856812
0.176541641354560852 0.296917229890823364 0.160510227084159851
0.0141474409028887749 0.297690659761428833 0.0937341079115867615
0.095363616943359375 0.199376091361045837 0.34931674599647522
0.194034576416015625 0.21037699282169342 0.205030128359794617
0.19507598876953125 0.0119543569162487984 0.41908612847328186
0.294757843017578125 0.162232965230941772 0.399909824132919312
-0.242612197995185852 0.241582348942756653 0.0531330108642578125
-0.248612716794013977 0.262313276529312134 0.27640533447265625
-0.274279266595840454 0.143587872385978699 0.455778598785400391
-0.0541585274040699005 0.130201563239097595 0.0975906029343605042
-0.0337537117302417755 0.23895774781703949 0.288383156061172485
-0.04986572265625 0.141308695077896118 0.490414142608642578
0.062620796263217926 0.320847392082214355 0.135329082608222961
0.187296554446220398 0.212899461388587952 0.286958217620849609
0.168219253420829773 0.0976925268769264221 0.48211979866027832
3 0 1 2
3 1 3 4
3 2 1 4
3 3 5 6
3 4 3 6
3 5 7 6
3 0 8 9
3 1 0 9
3 9 10 1
3 1 10 3
3 10 11 3
3 3 11 5
3 5 11 12
3 7 5 12
3 8 13 14
3 9 8 14
3 14 15 9
3 9 15 10
3 15 16 10
3 10 16 11
3 11 16 17
3 12 11 17
3 14 13 18
3 15 14 18
3 19 15 18
3 16 15 19
3 20 16 19
3 16 20 17
3 21 22 23
3 22 24 25
3 23 22 25
3 24 26 27
3 25 24 27
3 26 28 27
3 29 30 31
3 2 22 21
3 0 2 21
3 0 21 31
3 0 31 30
3 4 22 2
3 24 22 4
3 6 24 4
3 26 24 6
3 26 32 28
3 6 32 26
3 6 33 32
3 6 7 33
3 33 34 32
3 29 35 36
3 30 29 36
3 36 0 30
3 8 0 36
3 12 33 7
3 37 33 12
3 33 37 38
3 34 33 38
3 35 39 40
3 36 35 40
3 40 8 36
3 13 8 40
3 17 37 12
3 41 37 17
3 37 41 42
3 38 37 42
3 40 39 43
3 43 44 45
3 40 43 45
3 40 45 18
3 40 18 13
3 18 46 19
3 45 46 18
3 19 47 20
3 46 47 19
3 48 49 41
3 47 48 41
3 47 41 17
3 47 17 20
3 41 49 42
3 45 44 50
3 46 45 50
3 51 46 50
3 47 46 51
3 52 47 51
3 47 52 48
3 53 21 23
3 54 53 23
3 23 25 54
3 25 55 54
3 25 27 55
3 27 56 55
3 28 57 56
3 27 28 56
3 58 29 31
3 59 58 31
3 31 53 59
3 21 53 31
3 60 28 32
3 57 28 60
3 34 61 60
3 32 34 60
3 35 29 62
3 62 29 58
3 38 63 34
3 63 61 34
3 39 35 64
3 64 35 62
3 42 65 38
3 65 63 38
3 66 43 39
3 64 66 39
3 44 66 67
3 43 66 44
3 68 49 48
3 69 49 68
3 49 69 65
3 42 49 65
3 70 50 44
3 67 70 44
3 50 70 51
3 51 70 71
3 51 71 52
3 52 71 72
3 52 72 68
3 48 52 68
3 73 53 54
3 74 73 54
3 54 55 74
3 55 75 74
3 55 56 75
3 56 76 75
3 57 77 76
3 56 57 76
3 78 58 59
3 79 78 59
3 59 73 79
3 53 73 59
3 80 57 60
3 77 57 80
3 61 81 80
3 60 61 80
3 62 58 82
3 82 58 78
3 63 83 61
3 83 81 61
3 64 62 84
3 84 62 82
3 65 85 63
3 85 83 63
3 86 66 64
3 84 86 64
3 67 86 87
3 66 86 67
3 88 69 68
3 89 69 88
3 69 89 85
3 65 69 85
3 90 70 67
3 87 90 67
3 70 90 71
3 71 90 91
3 71 91 72
3 72 91 92
3 72 92 88
3 68 72 88
3 73 74 93
3 74 75 94
3 93 74 94
3 75 76 95
3 94 75 95
3 76 77 95
3 78 79 96
3 97 93 98
3 96 93 97
3 96 73 93
3 96 79 73
3 94 98 93
3 99 98 94
3 95 99 94
3 100 99 95
3 100 101 102
3 95 101 100
3 95 80 101
3 95 77 80
3 80 81 101
3 82 78 96
3 103 82 96
3 96 104 103
3 97 104 96
3 102 105 106
3 101 105 102
3 105 101 81
3 83 105 81
3 84 82 103
3 107 84 103
3 103 108 107
3 104 108 103
3 106 109 110
3 105 109 106
3 109 105 83
3 85 109 83
3 86 84 107
3 107 108 111
3 86 107 111
3 86 111 112
3 86 112 87
3 112 113 114
3 111 113 112
3 114 115 116
3 113 115 114
3 89 110 109
3 88 110 89
3 88 115 110
3 88 116 115
3 89 109 85
3 90 87 112
3 91 90 112
3 114 91 112
3 92 91 114
3 116 92 114
3 92 116 88
3 97 98 117
3 98 99 118
3 117 98 118
3 99 100 119
3 118 99 119
3 100 102 119
3 104 97 117
3 120 104 117
3 120 117 121
3 117 118 121
3 121 118 122
3 118 119 122
3 122 119 102
3 106 122 102
3 108 104 120
3 123 108 120
3 123 120 124
3 120 121 124
3 124 121 125
3 121 122 125
3 125 122 106
3 110 125 106
3 111 108 123
3 113 111 123
3 124 113 123
3 115 113 124
3 125 115 124
3 115 125 110
