ply
format ascii 1.0
comment VCGLIB generated
element vertex 126
property float x
property float y
property float z
element face 248
property list uchar int vertex_indices
end_header
-0.3989105224609375 0.120328105986118317 -0.407961040735244751
-0.406133025884628296 0.156575754284858704 -0.523610889911651611
-0.52080535888671875 0.134947344660758972 -0.44533267617225647
-0.322287231683731079 -0.0510695837438106537 -0.498366832733154297
-0.380898803472518921 -0.0506040751934051514 -0.402765601873397827
-0.15345001220703125 -0.0425623655319213867 -0.351280063390731812
-0.204013824462890625 0.0255360584706068039 -0.29526519775390625
-0.144953414797782898 -0.0966235175728797913 -0.25107988715171814
-0.224308013916015625 0.206549093127250671 -0.331932544708251953
-0.187388107180595398 0.224933788180351257 -0.438041210174560547
-0.116097770631313324 0.01720467209815979 -0.453123420476913452
-0.0298296604305505753 -0.192701593041419983 -0.43767818808555603
-0.0200030002743005753 -0.253933578729629517 -0.332709789276123047
-0.044582366943359375 0.306786239147186279 -0.235886886715888977
0.00949605274945497513 0.299530863761901855 -0.341088294982910156
0.088414512574672699 0.0845009461045265198 -0.386247962713241577
0.173414871096611023 -0.124173738062381744 -0.392774730920791626
0.192995712161064148 -0.21251852810382843 -0.323920100927352905
0.094216667115688324 0.296601772308349609 -0.265559196472167969
0.192358657717704773 0.112151257693767548 -0.332064628601074219
0.267480224370956421 -0.0970457419753074646 -0.340106487274169922
-0.592107117176055908 0.148449376225471497 -0.157415226101875305
-0.604153931140899658 0.0862623080611228943 -0.28113064169883728
-0.645669281482696533 0.0562883280217647552 -0.163547515869140625
-0.470095306634902954 -0.100482530891895294 -0.263961315155029297
-0.451633453369140625 -0.0758106783032417297 -0.180021926760673523
-0.24962615966796875 -0.141235575079917908 -0.246998146176338196
-0.276182800531387329 -0.204870358109474182 -0.162908390164375305
-0.168454483151435852 -0.192073538899421692 -0.146809741854667664
-0.386011749505996704 0.166442587971687317 -0.126343414187431335
-0.388234466314315796 0.125027135014533997 -0.226449176669120789
-0.430814117193222046 0.244374796748161316 -0.15954764187335968
-0.140263870358467102 -0.0841368436813354492 -0.00678730010986328125
-0.043880462646484375 -0.0881324708461761475 -0.0975035056471824646
-0.131529495120048523 -0.148237541317939758 -0.0975251197814941406
-0.240001678466796875 0.0135786337777972221 -0.126646995544433594
-0.19191741943359375 0.0545956529676914215 -0.216153144836425781
-0.0216967258602380753 -0.304595321416854858 -0.154464885592460632
-0.00570042943581938744 -0.326049357652664185 -0.0410610847175121307
-0.0262324009090662003 0.1057237908244133 -0.0696433410048484802
-0.090517677366733551 0.202978134155273438 -0.0917684212327003479
0.205108642578125 -0.308418184518814087 -0.170424625277519226
0.216272994875907898 -0.326642841100692749 -0.0637704506516456604
-0.00607172632589936256 0.187514364719390869 0.000474770873552188277
0.152744293212890625 0.159527197480201721 -0.0682514533400535583
0.218084976077079773 0.260345935821533203 -0.131460025906562805
0.193897247314453125 0.0366031043231487274 -0.168598964810371399
0.394124358892440796 -0.0597184039652347565 -0.214217498898506165
0.435581207275390625 -0.163601741194725037 -0.131942436099052429
0.317099243402481079 -0.284961163997650146 -0.0856105461716651917
0.111727394163608551 0.259883254766464233 -0.0959237441420555115
0.259457916021347046 0.0975470468401908875 -0.0976459160447120667
0.331551879644393921 -0.109245531260967255 -0.141086742281913757
-0.615788757801055908 0.18118952214717865 0.0557179450988769531
-0.590677917003631592 0.0609807558357715607 0.0560552291572093964
-0.401315063238143921 0.0617306865751743317 -0.0379554443061351776
-0.348613739013671875 -0.144857227802276611 0.0351176261901855469
-0.252847045660018921 -0.216965556144714355 0.0556934662163257599
-0.346430450677871704 0.224070310592651367 0.0786991119384765625
-0.44925689697265625 0.238429844379425049 0.0744436606764793396
-0.095615386962890625 -0.248492419719696045 0.128573894500732422
-0.196353912353515625 -0.202408790588378906 0.111483894288539886
-0.275821685791015625 0.0203397851437330246 0.12824566662311554
0.0131518049165606499 -0.243494763970375061 0.169327571988105774
-0.044986724853515625 0.0249882731586694717 0.122519016265869141
0.236156463623046875 -0.236162319779396057 0.143540069460868835
0.0347277335822582245 0.0724981352686882019 0.178742095828056335
0.04665374755859375 0.255023807287216187 0.108510337769985199
0.44396209716796875 -0.0623007863759994507 0.0585565567016601562
0.3411865234375 -0.208414241671562195 0.122569404542446136
0.152243301272392273 0.298822402954101562 0.123978771269321442
0.230607345700263977 0.0785580947995185852 0.114497661590576172
0.430516570806503296 0.0392441190779209137 0.0133916540071368217
-0.597606658935546875 0.146243363618850708 0.295026302337646484
-0.509518921375274658 0.134900644421577454 0.275249332189559937
-0.357065826654434204 0.176412031054496765 0.115607261657714844
-0.219493865966796875 0.00968941766768693924 0.115243755280971527
-0.163869217038154602 -0.0210715681314468384 0.0313542671501636505
-0.352130889892578125 0.323876738548278809 0.281991153955459595
-0.421611785888671875 0.230129823088645935 0.294726520776748657
-0.0308736171573400497 -0.0352253280580043793 0.155981853604316711
-0.124299369752407074 0.00314235035330057144 0.167327880859375
-0.215319320559501648 0.136545464396476746 0.315850257873535156
0.025577545166015625 -0.0641398206353187561 0.299345165491104126
-0.0195032749325037003 0.0645502880215644836 0.315322071313858032
0.251679748296737671 -0.0924673900008201599 0.317106872797012329
-0.090872444212436676 0.131568267941474915 0.345419257879257202
0.039226531982421875 0.263281881809234619 0.339349597692489624
0.45075225830078125 0.000683065445628017187 0.259602218866348267
0.342717498540878296 -0.125998392701148987 0.339677959680557251
0.145460769534111023 0.287717849016189575 0.332792282104492188
0.297122955322265625 0.289115995168685913 0.16744549572467804
0.407123565673828125 0.098604150116443634 0.227997943758964539
-0.50533294677734375 0.0371609888970851898 0.312539428472518921
-0.340410858392715454 0.0924147963523864746 0.155958011746406555
-0.293056488037109375 -0.0830911248922348022 0.0783065184950828552
-0.3836212158203125 0.311158716678619385 0.389013141393661499
-0.281513214111328125 0.172929093241691589 0.392267376184463501
-0.425537109375 0.188950002193450928 0.404253005981445312
-0.273365020751953125 0.132849708199501038 0.291526645421981812
-0.242895767092704773 -0.0701969414949417114 0.230244159698486328
-0.0553601570427417755 0.0982254669070243835 0.148222446441650391
-0.167957305908203125 0.0327628366649150848 0.278858989477157593
-0.233339950442314148 0.234020814299583435 0.273566395044326782
-0.092273712158203125 0.27774423360824585 0.33484235405921936
0.100664772093296051 0.0293511506170034409 0.278013229370117188
0.0103327436372637749 -0.115867368876934052 0.251223891973495483
-0.065099082887172699 0.0913182869553565979 0.212644889950752258
0.048908233642578125 0.285315662622451782 0.174624919891357422
0.252104431390762329 -0.0396885946393013 0.397384315729141235
0.135678604245185852 0.0374339111149311066 0.26013946533203125
0.14853668212890625 0.197452425956726074 0.166673824191093445
0.067175544798374176 0.323507696390151978 0.218415424227714539
0.14995574951171875 0.145589947700500488 -0.0351155586540699005
0.237664535641670227 0.25480419397354126 0.0949381217360496521
0.177262619137763977 -0.00846853200346231461 0.142296314239501953
0.347039550542831421 0.0511480681598186493 0.153149917721748352
-0.324078887701034546 0.268610268831253052 0.402140289545059204
-0.191254928708076477 0.135081872344017029 0.341272205114364624
-0.147435501217842102 -0.08069649338722229 0.283987194299697876
-0.17333984375 0.283893674612045288 0.247446849942207336
0.021450042724609375 0.228142336010932922 0.293289810419082642
0.069422401487827301 -0.0110169155523180962 0.312586158514022827
-0.00408808374777436256 0.200255706906318665 0.161086559295654297
0.139975234866142273 0.22852228581905365 0.0698189735412597656
0.238829299807548523 0.0299979951232671738 0.213061168789863586
3 0 1 2
3 1 3 4
3 2 1 4
3 3 5 6
3 4 3 6
3 5 7 6
3 0 8 9
3 1 0 9
3 9 10 1
3 1 10 3
3 10 11 3
3 3 11 5
3 5 11 12
3 7 5 12
3 8 13 14
3 9 8 14
3 14 15 9
3 9 15 10
3 15 16 10
3 10 16 11
3 11 16 17
3 12 11 17
3 14 13 18
3 15 14 18
3 19 15 18
3 16 15 19
3 20 16 19
3 16 20 17
3 21 22 23
3 22 24 25
3 23 22 25
3 24 26 27
3 25 24 27
3 26 28 27
3 29 30 31
3 2 22 21
3 0 2 21
3 0 21 31
3 0 31 30
3 4 22 2
3 24 22 4
3 6 24 4
3 26 24 6
3 26 32 28
3 6 32 26
3 6 33 32
3 6 7 33
3 33 34 32
3 29 35 36
3 30 29 36
3 36 0 30
3 8 0 36
3 12 33 7
3 37 33 12
3 33 37 38
3 34 33 38
3 35 39 40
3 36 35 40
3 40 8 36
3 13 8 40
3 17 37 12
3 41 37 17
3 37 41 42
3 38 37 42
3 40 39 43
3 43 44 45
3 40 43 45
3 40 45 18
3 40 18 13
3 18 46 19
3 45 46 18
3 19 47 20
3 46 47 19
3 48 49 41
3 47 48 41
3 47 41 17
3 47 17 20
3 41 49 42
3 45 44 50
3 46 45 50
3 51 46 50
3 47 46 51
3 52 47 51
3 47 52 48
3 53 21 23
3 54 53 23
3 23 25 54
3 25 55 54
3 25 27 55
3 27 56 55
3 28 57 56
3 27 28 56
3 58 29 31
3 59 58 31
3 31 53 59
3 21 53 31
3 60 28 32
3 57 28 60
3 34 61 60
3 32 34 60
3 35 29 62
3 62 29 58
3 38 63 34
3 63 61 34
3 39 35 64
3 64 35 62
3 42 65 38
3 65 63 38
3 66 43 39
3 64 66 39
3 44 66 67
3 43 66 44
3 68 49 48
3 69 49 68
3 49 69 65
3 42 49 65
3 70 50 44
3 67 70 44
3 50 70 51
3 51 70 71
3 51 71 52
3 52 71 72
3 52 72 68
3 48 52 68
3 73 53 54
3 74 73 54
3 54 55 74
3 55 75 74
3 55 56 75
3 56 76 75
3 57 77 76
3 56 57 76
3 78 58 59
3 79 78 59
3 59 73 79
3 53 73 59
3 80 57 60
3 77 57 80
3 61 81 80
3 60 61 80
3 62 58 82
3 82 58 78
3 63 83 61
3 83 81 61
3 64 62 84
3 84 62 82
3 65 85 63
3 85 83 63
3 86 66 64
3 84 86 64
3 67 86 87
3 66 86 67
3 88 69 68
3 89 69 88
3 69 89 85
3 65 69 85
3 90 70 67
3 87 90 67
3 70 90 71
3 71 90 91
3 71 91 72
3 72 91 92
3 72 92 88
3 68 72 88
3 73 74 93
3 74 75 94
3 93 74 94
3 75 76 95
3 94 75 95
3 76 77 95
3 78 79 96
3 97 93 98
3 96 93 97
3 96 73 93
3 96 79 73
3 94 98 93
3 99 98 94
3 95 99 94
3 100 99 95
3 100 101 102
3 95 101 100
3 95 80 101
3 95 77 80
3 80 81 101
3 82 78 96
3 103 82 96
3 96 104 103
3 97 104 96
3 102 105 106
3 101 105 102
3 105 101 81
3 83 105 81
3 84 82 103
3 107 84 103
3 103 108 107
3 104 108 103
3 106 109 110
3 105 109 106
3 109 105 83
3 85 109 83
3 86 84 107
3 107 108 111
3 86 107 111
3 86 111 112
3 86 112 87
3 112 113 114
3 111 113 112
3 114 115 116
3 113 115 114
3 89 110 109
3 88 110 89
3 88 115 110
3 88 116 115
3 89 109 85
3 90 87 112
3 91 90 112
3 114 91 112
3 92 91 114
3 116 92 114
3 92 116 88
3 97 98 117
3 98 99 118
3 117 98 118
3 99 100 119
3 118 99 119
3 100 102 119
3 104 97 117
3 120 104 117
3 120 117 121
3 117 118 121
3 121 118 122
3 118 119 122
3 122 119 102
3 106 122 102
3 108 104 120
3 123 108 120
3 123 120 124
3 120 121 124
3 124 121 125
3 121 122 125
3 125 122 106
3 110 125 106
3 111 108 123
3 113 111 123
3 124 113 123
3 115 113 124
3 125 115 124
3 115 125 110
