ply
format ascii 1.0
comment VCGLIB generated
element vertex 126
property float x
property float y
property float z
element face 248
property list uchar int vertex_indices
end_header
3.5680701732635498 0.0694501996040344238 -0.550118327140808105
3.64746427536010742 -2.50854482146678492e-05 -0.513816535472869873
3.55623054504394531 -0.0421828515827655792 -0.469030678272247314
3.72553205490112305 -0.145855426788330078 -0.362053781747817993
3.67308354377746582 -0.0936729907989501953 -0.282454043626785278
3.61127495765686035 -0.308703899383544922 -0.25800660252571106
3.51953673362731934 -0.253008216619491577 -0.277237027883529663
3.54161524772644043 -0.377575874328613281 -0.215768814086914062
3.76893305778503418 0.0997846871614456177 -0.44740566611289978
3.71769452095031738 0.138681277632713318 -0.356740087270736694
3.66463565826416016 -0.00830924790352582932 -0.195693314075469971
3.57711434364318848 -0.179618775844573975 -0.0791601687669754028
3.53759574890136719 -0.271380811929702759 -0.0191545486450195312
3.8981940746307373 0.170685261487960815 -0.277641028165817261
3.89618945121765137 0.0690741539001464844 -0.235450044274330139
3.82953453063964844 -0.144505530595779419 -0.260101228952407837
3.76219820976257324 -0.300488173961639404 -0.111097417771816254
3.74149322509765625 -0.360516786575317383 -0.0190806388854980469
3.96828389167785645 0.0580163560807704926 -0.319733619689941406
3.89531397819519043 -0.101465702056884766 -0.183627381920814514
3.80150699615478516 -0.236510813236236572 -0.0309664551168680191
3.38747549057006836 0.0815805867314338684 -0.288901746273040771
3.48667144775390625 0.100542068481445312 -0.385203570127487183
3.43734049797058105 0.173146143555641174 -0.319794505834579468
3.56976580619812012 0.0197249408811330795 -0.192970141768455505
3.47376394271850586 0.0396307669579982758 -0.14354531466960907
3.51097965240478516 -0.182819828391075134 -0.112455971539020538
3.41719532012939453 -0.175525426864624023 -0.167379587888717651
3.41016244888305664 -0.276091068983078003 -0.122132733464241028
3.479461669921875 0.278103440999984741 -0.410247921943664551
3.5222938060760498 0.176634252071380615 -0.413925856351852417
3.38830757141113281 0.21753866970539093 -0.405042827129364014
3.42090606689453125 -0.431180447340011597 -0.0391472466289997101
3.40832281112670898 -0.479985743761062622 -0.158445611596107483
3.3936464786529541 -0.530560731887817383 -0.0520543605089187622
3.68501663208007812 0.36125636100769043 -0.378005266189575195
3.72605586051940918 0.271246045827865601 -0.422286540269851685
3.47148537635803223 -0.435533314943313599 0.0490002185106277466
3.44393301010131836 -0.3392505943775177 0.0521473437547683716
3.88916015625 0.391344785690307617 -0.290259450674057007
3.93351101875305176 0.323890745639801025 -0.365533828735351562
3.66785907745361328 -0.394839376211166382 0.140248209238052368
3.64590191841125488 -0.287160933017730713 0.151059195399284363
3.98913288116455078 0.365285605192184448 -0.247123450040817261
4.10237932205200195 0.237649053335189819 -0.191422149538993835
4.06063747406005859 0.107901185750961304 -0.173258349299430847
3.90761971473693848 0.00469063594937324524 -0.04299120232462883
3.73593926429748535 -0.0961831361055374146 0.0567819848656654358
3.61435627937316895 -0.154106616973876953 0.0271298661828041077
3.5587761402130127 -0.313874214887619019 0.0948736891150474548
4.00225353240966797 0.199991554021835327 -0.163604781031608582
3.83818697929382324 0.0505024269223213196 -0.117138512432575226
3.67502903938293457 -0.0794058367609977722 -0.0322318077087402344
3.257904052734375 0.199273541569709778 -0.147459074854850769
3.29290914535522461 0.29464992880821228 -0.196208521723747253
3.25520586967468262 0.0923593491315841675 -0.119604408740997314
3.25227737426757812 -0.113912098109722137 -0.0265795532613992691
3.25110006332397461 -0.216248571872711182 0.0179518349468708038
3.50164222717285156 0.278088837862014771 -0.19156976044178009
3.39551568031311035 0.295826375484466553 -0.196205258369445801
3.25251317024230957 -0.375081539154052734 0.0941367596387863159
3.3601534366607666 -0.358152657747268677 0.0775742530822753906
3.7168276309967041 0.224516123533248901 -0.203505203127861023
3.44040250778198242 -0.4552154541015625 0.258043676614761353
3.7960970401763916 0.3957977294921875 -0.0838286206126213074
3.52218103408813477 -0.255110949277877808 0.333706885576248169
3.8941643238067627 0.360551953315734863 -0.0426400788128376007
4.00367021560668945 0.225985065102577209 0.0110667403787374496
3.7732384204864502 -0.151101976633071899 0.188872590661048889
3.61720514297485352 -0.202452227473258972 0.280411452054977417
4.08571577072143555 0.160774469375610352 0.042703583836555481
3.98694109916687012 -0.0422148928046226501 0.0272969752550125122
3.82961273193359375 -0.176834866404533386 0.0996867045760154724
3.26710772514343262 0.292426735162734985 0.0572976171970367432
3.26677131652832031 0.387683689594268799 0.00325766461901366711
3.2523500919342041 0.177474856376647949 0.0859748199582099915
3.23039484024047852 -0.0273266900330781937 0.177814096212387085
3.28895378112792969 -0.110426723957061768 0.211033165454864502
3.47005319595336914 0.111207194626331329 -0.0429985746741294861
3.3863985538482666 0.173332139849662781 -0.00317226746119558811
3.28241348266601562 -0.266550272703170776 0.292640388011932373
3.36060094833374023 -0.345020651817321777 0.301678389310836792
3.69544458389282227 0.105841256678104401 -0.0140125099569559097
3.56094861030578613 -0.247038871049880981 0.293778926134109497
3.73983025550842285 0.28866460919380188 0.108810335397720337
3.65452837944030762 -0.352490037679672241 0.474341541528701782
3.80741977691650391 0.360419601202011108 0.161156430840492249
3.93631482124328613 0.256251901388168335 0.224208176136016846
3.88430333137512207 -0.303418666124343872 0.308403968811035156
3.73524045944213867 -0.356268793344497681 0.398661434650421143
4.01271629333496094 0.178879901766777039 0.255546361207962036
4.07844018936157227 -0.0321939662098884583 0.229545503854751587
3.96660184860229492 -0.230651974678039551 0.271571099758148193
3.32789492607116699 0.414892703294754028 0.0904068052768707275
3.26457095146179199 0.21549496054649353 0.184461846947669983
3.25171732902526855 0.0116209201514720917 0.273169815540313721
3.48088693618774414 0.208641678094863892 -0.0957224592566490173
3.57265806198120117 0.347850590944290161 -0.0187368821352720261
3.43680644035339355 0.321284741163253784 -0.0238344874233007431
3.43634676933288574 0.193434730172157288 0.151914894580841064
3.42360234260559082 0.0177013818174600601 0.293847411870956421
3.40719389915466309 -0.253313541412353516 0.349314212799072266
3.49414634704589844 -0.0908985808491706848 0.340129464864730835
3.69713854789733887 0.166362002491950989 -0.108691342175006866
3.71468091011047363 0.197223126888275146 0.0645884573459625244
3.60966587066650391 -0.348396867513656616 0.320379495620727539
3.63625264167785645 -0.19970172643661499 0.215739980340003967
3.80907750129699707 0.308846503496170044 0.0299005061388015747
3.93796563148498535 0.186643034219741821 0.0492802523076534271
3.71691441535949707 -0.252311289310455322 0.491265386343002319
3.63444066047668457 -0.0438302010297775269 0.382460683584213257
3.92496609687805176 0.0707640573382377625 0.116361916065216064
4.03581762313842773 0.204242557287216187 0.148244768381118774
3.84100461006164551 0.0958151146769523621 0.325051635503768921
3.98688912391662598 0.0167956389486789703 0.26193922758102417
3.7207343578338623 -0.0853450000286102295 0.280655950307846069
3.87086343765258789 -0.179774835705757141 0.256923526525497437
3.50650262832641602 0.330047339200973511 0.0714107006788253784
3.48766326904296875 0.113441608846187592 0.104095719754695892
3.52946352958679199 -0.00551651092246174812 0.27710762619972229
3.7157282829284668 0.291594505310058594 -0.000954107788857072592
3.71572995185852051 0.0823386833071708679 0.0823016613721847534
3.68318891525268555 -0.119547761976718903 0.174097582697868347
3.84992241859436035 0.137563541531562805 0.0815484747290611267
3.76022839546203613 0.160766422748565674 0.284602433443069458
3.74909472465515137 -0.0376001857221126556 0.362892806529998779
3 0 1 2
3 1 3 4
3 2 1 4
3 3 5 6
3 4 3 6
3 5 7 6
3 0 8 9
3 1 0 9
3 9 10 1
3 1 10 3
3 10 11 3
3 3 11 5
3 5 11 12
3 7 5 12
3 8 13 14
3 9 8 14
3 14 15 9
3 9 15 10
3 15 16 10
3 10 16 11
3 11 16 17
3 12 11 17
3 14 13 18
3 15 14 18
3 19 15 18
3 16 15 19
3 20 16 19
3 16 20 17
3 21 22 23
3 22 24 25
3 23 22 25
3 24 26 27
3 25 24 27
3 26 28 27
3 29 30 31
3 2 22 21
3 0 2 21
3 0 21 31
3 0 31 30
3 4 22 2
3 24 22 4
3 6 24 4
3 26 24 6
3 26 32 28
3 6 32 26
3 6 33 32
3 6 7 33
3 33 34 32
3 29 35 36
3 30 29 36
3 36 0 30
3 8 0 36
3 12 33 7
3 37 33 12
3 33 37 38
3 34 33 38
3 35 39 40
3 36 35 40
3 40 8 36
3 13 8 40
3 17 37 12
3 41 37 17
3 37 41 42
3 38 37 42
3 40 39 43
3 43 44 45
3 40 43 45
3 40 45 18
3 40 18 13
3 18 46 19
3 45 46 18
3 19 47 20
3 46 47 19
3 48 49 41
3 47 48 41
3 47 41 17
3 47 17 20
3 41 49 42
3 45 44 50
3 46 45 50
3 51 46 50
3 47 46 51
3 52 47 51
3 47 52 48
3 53 21 23
3 54 53 23
3 23 25 54
3 25 55 54
3 25 27 55
3 27 56 55
3 28 57 56
3 27 28 56
3 58 29 31
3 59 58 31
3 31 53 59
3 21 53 31
3 60 28 32
3 57 28 60
3 34 61 60
3 32 34 60
3 35 29 62
3 62 29 58
3 38 63 34
3 63 61 34
3 39 35 64
3 64 35 62
3 42 65 38
3 65 63 38
3 66 43 39
3 64 66 39
3 44 66 67
3 43 66 44
3 68 49 48
3 69 49 68
3 49 69 65
3 42 49 65
3 70 50 44
3 67 70 44
3 50 70 51
3 51 70 71
3 51 71 52
3 52 71 72
3 52 72 68
3 48 52 68
3 73 53 54
3 74 73 54
3 54 55 74
3 55 75 74
3 55 56 75
3 56 76 75
3 57 77 76
3 56 57 76
3 78 58 59
3 79 78 59
3 59 73 79
3 53 73 59
3 80 57 60
3 77 57 80
3 61 81 80
3 60 61 80
3 62 58 82
3 82 58 78
3 63 83 61
3 83 81 61
3 64 62 84
3 84 62 82
3 65 85 63
3 85 83 63
3 86 66 64
3 84 86 64
3 67 86 87
3 66 86 67
3 88 69 68
3 89 69 88
3 69 89 85
3 65 69 85
3 90 70 67
3 87 90 67
3 70 90 71
3 71 90 91
3 71 91 72
3 72 91 92
3 72 92 88
3 68 72 88
3 73 74 93
3 74 75 94
3 93 74 94
3 75 76 95
3 94 75 95
3 76 77 95
3 78 79 96
3 97 93 98
3 96 93 97
3 96 73 93
3 96 79 73
3 94 98 93
3 99 98 94
3 95 99 94
3 100 99 95
3 100 101 102
3 95 101 100
3 95 80 101
3 95 77 80
3 80 81 101
3 82 78 96
3 103 82 96
3 96 104 103
3 97 104 96
3 102 105 106
3 101 105 102
3 105 101 81
3 83 105 81
3 84 82 103
3 107 84 103
3 103 108 107
3 104 108 103
3 106 109 110
3 105 109 106
3 109 105 83
3 85 109 83
3 86 84 107
3 107 108 111
3 86 107 111
3 86 111 112
3 86 112 87
3 112 113 114
3 111 113 112
3 114 115 116
3 113 115 114
3 89 110 109
3 88 110 89
3 88 115 110
3 88 116 115
3 89 109 85
3 90 87 112
3 91 90 112
3 114 91 112
3 92 91 114
3 116 92 114
3 92 116 88
3 97 98 117
3 98 99 118
3 117 98 118
3 99 100 119
3 118 99 119
3 100 102 119
3 104 97 117
3 120 104 117
3 120 117 121
3 117 118 121
3 121 118 122
3 118 119 122
3 122 119 102
3 106 122 102
3 108 104 120
3 123 108 120
3 123 120 124
3 120 121 124
3 124 121 125
3 121 122 125
3 125 122 106
3 110 125 106
3 111 108 123
3 113 111 123
3 124 113 123
3 115 113 124
3 125 115 124
3 115 125 110
