ply
format ascii 1.0
comment VCGLIB generated
element vertex 126
property float x
property float y
property float z
element face 248
property list uchar int vertex_indices
end_header
-0.156938016414642334 0.317051082849502563 -0.397826790809631348
-0.155879437923431396 0.224673032760620117 -0.461886286735534668
-0.254868090152740479 0.216821059584617615 -0.423377752304077148
-0.144454419612884521 0.0122713353484869003 -0.53472977876663208
-0.215361461043357849 -0.00363045302219688892 -0.436373442411422729
-0.0877584740519523621 -0.0896989554166793823 -0.328499078750610352
-0.0440965369343757629 -0.0329109691083431244 -0.299814611673355103
-0.0595147274434566498 -0.114572905004024506 -0.22564871609210968
-0.0164140984416007996 0.216028466820716858 -0.254695594310760498
0.00375611451454460621 0.141944915056228638 -0.332963138818740845
0.0831426903605461121 0.00691467709839344025 -0.493229478597640991
0.08106231689453125 -0.203466609120368958 -0.437505602836608887
0.0755759626626968384 -0.277931243181228638 -0.368679940700531006
0.168279916048049927 0.325392395257949829 -0.316452473402023315
0.203872412443161011 0.235964581370353699 -0.370867937803268433
0.289528727531433105 0.0325866527855396271 -0.415395498275756836
0.282662272453308105 -0.177284881472587585 -0.328020036220550537
0.299805223941802979 -0.28051033616065979 -0.315380960702896118
0.294117242097854614 0.270931035280227661 -0.325229167938232422
0.365789949893951416 0.0552309677004814148 -0.34333723783493042
0.38478580117225647 -0.168708950281143188 -0.311088383197784424
-0.398777574300765991 0.285098135471343994 -0.199110507965087891
-0.378457486629486084 0.190386652946472168 -0.29834476113319397
-0.365375787019729614 0.18643343448638916 -0.186091497540473938
-0.322104871273040771 -0.0138980979099869728 -0.277861177921295166
-0.365149646997451782 -0.0347441695630550385 -0.200329005718231201
-0.152439385652542114 -0.0683218017220497131 -0.127199888229370117
-0.175553739070892334 -0.168672040104866028 -0.146538525819778442
-0.0752408206462860107 -0.159365653991699219 -0.129040658473968506
-0.22117479145526886 0.502463102340698242 -0.1899920254945755
-0.186510086059570312 0.444374650716781616 -0.271512776613235474
-0.301173090934753418 0.432738542556762695 -0.193062007427215576
0.0219835564494132996 -0.300093263387680054 -0.153632506728172302
-0.134439468383789062 -0.26836848258972168 -0.181784629821777344
-0.0835514068603515625 -0.34682658314704895 -0.205972880125045776
-0.0625978186726570129 0.418883949518203735 -0.0522541999816894531
-0.0450488515198230743 0.339618504047393799 -0.130101099610328674
0.0648975372314453125 -0.337665796279907227 -0.196547165513038635
0.106611251831054688 -0.230202659964561462 -0.239079341292381287
0.122361868619918823 0.52793121337890625 -0.114290378987789154
0.12908799946308136 0.460202157497406006 -0.205589026212692261
0.278621405363082886 -0.374818354845046997 -0.154349803924560547
0.260695040225982666 -0.28946349024772644 -0.0779809281229972839
0.222345083951950073 0.487318813800811768 -0.109635591506958008
0.358640134334564209 0.376154571771621704 -0.0869410410523414612
0.396017342805862427 0.286171048879623413 -0.178769484162330627
0.411727100610733032 0.0657246783375740051 -0.172216892242431641
0.473531991243362427 -0.136311978101730347 -0.158866986632347107
0.471700936555862427 -0.211276710033416748 -0.0540343374013900757
0.323984980583190918 -0.239517271518707275 -0.14938780665397644
0.40374755859375 0.279235750436782837 -0.0652422234416007996
0.319125324487686157 0.0718359425663948059 -0.117373466491699219
0.45802798867225647 -0.093741878867149353 -0.0713511854410171509
-0.428503602743148804 0.292736262083053589 0.0247655604034662247
-0.452493935823440552 0.182242736220359802 0.0264143943786621094
-0.402139931917190552 -0.0288093015551567078 0.0310906339436769485
-0.281519204378128052 -0.21103261411190033 0.00232764659449458122
-0.200903758406639099 -0.290416747331619263 -0.0044648987241089344
-0.282787591218948364 0.542423367500305176 0.0259830281138420105
-0.335119783878326416 0.440424084663391113 0.027666604146361351
-0.108678005635738373 -0.388479441404342651 0.0327622890472412109
-0.0244031641632318497 -0.434144318103790283 -0.0022021362092345953
-0.0661209672689437866 0.607097268104553223 0.0665330886840820312
0.167860299348831177 -0.32607567310333252 -0.0514817237854003906
0.154384881258010864 0.601188421249389648 0.0992611497640609741
0.211612164974212646 -0.113133959472179413 0.0345688201487064362
0.236086174845695496 0.530346989631652832 0.108832292258739471
0.219499051570892334 0.346900433301925659 0.101417817175388336
0.351882666349411011 -0.182179957628250122 0.131829634308815002
0.287603646516799927 -0.0508969612419605255 -0.0198280811309814453
0.296530038118362427 0.279066771268844604 0.130440175533294678
0.216836929321289062 0.0750682801008224487 0.0798615366220474243
0.304523199796676636 -0.120456516742706299 0.0632567107677459717
-0.456510275602340698 0.299191951751708984 0.247823342680931091
-0.480796277523040771 0.187091484665870667 0.250807315111160278
-0.39043426513671875 -0.0262283757328987122 0.254861980676651001
-0.244731903076171875 -0.187393605709075928 0.230729073286056519
-0.163823544979095459 -0.255641639232635498 0.221362635493278503
-0.28522220253944397 0.515351414680480957 0.264613807201385498
-0.368352621793746948 0.451886355876922607 0.255771875381469727
0.0150244580581784248 -0.287771642208099365 0.198579013347625732
-0.0419657565653324127 -0.241629675030708313 0.142920702695846558
-0.0615583173930644989 0.5025978684425354 0.249507427215576172
0.182593211531639099 -0.272024482488632202 0.152986899018287659
0.141364514827728271 0.565485298633575439 0.319914489984512329
0.396277576684951782 -0.217747196555137634 0.107440948486328125
0.239022120833396912 0.516828477382659912 0.326443403959274292
0.284554630517959595 0.350261121988296509 0.321974068880081177
0.547804176807403564 -0.0741675868630409241 0.136530399322509766
0.449613839387893677 -0.182691946625709534 0.0247655604034662247
0.264298588037490845 0.250255107879638672 0.344330072402954102
0.390304833650588989 0.164709657430648804 0.187452182173728943
0.464120596647262573 -0.0304821562021970749 0.200462177395820618
-0.425323754549026489 0.213792428374290466 0.345986753702163696
-0.348903119564056396 -0.000284373294562101364 0.359491616487503052
-0.19550187885761261 -0.172942891716957092 0.326699018478393555
-0.288294374942779541 0.492325395345687866 0.376182466745376587
-0.211384639143943787 0.357858330011367798 0.464554339647293091
-0.306427836418151855 0.271190911531448364 0.460705608129501343
-0.202579498291015625 0.0885157659649848938 0.409070611000061035
-0.171529233455657959 -0.0357282198965549469 0.21619848906993866
0.0348772332072257996 -0.201201319694519043 0.0967710390686988831
-0.0923756211996078491 -0.159599736332893372 0.198972404003143311
-0.0872271433472633362 0.464514881372451782 0.333042651414871216
0.00172342581208795309 0.403825491666793823 0.453275948762893677
0.206252515316009521 -0.198470011353492737 0.220426157116889954
0.106111258268356323 -0.0644915029406547546 0.269590109586715698
0.133782804012298584 0.46697765588760376 0.386136263608932495
0.155781343579292297 0.30282217264175415 0.306100666522979736
0.343757361173629761 -0.103418774902820587 0.0675766840577125549
0.240117490291595459 0.00984094012528657913 0.133179768919944763
0.214700698852539062 0.200064361095428467 0.359331369400024414
0.362230032682418823 0.281617283821105957 0.407954961061477661
0.294073641300201416 0.20190119743347168 0.152594879269599915
0.470072895288467407 0.233360335230827332 0.21188923716545105
0.318613052368164062 0.00174015178345143795 0.247520551085472107
0.449134290218353271 0.0334563180804252625 0.110861919820308685
-0.23471832275390625 0.313029944896697998 0.375415772199630737
-0.152465283870697021 0.122844181954860687 0.329301029443740845
-0.0959273800253868103 -0.0870521664619445801 0.278959453105926514
-0.0300039574503898621 0.302316576242446899 0.442681998014450073
0.0488376617431640625 0.220573574304580688 0.258095085620880127
0.0957993119955062866 0.00603644270449876785 0.200537100434303284
0.102701187133789062 0.196798130869865417 0.330701380968093872
0.263462066650390625 0.264817595481872559 0.246503189206123352
0.303485065698623657 0.0701242610812187195 0.149379625916481018
3 0 1 2
3 1 3 4
3 2 1 4
3 3 5 6
3 4 3 6
3 5 7 6
3 0 8 9
3 1 0 9
3 9 10 1
3 1 10 3
3 10 11 3
3 3 11 5
3 5 11 12
3 7 5 12
3 8 13 14
3 9 8 14
3 14 15 9
3 9 15 10
3 15 16 10
3 10 16 11
3 11 16 17
3 12 11 17
3 14 13 18
3 15 14 18
3 19 15 18
3 16 15 19
3 20 16 19
3 16 20 17
3 21 22 23
3 22 24 25
3 23 22 25
3 24 26 27
3 25 24 27
3 26 28 27
3 29 30 31
3 2 22 21
3 0 2 21
3 0 21 31
3 0 31 30
3 4 22 2
3 24 22 4
3 6 24 4
3 26 24 6
3 26 32 28
3 6 32 26
3 6 33 32
3 6 7 33
3 33 34 32
3 29 35 36
3 30 29 36
3 36 0 30
3 8 0 36
3 12 33 7
3 37 33 12
3 33 37 38
3 34 33 38
3 35 39 40
3 36 35 40
3 40 8 36
3 13 8 40
3 17 37 12
3 41 37 17
3 37 41 42
3 38 37 42
3 40 39 43
3 43 44 45
3 40 43 45
3 40 45 18
3 40 18 13
3 18 46 19
3 45 46 18
3 19 47 20
3 46 47 19
3 48 49 41
3 47 48 41
3 47 41 17
3 47 17 20
3 41 49 42
3 45 44 50
3 46 45 50
3 51 46 50
3 47 46 51
3 52 47 51
3 47 52 48
3 53 21 23
3 54 53 23
3 23 25 54
3 25 55 54
3 25 27 55
3 27 56 55
3 28 57 56
3 27 28 56
3 58 29 31
3 59 58 31
3 31 53 59
3 21 53 31
3 60 28 32
3 57 28 60
3 34 61 60
3 32 34 60
3 35 29 62
3 62 29 58
3 38 63 34
3 63 61 34
3 39 35 64
3 64 35 62
3 42 65 38
3 65 63 38
3 66 43 39
3 64 66 39
3 44 66 67
3 43 66 44
3 68 49 48
3 69 49 68
3 49 69 65
3 42 49 65
3 70 50 44
3 67 70 44
3 50 70 51
3 51 70 71
3 51 71 52
3 52 71 72
3 52 72 68
3 48 52 68
3 73 53 54
3 74 73 54
3 54 55 74
3 55 75 74
3 55 56 75
3 56 76 75
3 57 77 76
3 56 57 76
3 78 58 59
3 79 78 59
3 59 73 79
3 53 73 59
3 80 57 60
3 77 57 80
3 61 81 80
3 60 61 80
3 62 58 82
3 82 58 78
3 63 83 61
3 83 81 61
3 64 62 84
3 84 62 82
3 65 85 63
3 85 83 63
3 86 66 64
3 84 86 64
3 67 86 87
3 66 86 67
3 88 69 68
3 89 69 88
3 69 89 85
3 65 69 85
3 90 70 67
3 87 90 67
3 70 90 71
3 71 90 91
3 71 91 72
3 72 91 92
3 72 92 88
3 68 72 88
3 73 74 93
3 74 75 94
3 93 74 94
3 75 76 95
3 94 75 95
3 76 77 95
3 78 79 96
3 97 93 98
3 96 93 97
3 96 73 93
3 96 79 73
3 94 98 93
3 99 98 94
3 95 99 94
3 100 99 95
3 100 101 102
3 95 101 100
3 95 80 101
3 95 77 80
3 80 81 101
3 82 78 96
3 103 82 96
3 96 104 103
3 97 104 96
3 102 105 106
3 101 105 102
3 105 101 81
3 83 105 81
3 84 82 103
3 107 84 103
3 103 108 107
3 104 108 103
3 106 109 110
3 105 109 106
3 109 105 83
3 85 109 83
3 86 84 107
3 107 108 111
3 86 107 111
3 86 111 112
3 86 112 87
3 112 113 114
3 111 113 112
3 114 115 116
3 113 115 114
3 89 110 109
3 88 110 89
3 88 115 110
3 88 116 115
3 89 109 85
3 90 87 112
3 91 90 112
3 114 91 112
3 92 91 114
3 116 92 114
3 92 116 88
3 97 98 117
3 98 99 118
3 117 98 118
3 99 100 119
3 118 99 119
3 100 102 119
3 104 97 117
3 120 104 117
3 120 117 121
3 117 118 121
3 121 118 122
3 118 119 122
3 122 119 102
3 106 122 102
3 108 104 120
3 123 108 120
3 123 120 124
3 120 121 124
3 124 121 125
3 121 122 125
3 125 122 106
3 110 125 106
3 111 108 123
3 113 111 123
3 124 113 123
3 115 113 124
3 125 115 124
3 115 125 110
