ply
format ascii 1.0
comment VCGLIB generated
element vertex 126
property float x
property float y
property float z
element face 248
property list uchar int vertex_indices
end_header
-0.16178131103515625 0.230196431279182434 -0.508875191211700439
-0.127056121826171875 0.165435060858726501 -0.433325439691543579
-0.231746673583984375 0.128737777471542358 -0.461058765649795532
-0.12604522705078125 -0.0405107028782367706 -0.371687084436416626
-0.220905303955078125 -0.0677295029163360596 -0.374187618494033813
-0.105314888060092926 -0.247317597270011902 -0.476392269134521484
-0.215817764401435852 -0.268572777509689331 -0.460744708776473999
-0.106932319700717926 -0.23112468421459198 -0.381627559661865234
0.076358795166015625 0.237470030784606934 -0.514743030071258545
0.068333946168422699 0.13022245466709137 -0.553050994873046875
0.070551551878452301 -0.0746747180819511414 -0.458864361047744751
0.074740089476108551 -0.272271007299423218 -0.341032505035400391
0.088251747190952301 -0.34678959846496582 -0.394837230443954468
0.299109131097793579 0.24624258279800415 -0.467630386352539062
0.293924957513809204 0.138029396533966064 -0.498694092035293579
0.287443786859512329 -0.0865819081664085388 -0.457818835973739624
0.291951507329940796 -0.292028993368148804 -0.407001018524169922
0.299261718988418579 -0.386007636785507202 -0.36025238037109375
0.386943817138671875 0.139525309205055237 -0.434490054845809937
0.398264557123184204 -0.0790509358048439026 -0.416752338409423828
0.354109436273574829 -0.274799317121505737 -0.316693782806396484
-0.35414886474609375 0.284901887178421021 -0.272123485803604126
-0.37676239013671875 0.177085950970649719 -0.360856205224990845
-0.334645599126815796 0.175625279545783997 -0.253305286169052124
-0.395367950201034546 -0.0534210838377475739 -0.37478366494178772
-0.3716583251953125 -0.0423848144710063934 -0.262520641088485718
-0.356211334466934204 -0.274694114923477173 -0.338847488164901733
-0.331801086664199829 -0.255527228116989136 -0.230969741940498352
-0.355640411376953125 -0.365260601043701172 -0.220832347869873047
-0.143628433346748352 0.27045246958732605 -0.257898658514022827
-0.114271797239780426 0.211638167500495911 -0.332547664642333984
-0.212982177734375 0.198072671890258789 -0.232398673892021179
-0.184987381100654602 -0.3711375892162323 -0.151334598660469055
-0.129052475094795227 -0.300105392932891846 -0.231803253293037415
-0.118542991578578949 -0.280319124460220337 -0.129731178283691406
0.0434710197150707245 0.40780755877494812 -0.279391616582870483
0.0621401481330394745 0.350523561239242554 -0.374780505895614624
0.089679718017578125 -0.282178699970245361 -0.221911430358886719
0.0919952392578125 -0.389684051275253296 -0.167665481567382812
0.253247588872909546 0.444874763488769531 -0.266469001770019531
0.280195862054824829 0.388668805360794067 -0.361078888177871704
0.266621917486190796 -0.40149727463722229 -0.18847067654132843
0.2941436767578125 -0.324042290449142456 -0.121143817901611328
0.308066040277481079 0.357850939035415649 -0.225075244903564453
0.456254333257675171 0.266492217779159546 -0.195164680480957031
0.467409759759902954 0.149886623024940491 -0.276198238134384155
0.378729492425918579 -0.0616413317620754242 -0.230396106839179993
0.50936126708984375 -0.250738471746444702 -0.218628406524658203
0.5211181640625 -0.30183488130569458 -0.0887668952345848083
0.360510498285293579 -0.384103089570999146 -0.0975987091660499573
0.385412842035293579 0.187867686152458191 -0.199959442019462585
0.437338501214981079 -0.0225424859672784805 -0.147557422518730164
0.441012054681777954 -0.244553521275520325 -0.135836437344551086
-0.43035888671875 0.283264309167861938 -0.0598238296806812286
-0.479048401117324829 0.189545631408691406 -0.0624911002814769745
-0.367645263671875 0.0012223744997754693 -0.0422148704528808594
-0.333071380853652954 -0.214530602097511292 -0.0112371444702148438
-0.38394927978515625 -0.308614611625671387 -0.00424814224243164062
-0.1775665283203125 0.406809061765670776 -0.0876811370253562927
-0.270158141851425171 0.357307314872741699 -0.0722928047180175781
-0.258790343999862671 -0.417930275201797485 0.0472615547478199005
-0.151281997561454773 -0.424070984125137329 0.0349181480705738068
0.0337626151740550995 0.428484082221984863 -0.0472389869391918182
0.074854530394077301 -0.408619910478591919 0.0708268508315086365
0.254198700189590454 0.3723926842212677 -0.0470102615654468536
0.253054291009902954 -0.307063847780227661 0.100910663604736328
0.317114502191543579 0.457131236791610718 -0.017032623291015625
0.40521240234375 0.299137026071548462 0.0234068240970373154
0.452028900384902954 -0.240482643246650696 0.122043289244174957
0.329315185546875 -0.378374010324478149 0.133148357272148132
0.336905151605606079 0.219232738018035889 0.0180500354617834091
0.390298217535018921 0.0158678218722343445 0.0645443573594093323
0.360463470220565796 -0.191392481327056885 0.0755675658583641052
-0.431064605712890625 0.303369700908660889 0.159544304013252258
-0.473260253667831421 0.197063863277435303 0.16961352527141571
-0.2957763671875 0.0544089078903198242 0.156284019351005554
-0.34989166259765625 -0.162615343928337097 0.203453227877616882
-0.399213165044784546 -0.258821576833724976 0.222327709197998047
-0.193091079592704773 0.439671158790588379 0.139997795224189758
-0.27619171142578125 0.369784235954284668 0.14848773181438446
-0.233587905764579773 -0.304665476083755493 0.240290328860282898
-0.21703338623046875 -0.400357514619827271 0.270400851964950562
0.00968424510210752487 0.334841132164001465 0.153572872281074524
-0.00708134984597563744 -0.325140267610549927 0.290904521942138672
0.236330673098564148 0.322478681802749634 0.174699947237968445
0.201702117919921875 -0.248645558953285217 0.31635013222694397
0.184056594967842102 0.422528654336929321 0.165393039584159851
0.343554168939590454 0.373769253492355347 0.225605010986328125
0.370525360107421875 -0.161309614777565002 0.325009196996688843
0.276247650384902954 -0.31089898943901062 0.342134624719619751
0.306929260492324829 0.264327347278594971 0.240157440304756165
0.31166839599609375 0.0520008914172649384 0.286870479583740234
0.266221374273300171 -0.149870619177818298 0.289232403039932251
-0.429869323968887329 0.228267848491668701 0.279211848974227905
-0.317938476800918579 0.0326492078602313995 0.257758945226669312
-0.434783935546875 -0.128676459193229675 0.271023422479629517
-0.198159530758857727 0.425071567296981812 0.241015434265136719
-0.16495513916015625 0.24610273540019989 0.226948738098144531
-0.198758438229560852 0.242783471941947937 0.347243785858154297
-0.25301361083984375 0.0669701471924781799 0.42412075400352478
-0.384913116693496704 -0.102120727300643921 0.473841756582260132
-0.257954925298690796 -0.326165467500686646 0.3863067626953125
-0.264682769775390625 -0.17856241762638092 0.513880729675292969
0.0198847446590662003 0.403718560934066772 0.226058319211006165
0.0584932975471019745 0.245696142315864563 0.157015487551689148
-0.043315887451171875 -0.276521533727645874 0.387180179357528687
-0.0509045906364917755 -0.11533239483833313 0.463622421026229858
0.234377548098564148 0.396562933921813965 0.273619979619979858
0.273006439208984375 0.212662577629089355 0.209184646606445312
0.189875289797782898 -0.265333980321884155 0.414175838232040405
0.138568878173828125 -0.144042566418647766 0.521729886531829834
0.223698928952217102 0.160527080297470093 0.321121364831924438
0.370843261480331421 0.292338311672210693 0.314880043268203735
0.2598419189453125 0.173869490623474121 0.506563901901245117
0.289784759283065796 0.099857032299041748 0.371346950531005859
0.253308624029159546 -0.0406841635704040527 0.56876063346862793
0.257124572992324829 -0.123356424272060394 0.397478580474853516
-0.097447715699672699 0.166371241211891174 0.299940913915634155
-0.1829833984375 -0.0176989492028951645 0.348439544439315796
-0.285830169916152954 -0.0886256098747253418 0.578257620334625244
0.092931114137172699 0.0980101451277732849 0.126131370663642883
0.07111358642578125 -0.0612906813621520996 0.30333217978477478
-0.006927490234375 -0.118537195026874542 0.547542870044708252
0.224641159176826477 0.251858055591583252 0.287271499633789062
0.334955841302871704 -0.00677664065733551979 0.332647472620010376
0.215239211916923523 -0.148241832852363586 0.569624423980712891
3 0 1 2
3 1 3 4
3 2 1 4
3 3 5 6
3 4 3 6
3 5 7 6
3 0 8 9
3 1 0 9
3 9 10 1
3 1 10 3
3 10 11 3
3 3 11 5
3 5 11 12
3 7 5 12
3 8 13 14
3 9 8 14
3 14 15 9
3 9 15 10
3 15 16 10
3 10 16 11
3 11 16 17
3 12 11 17
3 14 13 18
3 15 14 18
3 19 15 18
3 16 15 19
3 20 16 19
3 16 20 17
3 21 22 23
3 22 24 25
3 23 22 25
3 24 26 27
3 25 24 27
3 26 28 27
3 29 30 31
3 2 22 21
3 0 2 21
3 0 21 31
3 0 31 30
3 4 22 2
3 24 22 4
3 6 24 4
3 26 24 6
3 26 32 28
3 6 32 26
3 6 33 32
3 6 7 33
3 33 34 32
3 29 35 36
3 30 29 36
3 36 0 30
3 8 0 36
3 12 33 7
3 37 33 12
3 33 37 38
3 34 33 38
3 35 39 40
3 36 35 40
3 40 8 36
3 13 8 40
3 17 37 12
3 41 37 17
3 37 41 42
3 38 37 42
3 40 39 43
3 43 44 45
3 40 43 45
3 40 45 18
3 40 18 13
3 18 46 19
3 45 46 18
3 19 47 20
3 46 47 19
3 48 49 41
3 47 48 41
3 47 41 17
3 47 17 20
3 41 49 42
3 45 44 50
3 46 45 50
3 51 46 50
3 47 46 51
3 52 47 51
3 47 52 48
3 53 21 23
3 54 53 23
3 23 25 54
3 25 55 54
3 25 27 55
3 27 56 55
3 28 57 56
3 27 28 56
3 58 29 31
3 59 58 31
3 31 53 59
3 21 53 31
3 60 28 32
3 57 28 60
3 34 61 60
3 32 34 60
3 35 29 62
3 62 29 58
3 38 63 34
3 63 61 34
3 39 35 64
3 64 35 62
3 42 65 38
3 65 63 38
3 66 43 39
3 64 66 39
3 44 66 67
3 43 66 44
3 68 49 48
3 69 49 68
3 49 69 65
3 42 49 65
3 70 50 44
3 67 70 44
3 50 70 51
3 51 70 71
3 51 71 52
3 52 71 72
3 52 72 68
3 48 52 68
3 73 53 54
3 74 73 54
3 54 55 74
3 55 75 74
3 55 56 75
3 56 76 75
3 57 77 76
3 56 57 76
3 78 58 59
3 79 78 59
3 59 73 79
3 53 73 59
3 80 57 60
3 77 57 80
3 61 81 80
3 60 61 80
3 62 58 82
3 82 58 78
3 63 83 61
3 83 81 61
3 64 62 84
3 84 62 82
3 65 85 63
3 85 83 63
3 86 66 64
3 84 86 64
3 67 86 87
3 66 86 67
3 88 69 68
3 89 69 88
3 69 89 85
3 65 69 85
3 90 70 67
3 87 90 67
3 70 90 71
3 71 90 91
3 71 91 72
3 72 91 92
3 72 92 88
3 68 72 88
3 73 74 93
3 74 75 94
3 93 74 94
3 75 76 95
3 94 75 95
3 76 77 95
3 78 79 96
3 97 93 98
3 96 93 97
3 96 73 93
3 96 79 73
3 94 98 93
3 99 98 94
3 95 99 94
3 100 99 95
3 100 101 102
3 95 101 100
3 95 80 101
3 95 77 80
3 80 81 101
3 82 78 96
3 103 82 96
3 96 104 103
3 97 104 96
3 102 105 106
3 101 105 102
3 105 101 81
3 83 105 81
3 84 82 103
3 107 84 103
3 103 108 107
3 104 108 103
3 106 109 110
3 105 109 106
3 109 105 83
3 85 109 83
3 86 84 107
3 107 108 111
3 86 107 111
3 86 111 112
3 86 112 87
3 112 113 114
3 111 113 112
3 114 115 116
3 113 115 114
3 89 110 109
3 88 110 89
3 88 115 110
3 88 116 115
3 89 109 85
3 90 87 112
3 91 90 112
3 114 91 112
3 92 91 114
3 116 92 114
3 92 116 88
3 97 98 117
3 98 99 118
3 117 98 118
3 99 100 119
3 118 99 119
3 100 102 119
3 104 97 117
3 120 104 117
3 120 117 121
3 117 118 121
3 121 118 122
3 118 119 122
3 122 119 102
3 106 122 102
3 108 104 120
3 123 108 120
3 123 120 124
3 120 121 124
3 124 121 125
3 121 122 125
3 125 122 106
3 110 125 106
3 111 108 123
3 113 111 123
3 124 113 123
3 115 113 124
3 125 115 124
3 115 125 110
