ply
format ascii 1.0
comment VCGLIB generated
element vertex 126
property float x
property float y
property float z
element face 248
property list uchar int vertex_indices
end_header
-0.401337951421737671 0.113416850566864014 -0.406993389129638672
-0.405202239751815796 0.155474454164505005 -0.520716965198516846
-0.515942871570587158 0.135867655277252197 -0.446007579565048218
-0.320662170648574829 -0.0475047342479228973 -0.500747859477996826
-0.380359649658203125 -0.0515321604907512665 -0.404734611511230469
-0.156294509768486023 -0.0434569977223873138 -0.351116180419921875
-0.2050628662109375 0.0258469972759485245 -0.294674545526504517
-0.145712539553642273 -0.0959372147917747498 -0.252235889434814453
-0.219267532229423523 0.194178685545921326 -0.326307773590087891
-0.188505813479423523 0.226214766502380371 -0.438402801752090454
-0.115581512451171875 0.0189115405082702637 -0.450285583734512329
-0.0343081168830394745 -0.192173406481742859 -0.437769085168838501
-0.0247243251651525497 -0.258033543825149536 -0.331610053777694702
-0.04103851318359375 0.304435551166534424 -0.234243869781494141
0.00794728565961122513 0.292390137910842896 -0.339230865240097046
0.091552734375 0.0851692557334899902 -0.389306545257568359
0.169267013669013977 -0.121007181704044342 -0.390133053064346313
0.1912994384765625 -0.214996278285980225 -0.326219409704208374
0.095898948609828949 0.301179260015487671 -0.263962268829345703
0.187215164303779602 0.112273253500461578 -0.331064373254776001
0.266404479742050171 -0.0960163474082946777 -0.343438148498535156
-0.586751282215118408 0.146766319870948792 -0.160573169589042664
-0.605790436267852783 0.0844317972660064697 -0.281463146209716797
-0.6446533203125 0.0599691122770309448 -0.166152790188789368
-0.47234344482421875 -0.10253579169511795 -0.265590190887451172
-0.461722046136856079 -0.0854282379150390625 -0.181388065218925476
-0.248528793454170227 -0.142311781644821167 -0.247107192873954773
-0.274893432855606079 -0.208573341369628906 -0.159006118774414062
-0.169534042477607727 -0.187192082405090332 -0.138178035616874695
-0.388116210699081421 0.168471336364746094 -0.125445529818534851
-0.393580108880996704 0.123236782848834991 -0.222767993807792664
-0.432308197021484375 0.239987775683403015 -0.162352085113525391
-0.143404647707939148 -0.0782182663679122925 -0.00478061055764555931
-0.0419820137321949005 -0.0864879712462425232 -0.099446617066860199
-0.134929656982421875 -0.145368516445159912 -0.0933992043137550354
-0.240244552493095398 0.012114998884499073 -0.124269329011440277
-0.195026397705078125 0.0492433346807956696 -0.217042133212089539
-0.0223515834659337997 -0.307203561067581177 -0.151536151766777039
-0.004680633544921875 -0.322399318218231201 -0.0418203659355640411
-0.0257619228214025497 0.10550331324338913 -0.0718285217881202698
-0.084863029420375824 0.196329042315483093 -0.0900071486830711365
0.201976776123046875 -0.308171659708023071 -0.169065475463867188
0.214024856686592102 -0.324128508567810059 -0.0582424812018871307
-0.005756378173828125 0.191885665059089661 0.00468985224142670631
0.149072006344795227 0.155219539999961853 -0.0693351402878761292
0.221135452389717102 0.259077519178390503 -0.136036872863769531
0.18669891357421875 0.0336096547544002533 -0.168802425265312195
0.394716888666152954 -0.0602593831717967987 -0.216909721493721008
0.432857513427734375 -0.163276731967926025 -0.134324073791503906
0.3148956298828125 -0.285770565271377563 -0.086714424192905426
0.111095428466796875 0.258196026086807251 -0.10049661248922348
0.254034668207168579 0.102568566799163818 -0.106674350798130035
0.332098633050918579 -0.1041560098528862 -0.140704318881034851
-0.621171295642852783 0.184038326144218445 0.0623879432678222656
-0.597239196300506592 0.0659944042563438416 0.0561455078423023224
-0.397747039794921875 0.0613491050899028778 -0.035701751708984375
-0.348906189203262329 -0.145627290010452271 0.0401864051818847656
-0.250461578369140625 -0.218406245112419128 0.0629398003220558167
-0.345050811767578125 0.222916379570960999 0.0808388367295265198
-0.451946258544921875 0.260683208703994751 0.0707554817199707031
-0.093404136598110199 -0.243025973439216614 0.129814788699150085
-0.19830322265625 -0.201385155320167542 0.115431942045688629
-0.275355011224746704 0.0244816038757562637 0.126523017883300781
0.0165227260440587997 -0.244135215878486633 0.166978195309638977
-0.0466779060661792755 0.0099648674950003624 0.123056411743164062
0.24007415771484375 -0.231004670262336731 0.145277664065361023
0.0373547859489917755 0.0733918100595474243 0.177690029144287109
0.0398432426154613495 0.245381847023963928 0.106577552855014801
0.447696685791015625 -0.0633309260010719299 0.056964874267578125
0.346881866455078125 -0.207340776920318604 0.117263317108154297
0.148211166262626648 0.294445902109146118 0.119992733001708984
0.233342483639717102 0.0774586871266365051 0.106362663209438324
0.42629241943359375 0.0372375138103961945 0.0206306781619787216
-0.595540344715118408 0.145658448338508606 0.2972259521484375
-0.510622680187225342 0.136929824948310852 0.270677715539932251
-0.353972107172012329 0.176664993166923523 0.11912313848733902
-0.221650436520576477 0.00889317132532596588 0.116969585418701172
-0.164076492190361023 -0.0190390702337026596 0.0331343002617359161
-0.348232269287109375 0.320024371147155762 0.284465640783309937
-0.42197418212890625 0.225678697228431702 0.296312808990478516
-0.0301233921200037003 -0.0333846770226955414 0.154658004641532898
-0.124980926513671875 0.00857162103056907654 0.165253162384033203
-0.21783447265625 0.135124802589416504 0.319123893976211548
0.03018951416015625 -0.065307222306728363 0.296566963195800781
-0.0185546875 0.0626394227147102356 0.312077850103378296
0.254589080810546875 -0.0928148925304412842 0.31716156005859375
-0.090632118284702301 0.126976042985916138 0.346786171197891235
0.0369771309196949005 0.259725779294967651 0.331816047430038452
0.451578766107559204 0.00432771304622292519 0.255280017852783203
0.34476470947265625 -0.125294491648674011 0.333760738372802734
0.144926711916923523 0.283253580331802368 0.326458603143692017
0.299161285161972046 0.291739612817764282 0.163697883486747742
0.407471984624862671 0.104387782514095306 0.232156276702880859
-0.501832306385040283 0.0381737127900123596 0.310593605041503906
-0.339224487543106079 0.0924516543745994568 0.147891044616699219
-0.29189300537109375 -0.0827484801411628723 0.0748564377427101135
-0.382572174072265625 0.315620630979537964 0.387107521295547485
-0.281603485345840454 0.171811893582344055 0.388050228357315063
-0.426972717046737671 0.188903093338012695 0.399708271026611328
-0.272944122552871704 0.12521083652973175 0.29208645224571228
-0.252858489751815796 -0.0687853619456291199 0.237328693270683289
-0.0558687858283519745 0.0997551307082176208 0.144285991787910461
-0.165874481201171875 0.0288274139165878296 0.273110061883926392
-0.229260757565498352 0.230038657784461975 0.269137710332870483
-0.09630584716796875 0.27861940860748291 0.331251472234725952
0.104207359254360199 0.0333286970853805542 0.273692935705184937
0.0163561496883630753 -0.11686619371175766 0.248605251312255859
-0.072085060179233551 0.0944184735417366028 0.216489791870117188
0.0434252433478832245 0.284112513065338135 0.173807457089424133
0.254517883062362671 -0.0375237353146076202 0.399174213409423828
0.137471511960029602 0.043614756315946579 0.263655036687850952
0.149995163083076477 0.196894988417625427 0.167621299624443054
0.072100318968296051 0.322902947664260864 0.217402145266532898
0.148874923586845398 0.144542276859283447 -0.0339754410088062286
0.2469635009765625 0.253583997488021851 0.0918925628066062927
0.180386856198310852 -0.011563815176486969 0.141385868191719055
0.353593200445175171 0.0540139228105545044 0.158294364809989929
-0.320307403802871704 0.265790224075317383 0.40420261025428772
-0.194019317626953125 0.135619834065437317 0.341982841491699219
-0.145287826657295227 -0.0820291042327880859 0.28464093804359436
-0.175671890377998352 0.285919189453125 0.24706713855266571
0.0214093532413244247 0.223922073841094971 0.292112022638320923
0.071216583251953125 -0.0126981921494007111 0.313946723937988281
0.000166575118782930076 0.194896519184112549 0.161951541900634766
0.136301681399345398 0.226438000798225403 0.0679891929030418396
0.239802047610282898 0.029428550973534584 0.210585117340087891
3 0 1 2
3 1 3 4
3 2 1 4
3 3 5 6
3 4 3 6
3 5 7 6
3 0 8 9
3 1 0 9
3 9 10 1
3 1 10 3
3 10 11 3
3 3 11 5
3 5 11 12
3 7 5 12
3 8 13 14
3 9 8 14
3 14 15 9
3 9 15 10
3 15 16 10
3 10 16 11
3 11 16 17
3 12 11 17
3 14 13 18
3 15 14 18
3 19 15 18
3 16 15 19
3 20 16 19
3 16 20 17
3 21 22 23
3 22 24 25
3 23 22 25
3 24 26 27
3 25 24 27
3 26 28 27
3 29 30 31
3 2 22 21
3 0 2 21
3 0 21 31
3 0 31 30
3 4 22 2
3 24 22 4
3 6 24 4
3 26 24 6
3 26 32 28
3 6 32 26
3 6 33 32
3 6 7 33
3 33 34 32
3 29 35 36
3 30 29 36
3 36 0 30
3 8 0 36
3 12 33 7
3 37 33 12
3 33 37 38
3 34 33 38
3 35 39 40
3 36 35 40
3 40 8 36
3 13 8 40
3 17 37 12
3 41 37 17
3 37 41 42
3 38 37 42
3 40 39 43
3 43 44 45
3 40 43 45
3 40 45 18
3 40 18 13
3 18 46 19
3 45 46 18
3 19 47 20
3 46 47 19
3 48 49 41
3 47 48 41
3 47 41 17
3 47 17 20
3 41 49 42
3 45 44 50
3 46 45 50
3 51 46 50
3 47 46 51
3 52 47 51
3 47 52 48
3 53 21 23
3 54 53 23
3 23 25 54
3 25 55 54
3 25 27 55
3 27 56 55
3 28 57 56
3 27 28 56
3 58 29 31
3 59 58 31
3 31 53 59
3 21 53 31
3 60 28 32
3 57 28 60
3 34 61 60
3 32 34 60
3 35 29 62
3 62 29 58
3 38 63 34
3 63 61 34
3 39 35 64
3 64 35 62
3 42 65 38
3 65 63 38
3 66 43 39
3 64 66 39
3 44 66 67
3 43 66 44
3 68 49 48
3 69 49 68
3 49 69 65
3 42 49 65
3 70 50 44
3 67 70 44
3 50 70 51
3 51 70 71
3 51 71 52
3 52 71 72
3 52 72 68
3 48 52 68
3 73 53 54
3 74 73 54
3 54 55 74
3 55 75 74
3 55 56 75
3 56 76 75
3 57 77 76
3 56 57 76
3 78 58 59
3 79 78 59
3 59 73 79
3 53 73 59
3 80 57 60
3 77 57 80
3 61 81 80
3 60 61 80
3 62 58 82
3 82 58 78
3 63 83 61
3 83 81 61
3 64 62 84
3 84 62 82
3 65 85 63
3 85 83 63
3 86 66 64
3 84 86 64
3 67 86 87
3 66 86 67
3 88 69 68
3 89 69 88
3 69 89 85
3 65 69 85
3 90 70 67
3 87 90 67
3 70 90 71
3 71 90 91
3 71 91 72
3 72 91 92
3 72 92 88
3 68 72 88
3 73 74 93
3 74 75 94
3 93 74 94
3 75 76 95
3 94 75 95
3 76 77 95
3 78 79 96
3 97 93 98
3 96 93 97
3 96 73 93
3 96 79 73
3 94 98 93
3 99 98 94
3 95 99 94
3 100 99 95
3 100 101 102
3 95 101 100
3 95 80 101
3 95 77 80
3 80 81 101
3 82 78 96
3 103 82 96
3 96 104 103
3 97 104 96
3 102 105 106
3 101 105 102
3 105 101 81
3 83 105 81
3 84 82 103
3 107 84 103
3 103 108 107
3 104 108 103
3 106 109 110
3 105 109 106
3 109 105 83
3 85 109 83
3 86 84 107
3 107 108 111
3 86 107 111
3 86 111 112
3 86 112 87
3 112 113 114
3 111 113 112
3 114 115 116
3 113 115 114
3 89 110 109
3 88 110 89
3 88 115 110
3 88 116 115
3 89 109 85
3 90 87 112
3 91 90 112
3 114 91 112
3 92 91 114
3 116 92 114
3 92 116 88
3 97 98 117
3 98 99 118
3 117 98 118
3 99 100 119
3 118 99 119
3 100 102 119
3 104 97 117
3 120 104 117
3 120 117 121
3 117 118 121
3 121 118 122
3 118 119 122
3 122 119 102
3 106 122 102
3 108 104 120
3 123 108 120
3 123 120 124
3 120 121 124
3 124 121 125
3 121 122 125
3 125 122 106
3 110 125 106
3 111 108 123
3 113 111 123
3 124 113 123
3 115 113 124
3 125 115 124
3 115 125 110
