ply
format ascii 1.0
comment VCGLIB generated
element vertex 126
property float x
property float y
property float z
element face 248
property list uchar int vertex_indices
end_header
-0.235431671142578125 0.160596400499343872 -0.42476239800453186
-0.244157150387763977 0.0800659283995628357 -0.518769741058349609
-0.36444091796875 0.114361561834812164 -0.450469821691513062
-0.239612579345703125 -0.0241671670228242874 -0.329660892486572266
-0.320070892572402954 -0.0643848404288291931 -0.324534744024276733
-0.301485687494277954 -0.187446907162666321 -0.166577339172363281
-0.262101501226425171 -0.236840859055519104 -0.233095481991767883
-0.272960662841796875 -0.250077933073043823 -0.0897884368896484375
-0.0187225341796875 0.141441628336906433 -0.364613205194473267
-0.02307891845703125 0.0451833903789520264 -0.429731369018554688
-0.074932098388671875 -0.166422411799430847 -0.398992687463760376
-0.13405609130859375 -0.323525011539459229 -0.258028179407119751
-0.160114288330078125 -0.409215599298477173 -0.199007198214530945
0.197945907711982727 0.113873660564422607 -0.309396117925643921
0.181643173098564148 0.00411194609478116035 -0.343187659978866577
0.133402511477470398 -0.21607603132724762 -0.328941971063613892
0.066109977662563324 -0.425343990325927734 -0.269861370325088501
0.0338452644646167755 -0.513741195201873779 -0.197716876864433289
0.202877044677734375 0.00138057582080364227 -0.235874176025390625
0.208062484860420227 -0.222046419978141785 -0.243628025054931641
0.082000732421875 -0.389815360307693481 -0.167521953582763672
-0.479482024908065796 0.170471072196960449 -0.215636894106864929
-0.532473266124725342 0.101206362247467041 -0.319730609655380249
-0.558476746082305908 0.0958868339657783508 -0.221463844180107117
-0.511622130870819092 -0.0937334373593330383 -0.25456586480140686
-0.608219146728515625 -0.102741062641143799 -0.194288730621337891
-0.469937652349472046 -0.27129065990447998 -0.172390460968017578
-0.536886870861053467 -0.283366203308105469 -0.102265357971191406
-0.457686096429824829 -0.375620365142822266 -0.124878086149692535
-0.247313186526298523 0.323013931512832642 -0.172840908169746399
-0.243442535400390625 0.278099030256271362 -0.282613426446914673
-0.331490844488143921 0.28302493691444397 -0.191744163632392883
-0.348462432622909546 -0.483400136232376099 -0.0820555686950683594
-0.353282928466796875 -0.377727508544921875 0.00364891695789992809
-0.353884369134902954 -0.340754836797714233 -0.110966049134731293
-0.030750274658203125 0.336996465921401978 -0.154277965426445007
-0.0231107082217931747 0.2810688316822052 -0.25577545166015625
-0.1285247802734375 -0.336841613054275513 -0.0183553695678710938
-0.131081894040107727 -0.374254375696182251 -0.101576961576938629
0.191992446780204773 0.329317241907119751 -0.120791114866733551
0.199453994631767273 0.270455449819564819 -0.214026764035224915
-0.093906402587890625 -0.554002642631530762 -0.080481208860874176
-0.095202125608921051 -0.571542918682098389 0.0264897346496582031
0.2728729248046875 0.262991368770599365 -0.0937064513564109802
0.370187133550643921 0.118514537811279297 -0.0547598190605640411
0.337877899408340454 -0.000473720574518665671 -0.116567455232143402
0.294348388910293579 -0.217703238129615784 -0.0817669257521629333
0.130552932620048523 -0.349214553833007812 0.000599702179897576571
0.147028610110282898 -0.483049124479293823 0.025686582550406456
0.00921885203570127487 -0.602482974529266357 0.00153350830078125
0.367819458246231079 0.0139215067028999329 -0.0135885877534747124
0.33080291748046875 -0.203058496117591858 0.0241413116455078125
0.22467041015625 -0.404507249593734741 0.0243417415767908096
-0.531145751476287842 0.216952666640281677 -0.00670782709494233131
-0.638753235340118408 0.159757241606712341 -0.0309855137020349503
-0.484808593988418579 0.00641262764111161232 -0.057064693421125412
-0.396668761968612671 -0.205564260482788086 0.00801181793212890625
-0.35852813720703125 -0.317847996950149536 0.0654544830322265625
-0.279109954833984375 0.394750148057937622 0.0337713547050952911
-0.389087677001953125 0.338689297437667847 0.0206982288509607315
-0.213030502200126648 -0.419935345649719238 0.0723961219191551208
-0.182104751467704773 -0.400931805372238159 -0.0005245208740234375
-0.059375762939453125 0.352082401514053345 0.0646030083298683167
-0.1112060546875 -0.224440708756446838 0.04559326171875
0.161303207278251648 0.335321664810180664 0.10251617431640625
-0.0263303127139806747 -0.415802717208862305 0.173438236117362976
0.273839324712753296 0.325824946165084839 0.124067783355712891
0.320116668939590454 0.153739079833030701 0.164369583129882812
0.00925191212445497513 -0.357806563377380371 0.152479648590087891
-0.058139801025390625 -0.522508561611175537 0.194901779294013977
0.244374588131904602 0.0739588513970375061 0.158250018954277039
0.187577560544013977 -0.135591208934783936 0.174404457211494446
0.0494511909782886505 -0.282611995935440063 0.0889129638671875
-0.537991821765899658 0.201186195015907288 0.215499088168144226
-0.631071746349334717 0.140600845217704773 0.212841987609863281
-0.473124176263809204 0.0336384736001491547 0.151254341006278992
-0.332505553960800171 -0.128159508109092712 0.219505473971366882
-0.272668212652206421 -0.225124478340148926 0.258134692907333374
-0.29158782958984375 0.348441123962402344 0.243916675448417664
-0.392206817865371704 0.288862407207489014 0.238402366638183594
-0.101092018187046051 -0.239878818392753601 0.171075507998466492
-0.046234130859375 -0.376867294311523438 0.189449787139892578
-0.098285675048828125 0.237286880612373352 0.248371437191963196
-0.0127932233735918999 -0.189424574375152588 0.224850818514823914
0.118281044065952301 0.269784420728683472 0.308848381042480469
-0.05403900146484375 -0.33537861704826355 0.371131420135498047
0.19945526123046875 0.335858553647994995 0.348909378051757812
0.264804840087890625 0.17178817093372345 0.378662109375
0.169420883059501648 -0.378062158823013306 0.299186855554580688
0.0130297346040606499 -0.423655390739440918 0.374796539545059204
0.168298080563545227 0.12144085019826889 0.36376953125
0.0574963875114917755 -0.0679208338260650635 0.332254081964492798
0.115955352783203125 -0.285893708467483521 0.290753990411758423
-0.586802184581756592 0.163800254464149475 0.308638721704483032
-0.488398224115371704 -0.029139392077922821 0.255868434906005859
-0.395955413579940796 -0.209563568234443665 0.216715812683105469
-0.319627135992050171 0.319968849420547485 0.336592525243759155
-0.3497314453125 0.218570664525032043 0.471513897180557251
-0.477933257818222046 0.170941829681396484 0.471504539251327515
-0.447113037109375 -0.0389875322580337524 0.435771942138671875
-0.284594208002090454 -0.184520646929740906 0.358349323272705078
-0.163611099123954773 -0.377397656440734863 0.19097900390625
-0.314697265625 -0.311968058347702026 0.305534213781356812
-0.123109184205532074 0.240068241953849792 0.359218448400497437
-0.13979339599609375 0.196452215313911438 0.530752122402191162
-0.0606028251349925995 -0.18061363697052002 0.317907184362411499
-0.168309524655342102 -0.158778861165046692 0.383875846862792969
0.072887420654296875 0.327043384313583374 0.390499114990234375
0.0729522705078125 0.231024220585823059 0.558217346668243408
0.0482610054314136505 -0.327809363603591919 0.438805907964706421
0.0378316231071949005 -0.157089948654174805 0.47703060507774353
0.0387331657111644745 0.091056428849697113 0.518496096134185791
0.187365218997001648 0.111503459513187408 0.475993722677230835
-0.044147491455078125 -0.0272014904767274857 0.367987781763076782
0.147706344723701477 -0.0695143938064575195 0.384345054626464844
-0.0541814155876636505 -0.251063287258148193 0.423004150390625
0.107517242431640625 -0.298009037971496582 0.3923187255859375
-0.405165344476699829 0.169500723481178284 0.583312809467315674
-0.389010101556777954 -0.0529989302158355713 0.531121969223022461
-0.344707489013671875 -0.24934232234954834 0.405340671539306641
-0.189759567379951477 0.117531217634677887 0.644433081150054932
-0.187948867678642273 -0.0553086362779140472 0.510418355464935303
-0.1381072998046875 -0.244674578309059143 0.461295276880264282
0.013111114501953125 0.185017213225364685 0.493677139282226562
0.0338274650275707245 -0.0219722110778093338 0.415779441595077515
0.067721046507358551 -0.245733693242073059 0.418096691370010376
3 0 1 2
3 1 3 4
3 2 1 4
3 3 5 6
3 4 3 6
3 5 7 6
3 0 8 9
3 1 0 9
3 9 10 1
3 1 10 3
3 10 11 3
3 3 11 5
3 5 11 12
3 7 5 12
3 8 13 14
3 9 8 14
3 14 15 9
3 9 15 10
3 15 16 10
3 10 16 11
3 11 16 17
3 12 11 17
3 14 13 18
3 15 14 18
3 19 15 18
3 16 15 19
3 20 16 19
3 16 20 17
3 21 22 23
3 22 24 25
3 23 22 25
3 24 26 27
3 25 24 27
3 26 28 27
3 29 30 31
3 2 22 21
3 0 2 21
3 0 21 31
3 0 31 30
3 4 22 2
3 24 22 4
3 6 24 4
3 26 24 6
3 26 32 28
3 6 32 26
3 6 33 32
3 6 7 33
3 33 34 32
3 29 35 36
3 30 29 36
3 36 0 30
3 8 0 36
3 12 33 7
3 37 33 12
3 33 37 38
3 34 33 38
3 35 39 40
3 36 35 40
3 40 8 36
3 13 8 40
3 17 37 12
3 41 37 17
3 37 41 42
3 38 37 42
3 40 39 43
3 43 44 45
3 40 43 45
3 40 45 18
3 40 18 13
3 18 46 19
3 45 46 18
3 19 47 20
3 46 47 19
3 48 49 41
3 47 48 41
3 47 41 17
3 47 17 20
3 41 49 42
3 45 44 50
3 46 45 50
3 51 46 50
3 47 46 51
3 52 47 51
3 47 52 48
3 53 21 23
3 54 53 23
3 23 25 54
3 25 55 54
3 25 27 55
3 27 56 55
3 28 57 56
3 27 28 56
3 58 29 31
3 59 58 31
3 31 53 59
3 21 53 31
3 60 28 32
3 57 28 60
3 34 61 60
3 32 34 60
3 35 29 62
3 62 29 58
3 38 63 34
3 63 61 34
3 39 35 64
3 64 35 62
3 42 65 38
3 65 63 38
3 66 43 39
3 64 66 39
3 44 66 67
3 43 66 44
3 68 49 48
3 69 49 68
3 49 69 65
3 42 49 65
3 70 50 44
3 67 70 44
3 50 70 51
3 51 70 71
3 51 71 52
3 52 71 72
3 52 72 68
3 48 52 68
3 73 53 54
3 74 73 54
3 54 55 74
3 55 75 74
3 55 56 75
3 56 76 75
3 57 77 76
3 56 57 76
3 78 58 59
3 79 78 59
3 59 73 79
3 53 73 59
3 80 57 60
3 77 57 80
3 61 81 80
3 60 61 80
3 62 58 82
3 82 58 78
3 63 83 61
3 83 81 61
3 64 62 84
3 84 62 82
3 65 85 63
3 85 83 63
3 86 66 64
3 84 86 64
3 67 86 87
3 66 86 67
3 88 69 68
3 89 69 88
3 69 89 85
3 65 69 85
3 90 70 67
3 87 90 67
3 70 90 71
3 71 90 91
3 71 91 72
3 72 91 92
3 72 92 88
3 68 72 88
3 73 74 93
3 74 75 94
3 93 74 94
3 75 76 95
3 94 75 95
3 76 77 95
3 78 79 96
3 97 93 98
3 96 93 97
3 96 73 93
3 96 79 73
3 94 98 93
3 99 98 94
3 95 99 94
3 100 99 95
3 100 101 102
3 95 101 100
3 95 80 101
3 95 77 80
3 80 81 101
3 82 78 96
3 103 82 96
3 96 104 103
3 97 104 96
3 102 105 106
3 101 105 102
3 105 101 81
3 83 105 81
3 84 82 103
3 107 84 103
3 103 108 107
3 104 108 103
3 106 109 110
3 105 109 106
3 109 105 83
3 85 109 83
3 86 84 107
3 107 108 111
3 86 107 111
3 86 111 112
3 86 112 87
3 112 113 114
3 111 113 112
3 114 115 116
3 113 115 114
3 89 110 109
3 88 110 89
3 88 115 110
3 88 116 115
3 89 109 85
3 90 87 112
3 91 90 112
3 114 91 112
3 92 91 114
3 116 92 114
3 92 116 88
3 97 98 117
3 98 99 118
3 117 98 118
3 99 100 119
3 118 99 119
3 100 102 119
3 104 97 117
3 120 104 117
3 120 117 121
3 117 118 121
3 121 118 122
3 118 119 122
3 122 119 102
3 106 122 102
3 108 104 120
3 123 108 120
3 123 120 124
3 120 121 124
3 124 121 125
3 121 122 125
3 125 122 106
3 110 125 106
3 111 108 123
3 113 111 123
3 124 113 123
3 115 113 124
3 125 115 124
3 115 125 110
