ply
format ascii 1.0
comment VCGLIB generated
element vertex 126
property float x
property float y
property float z
element face 248
property list uchar int vertex_indices
end_header
-0.182332351803779602 0.274537533521652222 -0.478228092193603516
-0.177327468991279602 0.165611028671264648 -0.494451195001602173
-0.282665252685546875 0.172929033637046814 -0.529399216175079346
-0.166216537356376648 -0.0605325996875762939 -0.473557144403457642
-0.279144287109375 -0.0611442625522613525 -0.494877487421035767
-0.167330428957939148 -0.264241605997085571 -0.370057106018066406
-0.267882019281387329 -0.284509062767028809 -0.417035430669784546
-0.166547134518623352 -0.3715534508228302 -0.391848713159561157
0.026905059814453125 0.261264681816101074 -0.421695858240127563
0.0304094944149255753 0.15763525664806366 -0.414784282445907593
0.0499598197638988495 -0.061306346207857132 -0.43810686469078064
0.0531552620232105255 -0.282030940055847168 -0.399639278650283813
0.0570831298828125 -0.383316367864608765 -0.352537006139755249
0.235281631350517273 0.269512683153152466 -0.345532089471817017
0.250398010015487671 0.180036023259162903 -0.398336559534072876
0.274422973394393921 -0.0422687120735645294 -0.387081772089004517
0.2772369384765625 -0.268797546625137329 -0.373705387115478516
0.267773956060409546 -0.349323272705078125 -0.296618133783340454
0.346768707036972046 0.196420952677726746 -0.362920612096786499
0.367619842290878296 -0.0272946730256080627 -0.356650501489639282
0.362531036138534546 -0.252625823020935059 -0.311256885528564453
-0.426102966070175171 0.255957663059234619 -0.28884395956993103
-0.333307892084121704 0.180088832974433899 -0.351689010858535767
-0.368438720703125 0.16424974799156189 -0.247346401214599609
-0.3780059814453125 -0.0372548885643482208 -0.352483421564102173
-0.42038726806640625 -0.0403748191893100739 -0.237873241305351257
-0.396999359130859375 -0.253376752138137817 -0.291511058807373047
-0.332448333501815796 -0.237766966223716736 -0.202002361416816711
-0.39849853515625 -0.314025849103927612 -0.162172794342041016
-0.238244369626045227 0.392133384943008423 -0.227361038327217102
-0.208441421389579773 0.379828661680221558 -0.333041340112686157
-0.3259124755859375 0.41890108585357666 -0.292638927698135376
-0.295977264642715454 -0.448495358228683472 -0.134747028350830078
-0.192540481686592102 -0.454962849617004395 -0.225494861602783203
-0.201192215085029602 -0.466947823762893677 -0.104753173887729645
-0.0212071742862462997 0.41671636700630188 -0.188883304595947266
0.00438563013449311256 0.365355163812637329 -0.279740184545516968
0.025508880615234375 -0.444364756345748901 -0.183502674102783203
0.0149281816557049751 -0.388679355382919312 -0.0950194969773292542
0.182291671633720398 0.499809771776199341 -0.204033538699150085
0.2119598388671875 0.436834067106246948 -0.293406486511230469
0.2454071044921875 -0.443678349256515503 -0.143424674868583679
0.226056411862373352 -0.445026516914367676 -0.0366326980292797089
0.277890533208847046 0.451686263084411621 -0.170157119631767273
0.376782745122909546 0.30822443962097168 -0.108772598206996918
0.381036132574081421 0.194902434945106506 -0.190424919128417969
0.342243194580078125 -0.0177248250693082809 -0.172292396426200867
0.453786224126815796 -0.205876871943473816 -0.153705596923828125
0.437764495611190796 -0.276846736669540405 -0.0435182265937328339
0.330011993646621704 -0.413973420858383179 -0.0268840789794921875
0.3014678955078125 0.225232541561126709 -0.119394302368164062
0.382335662841796875 0.0295642483979463577 -0.0847446098923683167
0.389097839593887329 -0.17740166187286377 -0.0632243156433105469
-0.444550842046737671 0.283367544412612915 -0.0612462349236011505
-0.486340850591659546 0.190296947956085205 -0.0368145294487476349
-0.470612853765487671 -0.018688669428229332 -0.0155412359163165092
-0.328723907470703125 -0.186828553676605225 0.0279863681644201279
-0.282694488763809204 -0.286185920238494873 0.0405378341674804688
-0.293958038091659546 0.520738303661346436 -0.052753448486328125
-0.382952362298965454 0.457663267850875854 -0.0857909545302391052
-0.344834655523300171 -0.439310401678085327 0.0905548706650733948
-0.250947326421737671 -0.387555837631225586 0.109504379332065582
-0.077065788209438324 0.537544548511505127 -0.00629488611593842506
-0.0326334647834300995 -0.320922702550888062 0.106428623199462891
0.137360885739326477 0.595743358135223389 0.00784079264849424362
0.179929092526435852 -0.351924300193786621 0.167345836758613586
0.214567825198173523 0.517148435115814209 0.039706546813249588
0.305121093988418579 0.3665333092212677 0.0896952971816062927
0.403034210205078125 -0.210593879222869873 0.171387672424316406
0.283206939697265625 -0.34542238712310791 0.179792404174804688
0.240908309817314148 0.274933487176895142 0.0865178108215332031
0.311269134283065796 0.0703302919864654541 0.133649513125419617
0.443005889654159546 -0.10267861932516098 0.146984413266181946
-0.367093414068222046 0.307615280151367188 0.156943798065185547
-0.449358612298965454 0.24475938081741333 0.156979724764823914
-0.489346832036972046 0.0267342310398817062 0.211491107940673828
-0.333669036626815796 -0.141118347644805908 0.243547439575195312
-0.248722076416015625 -0.216520145535469055 0.256866604089736938
-0.363305419683456421 0.566971123218536377 0.163147926330566406
-0.420650482177734375 0.490290045738220215 0.166835471987724304
-0.366896301507949829 -0.342847704887390137 0.31721910834312439
-0.2795867919921875 -0.336697429418563843 0.33502960205078125
-0.126115158200263977 0.585458219051361084 0.232195064425468445
-0.074188232421875 -0.21639685332775116 0.301248878240585327
0.099129997193813324 0.612629950046539307 0.261659294366836548
0.119013465940952301 -0.307526856660842896 0.366611003875732422
0.145676925778388977 0.550467014312744141 0.248740196228027344
0.265616089105606079 0.434319734573364258 0.294513702392578125
0.327050536870956421 -0.131757915019989014 0.371036529541015625
0.215778350830078125 -0.273313909769058228 0.373267978429794312
0.218365982174873352 0.328562051057815552 0.304151386022567749
0.340953826904296875 0.141157373785972595 0.341568946838378906
0.291521698236465454 -0.0674178525805473328 0.302676349878311157
-0.443018585443496704 0.25901225209236145 0.25687408447265625
-0.479801177978515625 0.060852494090795517 0.329331547021865845
-0.295917510986328125 -0.0742574632167816162 0.305567890405654907
-0.398810058832168579 0.612447500228881836 0.310332626104354858
-0.32514190673828125 0.450807094573974609 0.404966503381729126
-0.424831390380859375 0.349092096090316772 0.414630085229873657
-0.365641266107559204 0.151803404092788696 0.448527812957763672
-0.371465057134628296 -0.067706376314163208 0.474489778280258179
-0.302616119384765625 -0.332227379083633423 0.451973110437393188
-0.339344024658203125 -0.175531432032585144 0.568734586238861084
-0.174149826169013977 0.639191091060638428 0.332724243402481079
-0.151226043701171875 0.528142035007476807 0.468662112951278687
-0.097104392945766449 -0.214544370770454407 0.40171465277671814
-0.123795829713344574 -0.129924699664115906 0.546287000179290771
0.081045784056186676 0.626172363758087158 0.348007053136825562
0.07190704345703125 0.535296022891998291 0.51445847749710083
0.10729217529296875 -0.284989684820175171 0.467114299535751343
0.085693359375 -0.12143503874540329 0.556632518768310547
0.154356643557548523 0.414615899324417114 0.528208255767822266
0.28037261962890625 0.369276970624923706 0.39630889892578125
0.048397064208984375 0.210862055420875549 0.473976224660873413
0.240988418459892273 0.157076567411422729 0.408988475799560547
0.065069831907749176 -0.0492937564849853516 0.448014259338378906
0.214742019772529602 -0.0554048977792263031 0.349728435277938843
-0.354237884283065796 0.380457788705825806 0.50215989351272583
-0.313086181879043579 0.178683891892433167 0.573143959045410156
-0.302298218011856079 -0.0565617121756076813 0.579270303249359131
-0.136079147458076477 0.413996785879135132 0.470486491918563843
-0.111811317503452301 0.176783934235572815 0.518920361995697021
-0.10334014892578125 -0.0403386428952217102 0.581224203109741211
0.093454994261264801 0.426571577787399292 0.456816822290420532
0.102628074586391449 0.191221848130226135 0.460875034332275391
0.116830192506313324 -0.0236800368875265121 0.529734790325164795
3 0 1 2
3 1 3 4
3 2 1 4
3 3 5 6
3 4 3 6
3 5 7 6
3 0 8 9
3 1 0 9
3 9 10 1
3 1 10 3
3 10 11 3
3 3 11 5
3 5 11 12
3 7 5 12
3 8 13 14
3 9 8 14
3 14 15 9
3 9 15 10
3 15 16 10
3 10 16 11
3 11 16 17
3 12 11 17
3 14 13 18
3 15 14 18
3 19 15 18
3 16 15 19
3 20 16 19
3 16 20 17
3 21 22 23
3 22 24 25
3 23 22 25
3 24 26 27
3 25 24 27
3 26 28 27
3 29 30 31
3 2 22 21
3 0 2 21
3 0 21 31
3 0 31 30
3 4 22 2
3 24 22 4
3 6 24 4
3 26 24 6
3 26 32 28
3 6 32 26
3 6 33 32
3 6 7 33
3 33 34 32
3 29 35 36
3 30 29 36
3 36 0 30
3 8 0 36
3 12 33 7
3 37 33 12
3 33 37 38
3 34 33 38
3 35 39 40
3 36 35 40
3 40 8 36
3 13 8 40
3 17 37 12
3 41 37 17
3 37 41 42
3 38 37 42
3 40 39 43
3 43 44 45
3 40 43 45
3 40 45 18
3 40 18 13
3 18 46 19
3 45 46 18
3 19 47 20
3 46 47 19
3 48 49 41
3 47 48 41
3 47 41 17
3 47 17 20
3 41 49 42
3 45 44 50
3 46 45 50
3 51 46 50
3 47 46 51
3 52 47 51
3 47 52 48
3 53 21 23
3 54 53 23
3 23 25 54
3 25 55 54
3 25 27 55
3 27 56 55
3 28 57 56
3 27 28 56
3 58 29 31
3 59 58 31
3 31 53 59
3 21 53 31
3 60 28 32
3 57 28 60
3 34 61 60
3 32 34 60
3 35 29 62
3 62 29 58
3 38 63 34
3 63 61 34
3 39 35 64
3 64 35 62
3 42 65 38
3 65 63 38
3 66 43 39
3 64 66 39
3 44 66 67
3 43 66 44
3 68 49 48
3 69 49 68
3 49 69 65
3 42 49 65
3 70 50 44
3 67 70 44
3 50 70 51
3 51 70 71
3 51 71 52
3 52 71 72
3 52 72 68
3 48 52 68
3 73 53 54
3 74 73 54
3 54 55 74
3 55 75 74
3 55 56 75
3 56 76 75
3 57 77 76
3 56 57 76
3 78 58 59
3 79 78 59
3 59 73 79
3 53 73 59
3 80 57 60
3 77 57 80
3 61 81 80
3 60 61 80
3 62 58 82
3 82 58 78
3 63 83 61
3 83 81 61
3 64 62 84
3 84 62 82
3 65 85 63
3 85 83 63
3 86 66 64
3 84 86 64
3 67 86 87
3 66 86 67
3 88 69 68
3 89 69 88
3 69 89 85
3 65 69 85
3 90 70 67
3 87 90 67
3 70 90 71
3 71 90 91
3 71 91 72
3 72 91 92
3 72 92 88
3 68 72 88
3 73 74 93
3 74 75 94
3 93 74 94
3 75 76 95
3 94 75 95
3 76 77 95
3 78 79 96
3 97 93 98
3 96 93 97
3 96 73 93
3 96 79 73
3 94 98 93
3 99 98 94
3 95 99 94
3 100 99 95
3 100 101 102
3 95 101 100
3 95 80 101
3 95 77 80
3 80 81 101
3 82 78 96
3 103 82 96
3 96 104 103
3 97 104 96
3 102 105 106
3 101 105 102
3 105 101 81
3 83 105 81
3 84 82 103
3 107 84 103
3 103 108 107
3 104 108 103
3 106 109 110
3 105 109 106
3 109 105 83
3 85 109 83
3 86 84 107
3 107 108 111
3 86 107 111
3 86 111 112
3 86 112 87
3 112 113 114
3 111 113 112
3 114 115 116
3 113 115 114
3 89 110 109
3 88 110 89
3 88 115 110
3 88 116 115
3 89 109 85
3 90 87 112
3 91 90 112
3 114 91 112
3 92 91 114
3 116 92 114
3 92 116 88
3 97 98 117
3 98 99 118
3 117 98 118
3 99 100 119
3 118 99 119
3 100 102 119
3 104 97 117
3 120 104 117
3 120 117 121
3 117 118 121
3 121 118 122
3 118 119 122
3 122 119 102
3 106 122 102
3 108 104 120
3 123 108 120
3 123 120 124
3 120 121 124
3 124 121 125
3 121 122 125
3 125 122 106
3 110 125 106
3 111 108 123
3 113 111 123
3 124 113 123
3 115 113 124
3 125 115 124
3 115 125 110
