ply
format ascii 1.0
comment VCGLIB generated
element vertex 126
property float x
property float y
property float z
element face 248
property list uchar int vertex_indices
end_header
-0.170673370361328125 0.262730300426483154 -0.493146896362304688
-0.16724395751953125 0.156345561146736145 -0.541104018688201904
-0.256281524896621704 0.158955127000808716 -0.478844791650772095
-0.162228897213935852 -0.0738534107804298401 -0.496754974126815796
-0.258923858404159546 -0.0689595937728881836 -0.447019904851913452
-0.138543441891670227 -0.261921584606170654 -0.315736293792724609
-0.115437828004360199 -0.145805835723876953 -0.251205295324325562
-0.0308405552059412003 -0.231308832764625549 -0.236316680908203125
0.0439453125 0.263743996620178223 -0.443946987390518188
0.0363616943359375 0.152728766202926636 -0.436508029699325562
0.051952362060546875 -0.0680424124002456665 -0.453566402196884155
0.067180633544921875 -0.286782264709472656 -0.434212356805801392
0.079043067991733551 -0.392870038747787476 -0.400205463171005249
0.247697189450263977 0.26751554012298584 -0.364565998315811157
0.243737533688545227 0.165502533316612244 -0.337264537811279297
0.257843017578125 -0.0582987703382968903 -0.364049285650253296
0.2627105712890625 -0.278206497430801392 -0.323987811803817749
0.294073730707168579 -0.399002820253372192 -0.356226593255996704
0.341622680425643921 0.173357829451560974 -0.383757114410400391
0.370480865240097046 -0.0565564483404159546 -0.377776294946670532
0.371407836675643921 -0.271776497364044189 -0.346023082733154297
-0.4075164794921875 0.283320367336273193 -0.287421226501464844
-0.396516174077987671 0.173239782452583313 -0.370889514684677124
-0.360891968011856079 0.191215351223945618 -0.268509715795516968
-0.400040954351425171 -0.0550284385681152344 -0.330378204584121704
-0.363957732915878296 -0.0306140314787626266 -0.233273670077323914
-0.293467193841934204 -0.243628665804862976 -0.289687305688858032
-0.304013580083847046 -0.245032027363777161 -0.189543724060058594
-0.350817352533340454 -0.353177517652511597 -0.186544731259346008
-0.206778213381767273 0.487116605043411255 -0.304594039916992188
-0.18914794921875 0.411846071481704712 -0.390559345483779907
-0.286388397216796875 0.415385603904724121 -0.292342990636825562
-0.205120086669921875 -0.44139447808265686 -0.128274917602539062
-0.103399910032749176 -0.382907956838607788 -0.105268001556396484
-0.168786361813545227 -0.343356162309646606 -0.180717155337333679
0.0131543474271893501 0.492973774671554565 -0.275307327508926392
0.026760101318359375 0.405421704053878784 -0.338293880224227905
0.070315040647983551 -0.35266759991645813 -0.238416507840156555
0.107045494019985199 -0.310656636953353882 -0.143035247921943665
0.2065277099609375 0.417144089937210083 -0.204565525054931641
0.24957275390625 0.422085881233215332 -0.305679172277450562
0.158873245120048523 -0.480004578828811646 -0.178874656558036804
0.240507766604423523 -0.506467044353485107 -0.0838742256164550781
0.317897796630859375 0.424878805875778198 -0.178914546966552734
0.381661742925643921 0.268737286329269409 -0.155105426907539368
0.433396667242050171 0.176250562071800232 -0.237922355532646179
0.4183349609375 -0.0534455738961696625 -0.208501651883125305
0.4320831298828125 -0.292348563671112061 -0.178161785006523132
0.368442535400390625 -0.401061087846755981 -0.0869057998061180115
0.186595916748046875 -0.592455089092254639 -0.07769012451171875
0.455936431884765625 0.187358617782592773 -0.12846057116985321
0.463579803705215454 -0.0425791628658771515 -0.117815174162387848
0.397106170654296875 -0.289480447769165039 -0.0924026146531105042
-0.430268615484237671 0.320334404706954956 -0.0694774016737937927
-0.380274444818496704 0.220151856541633606 -0.0445979423820972443
-0.382755279541015625 -0.00613046390935778618 -0.00941801071166992188
-0.393402099609375 -0.223911464214324951 0.0139516191557049751
-0.335094451904296875 -0.308935701847076416 0.0321652106940746307
-0.225498199462890625 0.528506457805633545 -0.0730012282729148865
-0.338704437017440796 0.480813115835189819 -0.0750050544738769531
-0.163360595703125 -0.322339475154876709 0.0482829399406909943
-0.116186775267124176 -0.414722084999084473 0.0282891597598791122
-0.0146611528471112251 0.485064178705215454 -0.0518290214240550995
0.0372670479118824005 -0.266899436712265015 0.0588045120239257812
0.188261672854423523 0.483484029769897461 0.00384807586669921875
0.1968231201171875 -0.441854387521743774 0.125514820218086243
0.265150696039199829 0.441046983003616333 0.0438710860908031464
0.361661285161972046 0.303653061389923096 0.0687713623046875
0.265616089105606079 -0.389449626207351685 0.108832359313964844
0.14243316650390625 -0.524379193782806396 0.194214656949043274
0.380727142095565796 0.197978124022483826 0.0820062980055809021
0.375649780035018921 -0.0237281788140535355 0.0835652351379394531
0.324504852294921875 -0.271673262119293213 0.0954798087477684021
-0.466634124517440796 0.33459201455116272 0.150676727294921875
-0.449181884527206421 0.232087612152099609 0.169331714510917664
-0.441469818353652954 0.0210166852921247482 0.207079410552978516
-0.404170989990234375 -0.186550423502922058 0.233511447906494141
-0.328572601079940796 -0.261160790920257568 0.251222133636474609
-0.22898101806640625 0.531618356704711914 0.146240234375
-0.350739806890487671 0.503960669040679932 0.137044265866279602
-0.1516876220703125 -0.261495739221572876 0.240567520260810852
-0.177950546145439148 -0.36383095383644104 0.23420269787311554
-0.0302823390811681747 0.444116264581680298 0.17344982922077179
-0.0180409755557775497 -0.22915862500667572 0.267010539770126343
0.132391616702079773 0.297233551740646362 0.161965206265449524
0.20127105712890625 -0.294638484716415405 0.305665969848632812
0.109564460813999176 0.38525390625 0.2138214111328125
0.263647705316543579 0.341623425483703613 0.271200031042098999
0.341472625732421875 -0.347529441118240356 0.316793590784072876
0.223292037844657898 -0.328285545110702515 0.228069305419921875
0.26294708251953125 0.224340856075286865 0.270477622747421265
0.260293334722518921 0.00175476621370762587 0.266195774078369141
0.328333526849746704 -0.214571490883827209 0.302935123443603516
-0.497624725103378296 0.243536308407783508 0.26578107476234436
-0.476022094488143921 0.0206863898783922195 0.310656547546386719
-0.418729156255722046 -0.204644441604614258 0.333125114440917969
-0.300715118646621704 0.458622932434082031 0.237861797213554382
-0.257933288812637329 0.280720740556716919 0.271581798791885376
-0.330084472894668579 0.26110723614692688 0.337872356176376343
-0.342543274164199829 0.0474077574908733368 0.433628082275390625
-0.316923767328262329 -0.176730439066886902 0.455652385950088501
-0.164021804928779602 -0.373406678438186646 0.34215274453163147
-0.232846572995185852 -0.287211775779724121 0.462649822235107422
-0.071949005126953125 0.395841509103775024 0.29317745566368103
-0.224508926272392273 0.280845195055007935 0.473100185394287109
0.0352427177131175995 -0.269549846649169922 0.331922531127929688
-0.01197052001953125 -0.295917302370071411 0.482727378606796265
0.112574256956577301 0.243867769837379456 0.27315172553062439
0.0571200065314769745 0.231918022036552429 0.444388866424560547
0.235949203372001648 -0.212363839149475098 0.315644115209579468
0.149349212646484375 -0.180285289883613586 0.469097614288330078
0.156218215823173523 0.264302641153335571 0.525479018688201904
0.252976745367050171 0.235260114073753357 0.37024340033531189
0.226505279541015625 0.0275557693094015121 0.549007713794708252
0.248311355710029602 0.0121589377522468567 0.377061694860458374
0.250932067632675171 -0.214007213711738586 0.558158934116363525
0.343134552240371704 -0.214077845215797424 0.399519115686416626
-0.315790802240371704 0.184109091758728027 0.312918514013290405
-0.241241455078125 0.0218363534659147263 0.406034618616104126
-0.233824416995048523 -0.181173309683799744 0.506857454776763916
-0.156683608889579773 0.157398268580436707 0.47533416748046875
-0.0285936985164880753 -0.00978109333664178848 0.353016376495361328
-0.00828043650835752487 -0.176183685660362244 0.494393020868301392
0.039722442626953125 0.200327590107917786 0.543522298336029053
0.157024383544921875 0.00504898233339190483 0.49113425612449646
0.22135162353515625 -0.21200205385684967 0.440178543329238892
3 0 1 2
3 1 3 4
3 2 1 4
3 3 5 6
3 4 3 6
3 5 7 6
3 0 8 9
3 1 0 9
3 9 10 1
3 1 10 3
3 10 11 3
3 3 11 5
3 5 11 12
3 7 5 12
3 8 13 14
3 9 8 14
3 14 15 9
3 9 15 10
3 15 16 10
3 10 16 11
3 11 16 17
3 12 11 17
3 14 13 18
3 15 14 18
3 19 15 18
3 16 15 19
3 20 16 19
3 16 20 17
3 21 22 23
3 22 24 25
3 23 22 25
3 24 26 27
3 25 24 27
3 26 28 27
3 29 30 31
3 2 22 21
3 0 2 21
3 0 21 31
3 0 31 30
3 4 22 2
3 24 22 4
3 6 24 4
3 26 24 6
3 26 32 28
3 6 32 26
3 6 33 32
3 6 7 33
3 33 34 32
3 29 35 36
3 30 29 36
3 36 0 30
3 8 0 36
3 12 33 7
3 37 33 12
3 33 37 38
3 34 33 38
3 35 39 40
3 36 35 40
3 40 8 36
3 13 8 40
3 17 37 12
3 41 37 17
3 37 41 42
3 38 37 42
3 40 39 43
3 43 44 45
3 40 43 45
3 40 45 18
3 40 18 13
3 18 46 19
3 45 46 18
3 19 47 20
3 46 47 19
3 48 49 41
3 47 48 41
3 47 41 17
3 47 17 20
3 41 49 42
3 45 44 50
3 46 45 50
3 51 46 50
3 47 46 51
3 52 47 51
3 47 52 48
3 53 21 23
3 54 53 23
3 23 25 54
3 25 55 54
3 25 27 55
3 27 56 55
3 28 57 56
3 27 28 56
3 58 29 31
3 59 58 31
3 31 53 59
3 21 53 31
3 60 28 32
3 57 28 60
3 34 61 60
3 32 34 60
3 35 29 62
3 62 29 58
3 38 63 34
3 63 61 34
3 39 35 64
3 64 35 62
3 42 65 38
3 65 63 38
3 66 43 39
3 64 66 39
3 44 66 67
3 43 66 44
3 68 49 48
3 69 49 68
3 49 69 65
3 42 49 65
3 70 50 44
3 67 70 44
3 50 70 51
3 51 70 71
3 51 71 52
3 52 71 72
3 52 72 68
3 48 52 68
3 73 53 54
3 74 73 54
3 54 55 74
3 55 75 74
3 55 56 75
3 56 76 75
3 57 77 76
3 56 57 76
3 78 58 59
3 79 78 59
3 59 73 79
3 53 73 59
3 80 57 60
3 77 57 80
3 61 81 80
3 60 61 80
3 62 58 82
3 82 58 78
3 63 83 61
3 83 81 61
3 64 62 84
3 84 62 82
3 65 85 63
3 85 83 63
3 86 66 64
3 84 86 64
3 67 86 87
3 66 86 67
3 88 69 68
3 89 69 88
3 69 89 85
3 65 69 85
3 90 70 67
3 87 90 67
3 70 90 71
3 71 90 91
3 71 91 72
3 72 91 92
3 72 92 88
3 68 72 88
3 73 74 93
3 74 75 94
3 93 74 94
3 75 76 95
3 94 75 95
3 76 77 95
3 78 79 96
3 97 93 98
3 96 93 97
3 96 73 93
3 96 79 73
3 94 98 93
3 99 98 94
3 95 99 94
3 100 99 95
3 100 101 102
3 95 101 100
3 95 80 101
3 95 77 80
3 80 81 101
3 82 78 96
3 103 82 96
3 96 104 103
3 97 104 96
3 102 105 106
3 101 105 102
3 105 101 81
3 83 105 81
3 84 82 103
3 107 84 103
3 103 108 107
3 104 108 103
3 106 109 110
3 105 109 106
3 109 105 83
3 85 109 83
3 86 84 107
3 107 108 111
3 86 107 111
3 86 111 112
3 86 112 87
3 112 113 114
3 111 113 112
3 114 115 116
3 113 115 114
3 89 110 109
3 88 110 89
3 88 115 110
3 88 116 115
3 89 109 85
3 90 87 112
3 91 90 112
3 114 91 112
3 92 91 114
3 116 92 114
3 92 116 88
3 97 98 117
3 98 99 118
3 117 98 118
3 99 100 119
3 118 99 119
3 100 102 119
3 104 97 117
3 120 104 117
3 120 117 121
3 117 118 121
3 121 118 122
3 118 119 122
3 122 119 102
3 106 122 102
3 108 104 120
3 123 108 120
3 123 120 124
3 120 121 124
3 124 121 125
3 121 122 125
3 125 122 106
3 110 125 106
3 111 108 123
3 113 111 123
3 124 113 123
3 115 113 124
3 125 115 124
3 115 125 110
