ply
format ascii 1.0
comment VCGLIB generated
element vertex 126
property float x
property float y
property float z
element face 248
property list uchar int vertex_indices
end_header
-0.405557006597518921 0.136287853121757507 -0.409942150115966797
-0.40137481689453125 0.153085172176361084 -0.517658889293670654
-0.518192291259765625 0.126981571316719055 -0.436572551727294922
-0.317312866449356079 -0.0690587610006332397 -0.488255172967910767
-0.384179443120956421 -0.0467895157635211945 -0.40170559287071228
-0.145684555172920227 -0.0414687357842922211 -0.343725353479385376
-0.201176956295967102 0.0245238002389669418 -0.294878005981445312
-0.1430511474609375 -0.0978893041610717773 -0.246739700436592102
-0.22246551513671875 0.231783643364906311 -0.337874561548233032
-0.185039520263671875 0.226952269673347473 -0.448140770196914673
-0.108029685914516449 0.00799792911857366562 -0.460119247436523438
-0.0258636474609375 -0.198317766189575195 -0.43716922402381897
-0.007541656494140625 -0.246716156601905823 -0.341457366943359375
-0.043437957763671875 0.306474119424819946 -0.240932628512382507
0.0106455488130450249 0.300247102975845337 -0.343431323766708374
0.090504966676235199 0.0809478685259819031 -0.370646476745605469
0.179131820797920227 -0.13043782114982605 -0.393218845129013062
0.203439071774482727 -0.204568251967430115 -0.320952564477920532
0.089569091796875 0.292611509561538696 -0.257551044225692749
0.197928115725517273 0.107913665473461151 -0.341372966766357422
0.274270385503768921 -0.0999633297324180603 -0.329900115728378296
-0.603565216064453125 0.167900979518890381 -0.175950214266777039
-0.601153075695037842 0.0888556316494941711 -0.27266693115234375
-0.626300811767578125 0.0446555353701114655 -0.163652583956718445
-0.470845550298690796 -0.0912056341767311096 -0.270632892847061157
-0.423720031976699829 -0.0547007732093334198 -0.187383487820625305
-0.253030151128768921 -0.13817286491394043 -0.259238868951797485
-0.264429718255996704 -0.200751230120658875 -0.175847843289375305
-0.168039962649345398 -0.20463167130947113 -0.155903026461601257
-0.392276763916015625 0.153172761201858521 -0.133178547024726868
-0.395554870367050171 0.154054328799247742 -0.238947555422782898
-0.42899322509765625 0.258967429399490356 -0.1509246826171875
-0.140076950192451477 -0.100739620625972748 -0.0109775857999920845
-0.0450350455939769745 -0.0911733433604240417 -0.0994575843214988708
-0.12493896484375 -0.16416989266872406 -0.106228351593017578
-0.2241668701171875 0.00843011587858200073 -0.106166206300258636
-0.176050826907157898 0.0781664997339248657 -0.23388846218585968
-0.00811767578125 -0.300195962190628052 -0.159252956509590149
-0.0103912353515625 -0.336328238248825073 -0.0451989173889160156
-0.047359466552734375 0.131277173757553101 -0.0901678428053855896
-0.102244056761264801 0.230015099048614502 -0.0828016623854637146
0.212474822998046875 -0.312887758016586304 -0.178699180483818054
0.21750640869140625 -0.331277281045913696 -0.0703843459486961365
-0.00819142628461122513 0.178072571754455566 -0.00644048070535063744
0.159586593508720398 0.162729129195213318 -0.0693469047546386719
0.216550186276435852 0.271941632032394409 -0.137843608856201172
0.220377609133720398 0.0560972392559051514 -0.16951577365398407
0.403525024652481079 -0.0607217252254486084 -0.213194683194160461
0.435105651617050171 -0.159860864281654358 -0.140799835324287415
0.315961211919784546 -0.283405572175979614 -0.0863052979111671448
0.12149810791015625 0.265062958002090454 -0.0794819220900535583
0.256670624017715454 0.0898760184645652771 -0.0780666694045066833
0.324006408452987671 -0.117054559290409088 -0.132238075137138367
-0.610949218273162842 0.188682198524475098 0.0614131279289722443
-0.577467620372772217 0.0613197796046733856 0.0773100852966308594
-0.408550262451171875 0.0642575100064277649 -0.042591731995344162
-0.342314392328262329 -0.14001232385635376 0.016561826691031456
-0.261130005121231079 -0.217221856117248535 0.0377977676689624786
-0.352068573236465454 0.235357955098152161 0.063458763062953949
-0.44370269775390625 0.208874955773353577 0.0719188079237937927
-0.105414070188999176 -0.268200039863586426 0.120760440826416016
-0.195353195071220398 -0.212707638740539551 0.097516380250453949
-0.268038421869277954 0.00569122657179832458 0.125415325164794922
0.004245758056640625 -0.2466888427734375 0.172840118408203125
-0.0477434806525707245 0.0544805414974689484 0.118525981903076172
0.223765060305595398 -0.249409392476081848 0.141764804720878601
0.040363311767578125 0.085003584623336792 0.171435520052909851
0.071379341185092926 0.240277186036109924 0.126594379544258118
0.427677154541015625 -0.0694072246551513672 0.0704380646347999573
0.328358978033065796 -0.217357441782951355 0.130303859710693359
0.16717529296875 0.305122017860412598 0.128914669156074524
0.244602203369140625 0.0813068374991416931 0.131779983639717102
0.409460693597793579 0.0305551979690790176 -0.00304476427845656872
-0.604755401611328125 0.150289714336395264 0.286803573369979858
-0.511984527111053467 0.128291413187980652 0.269305378198623657
-0.365079253911972046 0.176201045513153076 0.105292953550815582
-0.2131805419921875 0.0133288735523819923 0.111321769654750824
-0.165612533688545227 -0.0274270866066217422 0.0280354823917150497
-0.362906128168106079 0.321340888738632202 0.27919769287109375
-0.428577423095703125 0.241979107260704041 0.28652191162109375
-0.0349375419318675995 -0.048341948539018631 0.157103538513183594
-0.125881195068359375 -0.0116843134164810181 0.168028518557548523
-0.215184524655342102 0.142550528049468994 0.315685421228408813
0.0168253574520349503 -0.0606887079775333405 0.312212944030761719
-0.0248438511043787003 0.0730055719614028931 0.330236762762069702
0.23583984375 -0.0934821292757987976 0.312858730554580688
-0.104555763304233551 0.154238894581794739 0.341332763433456421
0.0327771492302417755 0.26150628924369812 0.356239795684814453
0.426500946283340454 0.009294913150370121 0.266143172979354858
0.345678955316543579 -0.132440447807312012 0.350098609924316406
0.127597808837890625 0.315516352653503418 0.338183075189590454
0.303911834955215454 0.277292340993881226 0.186718463897705078
0.395587921142578125 0.0888676568865776062 0.206560134887695312
-0.513304412364959717 0.0382695309817790985 0.320009708404541016
-0.3345947265625 0.0892821252346038818 0.157266616821289062
-0.294743865728378296 -0.0739442408084869385 0.0795933380722999573
-0.389628082513809204 0.300480812788009644 0.400219589471817017
-0.281263977289199829 0.170311138033866882 0.407966136932373047
-0.4215240478515625 0.191572412848472595 0.426678329706192017
-0.255800873041152954 0.150390908122062683 0.275585025548934937
-0.214627578854560852 -0.0888395905494689941 0.232177093625068665
-0.0540517158806324005 0.0995413064956665039 0.161125972867012024
-0.183099105954170227 0.0390579476952552795 0.296430438756942749
-0.233701065182685852 0.245050892233848572 0.286103725433349609
-0.082636512815952301 0.27522653341293335 0.348852783441543579
0.094122566282749176 0.0187802817672491074 0.290291309356689453
-0.00700632715597748756 -0.105709873139858246 0.265769332647323608
-0.06172943115234375 0.116055935621261597 0.215614959597587585
0.061122894287109375 0.287347346544265747 0.178058147430419922
0.246760055422782898 -0.0439946241676807404 0.399050861597061157
0.137109115719795227 0.0207217317074537277 0.255588680505752563
0.156948089599609375 0.204801008105278015 0.158267661929130554
0.072527565062046051 0.317039847373962402 0.230765029788017273
0.152486160397529602 0.152965322136878967 -0.03772735595703125
0.221494033932685852 0.243995428085327148 0.10360351949930191
0.168791458010673523 -0.00554861826822161674 0.140497207641601562
0.338270813226699829 0.0449059195816516876 0.14824993908405304
-0.332483917474746704 0.277811586856842041 0.39422956109046936
-0.176705673336982727 0.133898705244064331 0.338897377252578735
-0.14929962158203125 -0.0700720623135566711 0.283002227544784546
-0.16446685791015625 0.278141289949417114 0.247726276516914368
0.010410308837890625 0.236885413527488708 0.297371238470077515
0.0583508796989917755 -0.010808323509991169 0.307093143463134766
-0.0120175676420331001 0.214344039559364319 0.158456966280937195
0.154024764895439148 0.229438364505767822 0.0823907852172851562
0.235131576657295227 0.0338037163019180298 0.220338344573974609
3 0 1 2
3 1 3 4
3 2 1 4
3 3 5 6
3 4 3 6
3 5 7 6
3 0 8 9
3 1 0 9
3 9 10 1
3 1 10 3
3 10 11 3
3 3 11 5
3 5 11 12
3 7 5 12
3 8 13 14
3 9 8 14
3 14 15 9
3 9 15 10
3 15 16 10
3 10 16 11
3 11 16 17
3 12 11 17
3 14 13 18
3 15 14 18
3 19 15 18
3 16 15 19
3 20 16 19
3 16 20 17
3 21 22 23
3 22 24 25
3 23 22 25
3 24 26 27
3 25 24 27
3 26 28 27
3 29 30 31
3 2 22 21
3 0 2 21
3 0 21 31
3 0 31 30
3 4 22 2
3 24 22 4
3 6 24 4
3 26 24 6
3 26 32 28
3 6 32 26
3 6 33 32
3 6 7 33
3 33 34 32
3 29 35 36
3 30 29 36
3 36 0 30
3 8 0 36
3 12 33 7
3 37 33 12
3 33 37 38
3 34 33 38
3 35 39 40
3 36 35 40
3 40 8 36
3 13 8 40
3 17 37 12
3 41 37 17
3 37 41 42
3 38 37 42
3 40 39 43
3 43 44 45
3 40 43 45
3 40 45 18
3 40 18 13
3 18 46 19
3 45 46 18
3 19 47 20
3 46 47 19
3 48 49 41
3 47 48 41
3 47 41 17
3 47 17 20
3 41 49 42
3 45 44 50
3 46 45 50
3 51 46 50
3 47 46 51
3 52 47 51
3 47 52 48
3 53 21 23
3 54 53 23
3 23 25 54
3 25 55 54
3 25 27 55
3 27 56 55
3 28 57 56
3 27 28 56
3 58 29 31
3 59 58 31
3 31 53 59
3 21 53 31
3 60 28 32
3 57 28 60
3 34 61 60
3 32 34 60
3 35 29 62
3 62 29 58
3 38 63 34
3 63 61 34
3 39 35 64
3 64 35 62
3 42 65 38
3 65 63 38
3 66 43 39
3 64 66 39
3 44 66 67
3 43 66 44
3 68 49 48
3 69 49 68
3 49 69 65
3 42 49 65
3 70 50 44
3 67 70 44
3 50 70 51
3 51 70 71
3 51 71 52
3 52 71 72
3 52 72 68
3 48 52 68
3 73 53 54
3 74 73 54
3 54 55 74
3 55 75 74
3 55 56 75
3 56 76 75
3 57 77 76
3 56 57 76
3 78 58 59
3 79 78 59
3 59 73 79
3 53 73 59
3 80 57 60
3 77 57 80
3 61 81 80
3 60 61 80
3 62 58 82
3 82 58 78
3 63 83 61
3 83 81 61
3 64 62 84
3 84 62 82
3 65 85 63
3 85 83 63
3 86 66 64
3 84 86 64
3 67 86 87
3 66 86 67
3 88 69 68
3 89 69 88
3 69 89 85
3 65 69 85
3 90 70 67
3 87 90 67
3 70 90 71
3 71 90 91
3 71 91 72
3 72 91 92
3 72 92 88
3 68 72 88
3 73 74 93
3 74 75 94
3 93 74 94
3 75 76 95
3 94 75 95
3 76 77 95
3 78 79 96
3 97 93 98
3 96 93 97
3 96 73 93
3 96 79 73
3 94 98 93
3 99 98 94
3 95 99 94
3 100 99 95
3 100 101 102
3 95 101 100
3 95 80 101
3 95 77 80
3 80 81 101
3 82 78 96
3 103 82 96
3 96 104 103
3 97 104 96
3 102 105 106
3 101 105 102
3 105 101 81
3 83 105 81
3 84 82 103
3 107 84 103
3 103 108 107
3 104 108 103
3 106 109 110
3 105 109 106
3 109 105 83
3 85 109 83
3 86 84 107
3 107 108 111
3 86 107 111
3 86 111 112
3 86 112 87
3 112 113 114
3 111 113 112
3 114 115 116
3 113 115 114
3 89 110 109
3 88 110 89
3 88 115 110
3 88 116 115
3 89 109 85
3 90 87 112
3 91 90 112
3 114 91 112
3 92 91 114
3 116 92 114
3 92 116 88
3 97 98 117
3 98 99 118
3 117 98 118
3 99 100 119
3 118 99 119
3 100 102 119
3 104 97 117
3 120 104 117
3 120 117 121
3 117 118 121
3 121 118 122
3 118 119 122
3 122 119 102
3 106 122 102
3 108 104 120
3 123 108 120
3 123 120 124
3 120 121 124
3 124 121 125
3 121 122 125
3 125 122 106
3 110 125 106
3 111 108 123
3 113 111 123
3 124 113 123
3 115 113 124
3 125 115 124
3 115 125 110
