ply
format ascii 1.0
comment VCGLIB generated
element vertex 126
property float x
property float y
property float z
element face 248
property list uchar int vertex_indices
end_header
-0.191626116633415222 0.295581609010696411 -0.5337563157081604
-0.182795092463493347 0.128323152661323547 -0.410799533128738403
-0.387786507606506348 0.13438473641872406 -0.480447888374328613
-0.169072583317756653 -0.0836500674486160278 -0.520084977149963379
-0.306512653827667236 -0.0710691064596176147 -0.5068703293800354
-0.247674420475959778 -0.43693956732749939 -0.413114786148071289
-0.299235254526138306 -0.433998763561248779 -0.442301779985427856
-0.17234627902507782 -0.465392738580703735 -0.425231873989105225
0.0967667326331138611 0.338900148868560791 -0.443458765745162964
0.0239632334560155869 0.146768614649772644 -0.423770815134048462
0.0411536470055580139 -0.0842071548104286194 -0.472253888845443726
0.0654185861349105835 -0.320784628391265869 -0.333704710006713867
0.043178904801607132 -0.540519177913665771 -0.323890328407287598
0.304525554180145264 0.267801672220230103 -0.497154325246810913
0.307447254657745361 0.208149105310440063 -0.514215350151062012
0.296634316444396973 -0.104799956083297729 -0.337606132030487061
0.300147324800491333 -0.410808056592941284 -0.268823236227035522
0.398575156927108765 -0.465117573738098145 -0.293011218309402466
0.500512540340423584 0.16035306453704834 -0.381360471248626709
0.512319028377532959 -0.0836505591869354248 -0.340782284736633301
0.537551522254943848 -0.398718506097793579 -0.284230917692184448
-0.589844107627868652 0.300057679414749146 -0.315522044897079468
-0.565166473388671875 0.226989850401878357 -0.33211207389831543
-0.558369338512420654 0.256505489349365234 -0.294389724731445312
-0.567262828350067139 -0.0418555289506912231 -0.283296108245849609
-0.562054038047790527 -0.111328877508640289 -0.242143973708152771
-0.566220700740814209 -0.415549516677856445 -0.232752665877342224
-0.551991879940032959 -0.37642359733581543 -0.195960775017738342
-0.577744543552398682 -0.427861481904983521 -0.153841540217399597
-0.226428285241127014 0.457261562347412109 -0.280529588460922241
-0.245801746845245361 0.530649542808532715 -0.351105600595474243
-0.424608737230300903 0.529273271560668945 -0.244685724377632141
-0.310883939266204834 -0.669103384017944336 -0.141690865159034729
-0.181870892643928528 -0.589232146739959717 -0.225454449653625488
-0.275365650653839111 -0.543201208114624023 -0.0331937186419963837
0.0607091709971427917 0.523970901966094971 -0.211739540100097656
0.0774522274732589722 0.542010366916656494 -0.331655621528625488
0.0804693028330802917 -0.612023472785949707 -0.206621557474136353
0.0917798802256584167 -0.609437525272369385 0.0185127686709165573
0.360162913799285889 0.537313222885131836 -0.269381791353225708
0.277262598276138306 0.540359914302825928 -0.293453812599182129
0.31897282600402832 -0.646553695201873779 -0.162361100316047668
0.303833693265914917 -0.699174284934997559 -0.00918800197541713715
0.383507102727890015 0.584555923938751221 -0.160015061497688293
0.46202397346496582 0.361841201782226562 -0.130244821310043335
0.613588869571685791 0.191582530736923218 -0.197588741779327393
0.563867747783660889 -0.0433531589806079865 -0.236887931823730469
0.566727042198181152 -0.291200935840606689 -0.199058055877685547
0.632849574089050293 -0.427868366241455078 0.00313607114367187023
0.487511366605758667 -0.649965882301330566 0.0577055327594280243
0.62961578369140625 0.273441463708877563 -0.101085573434829712
0.664835810661315918 -0.0433376803994178772 -0.123402856290340424
0.607339680194854736 -0.265595495700836182 0.0169758368283510208
-0.616732478141784668 0.345211118459701538 0.0413576029241085052
-0.613533377647399902 0.300579845905303955 0.0697278976440429688
-0.727932631969451904 -0.0793605446815490723 0.0231088288128376007
-0.52539825439453125 -0.321192502975463867 0.168199107050895691
-0.610433042049407959 -0.400976717472076416 0.170225664973258972
-0.324785053730010986 0.648287594318389893 0.0335335731506347656
-0.374464541673660278 0.589609920978546143 0.0381601937115192413
-0.372635215520858765 -0.620191276073455811 0.241456463932991028
-0.312470525503158569 -0.569009542465209961 0.171454593539237976
0.025177001953125 0.579931020736694336 -0.0189352035522460938
0.0338415652513504028 -0.515272319316864014 0.194207534193992615
0.231597200036048889 0.526108920574188232 0.113496780395507812
0.25188097357749939 -0.575457632541656494 0.273655980825424194
0.444150388240814209 0.548342764377593994 0.12703743577003479
0.520978391170501709 0.460810482501983643 0.157996088266372681
0.515431463718414307 -0.376313686370849609 0.300298392772674561
0.45786595344543457 -0.521677315235137939 0.223848164081573486
0.509241282939910889 0.320581614971160889 0.108764171600341797
0.63761448860168457 -0.0128397643566131592 0.167845815420150757
0.580726981163024902 -0.30255812406539917 0.202334359288215637
-0.664624273777008057 0.382373452186584473 0.325530856847763062
-0.735789179801940918 0.31991925835609436 0.282685309648513794
-0.744398295879364014 -0.00386211811564862728 0.397610008716583252
-0.525079190731048584 -0.181457102298736572 0.405262798070907593
-0.568741858005523682 -0.383146136999130249 0.504859805107116699
-0.265563607215881348 0.612306356430053711 0.235580086708068848
-0.495213598012924194 0.634877502918243408 0.236814454197883606
-0.44635424017906189 -0.574975967407226562 0.442734628915786743
-0.35350450873374939 -0.536014854907989502 0.54342961311340332
0.021416056901216507 0.591773867607116699 0.271302789449691772
0.0101731037721037865 -0.530055046081542969 0.56684798002243042
0.272482097148895264 0.624711573123931885 0.384453415870666504
0.293972700834274292 -0.520731866359710693 0.548566460609436035
0.328773140907287598 0.630671977996826172 0.31998741626739502
0.602316439151763916 0.425418972969055176 0.357955574989318848
0.589375913143157959 -0.387866497039794922 0.505234956741333008
0.403216958045959473 -0.543576478958129883 0.51141434907913208
0.491660714149475098 0.285479217767715454 0.433122456073760986
0.562643587589263916 0.110529825091362 0.514902651309967041
0.578138172626495361 -0.254542052745819092 0.569662809371948242
-0.680281877517700195 0.35932999849319458 0.384373217821121216
-0.583081662654876709 0.00538459792733192444 0.39751356840133667
-0.638916671276092529 -0.195083871483802795 0.496242254972457886
-0.308413058519363403 0.541575312614440918 0.364832013845443726
-0.392312139272689819 0.452683627605438232 0.551381528377532959
-0.430932462215423584 0.408124774694442749 0.646185874938964844
-0.481608986854553223 0.121683366596698761 0.63393247127532959
-0.430660247802734375 -0.228355735540390015 0.744397819042205811
-0.277080535888671875 -0.532509922981262207 0.653778433799743652
-0.376609444618225098 -0.276309818029403687 0.68623197078704834
-0.0557119175791740417 0.588091194629669189 0.468323647975921631
-0.0684027224779129028 0.54548799991607666 0.588266611099243164
-0.0785081982612609863 -0.539261281490325928 0.58958899974822998
-0.000551397155504673719 -0.286085903644561768 0.765386462211608887
0.19939422607421875 0.654229342937469482 0.41710895299911499
0.159216791391372681 0.466394364833831787 0.696572601795196533
0.194818317890167236 -0.532573461532592773 0.63908684253692627
0.191048711538314819 -0.290898978710174561 0.809481978416442871
0.290428489446640015 0.447462022304534912 0.626782894134521484
0.477742284536361694 0.326254993677139282 0.589478671550750732
0.297934800386428833 0.152583286166191101 0.708056807518005371
0.569563746452331543 0.128102615475654602 0.554208517074584961
0.313261210918426514 -0.215044260025024414 0.800151586532592773
0.466121315956115723 -0.138374939560890198 0.546372771263122559
-0.41088104248046875 0.429789990186691284 0.728073298931121826
-0.313575029373168945 0.0968833118677139282 0.774144232273101807
-0.309945881366729736 -0.134226858615875244 0.812580108642578125
-0.128309071063995361 0.322910338640213013 0.676881611347198486
-0.124730192124843597 0.172144830226898193 0.889821887016296387
-0.107862293720245361 -0.218763813376426697 0.754967153072357178
0.253058344125747681 0.350496798753738403 0.684077262878417969
0.25226593017578125 0.078463040292263031 0.823631465435028076
0.259116768836975098 -0.142645910382270813 0.705382168292999268
3 0 1 2
3 1 3 4
3 2 1 4
3 3 5 6
3 4 3 6
3 5 7 6
3 0 8 9
3 1 0 9
3 9 10 1
3 1 10 3
3 10 11 3
3 3 11 5
3 5 11 12
3 7 5 12
3 8 13 14
3 9 8 14
3 14 15 9
3 9 15 10
3 15 16 10
3 10 16 11
3 11 16 17
3 12 11 17
3 14 13 18
3 15 14 18
3 19 15 18
3 16 15 19
3 20 16 19
3 16 20 17
3 21 22 23
3 22 24 25
3 23 22 25
3 24 26 27
3 25 24 27
3 26 28 27
3 29 30 31
3 2 22 21
3 0 2 21
3 0 21 31
3 0 31 30
3 4 22 2
3 24 22 4
3 6 24 4
3 26 24 6
3 26 32 28
3 6 32 26
3 6 33 32
3 6 7 33
3 33 34 32
3 29 35 36
3 30 29 36
3 36 0 30
3 8 0 36
3 12 33 7
3 37 33 12
3 33 37 38
3 34 33 38
3 35 39 40
3 36 35 40
3 40 8 36
3 13 8 40
3 17 37 12
3 41 37 17
3 37 41 42
3 38 37 42
3 40 39 43
3 43 44 45
3 40 43 45
3 40 45 18
3 40 18 13
3 18 46 19
3 45 46 18
3 19 47 20
3 46 47 19
3 48 49 41
3 47 48 41
3 47 41 17
3 47 17 20
3 41 49 42
3 45 44 50
3 46 45 50
3 51 46 50
3 47 46 51
3 52 47 51
3 47 52 48
3 53 21 23
3 54 53 23
3 23 25 54
3 25 55 54
3 25 27 55
3 27 56 55
3 28 57 56
3 27 28 56
3 58 29 31
3 59 58 31
3 31 53 59
3 21 53 31
3 60 28 32
3 57 28 60
3 34 61 60
3 32 34 60
3 35 29 62
3 62 29 58
3 38 63 34
3 63 61 34
3 39 35 64
3 64 35 62
3 42 65 38
3 65 63 38
3 66 43 39
3 64 66 39
3 44 66 67
3 43 66 44
3 68 49 48
3 69 49 68
3 49 69 65
3 42 49 65
3 70 50 44
3 67 70 44
3 50 70 51
3 51 70 71
3 51 71 52
3 52 71 72
3 52 72 68
3 48 52 68
3 73 53 54
3 74 73 54
3 54 55 74
3 55 75 74
3 55 56 75
3 56 76 75
3 57 77 76
3 56 57 76
3 78 58 59
3 79 78 59
3 59 73 79
3 53 73 59
3 80 57 60
3 77 57 80
3 61 81 80
3 60 61 80
3 62 58 82
3 82 58 78
3 63 83 61
3 83 81 61
3 64 62 84
3 84 62 82
3 65 85 63
3 85 83 63
3 86 66 64
3 84 86 64
3 67 86 87
3 66 86 67
3 88 69 68
3 89 69 88
3 69 89 85
3 65 69 85
3 90 70 67
3 87 90 67
3 70 90 71
3 71 90 91
3 71 91 72
3 72 91 92
3 72 92 88
3 68 72 88
3 73 74 93
3 74 75 94
3 93 74 94
3 75 76 95
3 94 75 95
3 76 77 95
3 78 79 96
3 97 93 98
3 96 93 97
3 96 73 93
3 96 79 73
3 94 98 93
3 99 98 94
3 95 99 94
3 100 99 95
3 100 101 102
3 95 101 100
3 95 80 101
3 95 77 80
3 80 81 101
3 82 78 96
3 103 82 96
3 96 104 103
3 97 104 96
3 102 105 106
3 101 105 102
3 105 101 81
3 83 105 81
3 84 82 103
3 107 84 103
3 103 108 107
3 104 108 103
3 106 109 110
3 105 109 106
3 109 105 83
3 85 109 83
3 86 84 107
3 107 108 111
3 86 107 111
3 86 111 112
3 86 112 87
3 112 113 114
3 111 113 112
3 114 115 116
3 113 115 114
3 89 110 109
3 88 110 89
3 88 115 110
3 88 116 115
3 89 109 85
3 90 87 112
3 91 90 112
3 114 91 112
3 92 91 114
3 116 92 114
3 92 116 88
3 97 98 117
3 98 99 118
3 117 98 118
3 99 100 119
3 118 99 119
3 100 102 119
3 104 97 117
3 120 104 117
3 120 117 121
3 117 118 121
3 121 118 122
3 118 119 122
3 122 119 102
3 106 122 102
3 108 104 120
3 123 108 120
3 123 120 124
3 120 121 124
3 124 121 125
3 121 122 125
3 125 122 106
3 110 125 106
3 111 108 123
3 113 111 123
3 124 113 123
3 115 113 124
3 125 115 124
3 115 125 110
