ply
format ascii 1.0
comment VCGLIB generated
element vertex 126
property float x
property float y
property float z
element face 248
property list uchar int vertex_indices
end_header
-0.181903839111328125 0.279078096151351929 -0.470925480127334595
-0.176874801516532898 0.16213710606098175 -0.48572126030921936
-0.2746429443359375 0.181400910019874573 -0.524589717388153076
-0.167009994387626648 -0.0509545765817165375 -0.435061931610107422
-0.281740814447402954 -0.0695652887225151062 -0.485778331756591797
-0.169164016842842102 -0.272040396928787231 -0.380967468023300171
-0.268557220697402954 -0.285427004098892212 -0.425749927759170532
-0.180433914065361023 -0.383475303649902344 -0.377685695886611938
0.0344212837517261505 0.262803196907043457 -0.411596924066543579
0.0246709194034337997 0.157056435942649841 -0.390437275171279907
0.0483500175178050995 -0.0684385523200035095 -0.4750518798828125
0.0463193245232105255 -0.287370115518569946 -0.402151435613632202
0.0479329414665699005 -0.394339948892593384 -0.379926353693008423
0.241308853030204773 0.255489438772201538 -0.347289711236953735
0.260173797607421875 0.161837473511695862 -0.393978744745254517
0.25637054443359375 -0.0602848529815673828 -0.380937904119491577
0.261423736810684204 -0.278445571660995483 -0.365747302770614624
0.270577758550643921 -0.375034689903259277 -0.313595771789550781
0.355175018310546875 0.175282120704650879 -0.35992160439491272
0.359956115484237671 -0.0419804118573665619 -0.376387268304824829
0.366465240716934204 -0.272265881299972534 -0.324436038732528687
-0.400417327880859375 0.269430607557296753 -0.266736835241317749
-0.332825988531112671 0.172728836536407471 -0.342629581689834595
-0.387446075677871704 0.171798720955848694 -0.251035690307617188
-0.39348602294921875 -0.0379566513001918793 -0.353873580694198608
-0.428936004638671875 -0.0495134145021438599 -0.244756057858467102
-0.397616058588027954 -0.264017641544342041 -0.303042888641357422
-0.332330077886581421 -0.24265386164188385 -0.212488651275634766
-0.4108734130859375 -0.317726343870162964 -0.174475833773612976
-0.225124359130859375 0.412521213293075562 -0.229040786623954773
-0.201071426272392273 0.386288613080978394 -0.32970842719078064
-0.316308349370956421 0.431427001953125 -0.273740142583847046
-0.285523742437362671 -0.435299515724182129 -0.139098644256591797
-0.194688156247138977 -0.473256021738052368 -0.237649440765380859
-0.186939239501953125 -0.480371743440628052 -0.126273632049560547
0.000629425048828125 0.419451981782913208 -0.163866043090820312
0.00114949548151344061 0.375019341707229614 -0.270282119512557983
0.0364392586052417755 -0.477608680725097656 -0.204938575625419617
0.016845703125 -0.399095386266708374 -0.122318744659423828
0.206812545657157898 0.511762857437133789 -0.21139700710773468
0.226665496826171875 0.419789284467697144 -0.282949596643447876
0.251279205083847046 -0.449500173330307007 -0.151088237762451172
0.219515487551689148 -0.449660778045654297 -0.0407040901482105255
0.285710662603378296 0.435891270637512207 -0.165625095367431641
0.385800689458847046 0.316398918628692627 -0.128371715545654297
0.415281921625137329 0.190587922930717468 -0.183744430541992188
0.354612976312637329 -0.0241511240601539612 -0.194051578640937805
0.467586517333984375 -0.220284342765808105 -0.179364517331123352
0.45079803466796875 -0.294507533311843872 -0.0586560554802417755
0.326159149408340454 -0.424983829259872437 -0.0304907169193029404
0.315920501947402954 0.227646291255950928 -0.136602088809013367
0.389255523681640625 0.0148161640390753746 -0.1047515869140625
0.414777129888534546 -0.19805455207824707 -0.0958180427551269531
-0.454340606927871704 0.313736647367477417 -0.0440123863518238068
-0.488444000482559204 0.212028875946998596 -0.0733183249831199646
-0.444164276123046875 -0.0225937161594629288 -0.0260386466979980469
-0.298638671636581421 -0.184062525629997253 0.0101672811433672905
-0.31038665771484375 -0.28931090235710144 0.0258165989071130753
-0.293701171875 0.554016411304473877 -0.0678162574768066406
-0.356928497552871704 0.464459627866744995 -0.0451051406562328339
-0.326716095209121704 -0.45310521125793457 0.0744970664381980896
-0.247562408447265625 -0.37382170557975769 0.0736077651381492615
-0.073687233030796051 0.58046799898147583 -0.0179994907230138779
-0.03864288330078125 -0.33006247878074646 0.108831882476806641
0.178609207272529602 0.601922214031219482 0.0147824287414550781
0.181418105959892273 -0.336795598268508911 0.149775505065917969
0.20105743408203125 0.496116161346435547 0.0283918380737304688
0.309307098388671875 0.360238552093505859 0.0871408805251121521
0.414736419916152954 -0.225950345396995544 0.154254749417304993
0.295450836420059204 -0.35901835560798645 0.190312549471855164
0.255466461181640625 0.271854668855667114 0.0853142738342285156
0.330560058355331421 0.0751573070883750916 0.0850979462265968323
0.414628356695175171 -0.124400056898593903 0.11464325338602066
-0.394945770502090454 0.249249473214149475 0.160210922360420227
-0.490992218255996704 0.203848496079444885 0.16364462673664093
-0.492443084716796875 -0.0121279964223504066 0.212058708071708679
-0.367153167724609375 -0.192339912056922913 0.246345207095146179
-0.273553222417831421 -0.207012057304382324 0.236558601260185242
-0.38019561767578125 0.590614676475524902 0.156722232699394226
-0.350657135248184204 0.464934736490249634 0.150605678558349609
-0.350971221923828125 -0.367494910955429077 0.298816680908203125
-0.283847808837890625 -0.326949566602706909 0.307191699743270874
-0.142964676022529602 0.65639573335647583 0.187799930572509766
-0.084311164915561676 -0.239404216408729553 0.317183166742324829
0.103319801390171051 0.639558970928192139 0.236260101199150085
0.138312026858329773 -0.291930139064788818 0.370026439428329468
0.155295059084892273 0.546679675579071045 0.249295547604560852
0.223232269287109375 0.395947694778442383 0.285847187042236328
0.333522796630859375 -0.132629424333572388 0.361721843481063843
0.223311111330986023 -0.246708467602729797 0.361978858709335327
0.23412322998046875 0.303378015756607056 0.319777160882949829
0.354078918695449829 0.14976869523525238 0.301931858062744141
0.337842315435409546 -0.05423717200756073 0.307279109954833984
-0.478617340326309204 0.239118799567222595 0.279830127954483032
-0.467071533203125 0.0366123244166374207 0.346570491790771484
-0.299807220697402954 -0.0936101898550987244 0.313171863555908203
-0.333300262689590454 0.515008389949798584 0.248179912567138672
-0.346644073724746704 0.461389690637588501 0.410995006561279297
-0.422365814447402954 0.338690996170043945 0.419131278991699219
-0.385344177484512329 0.140233337879180908 0.497043222188949585
-0.395799010992050171 -0.0839875340461730957 0.464114516973495483
-0.299352020025253296 -0.344064205884933472 0.431620597839355469
-0.340595245361328125 -0.173065051436424255 0.558150708675384521
-0.119185127317905426 0.617789328098297119 0.325737148523330688
-0.1443939208984375 0.534182906150817871 0.477957248687744141
-0.095086418092250824 -0.214385464787483215 0.432001262903213501
-0.131992340087890625 -0.120252914726734161 0.59332585334777832
0.099889121949672699 0.612881481647491455 0.358138412237167358
0.093251548707485199 0.548220217227935791 0.529809236526489258
0.1190338134765625 -0.255468219518661499 0.468998104333877563
0.0596033744513988495 -0.110052675008773804 0.522005736827850342
0.145303085446357727 0.416454672813415527 0.538244903087615967
0.28277587890625 0.389058589935302734 0.405732303857803345
0.081773124635219574 0.199793234467506409 0.470892757177352905
0.256483703851699829 0.165036782622337341 0.391677230596542358
0.068363189697265625 -0.0326628275215625763 0.414141803979873657
0.240648910403251648 -0.0622386597096920013 0.354657500982284546
-0.353326171636581421 0.411350339651107788 0.49810028076171875
-0.340559631586074829 0.190001025795936584 0.591658294200897217
-0.366886138916015625 -0.0543371327221393585 0.558591842651367188
-0.117220558226108551 0.410922884941101074 0.440246105194091797
-0.12158966064453125 0.206844151020050049 0.508406221866607666
-0.118979133665561676 -0.0183020550757646561 0.611988961696624756
0.110627494752407074 0.462025552988052368 0.447651058435440063
0.109060920774936676 0.186457023024559021 0.454559803009033203
0.080298103392124176 -0.0212376546114683151 0.514382660388946533
3 0 1 2
3 1 3 4
3 2 1 4
3 3 5 6
3 4 3 6
3 5 7 6
3 0 8 9
3 1 0 9
3 9 10 1
3 1 10 3
3 10 11 3
3 3 11 5
3 5 11 12
3 7 5 12
3 8 13 14
3 9 8 14
3 14 15 9
3 9 15 10
3 15 16 10
3 10 16 11
3 11 16 17
3 12 11 17
3 14 13 18
3 15 14 18
3 19 15 18
3 16 15 19
3 20 16 19
3 16 20 17
3 21 22 23
3 22 24 25
3 23 22 25
3 24 26 27
3 25 24 27
3 26 28 27
3 29 30 31
3 2 22 21
3 0 2 21
3 0 21 31
3 0 31 30
3 4 22 2
3 24 22 4
3 6 24 4
3 26 24 6
3 26 32 28
3 6 32 26
3 6 33 32
3 6 7 33
3 33 34 32
3 29 35 36
3 30 29 36
3 36 0 30
3 8 0 36
3 12 33 7
3 37 33 12
3 33 37 38
3 34 33 38
3 35 39 40
3 36 35 40
3 40 8 36
3 13 8 40
3 17 37 12
3 41 37 17
3 37 41 42
3 38 37 42
3 40 39 43
3 43 44 45
3 40 43 45
3 40 45 18
3 40 18 13
3 18 46 19
3 45 46 18
3 19 47 20
3 46 47 19
3 48 49 41
3 47 48 41
3 47 41 17
3 47 17 20
3 41 49 42
3 45 44 50
3 46 45 50
3 51 46 50
3 47 46 51
3 52 47 51
3 47 52 48
3 53 21 23
3 54 53 23
3 23 25 54
3 25 55 54
3 25 27 55
3 27 56 55
3 28 57 56
3 27 28 56
3 58 29 31
3 59 58 31
3 31 53 59
3 21 53 31
3 60 28 32
3 57 28 60
3 34 61 60
3 32 34 60
3 35 29 62
3 62 29 58
3 38 63 34
3 63 61 34
3 39 35 64
3 64 35 62
3 42 65 38
3 65 63 38
3 66 43 39
3 64 66 39
3 44 66 67
3 43 66 44
3 68 49 48
3 69 49 68
3 49 69 65
3 42 49 65
3 70 50 44
3 67 70 44
3 50 70 51
3 51 70 71
3 51 71 52
3 52 71 72
3 52 72 68
3 48 52 68
3 73 53 54
3 74 73 54
3 54 55 74
3 55 75 74
3 55 56 75
3 56 76 75
3 57 77 76
3 56 57 76
3 78 58 59
3 79 78 59
3 59 73 79
3 53 73 59
3 80 57 60
3 77 57 80
3 61 81 80
3 60 61 80
3 62 58 82
3 82 58 78
3 63 83 61
3 83 81 61
3 64 62 84
3 84 62 82
3 65 85 63
3 85 83 63
3 86 66 64
3 84 86 64
3 67 86 87
3 66 86 67
3 88 69 68
3 89 69 88
3 69 89 85
3 65 69 85
3 90 70 67
3 87 90 67
3 70 90 71
3 71 90 91
3 71 91 72
3 72 91 92
3 72 92 88
3 68 72 88
3 73 74 93
3 74 75 94
3 93 74 94
3 75 76 95
3 94 75 95
3 76 77 95
3 78 79 96
3 97 93 98
3 96 93 97
3 96 73 93
3 96 79 73
3 94 98 93
3 99 98 94
3 95 99 94
3 100 99 95
3 100 101 102
3 95 101 100
3 95 80 101
3 95 77 80
3 80 81 101
3 82 78 96
3 103 82 96
3 96 104 103
3 97 104 96
3 102 105 106
3 101 105 102
3 105 101 81
3 83 105 81
3 84 82 103
3 107 84 103
3 103 108 107
3 104 108 103
3 106 109 110
3 105 109 106
3 109 105 83
3 85 109 83
3 86 84 107
3 107 108 111
3 86 107 111
3 86 111 112
3 86 112 87
3 112 113 114
3 111 113 112
3 114 115 116
3 113 115 114
3 89 110 109
3 88 110 89
3 88 115 110
3 88 116 115
3 89 109 85
3 90 87 112
3 91 90 112
3 114 91 112
3 92 91 114
3 116 92 114
3 92 116 88
3 97 98 117
3 98 99 118
3 117 98 118
3 99 100 119
3 118 99 119
3 100 102 119
3 104 97 117
3 120 104 117
3 120 117 121
3 117 118 121
3 121 118 122
3 118 119 122
3 122 119 102
3 106 122 102
3 108 104 120
3 123 108 120
3 123 120 124
3 120 121 124
3 124 121 125
3 121 122 125
3 125 122 106
3 110 125 106
3 111 108 123
3 113 111 123
3 124 113 123
3 115 113 124
3 125 115 124
3 115 125 110
