ply
format ascii 1.0
comment VCGLIB generated
element vertex 126
property float x
property float y
property float z
element face 248
property list uchar int vertex_indices
end_header
-0.172471359372138977 0.261686086654663086 -0.476327270269393921
-0.15451812744140625 0.166839703917503357 -0.441694587469100952
-0.231942489743232727 0.148561149835586548 -0.504834651947021484
-0.178131103515625 -0.0441431589424610138 -0.361094474792480469
-0.259654998779296875 -0.0632476136088371277 -0.408020496368408203
-0.179789230227470398 -0.265362054109573364 -0.445253372192382812
-0.287405639886856079 -0.287139028310775757 -0.381107479333877563
-0.199803665280342102 -0.379649430513381958 -0.408383369445800781
0.00980885792523622513 0.21911601722240448 -0.408994525671005249
0.0330187492072582245 0.164454802870750427 -0.376800060272216797
0.0311190281063318253 -0.0721950531005859375 -0.407442718744277954
0.0255101528018712997 -0.300443679094314575 -0.365736812353134155
0.0348676033318042755 -0.395824700593948364 -0.419321209192276001
0.224280044436454773 0.207431510090827942 -0.397065639495849609
0.293997436761856079 0.125788211822509766 -0.425621658563613892
0.255781799554824829 -0.0575344376266002655 -0.35171160101890564
0.256053924560546875 -0.290457397699356079 -0.338775157928466797
0.257905334234237671 -0.39337003231048584 -0.366389751434326172
0.368377685546875 0.151312261819839478 -0.444664955139160156
0.3030853271484375 -0.054529096931219101 -0.415307372808456421
0.352818816900253296 -0.288025051355361938 -0.385443061590194702
-0.373907715082168579 0.241073325276374817 -0.26241031289100647
-0.3964691162109375 0.165088608860969543 -0.370431274175643921
-0.45137786865234375 0.138211920857429504 -0.290174961090087891
-0.404804229736328125 -0.0572405867278575897 -0.357434600591659546
-0.348690032958984375 -0.0773641243577003479 -0.281900882720947266
-0.347891479730606079 -0.247936055064201355 -0.243754550814628601
-0.403010040521621704 -0.280876070261001587 -0.211897537112236023
-0.444262176752090454 -0.36598852276802063 -0.215737029910087585
-0.1785888671875 0.300799697637557983 -0.301769107580184937
-0.18041229248046875 0.391728430986404419 -0.409491389989852905
-0.30115509033203125 0.363370746374130249 -0.330470085144042969
-0.3192138671875 -0.510276734828948975 -0.195149585604667664
-0.169577285647392273 -0.501425862312316895 -0.279914706945419312
-0.206006363034248352 -0.482816100120544434 -0.18191210925579071
0.0394134521484375 0.290574103593826294 -0.310573428869247437
0.062754310667514801 0.364753454923629761 -0.423644870519638062
0.01581573486328125 -0.474144846200942993 -0.247554942965507507
0.0121065778657793999 -0.542023301124572754 -0.117984451353549957
0.276925414800643921 0.35563930869102478 -0.307099819183349609
0.234612777829170227 0.391018033027648926 -0.35771670937538147
0.23062896728515625 -0.51062387228012085 -0.201962783932685852
0.215527847409248352 -0.464061826467514038 -0.088141120970249176
0.342350006103515625 0.422847241163253784 -0.277974456548690796
0.431055694818496704 0.291940987110137939 -0.222660854458808899
0.422801971435546875 0.14762568473815918 -0.271714836359024048
0.280771881341934204 -0.0197568368166685104 -0.216221168637275696
0.378537505865097046 -0.208071663975715637 -0.229479789733886719
0.414178222417831421 -0.315387159585952759 -0.116391979157924652
0.329339355230331421 -0.435996085405349731 -0.0760795250535011292
0.378421783447265625 0.211155295372009277 -0.185131862759590149
0.396425873041152954 -0.0139314271509647369 -0.147187545895576477
0.348725646734237671 -0.234882459044456482 -0.123573780059814453
-0.447132110595703125 0.289957374334335327 -0.090573631227016449
-0.400094360113143921 0.172338947653770447 -0.126422569155693054
-0.29737091064453125 -0.0537125431001186371 -0.0558169670403003693
-0.424816131591796875 -0.261606425046920776 0.00809192657470703125
-0.416292816400527954 -0.351875394582748413 0.0276927947998046875
-0.235165908932685852 0.35863223671913147 -0.0988937988877296448
-0.306410461664199829 0.402794241905212402 -0.091724395751953125
-0.314997345209121704 -0.466297507286071777 0.0253187809139490128
-0.235800430178642273 -0.430163353681564331 0.072566986083984375
-0.0101318359375 0.436907202005386353 -0.103837966918945312
-0.0314623527228832245 -0.384287625551223755 0.0667920112609863281
0.223847702145576477 0.402636408805847168 -0.0759997367858886719
0.190334320068359375 -0.382512301206588745 0.111330509185791016
0.332564026117324829 0.428696304559707642 -0.0377453155815601349
0.479356139898300171 0.311831921339035034 -0.0255060195922851562
0.429342895746231079 -0.257927179336547852 0.118699073791503906
0.330342620611190796 -0.413459897041320801 0.140059158205986023
0.450589507818222046 0.230684354901313782 0.016825040802359581
0.43976593017578125 -0.000101953213743399829 0.0710299834609031677
0.3678131103515625 -0.180945292115211487 0.0902865752577781677
-0.476001739501953125 0.313681095838546753 0.101278781890869141
-0.406247466802597046 0.226187840104103088 0.120827995240688324
-0.366180419921875 0.0229473244398832321 0.153971835970878601
-0.436648041009902954 -0.161451995372772217 0.192886188626289368
-0.317195892333984375 -0.225131511688232422 0.187340572476387024
-0.265818268060684204 0.368948310613632202 0.14025115966796875
-0.332838684320449829 0.448819607496261597 0.113645397126674652
-0.325539916753768921 -0.445315241813659668 0.27792629599571228
-0.244862869381904602 -0.514529645442962646 0.315393298864364624
-0.029483795166015625 0.37525668740272522 0.119410835206508636
-0.060024261474609375 -0.376708358526229858 0.328423351049423218
0.19937896728515625 0.397105008363723755 0.136303901672363281
0.151650741696357727 -0.334612250328063965 0.314880996942520142
0.29862213134765625 0.430488735437393188 0.154094696044921875
0.438111633062362671 0.364172935485839844 0.209810569882392883
0.431493133306503296 -0.2478303462266922 0.34673723578453064
0.274068206548690796 -0.317753016948699951 0.309081703424453735
0.445383697748184204 0.247987985610961914 0.225184604525566101
0.4458160400390625 0.0380463562905788422 0.290837764739990234
0.391412109136581421 -0.158050760626792908 0.295814663171768188
-0.447836548089981079 0.222398057579994202 0.204182460904121399
-0.324048370122909546 0.0242271628230810165 0.233375072479248047
-0.413954406976699829 -0.178336098790168762 0.279557228088378906
-0.24323272705078125 0.462397724390029907 0.185415908694267273
-0.262376159429550171 0.382710069417953491 0.364343494176864624
-0.369023650884628296 0.283667236566543579 0.352112770080566406
-0.355309814214706421 0.0516480915248394012 0.400785595178604126
-0.345427185297012329 -0.206642225384712219 0.409717559814453125
-0.325224548578262329 -0.491289138793945312 0.451579421758651733
-0.281380981206893921 -0.301590532064437866 0.513027369976043701
-0.0169652309268712997 0.459300607442855835 0.252670139074325562
-0.029033660888671875 0.37521013617515564 0.403594493865966797
-0.0501581840217113495 -0.468861013650894165 0.430089473724365234
-0.0623728446662425995 -0.30237695574760437 0.474426120519638062
0.141167953610420227 0.3863067626953125 0.20836322009563446
0.16329193115234375 0.26640552282333374 0.339569091796875
0.165841415524482727 -0.357111066579818726 0.429953902959823608
0.161473587155342102 -0.234168663620948792 0.496778964996337891
0.258630126714706421 0.290760010480880737 0.423219531774520874
0.411769866943359375 0.294654041528701782 0.306955963373184204
0.242893218994140625 0.0497906245291233063 0.410313278436660767
0.396711975336074829 0.0782003477215766907 0.344058364629745483
0.234877273440361023 -0.109013497829437256 0.42081180214881897
0.401791900396347046 -0.133512511849403381 0.401146888732910156
-0.257241576910018921 0.290636241436004639 0.431462138891220093
-0.271035522222518921 0.0411251373589038849 0.433472633361816406
-0.235060378909111023 -0.155407935380935669 0.504863440990447998
-0.05377960205078125 0.29439130425453186 0.383616447448730469
-0.052947998046875 0.0499149896204471588 0.367839962244033813
-0.069834388792514801 -0.215588554739952087 0.355812549591064453
0.196481063961982727 0.291825324296951294 0.29610094428062439
0.168598175048828125 0.0912990197539329529 0.393655300140380859
0.139190673828125 -0.159986779093742371 0.410497337579727173
3 0 1 2
3 1 3 4
3 2 1 4
3 3 5 6
3 4 3 6
3 5 7 6
3 0 8 9
3 1 0 9
3 9 10 1
3 1 10 3
3 10 11 3
3 3 11 5
3 5 11 12
3 7 5 12
3 8 13 14
3 9 8 14
3 14 15 9
3 9 15 10
3 15 16 10
3 10 16 11
3 11 16 17
3 12 11 17
3 14 13 18
3 15 14 18
3 19 15 18
3 16 15 19
3 20 16 19
3 16 20 17
3 21 22 23
3 22 24 25
3 23 22 25
3 24 26 27
3 25 24 27
3 26 28 27
3 29 30 31
3 2 22 21
3 0 2 21
3 0 21 31
3 0 31 30
3 4 22 2
3 24 22 4
3 6 24 4
3 26 24 6
3 26 32 28
3 6 32 26
3 6 33 32
3 6 7 33
3 33 34 32
3 29 35 36
3 30 29 36
3 36 0 30
3 8 0 36
3 12 33 7
3 37 33 12
3 33 37 38
3 34 33 38
3 35 39 40
3 36 35 40
3 40 8 36
3 13 8 40
3 17 37 12
3 41 37 17
3 37 41 42
3 38 37 42
3 40 39 43
3 43 44 45
3 40 43 45
3 40 45 18
3 40 18 13
3 18 46 19
3 45 46 18
3 19 47 20
3 46 47 19
3 48 49 41
3 47 48 41
3 47 41 17
3 47 17 20
3 41 49 42
3 45 44 50
3 46 45 50
3 51 46 50
3 47 46 51
3 52 47 51
3 47 52 48
3 53 21 23
3 54 53 23
3 23 25 54
3 25 55 54
3 25 27 55
3 27 56 55
3 28 57 56
3 27 28 56
3 58 29 31
3 59 58 31
3 31 53 59
3 21 53 31
3 60 28 32
3 57 28 60
3 34 61 60
3 32 34 60
3 35 29 62
3 62 29 58
3 38 63 34
3 63 61 34
3 39 35 64
3 64 35 62
3 42 65 38
3 65 63 38
3 66 43 39
3 64 66 39
3 44 66 67
3 43 66 44
3 68 49 48
3 69 49 68
3 49 69 65
3 42 49 65
3 70 50 44
3 67 70 44
3 50 70 51
3 51 70 71
3 51 71 52
3 52 71 72
3 52 72 68
3 48 52 68
3 73 53 54
3 74 73 54
3 54 55 74
3 55 75 74
3 55 56 75
3 56 76 75
3 57 77 76
3 56 57 76
3 78 58 59
3 79 78 59
3 59 73 79
3 53 73 59
3 80 57 60
3 77 57 80
3 61 81 80
3 60 61 80
3 62 58 82
3 82 58 78
3 63 83 61
3 83 81 61
3 64 62 84
3 84 62 82
3 65 85 63
3 85 83 63
3 86 66 64
3 84 86 64
3 67 86 87
3 66 86 67
3 88 69 68
3 89 69 88
3 69 89 85
3 65 69 85
3 90 70 67
3 87 90 67
3 70 90 71
3 71 90 91
3 71 91 72
3 72 91 92
3 72 92 88
3 68 72 88
3 73 74 93
3 74 75 94
3 93 74 94
3 75 76 95
3 94 75 95
3 76 77 95
3 78 79 96
3 97 93 98
3 96 93 97
3 96 73 93
3 96 79 73
3 94 98 93
3 99 98 94
3 95 99 94
3 100 99 95
3 100 101 102
3 95 101 100
3 95 80 101
3 95 77 80
3 80 81 101
3 82 78 96
3 103 82 96
3 96 104 103
3 97 104 96
3 102 105 106
3 101 105 102
3 105 101 81
3 83 105 81
3 84 82 103
3 107 84 103
3 103 108 107
3 104 108 103
3 106 109 110
3 105 109 106
3 109 105 83
3 85 109 83
3 86 84 107
3 107 108 111
3 86 107 111
3 86 111 112
3 86 112 87
3 112 113 114
3 111 113 112
3 114 115 116
3 113 115 114
3 89 110 109
3 88 110 89
3 88 115 110
3 88 116 115
3 89 109 85
3 90 87 112
3 91 90 112
3 114 91 112
3 92 91 114
3 116 92 114
3 92 116 88
3 97 98 117
3 98 99 118
3 117 98 118
3 99 100 119
3 118 99 119
3 100 102 119
3 104 97 117
3 120 104 117
3 120 117 121
3 117 118 121
3 121 118 122
3 118 119 122
3 122 119 102
3 106 122 102
3 108 104 120
3 123 108 120
3 123 120 124
3 120 121 124
3 124 121 125
3 121 122 125
3 125 122 106
3 110 125 106
3 111 108 123
3 113 111 123
3 124 113 123
3 115 113 124
3 125 115 124
3 115 125 110
