ply
format ascii 1.0
comment VCGLIB generated
element vertex 126
property float x
property float y
property float z
element face 248
property list uchar int vertex_indices
end_header
-0.164789721369743347 0.139465019106864929 -0.46388322114944458
-0.138808161020278931 0.136459782719612122 -0.322914332151412964
-0.15655517578125 0.160845711827278137 -0.383436232805252075
-0.154892310500144958 -0.0430025868117809296 -0.488107204437255859
-0.160116717219352722 -0.0401973836123943329 -0.408332347869873047
-0.183048248291015625 -0.19483417272567749 -0.344503134489059448
-0.0951593518257141113 -0.240458294749259949 -0.391505181789398193
-0.111827850341796875 -0.150544673204421997 -0.300503849983215332
-0.0158361960202455521 0.143104434013366699 -0.380084723234176636
0.016540180891752243 0.140152096748352051 -0.306891739368438721
0.0325775146484375 -0.0439255163073539734 -0.425846576690673828
0.01873016357421875 -0.244750350713729858 -0.406521886587142944
0.00142184167634695768 -0.304005146026611328 -0.354541867971420288
0.207028821110725403 0.146079599857330322 -0.367757827043533325
0.221985891461372375 0.121494963765144348 -0.295627117156982422
0.24471282958984375 -0.0549267642199993134 -0.347295463085174561
0.172566503286361694 -0.232616230845451355 -0.293121129274368286
0.19985024631023407 -0.311144828796386719 -0.338751614093780518
0.235160470008850098 0.158696487545967102 -0.207609474658966064
0.260580241680145264 -0.00901624280959367752 -0.289464414119720459
0.281810760498046875 -0.221231386065483093 -0.314580947160720825
-0.386354267597198486 0.191235944628715515 -0.277225762605667114
-0.343423306941986084 0.131283283233642578 -0.365541845560073853
-0.294269204139709473 0.158694937825202942 -0.311091810464859009
-0.298057883977890015 -0.0608288943767547607 -0.33957827091217041
-0.252659529447555542 -0.0466824397444725037 -0.253303259611129761
-0.169242501258850098 -0.209837570786476135 -0.270326346158981323
-0.187175050377845764 -0.226972773671150208 -0.194382011890411377
-0.273380279541015625 -0.291045695543289185 -0.245778128504753113
-0.194031104445457458 0.31208232045173645 -0.318464130163192749
-0.159143969416618347 0.257631093263626099 -0.394329577684402466
-0.2780914306640625 0.289433211088180542 -0.343635737895965576
-0.164422124624252319 -0.415791630744934082 -0.166713759303092957
-0.171924933791160583 -0.283315926790237427 -0.162312984466552734
-0.168375536799430847 -0.378235578536987305 -0.138922601938247681
-0.00188133923802524805 0.221361681818962097 -0.305478364229202271
0.051937103271484375 0.25973588228225708 -0.367870986461639404
-0.0142600312829017639 -0.379128366708755493 -0.205354034900665283
-8.32297591841779649e-05 -0.35044059157371521 -0.104811623692512512
0.137394994497299194 0.347097545862197876 -0.289143860340118408
0.210196748375892639 0.324263274669647217 -0.356321990489959717
0.190781682729721069 -0.374321967363357544 -0.207715466618537903
0.202048897743225098 -0.376236617565155029 -0.133147016167640686
0.164064928889274597 0.260367244482040405 -0.276213765144348145
0.363700151443481445 0.192745596170425415 -0.279615134000778198
0.374684751033782959 0.111673787236213684 -0.245001092553138733
0.29987335205078125 -0.0532793030142784119 -0.112655378878116608
0.423441797494888306 -0.216816246509552002 -0.245576977729797363
0.397520929574966431 -0.209087729454040527 -0.118471056222915649
0.304430186748504639 -0.336954981088638306 -0.162401407957077026
0.285452067852020264 0.176528409123420715 -0.201621264219284058
0.312777429819107056 -0.00666324514895677567 -0.209924951195716858
0.327032268047332764 -0.200344637036323547 -0.213190421462059021
-0.295429229736328125 0.12930665910243988 -0.0853022634983062744
-0.388712435960769653 0.141303449869155884 -0.133516564965248108
-0.349150568246841431 -0.0341927111148834229 -0.0751566886901855469
-0.331216275691986084 -0.194809675216674805 -0.0336020626127719879
-0.320347875356674194 -0.276974081993103027 -0.0698562115430831909
-0.175417110323905945 0.331092089414596558 -0.130797073245048523
-0.2079010009765625 0.242700055241584778 -0.133127510547637939
-0.200139820575714111 -0.270740777254104614 0.00341502088122069836
-0.130608290433883667 -0.259813040494918823 -0.0203613787889480591
0.00511342799291014671 0.268357992172241211 -0.116139538586139679
0.00320781348273158073 -0.197733402252197266 0.0509840771555900574
0.176511242985725403 0.338381588459014893 -0.12611757218837738
0.215079560875892639 -0.273669064044952393 0.0627810284495353699
0.211226716637611389 0.282257676124572754 -0.0637581124901771545
0.372704595327377319 0.259808123111724854 -0.044768940657377243
0.30616411566734314 -0.208296969532966614 0.032176971435546875
0.262421697378158569 -0.363150835037231445 0.0364134535193443298
0.389028012752532959 0.191767275333404541 -0.029298609122633934
0.236863210797309875 0.0148104671388864517 -0.0239289887249469757
0.371178716421127319 -0.140954896807670593 0.00148838211316615343
-0.390552163124084473 0.301228433847427368 0.0384785905480384827
-0.364598363637924194 0.217754825949668884 0.0603922903537750244
-0.301390558481216431 0.02955668605864048 0.103783823549747467
-0.428319394588470459 -0.132361546158790588 0.103979542851448059
-0.333759993314743042 -0.187719196081161499 0.132416591048240662
-0.162233874201774597 0.304036229848861694 0.064547710120677948
-0.233553096652030945 0.372610330581665039 0.0501972958445549011
-0.256777673959732056 -0.287360310554504395 0.165890991687774658
-0.184105962514877319 -0.311916142702102661 0.156922981142997742
-0.00654393946751952171 0.183831736445426941 0.0656260102987289429
-0.0386948995292186737 -0.268794417381286621 0.260539263486862183
0.168880105018615723 0.345456033945083618 0.0967274978756904602
0.145449206233024597 -0.398567825555801392 0.216637089848518372
0.206584930419921875 0.420258015394210815 0.0965417474508285522
0.305754929780960083 0.30165526270866394 0.166567012667655945
0.346258342266082764 -0.22712390124797821 0.247334778308868408
0.260826438665390015 -0.367361217737197876 0.219907969236373901
0.261596322059631348 0.247122883796691895 0.129795506596565247
0.24241359531879425 0.0372141227126121521 0.200682550668716431
0.303043007850646973 -0.144118174910545349 0.186463266611099243
-0.382149428129196167 0.175102859735488892 0.122269496321678162
-0.343719810247421265 0.0179048553109169006 0.182140082120895386
-0.420941442251205444 -0.133313700556755066 0.221187412738800049
-0.171132519841194153 0.381861329078674316 0.13000856339931488
-0.190942928194999695 0.295295923948287964 0.236644089221954346
-0.291304141283035278 0.258411675691604614 0.161146685481071472
-0.306895852088928223 0.112969197332859039 0.312167078256607056
-0.272830605506896973 -0.0874256044626235962 0.263009935617446899
-0.232101783156394958 -0.343502819538116455 0.276793569326400757
-0.233958840370178223 -0.210547327995300293 0.261231333017349243
-0.0269369632005691528 0.279422193765640259 0.109318599104881287
-0.0426916629076004028 0.218308001756668091 0.262302041053771973
0.004329681396484375 -0.335845381021499634 0.30791434645652771
-0.07976531982421875 -0.19405113160610199 0.234334677457809448
0.0927214175462722778 0.374305933713912964 0.129632517695426941
0.140649616718292236 0.294217020273208618 0.247346922755241394
0.160203412175178528 -0.338244199752807617 0.295413196086883545
0.081806182861328125 -0.185473769903182983 0.332110792398452759
0.213730543851852417 0.237649857997894287 0.340717703104019165
0.3325653076171875 0.231472328305244446 0.23452325165271759
0.174782484769821167 0.0159029662609100342 0.265800744295120239
0.334961622953414917 0.0330004282295703888 0.238212019205093384
0.207105115056037903 -0.148364797234535217 0.410536408424377441
0.229917004704475403 -0.14750179648399353 0.282192021608352661
-0.272658944129943848 0.249008312821388245 0.232437729835510254
-0.234491169452667236 0.0937042683362960815 0.32156488299369812
-0.195739045739173889 -0.100543960928916931 0.256886273622512817
-0.0765141546726226807 0.231045052409172058 0.189893022179603577
-0.0754287019371986389 0.0218462813645601273 0.266574949026107788
-0.0552871003746986389 -0.131964579224586487 0.352750480175018311
0.108085975050926208 0.21897241473197937 0.27905920147895813
0.110825620591640472 0.0249818358570337296 0.265393048524856567
0.142647132277488708 -0.13458368182182312 0.353849798440933228
3 0 1 2
3 1 3 4
3 2 1 4
3 3 5 6
3 4 3 6
3 5 7 6
3 0 8 9
3 1 0 9
3 9 10 1
3 1 10 3
3 10 11 3
3 3 11 5
3 5 11 12
3 7 5 12
3 8 13 14
3 9 8 14
3 14 15 9
3 9 15 10
3 15 16 10
3 10 16 11
3 11 16 17
3 12 11 17
3 14 13 18
3 15 14 18
3 19 15 18
3 16 15 19
3 20 16 19
3 16 20 17
3 21 22 23
3 22 24 25
3 23 22 25
3 24 26 27
3 25 24 27
3 26 28 27
3 29 30 31
3 2 22 21
3 0 2 21
3 0 21 31
3 0 31 30
3 4 22 2
3 24 22 4
3 6 24 4
3 26 24 6
3 26 32 28
3 6 32 26
3 6 33 32
3 6 7 33
3 33 34 32
3 29 35 36
3 30 29 36
3 36 0 30
3 8 0 36
3 12 33 7
3 37 33 12
3 33 37 38
3 34 33 38
3 35 39 40
3 36 35 40
3 40 8 36
3 13 8 40
3 17 37 12
3 41 37 17
3 37 41 42
3 38 37 42
3 40 39 43
3 43 44 45
3 40 43 45
3 40 45 18
3 40 18 13
3 18 46 19
3 45 46 18
3 19 47 20
3 46 47 19
3 48 49 41
3 47 48 41
3 47 41 17
3 47 17 20
3 41 49 42
3 45 44 50
3 46 45 50
3 51 46 50
3 47 46 51
3 52 47 51
3 47 52 48
3 53 21 23
3 54 53 23
3 23 25 54
3 25 55 54
3 25 27 55
3 27 56 55
3 28 57 56
3 27 28 56
3 58 29 31
3 59 58 31
3 31 53 59
3 21 53 31
3 60 28 32
3 57 28 60
3 34 61 60
3 32 34 60
3 35 29 62
3 62 29 58
3 38 63 34
3 63 61 34
3 39 35 64
3 64 35 62
3 42 65 38
3 65 63 38
3 66 43 39
3 64 66 39
3 44 66 67
3 43 66 44
3 68 49 48
3 69 49 68
3 49 69 65
3 42 49 65
3 70 50 44
3 67 70 44
3 50 70 51
3 51 70 71
3 51 71 52
3 52 71 72
3 52 72 68
3 48 52 68
3 73 53 54
3 74 73 54
3 54 55 74
3 55 75 74
3 55 56 75
3 56 76 75
3 57 77 76
3 56 57 76
3 78 58 59
3 79 78 59
3 59 73 79
3 53 73 59
3 80 57 60
3 77 57 80
3 61 81 80
3 60 61 80
3 62 58 82
3 82 58 78
3 63 83 61
3 83 81 61
3 64 62 84
3 84 62 82
3 65 85 63
3 85 83 63
3 86 66 64
3 84 86 64
3 67 86 87
3 66 86 67
3 88 69 68
3 89 69 88
3 69 89 85
3 65 69 85
3 90 70 67
3 87 90 67
3 70 90 71
3 71 90 91
3 71 91 72
3 72 91 92
3 72 92 88
3 68 72 88
3 73 74 93
3 74 75 94
3 93 74 94
3 75 76 95
3 94 75 95
3 76 77 95
3 78 79 96
3 97 93 98
3 96 93 97
3 96 73 93
3 96 79 73
3 94 98 93
3 99 98 94
3 95 99 94
3 100 99 95
3 100 101 102
3 95 101 100
3 95 80 101
3 95 77 80
3 80 81 101
3 82 78 96
3 103 82 96
3 96 104 103
3 97 104 96
3 102 105 106
3 101 105 102
3 105 101 81
3 83 105 81
3 84 82 103
3 107 84 103
3 103 108 107
3 104 108 103
3 106 109 110
3 105 109 106
3 109 105 83
3 85 109 83
3 86 84 107
3 107 108 111
3 86 107 111
3 86 111 112
3 86 112 87
3 112 113 114
3 111 113 112
3 114 115 116
3 113 115 114
3 89 110 109
3 88 110 89
3 88 115 110
3 88 116 115
3 89 109 85
3 90 87 112
3 91 90 112
3 114 91 112
3 92 91 114
3 116 92 114
3 92 116 88
3 97 98 117
3 98 99 118
3 117 98 118
3 99 100 119
3 118 99 119
3 100 102 119
3 104 97 117
3 120 104 117
3 120 117 121
3 117 118 121
3 121 118 122
3 118 119 122
3 122 119 102
3 106 122 102
3 108 104 120
3 123 108 120
3 123 120 124
3 120 121 124
3 124 121 125
3 121 122 125
3 125 122 106
3 110 125 106
3 111 108 123
3 113 111 123
3 124 113 123
3 115 113 124
3 125 115 124
3 115 125 110
