ply
format ascii 1.0
comment VCGLIB generated
element vertex 126
property float x
property float y
property float z
element face 248
property list uchar int vertex_indices
end_header
-0.247187301516532898 -0.00477149849757552147 -0.479509204626083374
-0.259817749261856079 -0.0904856026172637939 -0.421471446752548218
-0.232341766357421875 -0.00740067847073078156 -0.335709422826766968
-0.306715637445449829 -0.240865826606750488 -0.257796138525009155
-0.30408477783203125 -0.164878755807876587 -0.185430839657783508
-0.315432220697402954 -0.220070183277130127 -0.0471366234123706818
-0.367279052734375 -0.289099633693695068 -0.00579341268166899681
-0.277044922113418579 -0.195992156863212585 0.0534838028252124786
-0.02756500244140625 -0.00181221577804535627 -0.43097195029258728
-0.04030609130859375 -0.089406132698059082 -0.366869121789932251
-0.08994293212890625 -0.192147254943847656 -0.174315616488456726
-0.133528396487236023 -0.332849323749542236 -0.0159200038760900497
-0.145793914794921875 -0.354965776205062866 0.0862666741013526917
0.188571929931640625 -0.00404828786849975586 -0.358785480260848999
0.173197433352470398 -0.104536361992359161 -0.317793220281600952
0.121014915406703949 -0.278867751359939575 -0.192012950778007507
0.0455754585564136505 -0.44991600513458252 -0.0710293427109718323
0.0348370857536792755 -0.482723981142044067 0.0295554790645837784
0.156895950436592102 -0.0357271246612071991 -0.229280784726142883
0.143019363284111023 -0.220451891422271729 -0.0993070602416992188
0.147432968020439148 -0.429781794548034668 -0.0178373660892248154
-0.415802001953125 0.169031441211700439 -0.267890602350234985
-0.300221771001815796 0.116666845977306366 -0.212785720825195312
-0.398798614740371704 0.0924779698252677917 -0.185628414154052734
-0.263615936040878296 -0.0328996069729328156 -0.0681651458144187927
-0.366352081298828125 -0.0496163554489612579 -0.015626588836312294
-0.23528289794921875 -0.226308181881904602 0.0200088825076818466
-0.261347442865371704 -0.212494626641273499 0.117609180510044098
-0.345334380865097046 -0.223633512854576111 0.128394767642021179
-0.245737716555595398 0.276996612548828125 -0.450304180383682251
-0.247964218258857727 0.18547607958316803 -0.521611213684082031
-0.340649932622909546 0.242408350110054016 -0.420331478118896484
-0.282343536615371704 -0.0550828911364078522 0.204179927706718445
-0.220720931887626648 -0.157749190926551819 0.229232951998710632
-0.084214530885219574 -0.0895118191838264465 0.215853691101074219
-0.0364888496696949005 0.244625851511955261 -0.381834834814071655
-0.022266387939453125 0.170816600322723389 -0.462198734283447266
-0.0463155098259449005 -0.185117363929748535 0.169620350003242493
-0.00610987329855561256 0.0120531618595123291 0.271131038665771484
0.184600830078125 0.259785085916519165 -0.350646823644638062
0.197213485836982727 0.16858363151550293 -0.411706447601318359
0.069590248167514801 -0.434673339128494263 0.193216010928153992
0.15955352783203125 -0.182395279407501221 0.271009594202041626
0.270886749029159546 0.212823688983917236 -0.303106307983398438
0.369234710931777954 0.0944384634494781494 -0.208989456295967102
0.336916595697402954 -0.0413253344595432281 -0.221808120608329773
0.321809142827987671 -0.221857264637947083 -0.086284637451171875
0.315278381109237671 -0.387957364320755005 0.0655951499938964844
0.32131195068359375 -0.314189285039901733 0.220890045166015625
0.169773101806640625 -0.292604953050613403 0.242768764495849609
0.39316558837890625 0.0107204494997859001 -0.143624946475028992
0.397085815668106079 -0.171950086951255798 -0.0229500140994787216
0.376555114984512329 -0.314661026000976562 0.133610725402832031
-0.303910583257675171 0.320509254932403564 -0.146583721041679382
-0.278127044439315796 0.245391562581062317 -0.0620482750236988068
-0.256510406732559204 0.10866132378578186 0.116216979920864105
-0.254151672124862671 -0.0511070229113101959 0.299609512090682983
-0.211179092526435852 -0.0845789387822151184 0.235916778445243835
-0.271671295166015625 0.429234296083450317 -0.278411537408828735
-0.379914611577987671 0.414389759302139282 -0.2799530029296875
-0.198281601071357727 -0.163753286004066467 0.368361324071884155
-0.084227241575717926 -0.0426549278199672699 0.407831341028213501
-0.0549977608025074005 0.409905105829238892 -0.232219696044921875
0.123324073851108551 0.124011427164077759 0.493650525808334351
0.155007675290107727 0.381659984588623047 -0.165632724761962891
0.312379211187362671 0.0318017788231372833 0.349471241235733032
0.2259368896484375 0.321564227342605591 -0.111280441284179688
0.347808837890625 0.223754584789276123 -0.024449983611702919
0.284328460693359375 -0.0557010173797607422 0.213871166110038757
0.267937988042831421 -0.112883143126964569 0.308268547058105469
0.341643005609512329 0.137580081820487976 0.0362162590026855469
0.240540817379951477 -0.0444465391337871552 0.0896855965256690979
0.23270416259765625 -0.203819453716278076 0.23780059814453125
-0.405274718999862671 0.457380145788192749 0.007872740738093853
-0.4354400634765625 0.364070534706115723 0.0630796775221824646
-0.440916687250137329 0.189108073711395264 0.198621585965156555
-0.454764038324356079 0.00197390606626868248 0.313275337219238281
-0.381971985101699829 -0.0627096369862556458 0.365963935852050781
-0.259256988763809204 0.252468466758728027 -0.139241695404052734
-0.299563080072402954 0.339898556470870972 -0.0864222869277000427
-0.3301849365234375 -0.168684467673301697 0.505203068256378174
-0.192564651370048523 -0.20937095582485199 0.495708376169204712
-0.102617897093296051 0.355407565832138062 -0.0190976466983556747
0.075425468385219574 -0.171455368399620056 0.548467814922332764
0.08742523193359375 0.237391874194145203 -0.00679715489968657494
0.303738921880722046 -0.212920129299163818 0.534677207469940186
0.074865974485874176 0.158924266695976257 -0.0831058844923973083
0.143407180905342102 0.233162224292755127 0.0659221038222312927
0.484333038330078125 -0.0721945837140083313 0.295429378747940063
0.4002532958984375 -0.148653849959373474 0.477894634008407593
0.183573409914970398 0.243103504180908203 0.168570518493652344
0.214879348874092102 0.0616498850286006927 0.297979682683944702
0.385163635015487671 -0.086698286235332489 0.220847606658935547
-0.421170562505722046 0.431878238916397095 0.143567726016044617
-0.450266510248184204 0.253837913274765015 0.286950737237930298
-0.428173065185546875 0.0617983639240264893 0.40560564398765564
-0.303354889154434204 0.206934019923210144 -0.0484067611396312714
-0.194544479250907898 0.332549750804901123 0.0225021038204431534
-0.246239975094795227 0.388643890619277954 0.140887737274169922
-0.2891845703125 0.301337480545043945 0.34752306342124939
-0.294481903314590454 0.130826130509376526 0.495816558599472046
-0.211480453610420227 -0.123875923454761505 0.563630044460296631
-0.213901519775390625 0.0525573492050170898 0.570206105709075928
-0.141043350100517273 0.305805236101150513 0.0699054375290870667
-0.0245564784854650497 0.186832845211029053 -0.000215212508919648826
0.0174166355282068253 -0.114706307649612427 0.549918413162231445
-0.01554107666015625 0.0274416748434305191 0.470032066106796265
0.025714874267578125 0.161139622330665588 0.0438253097236156464
0.144201919436454773 0.290091007947921753 0.0986426696181297302
0.25064849853515625 -0.112181298434734344 0.501694023609161377
0.199115753173828125 0.0319131612777709961 0.397500514984130859
0.250408172607421875 0.24238133430480957 0.171585246920585632
0.073599494993686676 0.22366863489151001 0.183735370635986328
0.28301239013671875 0.0604479759931564331 0.298097938299179077
0.13207244873046875 0.00660270778462290764 0.234233543276786804
0.25971221923828125 -0.0653821900486946106 0.479421138763427734
0.32649993896484375 -0.0752585604786872864 0.310277312994003296
-0.221094772219657898 0.285368859767913818 0.118689693510532379
-0.202241256833076477 0.238534510135650635 0.333490520715713501
-0.199921920895576477 0.159201830625534058 0.541703879833221436
-0.053272247314453125 0.139565452933311462 0.0946048125624656677
0.01038360595703125 0.172510325908660889 0.306438446044921875
0.02086639404296875 0.119742654263973236 0.522955894470214844
0.13828277587890625 0.225032046437263489 0.182162448763847351
0.178906753659248352 0.0276551768183708191 0.275087833404541016
0.228235885500907898 0.0387045443058013916 0.49826011061668396
3 0 1 2
3 1 3 4
3 2 1 4
3 3 5 6
3 4 3 6
3 5 7 6
3 0 8 9
3 1 0 9
3 9 10 1
3 1 10 3
3 10 11 3
3 3 11 5
3 5 11 12
3 7 5 12
3 8 13 14
3 9 8 14
3 14 15 9
3 9 15 10
3 15 16 10
3 10 16 11
3 11 16 17
3 12 11 17
3 14 13 18
3 15 14 18
3 19 15 18
3 16 15 19
3 20 16 19
3 16 20 17
3 21 22 23
3 22 24 25
3 23 22 25
3 24 26 27
3 25 24 27
3 26 28 27
3 29 30 31
3 2 22 21
3 0 2 21
3 0 21 31
3 0 31 30
3 4 22 2
3 24 22 4
3 6 24 4
3 26 24 6
3 26 32 28
3 6 32 26
3 6 33 32
3 6 7 33
3 33 34 32
3 29 35 36
3 30 29 36
3 36 0 30
3 8 0 36
3 12 33 7
3 37 33 12
3 33 37 38
3 34 33 38
3 35 39 40
3 36 35 40
3 40 8 36
3 13 8 40
3 17 37 12
3 41 37 17
3 37 41 42
3 38 37 42
3 40 39 43
3 43 44 45
3 40 43 45
3 40 45 18
3 40 18 13
3 18 46 19
3 45 46 18
3 19 47 20
3 46 47 19
3 48 49 41
3 47 48 41
3 47 41 17
3 47 17 20
3 41 49 42
3 45 44 50
3 46 45 50
3 51 46 50
3 47 46 51
3 52 47 51
3 47 52 48
3 53 21 23
3 54 53 23
3 23 25 54
3 25 55 54
3 25 27 55
3 27 56 55
3 28 57 56
3 27 28 56
3 58 29 31
3 59 58 31
3 31 53 59
3 21 53 31
3 60 28 32
3 57 28 60
3 34 61 60
3 32 34 60
3 35 29 62
3 62 29 58
3 38 63 34
3 63 61 34
3 39 35 64
3 64 35 62
3 42 65 38
3 65 63 38
3 66 43 39
3 64 66 39
3 44 66 67
3 43 66 44
3 68 49 48
3 69 49 68
3 49 69 65
3 42 49 65
3 70 50 44
3 67 70 44
3 50 70 51
3 51 70 71
3 51 71 52
3 52 71 72
3 52 72 68
3 48 52 68
3 73 53 54
3 74 73 54
3 54 55 74
3 55 75 74
3 55 56 75
3 56 76 75
3 57 77 76
3 56 57 76
3 78 58 59
3 79 78 59
3 59 73 79
3 53 73 59
3 80 57 60
3 77 57 80
3 61 81 80
3 60 61 80
3 62 58 82
3 82 58 78
3 63 83 61
3 83 81 61
3 64 62 84
3 84 62 82
3 65 85 63
3 85 83 63
3 86 66 64
3 84 86 64
3 67 86 87
3 66 86 67
3 88 69 68
3 89 69 88
3 69 89 85
3 65 69 85
3 90 70 67
3 87 90 67
3 70 90 71
3 71 90 91
3 71 91 72
3 72 91 92
3 72 92 88
3 68 72 88
3 73 74 93
3 74 75 94
3 93 74 94
3 75 76 95
3 94 75 95
3 76 77 95
3 78 79 96
3 97 93 98
3 96 93 97
3 96 73 93
3 96 79 73
3 94 98 93
3 99 98 94
3 95 99 94
3 100 99 95
3 100 101 102
3 95 101 100
3 95 80 101
3 95 77 80
3 80 81 101
3 82 78 96
3 103 82 96
3 96 104 103
3 97 104 96
3 102 105 106
3 101 105 102
3 105 101 81
3 83 105 81
3 84 82 103
3 107 84 103
3 103 108 107
3 104 108 103
3 106 109 110
3 105 109 106
3 109 105 83
3 85 109 83
3 86 84 107
3 107 108 111
3 86 107 111
3 86 111 112
3 86 112 87
3 112 113 114
3 111 113 112
3 114 115 116
3 113 115 114
3 89 110 109
3 88 110 89
3 88 115 110
3 88 116 115
3 89 109 85
3 90 87 112
3 91 90 112
3 114 91 112
3 92 91 114
3 116 92 114
3 92 116 88
3 97 98 117
3 98 99 118
3 117 98 118
3 99 100 119
3 118 99 119
3 100 102 119
3 104 97 117
3 120 104 117
3 120 117 121
3 117 118 121
3 121 118 122
3 118 119 122
3 122 119 102
3 106 122 102
3 108 104 120
3 123 108 120
3 123 120 124
3 120 121 124
3 124 121 125
3 121 122 125
3 125 122 106
3 110 125 106
3 111 108 123
3 113 111 123
3 124 113 123
3 115 113 124
3 125 115 124
3 115 125 110
