ply
format ascii 1.0
comment VCGLIB generated
element vertex 126
property float x
property float y
property float z
element face 248
property list uchar int vertex_indices
end_header
-0.162613734602928162 0.308513134717941284 -0.396889954805374146
-0.149128779768943787 0.22650831937789917 -0.468596726655960083
-0.256827235221862793 0.218419164419174194 -0.420531719923019409
-0.144022539258003235 0.00474583404138684273 -0.535612285137176514
-0.23731096088886261 0.00307067343965172768 -0.452651649713516235
-0.111296519637107849 -0.198737114667892456 -0.428177297115325928
-0.0648021697998046875 -0.0851008370518684387 -0.303974151611328125
-0.132195606827735901 -0.278486430644989014 -0.349988430738449097
-0.0117152081802487373 0.211391985416412354 -0.259611278772354126
0.0100353788584470749 0.138078778982162476 -0.336359918117523193
0.0781808570027351379 0.00102144770789891481 -0.496516585350036621
0.0958851426839828491 -0.208652704954147339 -0.438947528600692749
0.0912802591919898987 -0.296213597059249878 -0.348214089870452881
0.177371159195899963 0.316044896841049194 -0.317154943943023682
0.210219800472259521 0.230455771088600159 -0.377818018198013306
0.296079099178314209 0.0290942229330539703 -0.420880317687988281
0.285685420036315918 -0.177805662155151367 -0.337634772062301636
0.306957781314849854 -0.280532389879226685 -0.330858051776885986
0.300741195678710938 0.261465698480606079 -0.320598244667053223
0.37621772289276123 0.0529249571263790131 -0.344171881675720215
0.390633195638656616 -0.170738711953163147 -0.32120552659034729
-0.413054078817367554 0.283354341983795166 -0.19850611686706543
-0.378879815340042114 0.190612658858299255 -0.290822803974151611
-0.379640042781829834 0.181040406227111816 -0.184811010956764221
-0.368379861116409302 -0.0157480482012033463 -0.296953916549682617
-0.383879810571670532 -0.0436416901648044586 -0.187734022736549377
-0.172566011548042297 -0.120584785938262939 -0.155958279967308044
-0.269550591707229614 -0.229737758636474609 -0.192620933055877686
-0.210238873958587646 -0.290581345558166504 -0.191118374466896057
-0.231180191040039062 0.504143774509429932 -0.185594052076339722
-0.199083611369132996 0.43726116418838501 -0.273180007934570312
-0.304114490747451782 0.419763892889022827 -0.192704722285270691
-0.0242369528859853745 -0.33127140998840332 -0.140173271298408508
-0.157681882381439209 -0.291077762842178345 -0.163517341017723083
-0.0704274848103523254 -0.344596922397613525 -0.245324552059173584
-0.0668689161539077759 0.420990645885467529 -0.0638926029205322266
-0.0475651882588863373 0.340073615312576294 -0.138602256774902344
0.0472164154052734375 -0.306130379438400269 -0.184956446290016174
0.103910990059375763 -0.230338945984840393 -0.239094153046607971
0.121895931661128998 0.5246390700340271 -0.120477505028247833
0.13492584228515625 0.451662123203277588 -0.207010507583618164
0.253997534513473511 -0.36063811182975769 -0.18311484158039093
0.271561503410339355 -0.297425001859664917 -0.0959859564900398254
0.220861434936523438 0.482453703880310059 -0.105119436979293823
0.361428946256637573 0.378020495176315308 -0.0711885541677474976
0.395714908838272095 0.277780354022979736 -0.164856746792793274
0.415424615144729614 0.054807174950838089 -0.169434383511543274
0.484541505575180054 -0.143202677369117737 -0.16793455183506012
0.461729615926742554 -0.220186010003089905 -0.0661972612142562866
0.320143014192581177 -0.240013450384140015 -0.160182029008865356
0.390966981649398804 0.275383204221725464 -0.0544296018779277802
0.328950881958007812 0.0619993209838867188 -0.113975323736667633
0.455290943384170532 -0.108691617846488953 -0.0605717748403549194
-0.442781448364257812 0.294577091932296753 0.02529127337038517
-0.45970645546913147 0.182458311319351196 0.0189425274729728699
-0.372930258512496948 -0.0315456315875053406 0.0294954441487789154
-0.378041952848434448 -0.262299239635467529 0.0228023529052734375
-0.271534234285354614 -0.310200870037078857 0.0265554022043943405
-0.273884356021881104 0.540075123310089111 0.0274125169962644577
-0.347851336002349854 0.450625211000442505 0.0202081892639398575
-0.0909083262085914612 -0.362237453460693359 0.0384477227926254272
-0.0232383180409669876 -0.385245233774185181 -0.0428395606577396393
-0.0654969885945320129 0.606184482574462891 0.0658110231161117554
0.193807065486907959 -0.318235963582992554 -0.0581426285207271576
0.148292273283004761 0.59458392858505249 0.0951508134603500366
0.231718346476554871 -0.110212884843349457 0.016674654558300972
0.207993641495704651 0.522045016288757324 0.115245245397090912
0.207059040665626526 0.351483136415481567 0.102745808660984039
0.352262765169143677 -0.19533190131187439 0.127051055431365967
0.293260306119918823 -0.0440373905003070831 -0.0164895392954349518
0.2513885498046875 0.264208972454071045 0.120354555547237396
0.212492272257804871 0.054215509444475174 0.0816810131072998047
0.296624064445495605 -0.135576575994491577 0.119713887572288513
-0.451442182064056396 0.296913713216781616 0.244655445218086243
-0.444484442472457886 0.196464851498603821 0.239415690302848816
-0.409800678491592407 -0.0342183075845241547 0.251147419214248657
-0.277483820915222168 -0.206787660717964172 0.239403769373893738
-0.180887490510940552 -0.263261198997497559 0.219783276319503784
-0.286376148462295532 0.5483359694480896 0.25183337926864624
-0.380400270223617554 0.466019511222839355 0.239754244685173035
-0.0143745969980955124 -0.301267534494400024 0.19500221312046051
-0.0553975813090801239 -0.229406535625457764 0.122520588338375092
-0.0652558505535125732 0.506393134593963623 0.259560167789459229
0.159014299511909485 -0.231931313872337341 0.152536466717720032
0.135101586580276489 0.567713916301727295 0.3197823166847229
0.390273511409759521 -0.190025210380554199 0.15154719352722168
0.245343625545501709 0.526471972465515137 0.326642811298370361
0.258490711450576782 0.351458847522735596 0.311434447765350342
0.550889968872070312 -0.0823317021131515503 0.130902871489524841
0.455549806356430054 -0.172781005501747131 0.0314067080616950989
0.262423932552337646 0.250672817230224609 0.336439609527587891
0.390184968709945679 0.142489254474639893 0.198728695511817932
0.492128640413284302 -0.0614559091627597809 0.203396081924438477
-0.416807442903518677 0.203078880906105042 0.345948100090026855
-0.339350014925003052 0.00259193405508995056 0.343277126550674438
-0.202801570296287537 -0.16715046763420105 0.302431076765060425
-0.284757614135742188 0.490157097578048706 0.34607359766960144
-0.228109359741210938 0.370421528816223145 0.470033884048461914
-0.317803800106048584 0.272469133138656616 0.452852100133895874
-0.188187196850776672 0.0874608606100082397 0.41410362720489502
-0.172557830810546875 -0.0300913359969854355 0.207119330763816833
0.0431183427572250366 -0.195517018437385559 0.101218566298484802
-0.0821127220988273621 -0.117062978446483612 0.179936721920967102
-0.0811931043863296509 0.455208510160446167 0.347700983285903931
-0.014705657958984375 0.407146722078323364 0.478417187929153442
0.192218512296676636 -0.20686107873916626 0.245308026671409607
0.120214737951755524 -0.0635071992874145508 0.274619221687316895
0.135549813508987427 0.484857469797134399 0.400830179452896118
0.172887533903121948 0.328941702842712402 0.334757566452026367
0.349332273006439209 -0.125788420438766479 0.0878250598907470703
0.251229166984558105 -0.0234372392296791077 0.148683622479438782
0.200535908341407776 0.20847301185131073 0.35845792293548584
0.346396327018737793 0.278905868530273438 0.403608083724975586
0.291595458984375 0.210132196545600891 0.150492191314697266
0.479188650846481323 0.196141555905342102 0.210295066237449646
0.306307941675186157 0.0156681425869464874 0.248768165707588196
0.436278760433197021 -0.0131666539236903191 0.139076888561248779
-0.241939008235931396 0.320570409297943115 0.368480503559112549
-0.142410829663276672 0.129997923970222473 0.328373730182647705
-0.0912584587931632996 -0.0781453549861907959 0.262764006853103638
-0.0251497551798820496 0.316486716270446777 0.440833926200866699
0.0450284145772457123 0.223321050405502319 0.26068347692489624
0.10904993861913681 0.0141937462612986565 0.191750869154930115
0.103382386267185211 0.206708699464797974 0.331637680530548096
0.268047869205474854 0.273364096879959106 0.246432512998580933
0.303870618343353271 0.0736015364527702332 0.142185524106025696
3 0 1 2
3 1 3 4
3 2 1 4
3 3 5 6
3 4 3 6
3 5 7 6
3 0 8 9
3 1 0 9
3 9 10 1
3 1 10 3
3 10 11 3
3 3 11 5
3 5 11 12
3 7 5 12
3 8 13 14
3 9 8 14
3 14 15 9
3 9 15 10
3 15 16 10
3 10 16 11
3 11 16 17
3 12 11 17
3 14 13 18
3 15 14 18
3 19 15 18
3 16 15 19
3 20 16 19
3 16 20 17
3 21 22 23
3 22 24 25
3 23 22 25
3 24 26 27
3 25 24 27
3 26 28 27
3 29 30 31
3 2 22 21
3 0 2 21
3 0 21 31
3 0 31 30
3 4 22 2
3 24 22 4
3 6 24 4
3 26 24 6
3 26 32 28
3 6 32 26
3 6 33 32
3 6 7 33
3 33 34 32
3 29 35 36
3 30 29 36
3 36 0 30
3 8 0 36
3 12 33 7
3 37 33 12
3 33 37 38
3 34 33 38
3 35 39 40
3 36 35 40
3 40 8 36
3 13 8 40
3 17 37 12
3 41 37 17
3 37 41 42
3 38 37 42
3 40 39 43
3 43 44 45
3 40 43 45
3 40 45 18
3 40 18 13
3 18 46 19
3 45 46 18
3 19 47 20
3 46 47 19
3 48 49 41
3 47 48 41
3 47 41 17
3 47 17 20
3 41 49 42
3 45 44 50
3 46 45 50
3 51 46 50
3 47 46 51
3 52 47 51
3 47 52 48
3 53 21 23
3 54 53 23
3 23 25 54
3 25 55 54
3 25 27 55
3 27 56 55
3 28 57 56
3 27 28 56
3 58 29 31
3 59 58 31
3 31 53 59
3 21 53 31
3 60 28 32
3 57 28 60
3 34 61 60
3 32 34 60
3 35 29 62
3 62 29 58
3 38 63 34
3 63 61 34
3 39 35 64
3 64 35 62
3 42 65 38
3 65 63 38
3 66 43 39
3 64 66 39
3 44 66 67
3 43 66 44
3 68 49 48
3 69 49 68
3 49 69 65
3 42 49 65
3 70 50 44
3 67 70 44
3 50 70 51
3 51 70 71
3 51 71 52
3 52 71 72
3 52 72 68
3 48 52 68
3 73 53 54
3 74 73 54
3 54 55 74
3 55 75 74
3 55 56 75
3 56 76 75
3 57 77 76
3 56 57 76
3 78 58 59
3 79 78 59
3 59 73 79
3 53 73 59
3 80 57 60
3 77 57 80
3 61 81 80
3 60 61 80
3 62 58 82
3 82 58 78
3 63 83 61
3 83 81 61
3 64 62 84
3 84 62 82
3 65 85 63
3 85 83 63
3 86 66 64
3 84 86 64
3 67 86 87
3 66 86 67
3 88 69 68
3 89 69 88
3 69 89 85
3 65 69 85
3 90 70 67
3 87 90 67
3 70 90 71
3 71 90 91
3 71 91 72
3 72 91 92
3 72 92 88
3 68 72 88
3 73 74 93
3 74 75 94
3 93 74 94
3 75 76 95
3 94 75 95
3 76 77 95
3 78 79 96
3 97 93 98
3 96 93 97
3 96 73 93
3 96 79 73
3 94 98 93
3 99 98 94
3 95 99 94
3 100 99 95
3 100 101 102
3 95 101 100
3 95 80 101
3 95 77 80
3 80 81 101
3 82 78 96
3 103 82 96
3 96 104 103
3 97 104 96
3 102 105 106
3 101 105 102
3 105 101 81
3 83 105 81
3 84 82 103
3 107 84 103
3 103 108 107
3 104 108 103
3 106 109 110
3 105 109 106
3 109 105 83
3 85 109 83
3 86 84 107
3 107 108 111
3 86 107 111
3 86 111 112
3 86 112 87
3 112 113 114
3 111 113 112
3 114 115 116
3 113 115 114
3 89 110 109
3 88 110 89
3 88 115 110
3 88 116 115
3 89 109 85
3 90 87 112
3 91 90 112
3 114 91 112
3 92 91 114
3 116 92 114
3 92 116 88
3 97 98 117
3 98 99 118
3 117 98 118
3 99 100 119
3 118 99 119
3 100 102 119
3 104 97 117
3 120 104 117
3 120 117 121
3 117 118 121
3 121 118 122
3 118 119 122
3 122 119 102
3 106 122 102
3 108 104 120
3 123 108 120
3 123 120 124
3 120 121 124
3 124 121 125
3 121 122 125
3 125 122 106
3 110 125 106
3 111 108 123
3 113 111 123
3 124 113 123
3 115 113 124
3 125 115 124
3 115 125 110
