ply
format ascii 1.0
comment VCGLIB generated
element vertex 126
property float x
property float y
property float z
element face 248
property list uchar int vertex_indices
end_header
-0.28662109375 0.272577911615371704 -0.602923095226287842
-0.252928406000137329 0.202218875288963318 -0.572182655334472656
-0.260606139898300171 0.253059059381484985 -0.473008632659912109
-0.222680404782295227 0.0189738105982542038 -0.493006378412246704
-0.281792968511581421 0.0423260219395160675 -0.400033950805664062
-0.221080780029296875 -0.188272491097450256 -0.42340502142906189
-0.31313323974609375 -0.172044500708580017 -0.372298717498779297
-0.179656982421875 -0.182962343096733093 -0.333359867334365845
-0.068517051637172699 0.253284752368927002 -0.585066795349121094
-0.063142143189907074 0.191055908799171448 -0.483612060546875
-0.00563303614035248756 0.000369329354725778103 -0.484948009252548218
-0.00697580957785248756 -0.221765756607055664 -0.491084247827529907
0.0018463134765625 -0.251791805028915405 -0.373101383447647095
0.114804588258266449 0.226129010319709778 -0.477418422698974609
0.166403457522392273 0.158066064119338989 -0.526032447814941406
0.181746169924736023 -0.040732111781835556 -0.435927867889404297
0.169902801513671875 -0.262957125902175903 -0.396304607391357422
0.182637527585029602 -0.355407148599624634 -0.342650264501571655
0.248128250241279602 0.185854777693748474 -0.439740985631942749
0.273806244134902954 -0.0487306080758571625 -0.424469798803329468
0.267756134271621704 -0.263872772455215454 -0.38933911919593811
-0.433377593755722046 0.418945878744125366 -0.352886676788330078
-0.392201751470565796 0.295649707317352295 -0.344896644353866577
-0.470555633306503296 0.320278555154800415 -0.276667118072509766
-0.422068268060684204 0.079897172749042511 -0.302451759576797485
-0.453383117914199829 0.0973739326000213623 -0.20055389404296875
-0.415012359619140625 -0.140409350395202637 -0.246984794735908508
-0.377862304449081421 -0.11007237434387207 -0.153948783874511719
-0.374932616949081421 -0.209243535995483398 -0.132639095187187195
-0.242177322506904602 0.547434389591217041 -0.513362705707550049
-0.260724395513534546 0.451583176851272583 -0.591849327087402344
-0.32076263427734375 0.496056646108627319 -0.459116131067276001
-0.207873031497001648 -0.248568102717399597 -0.0881838798522949219
-0.148799896240234375 -0.155604109168052673 -0.167644977569580078
-0.139597579836845398 -0.173859715461730957 -0.0609569549560546875
-0.0870513916015625 0.492893815040588379 -0.451086997985839844
-0.0450986213982105255 0.428848117589950562 -0.554174900054931641
-0.086680091917514801 -0.404561787843704224 -0.243921920657157898
-0.0550092048943042755 -0.372681498527526855 -0.11213143914937973
0.096136726438999176 0.487642884254455566 -0.350481033325195312
0.116324104368686676 0.393858462572097778 -0.413838386535644531
0.121896110475063324 -0.435178279876708984 -0.187508270144462585
0.137447357177734375 -0.407810360193252563 -0.100428104400634766
0.18804931640625 0.422288179397583008 -0.31659284234046936
0.296731323003768921 0.30699649453163147 -0.230450943112373352
0.331556946039199829 0.192462846636772156 -0.275293022394180298
0.368573516607284546 -0.0186428632587194443 -0.271836906671524048
0.368956238031387329 -0.224547088146209717 -0.230405494570732117
0.37554931640625 -0.325496137142181396 -0.114463008940219879
0.24031829833984375 -0.43773689866065979 -0.101610980927944183
0.346743255853652954 0.209376588463783264 -0.179302692413330078
0.394463866949081421 -0.0125811323523521423 -0.159959793090820312
0.40045928955078125 -0.237914785742759705 -0.144835948944091797
-0.322917938232421875 0.459470778703689575 -0.149524852633476257
-0.341322571039199829 0.362612336874008179 -0.0959984436631202698
-0.34798431396484375 0.158193096518516541 -0.00263341260142624378
-0.367862701416015625 -0.0533485971391201019 0.0681341513991355896
-0.414000183343887329 -0.146651729941368103 0.07961273193359375
-0.262625366449356079 0.614391744136810303 -0.318354278802871704
-0.352878570556640625 0.602225840091705322 -0.238750457763671875
-0.242741897702217102 -0.164164215326309204 0.113408088684082031
-0.32718658447265625 -0.276488810777664185 0.09854888916015625
-0.114877067506313324 0.492215245962142944 -0.22299782931804657
-0.0576019287109375 -0.395226389169692993 0.142718791961669922
0.0396563224494457245 0.509911179542541504 -0.129451751708984375
0.17432403564453125 -0.403345435857772827 0.132532432675361633
0.133920028805732727 0.483693599700927734 -0.096056617796421051
0.264530181884765625 0.35058903694152832 -0.020181337371468544
0.41425323486328125 -0.303788214921951294 0.108211196959018707
0.252030700445175171 -0.334165245294570923 0.0979838371276855469
0.316905975341796875 0.249283134937286377 0.016020139679312706
0.3229217529296875 0.0128026874735951424 0.0420780181884765625
0.338954925537109375 -0.217712745070457458 0.072978973388671875
-0.414311736822128296 0.519591331481933594 0.0620716400444507599
-0.424368530511856079 0.425413370132446289 0.120041847229003906
-0.441997528076171875 0.217281952500343323 0.199343845248222351
-0.468226104974746704 0.00950124207884073257 0.262527316808700562
-0.402055114507675171 -0.0709171518683433533 0.288237571716308594
-0.235720321536064148 0.456538349390029907 -0.12305816262960434
-0.267659515142440796 0.487360566854476929 -0.0326903648674488068
-0.267045348882675171 -0.168123260140419006 0.324415832757949829
-0.222682952880859375 -0.255961775779724121 0.32089647650718689
-0.0412050895392894745 0.525716960430145264 -0.0453287772834300995
-0.0326245613396167755 -0.168282553553581238 0.257477909326553345
0.167574569582939148 0.544476449489593506 0.0185116138309240341
0.212979629635810852 -0.198304355144500732 0.296661704778671265
0.099475860595703125 0.496267557144165039 0.120917320251464844
0.188045501708984375 0.361048102378845215 0.193304702639579773
0.4026641845703125 -0.1825246661901474 0.309329032897949219
0.27605438232421875 -0.269620656967163086 0.30226626992225647
0.226601913571357727 0.257860660552978516 0.213964775204658508
0.239223480224609375 0.0323573499917984009 0.248456791043281555
0.284417480230331421 -0.184941887855529785 0.286638885736465454
-0.38208770751953125 0.469802379608154297 0.209825679659843445
-0.435654968023300171 0.251503616571426392 0.301744312047958374
-0.451330810785293579 0.0211004298180341721 0.367325305938720703
-0.220605209469795227 0.361408323049545288 -0.0337398834526538849
-0.144423171877861023 0.364967018365859985 0.144992351531982422
-0.205791473388671875 0.406825810670852661 0.265677124261856079
-0.273420959711074829 0.223038926720619202 0.39152035117149353
-0.30902099609375 0.0149147110059857368 0.477579981088638306
-0.216921493411064148 -0.23469795286655426 0.4358978271484375
-0.18384552001953125 -0.0703141242265701294 0.480141311883926392
-0.015468597412109375 0.405446618795394897 -0.00919580459594726562
0.0251948032528162003 0.252112925052642822 0.083540596067905426
0.0122477216646075249 -0.139946803450584412 0.334550380706787109
0.010150909423828125 0.0213248822838068008 0.342339038848876953
0.203859969973564148 0.446302324533462524 0.0482994727790355682
0.204420730471611023 0.323854595422744751 0.178366973996162415
0.198954269289970398 -0.100583471357822418 0.242719337344169617
0.117121376097202301 -0.143775179982185364 0.458197593688964844
0.305845886468887329 0.241883203387260437 0.210541084408760071
0.147491455078125 0.26771196722984314 0.287005573511123657
0.323404937982559204 0.0477241724729537964 0.351346641778945923
0.152563735842704773 0.0379071123898029327 0.308715015649795532
0.275168091058731079 -0.078705519437789917 0.537006556987762451
0.281174987554550171 -0.137735292315483093 0.377646297216415405
-0.142129257321357727 0.330295681953430176 0.249294757843017578
-0.171418502926826477 0.20134204626083374 0.419610828161239624
-0.214258834719657898 0.0142693417146801949 0.524504661560058594
0.00365702318958938122 0.178250923752784729 0.16815631091594696
0.0409990958869457245 0.114589892327785492 0.378733634948730469
0.028957366943359375 -0.0208626240491867065 0.51727372407913208
0.205852508544921875 0.232592806220054626 0.246860027313232422
0.224381759762763977 0.0180130843073129654 0.319581359624862671
0.208791092038154602 -0.137658342719078064 0.466615051031112671
3 0 1 2
3 1 3 4
3 2 1 4
3 3 5 6
3 4 3 6
3 5 7 6
3 0 8 9
3 1 0 9
3 9 10 1
3 1 10 3
3 10 11 3
3 3 11 5
3 5 11 12
3 7 5 12
3 8 13 14
3 9 8 14
3 14 15 9
3 9 15 10
3 15 16 10
3 10 16 11
3 11 16 17
3 12 11 17
3 14 13 18
3 15 14 18
3 19 15 18
3 16 15 19
3 20 16 19
3 16 20 17
3 21 22 23
3 22 24 25
3 23 22 25
3 24 26 27
3 25 24 27
3 26 28 27
3 29 30 31
3 2 22 21
3 0 2 21
3 0 21 31
3 0 31 30
3 4 22 2
3 24 22 4
3 6 24 4
3 26 24 6
3 26 32 28
3 6 32 26
3 6 33 32
3 6 7 33
3 33 34 32
3 29 35 36
3 30 29 36
3 36 0 30
3 8 0 36
3 12 33 7
3 37 33 12
3 33 37 38
3 34 33 38
3 35 39 40
3 36 35 40
3 40 8 36
3 13 8 40
3 17 37 12
3 41 37 17
3 37 41 42
3 38 37 42
3 40 39 43
3 43 44 45
3 40 43 45
3 40 45 18
3 40 18 13
3 18 46 19
3 45 46 18
3 19 47 20
3 46 47 19
3 48 49 41
3 47 48 41
3 47 41 17
3 47 17 20
3 41 49 42
3 45 44 50
3 46 45 50
3 51 46 50
3 47 46 51
3 52 47 51
3 47 52 48
3 53 21 23
3 54 53 23
3 23 25 54
3 25 55 54
3 25 27 55
3 27 56 55
3 28 57 56
3 27 28 56
3 58 29 31
3 59 58 31
3 31 53 59
3 21 53 31
3 60 28 32
3 57 28 60
3 34 61 60
3 32 34 60
3 35 29 62
3 62 29 58
3 38 63 34
3 63 61 34
3 39 35 64
3 64 35 62
3 42 65 38
3 65 63 38
3 66 43 39
3 64 66 39
3 44 66 67
3 43 66 44
3 68 49 48
3 69 49 68
3 49 69 65
3 42 49 65
3 70 50 44
3 67 70 44
3 50 70 51
3 51 70 71
3 51 71 52
3 52 71 72
3 52 72 68
3 48 52 68
3 73 53 54
3 74 73 54
3 54 55 74
3 55 75 74
3 55 56 75
3 56 76 75
3 57 77 76
3 56 57 76
3 78 58 59
3 79 78 59
3 59 73 79
3 53 73 59
3 80 57 60
3 77 57 80
3 61 81 80
3 60 61 80
3 62 58 82
3 82 58 78
3 63 83 61
3 83 81 61
3 64 62 84
3 84 62 82
3 65 85 63
3 85 83 63
3 86 66 64
3 84 86 64
3 67 86 87
3 66 86 67
3 88 69 68
3 89 69 88
3 69 89 85
3 65 69 85
3 90 70 67
3 87 90 67
3 70 90 71
3 71 90 91
3 71 91 72
3 72 91 92
3 72 92 88
3 68 72 88
3 73 74 93
3 74 75 94
3 93 74 94
3 75 76 95
3 94 75 95
3 76 77 95
3 78 79 96
3 97 93 98
3 96 93 97
3 96 73 93
3 96 79 73
3 94 98 93
3 99 98 94
3 95 99 94
3 100 99 95
3 100 101 102
3 95 101 100
3 95 80 101
3 95 77 80
3 80 81 101
3 82 78 96
3 103 82 96
3 96 104 103
3 97 104 96
3 102 105 106
3 101 105 102
3 105 101 81
3 83 105 81
3 84 82 103
3 107 84 103
3 103 108 107
3 104 108 103
3 106 109 110
3 105 109 106
3 109 105 83
3 85 109 83
3 86 84 107
3 107 108 111
3 86 107 111
3 86 111 112
3 86 112 87
3 112 113 114
3 111 113 112
3 114 115 116
3 113 115 114
3 89 110 109
3 88 110 89
3 88 115 110
3 88 116 115
3 89 109 85
3 90 87 112
3 91 90 112
3 114 91 112
3 92 91 114
3 116 92 114
3 92 116 88
3 97 98 117
3 98 99 118
3 117 98 118
3 99 100 119
3 118 99 119
3 100 102 119
3 104 97 117
3 120 104 117
3 120 117 121
3 117 118 121
3 121 118 122
3 118 119 122
3 122 119 102
3 106 122 102
3 108 104 120
3 123 108 120
3 123 120 124
3 120 121 124
3 124 121 125
3 121 122 125
3 125 122 106
3 110 125 106
3 111 108 123
3 113 111 123
3 124 113 123
3 115 113 124
3 125 115 124
3 115 125 110
