ply
format ascii 1.0
comment VCGLIB generated
element vertex 126
property float x
property float y
property float z
element face 248
property list uchar int vertex_indices
end_header
-0.169645950198173523 0.243970394134521484 -0.509138405323028564
-0.162542983889579773 0.119277916848659515 -0.479084163904190063
-0.285308837890625 0.145026847720146179 -0.520716011524200439
-0.159829452633857727 -0.0816405788064002991 -0.523085117340087891
-0.261737823486328125 -0.0956010296940803528 -0.481827735900878906
-0.157553359866142273 -0.322913616895675659 -0.463691085577011108
-0.279939025640487671 -0.317451000213623047 -0.424161761999130249
-0.162389114499092102 -0.410655230283737183 -0.396064132452011108
0.0537363700568675995 0.229331299662590027 -0.507132053375244141
0.0402933768928050995 0.145221695303916931 -0.459829479455947876
0.062442779541015625 -0.0964997485280036926 -0.478659629821777344
0.0451494865119457245 -0.296870619058609009 -0.460446983575820923
0.0400238037109375 -0.404873937368392944 -0.373102515935897827
0.27640533447265625 0.176900207996368408 -0.402144759893417358
0.263590484857559204 0.108004070818424225 -0.515509605407714844
0.265955597162246704 -0.0890000537037849426 -0.456780105829238892
0.269269317388534546 -0.310429424047470093 -0.438998371362686157
0.283931732177734375 -0.376717716455459595 -0.350885540246963501
0.354249328374862671 0.164044499397277832 -0.515907943248748779
0.356694549322128296 -0.0565659105777740479 -0.416282802820205688
0.380168914794921875 -0.297978073358535767 -0.358309745788574219
-0.43585968017578125 0.275774925947189331 -0.310705035924911499
-0.405391693115234375 0.142076358199119568 -0.409620434045791626
-0.48622894287109375 0.158072382211685181 -0.299133151769638062
-0.422855377197265625 -0.0588755607604980469 -0.350806564092636108
-0.400775909423828125 -0.0633115246891975403 -0.281041771173477173
-0.418947845697402954 -0.30048292875289917 -0.312033802270889282
-0.400736480951309204 -0.286845207214355469 -0.220136001706123352
-0.430409759283065796 -0.359050482511520386 -0.220152854919433594
-0.195065811276435852 0.434990912675857544 -0.339608192443847656
-0.124403633177280426 0.449807971715927124 -0.404682964086532593
-0.29105377197265625 0.383048087358474731 -0.340192317962646484
-0.280657440423965454 -0.500602900981903076 -0.165151432156562805
-0.194719955325126648 -0.493747562170028687 -0.270404338836669922
-0.203206375241279602 -0.467778176069259644 -0.165824413299560547
0.00770823145285248756 0.443268060684204102 -0.315645843744277954
0.01856231689453125 0.371401071548461914 -0.463189601898193359
0.0493939705193042755 -0.487656354904174805 -0.247283294796943665
0.0392239876091480255 -0.540514349937438965 -0.122402667999267578
0.250806182622909546 0.470738083124160767 -0.273227065801620483
0.261810302734375 0.383760809898376465 -0.381259441375732422
0.252518981695175171 -0.502422988414764404 -0.204957485198974609
0.241924285888671875 -0.455318421125411987 -0.120455898344516754
0.348101288080215454 0.402516156435012817 -0.255050033330917358
0.456534057855606079 0.302017331123352051 -0.219743087887763977
0.46759796142578125 0.18928171694278717 -0.318305015563964844
0.490762084722518921 -0.0521397404372692108 -0.259523242712020874
0.403517395257949829 -0.272899329662322998 -0.219285324215888977
0.4636383056640625 -0.352286309003829956 -0.107981204986572266
0.358469635248184204 -0.460986524820327759 -0.0987111702561378479
0.528564453125 0.187034532427787781 -0.197373703122138977
0.450414031744003296 -0.0135519169270992279 -0.187728241086006165
0.513177216053009033 -0.254679471254348755 -0.139937236905097961
-0.378719329833984375 0.232827678322792053 -0.111771740019321442
-0.430670410394668579 0.216156467795372009 -0.0797271728515625
-0.484928131103515625 -0.0254255365580320358 -0.0605572052299976349
-0.484762817621231079 -0.226569339632987976 -0.0222678184509277344
-0.453502655029296875 -0.320830434560775757 0.019952455535531044
-0.218668624758720398 0.496150374412536621 -0.0997816696763038635
-0.335437774658203125 0.42241370677947998 -0.100294746458530426
-0.305233001708984375 -0.462096661329269409 0.0545155219733715057
-0.207570388913154602 -0.488904088735580444 0.0739868506789207458
0.00390752172097563744 0.50385129451751709 -0.0756281241774559021
0.0161285400390625 -0.482219338417053223 0.0971892699599266052
0.207319900393486023 0.508597075939178467 -0.0753510817885398865
0.218331649899482727 -0.495033890008926392 0.119600772857666016
0.326001495122909546 0.442633748054504395 -0.0551006011664867401
0.4544525146484375 0.319837749004364014 0.00141684210393577814
0.519635498523712158 -0.294294416904449463 0.11174551397562027
0.334737151861190796 -0.442312717437744141 0.101072631776332855
0.422176361083984375 0.247454285621643066 0.000978151918388903141
0.485436767339706421 0.0246256683021783829 0.0413829497992992401
0.428409576416015625 -0.216862425208091736 0.0996139869093894958
-0.483973175287246704 0.331592798233032227 0.127989456057548523
-0.470452636480331421 0.23026527464389801 0.116693176329135895
-0.442315429449081421 0.0124683761969208717 0.179095268249511719
-0.528380095958709717 -0.188372358679771423 0.197484806180000305
-0.45546722412109375 -0.303013712167739868 0.219702884554862976
-0.263337463140487671 0.453626066446304321 0.100464500486850739
-0.339941650629043579 0.482543677091598511 0.0994985923171043396
-0.328398376703262329 -0.424883365631103516 0.254731178283691406
-0.250218719244003296 -0.389656871557235718 0.293846458196640015
-0.0199495945125818253 0.542002499103546143 0.123463630676269531
-0.0272928867489099503 -0.384205371141433716 0.295993804931640625
0.183905288577079773 0.548683345317840576 0.145858451724052429
0.195524856448173523 -0.438149124383926392 0.339937210083007812
0.301025390625 0.499882221221923828 0.165153816342353821
0.429294586181640625 0.358665615320205688 0.220233753323554993
0.436045318841934204 -0.27515527606010437 0.311678081750869751
0.29203033447265625 -0.38434562087059021 0.341416686773300171
0.480391174554824829 0.264239877462387085 0.221955135464668274
0.482565551996231079 0.0425930581986904144 0.280677944421768188
0.412301391363143921 -0.158003434538841248 0.319719463586807251
-0.492167145013809204 0.251580983400344849 0.240345790982246399
-0.493081420660018921 0.0508981533348560333 0.258518218994140625
-0.466907501220703125 -0.169910475611686707 0.318151950836181641
-0.275121062994003296 0.478847146034240723 0.224802970886230469
-0.264661163091659546 0.3973064124584198 0.351550430059432983
-0.380343109369277954 0.297664433717727661 0.3582916259765625
-0.377825409173965454 0.0563648082315921783 0.397599846124649048
-0.3748626708984375 -0.223773166537284851 0.436005264520645142
-0.262514740228652954 -0.405012249946594238 0.360097557306289673
-0.276133209466934204 -0.236512318253517151 0.483529239892959595
-0.0490264892578125 0.507847070693969727 0.227436065673828125
-0.0609296150505542755 0.405241727828979492 0.37432590126991272
-0.0179341640323400497 -0.396902203559875488 0.381310135126113892
-0.0332667045295238495 -0.249837204813957214 0.484322637319564819
0.194037124514579773 0.493851929903030396 0.270334094762802124
0.182322189211845398 0.411658048629760742 0.39761701226234436
0.184528350830078125 -0.369977235794067383 0.427200794219970703
0.168905898928642273 -0.222539305686950684 0.528041541576385498
0.257350921630859375 0.317722082138061523 0.423563629388809204
0.399945586919784546 0.299413472414016724 0.332397788763046265
0.260430663824081421 0.157642006874084473 0.482394784688949585
0.402820587158203125 0.0585137605667114258 0.371764332056045532
0.265481323003768921 -0.124189920723438263 0.522380352020263672
0.4266204833984375 -0.164031848311424255 0.390505313873291016
-0.287993103265762329 0.290079444646835327 0.437497138977050781
-0.344425201416015625 0.0684605315327644348 0.476173728704452515
-0.282947540283203125 -0.152564257383346558 0.436774879693984985
-0.065026603639125824 0.317700237035751343 0.460887432098388672
-0.042758941650390625 0.0759123042225837708 0.500469505786895752
-0.0597890205681324005 -0.125717058777809143 0.539014160633087158
0.178522750735282898 0.32359728217124939 0.464310318231582642
0.180586501955986023 0.0823522359132766724 0.521700084209442139
0.183912917971611023 -0.142584517598152161 0.480430692434310913
3 0 1 2
3 1 3 4
3 2 1 4
3 3 5 6
3 4 3 6
3 5 7 6
3 0 8 9
3 1 0 9
3 9 10 1
3 1 10 3
3 10 11 3
3 3 11 5
3 5 11 12
3 7 5 12
3 8 13 14
3 9 8 14
3 14 15 9
3 9 15 10
3 15 16 10
3 10 16 11
3 11 16 17
3 12 11 17
3 14 13 18
3 15 14 18
3 19 15 18
3 16 15 19
3 20 16 19
3 16 20 17
3 21 22 23
3 22 24 25
3 23 22 25
3 24 26 27
3 25 24 27
3 26 28 27
3 29 30 31
3 2 22 21
3 0 2 21
3 0 21 31
3 0 31 30
3 4 22 2
3 24 22 4
3 6 24 4
3 26 24 6
3 26 32 28
3 6 32 26
3 6 33 32
3 6 7 33
3 33 34 32
3 29 35 36
3 30 29 36
3 36 0 30
3 8 0 36
3 12 33 7
3 37 33 12
3 33 37 38
3 34 33 38
3 35 39 40
3 36 35 40
3 40 8 36
3 13 8 40
3 17 37 12
3 41 37 17
3 37 41 42
3 38 37 42
3 40 39 43
3 43 44 45
3 40 43 45
3 40 45 18
3 40 18 13
3 18 46 19
3 45 46 18
3 19 47 20
3 46 47 19
3 48 49 41
3 47 48 41
3 47 41 17
3 47 17 20
3 41 49 42
3 45 44 50
3 46 45 50
3 51 46 50
3 47 46 51
3 52 47 51
3 47 52 48
3 53 21 23
3 54 53 23
3 23 25 54
3 25 55 54
3 25 27 55
3 27 56 55
3 28 57 56
3 27 28 56
3 58 29 31
3 59 58 31
3 31 53 59
3 21 53 31
3 60 28 32
3 57 28 60
3 34 61 60
3 32 34 60
3 35 29 62
3 62 29 58
3 38 63 34
3 63 61 34
3 39 35 64
3 64 35 62
3 42 65 38
3 65 63 38
3 66 43 39
3 64 66 39
3 44 66 67
3 43 66 44
3 68 49 48
3 69 49 68
3 49 69 65
3 42 49 65
3 70 50 44
3 67 70 44
3 50 70 51
3 51 70 71
3 51 71 52
3 52 71 72
3 52 72 68
3 48 52 68
3 73 53 54
3 74 73 54
3 54 55 74
3 55 75 74
3 55 56 75
3 56 76 75
3 57 77 76
3 56 57 76
3 78 58 59
3 79 78 59
3 59 73 79
3 53 73 59
3 80 57 60
3 77 57 80
3 61 81 80
3 60 61 80
3 62 58 82
3 82 58 78
3 63 83 61
3 83 81 61
3 64 62 84
3 84 62 82
3 65 85 63
3 85 83 63
3 86 66 64
3 84 86 64
3 67 86 87
3 66 86 67
3 88 69 68
3 89 69 88
3 69 89 85
3 65 69 85
3 90 70 67
3 87 90 67
3 70 90 71
3 71 90 91
3 71 91 72
3 72 91 92
3 72 92 88
3 68 72 88
3 73 74 93
3 74 75 94
3 93 74 94
3 75 76 95
3 94 75 95
3 76 77 95
3 78 79 96
3 97 93 98
3 96 93 97
3 96 73 93
3 96 79 73
3 94 98 93
3 99 98 94
3 95 99 94
3 100 99 95
3 100 101 102
3 95 101 100
3 95 80 101
3 95 77 80
3 80 81 101
3 82 78 96
3 103 82 96
3 96 104 103
3 97 104 96
3 102 105 106
3 101 105 102
3 105 101 81
3 83 105 81
3 84 82 103
3 107 84 103
3 103 108 107
3 104 108 103
3 106 109 110
3 105 109 106
3 109 105 83
3 85 109 83
3 86 84 107
3 107 108 111
3 86 107 111
3 86 111 112
3 86 112 87
3 112 113 114
3 111 113 112
3 114 115 116
3 113 115 114
3 89 110 109
3 88 110 89
3 88 115 110
3 88 116 115
3 89 109 85
3 90 87 112
3 91 90 112
3 114 91 112
3 92 91 114
3 116 92 114
3 92 116 88
3 97 98 117
3 98 99 118
3 117 98 118
3 99 100 119
3 118 99 119
3 100 102 119
3 104 97 117
3 120 104 117
3 120 117 121
3 117 118 121
3 121 118 122
3 118 119 122
3 122 119 102
3 106 122 102
3 108 104 120
3 123 108 120
3 123 120 124
3 120 121 124
3 124 121 125
3 121 122 125
3 125 122 106
3 110 125 106
3 111 108 123
3 113 111 123
3 124 113 123
3 115 113 124
3 125 115 124
3 115 125 110
