ply
format ascii 1.0
comment VCGLIB generated
element vertex 126
property float x
property float y
property float z
element face 248
property list uchar int vertex_indices
end_header
-0.116295807063579559 0.287363529205322266 -0.550057053565979004
-0.106485679745674133 0.225135326385498047 -0.457634717226028442
-0.205756813287734985 0.191237255930900574 -0.499934136867523193
-0.104015663266181946 0.0351767390966415405 -0.330871134996414185
-0.167493820190429688 -0.0107582220807671547 -0.402675062417984009
-0.189615875482559204 -0.169674322009086609 -0.349773764610290527
-0.126279190182685852 -0.216100782155990601 -0.393855363130569458
-0.219988808035850525 -0.26895943284034729 -0.318715959787368774
0.0885804444551467896 0.27855759859085083 -0.462331950664520264
0.108938209712505341 0.179725870490074158 -0.497019082307815552
0.07480621337890625 -0.0323744118213653564 -0.450526267290115356
0.0327730178833007812 -0.240533784031867981 -0.384554833173751831
0.0107113514095544815 -0.338411480188369751 -0.3603019118309021
0.283149063587188721 0.266145974397659302 -0.350821793079376221
0.270384132862091064 0.157152503728866577 -0.341733872890472412
0.288063675165176392 -0.0600618347525596619 -0.386584371328353882
0.239981010556221008 -0.266099721193313599 -0.314759016036987305
0.232599571347236633 -0.360393643379211426 -0.265954911708831787
0.378983795642852783 0.168060421943664551 -0.334123373031616211
0.332557350397109985 -0.0418500415980815887 -0.289670020341873169
0.2722930908203125 -0.2476368248462677 -0.207365348935127258
-0.302309989929199219 0.296794742345809937 -0.277702808380126953
-0.340873390436172485 0.189187899231910706 -0.351419240236282349
-0.388666778802871704 0.219164162874221802 -0.24517078697681427
-0.24785199761390686 0.00692143943160772324 -0.24548967182636261
-0.321830093860626221 0.0172501131892204285 -0.161162808537483215
-0.254645347595214844 -0.213400512933731079 -0.236718848347663879
-0.285569816827774048 -0.191564708948135376 -0.116141632199287415
-0.289608627557754517 -0.301068425178527832 -0.140606552362442017
-0.0737714767456054688 0.201773703098297119 -0.296144485473632812
-0.0741418153047561646 0.23262469470500946 -0.38916546106338501
-0.131486251950263977 0.302438884973526001 -0.27629929780960083
-0.118117325007915497 -0.420488059520721436 -0.164063364267349243
-0.216150268912315369 -0.419649004936218262 -0.221909269690513611
-0.169445663690567017 -0.342690110206604004 -0.218801885843276978
-0.0284306202083826065 0.418840765953063965 -0.273163110017776489
0.049085613340139389 0.413832724094390869 -0.353104054927825928
-0.0416994094848632812 -0.270254671573638916 -0.230531886219978333
-0.0151125583797693253 -0.268231451511383057 -0.104795493185520172
0.15099683403968811 0.27917143702507019 -0.281763464212417603
0.206027016043663025 0.346801877021789551 -0.21126885712146759
0.139492347836494446 -0.40371975302696228 -0.11210719496011734
0.192397430539131165 -0.324350446462631226 -0.156714513897895813
0.188293442130088806 0.205577507615089417 -0.203086718916893005
0.362642586231231689 0.245902583003044128 -0.212154373526573181
0.460341751575469971 0.159965649247169495 -0.177565008401870728
0.338075935840606689 -0.00842577312141656876 -0.110378660261631012
0.403326332569122314 -0.219533950090408325 -0.0912245064973831177
0.391844093799591064 -0.270916461944580078 -0.191921383142471313
0.280526459217071533 -0.37971949577331543 -0.15238642692565918
0.423142105340957642 0.233221471309661865 -0.113111928105354309
0.435366600751876831 0.0135468002408742905 -0.0838331356644630432
0.370531082153320312 -0.17111891508102417 -0.218156367540359497
-0.308281570672988892 0.289528310298919678 -0.0368410348892211914
-0.426766067743301392 0.25941234827041626 0.0022079546470195055
-0.330864578485488892 0.0631337538361549377 0.0668648853898048401
-0.320075333118438721 -0.153975293040275574 0.0890620499849319458
-0.284312546253204346 -0.2314605712890625 0.0831403285264968872
-0.0589609108865261078 0.168691977858543396 -0.0840036049485206604
-0.163766533136367798 0.217310503125190735 -0.0694747716188430786
-0.0980170518159866333 -0.26530495285987854 0.0185308847576379776
-0.12102285772562027 -0.220835715532302856 -0.0627370625734329224
-0.0248479824513196945 0.391716480255126953 -0.0530580654740333557
-0.0109179811552166939 -0.0883187949657440186 -0.250982046127319336
0.113310806453227997 0.226771101355552673 -0.0671414509415626526
0.227266937494277954 -0.131703540682792664 -0.269060730934143066
0.145719841122627258 0.334694534540176392 -0.0379965677857398987
0.319029480218887329 0.333683192729949951 -0.0118748340755701065
0.365187317132949829 -0.204343259334564209 0.034694671630859375
0.215328529477119446 -0.133559495210647583 -0.129008293151855469
0.241122230887413025 0.24811197817325592 0.00250955414958298206
0.202596977353096008 0.0263804085552692413 -0.0357554331421852112
0.275856643915176392 -0.202525511384010315 -0.0598774328827857971
-0.287121117115020752 0.283058732748031616 0.186366036534309387
-0.387134522199630737 0.322437047958374023 0.236075118184089661
-0.383377045392990112 0.104617893695831299 0.290020108222961426
-0.320566475391387939 -0.105430826544761658 0.300518453121185303
-0.203038841485977173 -0.110318645834922791 0.257409006357192993
-0.0490204468369483948 0.137667417526245117 0.152583122253417969
-0.144365623593330383 0.211563751101493835 0.15201885998249054
-0.0664075165987014771 -0.0773717835545539856 0.122444026172161102
-0.0117619829252362251 -0.116499260067939758 0.120762981474399567
-0.00139077496714890003 0.351286739110946655 0.169826745986938477
0.113407768309116364 -0.0499282218515872955 -0.0805085897445678711
0.20038922131061554 0.26619565486907959 0.135742217302322388
0.22804577648639679 0.0808662101626396179 -0.248102530837059021
0.114180244505405426 0.307442396879196167 0.185125261545181274
0.30612945556640625 0.334225893020629883 0.205313548445701599
0.491329818964004517 -0.058309558779001236 -0.0741267204284667969
0.320474296808242798 0.0174932088702917099 -0.182770878076553345
0.294372230768203735 0.233418062329292297 0.21149037778377533
0.257525444030761719 0.0277675334364175797 0.146806627511978149
0.390667885541915894 -0.0407237857580184937 -0.0379768982529640198
-0.337570488452911377 0.336932063102722168 0.33968806266784668
-0.335179954767227173 0.0887549743056297302 0.389118164777755737
-0.253693252801895142 -0.0331743992865085602 0.248447448015213013
-0.110661186277866364 0.150660380721092224 0.278499901294708252
-0.113536514341831207 0.359119534492492676 0.286282479763031006
-0.113271072506904602 0.30348128080368042 0.394706904888153076
-0.139640167355537415 0.126315638422966003 0.441073745489120483
-0.143070220947265625 -0.101457707583904266 0.390343457460403442
0.00533898640424013138 -0.205036967992782593 0.161994487047195435
-0.0737746506929397583 -0.11416713148355484 0.265255957841873169
0.015716552734375 0.351731091737747192 0.285442471504211426
0.0352875366806983948 0.316744446754455566 0.113253585994243622
0.122655227780342102 -0.0907571837306022644 -0.0124722709879279137
0.0956344529986381531 -0.0297416727989912033 0.149690300226211548
0.118177726864814758 0.232680007815361023 0.0882923603057861328
0.23774304986000061 0.186752229928970337 0.199691250920295715
0.266933441162109375 0.0998809337615966797 -0.0866778641939163208
0.285844802856445312 0.0381681285798549652 0.0809687376022338867
0.305528640747070312 0.0588811896741390228 0.181812047958374023
0.366606712341308594 0.229068219661712646 0.12406785786151886
0.321358025074005127 -0.0230762604624032974 -0.0267944727092981339
0.206880554556846619 0.0811182409524917603 0.0407296419143676758
0.411179840564727783 -0.0408286713063716888 0.177358582615852356
0.440125435590744019 0.0233666673302650452 0.0303866453468799591
-0.0404500961303710938 0.297962367534637451 0.299133449792861938
-0.117774002254009247 0.107366323471069336 0.318823248147964478
-0.046469368040561676 -0.0720625519752502441 0.380499333143234253
0.0148439398035407066 0.241448000073432922 0.0796027928590774536
0.00145276379771530628 0.0415525436401367188 0.147264793515205383
0.136426284909248352 -0.0270867329090833664 0.272571027278900146
0.178300529718399048 0.10233219712972641 0.161782503128051758
0.187171295285224915 -0.0621935687959194183 -0.00355343008413910866
0.307189613580703735 -0.0695919767022132874 0.145320490002632141
3 0 1 2
3 1 3 4
3 2 1 4
3 3 5 6
3 4 3 6
3 5 7 6
3 0 8 9
3 1 0 9
3 9 10 1
3 1 10 3
3 10 11 3
3 3 11 5
3 5 11 12
3 7 5 12
3 8 13 14
3 9 8 14
3 14 15 9
3 9 15 10
3 15 16 10
3 10 16 11
3 11 16 17
3 12 11 17
3 14 13 18
3 15 14 18
3 19 15 18
3 16 15 19
3 20 16 19
3 16 20 17
3 21 22 23
3 22 24 25
3 23 22 25
3 24 26 27
3 25 24 27
3 26 28 27
3 29 30 31
3 2 22 21
3 0 2 21
3 0 21 31
3 0 31 30
3 4 22 2
3 24 22 4
3 6 24 4
3 26 24 6
3 26 32 28
3 6 32 26
3 6 33 32
3 6 7 33
3 33 34 32
3 29 35 36
3 30 29 36
3 36 0 30
3 8 0 36
3 12 33 7
3 37 33 12
3 33 37 38
3 34 33 38
3 35 39 40
3 36 35 40
3 40 8 36
3 13 8 40
3 17 37 12
3 41 37 17
3 37 41 42
3 38 37 42
3 40 39 43
3 43 44 45
3 40 43 45
3 40 45 18
3 40 18 13
3 18 46 19
3 45 46 18
3 19 47 20
3 46 47 19
3 48 49 41
3 47 48 41
3 47 41 17
3 47 17 20
3 41 49 42
3 45 44 50
3 46 45 50
3 51 46 50
3 47 46 51
3 52 47 51
3 47 52 48
3 53 21 23
3 54 53 23
3 23 25 54
3 25 55 54
3 25 27 55
3 27 56 55
3 28 57 56
3 27 28 56
3 58 29 31
3 59 58 31
3 31 53 59
3 21 53 31
3 60 28 32
3 57 28 60
3 34 61 60
3 32 34 60
3 35 29 62
3 62 29 58
3 38 63 34
3 63 61 34
3 39 35 64
3 64 35 62
3 42 65 38
3 65 63 38
3 66 43 39
3 64 66 39
3 44 66 67
3 43 66 44
3 68 49 48
3 69 49 68
3 49 69 65
3 42 49 65
3 70 50 44
3 67 70 44
3 50 70 51
3 51 70 71
3 51 71 52
3 52 71 72
3 52 72 68
3 48 52 68
3 73 53 54
3 74 73 54
3 54 55 74
3 55 75 74
3 55 56 75
3 56 76 75
3 57 77 76
3 56 57 76
3 78 58 59
3 79 78 59
3 59 73 79
3 53 73 59
3 80 57 60
3 77 57 80
3 61 81 80
3 60 61 80
3 62 58 82
3 82 58 78
3 63 83 61
3 83 81 61
3 64 62 84
3 84 62 82
3 65 85 63
3 85 83 63
3 86 66 64
3 84 86 64
3 67 86 87
3 66 86 67
3 88 69 68
3 89 69 88
3 69 89 85
3 65 69 85
3 90 70 67
3 87 90 67
3 70 90 71
3 71 90 91
3 71 91 72
3 72 91 92
3 72 92 88
3 68 72 88
3 73 74 93
3 74 75 94
3 93 74 94
3 75 76 95
3 94 75 95
3 76 77 95
3 78 79 96
3 97 93 98
3 96 93 97
3 96 73 93
3 96 79 73
3 94 98 93
3 99 98 94
3 95 99 94
3 100 99 95
3 100 101 102
3 95 101 100
3 95 80 101
3 95 77 80
3 80 81 101
3 82 78 96
3 103 82 96
3 96 104 103
3 97 104 96
3 102 105 106
3 101 105 102
3 105 101 81
3 83 105 81
3 84 82 103
3 107 84 103
3 103 108 107
3 104 108 103
3 106 109 110
3 105 109 106
3 109 105 83
3 85 109 83
3 86 84 107
3 107 108 111
3 86 107 111
3 86 111 112
3 86 112 87
3 112 113 114
3 111 113 112
3 114 115 116
3 113 115 114
3 89 110 109
3 88 110 89
3 88 115 110
3 88 116 115
3 89 109 85
3 90 87 112
3 91 90 112
3 114 91 112
3 92 91 114
3 116 92 114
3 92 116 88
3 97 98 117
3 98 99 118
3 117 98 118
3 99 100 119
3 118 99 119
3 100 102 119
3 104 97 117
3 120 104 117
3 120 117 121
3 117 118 121
3 121 118 122
3 118 119 122
3 122 119 102
3 106 122 102
3 108 104 120
3 123 108 120
3 123 120 124
3 120 121 124
3 124 121 125
3 121 122 125
3 125 122 106
3 110 125 106
3 111 108 123
3 113 111 123
3 124 113 123
3 115 113 124
3 125 115 124
3 115 125 110
