ply
format ascii 1.0
comment VCGLIB generated
element vertex 126
property float x
property float y
property float z
element face 248
property list uchar int vertex_indices
end_header
-0.29948839545249939 0.395337611436843872 -0.402339577674865723
-0.214562848210334778 0.321904182434082031 -0.34040755033493042
-0.251785606145858765 0.278427273035049438 -0.230857893824577332
-0.317462563514709473 0.0623695403337478638 -0.448864787817001343
-0.301262229681015015 0.0121144624426960945 -0.316983789205551147
-0.267965137958526611 -0.146504908800125122 -0.269603729248046875
-0.309399694204330444 -0.256278842687606812 -0.340300887823104858
-0.22930145263671875 -0.254191458225250244 -0.179319590330123901
-0.041138041764497757 0.505019724369049072 -0.536539316177368164
-0.0249047707766294479 0.354962289333343506 -0.560323119163513184
-0.033134113997220993 0.0500380881130695343 -0.548121273517608643
-0.043522227555513382 -0.230765581130981445 -0.429973363876342773
-0.0147750154137611389 -0.327374368906021118 -0.332674741744995117
0.2053070068359375 0.487039417028427124 -0.41502755880355835
0.15483856201171875 0.356537938117980957 -0.352624982595443726
0.167532831430435181 0.0944915115833282471 -0.32070159912109375
0.211084529757499695 -0.162734940648078918 -0.310859888792037964
0.261162847280502319 -0.282746940851211548 -0.322329342365264893
0.282192230224609375 0.390975236892700195 -0.348657906055450439
0.305980324745178223 0.13006572425365448 -0.332967579364776611
0.349238991737365723 -0.137826636433601379 -0.292725116014480591
-0.536812841892242432 0.409314721822738647 -0.065632946789264679
-0.474426954984664917 0.294600784778594971 -0.167173251509666443
-0.54485321044921875 0.265026509761810303 -0.0616270825266838074
-0.473346710205078125 0.0163335632532835007 -0.16314484179019928
-0.428449451923370361 0.00775104528293013573 -0.032749176025390625
-0.479295879602432251 -0.265315353870391846 -0.181035563349723816
-0.443853884935379028 -0.28154599666595459 -0.0476308278739452362
-0.522173106670379639 -0.403921186923980713 -0.0677347183227539062
-0.221529871225357056 0.5950508713722229 -0.138430163264274597
-0.234650686383247375 0.495113283395767212 -0.199630260467529297
-0.321445465087890625 0.509066343307495117 -0.0748790353536605835
-0.370611697435379028 -0.573112845420837402 -0.0726248994469642639
-0.266895294189453125 -0.450507938861846924 -0.0678498074412345886
-0.222148895263671875 -0.585940659046173096 -0.0580655448138713837
0.00941883400082588196 0.661222755908966064 -0.20832061767578125
-0.00866629835218191147 0.607140779495239258 -0.338509291410446167
0.00592491822317242622 -0.491688728332519531 -0.171723142266273499
0.013162439689040184 -0.402730613946914673 -0.0707218870520591736
0.265903472900390625 0.607038259506225586 -0.227213770151138306
0.27030596137046814 0.691250026226043701 -0.362662166357040405
0.289261549711227417 -0.441750138998031616 -0.164838045835494995
0.280225932598114014 -0.370723336935043335 -0.0366403833031654358
0.329293340444564819 0.691647768020629883 -0.188506081700325012
0.445502877235412598 0.47375178337097168 -0.135231658816337585
0.274103343486785889 0.374033093452453613 -0.12764345109462738
0.415888696908950806 0.131403237581253052 -0.15176643431186676
0.510898947715759277 -0.108751364052295685 -0.134781047701835632
0.504434764385223389 -0.226296216249465942 -0.000742998963687568903
0.407097548246383667 -0.422700703144073486 -0.0321758873760700226
0.350759685039520264 0.424607187509536743 -0.0431680679321289062
0.309716999530792236 0.136216998100280762 -0.0535726547241210938
0.417456179857254028 -0.138681814074516296 -0.0256404001265764236
-0.564977467060089111 0.432103782892227173 0.216100648045539856
-0.56048130989074707 0.309538215398788452 0.202686995267868042
-0.577002406120300293 0.0114769246429204941 0.208795711398124695
-0.535039007663726807 -0.280236601829528809 0.219376295804977417
-0.551865279674530029 -0.410361230373382568 0.221980482339859009
-0.241936758160591125 0.636825144290924072 0.169216498732566833
-0.410966008901596069 0.613831520080566406 0.184928283095359802
-0.395644783973693848 -0.586324751377105713 0.218866944313049316
-0.287402749061584473 -0.502493679523468018 0.215328380465507507
0.000202872528461739421 0.631789207458496094 0.11997678130865097
-0.056549418717622757 -0.346772342920303345 0.216769516468048096
0.228101551532745361 0.512209117412567139 0.0550406612455844879
0.233424782752990723 -0.382199466228485107 0.246029973030090332
0.264422684907913208 0.63540881872177124 0.109066307544708252
0.485853701829910278 0.549728155136108398 0.137933164834976196
0.499869257211685181 -0.272904396057128906 0.270054131746292114
0.35457262396812439 -0.448037862777709961 0.254872709512710571
0.490661948919296265 0.405965149402618408 0.182196229696273804
0.360929310321807861 0.134902745485305786 0.232845425605773926
0.448173165321350098 -0.156838491559028625 0.253667384386062622
-0.52916264533996582 0.408943057060241699 0.487255394458770752
-0.606755316257476807 0.287728190422058105 0.490079134702682495
-0.527863919734954834 0.0123443389311432838 0.497714608907699585
-0.604463040828704834 -0.262393206357955933 0.497899264097213745
-0.515698492527008057 -0.360475331544876099 0.5061836838722229
-0.247523561120033264 0.551846086978912354 0.434164136648178101
-0.367568612098693848 0.545597851276397705 0.471122026443481445
-0.390246987342834473 -0.537995696067810059 0.516908586025238037
-0.279313862323760986 -0.466842681169509888 0.500124156475067139
0.00718897022306919098 0.491774678230285645 0.388228237628936768
-0.00773169752210378647 -0.410543978214263916 0.481894642114639282
0.214646071195602417 0.35101732611656189 0.30640643835067749
0.217307686805725098 -0.226639509201049805 0.475543826818466187
0.203319892287254333 0.487821519374847412 0.370803743600845337
0.432477414608001709 0.468365907669067383 0.394737720489501953
0.514921724796295166 -0.325108796358108521 0.542990744113922119
0.346497625112533569 -0.234940811991691589 0.442862719297409058
0.563068389892578125 0.405972510576248169 0.446958094835281372
0.451098352670669556 0.0916816368699073792 0.516910970211029053
0.531101226806640625 -0.190444245934486389 0.533137321472167969
-0.555106043815612793 0.296636313199996948 0.616598129272460938
-0.53049778938293457 0.0190717335790395737 0.63583981990814209
-0.593303322792053223 -0.266087144613265991 0.644244670867919922
-0.234959334135055542 0.523356735706329346 0.5913543701171875
-0.285864740610122681 0.418143421411514282 0.80335158109664917
-0.437032520771026611 0.321819186210632324 0.822493135929107666
-0.481844812631607056 0.0258667711168527603 0.85649561882019043
-0.46710619330406189 -0.263407886028289795 0.82184833288192749
-0.266156613826751709 -0.49581262469291687 0.639638245105743408
-0.328519999980926514 -0.291311383247375488 0.725770831108093262
-0.0466034635901451111 0.379906445741653442 0.498391717672348022
-0.0298534724861383438 0.288734227418899536 0.776469886302947998
0.003204345703125 -0.400212764739990234 0.617951452732086182
-0.0581914708018302917 -0.200892940163612366 0.722674012184143066
0.22518157958984375 0.328420042991638184 0.449342280626296997
0.227229371666908264 0.357610046863555908 0.687590301036834717
0.268738478422164917 -0.299669355154037476 0.594113290309906006
0.219549700617790222 -0.158306911587715149 0.759493410587310791
0.3859710693359375 0.372889727354049683 0.743536472320556641
0.453229367733001709 0.36568102240562439 0.545675933361053467
0.356568425893783569 0.0935668721795082092 0.807105600833892822
0.486002832651138306 0.0927159786224365234 0.642675697803497314
0.365496546030044556 -0.203001260757446289 0.849011778831481934
0.450279921293258667 -0.203401491045951843 0.647180736064910889
-0.32054901123046875 0.327974557876586914 0.906649887561798096
-0.349459201097488403 0.0401100963354110718 0.923514008522033691
-0.332430064678192139 -0.24543355405330658 0.85886693000793457
-0.0224772356450557709 0.344791173934936523 0.935392022132873535
-0.0522110685706138611 0.0555708073079586029 0.957828283309936523
-0.0522856265306472778 -0.21514265239238739 0.861562252044677734
0.246895864605903625 0.364452272653579712 0.810352861881256104
0.249266192317008972 0.0783765465021133423 0.888577461242675781
0.22678200900554657 -0.21131858229637146 0.885579347610473633
3 0 1 2
3 1 3 4
3 2 1 4
3 3 5 6
3 4 3 6
3 5 7 6
3 0 8 9
3 1 0 9
3 9 10 1
3 1 10 3
3 10 11 3
3 3 11 5
3 5 11 12
3 7 5 12
3 8 13 14
3 9 8 14
3 14 15 9
3 9 15 10
3 15 16 10
3 10 16 11
3 11 16 17
3 12 11 17
3 14 13 18
3 15 14 18
3 19 15 18
3 16 15 19
3 20 16 19
3 16 20 17
3 21 22 23
3 22 24 25
3 23 22 25
3 24 26 27
3 25 24 27
3 26 28 27
3 29 30 31
3 2 22 21
3 0 2 21
3 0 21 31
3 0 31 30
3 4 22 2
3 24 22 4
3 6 24 4
3 26 24 6
3 26 32 28
3 6 32 26
3 6 33 32
3 6 7 33
3 33 34 32
3 29 35 36
3 30 29 36
3 36 0 30
3 8 0 36
3 12 33 7
3 37 33 12
3 33 37 38
3 34 33 38
3 35 39 40
3 36 35 40
3 40 8 36
3 13 8 40
3 17 37 12
3 41 37 17
3 37 41 42
3 38 37 42
3 40 39 43
3 43 44 45
3 40 43 45
3 40 45 18
3 40 18 13
3 18 46 19
3 45 46 18
3 19 47 20
3 46 47 19
3 48 49 41
3 47 48 41
3 47 41 17
3 47 17 20
3 41 49 42
3 45 44 50
3 46 45 50
3 51 46 50
3 47 46 51
3 52 47 51
3 47 52 48
3 53 21 23
3 54 53 23
3 23 25 54
3 25 55 54
3 25 27 55
3 27 56 55
3 28 57 56
3 27 28 56
3 58 29 31
3 59 58 31
3 31 53 59
3 21 53 31
3 60 28 32
3 57 28 60
3 34 61 60
3 32 34 60
3 35 29 62
3 62 29 58
3 38 63 34
3 63 61 34
3 39 35 64
3 64 35 62
3 42 65 38
3 65 63 38
3 66 43 39
3 64 66 39
3 44 66 67
3 43 66 44
3 68 49 48
3 69 49 68
3 49 69 65
3 42 49 65
3 70 50 44
3 67 70 44
3 50 70 51
3 51 70 71
3 51 71 52
3 52 71 72
3 52 72 68
3 48 52 68
3 73 53 54
3 74 73 54
3 54 55 74
3 55 75 74
3 55 56 75
3 56 76 75
3 57 77 76
3 56 57 76
3 78 58 59
3 79 78 59
3 59 73 79
3 53 73 59
3 80 57 60
3 77 57 80
3 61 81 80
3 60 61 80
3 62 58 82
3 82 58 78
3 63 83 61
3 83 81 61
3 64 62 84
3 84 62 82
3 65 85 63
3 85 83 63
3 86 66 64
3 84 86 64
3 67 86 87
3 66 86 67
3 88 69 68
3 89 69 88
3 69 89 85
3 65 69 85
3 90 70 67
3 87 90 67
3 70 90 71
3 71 90 91
3 71 91 72
3 72 91 92
3 72 92 88
3 68 72 88
3 73 74 93
3 74 75 94
3 93 74 94
3 75 76 95
3 94 75 95
3 76 77 95
3 78 79 96
3 97 93 98
3 96 93 97
3 96 73 93
3 96 79 73
3 94 98 93
3 99 98 94
3 95 99 94
3 100 99 95
3 100 101 102
3 95 101 100
3 95 80 101
3 95 77 80
3 80 81 101
3 82 78 96
3 103 82 96
3 96 104 103
3 97 104 96
3 102 105 106
3 101 105 102
3 105 101 81
3 83 105 81
3 84 82 103
3 107 84 103
3 103 108 107
3 104 108 103
3 106 109 110
3 105 109 106
3 109 105 83
3 85 109 83
3 86 84 107
3 107 108 111
3 86 107 111
3 86 111 112
3 86 112 87
3 112 113 114
3 111 113 112
3 114 115 116
3 113 115 114
3 89 110 109
3 88 110 89
3 88 115 110
3 88 116 115
3 89 109 85
3 90 87 112
3 91 90 112
3 114 91 112
3 92 91 114
3 116 92 114
3 92 116 88
3 97 98 117
3 98 99 118
3 117 98 118
3 99 100 119
3 118 99 119
3 100 102 119
3 104 97 117
3 120 104 117
3 120 117 121
3 117 118 121
3 121 118 122
3 118 119 122
3 122 119 102
3 106 122 102
3 108 104 120
3 123 108 120
3 123 120 124
3 120 121 124
3 124 121 125
3 121 122 125
3 125 122 106
3 110 125 106
3 111 108 123
3 113 111 123
3 124 113 123
3 115 113 124
3 125 115 124
3 115 125 110
