ply
format ascii 1.0
comment VCGLIB generated
element vertex 126
property float x
property float y
property float z
element face 248
property list uchar int vertex_indices
end_header
-0.195697784423828125 0.240855634212493896 -0.472549915313720703
-0.16030120849609375 0.102187164127826691 -0.488935142755508423
-0.2446746826171875 0.149745628237724304 -0.535597801208496094
-0.165322616696357727 -0.0774907022714614868 -0.515269100666046143
-0.263219207525253296 -0.102322578430175781 -0.459117740392684937
-0.175523117184638977 -0.330878943204879761 -0.442129462957382202
-0.259939819574356079 -0.284434735774993896 -0.462704181671142578
-0.204362228512763977 -0.42001795768737793 -0.396091938018798828
0.045253753662109375 0.208888590335845947 -0.484173774719238281
0.0174624118953943253 0.171650230884552002 -0.412410259246826172
0.069807685911655426 -0.111599825322628021 -0.43610382080078125
0.0162417087703943253 -0.288072139024734497 -0.468225806951522827
0.068955741822719574 -0.41624605655670166 -0.361899703741073608
0.295850127935409546 0.217609897255897522 -0.401947826147079468
0.286940246820449829 0.169476568698883057 -0.481414318084716797
0.316699981689453125 -0.102719672024250031 -0.423287391662597656
0.238875076174736023 -0.263612449169158936 -0.466534465551376343
0.250090271234512329 -0.421111106872558594 -0.390092521905899048
0.349030822515487671 0.17324964702129364 -0.483405739068984985
0.406373351812362671 -0.105277426540851593 -0.373749583959579468
0.323193877935409546 -0.279584109783172607 -0.404479354619979858
-0.447774261236190796 0.234759196639060974 -0.303814738988876343
-0.44789886474609375 0.165976151823997498 -0.375884056091308594
-0.423177093267440796 0.207890167832374573 -0.346645206212997437
-0.382493346929550171 -0.0920663550496101379 -0.388439983129501343
-0.453828185796737671 -0.0663095638155937195 -0.286126464605331421
-0.4482574462890625 -0.247778370976448059 -0.27905765175819397
-0.427988678216934204 -0.307958662509918213 -0.251384884119033813
-0.398105621337890625 -0.370697617530822754 -0.184585884213447571
-0.234246566891670227 0.375800490379333496 -0.269846588373184204
-0.208611801266670227 0.387936949729919434 -0.440591335296630859
-0.271006256341934204 0.430772691965103149 -0.349999278783798218
-0.307252258062362671 -0.500423848628997803 -0.149493381381034851
-0.19150543212890625 -0.457591980695724487 -0.269326210021972656
-0.212993621826171875 -0.445232301950454712 -0.178917884826660156
-0.00703938817605376244 0.401585787534713745 -0.325910717248916626
0.0557797737419605255 0.413899898529052734 -0.36975446343421936
0.085634864866733551 -0.438421636819839478 -0.238017722964286804
0.0407244376838207245 -0.443046897649765015 -0.147434234619140625
0.269896179437637329 0.361880064010620117 -0.263739258050918579
0.232143402099609375 0.355683416128158569 -0.369332790374755859
0.304075866937637329 -0.497185945510864258 -0.217299625277519226
0.281878143548965454 -0.47730669379234314 -0.0945614203810691833
0.290644317865371704 0.425449728965759277 -0.259200423955917358
0.4812164306640625 0.284036844968795776 -0.201059341430664062
0.462651580572128296 0.162865474820137024 -0.28517565131187439
0.425242096185684204 -0.000575923186261206865 -0.296794414520263672
0.504230499267578125 -0.217114552855491638 -0.206701755523681641
0.507649719715118408 -0.319082051515579224 -0.12106546014547348
0.309032440185546875 -0.405008196830749512 -0.0875007286667823792
0.545895874500274658 0.156980320811271667 -0.177346706390380859
0.400019317865371704 0.00482079619541764259 -0.146929100155830383
0.451648712158203125 -0.271759718656539917 -0.159745529294013977
-0.477330535650253296 0.272903412580490112 -0.133042171597480774
-0.485652923583984375 0.241821780800819397 -0.0371340103447437286
-0.525610625743865967 0.00491139898076653481 -0.0230174064636230469
-0.390350341796875 -0.175934255123138428 0.026384035125374794
-0.459776550531387329 -0.310635089874267578 0.025142669677734375
-0.201001480221748352 0.516287624835968018 -0.0883555412292480469
-0.32782745361328125 0.423759222030639648 -0.127040863037109375
-0.278888702392578125 -0.484039932489395142 0.0195247326046228409
-0.251323699951171875 -0.463298797607421875 0.10380188375711441
-0.003505706787109375 0.445382386445999146 -0.12518136203289032
0.0325864143669605255 -0.550610125064849854 0.140260383486747742
0.207017257809638977 0.522509396076202393 -0.0647590979933738708
0.2169036865234375 -0.520601391792297363 0.0921463966369628906
0.314584106206893921 0.443816781044006348 -0.0240537319332361221
0.463415771722793579 0.308697670698165894 3.2742816983954981e-05
0.423187255859375 -0.332809805870056152 0.0597182922065258026
0.352953583002090454 -0.40856507420539856 0.144157245755195618
0.57222747802734375 0.19022369384765625 0.00712696695700287819
0.438306182622909546 0.0431266762316226959 0.0786657333374023438
0.452616363763809204 -0.240287065505981445 0.118789993226528168
-0.49919891357421875 0.355271220207214355 0.174627780914306641
-0.620554625988006592 0.219904437661170959 0.16068093478679657
-0.493310302495956421 0.0469875596463680267 0.121612392365932465
-0.482440948486328125 -0.227012023329734802 0.165331363677978516
-0.415582031011581421 -0.285135090351104736 0.209460422396659851
-0.257907867431640625 0.445865482091903687 0.140932723879814148
-0.348299652338027954 0.485623359680175781 0.152174949645996094
-0.321912139654159546 -0.390066981315612793 0.280585765838623047
-0.21196746826171875 -0.408234089612960815 0.330163002014160156
-0.059879302978515625 0.46491655707359314 0.122503913938999176
-0.0523783378303050995 -0.426530390977859497 0.323351860046386719
0.223107650876045227 0.478882163763046265 0.125188663601875305
0.237873077392578125 -0.410104662179946899 0.361052364110946655
0.263019561767578125 0.517197787761688232 0.21599404513835907
0.39499664306640625 0.309425383806228638 0.180392429232597351
0.456277221441268921 -0.23169301450252533 0.296000003814697266
0.261620849370956421 -0.435743182897567749 0.277351051568984985
0.500621795654296875 0.250873357057571411 0.22729937732219696
0.414728790521621704 0.0867687836289405823 0.234355926513671875
0.408884674310684204 -0.182933509349822998 0.301225513219833374
-0.547119140625 0.250229179859161377 0.224769279360771179
-0.439172118902206421 0.0907925441861152649 0.244349643588066101
-0.423292785882949829 -0.171271994709968567 0.210862800478935242
-0.233220413327217102 0.520382940769195557 0.18657238781452179
-0.249576568603515625 0.364280730485916138 0.398030132055282593
-0.390149444341659546 0.294204294681549072 0.375077724456787109
-0.349034637212753296 0.0512483008205890656 0.451492786407470703
-0.406225830316543579 -0.127540081739425659 0.38827928900718689
-0.29976654052734375 -0.364086955785751343 0.342425495386123657
-0.235132858157157898 -0.259450614452362061 0.514559507369995117
-0.085211433470249176 0.618710100650787354 0.287782996892929077
-0.103026069700717926 0.444636732339859009 0.504327595233917236
-0.00208536791615188122 -0.415975809097290039 0.372008949518203735
-0.001087188720703125 -0.200606837868690491 0.539634406566619873
0.124819435179233551 0.54456859827041626 0.208892345428466797
0.12420654296875 0.52502518892288208 0.45616641640663147
0.149837493896484375 -0.424660921096801758 0.373827934265136719
0.163918808102607727 -0.229342415928840637 0.442674010992050171
0.200144454836845398 0.30286717414855957 0.463972896337509155
0.396273285150527954 0.258017122745513916 0.354586273431777954
0.219027206301689148 0.125862032175064087 0.534745156764984131
0.446787506341934204 0.0373483039438724518 0.336825519800186157
0.248872116208076477 -0.104360900819301605 0.540867865085601807
0.390722900629043579 -0.134983554482460022 0.393004894256591797
-0.220972701907157898 0.307727009057998657 0.333433300256729126
-0.275305420160293579 0.0493364222347736359 0.394964694976806641
-0.21858978271484375 -0.12633727490901947 0.410413414239883423
-0.00205103564076125622 0.294850528240203857 0.458859294652938843
-0.0298894252628087997 0.0985770523548126221 0.480876773595809937
-0.088186897337436676 -0.146223768591880798 0.468671172857284546
0.205769851803779602 0.38806876540184021 0.405984878540039062
0.171877548098564148 0.0655183792114257812 0.474228948354721069
0.1713714599609375 -0.100618056952953339 0.489189058542251587
3 0 1 2
3 1 3 4
3 2 1 4
3 3 5 6
3 4 3 6
3 5 7 6
3 0 8 9
3 1 0 9
3 9 10 1
3 1 10 3
3 10 11 3
3 3 11 5
3 5 11 12
3 7 5 12
3 8 13 14
3 9 8 14
3 14 15 9
3 9 15 10
3 15 16 10
3 10 16 11
3 11 16 17
3 12 11 17
3 14 13 18
3 15 14 18
3 19 15 18
3 16 15 19
3 20 16 19
3 16 20 17
3 21 22 23
3 22 24 25
3 23 22 25
3 24 26 27
3 25 24 27
3 26 28 27
3 29 30 31
3 2 22 21
3 0 2 21
3 0 21 31
3 0 31 30
3 4 22 2
3 24 22 4
3 6 24 4
3 26 24 6
3 26 32 28
3 6 32 26
3 6 33 32
3 6 7 33
3 33 34 32
3 29 35 36
3 30 29 36
3 36 0 30
3 8 0 36
3 12 33 7
3 37 33 12
3 33 37 38
3 34 33 38
3 35 39 40
3 36 35 40
3 40 8 36
3 13 8 40
3 17 37 12
3 41 37 17
3 37 41 42
3 38 37 42
3 40 39 43
3 43 44 45
3 40 43 45
3 40 45 18
3 40 18 13
3 18 46 19
3 45 46 18
3 19 47 20
3 46 47 19
3 48 49 41
3 47 48 41
3 47 41 17
3 47 17 20
3 41 49 42
3 45 44 50
3 46 45 50
3 51 46 50
3 47 46 51
3 52 47 51
3 47 52 48
3 53 21 23
3 54 53 23
3 23 25 54
3 25 55 54
3 25 27 55
3 27 56 55
3 28 57 56
3 27 28 56
3 58 29 31
3 59 58 31
3 31 53 59
3 21 53 31
3 60 28 32
3 57 28 60
3 34 61 60
3 32 34 60
3 35 29 62
3 62 29 58
3 38 63 34
3 63 61 34
3 39 35 64
3 64 35 62
3 42 65 38
3 65 63 38
3 66 43 39
3 64 66 39
3 44 66 67
3 43 66 44
3 68 49 48
3 69 49 68
3 49 69 65
3 42 49 65
3 70 50 44
3 67 70 44
3 50 70 51
3 51 70 71
3 51 71 52
3 52 71 72
3 52 72 68
3 48 52 68
3 73 53 54
3 74 73 54
3 54 55 74
3 55 75 74
3 55 56 75
3 56 76 75
3 57 77 76
3 56 57 76
3 78 58 59
3 79 78 59
3 59 73 79
3 53 73 59
3 80 57 60
3 77 57 80
3 61 81 80
3 60 61 80
3 62 58 82
3 82 58 78
3 63 83 61
3 83 81 61
3 64 62 84
3 84 62 82
3 65 85 63
3 85 83 63
3 86 66 64
3 84 86 64
3 67 86 87
3 66 86 67
3 88 69 68
3 89 69 88
3 69 89 85
3 65 69 85
3 90 70 67
3 87 90 67
3 70 90 71
3 71 90 91
3 71 91 72
3 72 91 92
3 72 92 88
3 68 72 88
3 73 74 93
3 74 75 94
3 93 74 94
3 75 76 95
3 94 75 95
3 76 77 95
3 78 79 96
3 97 93 98
3 96 93 97
3 96 73 93
3 96 79 73
3 94 98 93
3 99 98 94
3 95 99 94
3 100 99 95
3 100 101 102
3 95 101 100
3 95 80 101
3 95 77 80
3 80 81 101
3 82 78 96
3 103 82 96
3 96 104 103
3 97 104 96
3 102 105 106
3 101 105 102
3 105 101 81
3 83 105 81
3 84 82 103
3 107 84 103
3 103 108 107
3 104 108 103
3 106 109 110
3 105 109 106
3 109 105 83
3 85 109 83
3 86 84 107
3 107 108 111
3 86 107 111
3 86 111 112
3 86 112 87
3 112 113 114
3 111 113 112
3 114 115 116
3 113 115 114
3 89 110 109
3 88 110 89
3 88 115 110
3 88 116 115
3 89 109 85
3 90 87 112
3 91 90 112
3 114 91 112
3 92 91 114
3 116 92 114
3 92 116 88
3 97 98 117
3 98 99 118
3 117 98 118
3 99 100 119
3 118 99 119
3 100 102 119
3 104 97 117
3 120 104 117
3 120 117 121
3 117 118 121
3 121 118 122
3 118 119 122
3 122 119 102
3 106 122 102
3 108 104 120
3 123 108 120
3 123 120 124
3 120 121 124
3 124 121 125
3 121 122 125
3 125 122 106
3 110 125 106
3 111 108 123
3 113 111 123
3 124 113 123
3 115 113 124
3 125 115 124
3 115 125 110
