ply
format ascii 1.0
comment VCGLIB generated
element vertex 126
property float x
property float y
property float z
element face 248
property list uchar int vertex_indices
end_header
-0.158514291048049927 0.313313901424407959 -0.393224954605102539
-0.146579742431640625 0.234080255031585693 -0.46695062518119812
-0.246221005916595459 0.211473599076271057 -0.420781046152114868
-0.140752792358398438 0.00981897301971912384 -0.51484227180480957
-0.203902378678321838 -0.00770279671996831894 -0.425417423248291016
-0.091037750244140625 -0.0859346911311149597 -0.290057659149169922
-0.0322369188070297241 0.00434433901682496071 -0.27989661693572998
-0.00240325927734375 -0.101661734282970428 -0.209849223494529724
-0.0196252558380365372 0.219250857830047607 -0.249816864728927612
3.814697265625e-05 0.137635037302970886 -0.319558382034301758
0.0795446112751960754 0.0258515402674674988 -0.500576674938201904
0.0755623430013656616 -0.190737485885620117 -0.423015713691711426
0.0792462527751922607 -0.246114760637283325 -0.344324469566345215
0.163658693432807922 0.329477399587631226 -0.321346193552017212
0.194335669279098511 0.239583134651184082 -0.375836580991744995
0.283399313688278198 0.0389916971325874329 -0.416331648826599121
0.268869400024414062 -0.165711253881454468 -0.334794342517852783
0.298148572444915771 -0.267658829689025879 -0.327495843172073364
0.290070950984954834 0.275734782218933105 -0.335317343473434448
0.364785879850387573 0.0630511939525604248 -0.347392052412033081
0.382648199796676636 -0.162720039486885071 -0.315935611724853516
-0.404844284057617188 0.283300548791885376 -0.200759515166282654
-0.374897539615631104 0.191829249262809753 -0.295959532260894775
-0.358745038509368896 0.181262493133544922 -0.189954221248626709
-0.302243918180465698 -0.0179951991885900497 -0.288439482450485229
-0.31902042031288147 -0.0347702205181121826 -0.176417827606201172
-0.129785537719726562 -0.0317819602787494659 -0.159817248582839966
-0.125345498323440552 -0.131061539053916931 -0.160984992980957031
-0.0306878779083490372 -0.122890584170818329 -0.0910970121622085571
-0.22006852924823761 0.504427075386047363 -0.18361295759677887
-0.186437875032424927 0.440521299839019775 -0.271991163492202759
-0.30361175537109375 0.436312645673751831 -0.190053835511207581
-0.0344944000244140625 -0.296119421720504761 -0.147435843944549561
-0.136429920792579651 -0.234892025589942932 -0.167219296097755432
-0.0947638973593711853 -0.350389152765274048 -0.199893712997436523
-0.0601700395345687866 0.415771067142486572 -0.0467457100749015808
-0.0434998124837875366 0.34075203537940979 -0.127287253737449646
0.0549793243408203125 -0.36053052544593811 -0.207097023725509644
0.108950480818748474 -0.264755278825759888 -0.22938847541809082
0.121898651123046875 0.528363049030303955 -0.112176455557346344
0.130330502986907959 0.46012231707572937 -0.202670440077781677
0.286961972713470459 -0.359073758125305176 -0.175873547792434692
0.271880298852920532 -0.311319947242736816 -0.0773371979594230652
0.225366875529289246 0.494060814380645752 -0.111754797399044037
0.344766885042190552 0.369339495897293091 -0.0966114699840545654
0.395921975374221802 0.28919336199760437 -0.192093849182128906
0.421525418758392334 0.0680836215615272522 -0.182304725050926208
0.490463823080062866 -0.130152016878128052 -0.174218922853469849
0.473741799592971802 -0.186727449297904968 -0.043950933963060379
0.325708389282226562 -0.227866962552070618 -0.13882841169834137
0.41024482250213623 0.287627100944519043 -0.0788387209177017212
0.340441286563873291 0.0770093128085136414 -0.116815395653247833
0.48394477367401123 -0.0776368230581283569 -0.0651594549417495728
-0.425254285335540771 0.293587058782577515 0.0247563645243644714
-0.434901386499404907 0.187113583087921143 0.0240904949605464935
-0.405342936515808105 -0.0356787964701652527 0.0210567880421876907
-0.235887259244918823 -0.162544041872024536 0.0218166634440422058
-0.155856266617774963 -0.215413078665733337 -0.0074117523618042469
-0.280908852815628052 0.540945827960968018 0.0365585945546627045
-0.328837811946868896 0.442927032709121704 0.0381285808980464935
-0.0864001661539077759 -0.405581295490264893 0.0367920733988285065
-0.0014209747314453125 -0.448959082365036011 -0.0132196294143795967
-0.0645692050457000732 0.608937680721282959 0.0659057050943374634
0.178841188549995422 -0.337380677461624146 -0.0358859151601791382
0.154636934399604797 0.601549685001373291 0.101909302175045013
0.200819298624992371 -0.136787652969360352 0.0495209023356437683
0.237088888883590698 0.529813051223754883 0.109369076788425446
0.248468950390815735 0.3452320396900177 0.10739445686340332
0.33612525463104248 -0.156468614935874939 0.130988538265228271
0.270818978548049927 -0.0498466640710830688 -0.000156334470375441015
0.333776473999023438 0.274947226047515869 0.132897928357124329
0.226781025528907776 0.0892167985439300537 0.0723677054047584534
0.304876059293746948 -0.103622026741504669 0.0541075654327869415
-0.453957170248031616 0.294754683971405029 0.24988873302936554
-0.465397149324417114 0.184296697378158569 0.246742293238639832
-0.379288554191589355 -0.0165106188505887985 0.249319598078727722
-0.167373925447463989 -0.116894930601119995 0.226327016949653625
-0.141134262084960938 -0.254716038703918457 0.209281787276268005
-0.275489270687103271 0.51117253303527832 0.259917646646499634
-0.357666015625 0.444124728441238403 0.264309465885162354
0.0322110317647457123 -0.300768613815307617 0.196756303310394287
-0.0338499881327152252 -0.270913690328598022 0.131484776735305786
-0.0558553449809551239 0.499102264642715454 0.246539637446403503
0.197550907731056213 -0.296556055545806885 0.181393280625343323
0.139816835522651672 0.562078177928924561 0.319090574979782104
0.408496856689453125 -0.207121118903160095 0.130856215953826904
0.241839542984962463 0.522489845752716064 0.332077562808990479
0.309475481510162354 0.355734795331954956 0.31436648964881897
0.537244260311126709 -0.0702375471591949463 0.134847342967987061
0.442891806364059448 -0.182476028800010681 0.0226129814982414246
0.269779473543167114 0.259352713823318481 0.347961872816085815
0.383976548910140991 0.189655527472496033 0.172923803329467773
0.464788168668746948 -0.0182837322354316711 0.20204085111618042
-0.425988614559173584 0.199791178107261658 0.348152101039886475
-0.3411865234375 -0.0108046121895313263 0.352882146835327148
-0.201584950089454651 -0.184745341539382935 0.315388619899749756
-0.280970156192779541 0.481578320264816284 0.364253520965576172
-0.221598491072654724 0.360975742340087891 0.475932866334915161
-0.311325609683990479 0.269405156373977661 0.452009618282318115
-0.208360135555267334 0.0828300043940544128 0.411275476217269897
-0.151745930314064026 -0.0448909103870391846 0.221324995160102844
0.0264767240732908249 -0.201173961162567139 0.0919502153992652893
-0.0863851830363273621 -0.168893769383430481 0.222765728831291199
-0.0840241611003875732 0.46084633469581604 0.320724606513977051
-0.00230107991956174374 0.393987685441970825 0.439936786890029907
0.197605416178703308 -0.195694521069526672 0.223469734191894531
0.111004970967769623 -0.0678756088018417358 0.26622501015663147
0.127350941300392151 0.456432491540908813 0.376037359237670898
0.141203746199607849 0.28995928168296814 0.28655579686164856
0.338724672794342041 -0.11988801509141922 0.0754536911845207214
0.240524843335151672 0.0142831942066550255 0.120497435331344604
0.209293365478515625 0.200821608304977417 0.367464184761047363
0.3638458251953125 0.287426084280014038 0.411115884780883789
0.282677233219146729 0.212193951010704041 0.151135921478271484
0.454864501953125 0.244649738073348999 0.212488174438476562
0.305532723665237427 0.00746265007182955742 0.238748624920845032
0.452205121517181396 0.0409708507359027863 0.123406991362571716
-0.236323222517967224 0.325721919536590576 0.382620275020599365
-0.153875350952148438 0.126469835638999939 0.327663242816925049
-0.0831849277019500732 -0.086528390645980835 0.287821799516677856
-0.0155735015869140625 0.295775413513183594 0.459736078977584839
0.036029815673828125 0.214838385581970215 0.25585600733757019
0.0992080196738243103 0.00541016552597284317 0.196287289261817932
0.105168484151363373 0.167950049042701721 0.32497134804725647
0.26180267333984375 0.260573238134384155 0.248379886150360107
0.309182584285736084 0.0669071599841117859 0.164862185716629028
3 0 1 2
3 1 3 4
3 2 1 4
3 3 5 6
3 4 3 6
3 5 7 6
3 0 8 9
3 1 0 9
3 9 10 1
3 1 10 3
3 10 11 3
3 3 11 5
3 5 11 12
3 7 5 12
3 8 13 14
3 9 8 14
3 14 15 9
3 9 15 10
3 15 16 10
3 10 16 11
3 11 16 17
3 12 11 17
3 14 13 18
3 15 14 18
3 19 15 18
3 16 15 19
3 20 16 19
3 16 20 17
3 21 22 23
3 22 24 25
3 23 22 25
3 24 26 27
3 25 24 27
3 26 28 27
3 29 30 31
3 2 22 21
3 0 2 21
3 0 21 31
3 0 31 30
3 4 22 2
3 24 22 4
3 6 24 4
3 26 24 6
3 26 32 28
3 6 32 26
3 6 33 32
3 6 7 33
3 33 34 32
3 29 35 36
3 30 29 36
3 36 0 30
3 8 0 36
3 12 33 7
3 37 33 12
3 33 37 38
3 34 33 38
3 35 39 40
3 36 35 40
3 40 8 36
3 13 8 40
3 17 37 12
3 41 37 17
3 37 41 42
3 38 37 42
3 40 39 43
3 43 44 45
3 40 43 45
3 40 45 18
3 40 18 13
3 18 46 19
3 45 46 18
3 19 47 20
3 46 47 19
3 48 49 41
3 47 48 41
3 47 41 17
3 47 17 20
3 41 49 42
3 45 44 50
3 46 45 50
3 51 46 50
3 47 46 51
3 52 47 51
3 47 52 48
3 53 21 23
3 54 53 23
3 23 25 54
3 25 55 54
3 25 27 55
3 27 56 55
3 28 57 56
3 27 28 56
3 58 29 31
3 59 58 31
3 31 53 59
3 21 53 31
3 60 28 32
3 57 28 60
3 34 61 60
3 32 34 60
3 35 29 62
3 62 29 58
3 38 63 34
3 63 61 34
3 39 35 64
3 64 35 62
3 42 65 38
3 65 63 38
3 66 43 39
3 64 66 39
3 44 66 67
3 43 66 44
3 68 49 48
3 69 49 68
3 49 69 65
3 42 49 65
3 70 50 44
3 67 70 44
3 50 70 51
3 51 70 71
3 51 71 52
3 52 71 72
3 52 72 68
3 48 52 68
3 73 53 54
3 74 73 54
3 54 55 74
3 55 75 74
3 55 56 75
3 56 76 75
3 57 77 76
3 56 57 76
3 78 58 59
3 79 78 59
3 59 73 79
3 53 73 59
3 80 57 60
3 77 57 80
3 61 81 80
3 60 61 80
3 62 58 82
3 82 58 78
3 63 83 61
3 83 81 61
3 64 62 84
3 84 62 82
3 65 85 63
3 85 83 63
3 86 66 64
3 84 86 64
3 67 86 87
3 66 86 67
3 88 69 68
3 89 69 88
3 69 89 85
3 65 69 85
3 90 70 67
3 87 90 67
3 70 90 71
3 71 90 91
3 71 91 72
3 72 91 92
3 72 92 88
3 68 72 88
3 73 74 93
3 74 75 94
3 93 74 94
3 75 76 95
3 94 75 95
3 76 77 95
3 78 79 96
3 97 93 98
3 96 93 97
3 96 73 93
3 96 79 73
3 94 98 93
3 99 98 94
3 95 99 94
3 100 99 95
3 100 101 102
3 95 101 100
3 95 80 101
3 95 77 80
3 80 81 101
3 82 78 96
3 103 82 96
3 96 104 103
3 97 104 96
3 102 105 106
3 101 105 102
3 105 101 81
3 83 105 81
3 84 82 103
3 107 84 103
3 103 108 107
3 104 108 103
3 106 109 110
3 105 109 106
3 109 105 83
3 85 109 83
3 86 84 107
3 107 108 111
3 86 107 111
3 86 111 112
3 86 112 87
3 112 113 114
3 111 113 112
3 114 115 116
3 113 115 114
3 89 110 109
3 88 110 89
3 88 115 110
3 88 116 115
3 89 109 85
3 90 87 112
3 91 90 112
3 114 91 112
3 92 91 114
3 116 92 114
3 92 116 88
3 97 98 117
3 98 99 118
3 117 98 118
3 99 100 119
3 118 99 119
3 100 102 119
3 104 97 117
3 120 104 117
3 120 117 121
3 117 118 121
3 121 118 122
3 118 119 122
3 122 119 102
3 106 122 102
3 108 104 120
3 123 108 120
3 123 120 124
3 120 121 124
3 124 121 125
3 121 122 125
3 125 122 106
3 110 125 106
3 111 108 123
3 113 111 123
3 124 113 123
3 115 113 124
3 125 115 124
3 115 125 110
