ply
format ascii 1.0
comment VCGLIB generated
element vertex 126
property float x
property float y
property float z
element face 248
property list uchar int vertex_indices
end_header
-0.163976132869720459 0.323991209268569946 -0.399982422590255737
-0.158961161971092224 0.242293760180473328 -0.472776889801025391
-0.253644675016403198 0.222273558378219604 -0.416650086641311646
-0.149383544921875 0.0252124294638633728 -0.514785408973693848
-0.214864194393157959 0.00131557160057127476 -0.430828005075454712
-0.0791045576333999634 -0.0877301320433616638 -0.335411518812179565
-0.0397409722208976746 0.00527914008125662804 -0.289022922515869141
-0.01338958740234375 -0.124074190855026245 -0.253374248743057251
-0.0294017791748046875 0.208686187863349915 -0.262412846088409424
-0.00715800700709223747 0.136657223105430603 -0.34735986590385437
0.076503753662109375 0.0338010266423225403 -0.533230125904083252
0.0809001922607421875 -0.183513611555099487 -0.462331950664520264
0.0736005008220672607 -0.273335039615631104 -0.395401209592819214
0.144225537776947021 0.335138171911239624 -0.328284174203872681
0.181741714477539062 0.250676184892654419 -0.388797521591186523
0.284402042627334595 0.0582755580544471741 -0.440470337867736816
0.263441622257232666 -0.143549308180809021 -0.342933624982833862
0.294053226709365845 -0.250091344118118286 -0.347614973783493042
0.273099631071090698 0.287165701389312744 -0.338419497013092041
0.362403064966201782 0.0828982144594192505 -0.36203351616859436
0.372779041528701782 -0.138662740588188171 -0.329184889793395996
-0.410126298666000366 0.285619109869003296 -0.199605569243431091
-0.381288528442382812 0.18816588819026947 -0.292549639940261841
-0.360287249088287354 0.190695807337760925 -0.182804211974143982
-0.325032651424407959 -0.0266189444810152054 -0.287709921598434448
-0.373223185539245605 -0.0320425517857074738 -0.183744609355926514
-0.142650604248046875 -0.0348848253488540649 -0.148687198758125305
-0.177674978971481323 -0.139660537242889404 -0.119045637547969818
-0.0966903194785118103 -0.132683545351028442 -0.0656042769551277161
-0.234402254223823547 0.50609511137008667 -0.192435130476951599
-0.199271619319915771 0.44419485330581665 -0.273995071649551392
-0.317619860172271729 0.437644928693771362 -0.200644567608833313
-0.026306426152586937 -0.281018048524856567 -0.147664725780487061
-0.146262302994728088 -0.234597370028495789 -0.208861157298088074
-0.0959927737712860107 -0.329441279172897339 -0.215281248092651367
-0.0892012491822242737 0.407905787229537964 -0.0519876815378665924
-0.0679779052734375 0.329899758100509644 -0.131128862500190735
0.0494493767619132996 -0.3324698805809021 -0.228408575057983398
0.101987294852733612 -0.23220236599445343 -0.238287970423698425
0.0947993174195289612 0.520668864250183105 -0.111144609749317169
0.102924622595310211 0.45682862401008606 -0.203028753399848938
0.267929345369338989 -0.355075061321258545 -0.202096357941627502
0.261898040771484375 -0.308778345584869385 -0.100495137274265289
0.199692592024803162 0.492195844650268555 -0.11202675849199295
0.272806704044342041 0.326755613088607788 -0.122999124228954315
0.387212216854095459 0.316144704818725586 -0.201482608914375305
0.442436784505844116 0.101382873952388763 -0.20192350447177887
0.470908045768737793 -0.115958422422409058 -0.181869268417358398
0.450391769409179688 -0.196422114968299866 -0.0712071135640144348
0.298540949821472168 -0.224939525127410889 -0.16220468282699585
0.376875758171081543 0.314742892980575562 -0.0903691574931144714
0.345235556364059448 0.0997374355792999268 -0.147982493042945862
0.444545745849609375 -0.0868721306324005127 -0.0781338587403297424
-0.434289664030075073 0.303108900785446167 0.0254700873047113419
-0.436763763427734375 0.189097180962562561 0.0292582176625728607
-0.45300757884979248 -0.0446367226541042328 0.00862632505595684052
-0.296547770500183105 -0.237589016556739807 0.0293552875518798828
-0.219320580363273621 -0.279092997312545776 0.0354421138763427734
-0.296264380216598511 0.554885208606719971 0.0201048180460929871
-0.348681032657623291 0.457577168941497803 0.0211107730865478516
-0.101643972098827362 -0.409108102321624756 0.0224491525441408157
-0.0175503324717283249 -0.443526387214660645 -0.0427094548940658569
-0.0819832980632781982 0.602467775344848633 0.0671383291482925415
0.184856146574020386 -0.347024589776992798 -0.0661420822143554688
0.136398583650588989 0.561619818210601807 0.107882194221019745
0.199766159057617188 -0.156525984406471252 0.0541460514068603516
0.200850620865821838 0.473485082387924194 0.110341139137744904
0.206044062972068787 0.295111536979675293 0.0900069326162338257
0.333283305168151855 -0.189687535166740417 0.12039627879858017
0.254280924797058105 -0.0733829587697982788 0.0027344909030944109
0.308299750089645386 0.267711490392684937 0.119200609624385834
0.202574059367179871 0.0934399813413619995 0.0269193314015865326
0.279490619897842407 -0.111720085144042969 0.0702907368540763855
-0.424548566341400146 0.297322601079940796 0.25241580605506897
-0.443480372428894043 0.182152092456817627 0.249617278575897217
-0.33393588662147522 0.0209115277975797653 0.14900583028793335
-0.148305892944335938 -0.0975834354758262634 0.150029316544532776
-0.04886627197265625 -0.186174690723419189 0.153180360794067383
-0.25405612587928772 0.52376103401184082 0.240914657711982727
-0.345621109008789062 0.462126880884170532 0.244289979338645935
0.050506591796875 -0.314639180898666382 0.156155318021774292
-0.0345856808125972748 -0.270366758108139038 0.10365111380815506
-0.0743702501058578491 0.409901052713394165 0.184843376278877258
0.1848602294921875 -0.296649128198623657 0.151666745543479919
0.0863007158041000366 0.485742241144180298 0.311151564121246338
0.396570473909378052 -0.220929279923439026 0.137679070234298706
0.194120407104492188 0.451640337705612183 0.330646723508834839
0.287812113761901855 0.301663339138031006 0.299054056406021118
0.518257975578308105 -0.0628454238176345825 0.132039785385131836
0.435389131307601929 -0.190135776996612549 0.0369356349110603333
0.231644764542579651 0.210721448063850403 0.325182855129241943
0.362943917512893677 0.180328771471977234 0.15287722647190094
0.440912246704101562 -0.0244894940406084061 0.202525347471237183
-0.380047410726547241 0.188358157873153687 0.333232372999191284
-0.228345051407814026 0.0786273106932640076 0.170747384428977966
-0.196005955338478088 -0.158943712711334229 0.146578729152679443
-0.259126931428909302 0.491188526153564453 0.348384052515029907
-0.217519491910934448 0.365177363157272339 0.47360914945602417
-0.278797149658203125 0.220449149608612061 0.46733364462852478
-0.143297746777534485 0.0935569554567337036 0.360632956027984619
-0.0981453508138656616 -0.0116747245192527771 0.195239782333374023
0.0471741817891597748 -0.206124916672706604 0.0598389767110347748
-0.0950935930013656616 -0.160093680024147034 0.174235790967941284
-0.127043038606643677 0.348663091659545898 0.249493643641471863
0.0001049041748046875 0.351719677448272705 0.395685940980911255
0.181914746761322021 -0.220524623990058899 0.232314899563789368
0.0968279168009757996 -0.0624078847467899323 0.238552272319793701
0.0917802527546882629 0.386212944984436035 0.277077645063400269
0.11915888637304306 0.22159847617149353 0.242975100874900818
0.353952139616012573 -0.118752218782901764 0.122267179191112518
0.224256515502929688 -0.00549971964210271835 0.0687602609395980835
0.180698126554489136 0.130302846431732178 0.321348577737808228
0.315697550773620605 0.214258670806884766 0.402848392724990845
0.267239987850189209 0.208809360861778259 0.128642156720161438
0.432098954916000366 0.22736746072769165 0.212520360946655273
0.258477091789245605 -0.00098185345996171236 0.205970838665962219
0.411161690950393677 0.0266363788396120071 0.11199372261762619
-0.236843660473823547 0.292394012212753296 0.403944432735443115
-0.178546905517578125 0.115143753588199615 0.282711803913116455
-0.0772258192300796509 -0.104995563626289368 0.263331443071365356
-0.0153405331075191498 0.256779700517654419 0.437002867460250854
0.0198895595967769623 0.178888529539108276 0.233301267027854919
0.0903660953044891357 -0.0108466856181621552 0.139159649610519409
0.0771604254841804504 0.123333647847175598 0.276256293058395386
0.244072511792182922 0.250552207231521606 0.230218350887298584
0.295253485441207886 0.0569705776870250702 0.126637399196624756
3 0 1 2
3 1 3 4
3 2 1 4
3 3 5 6
3 4 3 6
3 5 7 6
3 0 8 9
3 1 0 9
3 9 10 1
3 1 10 3
3 10 11 3
3 3 11 5
3 5 11 12
3 7 5 12
3 8 13 14
3 9 8 14
3 14 15 9
3 9 15 10
3 15 16 10
3 10 16 11
3 11 16 17
3 12 11 17
3 14 13 18
3 15 14 18
3 19 15 18
3 16 15 19
3 20 16 19
3 16 20 17
3 21 22 23
3 22 24 25
3 23 22 25
3 24 26 27
3 25 24 27
3 26 28 27
3 29 30 31
3 2 22 21
3 0 2 21
3 0 21 31
3 0 31 30
3 4 22 2
3 24 22 4
3 6 24 4
3 26 24 6
3 26 32 28
3 6 32 26
3 6 33 32
3 6 7 33
3 33 34 32
3 29 35 36
3 30 29 36
3 36 0 30
3 8 0 36
3 12 33 7
3 37 33 12
3 33 37 38
3 34 33 38
3 35 39 40
3 36 35 40
3 40 8 36
3 13 8 40
3 17 37 12
3 41 37 17
3 37 41 42
3 38 37 42
3 40 39 43
3 43 44 45
3 40 43 45
3 40 45 18
3 40 18 13
3 18 46 19
3 45 46 18
3 19 47 20
3 46 47 19
3 48 49 41
3 47 48 41
3 47 41 17
3 47 17 20
3 41 49 42
3 45 44 50
3 46 45 50
3 51 46 50
3 47 46 51
3 52 47 51
3 47 52 48
3 53 21 23
3 54 53 23
3 23 25 54
3 25 55 54
3 25 27 55
3 27 56 55
3 28 57 56
3 27 28 56
3 58 29 31
3 59 58 31
3 31 53 59
3 21 53 31
3 60 28 32
3 57 28 60
3 34 61 60
3 32 34 60
3 35 29 62
3 62 29 58
3 38 63 34
3 63 61 34
3 39 35 64
3 64 35 62
3 42 65 38
3 65 63 38
3 66 43 39
3 64 66 39
3 44 66 67
3 43 66 44
3 68 49 48
3 69 49 68
3 49 69 65
3 42 49 65
3 70 50 44
3 67 70 44
3 50 70 51
3 51 70 71
3 51 71 52
3 52 71 72
3 52 72 68
3 48 52 68
3 73 53 54
3 74 73 54
3 54 55 74
3 55 75 74
3 55 56 75
3 56 76 75
3 57 77 76
3 56 57 76
3 78 58 59
3 79 78 59
3 59 73 79
3 53 73 59
3 80 57 60
3 77 57 80
3 61 81 80
3 60 61 80
3 62 58 82
3 82 58 78
3 63 83 61
3 83 81 61
3 64 62 84
3 84 62 82
3 65 85 63
3 85 83 63
3 86 66 64
3 84 86 64
3 67 86 87
3 66 86 67
3 88 69 68
3 89 69 88
3 69 89 85
3 65 69 85
3 90 70 67
3 87 90 67
3 70 90 71
3 71 90 91
3 71 91 72
3 72 91 92
3 72 92 88
3 68 72 88
3 73 74 93
3 74 75 94
3 93 74 94
3 75 76 95
3 94 75 95
3 76 77 95
3 78 79 96
3 97 93 98
3 96 93 97
3 96 73 93
3 96 79 73
3 94 98 93
3 99 98 94
3 95 99 94
3 100 99 95
3 100 101 102
3 95 101 100
3 95 80 101
3 95 77 80
3 80 81 101
3 82 78 96
3 103 82 96
3 96 104 103
3 97 104 96
3 102 105 106
3 101 105 102
3 105 101 81
3 83 105 81
3 84 82 103
3 107 84 103
3 103 108 107
3 104 108 103
3 106 109 110
3 105 109 106
3 109 105 83
3 85 109 83
3 86 84 107
3 107 108 111
3 86 107 111
3 86 111 112
3 86 112 87
3 112 113 114
3 111 113 112
3 114 115 116
3 113 115 114
3 89 110 109
3 88 110 89
3 88 115 110
3 88 116 115
3 89 109 85
3 90 87 112
3 91 90 112
3 114 91 112
3 92 91 114
3 116 92 114
3 92 116 88
3 97 98 117
3 98 99 118
3 117 98 118
3 99 100 119
3 118 99 119
3 100 102 119
3 104 97 117
3 120 104 117
3 120 117 121
3 117 118 121
3 121 118 122
3 118 119 122
3 122 119 102
3 106 122 102
3 108 104 120
3 123 108 120
3 123 120 124
3 120 121 124
3 124 121 125
3 121 122 125
3 125 122 106
3 110 125 106
3 111 108 123
3 113 111 123
3 124 113 123
3 115 113 124
3 125 115 124
3 115 125 110
