ply
format ascii 1.0
comment VCGLIB generated
element vertex 126
property float x
property float y
property float z
element face 248
property list uchar int vertex_indices
end_header
-0.408456176519393921 0.225574865937232971 -0.474725574254989624
-0.369599670171737671 0.13069617748260498 -0.507090866565704346
-0.394039154052734375 0.101256757974624634 -0.412871509790420532
-0.3067626953125 -0.0720551237463951111 -0.491205364465713501
-0.358918517827987671 -0.103501014411449432 -0.40291103720664978
-0.166788741946220398 -0.0621207393705844879 -0.326270103454589844
-0.213414505124092102 -0.00115649926010519266 -0.263777583837509155
-0.14351654052734375 -0.0922743380069732666 -0.22442038357257843
-0.19057464599609375 0.247904956340789795 -0.432463973760604858
-0.155447646975517273 0.19516986608505249 -0.533992588520050049
-0.087340034544467926 -0.0189856011420488358 -0.500791370868682861
-0.04457855224609375 -0.228248164057731628 -0.412144333124160767
-0.035411834716796875 -0.265249580144882202 -0.310698181390762329
0.0133082075044512749 0.312621623277664185 -0.360991477966308594
0.0525105781853199005 0.259451001882553101 -0.452032417058944702
0.10268402099609375 0.042924489825963974 -0.41383776068687439
0.172990158200263977 -0.172624215483665466 -0.391813904047012329
0.188172653317451477 -0.257183939218521118 -0.318412303924560547
0.140908554196357727 0.288803368806838989 -0.393716186285018921
0.202969864010810852 0.0751631632447242737 -0.386539310216903687
0.260964721441268921 -0.138404011726379395 -0.337117820978164673
-0.619771301746368408 0.140897631645202637 -0.249919891357421875
-0.494013458490371704 0.110241681337356567 -0.297979980707168579
-0.5173187255859375 0.06777963787317276 -0.216030910611152649
-0.460605621337890625 -0.137063115835189819 -0.276334136724472046
-0.339438110589981079 -0.0518130473792552948 -0.252203941345214844
-0.252964019775390625 -0.161966472864151001 -0.212269619107246399
-0.291065216064453125 -0.248048603534698486 -0.145541027188301086
-0.177221938967704773 -0.199813425540924072 -0.114423118531703949
-0.456881195306777954 0.30350068211555481 -0.226884841918945312
-0.44610595703125 0.323399871587753296 -0.335103362798690796
-0.5598297119140625 0.336107641458511353 -0.258685916662216187
-0.153352096676826477 -0.107562743127346039 0.0363183021545410156
-0.076925911009311676 -0.121409319341182709 -0.0594277381896972656
-0.172799423336982727 -0.163119658827781677 -0.0373295135796070099
-0.275697082281112671 0.426421910524368286 -0.210026264190673828
-0.230397537350654602 0.377265244722366333 -0.307945102453231812
-0.0294253025203943253 -0.326552003622055054 -0.14144580066204071
-0.00824737548828125 -0.339991956949234009 -0.0364953689277172089
-0.0604311637580394745 0.444249629974365234 -0.193977192044258118
-0.0462392158806324005 0.332537919282913208 -0.193303585052490234
0.188269302248954773 -0.345977932214736938 -0.162464454770088196
0.205320999026298523 -0.288329511880874634 -0.0655379295349121094
0.0434201546013355255 0.436737746000289917 -0.179779365658760071
0.206339523196220398 0.369137048721313477 -0.166927173733711243
0.256917327642440796 0.277406871318817139 -0.256132751703262329
0.182125091552734375 0.0707377493381500244 -0.206597805023193359
0.356477111577987671 -0.0737638548016548157 -0.201570823788642883
0.395450592041015625 -0.177070632576942444 -0.147042587399482727
0.301211029291152954 -0.320188313722610474 -0.0925111770629882812
0.281145721673965454 0.290812641382217407 -0.147402599453926086
0.203726455569267273 0.0842474400997161865 -0.0990711823105812073
0.289503723382949829 -0.123460464179515839 -0.128220081329345703
-0.620283782482147217 0.19825427234172821 -0.0187444686889648438
-0.6161651611328125 0.0814762189984321594 -0.0402231216430664062
-0.422464996576309204 0.0478197894990444183 -0.0867929458618164062
-0.346759796142578125 -0.16602654755115509 0.0311204586178064346
-0.254825592041015625 -0.244768336415290833 0.0881268158555030823
-0.48293304443359375 0.358524560928344727 -0.00662406301125884056
-0.591368377208709717 0.363571852445602417 -0.0160304699093103409
-0.096974693238735199 -0.318832218647003174 0.124695777893066406
-0.185530349612236023 -0.287979036569595337 0.144219562411308289
-0.273766845464706421 0.41585838794708252 0.0165144596248865128
0.0304209385067224503 -0.307218641042709351 0.170090034604072571
-0.071048736572265625 0.521568000316619873 0.0178488101810216904
0.258143097162246704 -0.347626447677612305 0.144421413540840149
0.021610260009765625 0.461122840642929077 0.0395062752068042755
0.147197723388671875 0.332964509725570679 0.0470004081726074219
0.433321624994277954 -0.12679426372051239 0.067899070680141449
0.366743713617324829 -0.295804470777511597 0.119895778596401215
0.263825744390487671 0.330368012189865112 0.0805484429001808167
0.3360443115234375 0.116840094327926636 0.0776391029357910156
0.320758819580078125 -0.10338582843542099 0.0939133986830711365
-0.6831817626953125 0.205535426735877991 0.199214771389961243
-0.614195525646209717 0.0916392430663108826 0.183794498443603516
-0.404693603515625 0.153514817357063293 0.0874663963913917542
-0.256130218505859375 -0.00631026597693562508 0.138567760586738586
-0.18658447265625 -0.0420992523431777954 0.132952526211738586
-0.51403045654296875 0.420989423990249634 0.22208721935749054
-0.579486846923828125 0.353149563074111938 0.210954189300537109
-0.0311787929385900497 -0.0902986600995063782 0.13625781238079071
-0.135606124997138977 -0.062318023294210434 0.196695014834403992
-0.298480987548828125 0.470551162958145142 0.235244438052177429
0.03447723388671875 -0.155112981796264648 0.338434845209121704
-0.085169471800327301 0.506973922252655029 0.254881381988525391
0.275536864995956421 -0.176920071244239807 0.290199130773544312
-0.07730865478515625 0.390559226274490356 0.232724979519844055
0.074733734130859375 0.33399200439453125 0.264657169580459595
0.497007995843887329 -0.0852810144424438477 0.278091758489608765
0.376529693603515625 -0.18133227527141571 0.317539215087890625
0.162525177001953125 0.327271789312362671 0.286770492792129517
0.332073211669921875 0.192576661705970764 0.272061824798583984
0.404420226812362671 -0.00457940250635147095 0.255953937768936157
-0.591946899890899658 0.0944882705807685852 0.283825069665908813
-0.412396758794784546 0.0259263366460800171 0.149082496762275696
-0.2879638671875 -0.0968411862850189209 0.0473154373466968536
-0.494954437017440796 0.377959758043289185 0.330389827489852905
-0.42433929443359375 0.273975878953933716 0.395801067352294922
-0.479540497064590454 0.155087113380432129 0.407402187585830688
-0.335580199956893921 0.121064625680446625 0.275972992181777954
-0.295305877923965454 -0.100197874009609222 0.205266475677490234
-0.08669281005859375 0.0577749870717525482 0.191952705383300781
-0.245713546872138977 0.0134397633373737335 0.252597332000732422
-0.268402099609375 0.357918471097946167 0.310369014739990234
-0.233824416995048523 0.300639182329177856 0.49789389967918396
0.0501276664435863495 -0.0305237453430891037 0.3465423583984375
-0.075785316526889801 -0.069315396249294281 0.27763715386390686
-0.066729225218296051 0.452701687812805176 0.359151512384414673
0.00634511327371001244 0.327724039554595947 0.468015521764755249
0.249952957034111023 -0.128363713622093201 0.372674942016601562
0.144219711422920227 -0.0383781902492046356 0.335696220397949219
0.197127029299736023 0.327467530965805054 0.353337138891220093
0.195507049560546875 0.413307279348373413 0.339605331420898438
0.40872955322265625 0.361316680908203125 0.177830055356025696
0.255674988031387329 0.241297230124473572 0.31267547607421875
0.223698928952217102 -0.029889991506934166 0.308432579040527344
0.392389923334121704 0.0416548959910869598 0.226519584655761719
-0.4256744384765625 0.190103769302368164 0.353936523199081421
-0.20339202880859375 0.135226532816886902 0.378293037414550781
-0.281920105218887329 -0.0841734632849693298 0.287691116333007812
-0.192401885986328125 0.211894094944000244 0.462741702795028687
-0.254332214593887329 -0.0736556574702262878 0.384304195642471313
-0.120698295533657074 -0.194234967231750488 0.292147964239120483
0.081966400146484375 0.396546810865402222 0.203504085540771484
0.0457305908203125 0.0642547085881233215 0.370487064123153687
0.100299835205078125 -0.157501682639122009 0.274110794067382812
3 0 1 2
3 1 3 4
3 2 1 4
3 3 5 6
3 4 3 6
3 5 7 6
3 0 8 9
3 1 0 9
3 9 10 1
3 1 10 3
3 10 11 3
3 3 11 5
3 5 11 12
3 7 5 12
3 8 13 14
3 9 8 14
3 14 15 9
3 9 15 10
3 15 16 10
3 10 16 11
3 11 16 17
3 12 11 17
3 14 13 18
3 15 14 18
3 19 15 18
3 16 15 19
3 20 16 19
3 16 20 17
3 21 22 23
3 22 24 25
3 23 22 25
3 24 26 27
3 25 24 27
3 26 28 27
3 29 30 31
3 2 22 21
3 0 2 21
3 0 21 31
3 0 31 30
3 4 22 2
3 24 22 4
3 6 24 4
3 26 24 6
3 26 32 28
3 6 32 26
3 6 33 32
3 6 7 33
3 33 34 32
3 29 35 36
3 30 29 36
3 36 0 30
3 8 0 36
3 12 33 7
3 37 33 12
3 33 37 38
3 34 33 38
3 35 39 40
3 36 35 40
3 40 8 36
3 13 8 40
3 17 37 12
3 41 37 17
3 37 41 42
3 38 37 42
3 40 39 43
3 43 44 45
3 40 43 45
3 40 45 18
3 40 18 13
3 18 46 19
3 45 46 18
3 19 47 20
3 46 47 19
3 48 49 41
3 47 48 41
3 47 41 17
3 47 17 20
3 41 49 42
3 45 44 50
3 46 45 50
3 51 46 50
3 47 46 51
3 52 47 51
3 47 52 48
3 53 21 23
3 54 53 23
3 23 25 54
3 25 55 54
3 25 27 55
3 27 56 55
3 28 57 56
3 27 28 56
3 58 29 31
3 59 58 31
3 31 53 59
3 21 53 31
3 60 28 32
3 57 28 60
3 34 61 60
3 32 34 60
3 35 29 62
3 62 29 58
3 38 63 34
3 63 61 34
3 39 35 64
3 64 35 62
3 42 65 38
3 65 63 38
3 66 43 39
3 64 66 39
3 44 66 67
3 43 66 44
3 68 49 48
3 69 49 68
3 49 69 65
3 42 49 65
3 70 50 44
3 67 70 44
3 50 70 51
3 51 70 71
3 51 71 52
3 52 71 72
3 52 72 68
3 48 52 68
3 73 53 54
3 74 73 54
3 54 55 74
3 55 75 74
3 55 56 75
3 56 76 75
3 57 77 76
3 56 57 76
3 78 58 59
3 79 78 59
3 59 73 79
3 53 73 59
3 80 57 60
3 77 57 80
3 61 81 80
3 60 61 80
3 62 58 82
3 82 58 78
3 63 83 61
3 83 81 61
3 64 62 84
3 84 62 82
3 65 85 63
3 85 83 63
3 86 66 64
3 84 86 64
3 67 86 87
3 66 86 67
3 88 69 68
3 89 69 88
3 69 89 85
3 65 69 85
3 90 70 67
3 87 90 67
3 70 90 71
3 71 90 91
3 71 91 72
3 72 91 92
3 72 92 88
3 68 72 88
3 73 74 93
3 74 75 94
3 93 74 94
3 75 76 95
3 94 75 95
3 76 77 95
3 78 79 96
3 97 93 98
3 96 93 97
3 96 73 93
3 96 79 73
3 94 98 93
3 99 98 94
3 95 99 94
3 100 99 95
3 100 101 102
3 95 101 100
3 95 80 101
3 95 77 80
3 80 81 101
3 82 78 96
3 103 82 96
3 96 104 103
3 97 104 96
3 102 105 106
3 101 105 102
3 105 101 81
3 83 105 81
3 84 82 103
3 107 84 103
3 103 108 107
3 104 108 103
3 106 109 110
3 105 109 106
3 109 105 83
3 85 109 83
3 86 84 107
3 107 108 111
3 86 107 111
3 86 111 112
3 86 112 87
3 112 113 114
3 111 113 112
3 114 115 116
3 113 115 114
3 89 110 109
3 88 110 89
3 88 115 110
3 88 116 115
3 89 109 85
3 90 87 112
3 91 90 112
3 114 91 112
3 92 91 114
3 116 92 114
3 92 116 88
3 97 98 117
3 98 99 118
3 117 98 118
3 99 100 119
3 118 99 119
3 100 102 119
3 104 97 117
3 120 104 117
3 120 117 121
3 117 118 121
3 121 118 122
3 118 119 122
3 122 119 102
3 106 122 102
3 108 104 120
3 123 108 120
3 123 120 124
3 120 121 124
3 124 121 125
3 121 122 125
3 125 122 106
3 110 125 106
3 111 108 123
3 113 111 123
3 124 113 123
3 115 113 124
3 125 115 124
3 115 125 110
