ply
format ascii 1.0
comment VCGLIB generated
element vertex 126
property float x
property float y
property float z
element face 248
property list uchar int vertex_indices
end_header
-0.181947067379951477 0.260231941938400269 -0.486214160919189453
-0.16785430908203125 0.163956359028816223 -0.480648517608642578
-0.280370086431503296 0.158109679818153381 -0.504508674144744873
-0.183255508542060852 -0.0649836733937263489 -0.40510287880897522
-0.251416534185409546 -0.0599715709686279297 -0.475958347320556641
-0.168858841061592102 -0.285498172044754028 -0.375108391046524048
-0.271060943603515625 -0.292757809162139893 -0.413872867822647095
-0.16855621337890625 -0.395003199577331543 -0.38636508584022522
0.0291112270206212997 0.248855456709861755 -0.401453346014022827
0.0380884818732738495 0.140790104866027832 -0.414697498083114624
0.0389277152717113495 -0.0639694109559059143 -0.437644153833389282
0.050983428955078125 -0.287534922361373901 -0.406217575073242188
0.0451711006462574005 -0.392346888780593872 -0.376167446374893188
0.240414932370185852 0.245378434658050537 -0.351183891296386719
0.248480483889579773 0.140367418527603149 -0.406115859746932983
0.243648529052734375 -0.0662001743912696838 -0.353896766901016235
0.26055145263671875 -0.293536514043807983 -0.369852393865585327
0.273213714361190796 -0.388324350118637085 -0.339843273162841797
0.3582916259765625 0.173243805766105652 -0.383794307708740234
0.351835876703262329 -0.0623925738036632538 -0.388538211584091187
0.362293243408203125 -0.282575160264968872 -0.338002204895019531
-0.40997314453125 0.276758641004562378 -0.28193315863609314
-0.33980560302734375 0.1664590984582901 -0.333083003759384155
-0.397341400384902954 0.178069472312927246 -0.249751254916191101
-0.409762054681777954 -0.0494616292417049408 -0.355113506317138672
-0.445400238037109375 -0.0353665240108966827 -0.256185054779052734
-0.409145355224609375 -0.260842502117156982 -0.29871782660484314
-0.347853332757949829 -0.24037538468837738 -0.201400592923164368
-0.403024047613143921 -0.330949842929840088 -0.182863712310791016
-0.20648193359375 0.446274638175964355 -0.22527487576007843
-0.186845138669013977 0.375104546546936035 -0.341262340545654297
-0.3025970458984375 0.426895111799240112 -0.273878902196884155
-0.262638092041015625 -0.429367393255233765 -0.151373222470283508
-0.19256591796875 -0.496987730264663696 -0.241413116455078125
-0.178086593747138977 -0.504418611526489258 -0.127971649169921875
-0.00542958592996001244 0.444885998964309692 -0.19580666720867157
0.0242360439151525497 0.355864256620407104 -0.283408313989639282
0.0320803336799144745 -0.461728215217590332 -0.214305713772773743
0.0210177097469568253 -0.419928520917892456 -0.121923290193080902
0.21607208251953125 0.494982510805130005 -0.204567745327949524
0.23663330078125 0.417829424142837524 -0.279569000005722046
0.246168777346611023 -0.448933869600296021 -0.16614086925983429
0.221075698733329773 -0.45452919602394104 -0.0549963302910327911
0.294658660888671875 0.437603145837783813 -0.15459124743938446
0.399874359369277954 0.313926994800567627 -0.131351307034492493
0.421991974115371704 0.182772159576416016 -0.20905621349811554
0.367191314697265625 -0.0404043197631835938 -0.217078685760498047
0.456111907958984375 -0.239097535610198975 -0.195519760251045227
0.461666107177734375 -0.299453824758529663 -0.0565183945000171661
0.322030395269393921 -0.408661127090454102 -0.0649571418762207031
0.336104065179824829 0.211337745189666748 -0.144077613949775696
0.410968780517578125 0.0137538546696305275 -0.136352375149726868
0.412633270025253296 -0.20317821204662323 -0.0914270058274269104
-0.462154388427734375 0.319059282541275024 -0.0605355910956859589
-0.462646484375 0.214056029915809631 -0.0420977286994457245
-0.434336334466934204 -0.0045648808591067791 -0.028326353058218956
-0.320009857416152954 -0.167872965335845947 0.0145513219758868217
-0.33069610595703125 -0.266224443912506104 0.0117832822725176811
-0.271242767572402954 0.54674232006072998 -0.0320483855903148651
-0.319071441888809204 0.439492225646972656 -0.0433986969292163849
-0.315004974603652954 -0.436034202575683594 0.0740900039672851562
-0.236967727541923523 -0.364001840353012085 0.0488184280693531036
-0.0296758022159337997 0.596842706203460693 -0.0116499261930584908
-0.0182240810245275497 -0.34206804633140564 0.0819525718688964844
0.188869476318359375 0.568516373634338379 -0.00451993942260742188
0.201100662350654602 -0.33587154746055603 0.130556747317314148
0.199452713131904602 0.467822343111038208 0.045857112854719162
0.33176422119140625 0.368362307548522949 0.0748325958847999573
0.404926300048828125 -0.237970367074012756 0.15019543468952179
0.280671447515487671 -0.367275029420852661 0.163682937622070312
0.280211120843887329 0.264673799276351929 0.0727987289428710938
0.35640716552734375 0.0586652569472789764 0.0766088142991065979
0.371690124273300171 -0.145045101642608643 0.100107192993164062
-0.432952880859375 0.264091819524765015 0.165896415710449219
-0.549940764904022217 0.18877410888671875 0.17210213840007782
-0.482807159423828125 0.0373285077512264252 0.211496666073799133
-0.3954010009765625 -0.160684019327163696 0.220267936587333679
-0.317923218011856079 -0.237608924508094788 0.232356235384941101
-0.299081176519393921 0.520357728004455566 0.167290046811103821
-0.318284362554550171 0.382954567670822144 0.175134018063545227
-0.367781311273574829 -0.382328391075134277 0.274023383855819702
-0.262533813714981079 -0.344942063093185425 0.283353954553604126
-0.104282379150390625 0.643203556537628174 0.218074008822441101
-0.067559562623500824 -0.299477249383926392 0.314552456140518188
0.118390403687953949 0.647740006446838379 0.239896610379219055
0.1248779296875 -0.318527966737747192 0.364149093627929688
0.159243270754814148 0.547861039638519287 0.235010147094726562
0.195576980710029602 0.376965910196304321 0.262022495269775391
0.351144164800643921 -0.156958654522895813 0.345234394073486328
0.221087142825126648 -0.288691490888595581 0.36459621787071228
0.253430694341659546 0.294698625802993774 0.279482215642929077
0.405818939208984375 0.142507314682006836 0.278656482696533203
0.347250610589981079 -0.0637524724006652832 0.300048500299453735
-0.505809783935546875 0.239815846085548401 0.279634624719619751
-0.431995391845703125 0.0480683445930480957 0.292785793542861938
-0.30255889892578125 -0.102754078805446625 0.264919131994247437
-0.292331695556640625 0.485148757696151733 0.258136749267578125
-0.368516296148300171 0.454175204038619995 0.412421375513076782
-0.410849243402481079 0.322077125310897827 0.399215847253799438
-0.411683410406112671 0.115057863295078278 0.460028171539306641
-0.4281768798828125 -0.112123079597949982 0.434216171503067017
-0.272874206304550171 -0.356864333152770996 0.394571632146835327
-0.316717773675918579 -0.174084022641181946 0.493748992681503296
-0.127468109130859375 0.6245078444480896 0.332766532897949219
-0.137152358889579773 0.548447251319885254 0.499125480651855469
-0.081242881715297699 -0.242015138268470764 0.447077751159667969
-0.104924522340297699 -0.149732783436775208 0.607312440872192383
0.086378730833530426 0.595570504665374756 0.339315563440322876
0.092801414430141449 0.564807355403900146 0.544433176517486572
0.125516250729560852 -0.246749401092529297 0.4554290771484375
0.069329582154750824 -0.0908280611038208008 0.491713672876358032
0.164302825927734375 0.407633811235427856 0.51325613260269165
0.276309967041015625 0.352198392152786255 0.383354514837265015
0.112420402467250824 0.194135129451751709 0.50530552864074707
0.283568054437637329 0.171558573842048645 0.33128008246421814
0.109241485595703125 -0.0331250019371509552 0.384550243616104126
0.296772003173828125 -0.0221299659460783005 0.338265746831893921
-0.331740051507949829 0.367775470018386841 0.466473907232284546
-0.403788238763809204 0.160632029175758362 0.607943236827850342
-0.393321990966796875 -0.0972894653677940369 0.549178838729858398
-0.094696044921875 0.4610118567943573 0.410307556390762329
-0.129346206784248352 0.20590662956237793 0.501258611679077148
-0.178988143801689148 -0.028102504089474678 0.647226095199584961
0.126260116696357727 0.43060031533241272 0.445006042718887329
0.155961349606513977 0.228075847029685974 0.412054538726806641
0.0481236763298511505 -1.2685271940426901e-05 0.513150453567504883
3 0 1 2
3 1 3 4
3 2 1 4
3 3 5 6
3 4 3 6
3 5 7 6
3 0 8 9
3 1 0 9
3 9 10 1
3 1 10 3
3 10 11 3
3 3 11 5
3 5 11 12
3 7 5 12
3 8 13 14
3 9 8 14
3 14 15 9
3 9 15 10
3 15 16 10
3 10 16 11
3 11 16 17
3 12 11 17
3 14 13 18
3 15 14 18
3 19 15 18
3 16 15 19
3 20 16 19
3 16 20 17
3 21 22 23
3 22 24 25
3 23 22 25
3 24 26 27
3 25 24 27
3 26 28 27
3 29 30 31
3 2 22 21
3 0 2 21
3 0 21 31
3 0 31 30
3 4 22 2
3 24 22 4
3 6 24 4
3 26 24 6
3 26 32 28
3 6 32 26
3 6 33 32
3 6 7 33
3 33 34 32
3 29 35 36
3 30 29 36
3 36 0 30
3 8 0 36
3 12 33 7
3 37 33 12
3 33 37 38
3 34 33 38
3 35 39 40
3 36 35 40
3 40 8 36
3 13 8 40
3 17 37 12
3 41 37 17
3 37 41 42
3 38 37 42
3 40 39 43
3 43 44 45
3 40 43 45
3 40 45 18
3 40 18 13
3 18 46 19
3 45 46 18
3 19 47 20
3 46 47 19
3 48 49 41
3 47 48 41
3 47 41 17
3 47 17 20
3 41 49 42
3 45 44 50
3 46 45 50
3 51 46 50
3 47 46 51
3 52 47 51
3 47 52 48
3 53 21 23
3 54 53 23
3 23 25 54
3 25 55 54
3 25 27 55
3 27 56 55
3 28 57 56
3 27 28 56
3 58 29 31
3 59 58 31
3 31 53 59
3 21 53 31
3 60 28 32
3 57 28 60
3 34 61 60
3 32 34 60
3 35 29 62
3 62 29 58
3 38 63 34
3 63 61 34
3 39 35 64
3 64 35 62
3 42 65 38
3 65 63 38
3 66 43 39
3 64 66 39
3 44 66 67
3 43 66 44
3 68 49 48
3 69 49 68
3 49 69 65
3 42 49 65
3 70 50 44
3 67 70 44
3 50 70 51
3 51 70 71
3 51 71 52
3 52 71 72
3 52 72 68
3 48 52 68
3 73 53 54
3 74 73 54
3 54 55 74
3 55 75 74
3 55 56 75
3 56 76 75
3 57 77 76
3 56 57 76
3 78 58 59
3 79 78 59
3 59 73 79
3 53 73 59
3 80 57 60
3 77 57 80
3 61 81 80
3 60 61 80
3 62 58 82
3 82 58 78
3 63 83 61
3 83 81 61
3 64 62 84
3 84 62 82
3 65 85 63
3 85 83 63
3 86 66 64
3 84 86 64
3 67 86 87
3 66 86 67
3 88 69 68
3 89 69 88
3 69 89 85
3 65 69 85
3 90 70 67
3 87 90 67
3 70 90 71
3 71 90 91
3 71 91 72
3 72 91 92
3 72 92 88
3 68 72 88
3 73 74 93
3 74 75 94
3 93 74 94
3 75 76 95
3 94 75 95
3 76 77 95
3 78 79 96
3 97 93 98
3 96 93 97
3 96 73 93
3 96 79 73
3 94 98 93
3 99 98 94
3 95 99 94
3 100 99 95
3 100 101 102
3 95 101 100
3 95 80 101
3 95 77 80
3 80 81 101
3 82 78 96
3 103 82 96
3 96 104 103
3 97 104 96
3 102 105 106
3 101 105 102
3 105 101 81
3 83 105 81
3 84 82 103
3 107 84 103
3 103 108 107
3 104 108 103
3 106 109 110
3 105 109 106
3 109 105 83
3 85 109 83
3 86 84 107
3 107 108 111
3 86 107 111
3 86 111 112
3 86 112 87
3 112 113 114
3 111 113 112
3 114 115 116
3 113 115 114
3 89 110 109
3 88 110 89
3 88 115 110
3 88 116 115
3 89 109 85
3 90 87 112
3 91 90 112
3 114 91 112
3 92 91 114
3 116 92 114
3 92 116 88
3 97 98 117
3 98 99 118
3 117 98 118
3 99 100 119
3 118 99 119
3 100 102 119
3 104 97 117
3 120 104 117
3 120 117 121
3 117 118 121
3 121 118 122
3 118 119 122
3 122 119 102
3 106 122 102
3 108 104 120
3 123 108 120
3 123 120 124
3 120 121 124
3 124 121 125
3 121 122 125
3 125 122 106
3 110 125 106
3 111 108 123
3 113 111 123
3 124 113 123
3 115 113 124
3 125 115 124
3 115 125 110
