ply
format ascii 1.0
comment VCGLIB generated
element vertex 126
property float x
property float y
property float z
element face 248
property list uchar int vertex_indices
end_header
-0.231920883059501648 0.159386351704597473 -0.421885639429092407
-0.243222549557685852 0.0754162296652793884 -0.519347667694091797
-0.362695068120956421 0.112217932939529419 -0.451063632965087891
-0.238820388913154602 -0.0276477113366127014 -0.3270111083984375
-0.318751007318496704 -0.0600506700575351715 -0.322287410497665405
-0.299893707036972046 -0.188567593693733215 -0.17138989269733429
-0.254486083984375 -0.237129285931587219 -0.23029644787311554
-0.272928863763809204 -0.249611541628837585 -0.0907518044114112854
-0.0162353515625 0.141540601849555969 -0.363713741302490234
-0.0233446750789880753 0.0457158684730529785 -0.429221957921981812
-0.071942649781703949 -0.168419361114501953 -0.403699725866317749
-0.130826309323310852 -0.326220840215682983 -0.260606765747070312
-0.159563705325126648 -0.410344243049621582 -0.19936196506023407
0.200453445315361023 0.112393826246261597 -0.310115009546279907
0.183447524905204773 0.00279806298203766346 -0.345049232244491577
0.134020492434501648 -0.216981112957000732 -0.330018848180770874
0.06732940673828125 -0.427104860544204712 -0.270318657159805298
0.03458404541015625 -0.514830052852630615 -0.197285011410713196
0.201552078127861023 3.28672795149032027e-05 -0.235478401184082031
0.208988189697265625 -0.223789647221565247 -0.241961479187011719
0.081485748291015625 -0.390085667371749878 -0.166948959231376648
-0.470685333013534546 0.174997687339782715 -0.21030871570110321
-0.529696166515350342 0.110697872936725616 -0.330463260412216187
-0.562676727771759033 0.0996399819850921631 -0.228322029113769531
-0.510136902332305908 -0.0975694358348846436 -0.279468387365341187
-0.621580779552459717 -0.0985063537955284119 -0.198599651455879211
-0.46189117431640625 -0.266336709260940552 -0.183704212307929993
-0.5422821044921875 -0.28088495135307312 -0.103348731994628906
-0.448642730712890625 -0.372089534997940063 -0.124362468719482422
-0.25107574462890625 0.323372513055801392 -0.171828269958496094
-0.240872696042060852 0.284576505422592163 -0.280849456787109375
-0.327250152826309204 0.285618811845779419 -0.184665992856025696
-0.349459320306777954 -0.479174613952636719 -0.087324775755405426
-0.353766113519668579 -0.379535794258117676 0.00486040115356445312
-0.348527282476425171 -0.339201778173446655 -0.106393970549106598
-0.03118133544921875 0.337067961692810059 -0.15579986572265625
-0.0211283359676599503 0.283265829086303711 -0.254796653985977173
-0.12856292724609375 -0.338572174310684204 -0.0211866702884435654
-0.132451370358467102 -0.375024586915969849 -0.0985299721360206604
0.1910400390625 0.327361851930618286 -0.121879100799560547
0.200375869870185852 0.269232958555221558 -0.214691951870918274
-0.092669166624546051 -0.555915296077728271 -0.0792514458298683167
-0.095189414918422699 -0.573681294918060303 0.0292617473751306534
0.274054199457168579 0.262985169887542725 -0.0945723876357078552
0.368375152349472046 0.118463136255741119 -0.0545430183410644531
0.338292449712753296 -0.00097824388649314642 -0.116736888885498047
0.294976562261581421 -0.219088241457939148 -0.0815698280930519104
0.130700424313545227 -0.350400239229202271 0.00139681494329124689
0.146970108151435852 -0.484763383865356445 0.02828216552734375
0.008960723876953125 -0.602346718311309814 0.00245253252796828747
0.36882781982421875 0.0136950081214308739 -0.0136432647705078125
0.331021636724472046 -0.203357234597206116 0.0234807338565587997
0.223695114254951477 -0.404710173606872559 0.0233027134090662003
-0.530481994152069092 0.215136885643005371 -0.00324344635009765625
-0.637724578380584717 0.147427484393119812 -0.0293908119201660156
-0.484835296869277954 0.00997801776975393295 -0.0623685531318187714
-0.401044219732284546 -0.202125310897827148 0.00966215133666992188
-0.362707763910293579 -0.315262675285339355 0.0726448670029640198
-0.277657836675643921 0.396558374166488647 0.034621555358171463
-0.386170715093612671 0.330641120672225952 0.0216782893985509872
-0.20664215087890625 -0.422353595495223999 0.073847450315952301
-0.18511199951171875 -0.398317456245422363 0.011054198257625103
-0.0613276176154613495 0.349602609872817993 0.0641681328415870667
-0.108961738646030426 -0.221951946616172791 0.0554258041083812714
0.160980224609375 0.334904521703720093 0.101677738130092621
-0.0270678196102380753 -0.415565252304077148 0.173776149749755859
0.271939605474472046 0.324389606714248657 0.123239517211914062
0.320079803466796875 0.154150351881980896 0.162898227572441101
0.00939432810992002487 -0.361297577619552612 0.156509086489677429
-0.058086395263671875 -0.522694826126098633 0.196585655212402344
0.242198944091796875 0.0727872401475906372 0.156521797180175781
0.182048797607421875 -0.135027125477790833 0.172458335757255554
0.04547119140625 -0.284320831298828125 0.0879627838730812073
-0.537125885486602783 0.201665282249450684 0.221861198544502258
-0.629360198974609375 0.13806597888469696 0.204709053039550781
-0.467817932367324829 0.0283618941903114319 0.140010669827461243
-0.334481567144393921 -0.132031172513961792 0.232374027371406555
-0.276304870843887329 -0.232313558459281921 0.267457336187362671
-0.28672027587890625 0.349303752183914185 0.244715526700019836
-0.399709075689315796 0.295475751161575317 0.240514278411865234
-0.103556312620639801 -0.240690052509307861 0.177535369992256165
-0.0479799918830394745 -0.381775379180908203 0.182422325015068054
-0.094809211790561676 0.241853430867195129 0.250999301671981812
-0.009586334228515625 -0.191465958952903748 0.224189922213554382
0.119037628173828125 0.270636618137359619 0.307826370000839233
-0.0570576973259449005 -0.336672306060791016 0.371926933526992798
0.198766067624092102 0.33796355128288269 0.348235607147216797
0.248241424560546875 0.178064942359924316 0.37050628662109375
0.169025421142578125 -0.37680932879447937 0.298542499542236328
0.0141283674165606499 -0.421967834234237671 0.376803398132324219
0.160313919186592102 0.125503137707710266 0.360337406396865845
0.0569000244140625 -0.0676097646355628967 0.334015846252441406
0.120255790650844574 -0.284674972295761108 0.29071044921875
-0.583352386951446533 0.168106749653816223 0.307508140802383423
-0.493741363286972046 -0.022317914292216301 0.256745815277099609
-0.396658569574356079 -0.203191235661506653 0.219904422760009766
-0.320429474115371704 0.32349732518196106 0.340494483709335327
-0.34706878662109375 0.217108488082885742 0.475249618291854858
-0.4752044677734375 0.173931792378425598 0.478758722543716431
-0.449841827154159546 -0.0395392552018165588 0.442674309015274048
-0.286080688238143921 -0.184390053153038025 0.361361503601074219
-0.166742965579032898 -0.378937214612960815 0.188629791140556335
-0.309755951166152954 -0.31539541482925415 0.306657791137695312
-0.121762596070766449 0.240102693438529968 0.356460720300674438
-0.137633010745048523 0.194152966141700745 0.530218780040740967
-0.0600598640739917755 -0.188115715980529785 0.30940595269203186
-0.160855606198310852 -0.156777262687683105 0.379110336303710938
0.072104133665561676 0.326740533113479614 0.387651115655899048
0.07518768310546875 0.231203630566596985 0.55742955207824707
0.04273223876953125 -0.324578851461410522 0.440528392791748047
0.0316645316779613495 -0.157354965806007385 0.477693885564804077
0.030239105224609375 0.0953605249524116516 0.517835795879364014
0.1853179931640625 0.112988144159317017 0.471578121185302734
-0.0450757332146167755 -0.0271472707390785217 0.367977142333984375
0.144002273678779602 -0.0719219222664833069 0.388593673706054688
-0.0552202872931957245 -0.253488272428512573 0.424140125513076782
0.107237495481967926 -0.299042969942092896 0.393141746520996094
-0.396453857421875 0.178528174757957458 0.579425394535064697
-0.3872222900390625 -0.0503551177680492401 0.530722856521606445
-0.346958160400390625 -0.253852516412734985 0.406379073858261108
-0.18303680419921875 0.1373777836561203 0.633261442184448242
-0.184151962399482727 -0.0456752777099609375 0.50239109992980957
-0.136861160397529602 -0.240719601511955261 0.461977005004882812
0.016002655029296875 0.182649478316307068 0.494447946548461914
0.033016204833984375 -0.0228128582239151001 0.415152221918106079
0.066031135618686676 -0.242646321654319763 0.41756853461265564
3 0 1 2
3 1 3 4
3 2 1 4
3 3 5 6
3 4 3 6
3 5 7 6
3 0 8 9
3 1 0 9
3 9 10 1
3 1 10 3
3 10 11 3
3 3 11 5
3 5 11 12
3 7 5 12
3 8 13 14
3 9 8 14
3 14 15 9
3 9 15 10
3 15 16 10
3 10 16 11
3 11 16 17
3 12 11 17
3 14 13 18
3 15 14 18
3 19 15 18
3 16 15 19
3 20 16 19
3 16 20 17
3 21 22 23
3 22 24 25
3 23 22 25
3 24 26 27
3 25 24 27
3 26 28 27
3 29 30 31
3 2 22 21
3 0 2 21
3 0 21 31
3 0 31 30
3 4 22 2
3 24 22 4
3 6 24 4
3 26 24 6
3 26 32 28
3 6 32 26
3 6 33 32
3 6 7 33
3 33 34 32
3 29 35 36
3 30 29 36
3 36 0 30
3 8 0 36
3 12 33 7
3 37 33 12
3 33 37 38
3 34 33 38
3 35 39 40
3 36 35 40
3 40 8 36
3 13 8 40
3 17 37 12
3 41 37 17
3 37 41 42
3 38 37 42
3 40 39 43
3 43 44 45
3 40 43 45
3 40 45 18
3 40 18 13
3 18 46 19
3 45 46 18
3 19 47 20
3 46 47 19
3 48 49 41
3 47 48 41
3 47 41 17
3 47 17 20
3 41 49 42
3 45 44 50
3 46 45 50
3 51 46 50
3 47 46 51
3 52 47 51
3 47 52 48
3 53 21 23
3 54 53 23
3 23 25 54
3 25 55 54
3 25 27 55
3 27 56 55
3 28 57 56
3 27 28 56
3 58 29 31
3 59 58 31
3 31 53 59
3 21 53 31
3 60 28 32
3 57 28 60
3 34 61 60
3 32 34 60
3 35 29 62
3 62 29 58
3 38 63 34
3 63 61 34
3 39 35 64
3 64 35 62
3 42 65 38
3 65 63 38
3 66 43 39
3 64 66 39
3 44 66 67
3 43 66 44
3 68 49 48
3 69 49 68
3 49 69 65
3 42 49 65
3 70 50 44
3 67 70 44
3 50 70 51
3 51 70 71
3 51 71 52
3 52 71 72
3 52 72 68
3 48 52 68
3 73 53 54
3 74 73 54
3 54 55 74
3 55 75 74
3 55 56 75
3 56 76 75
3 57 77 76
3 56 57 76
3 78 58 59
3 79 78 59
3 59 73 79
3 53 73 59
3 80 57 60
3 77 57 80
3 61 81 80
3 60 61 80
3 62 58 82
3 82 58 78
3 63 83 61
3 83 81 61
3 64 62 84
3 84 62 82
3 65 85 63
3 85 83 63
3 86 66 64
3 84 86 64
3 67 86 87
3 66 86 67
3 88 69 68
3 89 69 88
3 69 89 85
3 65 69 85
3 90 70 67
3 87 90 67
3 70 90 71
3 71 90 91
3 71 91 72
3 72 91 92
3 72 92 88
3 68 72 88
3 73 74 93
3 74 75 94
3 93 74 94
3 75 76 95
3 94 75 95
3 76 77 95
3 78 79 96
3 97 93 98
3 96 93 97
3 96 73 93
3 96 79 73
3 94 98 93
3 99 98 94
3 95 99 94
3 100 99 95
3 100 101 102
3 95 101 100
3 95 80 101
3 95 77 80
3 80 81 101
3 82 78 96
3 103 82 96
3 96 104 103
3 97 104 96
3 102 105 106
3 101 105 102
3 105 101 81
3 83 105 81
3 84 82 103
3 107 84 103
3 103 108 107
3 104 108 103
3 106 109 110
3 105 109 106
3 109 105 83
3 85 109 83
3 86 84 107
3 107 108 111
3 86 107 111
3 86 111 112
3 86 112 87
3 112 113 114
3 111 113 112
3 114 115 116
3 113 115 114
3 89 110 109
3 88 110 89
3 88 115 110
3 88 116 115
3 89 109 85
3 90 87 112
3 91 90 112
3 114 91 112
3 92 91 114
3 116 92 114
3 92 116 88
3 97 98 117
3 98 99 118
3 117 98 118
3 99 100 119
3 118 99 119
3 100 102 119
3 104 97 117
3 120 104 117
3 120 117 121
3 117 118 121
3 121 118 122
3 118 119 122
3 122 119 102
3 106 122 102
3 108 104 120
3 123 108 120
3 123 120 124
3 120 121 124
3 124 121 125
3 121 122 125
3 125 122 106
3 110 125 106
3 111 108 123
3 113 111 123
3 124 113 123
3 115 113 124
3 125 115 124
3 115 125 110
