ply
format ascii 1.0
comment VCGLIB generated
element vertex 126
property float x
property float y
property float z
element face 248
property list uchar int vertex_indices
end_header
-0.4488067626953125 0.225381433963775635 -0.436223834753036499
-0.392055511474609375 0.132823213934898376 -0.443063259124755859
-0.430149078369140625 0.121460944414138794 -0.348994255065917969
-0.346041351556777954 -0.0832760706543922424 -0.452386051416397095
-0.422943115234375 -0.104543067514896393 -0.368615150451660156
-0.184296920895576477 -0.0567443110048770905 -0.298638343811035156
-0.262009948492050171 -0.0300936028361320496 -0.231393501162528992
-0.1351776123046875 -0.078078635036945343 -0.203637436032295227
-0.223177596926689148 0.271509230136871338 -0.430051177740097046
-0.193503066897392273 0.198419734835624695 -0.518095195293426514
-0.123523712158203125 -0.0193542242050170898 -0.48282623291015625
-0.066514335572719574 -0.217492818832397461 -0.404528141021728516
-0.065783180296421051 -0.276446163654327393 -0.306897968053817749
-0.015293121337890625 0.305074304342269897 -0.35719570517539978
0.0244661960750818253 0.261316210031509399 -0.452736526727676392
0.0802459716796875 0.0436912588775157928 -0.423798233270645142
0.13979339599609375 -0.167086675763130188 -0.36042514443397522
0.161196395754814148 -0.26325032114982605 -0.301222473382949829
0.118609108030796051 0.288291305303573608 -0.383545547723770142
0.176217392086982727 0.0696052685379981995 -0.365424782037734985
0.235462188720703125 -0.143137350678443909 -0.318383216857910156
-0.627325713634490967 0.192002937197685242 -0.170250579714775085
-0.549158751964569092 0.0949019193649291992 -0.218615531921386719
-0.624112427234649658 0.0838413238525390625 -0.143338993191719055
-0.525910675525665283 -0.12331032007932663 -0.219625785946846008
-0.561817169189453125 -0.134358718991279602 -0.118316330015659332
-0.373564392328262329 -0.0244690924882888794 -0.0774591788649559021
-0.34720611572265625 -0.121705137193202972 -0.0474823303520679474
-0.301213592290878296 -0.0733130201697349548 0.0391786880791187286
-0.474090576171875 0.317505389451980591 -0.197117015719413757
-0.472440093755722046 0.344788938760757446 -0.306558459997177124
-0.578142821788787842 0.353737145662307739 -0.221125602722167969
-0.15374755859375 -0.159005656838417053 0.0169660244137048721
-0.074581146240234375 -0.147400304675102234 -0.0610540695488452911
-0.13550567626953125 -0.225917860865592957 -0.0894665718078613281
-0.297297149896621704 0.45204278826713562 -0.202292129397392273
-0.258997589349746704 0.397059172391891479 -0.29665866494178772
-0.045703887939453125 -0.357067227363586426 -0.13310067355632782
-0.0178502406924962997 -0.400194913148880005 -0.0294602718204259872
-0.080350242555141449 0.452406167984008789 -0.182506397366523743
-0.071371711790561676 0.342458397150039673 -0.192005634307861328
0.182147979736328125 -0.357210248708724976 -0.151737377047538757
0.1804046630859375 -0.329966694116592407 -0.0397907905280590057
0.0228741969913244247 0.44288906455039978 -0.165747165679931641
0.178371429443359375 0.363730281591415405 -0.14045889675617218
0.237695053219795227 0.288808703422546387 -0.237812831997871399
0.167933151125907898 0.084514521062374115 -0.185554191470146179
0.326567322015762329 -0.0805872753262519836 -0.176239177584648132
0.372774749994277954 -0.165977612137794495 -0.0808261260390281677
0.2804412841796875 -0.324663072824478149 -0.0509188957512378693
0.267218261957168579 0.306222379207611084 -0.124213375151157379
0.192728683352470398 0.100145764648914337 -0.0815714225172996521
0.282497406005859375 -0.10894300788640976 -0.0785619392991065979
-0.549695312976837158 0.239733144640922546 0.0394425392150878906
-0.559355437755584717 0.131638124585151672 0.0646130219101905823
-0.655731201171875 -0.0780305042862892151 0.0589137077331542969
-0.4965362548828125 -0.235369279980659485 0.0639677047729492188
-0.360623687505722046 -0.267981529235839844 0.0904788970947265625
-0.493441253900527954 0.350545763969421387 0.0257662143558263779
-0.563509643077850342 0.417404860258102417 -0.0141523675993084908
-0.197706863284111023 -0.342191576957702637 0.110454559326171875
-0.138674423098564148 -0.261423349380493164 0.113776050508022308
-0.310732513666152954 0.477872967720031738 0.0241053905338048935
0.0274073276668787003 -0.320320099592208862 0.172449275851249695
-0.090424858033657074 0.521036922931671143 0.0300949420779943466
0.181241348385810852 -0.188990727066993713 0.140205219388008118
8.392333984375e-05 0.477021962404251099 0.0532140731811523438
0.143100738525390625 0.380068391561508179 0.0774537697434425354
0.393917083740234375 -0.143175020813941956 0.142971515655517578
0.259235382080078125 -0.26124081015586853 0.156643077731132507
0.246660873293876648 0.358482271432876587 0.0987518653273582458
0.282723754644393921 0.128423213958740234 0.118295669555664062
0.271183013916015625 -0.108558230102062225 0.138162776827812195
-0.706429779529571533 0.28567233681678772 0.18708975613117218
-0.745927155017852783 0.187020465731620789 0.18763287365436554
-0.542180359363555908 0.0993861556053161621 0.111853122711181641
-0.406957000494003296 -0.072114013135433197 0.204075336456298828
-0.269955962896347046 -0.128419175744056702 0.244282081723213196
-0.535587310791015625 0.47737431526184082 0.217679500579833984
-0.565713226795196533 0.374593228101730347 0.215544059872627258
-0.077991485595703125 -0.122235365211963654 0.19539053738117218
-0.03873443603515625 -0.0451558642089366913 0.286992877721786499
-0.318136841058731079 0.50250929594039917 0.244157791137695312
0.0356585197150707245 -0.244795486330986023 0.364737838506698608
-0.100494384765625 0.52526015043258667 0.259966224431991577
0.217113494873046875 -0.142146646976470947 0.366230815649032593
-0.078200019896030426 0.424859851598739624 0.257715851068496704
0.084009803831577301 0.354387670755386353 0.289039134979248047
0.363573700189590454 -0.102354325354099274 0.379631370306015015
0.208217620849609375 -0.0671466588973999023 0.284947246313095093
0.187241867184638977 0.351104021072387695 0.320996910333633423
0.216622665524482727 0.142859801650047302 0.332813262939453125
0.245746612548828125 -0.0679006278514862061 0.364616870880126953
-0.702429473400115967 0.195458963513374329 0.293488830327987671
-0.535007476806640625 0.0939487740397453308 0.223286151885986328
-0.332578033208847046 0.00164767412934452295 0.177199050784111023
-0.545210540294647217 0.464714318513870239 0.324200302362442017
-0.548983275890350342 0.356108516454696655 0.463688045740127563
-0.601559937000274658 0.245058253407478333 0.437684535980224609
-0.5313568115234375 0.0319896377623081207 0.396747589111328125
-0.286245971918106079 0.0285593941807746887 0.352002143859863281
-0.067305244505405426 -0.114611901342868805 0.291448116302490234
-0.257076263427734375 -0.103416271507740021 0.43283352255821228
-0.330739349126815796 0.488536715507507324 0.359817028045654297
-0.331205993890762329 0.407988041639328003 0.519360840320587158
0.03070068359375 -0.174299076199531555 0.456562042236328125
-0.0678863525390625 -0.043062206357717514 0.525438547134399414
-0.109488166868686676 0.503151118755340576 0.368262767791748047
-0.109442390501499176 0.424309968948364258 0.532712697982788086
0.214928939938545227 -0.0513324998319149017 0.401575237512588501
0.115818023681640625 0.0378777757287025452 0.518397629261016846
0.00631968164816498756 0.340740174055099487 0.553201138973236084
0.131717681884765625 0.365256816148757935 0.422360897064208984
0.03575897216796875 0.116673372685909271 0.549729049205780029
0.103801727294921875 0.147005036473274231 0.367767810821533203
0.220938369631767273 0.0120376944541931152 0.609891235828399658
0.270707458257675171 0.013011508621275425 0.420330852270126343
-0.52628326416015625 0.257168740034103394 0.520777046680450439
-0.407965332269668579 0.0755093172192573547 0.430558830499649048
-0.273351043462753296 -0.0572003722190856934 0.348721981048583984
-0.3117828369140625 0.297428220510482788 0.572130203247070312
-0.256903320550918579 0.0924206376075744629 0.587378978729248047
-0.082364402711391449 0.0605778209865093231 0.466789871454238892
-0.098105110228061676 0.313538879156112671 0.539484500885009766
-0.05004119873046875 0.135789334774017334 0.634782075881958008
0.109940849244594574 0.0557128041982650757 0.624707996845245361
3 0 1 2
3 1 3 4
3 2 1 4
3 3 5 6
3 4 3 6
3 5 7 6
3 0 8 9
3 1 0 9
3 9 10 1
3 1 10 3
3 10 11 3
3 3 11 5
3 5 11 12
3 7 5 12
3 8 13 14
3 9 8 14
3 14 15 9
3 9 15 10
3 15 16 10
3 10 16 11
3 11 16 17
3 12 11 17
3 14 13 18
3 15 14 18
3 19 15 18
3 16 15 19
3 20 16 19
3 16 20 17
3 21 22 23
3 22 24 25
3 23 22 25
3 24 26 27
3 25 24 27
3 26 28 27
3 29 30 31
3 2 22 21
3 0 2 21
3 0 21 31
3 0 31 30
3 4 22 2
3 24 22 4
3 6 24 4
3 26 24 6
3 26 32 28
3 6 32 26
3 6 33 32
3 6 7 33
3 33 34 32
3 29 35 36
3 30 29 36
3 36 0 30
3 8 0 36
3 12 33 7
3 37 33 12
3 33 37 38
3 34 33 38
3 35 39 40
3 36 35 40
3 40 8 36
3 13 8 40
3 17 37 12
3 41 37 17
3 37 41 42
3 38 37 42
3 40 39 43
3 43 44 45
3 40 43 45
3 40 45 18
3 40 18 13
3 18 46 19
3 45 46 18
3 19 47 20
3 46 47 19
3 48 49 41
3 47 48 41
3 47 41 17
3 47 17 20
3 41 49 42
3 45 44 50
3 46 45 50
3 51 46 50
3 47 46 51
3 52 47 51
3 47 52 48
3 53 21 23
3 54 53 23
3 23 25 54
3 25 55 54
3 25 27 55
3 27 56 55
3 28 57 56
3 27 28 56
3 58 29 31
3 59 58 31
3 31 53 59
3 21 53 31
3 60 28 32
3 57 28 60
3 34 61 60
3 32 34 60
3 35 29 62
3 62 29 58
3 38 63 34
3 63 61 34
3 39 35 64
3 64 35 62
3 42 65 38
3 65 63 38
3 66 43 39
3 64 66 39
3 44 66 67
3 43 66 44
3 68 49 48
3 69 49 68
3 49 69 65
3 42 49 65
3 70 50 44
3 67 70 44
3 50 70 51
3 51 70 71
3 51 71 52
3 52 71 72
3 52 72 68
3 48 52 68
3 73 53 54
3 74 73 54
3 54 55 74
3 55 75 74
3 55 56 75
3 56 76 75
3 57 77 76
3 56 57 76
3 78 58 59
3 79 78 59
3 59 73 79
3 53 73 59
3 80 57 60
3 77 57 80
3 61 81 80
3 60 61 80
3 62 58 82
3 82 58 78
3 63 83 61
3 83 81 61
3 64 62 84
3 84 62 82
3 65 85 63
3 85 83 63
3 86 66 64
3 84 86 64
3 67 86 87
3 66 86 67
3 88 69 68
3 89 69 88
3 69 89 85
3 65 69 85
3 90 70 67
3 87 90 67
3 70 90 71
3 71 90 91
3 71 91 72
3 72 91 92
3 72 92 88
3 68 72 88
3 73 74 93
3 74 75 94
3 93 74 94
3 75 76 95
3 94 75 95
3 76 77 95
3 78 79 96
3 97 93 98
3 96 93 97
3 96 73 93
3 96 79 73
3 94 98 93
3 99 98 94
3 95 99 94
3 100 99 95
3 100 101 102
3 95 101 100
3 95 80 101
3 95 77 80
3 80 81 101
3 82 78 96
3 103 82 96
3 96 104 103
3 97 104 96
3 102 105 106
3 101 105 102
3 105 101 81
3 83 105 81
3 84 82 103
3 107 84 103
3 103 108 107
3 104 108 103
3 106 109 110
3 105 109 106
3 109 105 83
3 85 109 83
3 86 84 107
3 107 108 111
3 86 107 111
3 86 111 112
3 86 112 87
3 112 113 114
3 111 113 112
3 114 115 116
3 113 115 114
3 89 110 109
3 88 110 89
3 88 115 110
3 88 116 115
3 89 109 85
3 90 87 112
3 91 90 112
3 114 91 112
3 92 91 114
3 116 92 114
3 92 116 88
3 97 98 117
3 98 99 118
3 117 98 118
3 99 100 119
3 118 99 119
3 100 102 119
3 104 97 117
3 120 104 117
3 120 117 121
3 117 118 121
3 121 118 122
3 118 119 122
3 122 119 102
3 106 122 102
3 108 104 120
3 123 108 120
3 123 120 124
3 120 121 124
3 124 121 125
3 121 122 125
3 125 122 106
3 110 125 106
3 111 108 123
3 113 111 123
3 124 113 123
3 115 113 124
3 125 115 124
3 115 125 110
