ply
format ascii 1.0
comment VCGLIB generated
element vertex 126
property float x
property float y
property float z
element face 248
property list uchar int vertex_indices
end_header
-0.4109039306640625 0.221541181206703186 -0.470648914575576782
-0.375653594732284546 0.130036309361457825 -0.50446242094039917
-0.386225372552871704 0.111762434244155884 -0.391914218664169312
-0.302288055419921875 -0.0680641457438468933 -0.500667393207550049
-0.358637481927871704 -0.107324086129665375 -0.414016574621200562
-0.173503875732421875 -0.0657522529363632202 -0.327954143285751343
-0.212851211428642273 -0.00293326843529939651 -0.263857990503311157
-0.143412277102470398 -0.0917561128735542297 -0.223797798156738281
-0.193030044436454773 0.247468695044517517 -0.431092262268066406
-0.162092849612236023 0.191906645894050598 -0.531861007213592529
-0.091448463499546051 -0.0203925371170043945 -0.496268272399902344
-0.0497080497443675995 -0.229384467005729675 -0.403342396020889282
-0.0326207466423511505 -0.261858820915222168 -0.302552849054336548
0.00952911376953125 0.312817126512527466 -0.360797256231307983
0.0483996085822582245 0.257015138864517212 -0.45218166708946228
0.099154151976108551 0.0412616059184074402 -0.41456875205039978
0.166039779782295227 -0.172727838158607483 -0.392048358917236328
0.184115096926689148 -0.256159514188766479 -0.320714622735977173
0.137685135006904602 0.28736424446105957 -0.39020887017250061
0.194812774658203125 0.0725928172469139099 -0.384404182434082031
0.25574493408203125 -0.138124734163284302 -0.3354034423828125
-0.627253234386444092 0.168719962239265442 -0.246438980102539062
-0.503979980945587158 0.111340589821338654 -0.280583858489990234
-0.5471649169921875 0.0773063227534294128 -0.22695477306842804
-0.481672912836074829 -0.127516910433769226 -0.290720611810684204
-0.347525268793106079 -0.0890082642436027527 -0.224211052060127258
-0.278504699468612671 -0.168826475739479065 -0.182442829012870789
-0.279160827398300171 -0.264149755239486694 -0.123549617826938629
-0.166002914309501648 -0.218854621052742004 -0.120079994201660156
-0.456981658935546875 0.299978345632553101 -0.224146053194999695
-0.446489959955215454 0.326069504022598267 -0.331351608037948608
-0.563443481922149658 0.331685006618499756 -0.258681297302246094
-0.143864944577217102 -0.104788295924663544 0.0573886223137378693
-0.08440399169921875 -0.111762307584285736 -0.0534267425537109375
-0.176802322268486023 -0.171683073043823242 -0.0488901138305664062
-0.278512328863143921 0.429913133382797241 -0.21223132312297821
-0.2341156005859375 0.377365350723266602 -0.305214554071426392
-0.0423520393669605255 -0.316595405340194702 -0.144499942660331726
-0.008510589599609375 -0.34282645583152771 -0.0460362434387207031
-0.0613225288689136505 0.444153398275375366 -0.191967323422431946
-0.0501988716423511505 0.334078669548034668 -0.193055465817451477
0.180582687258720398 -0.345716387033462524 -0.159827396273612976
0.197256729006767273 -0.271662741899490356 -0.069812774658203125
0.0411516837775707245 0.436059117317199707 -0.178575038909912109
0.202238723635673523 0.367188483476638794 -0.162823036313056946
0.25421905517578125 0.278399437665939331 -0.252619266510009766
0.181629180908203125 0.0700359120965003967 -0.206154987215995789
0.351824432611465454 -0.0728403404355049133 -0.196670845150947571
0.3899383544921875 -0.181516468524932861 -0.132129982113838196
0.298465728759765625 -0.321868836879730225 -0.0918478965759277344
0.275755554437637329 0.292994827032089233 -0.141489669680595398
0.194079086184501648 0.0907554328441619873 -0.0940548554062843323
0.291659027338027954 -0.111571453511714935 -0.123557247221469879
-0.611220061779022217 0.203174278140068054 -0.0147263212129473686
-0.622872650623321533 0.0877698734402656555 -0.0295136775821447372
-0.435422271490097046 0.00175597460474818945 -0.0747386589646339417
-0.34754180908203125 -0.16241048276424408 0.0400908775627613068
-0.2770538330078125 -0.248474299907684326 0.0747443810105323792
-0.481670379638671875 0.356546163558959961 -0.008549530990421772
-0.588219940662384033 0.384240239858627319 -0.0200893077999353409
-0.088116966187953949 -0.310162335634231567 0.115428924560546875
-0.193645477294921875 -0.276744872331619263 0.150310993194580078
-0.273924499750137329 0.418975591659545898 0.0140466690063476562
0.020290374755859375 -0.302961230278015137 0.171950340270996094
-0.073979698121547699 0.515929043292999268 0.0211153030395507812
0.249584197998046875 -0.345888346433639526 0.144199058413505554
0.0197397861629724503 0.452655166387557983 0.0417642593383789062
0.149332687258720398 0.333689838647842407 0.0484717674553394318
0.435835510492324829 -0.129254549741744995 0.0741925239562988281
0.369274139404296875 -0.291263759136199951 0.129720211029052734
0.254250854253768921 0.338533967733383179 0.0796451568603515625
0.3368072509765625 0.116537034511566162 0.0850564613938331604
0.326368957757949829 -0.103443004190921783 0.105555377900600433
-0.691432952880859375 0.213750779628753662 0.205588981509208679
-0.632764160633087158 0.0850912407040596008 0.177237033843994141
-0.409558624029159546 0.144390687346458435 0.0918920859694480896
-0.27771759033203125 -0.00728469574823975563 0.140420600771903992
-0.186333969235420227 -0.0415984839200973511 0.154359817504882812
-0.520707428455352783 0.432620257139205933 0.219487667083740234
-0.580379486083984375 0.352575808763504028 0.205590084195137024
-0.0373471565544605255 -0.100226618349552155 0.134619399905204773
-0.130761459469795227 -0.0631166771054267883 0.220940589904785156
-0.303105682134628296 0.479298114776611328 0.231690719723701477
0.037578582763671875 -0.156603872776031494 0.345918804407119751
-0.086322784423828125 0.509954273700714111 0.256592124700546265
0.278553009033203125 -0.176859602332115173 0.290964752435684204
-0.083020530641078949 0.402105063199996948 0.224987193942070007
0.094231925904750824 0.303668051958084106 0.248952865600585938
0.498200744390487671 -0.0589966960251331329 0.272850662469863892
0.373110443353652954 -0.199314594268798828 0.34396776556968689
0.195955917239189148 0.315472453832626343 0.299955368041992188
0.330225616693496704 0.166415676474571228 0.305930465459823608
0.379014343023300171 -0.0516490302979946136 0.286009639501571655
-0.601923644542694092 0.0993521213531494141 0.281916618347167969
-0.436379760503768921 0.0163239184767007828 0.165734291076660156
-0.2916717529296875 -0.0837271735072135925 0.043293636292219162
-0.50213623046875 0.393133670091629028 0.330498367547988892
-0.419368743896484375 0.284371167421340942 0.404678016901016235
-0.475134521722793579 0.141202375292778015 0.427782535552978516
-0.318014770746231079 0.109876714646816254 0.268800884485244751
-0.295853942632675171 -0.114334553480148315 0.199356243014335632
-0.085910797119140625 0.0500296838581562042 0.204974338412284851
-0.233373001217842102 0.0247981101274490356 0.243412971496582031
-0.2784881591796875 0.365497708320617676 0.306862026453018188
-0.241977691650390625 0.316598743200302124 0.506103932857513428
0.0548184700310230255 -0.0347906537353992462 0.336273342370986938
-0.082981109619140625 -0.0602653361856937408 0.26270565390586853
-0.088049568235874176 0.457735151052474976 0.355528503656387329
-0.0229593906551599503 0.334197193384170532 0.480279445648193359
0.252063751220703125 -0.123479008674621582 0.372806698083877563
0.152184799313545227 -0.0461882539093494415 0.344564110040664673
0.1211395263671875 0.2901650071144104 0.461705535650253296
0.142932891845703125 0.398023486137390137 0.365278244018554688
0.368292480707168579 0.315111368894577026 0.255474239587783813
0.252276092767715454 0.169202283024787903 0.331876128911972046
0.258108764886856079 -0.0519700609147548676 0.315515846014022827
0.416224151849746704 0.0424705632030963898 0.184624671936035156
-0.414328247308731079 0.188973352313041687 0.360043853521347046
-0.214991256594657898 0.13107144832611084 0.385281085968017578
-0.248236343264579773 -0.0688998624682426453 0.294457584619522095
-0.21152496337890625 0.179556682705879211 0.483720690011978149
-0.233075454831123352 -0.0655293837189674377 0.378705650568008423
-0.084234870970249176 -0.1944923996925354 0.294711112976074219
0.10832977294921875 0.394168376922607422 0.271310180425643921
-0.000441233307356014848 -0.0165060572326183319 0.409454822540283203
0.0868682861328125 -0.149893149733543396 0.271684646606445312
3 0 1 2
3 1 3 4
3 2 1 4
3 3 5 6
3 4 3 6
3 5 7 6
3 0 8 9
3 1 0 9
3 9 10 1
3 1 10 3
3 10 11 3
3 3 11 5
3 5 11 12
3 7 5 12
3 8 13 14
3 9 8 14
3 14 15 9
3 9 15 10
3 15 16 10
3 10 16 11
3 11 16 17
3 12 11 17
3 14 13 18
3 15 14 18
3 19 15 18
3 16 15 19
3 20 16 19
3 16 20 17
3 21 22 23
3 22 24 25
3 23 22 25
3 24 26 27
3 25 24 27
3 26 28 27
3 29 30 31
3 2 22 21
3 0 2 21
3 0 21 31
3 0 31 30
3 4 22 2
3 24 22 4
3 6 24 4
3 26 24 6
3 26 32 28
3 6 32 26
3 6 33 32
3 6 7 33
3 33 34 32
3 29 35 36
3 30 29 36
3 36 0 30
3 8 0 36
3 12 33 7
3 37 33 12
3 33 37 38
3 34 33 38
3 35 39 40
3 36 35 40
3 40 8 36
3 13 8 40
3 17 37 12
3 41 37 17
3 37 41 42
3 38 37 42
3 40 39 43
3 43 44 45
3 40 43 45
3 40 45 18
3 40 18 13
3 18 46 19
3 45 46 18
3 19 47 20
3 46 47 19
3 48 49 41
3 47 48 41
3 47 41 17
3 47 17 20
3 41 49 42
3 45 44 50
3 46 45 50
3 51 46 50
3 47 46 51
3 52 47 51
3 47 52 48
3 53 21 23
3 54 53 23
3 23 25 54
3 25 55 54
3 25 27 55
3 27 56 55
3 28 57 56
3 27 28 56
3 58 29 31
3 59 58 31
3 31 53 59
3 21 53 31
3 60 28 32
3 57 28 60
3 34 61 60
3 32 34 60
3 35 29 62
3 62 29 58
3 38 63 34
3 63 61 34
3 39 35 64
3 64 35 62
3 42 65 38
3 65 63 38
3 66 43 39
3 64 66 39
3 44 66 67
3 43 66 44
3 68 49 48
3 69 49 68
3 49 69 65
3 42 49 65
3 70 50 44
3 67 70 44
3 50 70 51
3 51 70 71
3 51 71 52
3 52 71 72
3 52 72 68
3 48 52 68
3 73 53 54
3 74 73 54
3 54 55 74
3 55 75 74
3 55 56 75
3 56 76 75
3 57 77 76
3 56 57 76
3 78 58 59
3 79 78 59
3 59 73 79
3 53 73 59
3 80 57 60
3 77 57 80
3 61 81 80
3 60 61 80
3 62 58 82
3 82 58 78
3 63 83 61
3 83 81 61
3 64 62 84
3 84 62 82
3 65 85 63
3 85 83 63
3 86 66 64
3 84 86 64
3 67 86 87
3 66 86 67
3 88 69 68
3 89 69 88
3 69 89 85
3 65 69 85
3 90 70 67
3 87 90 67
3 70 90 71
3 71 90 91
3 71 91 72
3 72 91 92
3 72 92 88
3 68 72 88
3 73 74 93
3 74 75 94
3 93 74 94
3 75 76 95
3 94 75 95
3 76 77 95
3 78 79 96
3 97 93 98
3 96 93 97
3 96 73 93
3 96 79 73
3 94 98 93
3 99 98 94
3 95 99 94
3 100 99 95
3 100 101 102
3 95 101 100
3 95 80 101
3 95 77 80
3 80 81 101
3 82 78 96
3 103 82 96
3 96 104 103
3 97 104 96
3 102 105 106
3 101 105 102
3 105 101 81
3 83 105 81
3 84 82 103
3 107 84 103
3 103 108 107
3 104 108 103
3 106 109 110
3 105 109 106
3 109 105 83
3 85 109 83
3 86 84 107
3 107 108 111
3 86 107 111
3 86 111 112
3 86 112 87
3 112 113 114
3 111 113 112
3 114 115 116
3 113 115 114
3 89 110 109
3 88 110 89
3 88 115 110
3 88 116 115
3 89 109 85
3 90 87 112
3 91 90 112
3 114 91 112
3 92 91 114
3 116 92 114
3 92 116 88
3 97 98 117
3 98 99 118
3 117 98 118
3 99 100 119
3 118 99 119
3 100 102 119
3 104 97 117
3 120 104 117
3 120 117 121
3 117 118 121
3 121 118 122
3 118 119 122
3 122 119 102
3 106 122 102
3 108 104 120
3 123 108 120
3 123 120 124
3 120 121 124
3 124 121 125
3 121 122 125
3 125 122 106
3 110 125 106
3 111 108 123
3 113 111 123
3 124 113 123
3 115 113 124
3 125 115 124
3 115 125 110
