ply
format ascii 1.0
comment VCGLIB generated
element vertex 126
property float x
property float y
property float z
element face 248
property list uchar int vertex_indices
end_header
-0.147482544183731079 0.0726105496287345886 -0.543285608291625977
-0.138274818658828735 0.0440449006855487823 -0.427170783281326294
-0.144438743591308594 -0.0476474091410636902 -0.481632143259048462
-0.144138336181640625 -0.169902071356773376 -0.354904532432556152
-0.0335009880363941193 -0.175093069672584534 -0.329848110675811768
-0.168813064694404602 -0.354241341352462769 -0.223052099347114563
-0.0587352104485034943 -0.366936445236206055 -0.222791418433189392
-0.135391548275947571 -0.328087955713272095 -0.117039278149604797
0.0514554940164089203 0.116316474974155426 -0.450007110834121704
0.0797955170273780823 0.0100879380479454994 -0.44114348292350769
0.0642951279878616333 -0.146373361349105835 -0.272946536540985107
0.0482114143669605255 -0.347196757793426514 -0.175006181001663208
0.0478553734719753265 -0.452311873435974121 -0.140073493123054504
0.242225319147109985 0.157414183020591736 -0.340798288583755493
0.239297538995742798 0.0585110783576965332 -0.294608652591705322
0.286707878112792969 -0.163688361644744873 -0.273450791835784912
0.276392281055450439 -0.344477266073226929 -0.137694075703620911
0.252199172973632812 -0.413281410932540894 -0.0528570003807544708
0.3470611572265625 0.0755130723118782043 -0.310416609048843384
0.270082145929336548 -0.0987912416458129883 -0.188143834471702576
0.281542122364044189 -0.277501165866851807 -0.0515939779579639435
-0.204219803214073181 0.0248343683779239655 -0.231331780552864075
-0.143017768859863281 0.0926381945610046387 -0.355529367923736572
-0.186562538146972656 0.122561052441596985 -0.256965935230255127
-0.20032404363155365 -0.124434575438499451 -0.302107721567153931
-0.16525585949420929 -0.0822154954075813293 -0.210233315825462341
-0.197693496942520142 -0.290489017963409424 -0.152651265263557434
-0.0832366943359375 -0.269709676504135132 -0.133057236671447754
-0.100083343684673309 -0.373758882284164429 -0.103436700999736786
-0.177350044250488281 0.0762648284435272217 -0.255268216133117676
-0.176054626703262329 0.081500321626663208 -0.366459280252456665
-0.108764961361885071 0.164415061473846436 -0.275413781404495239
-0.100754097104072571 -0.376062005758285522 0.0836843252182006836
-0.199727997183799744 -0.439210474491119385 0.00690917158499360085
-0.205704361200332642 -0.382970452308654785 0.104543164372444153
-0.0865443497896194458 0.280601680278778076 -0.27385789155960083
-0.019610721617937088 0.243468627333641052 -0.350975781679153442
-0.0205945968627929688 -0.318145602941513062 -0.0435626506805419922
-0.00137964880559593439 -0.308166444301605225 0.0676870346069335938
0.0957663804292678833 0.153004094958305359 -0.243983656167984009
0.152516365051269531 0.243558332324028015 -0.211188182234764099
0.161547660827636719 -0.329565048217773438 0.080172613263130188
0.20825861394405365 -0.252122849225997925 0.0196975469589233398
0.166242912411689758 0.114185802638530731 -0.168574050068855286
0.324945449829101562 0.172186046838760376 -0.222558170557022095
0.445130646228790283 0.128635779023170471 -0.172125101089477539
0.349767982959747314 -0.027783714234828949 -0.0417155027389526367
0.448239624500274658 -0.22979263961315155 -0.00616033840924501419
0.351942360401153564 -0.250406563282012939 -0.102333419024944305
0.201837211847305298 -0.335739791393280029 -0.0515315905213356018
0.380485832691192627 0.206838861107826233 -0.133405327796936035
0.449309319257736206 0.0123290419578552246 -0.0560373030602931976
0.455026596784591675 -0.206715032458305359 -0.113742150366306305
-0.266667991876602173 0.112472034990787506 -0.0288671236485242844
-0.32509961724281311 0.178012087941169739 -0.095965459942817688
-0.198521599173545837 0.0241049397736787796 -0.00997920800000429153
-0.188031181693077087 -0.204467087984085083 0.0528236217796802521
-0.228021934628486633 -0.300722867250442505 0.0650141611695289612
-0.115979507565498352 0.0840109661221504211 -0.0388491153717041016
-0.109181396663188934 0.194162115454673767 -0.0485785789787769318
-0.121474258601665497 -0.15192858874797821 0.0640747919678688049
-0.228983551263809204 -0.157207146286964417 0.0772092714905738831
-0.0945297852158546448 0.305303990840911865 -0.0532323084771633148
-0.0792821198701858521 -0.169351130723953247 -0.0909268856048583984
0.102904632687568665 0.204084873199462891 -0.0277459602802991867
0.133309364318847656 -0.10855509340763092 -0.135576128959655762
0.140678077936172485 0.30403822660446167 -0.0490309782326221466
0.303519546985626221 0.238787397742271423 -0.00941137410700321198
0.299294769763946533 -0.0847795978188514709 0.040829777717590332
0.135499626398086548 -0.123638644814491272 -0.0246266517788171768
0.198911026120185852 0.206204533576965332 -0.00669638300314545631
0.234055504202842712 0.0199523512274026871 -0.121106304228305817
0.260100364685058594 -0.173310190439224243 -0.0140134487301111221
-0.318023353815078735 0.247984021902084351 0.146196678280830383
-0.41527906060218811 0.208229005336761475 0.123939111828804016
-0.244506195187568665 0.0767220258712768555 0.183502033352851868
-0.341447174549102783 -0.125014215707778931 0.198019534349441528
-0.282737404108047485 -0.197664380073547363 0.25857427716255188
-0.0859594345092773438 0.0956309884786605835 0.184317022562026978
-0.154720932245254517 0.180431365966796875 0.172530204057693481
-0.107819236814975739 -0.165041327476501465 0.288450509309768677
-0.0389226265251636505 -0.189996123313903809 0.203774556517601013
-0.10778585821390152 0.320611298084259033 0.170115619897842407
0.0721486359834671021 -0.0723465606570243835 0.0421410799026489258
0.105357162654399872 0.255220770835876465 0.188733533024787903
0.0783268585801124573 0.106373488903045654 -0.100733235478401184
0.113609626889228821 0.362194210290908813 0.165967732667922974
0.173414543271064758 0.192627623677253723 0.168627887964248657
0.346034348011016846 0.0234470218420028687 -0.147759705781936646
0.170838028192520142 0.0642360597848892212 -0.141913294792175293
0.23273785412311554 0.100060775876045227 0.187148243188858032
0.0773382186889648438 0.0797424688935279846 0.0287586431950330734
0.239753708243370056 0.0256264600902795792 -0.116230838000774384
-0.415946632623672485 0.229202702641487122 0.234662279486656189
-0.260852158069610596 0.0682725533843040466 0.273219138383865356
-0.380276024341583252 -0.109520129859447479 0.303512006998062134
-0.127703338861465454 0.107337765395641327 0.289107561111450195
-0.161151885986328125 0.286508858203887939 0.295707583427429199
-0.292716026306152344 0.345530420541763306 0.317500829696655273
-0.299892425537109375 0.143583968281745911 0.423899471759796143
-0.230870231986045837 -0.0652890726923942566 0.395062744617462158
-0.119406379759311676 -0.145194962620735168 0.151272416114807129
-0.163710907101631165 -0.0308681949973106384 0.286218911409378052
-0.112835563719272614 0.331878900527954102 0.280005723237991333
-0.0152508411556482315 0.318833440542221069 0.129006102681159973
0.00279267621226608753 0.0122100654989480972 0.0586787834763526917
-0.0140174226835370064 0.114433698356151581 0.204879835247993469
0.024453798308968544 0.270925074815750122 0.114114873111248016
0.129303932189941406 0.180428624153137207 0.22986331582069397
0.152683258056640625 0.149336099624633789 -0.0311706457287073135
0.201303154230117798 0.0880474448204040527 0.130113750696182251
0.168614387512207031 0.0518032833933830261 0.189063742756843567
0.298050224781036377 0.159940600395202637 0.123329952359199524
0.102901451289653778 0.0102049615234136581 -0.0227663908153772354
0.102227523922920227 0.184230789542198181 0.0208522863686084747
0.276907265186309814 -0.0257137268781661987 0.114962652325630188
0.290803909301757812 0.0752708688378334045 -0.0327700376510620117
-0.245885834097862244 0.304617643356323242 0.229447275400161743
-0.277791023254394531 0.100041657686233521 0.321682095527648926
-0.119967453181743622 -0.0343663990497589111 0.389672309160232544
-0.0771125108003616333 0.230706125497817993 0.104879729449748993
-0.121232666075229645 0.0207475777715444565 0.177762895822525024
0.0396649017930030823 0.108321964740753174 0.304482579231262207
0.0665410310029983521 0.0921564549207687378 0.209466412663459778
0.0405708923935890198 -0.0546346716582775116 0.0406706333160400391
0.197370842099189758 -0.00495597952976822853 0.191026121377944946
3 0 1 2
3 1 3 4
3 2 1 4
3 3 5 6
3 4 3 6
3 5 7 6
3 0 8 9
3 1 0 9
3 9 10 1
3 1 10 3
3 10 11 3
3 3 11 5
3 5 11 12
3 7 5 12
3 8 13 14
3 9 8 14
3 14 15 9
3 9 15 10
3 15 16 10
3 10 16 11
3 11 16 17
3 12 11 17
3 14 13 18
3 15 14 18
3 19 15 18
3 16 15 19
3 20 16 19
3 16 20 17
3 21 22 23
3 22 24 25
3 23 22 25
3 24 26 27
3 25 24 27
3 26 28 27
3 29 30 31
3 2 22 21
3 0 2 21
3 0 21 31
3 0 31 30
3 4 22 2
3 24 22 4
3 6 24 4
3 26 24 6
3 26 32 28
3 6 32 26
3 6 33 32
3 6 7 33
3 33 34 32
3 29 35 36
3 30 29 36
3 36 0 30
3 8 0 36
3 12 33 7
3 37 33 12
3 33 37 38
3 34 33 38
3 35 39 40
3 36 35 40
3 40 8 36
3 13 8 40
3 17 37 12
3 41 37 17
3 37 41 42
3 38 37 42
3 40 39 43
3 43 44 45
3 40 43 45
3 40 45 18
3 40 18 13
3 18 46 19
3 45 46 18
3 19 47 20
3 46 47 19
3 48 49 41
3 47 48 41
3 47 41 17
3 47 17 20
3 41 49 42
3 45 44 50
3 46 45 50
3 51 46 50
3 47 46 51
3 52 47 51
3 47 52 48
3 53 21 23
3 54 53 23
3 23 25 54
3 25 55 54
3 25 27 55
3 27 56 55
3 28 57 56
3 27 28 56
3 58 29 31
3 59 58 31
3 31 53 59
3 21 53 31
3 60 28 32
3 57 28 60
3 34 61 60
3 32 34 60
3 35 29 62
3 62 29 58
3 38 63 34
3 63 61 34
3 39 35 64
3 64 35 62
3 42 65 38
3 65 63 38
3 66 43 39
3 64 66 39
3 44 66 67
3 43 66 44
3 68 49 48
3 69 49 68
3 49 69 65
3 42 49 65
3 70 50 44
3 67 70 44
3 50 70 51
3 51 70 71
3 51 71 52
3 52 71 72
3 52 72 68
3 48 52 68
3 73 53 54
3 74 73 54
3 54 55 74
3 55 75 74
3 55 56 75
3 56 76 75
3 57 77 76
3 56 57 76
3 78 58 59
3 79 78 59
3 59 73 79
3 53 73 59
3 80 57 60
3 77 57 80
3 61 81 80
3 60 61 80
3 62 58 82
3 82 58 78
3 63 83 61
3 83 81 61
3 64 62 84
3 84 62 82
3 65 85 63
3 85 83 63
3 86 66 64
3 84 86 64
3 67 86 87
3 66 86 67
3 88 69 68
3 89 69 88
3 69 89 85
3 65 69 85
3 90 70 67
3 87 90 67
3 70 90 71
3 71 90 91
3 71 91 72
3 72 91 92
3 72 92 88
3 68 72 88
3 73 74 93
3 74 75 94
3 93 74 94
3 75 76 95
3 94 75 95
3 76 77 95
3 78 79 96
3 97 93 98
3 96 93 97
3 96 73 93
3 96 79 73
3 94 98 93
3 99 98 94
3 95 99 94
3 100 99 95
3 100 101 102
3 95 101 100
3 95 80 101
3 95 77 80
3 80 81 101
3 82 78 96
3 103 82 96
3 96 104 103
3 97 104 96
3 102 105 106
3 101 105 102
3 105 101 81
3 83 105 81
3 84 82 103
3 107 84 103
3 103 108 107
3 104 108 103
3 106 109 110
3 105 109 106
3 109 105 83
3 85 109 83
3 86 84 107
3 107 108 111
3 86 107 111
3 86 111 112
3 86 112 87
3 112 113 114
3 111 113 112
3 114 115 116
3 113 115 114
3 89 110 109
3 88 110 89
3 88 115 110
3 88 116 115
3 89 109 85
3 90 87 112
3 91 90 112
3 114 91 112
3 92 91 114
3 116 92 114
3 92 116 88
3 97 98 117
3 98 99 118
3 117 98 118
3 99 100 119
3 118 99 119
3 100 102 119
3 104 97 117
3 120 104 117
3 120 117 121
3 117 118 121
3 121 118 122
3 118 119 122
3 122 119 102
3 106 122 102
3 108 104 120
3 123 108 120
3 123 120 124
3 120 121 124
3 124 121 125
3 121 122 125
3 125 122 106
3 110 125 106
3 111 108 123
3 113 111 123
3 124 113 123
3 115 113 124
3 125 115 124
3 115 125 110
