ply
format ascii 1.0
comment VCGLIB generated
element vertex 126
property float x
property float y
property float z
element face 248
property list uchar int vertex_indices
end_header
-0.157560616731643677 0.322625517845153809 -0.390890151262283325
-0.153514325618743896 0.233868658542633057 -0.459863126277923584
-0.243614748120307922 0.216658890247344971 -0.410267114639282227
-0.141265049576759338 0.0117766531184315681 -0.491515070199966431
-0.203586310148239136 -0.00385994021780788898 -0.41643109917640686
-0.0899382978677749634 -0.0870336517691612244 -0.294786006212234497
-0.0169931147247552872 0.0193953141570091248 -0.278771430253982544
-0.0168732237070798874 -0.100887514650821686 -0.231308430433273315
-0.0184413362294435501 0.215254202485084534 -0.249293193221092224
-0.00416483217850327492 0.135585770010948181 -0.327110797166824341
0.0842939093708992004 0.0278929471969604492 -0.513932883739471436
0.0746331885457038879 -0.183817937970161438 -0.417662531137466431
0.0998551547527313232 -0.262461364269256592 -0.341446578502655029
0.160022467374801636 0.329762130975723267 -0.321938663721084595
0.189773023128509521 0.241474434733390808 -0.379595935344696045
0.285361170768737793 0.0434581898152828217 -0.42378118634223938
0.271139144897460938 -0.161047860980033875 -0.324987679719924927
0.308806568384170532 -0.263881504535675049 -0.329544365406036377
0.287291675806045532 0.276137292385101318 -0.335886299610137939
0.366268157958984375 0.0661091282963752747 -0.356539160013198853
0.37822452187538147 -0.147797927260398865 -0.317557543516159058
-0.405020028352737427 0.283124804496765137 -0.197339236736297607
-0.368140101432800293 0.186502143740653992 -0.294217050075531006
-0.361736834049224854 0.18878425657749176 -0.187034443020820618
-0.313795626163482666 -0.0333719104528427124 -0.283972024917602539
-0.314129412174224854 -0.0234718490391969681 -0.187119588255882263
-0.118062160909175873 -0.023247716948390007 -0.156845033168792725
-0.110661648213863373 -0.113536864519119263 -0.158205375075340271
-0.0107833314687013626 -0.107732541859149933 -0.100331306457519531
-0.223781049251556396 0.50557863712310791 -0.180287539958953857
-0.19466264545917511 0.444269686937332153 -0.264034271240234375
-0.305700302124023438 0.432340174913406372 -0.188170507550239563
-0.042972564697265625 -0.28425973653793335 -0.14334338903427124
-0.130544394254684448 -0.224506497383117676 -0.168655425310134888
-0.104182109236717224 -0.350278228521347046 -0.20045723021030426
-0.0600474216043949127 0.416542679071426392 -0.0459471791982650757
-0.0443240590393543243 0.343780338764190674 -0.126882627606391907
0.0534152984619140625 -0.356430083513259888 -0.202205866575241089
0.103323802351951599 -0.26717802882194519 -0.221772372722625732
0.121514461934566498 0.52732539176940918 -0.111097782850265503
0.130064830183982849 0.459498673677444458 -0.202068433165550232
0.278748095035552979 -0.349520206451416016 -0.179510295391082764
0.270126879215240479 -0.313629895448684692 -0.0855977237224578857
0.227124348282814026 0.500102221965789795 -0.112127579748630524
0.339677006006240845 0.364807635545730591 -0.100928209722042084
0.397551417350769043 0.292032837867736816 -0.193020954728126526
0.42840278148651123 0.0740717798471450806 -0.190713241696357727
0.493533283472061157 -0.124396175146102905 -0.171636849641799927
0.466327667236328125 -0.181192100048065186 -0.0506130307912826538
0.323709756135940552 -0.227184444665908813 -0.139392450451850891
0.418995469808578491 0.293190926313400269 -0.0812373831868171692
0.347892224788665771 0.07834634929895401 -0.117605417966842651
0.482004731893539429 -0.0751662552356719971 -0.0591233819723129272
-0.426626205444335938 0.295466631650924683 0.0267618056386709213
-0.424521327018737793 0.186723023653030396 0.0217870306223630905
-0.374607354402542114 -0.0323581360280513763 0.0263689253479242325
-0.208082199096679688 -0.156882688403129578 0.0286843106150627136
-0.14240264892578125 -0.238093391060829163 0.0133178913965821266
-0.278870731592178345 0.540578663349151611 0.0346927978098392487
-0.328547626733779907 0.440055042505264282 0.0336250253021717072
-0.0849846452474594116 -0.388658255338668823 0.0349848605692386627
-0.0061130523681640625 -0.441873848438262939 -0.0214067529886960983
-0.0610446929931640625 0.610711812973022461 0.0661538317799568176
0.189101353287696838 -0.346689820289611816 -0.0310158729553222656
0.156397134065628052 0.599776804447174072 0.102321423590183258
0.206099927425384521 -0.140257492661476135 0.0536564439535140991
0.233669281005859375 0.523676693439483643 0.11197788268327713
0.262053370475769043 0.345570355653762817 0.10389583557844162
0.3375244140625 -0.154963791370391846 0.136857882142066956
0.261407583951950073 -0.0583954788744449615 0.00685368292033672333
0.34619605541229248 0.272036582231521606 0.131212472915649414
0.222811028361320496 0.10093291848897934 0.0657352358102798462
0.301671713590621948 -0.0939032137393951416 0.0561637543141841888
-0.449506223201751709 0.291737616062164307 0.248082876205444336
-0.455018460750579834 0.18323025107383728 0.239406481385231018
-0.349175602197647095 -0.0161784179508686066 0.252042323350906372
-0.119900025427341461 -0.0949982702732086182 0.23136650025844574
-0.132002145051956177 -0.233665183186531067 0.217749401926994324
-0.271188199520111084 0.517480313777923584 0.263512313365936279
-0.356067925691604614 0.440560132265090942 0.254430770874023438
0.0364031121134757996 -0.307291239500045776 0.20060284435749054
-0.0235312338918447495 -0.293189704418182373 0.122921131551265717
-0.0492600053548812866 0.49494779109954834 0.244730889797210693
0.196406498551368713 -0.304535388946533203 0.187596604228019714
0.140320912003517151 0.557871580123901367 0.317133158445358276
0.403379708528518677 -0.194901660084724426 0.139065295457839966
0.2391815185546875 0.519928693771362305 0.332688778638839722
0.319359660148620605 0.366995155811309814 0.31538844108581543
0.534485399723052979 -0.0690238326787948608 0.13251185417175293
0.436701089143753052 -0.17922663688659668 0.0222757887095212936
0.27149200439453125 0.265822470188140869 0.339606672525405884
0.389360696077346802 0.193786472082138062 0.168904408812522888
0.454295039176940918 -0.0130920382216572762 0.2062816321849823
-0.424375534057617188 0.195879146456718445 0.345341324806213379
-0.335583001375198364 -0.00590244913473725319 0.346554189920425415
-0.196518227458000183 -0.186678618192672729 0.291973531246185303
-0.2802276611328125 0.476030796766281128 0.366053253412246704
-0.230082109570503235 0.356882333755493164 0.488334566354751587
-0.309976845979690552 0.266455531120300293 0.448449164628982544
-0.201613560318946838 0.0849579870700836182 0.397607266902923584
-0.147679194808006287 -0.0427745357155799866 0.227479591965675354
0.0237710140645503998 -0.201089724898338318 0.0884822458028793335
-0.08228302001953125 -0.16891944408416748 0.231038674712181091
-0.0875118821859359741 0.450574517250061035 0.313178122043609619
-0.001354217529296875 0.38978239893913269 0.436731249094009399
0.196681708097457886 -0.209883823990821838 0.228229090571403503
0.115690231323242188 -0.0681136399507522583 0.266012966632843018
0.130808696150779724 0.452200382947921753 0.36608576774597168
0.133949011564254761 0.278611689805984497 0.283289313316345215
0.336295545101165771 -0.131778448820114136 0.0842067152261734009
0.241293236613273621 0.01123830396682024 0.112936161458492279
0.204421460628509521 0.202026009559631348 0.363990753889083862
0.359851300716400146 0.284438192844390869 0.409655570983886719
0.28226172924041748 0.216831937432289124 0.152239799499511719
0.456815451383590698 0.248878881335258484 0.215337455272674561
0.295475542545318604 0.00912165455520153046 0.245371893048286438
0.434161603450775146 0.0432878769934177399 0.118340253829956055
-0.227868214249610901 0.324312567710876465 0.386352390050888062
-0.156271800398826599 0.123144403100013733 0.326787739992141724
-0.0723811537027359009 -0.0822617039084434509 0.294562757015228271
-0.0107942307367920876 0.283806055784225464 0.462390542030334473
0.0362913943827152252 0.211331874132156372 0.252824187278747559
0.100216187536716461 0.00813737325370311737 0.191047370433807373
0.101381033658981323 0.164039462804794312 0.323539465665817261
0.259614676237106323 0.260058850049972534 0.251340538263320923
0.31205451488494873 0.067565619945526123 0.170582711696624756
3 0 1 2
3 1 3 4
3 2 1 4
3 3 5 6
3 4 3 6
3 5 7 6
3 0 8 9
3 1 0 9
3 9 10 1
3 1 10 3
3 10 11 3
3 3 11 5
3 5 11 12
3 7 5 12
3 8 13 14
3 9 8 14
3 14 15 9
3 9 15 10
3 15 16 10
3 10 16 11
3 11 16 17
3 12 11 17
3 14 13 18
3 15 14 18
3 19 15 18
3 16 15 19
3 20 16 19
3 16 20 17
3 21 22 23
3 22 24 25
3 23 22 25
3 24 26 27
3 25 24 27
3 26 28 27
3 29 30 31
3 2 22 21
3 0 2 21
3 0 21 31
3 0 31 30
3 4 22 2
3 24 22 4
3 6 24 4
3 26 24 6
3 26 32 28
3 6 32 26
3 6 33 32
3 6 7 33
3 33 34 32
3 29 35 36
3 30 29 36
3 36 0 30
3 8 0 36
3 12 33 7
3 37 33 12
3 33 37 38
3 34 33 38
3 35 39 40
3 36 35 40
3 40 8 36
3 13 8 40
3 17 37 12
3 41 37 17
3 37 41 42
3 38 37 42
3 40 39 43
3 43 44 45
3 40 43 45
3 40 45 18
3 40 18 13
3 18 46 19
3 45 46 18
3 19 47 20
3 46 47 19
3 48 49 41
3 47 48 41
3 47 41 17
3 47 17 20
3 41 49 42
3 45 44 50
3 46 45 50
3 51 46 50
3 47 46 51
3 52 47 51
3 47 52 48
3 53 21 23
3 54 53 23
3 23 25 54
3 25 55 54
3 25 27 55
3 27 56 55
3 28 57 56
3 27 28 56
3 58 29 31
3 59 58 31
3 31 53 59
3 21 53 31
3 60 28 32
3 57 28 60
3 34 61 60
3 32 34 60
3 35 29 62
3 62 29 58
3 38 63 34
3 63 61 34
3 39 35 64
3 64 35 62
3 42 65 38
3 65 63 38
3 66 43 39
3 64 66 39
3 44 66 67
3 43 66 44
3 68 49 48
3 69 49 68
3 49 69 65
3 42 49 65
3 70 50 44
3 67 70 44
3 50 70 51
3 51 70 71
3 51 71 52
3 52 71 72
3 52 72 68
3 48 52 68
3 73 53 54
3 74 73 54
3 54 55 74
3 55 75 74
3 55 56 75
3 56 76 75
3 57 77 76
3 56 57 76
3 78 58 59
3 79 78 59
3 59 73 79
3 53 73 59
3 80 57 60
3 77 57 80
3 61 81 80
3 60 61 80
3 62 58 82
3 82 58 78
3 63 83 61
3 83 81 61
3 64 62 84
3 84 62 82
3 65 85 63
3 85 83 63
3 86 66 64
3 84 86 64
3 67 86 87
3 66 86 67
3 88 69 68
3 89 69 88
3 69 89 85
3 65 69 85
3 90 70 67
3 87 90 67
3 70 90 71
3 71 90 91
3 71 91 72
3 72 91 92
3 72 92 88
3 68 72 88
3 73 74 93
3 74 75 94
3 93 74 94
3 75 76 95
3 94 75 95
3 76 77 95
3 78 79 96
3 97 93 98
3 96 93 97
3 96 73 93
3 96 79 73
3 94 98 93
3 99 98 94
3 95 99 94
3 100 99 95
3 100 101 102
3 95 101 100
3 95 80 101
3 95 77 80
3 80 81 101
3 82 78 96
3 103 82 96
3 96 104 103
3 97 104 96
3 102 105 106
3 101 105 102
3 105 101 81
3 83 105 81
3 84 82 103
3 107 84 103
3 103 108 107
3 104 108 103
3 106 109 110
3 105 109 106
3 109 105 83
3 85 109 83
3 86 84 107
3 107 108 111
3 86 107 111
3 86 111 112
3 86 112 87
3 112 113 114
3 111 113 112
3 114 115 116
3 113 115 114
3 89 110 109
3 88 110 89
3 88 115 110
3 88 116 115
3 89 109 85
3 90 87 112
3 91 90 112
3 114 91 112
3 92 91 114
3 116 92 114
3 92 116 88
3 97 98 117
3 98 99 118
3 117 98 118
3 99 100 119
3 118 99 119
3 100 102 119
3 104 97 117
3 120 104 117
3 120 117 121
3 117 118 121
3 121 118 122
3 118 119 122
3 122 119 102
3 106 122 102
3 108 104 120
3 123 108 120
3 123 120 124
3 120 121 124
3 124 121 125
3 121 122 125
3 125 122 106
3 110 125 106
3 111 108 123
3 113 111 123
3 124 113 123
3 115 113 124
3 125 115 124
3 115 125 110
