ply
format ascii 1.0
comment VCGLIB generated
element vertex 126
property float x
property float y
property float z
element face 248
property list uchar int vertex_indices
end_header
-0.251710265874862671 0.303470194339752197 -0.546867668628692627
-0.185733795166015625 0.225523844361305237 -0.482284218072891235
-0.25826263427734375 0.233157560229301453 -0.427853107452392578
-0.177959442138671875 0.00353312981314957142 -0.427930504083633423
-0.256117492914199829 0.0178295392543077469 -0.349651187658309937
-0.187051132321357727 -0.220783710479736328 -0.435991913080215454
-0.288143157958984375 -0.212298080325126648 -0.363172858953475952
-0.175675705075263977 -0.203097417950630188 -0.357728809118270874
-0.0260302219539880753 0.313137143850326538 -0.501638114452362061
0.0152727765962481499 0.203729107975959778 -0.486957550048828125
0.0282351169735193253 -0.0347616858780384064 -0.482415527105331421
0.0134874982759356499 -0.265629559755325317 -0.427415221929550171
0.0259424839168787003 -0.265429764986038208 -0.321223407983779907
0.206595107913017273 0.281816303730010986 -0.440306514501571655
0.208624526858329773 0.174669638276100159 -0.465790420770645142
0.2425537109375 -0.0601430982351303101 -0.446838527917861938
0.227939605712890625 -0.280100345611572266 -0.380472511053085327
0.202504470944404602 -0.408320039510726929 -0.359480381011962891
0.301605224609375 0.170947670936584473 -0.421724468469619751
0.351923614740371704 -0.0675732269883155823 -0.399904727935791016
0.337289184331893921 -0.290078938007354736 -0.34598270058631897
-0.44551849365234375 0.408160924911499023 -0.328412681818008423
-0.38753509521484375 0.269674032926559448 -0.322174072265625
-0.463151305913925171 0.30884435772895813 -0.264079570770263672
-0.416819244623184204 0.0386116877198219299 -0.282441616058349609
-0.442169189453125 0.0809422135353088379 -0.180253505706787109
-0.382785797119140625 -0.169382676482200623 -0.226284191012382507
-0.367776244878768921 -0.135406017303466797 -0.120031513273715973
-0.356884002685546875 -0.243559524416923523 -0.105086326599121094
-0.286507934331893921 0.591121792793273926 -0.551500618457794189
-0.342858642339706421 0.503969252109527588 -0.623073577880859375
-0.346768707036972046 0.551696360111236572 -0.416486889123916626
-0.18025970458984375 -0.239832282066345215 -0.0602540969848632812
-0.150819137692451477 -0.155795082449913025 -0.158306121826171875
-0.10419464111328125 -0.160067230463027954 -0.0443571396172046661
-0.070097602903842926 0.529797732830047607 -0.436342716217041016
-0.104952491819858551 0.490744352340698242 -0.511473953723907471
0.00840886402875185013 -0.28957328200340271 -0.155009746551513672
-0.00444666529074311256 -0.356457114219665527 -0.0838664397597312927
0.13901519775390625 0.482106417417526245 -0.300307124853134155
0.155270889401435852 0.443447798490524292 -0.387584060430526733
0.183582305908203125 -0.467988938093185425 -0.165906116366386414
0.222714737057685852 -0.415405362844467163 -0.0565346069633960724
0.218204498291015625 0.414326936006546021 -0.251143455505371094
0.373783111572265625 0.299954086542129517 -0.20265515148639679
0.36940765380859375 0.188089251518249512 -0.275541305541992188
0.374605804681777954 -0.0431276410818099976 -0.228125259280204773
0.448279052972793579 -0.260735303163528442 -0.204569816589355469
0.439072936773300171 -0.343265771865844727 -0.088677726686000824
0.306377410888671875 -0.474080592393875122 -0.0578544922173023224
0.335849761962890625 0.193286731839179993 -0.177874729037284851
0.434411376714706421 -0.0151980696246027946 -0.142078712582588196
0.471037536859512329 -0.234711512923240662 -0.102118015289306641
-0.349035888910293579 0.492722392082214355 -0.125494644045829773
-0.352063506841659546 0.377594202756881714 -0.0915217399597167969
-0.340693145990371704 0.156510636210441589 0.00238196062855422497
-0.355218261480331421 -0.0707406476140022278 0.0899707451462745667
-0.404178619384765625 -0.178382575511932373 0.109576545655727386
-0.241354629397392273 0.671099185943603516 -0.233890369534492493
-0.322152465581893921 0.671160280704498291 -0.192731544375419617
-0.246119186282157898 -0.204799175262451172 0.150962352752685547
-0.189778640866279602 -0.27148592472076416 0.122450985014438629
-0.086991630494594574 0.513743102550506592 -0.223433971405029297
-0.0349566154181957245 -0.418796747922897339 0.131808757781982422
0.117407478392124176 0.553418219089508057 -0.124344028532505035
0.184647873044013977 -0.427226752042770386 0.161891460418701172
0.232931777834892273 0.488069295883178711 -0.0423626899719238281
0.283107757568359375 0.304762005805969238 0.000186125442269258201
0.409615844488143921 -0.293051064014434814 0.130781009793281555
0.23450469970703125 -0.337452411651611328 0.112319625914096832
0.324253082275390625 0.21674753725528717 0.0374692268669605255
0.310549408197402954 -0.00478483457118272781 0.050635654479265213
0.340915679931640625 -0.222919836640357971 0.0792031288146972656
-0.401269286870956421 0.543398261070251465 0.092428840696811676
-0.413150787353515625 0.430784463882446289 0.129147842526435852
-0.41240692138671875 0.213106453418731689 0.215194538235664368
-0.452192932367324829 0.000122113982797600329 0.273847579956054688
-0.387521117925643921 -0.0795507058501243591 0.311748981475830078
-0.202425643801689148 0.470725446939468384 -0.103194557130336761
-0.290823608636856079 0.50823897123336792 -0.0291260089725255966
-0.246435806155204773 -0.169156655669212341 0.359270572662353516
-0.256282806396484375 -0.289836376905441284 0.328616291284561157
-0.0166956577450037003 0.53997117280960083 -0.0156030654907226562
-0.052623748779296875 -0.392361849546432495 0.365235656499862671
0.169172927737236023 0.568084776401519775 0.0511145591735839844
0.158166244626045227 -0.302798718214035034 0.350129127502441406
0.124445594847202301 0.48128780722618103 0.138290092349052429
0.221628829836845398 0.345861554145812988 0.217794105410575867
0.379358917474746704 -0.201545000076293945 0.323647350072860718
0.26142120361328125 -0.335664272308349609 0.335954189300537109
0.212688446044921875 0.241786286234855652 0.231269195675849915
0.238512679934501648 0.0275289062410593033 0.258178085088729858
0.270056396722793579 -0.186892449855804443 0.286317199468612671
-0.397268921136856079 0.451292484998703003 0.225428417325019836
-0.436215728521347046 0.236337140202522278 0.313148975372314453
-0.45459747314453125 0.0121082104742527008 0.376008659601211548
-0.195428207516670227 0.404917240142822266 -0.0247743930667638779
-0.145231887698173523 0.380941629409790039 0.145416423678398132
-0.22039031982421875 0.401915907859802246 0.271695762872695923
-0.263441711664199829 0.208415687084197998 0.39844512939453125
-0.320012420415878296 0.00636703148484230042 0.495973497629165649
-0.275708526372909546 -0.262679725885391235 0.437825202941894531
-0.240927383303642273 -0.107353247702121735 0.516171514987945557
0.0004730224609375 0.422118395566940308 0.0386288948357105255
0.017612457275390625 0.240801408886909485 0.0733826979994773865
-0.0589663200080394745 -0.324081659317016602 0.454844623804092407
-0.0123125715181231499 -0.118386678397655487 0.510095775127410889
0.237782791256904602 0.464738130569458008 0.0775256156921386719
0.214467361569404602 0.321122258901596069 0.179109886288642883
0.204224899411201477 -0.280973285436630249 0.396555572748184204
0.199132278561592102 -0.191038265824317932 0.568022429943084717
0.304163604974746704 0.219368055462837219 0.212314918637275696
0.167115524411201477 0.267310738563537598 0.323484569787979126
0.329653412103652954 0.0352545753121376038 0.350768089294433594
0.152118682861328125 0.0400804579257965088 0.323154598474502563
0.280223846435546875 -0.0919824838638305664 0.5457724928855896
0.274668365716934204 -0.138209834694862366 0.381128937005996704
-0.146406814455986023 0.337089627981185913 0.243106052279472351
-0.15879058837890625 0.201414525508880615 0.422201484441757202
-0.213629409670829773 0.00484692677855491638 0.531466186046600342
0.000200907394173555076 0.1940193772315979 0.180232048034667969
0.0408910103142261505 0.10998573899269104 0.381015300750732422
0.00153986609075218439 -0.0586035549640655518 0.529214799404144287
0.207368209958076477 0.223066449165344238 0.248980522155761719
0.230595901608467102 0.00563833536580204964 0.321058273315429688
0.196918487548828125 -0.152641460299491882 0.48572540283203125
3 0 1 2
3 1 3 4
3 2 1 4
3 3 5 6
3 4 3 6
3 5 7 6
3 0 8 9
3 1 0 9
3 9 10 1
3 1 10 3
3 10 11 3
3 3 11 5
3 5 11 12
3 7 5 12
3 8 13 14
3 9 8 14
3 14 15 9
3 9 15 10
3 15 16 10
3 10 16 11
3 11 16 17
3 12 11 17
3 14 13 18
3 15 14 18
3 19 15 18
3 16 15 19
3 20 16 19
3 16 20 17
3 21 22 23
3 22 24 25
3 23 22 25
3 24 26 27
3 25 24 27
3 26 28 27
3 29 30 31
3 2 22 21
3 0 2 21
3 0 21 31
3 0 31 30
3 4 22 2
3 24 22 4
3 6 24 4
3 26 24 6
3 26 32 28
3 6 32 26
3 6 33 32
3 6 7 33
3 33 34 32
3 29 35 36
3 30 29 36
3 36 0 30
3 8 0 36
3 12 33 7
3 37 33 12
3 33 37 38
3 34 33 38
3 35 39 40
3 36 35 40
3 40 8 36
3 13 8 40
3 17 37 12
3 41 37 17
3 37 41 42
3 38 37 42
3 40 39 43
3 43 44 45
3 40 43 45
3 40 45 18
3 40 18 13
3 18 46 19
3 45 46 18
3 19 47 20
3 46 47 19
3 48 49 41
3 47 48 41
3 47 41 17
3 47 17 20
3 41 49 42
3 45 44 50
3 46 45 50
3 51 46 50
3 47 46 51
3 52 47 51
3 47 52 48
3 53 21 23
3 54 53 23
3 23 25 54
3 25 55 54
3 25 27 55
3 27 56 55
3 28 57 56
3 27 28 56
3 58 29 31
3 59 58 31
3 31 53 59
3 21 53 31
3 60 28 32
3 57 28 60
3 34 61 60
3 32 34 60
3 35 29 62
3 62 29 58
3 38 63 34
3 63 61 34
3 39 35 64
3 64 35 62
3 42 65 38
3 65 63 38
3 66 43 39
3 64 66 39
3 44 66 67
3 43 66 44
3 68 49 48
3 69 49 68
3 49 69 65
3 42 49 65
3 70 50 44
3 67 70 44
3 50 70 51
3 51 70 71
3 51 71 52
3 52 71 72
3 52 72 68
3 48 52 68
3 73 53 54
3 74 73 54
3 54 55 74
3 55 75 74
3 55 56 75
3 56 76 75
3 57 77 76
3 56 57 76
3 78 58 59
3 79 78 59
3 59 73 79
3 53 73 59
3 80 57 60
3 77 57 80
3 61 81 80
3 60 61 80
3 62 58 82
3 82 58 78
3 63 83 61
3 83 81 61
3 64 62 84
3 84 62 82
3 65 85 63
3 85 83 63
3 86 66 64
3 84 86 64
3 67 86 87
3 66 86 67
3 88 69 68
3 89 69 88
3 69 89 85
3 65 69 85
3 90 70 67
3 87 90 67
3 70 90 71
3 71 90 91
3 71 91 72
3 72 91 92
3 72 92 88
3 68 72 88
3 73 74 93
3 74 75 94
3 93 74 94
3 75 76 95
3 94 75 95
3 76 77 95
3 78 79 96
3 97 93 98
3 96 93 97
3 96 73 93
3 96 79 73
3 94 98 93
3 99 98 94
3 95 99 94
3 100 99 95
3 100 101 102
3 95 101 100
3 95 80 101
3 95 77 80
3 80 81 101
3 82 78 96
3 103 82 96
3 96 104 103
3 97 104 96
3 102 105 106
3 101 105 102
3 105 101 81
3 83 105 81
3 84 82 103
3 107 84 103
3 103 108 107
3 104 108 103
3 106 109 110
3 105 109 106
3 109 105 83
3 85 109 83
3 86 84 107
3 107 108 111
3 86 107 111
3 86 111 112
3 86 112 87
3 112 113 114
3 111 113 112
3 114 115 116
3 113 115 114
3 89 110 109
3 88 110 89
3 88 115 110
3 88 116 115
3 89 109 85
3 90 87 112
3 91 90 112
3 114 91 112
3 92 91 114
3 116 92 114
3 92 116 88
3 97 98 117
3 98 99 118
3 117 98 118
3 99 100 119
3 118 99 119
3 100 102 119
3 104 97 117
3 120 104 117
3 120 117 121
3 117 118 121
3 121 118 122
3 118 119 122
3 122 119 102
3 106 122 102
3 108 104 120
3 123 108 120
3 123 120 124
3 120 121 124
3 124 121 125
3 121 122 125
3 125 122 106
3 110 125 106
3 111 108 123
3 113 111 123
3 124 113 123
3 115 113 124
3 125 115 124
3 115 125 110
