ply
format ascii 1.0
comment VCGLIB generated
element vertex 126
property float x
property float y
property float z
element face 248
property list uchar int vertex_indices
end_header
-0.146603584289550781 0.281981557607650757 -0.538193762302398682
-0.120536483824253082 0.22282293438911438 -0.452823430299758911
-0.232488304376602173 0.195723012089729309 -0.466150820255279541
-0.117815330624580383 0.03239484503865242 -0.334556490182876587
-0.173234939575195312 -0.0139652220532298088 -0.416836529970169067
-0.176777839660644531 -0.184223994612693787 -0.273302584886550903
-0.149482086300849915 -0.219852522015571594 -0.377206772565841675
-0.201109245419502258 -0.297366321086883545 -0.295502543449401855
0.0712712556123733521 0.283018201589584351 -0.458743542432785034
0.095049537718296051 0.183302164077758789 -0.496226340532302856
0.0684277191758155823 -0.0338094048202037811 -0.44329601526260376
0.019933382049202919 -0.236756518483161926 -0.369876623153686523
0.00374635052867233753 -0.340437859296798706 -0.355760455131530762
0.266973167657852173 0.268718749284744263 -0.347719192504882812
0.25677838921546936 0.161302089691162109 -0.339497923851013184
0.283520996570587158 -0.053921874612569809 -0.387568265199661255
0.23297785222530365 -0.251091510057449341 -0.298620045185089111
0.218079879879951477 -0.346818000078201294 -0.275277286767959595
0.371193885803222656 0.178283378481864929 -0.334036946296691895
0.315217971801757812 -0.0219463743269443512 -0.289473921060562134
0.281758308410644531 -0.234000504016876221 -0.213812187314033508
-0.32120862603187561 0.298516303300857544 -0.239150509238243103
-0.352538406848907471 0.196432009339332581 -0.326293110847473145
-0.400611549615859985 0.213523715734481812 -0.221572712063789368
-0.219093948602676392 0.0277103595435619354 -0.250783950090408325
-0.272289901971817017 0.0375358946621417999 -0.156567290425300598
-0.253721863031387329 -0.197969913482666016 -0.226588040590286255
-0.184092521667480469 -0.188210278749465942 -0.106283619999885559
-0.304633766412734985 -0.294288218021392822 -0.112270310521125793
-0.0851901322603225708 0.200056731700897217 -0.277370214462280273
-0.096747078001499176 0.247776776552200317 -0.377561032772064209
-0.151009559631347656 0.279759049415588379 -0.252392470836639404
-0.165220886468887329 -0.396970063447952271 -0.105724923312664032
-0.233631119132041931 -0.43937528133392334 -0.212351277470588684
-0.163551956415176392 -0.374726653099060059 -0.201708868145942688
-0.0284099560230970383 0.413377255201339722 -0.266119629144668579
0.0428247451782226562 0.414338082075119019 -0.352676302194595337
-0.0589640922844409943 -0.308175057172775269 -0.188259080052375793
-0.0361712761223316193 -0.288900583982467651 -0.0951850339770317078
0.141135841608047485 0.275300592184066772 -0.269501388072967529
0.196634918451309204 0.335184484720230103 -0.197887405753135681
0.141938522458076477 -0.380371034145355225 -0.11420924961566925
0.18048444390296936 -0.301628798246383667 -0.164071917533874512
0.194508224725723267 0.198598489165306091 -0.228202924132347107
0.35823822021484375 0.243432879447937012 -0.225118979811668396
0.468006104230880737 0.163090482354164124 -0.185429051518440247
0.337796211242675781 -0.00384856341406702995 -0.112295344471931458
0.432079613208770752 -0.222468242049217224 -0.128754764795303345
0.379503548145294189 -0.237322941422462463 -0.239569336175918579
0.273346900939941406 -0.347434759140014648 -0.177752375602722168
0.408064514398574829 0.240041106939315796 -0.132325679063796997
0.451745957136154175 0.0284404736012220383 -0.100915029644966125
0.467688232660293579 -0.162991136312484741 -0.224213987588882446
-0.299855858087539673 0.304081946611404419 -0.00745395803824067116
-0.410574257373809814 0.282983630895614624 0.010725855827331543
-0.242824539542198181 0.0905653461813926697 0.0594786778092384338
-0.292003929615020752 -0.127587839961051941 0.0787015706300735474
-0.218644127249717712 -0.204190060496330261 0.0819007530808448792
-0.0602769814431667328 0.165868744254112244 -0.0501102171838283539
-0.161089897155761719 0.214252382516860962 -0.0312755480408668518
-0.068785347044467926 -0.2279510498046875 0.0111420946195721626
-0.173924759030342102 -0.18502257764339447 -0.0525516234338283539
-0.0371821708977222443 0.395086228847503662 -0.0439687557518482208
-0.0479427948594093323 -0.11024019867181778 -0.227996900677680969
0.10801474004983902 0.220282644033432007 -0.0544915571808815002
0.185178115963935852 -0.140741914510726929 -0.25165557861328125
0.141483932733535767 0.319392740726470947 -0.0348546095192432404
0.313140541315078735 0.317203551530838013 -0.023133356124162674
0.343926727771759033 -0.14485621452331543 -0.0184293575584888458
0.217941597104072571 -0.160928189754486084 -0.141008093953132629
0.226155906915664673 0.239334076642990112 -0.0120687475427985191
0.236028030514717102 0.0178293213248252869 -0.0804177895188331604
0.285976707935333252 -0.207949921488761902 -0.0764646083116531372
-0.280001938343048096 0.317063242197036743 0.216250017285346985
-0.388677895069122314 0.323507040739059448 0.255216360092163086
-0.37152448296546936 0.0892559736967086792 0.273358404636383057
-0.220243126153945923 -0.0740877836942672729 0.284627467393875122
-0.0987990647554397583 -0.108461707830429077 0.236526921391487122
-0.0606330223381519318 0.139762312173843384 0.172712594270706177
-0.163987472653388977 0.205373004078865051 0.174189209938049316
0.00435988092795014381 -0.0241066422313451767 0.0943014994263648987
-0.0350300446152687073 -0.115848913788795471 0.0933263674378395081
0.0100564956665039062 0.370176911354064941 0.171974495053291321
0.0748904496431350708 -0.0244704782962799072 -0.0684265270829200745
0.175760582089424133 0.251193344593048096 0.13473530113697052
0.1984548419713974 0.0691617727279663086 -0.251812726259231567
0.118713371455669403 0.338299483060836792 0.179796814918518066
0.290525734424591064 0.280777662992477417 0.192601069808006287
0.461535423994064331 -0.0279824919998645782 -0.155692487955093384
0.323357582092285156 0.0447161085903644562 -0.245796635746955872
0.304783165454864502 0.176524564623832703 0.185346603393554688
0.23994763195514679 -0.0117945130914449692 0.146870404481887817
0.398766189813613892 -0.0398515686392784119 -0.0359984226524829865
-0.338397026062011719 0.282760113477706909 0.352946102619171143
-0.286593437194824219 0.0884255543351173401 0.325113534927368164
-0.236304596066474915 -0.0854616016149520874 0.18652796745300293
-0.0732707977294921875 0.167711973190307617 0.277387291193008423
-0.0798161774873733521 0.362246423959732056 0.251825630664825439
-0.149774551391601562 0.314640849828720093 0.352687418460845947
-0.12273947149515152 0.0713499560952186584 0.421946436166763306
-0.120593704283237457 -0.106188870966434479 0.321834862232208252
0.0489886589348316193 -0.16853034496307373 0.132375359535217285
-0.038417179137468338 -0.055632464587688446 0.224047094583511353
-0.00286897015757858753 0.369041889905929565 0.286672890186309814
0.0491253510117530823 0.335342049598693848 0.112046398222446442
0.183347061276435852 -0.0491813234984874725 0.00323812151327729225
0.101122848689556122 0.0561806149780750275 0.129878118634223938
0.0605853386223316193 0.248842954635620117 0.0907331705093383789
0.217539459466934204 0.195493221282958984 0.157196521759033203
0.229789406061172485 0.108349308371543884 -0.14947354793548584
0.279313713312149048 0.0608441196382045746 0.0309574585407972336
0.263392120599746704 0.0557451173663139343 0.146521925926208496
0.351621299982070923 0.201221153140068054 0.0957981720566749573
0.245699867606163025 -0.0209823809564113617 -0.0656908750534057617
0.181035995483398438 0.070122845470905304 0.0838112831115722656
0.379037827253341675 -0.0809992328286170959 0.0950215235352516174
0.383286446332931519 0.0517746619880199432 -0.0391238927841186523
-0.0188779830932617188 0.276919901371002197 0.325576663017272949
-0.115618698298931122 0.0662934780120849609 0.324304103851318359
0.00872770883142948151 -0.128138884902000427 0.329270541667938232
0.010053316131234169 0.229777365922927856 0.108891524374485016
0.008087158203125 0.00562234828248620033 0.158968359231948853
0.179646804928779602 0.0239406321197748184 0.26662367582321167
0.170065551996231079 0.0910766944289207458 0.170584321022033691
0.16598859429359436 -0.0127153126522898674 -0.000715057016350328922
0.339256912469863892 0.0110693834722042084 0.131289154291152954
3 0 1 2
3 1 3 4
3 2 1 4
3 3 5 6
3 4 3 6
3 5 7 6
3 0 8 9
3 1 0 9
3 9 10 1
3 1 10 3
3 10 11 3
3 3 11 5
3 5 11 12
3 7 5 12
3 8 13 14
3 9 8 14
3 14 15 9
3 9 15 10
3 15 16 10
3 10 16 11
3 11 16 17
3 12 11 17
3 14 13 18
3 15 14 18
3 19 15 18
3 16 15 19
3 20 16 19
3 16 20 17
3 21 22 23
3 22 24 25
3 23 22 25
3 24 26 27
3 25 24 27
3 26 28 27
3 29 30 31
3 2 22 21
3 0 2 21
3 0 21 31
3 0 31 30
3 4 22 2
3 24 22 4
3 6 24 4
3 26 24 6
3 26 32 28
3 6 32 26
3 6 33 32
3 6 7 33
3 33 34 32
3 29 35 36
3 30 29 36
3 36 0 30
3 8 0 36
3 12 33 7
3 37 33 12
3 33 37 38
3 34 33 38
3 35 39 40
3 36 35 40
3 40 8 36
3 13 8 40
3 17 37 12
3 41 37 17
3 37 41 42
3 38 37 42
3 40 39 43
3 43 44 45
3 40 43 45
3 40 45 18
3 40 18 13
3 18 46 19
3 45 46 18
3 19 47 20
3 46 47 19
3 48 49 41
3 47 48 41
3 47 41 17
3 47 17 20
3 41 49 42
3 45 44 50
3 46 45 50
3 51 46 50
3 47 46 51
3 52 47 51
3 47 52 48
3 53 21 23
3 54 53 23
3 23 25 54
3 25 55 54
3 25 27 55
3 27 56 55
3 28 57 56
3 27 28 56
3 58 29 31
3 59 58 31
3 31 53 59
3 21 53 31
3 60 28 32
3 57 28 60
3 34 61 60
3 32 34 60
3 35 29 62
3 62 29 58
3 38 63 34
3 63 61 34
3 39 35 64
3 64 35 62
3 42 65 38
3 65 63 38
3 66 43 39
3 64 66 39
3 44 66 67
3 43 66 44
3 68 49 48
3 69 49 68
3 49 69 65
3 42 49 65
3 70 50 44
3 67 70 44
3 50 70 51
3 51 70 71
3 51 71 52
3 52 71 72
3 52 72 68
3 48 52 68
3 73 53 54
3 74 73 54
3 54 55 74
3 55 75 74
3 55 56 75
3 56 76 75
3 57 77 76
3 56 57 76
3 78 58 59
3 79 78 59
3 59 73 79
3 53 73 59
3 80 57 60
3 77 57 80
3 61 81 80
3 60 61 80
3 62 58 82
3 82 58 78
3 63 83 61
3 83 81 61
3 64 62 84
3 84 62 82
3 65 85 63
3 85 83 63
3 86 66 64
3 84 86 64
3 67 86 87
3 66 86 67
3 88 69 68
3 89 69 88
3 69 89 85
3 65 69 85
3 90 70 67
3 87 90 67
3 70 90 71
3 71 90 91
3 71 91 72
3 72 91 92
3 72 92 88
3 68 72 88
3 73 74 93
3 74 75 94
3 93 74 94
3 75 76 95
3 94 75 95
3 76 77 95
3 78 79 96
3 97 93 98
3 96 93 97
3 96 73 93
3 96 79 73
3 94 98 93
3 99 98 94
3 95 99 94
3 100 99 95
3 100 101 102
3 95 101 100
3 95 80 101
3 95 77 80
3 80 81 101
3 82 78 96
3 103 82 96
3 96 104 103
3 97 104 96
3 102 105 106
3 101 105 102
3 105 101 81
3 83 105 81
3 84 82 103
3 107 84 103
3 103 108 107
3 104 108 103
3 106 109 110
3 105 109 106
3 109 105 83
3 85 109 83
3 86 84 107
3 107 108 111
3 86 107 111
3 86 111 112
3 86 112 87
3 112 113 114
3 111 113 112
3 114 115 116
3 113 115 114
3 89 110 109
3 88 110 89
3 88 115 110
3 88 116 115
3 89 109 85
3 90 87 112
3 91 90 112
3 114 91 112
3 92 91 114
3 116 92 114
3 92 116 88
3 97 98 117
3 98 99 118
3 117 98 118
3 99 100 119
3 118 99 119
3 100 102 119
3 104 97 117
3 120 104 117
3 120 117 121
3 117 118 121
3 121 118 122
3 118 119 122
3 122 119 102
3 106 122 102
3 108 104 120
3 123 108 120
3 123 120 124
3 120 121 124
3 124 121 125
3 121 122 125
3 125 122 106
3 110 125 106
3 111 108 123
3 113 111 123
3 124 113 123
3 115 113 124
3 125 115 124
3 115 125 110
