ply
format ascii 1.0
comment VCGLIB generated
element vertex 126
property float x
property float y
property float z
element face 248
property list uchar int vertex_indices
end_header
-0.132066294550895691 0.152774691581726074 -0.480009615421295166
-0.170712113380432129 0.0731742605566978455 -0.544669806957244873
-0.262049168348312378 0.132361546158790588 -0.477434515953063965
-0.260103672742843628 -0.118380196392536163 -0.468235224485397339
-0.326724439859390259 -0.0666915848851203918 -0.401615381240844727
-0.122062981128692627 -0.141489773988723755 -0.294724434614181519
-0.158829331398010254 -0.0473924800753593445 -0.250594079494476318
-0.113553270697593689 -0.154021486639976501 -0.185466185212135315
0.085267290472984314 0.101065367460250854 -0.491007864475250244
0.0478289686143398285 -0.00293629569932818413 -0.471741259098052979
-0.06924409419298172 -0.159679532051086426 -0.353703707456588745
-0.140398472547531128 -0.369002014398574829 -0.315459698438644409
-0.075853787362575531 -0.370493203401565552 -0.223983809351921082
0.20000457763671875 0.111420080065727234 -0.302417278289794922
0.152923882007598877 0.00929987151175737381 -0.268393129110336304
0.116637304425239563 -0.217378541827201843 -0.24519425630569458
0.0463280342519283295 -0.434963434934616089 -0.228820398449897766
0.0614855848252773285 -0.522803843021392822 -0.306340187788009644
0.16567230224609375 -0.00865634623914957047 -0.373697847127914429
0.110651165246963501 -0.227302968502044678 -0.354956120252609253
0.149085715413093567 -0.427114099264144897 -0.248423188924789429
-0.26456981897354126 0.239662587642669678 -0.217938974499702454
-0.340965002775192261 0.201216340065002441 -0.321583747863769531
-0.373342961072921753 0.232347875833511353 -0.221038609743118286
-0.436441004276275635 0.00277896341867744923 -0.278134346008300781
-0.465897798538208008 0.0385846681892871857 -0.170556768774986267
-0.289525270462036133 -0.157215550541877747 -0.196230053901672363
-0.349898725748062134 -0.142284676432609558 -0.104901798069477081
-0.295900195837020874 -0.221610382199287415 -0.0656927600502967834
-0.073823198676109314 0.0962097197771072388 -0.197179317474365234
-0.076649010181427002 0.0914572253823280334 -0.311369895935058594
-0.170095890760421753 0.0851749405264854431 -0.206919088959693909
-0.176594078540802002 -0.154879331588745117 0.0561697669327259064
-0.064220428466796875 -0.161329120397567749 -0.0212220046669244766
-0.150112748146057129 -0.222754135727882385 -0.0193355642259120941
0.12536562979221344 0.145282745361328125 -0.247047141194343567
0.112664155662059784 0.196752950549125671 -0.339608579874038696
0.038890838623046875 -0.336781352758407593 -0.0925570279359817505
-0.0130462655797600746 -0.40434756875038147 -0.0247975513339042664
0.301820337772369385 0.263420820236206055 -0.279424369335174561
0.327739715576171875 0.218192502856254578 -0.376878529787063599
0.090318828821182251 -0.547591328620910645 -0.133010789752006531
0.148551657795906067 -0.552587151527404785 -0.042344607412815094
0.367218911647796631 0.187379151582717896 -0.245624333620071411
0.373400181531906128 0.0145675837993621826 -0.236246600747108459
0.297709256410598755 -0.076766185462474823 -0.284674733877182007
0.213354557752609253 -0.25366520881652832 -0.21574699878692627
0.320261448621749878 -0.426606863737106323 -0.306665718555450439
0.345516204833984375 -0.451065599918365479 -0.170189782977104187
0.230426803231239319 -0.569591224193572998 -0.112884782254695892
0.263560384511947632 -1.27103558043017983e-05 -0.203155934810638428
0.317811250686645508 -0.203187867999076843 -0.211509197950363159
0.255712360143661499 -0.411748111248016357 -0.218420043587684631
-0.240908414125442505 0.27312055230140686 -0.00597623689100146294
-0.351729780435562134 0.275526940822601318 -0.00886201858520507812
-0.45619085431098938 0.0900145545601844788 0.0636397898197174072
-0.416654467582702637 -0.141513139009475708 0.119867146015167236
-0.38077428936958313 -0.241157829761505127 0.148985028266906738
-0.0396244339644908905 0.116614565253257751 0.0292024258524179459
-0.0824884325265884399 0.181764289736747742 -0.0348852239549160004
-0.235063120722770691 -0.341882973909378052 0.182076603174209595
-0.130769297480583191 -0.361284464597702026 0.156544551253318787
0.165192529559135437 0.162797257304191589 -0.0186711102724075317
0.0915307328104972839 -0.304602771997451782 0.157036229968070984
0.381444811820983887 0.165850311517715454 -0.0784057900309562683
0.27907446026802063 -0.401921868324279785 0.0627077594399452209
0.258384138345718384 0.192192256450653076 -0.0591610036790370941
0.268187910318374634 0.036824394017457962 -0.0291743651032447815
0.311198621988296509 -0.319343149662017822 0.00730404490604996681
0.17152346670627594 -0.407583922147750854 0.0231194496154785156
0.364974111318588257 0.024137033149600029 0.00624051503837108612
0.317781895399093628 -0.197051748633384705 0.0113111278042197227
0.222399786114692688 -0.392114937305450439 0.000964311475399881601
-0.228968411684036255 0.226758331060409546 0.20650772750377655
-0.24823702871799469 0.319662779569625854 0.166220486164093018
-0.33866003155708313 0.133744075894355774 0.24540296196937561
-0.358183950185775757 -0.0659055039286613464 0.32115587592124939
-0.325836777687072754 -0.162603363394737244 0.33769756555557251
0.00304002035409212112 0.322437494993209839 0.131787523627281189
-0.10098237544298172 0.327225834131240845 0.139408111572265625
-0.178956255316734314 -0.25480806827545166 0.370360910892486572
-0.075175948441028595 -0.283373832702636719 0.369154512882232666
0.201787218451499939 0.238218545913696289 0.189805775880813599
0.094174608588218689 -0.445832312107086182 0.331023126840591431
0.416071981191635132 0.29466933012008667 0.100242726504802704
0.246775716543197632 -0.572467148303985596 0.203177571296691895
0.302080005407333374 0.29978826642036438 0.113305680453777313
0.274803459644317627 0.136239767074584961 0.171747028827667236
0.418018937110900879 -0.461653292179107666 0.142647132277488708
0.292308539152145386 -0.583594024181365967 0.099095568060874939
0.273585706949234009 0.0371750220656394958 0.21705077588558197
0.295801907777786255 -0.183302566409111023 0.237371563911437988
0.398650556802749634 -0.34956786036491394 0.131169840693473816
-0.299343705177307129 0.350365340709686279 0.248605474829673767
-0.310187727212905884 0.152448564767837524 0.342291682958602905
-0.319695115089416504 -0.0578086115419864655 0.417434990406036377
-0.00270843505859375 0.40443691611289978 0.194925904273986816
-0.0362895093858242035 0.248585313558578491 0.248558714985847473
-0.150021776556968689 0.272400528192520142 0.160338878631591797
-0.25739818811416626 0.0750708281993865967 0.179508104920387268
-0.231423020362854004 -0.126420840620994568 0.264914423227310181
-0.15683688223361969 -0.365530878305435181 0.365044534206390381
-0.194841533899307251 -0.255725055932998657 0.239805087447166443
0.177872002124786377 0.32587587833404541 0.143473520874977112
0.145935654640197754 0.149468019604682922 0.197730064392089844
0.009441375732421875 -0.46996656060218811 0.240477234125137329
-0.0488413311541080475 -0.376941382884979248 0.101495340466499329
0.386490464210510254 0.220814719796180725 0.169473245739936829
0.311286658048629761 0.114527270197868347 0.0346877053380012512
0.156778201460838318 -0.596484780311584473 0.140463754534721375
0.115247875452041626 -0.445771187543869019 0.249984279274940491
0.337160557508468628 -0.0136103332042694092 0.0397546477615833282
0.379725247621536255 0.0534284934401512146 0.20523439347743988
0.287531346082687378 -0.207680955529212952 0.148289754986763
0.39434581995010376 -0.151382908225059509 0.280716240406036377
0.211077481508255005 -0.366646170616149902 0.299885272979736328
0.380070030689239502 -0.370795249938964844 0.238853424787521362
-0.102968953549861908 0.205958336591720581 0.233849197626113892
-0.166920885443687439 0.0186163540929555893 0.162660524249076843
-0.216915428638458252 -0.185430049896240234 0.161932989954948425
0.078785240650177002 0.141314581036567688 0.108040481805801392
0.0269640423357486725 -0.0627119541168212891 0.116354502737522125
-0.0152103723958134651 -0.270488351583480835 0.0872551500797271729
0.277391582727432251 0.0438122600317001343 0.10596330463886261
0.21314181387424469 -0.145847246050834656 0.18564353883266449
0.11196870356798172 -0.326914280652999878 0.272142529487609863
3 0 1 2
3 1 3 4
3 2 1 4
3 3 5 6
3 4 3 6
3 5 7 6
3 0 8 9
3 1 0 9
3 9 10 1
3 1 10 3
3 10 11 3
3 3 11 5
3 5 11 12
3 7 5 12
3 8 13 14
3 9 8 14
3 14 15 9
3 9 15 10
3 15 16 10
3 10 16 11
3 11 16 17
3 12 11 17
3 14 13 18
3 15 14 18
3 19 15 18
3 16 15 19
3 20 16 19
3 16 20 17
3 21 22 23
3 22 24 25
3 23 22 25
3 24 26 27
3 25 24 27
3 26 28 27
3 29 30 31
3 2 22 21
3 0 2 21
3 0 21 31
3 0 31 30
3 4 22 2
3 24 22 4
3 6 24 4
3 26 24 6
3 26 32 28
3 6 32 26
3 6 33 32
3 6 7 33
3 33 34 32
3 29 35 36
3 30 29 36
3 36 0 30
3 8 0 36
3 12 33 7
3 37 33 12
3 33 37 38
3 34 33 38
3 35 39 40
3 36 35 40
3 40 8 36
3 13 8 40
3 17 37 12
3 41 37 17
3 37 41 42
3 38 37 42
3 40 39 43
3 43 44 45
3 40 43 45
3 40 45 18
3 40 18 13
3 18 46 19
3 45 46 18
3 19 47 20
3 46 47 19
3 48 49 41
3 47 48 41
3 47 41 17
3 47 17 20
3 41 49 42
3 45 44 50
3 46 45 50
3 51 46 50
3 47 46 51
3 52 47 51
3 47 52 48
3 53 21 23
3 54 53 23
3 23 25 54
3 25 55 54
3 25 27 55
3 27 56 55
3 28 57 56
3 27 28 56
3 58 29 31
3 59 58 31
3 31 53 59
3 21 53 31
3 60 28 32
3 57 28 60
3 34 61 60
3 32 34 60
3 35 29 62
3 62 29 58
3 38 63 34
3 63 61 34
3 39 35 64
3 64 35 62
3 42 65 38
3 65 63 38
3 66 43 39
3 64 66 39
3 44 66 67
3 43 66 44
3 68 49 48
3 69 49 68
3 49 69 65
3 42 49 65
3 70 50 44
3 67 70 44
3 50 70 51
3 51 70 71
3 51 71 52
3 52 71 72
3 52 72 68
3 48 52 68
3 73 53 54
3 74 73 54
3 54 55 74
3 55 75 74
3 55 56 75
3 56 76 75
3 57 77 76
3 56 57 76
3 78 58 59
3 79 78 59
3 59 73 79
3 53 73 59
3 80 57 60
3 77 57 80
3 61 81 80
3 60 61 80
3 62 58 82
3 82 58 78
3 63 83 61
3 83 81 61
3 64 62 84
3 84 62 82
3 65 85 63
3 85 83 63
3 86 66 64
3 84 86 64
3 67 86 87
3 66 86 67
3 88 69 68
3 89 69 88
3 69 89 85
3 65 69 85
3 90 70 67
3 87 90 67
3 70 90 71
3 71 90 91
3 71 91 72
3 72 91 92
3 72 92 88
3 68 72 88
3 73 74 93
3 74 75 94
3 93 74 94
3 75 76 95
3 94 75 95
3 76 77 95
3 78 79 96
3 97 93 98
3 96 93 97
3 96 73 93
3 96 79 73
3 94 98 93
3 99 98 94
3 95 99 94
3 100 99 95
3 100 101 102
3 95 101 100
3 95 80 101
3 95 77 80
3 80 81 101
3 82 78 96
3 103 82 96
3 96 104 103
3 97 104 96
3 102 105 106
3 101 105 102
3 105 101 81
3 83 105 81
3 84 82 103
3 107 84 103
3 103 108 107
3 104 108 103
3 106 109 110
3 105 109 106
3 109 105 83
3 85 109 83
3 86 84 107
3 107 108 111
3 86 107 111
3 86 111 112
3 86 112 87
3 112 113 114
3 111 113 112
3 114 115 116
3 113 115 114
3 89 110 109
3 88 110 89
3 88 115 110
3 88 116 115
3 89 109 85
3 90 87 112
3 91 90 112
3 114 91 112
3 92 91 114
3 116 92 114
3 92 116 88
3 97 98 117
3 98 99 118
3 117 98 118
3 99 100 119
3 118 99 119
3 100 102 119
3 104 97 117
3 120 104 117
3 120 117 121
3 117 118 121
3 121 118 122
3 118 119 122
3 122 119 102
3 106 122 102
3 108 104 120
3 123 108 120
3 123 120 124
3 120 121 124
3 124 121 125
3 121 122 125
3 125 122 106
3 110 125 106
3 111 108 123
3 113 111 123
3 124 113 123
3 115 113 124
3 125 115 124
3 115 125 110
