ply
format ascii 1.0
comment VCGLIB generated
element vertex 126
property float x
property float y
property float z
element face 248
property list uchar int vertex_indices
end_header
-0.164897099137306213 0.324029862880706787 -0.399911761283874512
-0.159958437085151672 0.241661593317985535 -0.472946673631668091
-0.253839492797851562 0.221490561962127686 -0.415003985166549683
-0.149474829435348511 0.0239049959927797318 -0.514538109302520752
-0.215384617447853088 0.00101061002351343632 -0.429755806922912598
-0.078754425048828125 -0.0877623185515403748 -0.333673775196075439
-0.0402300693094730377 0.00485601462423801422 -0.28775554895401001
-0.0126538956537842751 -0.123743556439876556 -0.252380877733230591
-0.0294767115265130997 0.208677381277084351 -0.262117564678192139
-0.00757626118138432503 0.136726737022399902 -0.347415030002593994
0.0759220123291015625 0.0330220162868499756 -0.533072948455810547
0.0809015557169914246 -0.18378022313117981 -0.462608844041824341
0.0738443657755851746 -0.272985726594924927 -0.394681692123413086
0.144047051668167114 0.335047155618667603 -0.32831379771232605
0.181589126586914062 0.250587612390518188 -0.388669967651367188
0.284020572900772095 0.0583892501890659332 -0.440583735704421997
0.263445734977722168 -0.143369197845458984 -0.342759251594543457
0.293847501277923584 -0.24956086277961731 -0.347677826881408691
0.272908896207809448 0.287253022193908691 -0.338324666023254395
0.362371712923049927 0.0829670652747154236 -0.362408339977264404
0.372729986906051636 -0.138325884938240051 -0.329484432935714722
-0.410436898469924927 0.286405622959136963 -0.198246240615844727
-0.38142886757850647 0.18976534903049469 -0.292183846235275269
-0.359856754541397095 0.190963372588157654 -0.182310342788696289
-0.325134813785552979 -0.027453642338514328 -0.283431321382522583
-0.361818581819534302 -0.0339934229850769043 -0.190765008330345154
-0.144912183284759521 -0.0354946069419384003 -0.149399727582931519
-0.182545527815818787 -0.13801167905330658 -0.118209123611450195
-0.0955132097005844116 -0.131575748324394226 -0.0673070996999740601
-0.234406337141990662 0.506375670433044434 -0.192315578460693359
-0.199913308024406433 0.444297641515731812 -0.273469686508178711
-0.31764712929725647 0.438085258007049561 -0.200052261352539062
-0.026573454961180687 -0.281182140111923218 -0.148404493927955627
-0.146060675382614136 -0.234654530882835388 -0.20810110867023468
-0.0964873209595680237 -0.330091148614883423 -0.21603567898273468
-0.0897448435425758362 0.407489895820617676 -0.0519449375569820404
-0.0683103278279304504 0.329814791679382324 -0.130944937467575073
0.0493076890707015991 -0.33319389820098877 -0.228289023041725159
0.101856507360935211 -0.233178958296775818 -0.23890240490436554
0.0943456366658210754 0.520455777645111084 -0.110673569142818451
0.102695740759372711 0.456742316484451294 -0.202710121870040894
0.268205910921096802 -0.355042576789855957 -0.202877864241600037
0.261937558650970459 -0.308864384889602661 -0.101301334798336029
0.199391499161720276 0.49234357476234436 -0.111571215093135834
0.272591471672058105 0.327027857303619385 -0.122727669775485992
0.38692474365234375 0.316415965557098389 -0.201433554291725159
0.442078471183776855 0.101508915424346924 -0.20187889039516449
0.470899850130081177 -0.115746855735778809 -0.182066470384597778
0.450623393058776855 -0.196748003363609314 -0.0717583745718002319
0.298549115657806396 -0.224738150835037231 -0.162650004029273987
0.376635968685150146 0.314755946397781372 -0.0902705565094947815
0.345073431730270386 0.0997518450021743774 -0.148020640015602112
0.444598883390426636 -0.0869894996285438538 -0.0784388631582260132
-0.434243351221084595 0.302351981401443481 0.0258813593536615372
-0.437289655208587646 0.187427058815956116 0.0290976259857416153
-0.460071563720703125 -0.0506061799824237823 0.0047189849428832531
-0.301160812377929688 -0.240348219871520996 0.0277139469981193542
-0.205409184098243713 -0.277508169412612915 0.0234632845968008041
-0.296664923429489136 0.555306851863861084 0.0198616310954093933
-0.348163336515426636 0.457030534744262695 0.0213738847523927689
-0.103575848042964935 -0.408429771661758423 0.021567685529589653
-0.0189100001007318497 -0.445312231779098511 -0.0436467789113521576
-0.0823879241943359375 0.601906478404998779 0.0673752203583717346
0.183910638093948364 -0.347473680973052979 -0.0657664015889167786
0.135473519563674927 0.561393380165100098 0.108331441879272461
0.199460983276367188 -0.1571216881275177 0.0536712594330310822
0.200872421264648438 0.473813712596893311 0.11073572188615799
0.205813825130462646 0.295341998338699341 0.0901641175150871277
0.333611637353897095 -0.189962774515151978 0.120032347738742828
0.253898084163665771 -0.0740145444869995117 0.00267079891636967659
0.307994574308395386 0.267466694116592407 0.119240283966064453
0.20259721577167511 0.0929291993379592896 0.02685546875
0.279564172029495239 -0.112214751541614532 0.0702636614441871643
-0.423235207796096802 0.293160736560821533 0.252158820629119873
-0.45251166820526123 0.18124757707118988 0.24607965350151062
-0.329377323389053345 0.0465634986758232117 0.121226482093334198
-0.131192892789840698 -0.0916061550378799438 0.134075716137886047
-0.0425543114542961121 -0.183914899826049805 0.141331642866134644
-0.254884451627731323 0.526699662208557129 0.240262746810913086
-0.345313221216201782 0.460677891969680786 0.2441607266664505
0.0534125752747058868 -0.317379474639892578 0.152022674679756165
-0.0329371877014636993 -0.272839277982711792 0.104732856154441833
-0.0755241960287094116 0.409779161214828491 0.184949472546577454
0.184698104858398438 -0.297410368919372559 0.151495933532714844
0.0848048105835914612 0.484688460826873779 0.311273008584976196
0.396404266357421875 -0.22196565568447113 0.137157276272773743
0.192286625504493713 0.451426476240158081 0.330945611000061035
0.286852985620498657 0.301974236965179443 0.299415946006774902
0.518158495426177979 -0.0628496035933494568 0.132067888975143433
0.435365945100784302 -0.190312653779983521 0.0371153019368648529
0.231019437313079834 0.210647508502006531 0.325142830610275269
0.362456202507019043 0.180169776082038879 0.153031691908836365
0.440784186124801636 -0.0246596559882164001 0.202614590525627136
-0.370685040950775146 0.186439797282218933 0.323011547327041626
-0.221199318766593933 0.0927447974681854248 0.149831950664520264
-0.214296072721481323 -0.156663641333580017 0.102994956076145172
-0.253923952579498291 0.486278295516967773 0.3480948805809021
-0.207368314266204834 0.357826024293899536 0.465309977531433105
-0.281534194946289062 0.223021149635314941 0.463832467794418335
-0.150132864713668823 0.0816887170076370239 0.349888116121292114
-0.0945949554443359375 -0.0101835411041975021 0.192038506269454956
0.0501469224691390991 -0.206844210624694824 0.0577827878296375275
-0.0941971391439437866 -0.157247975468635559 0.170792341232299805
-0.127186089754104614 0.350508511066436768 0.250792175531387329
0.00189099996350705624 0.353114694356918335 0.39415326714515686
0.181659966707229614 -0.219757735729217529 0.232224643230438232
0.0964873209595680237 -0.0621571652591228485 0.238153085112571716
0.0891208648681640625 0.387296974658966064 0.276314526796340942
0.119728364050388336 0.220216557383537292 0.243725776672363281
0.353785932064056396 -0.11886991560459137 0.122650355100631714
0.223955437541007996 -0.00580881861969828606 0.0683135688304901123
0.180067330598831177 0.130817830562591553 0.320409536361694336
0.315008163452148438 0.214339137077331543 0.402744859457015991
0.266929358243942261 0.208296850323677063 0.128267496824264526
0.431815564632415771 0.227162912487983704 0.212491929531097412
0.258286356925964355 -0.00137365877162665129 0.205811098217964172
0.410891950130462646 0.0263121090829372406 0.112038515508174896
-0.233289182186126709 0.285672366619110107 0.400569289922714233
-0.179097309708595276 0.118822596967220306 0.281056672334671021
-0.0791154578328132629 -0.104195863008499146 0.261480480432510376
-0.0182451531291007996 0.252796322107315063 0.439644038677215576
0.0199168063700199127 0.180212244391441345 0.234798029065132141
0.0891235917806625366 -0.00970386713743209839 0.139238148927688599
0.0761849582195281982 0.122715577483177185 0.276561141014099121
0.243105217814445496 0.250235408544540405 0.230039358139038086
0.294794350862503052 0.0571846030652523041 0.126345157623291016
3 0 1 2
3 1 3 4
3 2 1 4
3 3 5 6
3 4 3 6
3 5 7 6
3 0 8 9
3 1 0 9
3 9 10 1
3 1 10 3
3 10 11 3
3 3 11 5
3 5 11 12
3 7 5 12
3 8 13 14
3 9 8 14
3 14 15 9
3 9 15 10
3 15 16 10
3 10 16 11
3 11 16 17
3 12 11 17
3 14 13 18
3 15 14 18
3 19 15 18
3 16 15 19
3 20 16 19
3 16 20 17
3 21 22 23
3 22 24 25
3 23 22 25
3 24 26 27
3 25 24 27
3 26 28 27
3 29 30 31
3 2 22 21
3 0 2 21
3 0 21 31
3 0 31 30
3 4 22 2
3 24 22 4
3 6 24 4
3 26 24 6
3 26 32 28
3 6 32 26
3 6 33 32
3 6 7 33
3 33 34 32
3 29 35 36
3 30 29 36
3 36 0 30
3 8 0 36
3 12 33 7
3 37 33 12
3 33 37 38
3 34 33 38
3 35 39 40
3 36 35 40
3 40 8 36
3 13 8 40
3 17 37 12
3 41 37 17
3 37 41 42
3 38 37 42
3 40 39 43
3 43 44 45
3 40 43 45
3 40 45 18
3 40 18 13
3 18 46 19
3 45 46 18
3 19 47 20
3 46 47 19
3 48 49 41
3 47 48 41
3 47 41 17
3 47 17 20
3 41 49 42
3 45 44 50
3 46 45 50
3 51 46 50
3 47 46 51
3 52 47 51
3 47 52 48
3 53 21 23
3 54 53 23
3 23 25 54
3 25 55 54
3 25 27 55
3 27 56 55
3 28 57 56
3 27 28 56
3 58 29 31
3 59 58 31
3 31 53 59
3 21 53 31
3 60 28 32
3 57 28 60
3 34 61 60
3 32 34 60
3 35 29 62
3 62 29 58
3 38 63 34
3 63 61 34
3 39 35 64
3 64 35 62
3 42 65 38
3 65 63 38
3 66 43 39
3 64 66 39
3 44 66 67
3 43 66 44
3 68 49 48
3 69 49 68
3 49 69 65
3 42 49 65
3 70 50 44
3 67 70 44
3 50 70 51
3 51 70 71
3 51 71 52
3 52 71 72
3 52 72 68
3 48 52 68
3 73 53 54
3 74 73 54
3 54 55 74
3 55 75 74
3 55 56 75
3 56 76 75
3 57 77 76
3 56 57 76
3 78 58 59
3 79 78 59
3 59 73 79
3 53 73 59
3 80 57 60
3 77 57 80
3 61 81 80
3 60 61 80
3 62 58 82
3 82 58 78
3 63 83 61
3 83 81 61
3 64 62 84
3 84 62 82
3 65 85 63
3 85 83 63
3 86 66 64
3 84 86 64
3 67 86 87
3 66 86 67
3 88 69 68
3 89 69 88
3 69 89 85
3 65 69 85
3 90 70 67
3 87 90 67
3 70 90 71
3 71 90 91
3 71 91 72
3 72 91 92
3 72 92 88
3 68 72 88
3 73 74 93
3 74 75 94
3 93 74 94
3 75 76 95
3 94 75 95
3 76 77 95
3 78 79 96
3 97 93 98
3 96 93 97
3 96 73 93
3 96 79 73
3 94 98 93
3 99 98 94
3 95 99 94
3 100 99 95
3 100 101 102
3 95 101 100
3 95 80 101
3 95 77 80
3 80 81 101
3 82 78 96
3 103 82 96
3 96 104 103
3 97 104 96
3 102 105 106
3 101 105 102
3 105 101 81
3 83 105 81
3 84 82 103
3 107 84 103
3 103 108 107
3 104 108 103
3 106 109 110
3 105 109 106
3 109 105 83
3 85 109 83
3 86 84 107
3 107 108 111
3 86 107 111
3 86 111 112
3 86 112 87
3 112 113 114
3 111 113 112
3 114 115 116
3 113 115 114
3 89 110 109
3 88 110 89
3 88 115 110
3 88 116 115
3 89 109 85
3 90 87 112
3 91 90 112
3 114 91 112
3 92 91 114
3 116 92 114
3 92 116 88
3 97 98 117
3 98 99 118
3 117 98 118
3 99 100 119
3 118 99 119
3 100 102 119
3 104 97 117
3 120 104 117
3 120 117 121
3 117 118 121
3 121 118 122
3 118 119 122
3 122 119 102
3 106 122 102
3 108 104 120
3 123 108 120
3 123 120 124
3 120 121 124
3 124 121 125
3 121 122 125
3 125 122 106
3 110 125 106
3 111 108 123
3 113 111 123
3 124 113 123
3 115 113 124
3 125 115 124
3 115 125 110
