ply
format ascii 1.0
comment VCGLIB generated
element vertex 126
property float x
property float y
property float z
element face 248
property list uchar int vertex_indices
end_header
-0.23996734619140625 -0.0192556176334619522 -0.415201514959335327
-0.260656982660293579 -0.150718852877616882 -0.380339771509170532
-0.295129150152206421 -0.0562346279621124268 -0.3175811767578125
-0.286835998296737671 -0.208184912800788879 -0.151301383972167969
-0.382036834955215454 -0.194114744663238525 -0.163617610931396484
-0.267236083745956421 -0.239716693758964539 0.0884617194533348083
-0.391768127679824829 -0.213539078831672668 0.0629537925124168396
-0.351056426763534546 -0.255217373371124268 0.182800129055976868
-0.01154327392578125 -0.024333365261554718 -0.411499351263046265
-0.0346552543342113495 -0.113641224801540375 -0.34472241997718811
-0.068943023681640625 -0.25500914454460144 -0.176528617739677429
-0.122035980224609375 -0.393995851278305054 -0.0139506654813885689
-0.094683326780796051 -0.367875367403030396 0.0820412635803222656
0.204596206545829773 -0.00440307892858982086 -0.352126270532608032
0.192109420895576477 -0.112477153539657593 -0.316045135259628296
0.15847015380859375 -0.303749173879623413 -0.196809455752372742
0.096510566771030426 -0.459264755249023438 -0.0349429436028003693
0.0962371826171875 -0.461757779121398926 0.0492766685783863068
0.169581100344657898 -0.0543057732284069061 -0.225457191467285156
0.200533553957939148 -0.244408547878265381 -0.112167991697788239
0.227652236819267273 -0.459225505590438843 -0.0191828403621912003
-0.395388275384902954 0.201412320137023926 -0.259470611810684204
-0.276147216558456421 0.0924774408340454102 -0.222966030240058899
-0.365641266107559204 0.117628395557403564 -0.20598602294921875
-0.374457031488418579 -0.0364825762808322906 -0.103832721710205078
-0.388865143060684204 -0.0218247193843126297 -0.0198558177798986435
-0.252490997314453125 -0.128313168883323669 0.0854558944702148438
-0.327341705560684204 -0.202464938163757324 0.0786285400390625
-0.305759429931640625 -0.261397182941436768 0.153716877102851868
-0.215490981936454773 0.278457164764404297 -0.423950046300888062
-0.223115280270576477 0.16417481005191803 -0.475277423858642578
-0.313017517328262329 0.247176602482795715 -0.399702072143554688
-0.362898498773574829 -0.101441949605941772 0.30924496054649353
-0.199321746826171875 -0.196813046932220459 0.278473228216171265
-0.268395751714706421 -0.113602787256240845 0.224475070834159851
-0.0400174446403980255 0.224220409989356995 -0.293184131383895874
-0.0148671464994549751 0.149187549948692322 -0.373617172241210938
-0.06890106201171875 -0.443880677223205566 0.235156700015068054
-0.047107696533203125 -0.282483190298080444 0.132887840270996094
0.178592681884765625 0.278982430696487427 -0.307372093200683594
0.198374435305595398 0.179370418190956116 -0.35771527886390686
0.15549468994140625 -0.570598006248474121 0.197907924652099609
0.124211631715297699 -0.473625063896179199 0.125278949737548828
0.264911651611328125 0.242222785949707031 -0.25259050726890564
0.34499359130859375 0.110364519059658051 -0.164624691009521484
0.291428893804550171 0.00691566383466124535 -0.103473342955112457
0.375766754150390625 -0.209140658378601074 -0.103563308715820312
0.367764800786972046 -0.385193824768066406 0.0517422370612621307
0.366039276123046875 -0.382188081741333008 0.186310291290283203
0.2534027099609375 -0.513785362243652344 0.136924102902412415
0.400094360113143921 0.0458796769380569458 -0.097676597535610199
0.315358489751815796 -0.151047930121421814 -0.0364090614020824432
0.380124419927597046 -0.293370872735977173 0.117732368409633636
-0.283049255609512329 0.34923398494720459 -0.133947685360908508
-0.272113800048828125 0.270629197359085083 -0.0642066001892089844
-0.253009796142578125 0.105465643107891083 0.0839158669114112854
-0.258024841547012329 -0.0288858059793710709 0.259503990411758423
-0.315265655517578125 -0.0803518891334533691 0.238557025790214539
-0.250849395990371704 0.450957149267196655 -0.270439773797988892
-0.357049316167831421 0.430569916963577271 -0.273549556732177734
-0.165454864501953125 -0.079845719039440155 0.335250377655029297
-0.146776840090751648 -0.190255224704742432 0.301116794347763062
-0.0443166084587574005 0.424241036176681519 -0.198070049285888672
-0.0371233634650707245 -0.364411830902099609 0.345320075750350952
0.158551529049873352 0.400240659713745117 -0.119070053100585938
0.186481475830078125 -0.357902497053146362 0.301477104425430298
0.212186172604560852 0.338654637336730957 -0.0588332824409008026
0.31649017333984375 0.227809205651283264 0.0290621127933263779
0.185162857174873352 -0.281838268041610718 0.28107103705406189
0.249179840087890625 -0.430343776941299438 0.361219555139541626
0.30020904541015625 0.136700436472892761 0.0838492736220359802
0.170060470700263977 -0.0513642728328704834 0.095409393310546875
0.171136215329170227 -0.264714360237121582 0.173840358853340149
-0.413726806640625 0.454119443893432617 0.0149280233308672905
-0.43576812744140625 0.360466271638870239 0.0635779723525047302
-0.441150665283203125 0.202233970165252686 0.208191230893135071
-0.495981842279434204 0.0160557758063077927 0.341416835784912109
-0.456536620855331421 -0.070588819682598114 0.42647901177406311
-0.245023086667060852 0.269000977277755737 -0.132653400301933289
-0.289986938238143921 0.355311274528503418 -0.0794426575303077698
-0.315209716558456421 -0.15345059335231781 0.501749515533447266
-0.220864608883857727 -0.137285485863685608 0.498205333948135376
-0.113066352903842926 0.373190075159072876 0.00946791935712099075
0.0111109418794512749 -0.233024656772613525 0.527695953845977783
0.075632728636264801 0.25329744815826416 0.0416696853935718536
0.212015792727470398 -0.191338464617729187 0.430301040410995483
0.0369059257209300995 0.200634613633155823 -0.0429690666496753693
0.109320320188999176 0.244692280888557434 0.115416683256626129
0.387799590826034546 -0.191299319267272949 0.287471622228622437
0.30754852294921875 -0.225768864154815674 0.446546882390975952
0.1495513916015625 0.238081768155097961 0.217298984527587891
0.196139022707939148 0.0339934676885604858 0.300274044275283813
0.328458160161972046 -0.122094817459583282 0.220927402377128601
-0.43207550048828125 0.417473822832107544 0.153934478759765625
-0.457651764154434204 0.243662133812904358 0.294785171747207642
-0.44727325439453125 0.0639642253518104553 0.429625511169433594
-0.299817413091659546 0.218035027384757996 -0.058005649596452713
-0.200823470950126648 0.334857255220413208 0.0418512038886547089
-0.250340789556503296 0.382738471031188965 0.166853591799736023
-0.285338073968887329 0.278108596801757812 0.353964328765869141
-0.32308197021484375 0.126646623015403748 0.524378716945648193
-0.203988388180732727 -0.118215285241603851 0.552106320858001709
-0.231062576174736023 0.0442065037786960602 0.585955440998077393
-0.161610916256904602 0.308810651302337646 0.0874060019850730896
-0.04168701171875 0.174420163035392761 0.0426106452941894531
0.0100123090669512749 -0.136513978242874146 0.573814332485198975
-0.037990570068359375 -0.00413339817896485329 0.477537006139755249
0.00641759252175688744 0.164296656847000122 0.079046882688999176
0.125994369387626648 0.286025941371917725 0.123327888548374176
0.222746536135673523 -0.12678159773349762 0.512959301471710205
0.175154373049736023 0.01016265619546175 0.410007327795028687
0.218608856201171875 0.254933714866638184 0.219527557492256165
0.0410359688103199005 0.218829229474067688 0.233695819973945618
0.259059906005859375 0.0589973628520965576 0.326882034540176392
0.100557960569858551 -1.03008560472517274e-05 0.262354224920272827
0.242341354489326477 -0.0887337252497673035 0.491192907094955444
0.2786712646484375 -0.118439234793186188 0.321091324090957642
-0.232564285397529602 0.295398920774459839 0.140222862362861633
-0.237592056393623352 0.184962615370750427 0.331873416900634766
-0.216608688235282898 0.143035888671875 0.538428068161010742
-0.0812835693359375 0.144508868455886841 0.139029979705810547
-0.00607808446511626244 0.184530511498451233 0.334747165441513062
0.000115712486149277538 0.0830584093928337097 0.527208983898162842
0.112256370484828949 0.233009353280067444 0.217149898409843445
0.160355880856513977 0.0289374496787786484 0.294561237096786499
0.208346053957939148 0.00739167630672454834 0.518661439418792725
3 0 1 2
3 1 3 4
3 2 1 4
3 3 5 6
3 4 3 6
3 5 7 6
3 0 8 9
3 1 0 9
3 9 10 1
3 1 10 3
3 10 11 3
3 3 11 5
3 5 11 12
3 7 5 12
3 8 13 14
3 9 8 14
3 14 15 9
3 9 15 10
3 15 16 10
3 10 16 11
3 11 16 17
3 12 11 17
3 14 13 18
3 15 14 18
3 19 15 18
3 16 15 19
3 20 16 19
3 16 20 17
3 21 22 23
3 22 24 25
3 23 22 25
3 24 26 27
3 25 24 27
3 26 28 27
3 29 30 31
3 2 22 21
3 0 2 21
3 0 21 31
3 0 31 30
3 4 22 2
3 24 22 4
3 6 24 4
3 26 24 6
3 26 32 28
3 6 32 26
3 6 33 32
3 6 7 33
3 33 34 32
3 29 35 36
3 30 29 36
3 36 0 30
3 8 0 36
3 12 33 7
3 37 33 12
3 33 37 38
3 34 33 38
3 35 39 40
3 36 35 40
3 40 8 36
3 13 8 40
3 17 37 12
3 41 37 17
3 37 41 42
3 38 37 42
3 40 39 43
3 43 44 45
3 40 43 45
3 40 45 18
3 40 18 13
3 18 46 19
3 45 46 18
3 19 47 20
3 46 47 19
3 48 49 41
3 47 48 41
3 47 41 17
3 47 17 20
3 41 49 42
3 45 44 50
3 46 45 50
3 51 46 50
3 47 46 51
3 52 47 51
3 47 52 48
3 53 21 23
3 54 53 23
3 23 25 54
3 25 55 54
3 25 27 55
3 27 56 55
3 28 57 56
3 27 28 56
3 58 29 31
3 59 58 31
3 31 53 59
3 21 53 31
3 60 28 32
3 57 28 60
3 34 61 60
3 32 34 60
3 35 29 62
3 62 29 58
3 38 63 34
3 63 61 34
3 39 35 64
3 64 35 62
3 42 65 38
3 65 63 38
3 66 43 39
3 64 66 39
3 44 66 67
3 43 66 44
3 68 49 48
3 69 49 68
3 49 69 65
3 42 49 65
3 70 50 44
3 67 70 44
3 50 70 51
3 51 70 71
3 51 71 52
3 52 71 72
3 52 72 68
3 48 52 68
3 73 53 54
3 74 73 54
3 54 55 74
3 55 75 74
3 55 56 75
3 56 76 75
3 57 77 76
3 56 57 76
3 78 58 59
3 79 78 59
3 59 73 79
3 53 73 59
3 80 57 60
3 77 57 80
3 61 81 80
3 60 61 80
3 62 58 82
3 82 58 78
3 63 83 61
3 83 81 61
3 64 62 84
3 84 62 82
3 65 85 63
3 85 83 63
3 86 66 64
3 84 86 64
3 67 86 87
3 66 86 67
3 88 69 68
3 89 69 88
3 69 89 85
3 65 69 85
3 90 70 67
3 87 90 67
3 70 90 71
3 71 90 91
3 71 91 72
3 72 91 92
3 72 92 88
3 68 72 88
3 73 74 93
3 74 75 94
3 93 74 94
3 75 76 95
3 94 75 95
3 76 77 95
3 78 79 96
3 97 93 98
3 96 93 97
3 96 73 93
3 96 79 73
3 94 98 93
3 99 98 94
3 95 99 94
3 100 99 95
3 100 101 102
3 95 101 100
3 95 80 101
3 95 77 80
3 80 81 101
3 82 78 96
3 103 82 96
3 96 104 103
3 97 104 96
3 102 105 106
3 101 105 102
3 105 101 81
3 83 105 81
3 84 82 103
3 107 84 103
3 103 108 107
3 104 108 103
3 106 109 110
3 105 109 106
3 109 105 83
3 85 109 83
3 86 84 107
3 107 108 111
3 86 107 111
3 86 111 112
3 86 112 87
3 112 113 114
3 111 113 112
3 114 115 116
3 113 115 114
3 89 110 109
3 88 110 89
3 88 115 110
3 88 116 115
3 89 109 85
3 90 87 112
3 91 90 112
3 114 91 112
3 92 91 114
3 116 92 114
3 92 116 88
3 97 98 117
3 98 99 118
3 117 98 118
3 99 100 119
3 118 99 119
3 100 102 119
3 104 97 117
3 120 104 117
3 120 117 121
3 117 118 121
3 121 118 122
3 118 119 122
3 122 119 102
3 106 122 102
3 108 104 120
3 123 108 120
3 123 120 124
3 120 121 124
3 124 121 125
3 121 122 125
3 125 122 106
3 110 125 106
3 111 108 123
3 113 111 123
3 124 113 123
3 115 113 124
3 125 115 124
3 115 125 110
