ply
format ascii 1.0
comment VCGLIB generated
element vertex 126
property float x
property float y
property float z
element face 248
property list uchar int vertex_indices
end_header
-0.230066940188407898 0.210779488086700439 -0.44536939263343811
-0.227937057614326477 0.124100416898727417 -0.529715240001678467
-0.333225250244140625 0.126330778002738953 -0.472480624914169312
-0.214497879147529602 0.0034295243676751852 -0.341423362493515015
-0.287811279296875 -0.0690704211592674255 -0.376818031072616577
-0.302399963140487671 -0.186297908425331116 -0.262504100799560547
-0.201852157711982727 -0.234622672200202942 -0.261120796203613281
-0.29062652587890625 -0.229585632681846619 -0.160949230194091797
-0.011028289794921875 0.186204478144645691 -0.398965507745742798
-0.0178820285946130753 0.0844848155975341797 -0.445274025201797485
-0.061832427978515625 -0.134240716695785522 -0.434000641107559204
-0.09586334228515625 -0.276750475168228149 -0.263743072748184204
-0.144718170166015625 -0.376184552907943726 -0.257109791040420532
0.19940948486328125 0.143233925104141235 -0.330795913934707642
0.190914154052734375 0.0413498245179653168 -0.371274799108505249
0.132010146975517273 -0.17008112370967865 -0.326492637395858765
0.08744049072265625 -0.389873504638671875 -0.309327125549316406
0.05338287353515625 -0.476666361093521118 -0.245561599731445312
0.274991363286972046 0.0324469506740570068 -0.295497894287109375
0.226987197995185852 -0.185323849320411682 -0.271442413330078125
0.091097511351108551 -0.35041537880897522 -0.205882713198661804
-0.463511139154434204 0.224632814526557922 -0.241320610046386719
-0.470638275146484375 0.14363233745098114 -0.351575523614883423
-0.52819061279296875 0.142958551645278931 -0.252243191003799438
-0.349115997552871704 0.00683229370042681694 -0.220957592129707336
-0.437346130609512329 -0.0635389760136604309 -0.209838226437568665
-0.375406891107559204 -0.215388104319572449 -0.208064869046211243
-0.26856231689453125 -0.222917556762695312 -0.193253040313720703
-0.302201598882675171 -0.327624082565307617 -0.202070236206054688
-0.256189972162246704 0.389962524175643921 -0.213591575622558594
-0.245431259274482727 0.337543517351150513 -0.311737388372421265
-0.360822051763534546 0.366534441709518433 -0.243700340390205383
-0.339650481939315796 -0.475479364395141602 -0.111340202391147614
-0.328520447015762329 -0.354747861623764038 -0.0437968559563159943
-0.33892059326171875 -0.376441717147827148 -0.154177352786064148
-0.0535672493278980255 0.3124123215675354 -0.170754596590995789
-0.02313232421875 0.322294056415557861 -0.279015064239501953
-0.116099037230014801 -0.291766881942749023 -0.0977498665452003479
-0.122483573853969574 -0.353781431913375854 -0.181790351867675781
0.163022354245185852 0.330632895231246948 -0.120613254606723785
0.189188644289970398 0.282381355762481689 -0.21682564914226532
-0.0927734375 -0.509444773197174072 -0.146859481930732727
-0.097904205322265625 -0.530613601207733154 -0.0398149490356445312
0.256000518798828125 0.280274897813796997 -0.0941840782761573792
0.357008606195449829 0.13756890594959259 -0.0479483604431152344
0.360515594482421875 0.0284727439284324646 -0.133127212524414062
0.300755828619003296 -0.185817018151283264 -0.106839977204799652
0.13323211669921875 -0.317828178405761719 -0.034638088196516037
0.147701263427734375 -0.454213649034500122 -0.0242950115352869034
0.00586700439453125 -0.559435188770294189 -0.0624648742377758026
0.38167572021484375 0.0348734147846698761 -0.0226545333862304688
0.33866119384765625 -0.182917341589927673 -0.00115919113159179688
0.226118728518486023 -0.375375658273696899 -0.0227739010006189346
-0.588654816150665283 0.310231417417526245 -0.0710794106125831604
-0.579577147960662842 0.184272527694702148 -0.0383178405463695526
-0.38738250732421875 0.0450270324945449829 -0.0439759902656078339
-0.396291106939315796 -0.182784542441368103 -0.0255878772586584091
-0.293390899896621704 -0.21440906822681427 -0.0148517293855547905
-0.310700744390487671 0.368919640779495239 0.00256395339965820312
-0.420912414789199829 0.396315485239028931 -0.0209048595279455185
-0.3020477294921875 -0.370528101921081543 0.082014717161655426
-0.204480484127998352 -0.403454750776290894 0.0379710197448730469
-0.104821525514125824 0.288207143545150757 0.0482055358588695526
-0.118801116943359375 -0.210888192057609558 0.00155115127563476562
0.106678009033203125 0.351102739572525024 0.0987048149108886719
-0.0135676069185137749 -0.382222384214401245 0.108165420591831207
0.206181839108467102 0.308607041835784912 0.125547885894775391
0.321247100830078125 0.177675411105155945 0.171610355377197266
0.0193646755069494247 -0.322638213634490967 0.104131698608398438
-0.0462799072265625 -0.4830608069896698 0.144337013363838196
0.305257171392440796 0.0693575218319892883 0.187246158719062805
0.228216812014579773 -0.141662299633026123 0.193073585629463196
0.071918487548828125 -0.234457015991210938 0.0637884140014648438
-0.591611206531524658 0.30871543288230896 0.172777339816093445
-0.537762939929962158 0.226781532168388367 0.180428192019462585
-0.570161163806915283 0.0491876862943172455 0.0309650097042322159
-0.400137573480606079 -0.0327985696494579315 0.125300243496894836
-0.306173950433731079 -0.0949766561388969421 0.169799163937568665
-0.36418914794921875 0.342382520437240601 0.223578453063964844
-0.438874572515487671 0.419739514589309692 0.205081149935722351
-0.201922103762626648 -0.254456579685211182 0.24506203830242157
-0.109083808958530426 -0.327037602663040161 0.232406452298164368
-0.157413482666015625 0.287663966417312622 0.264876991510391235
0.053218841552734375 -0.214415833353996277 0.11763366311788559
0.0449371337890625 0.365719407796859741 0.314813286066055298
-0.00484212255105376244 -0.293841749429702759 0.308290004730224609
0.145008087158203125 0.32804340124130249 0.344518184661865234
0.258424133062362671 0.191302582621574402 0.386643409729003906
0.184736892580986023 -0.354705095291137695 0.2533416748046875
0.0286051426082849503 -0.394311040639877319 0.336729526519775391
0.179047897458076477 0.117269366979598999 0.368222564458847046
0.068536125123500824 -0.0784003958106040955 0.343278259038925171
0.095597587525844574 -0.292713373899459839 0.276937961578369141
-0.608128845691680908 0.184388384222984314 0.255304485559463501
-0.563012421131134033 -0.00148743938188999891 0.138376399874687195
-0.397808074951171875 -0.131886601448059082 0.0732393264770507812
-0.377951294183731079 0.381545215845108032 0.331089019775390625
-0.415659576654434204 0.245278611779212952 0.445195525884628296
-0.520023345947265625 0.15292184054851532 0.400492191314697266
-0.438602447509765625 -0.00831522513180971146 0.30621066689491272
-0.271372467279434204 -0.0513186044991016388 0.175252914428710938
-0.119303382933139801 -0.282933324575424194 0.135170459747314453
-0.239215850830078125 -0.168419182300567627 0.0970080718398094177
-0.1882476806640625 0.275632530450820923 0.365393966436386108
-0.215173080563545227 0.230670809745788574 0.532829999923706055
0.0334345512092113495 -0.131944820284843445 0.193981006741523743
-0.12451171875 -0.142412647604942322 0.285134941339492798
0.0215136203914880753 0.338956117630004883 0.417484134435653687
0.00737253809347748756 0.234564721584320068 0.569231092929840088
0.10805511474609375 -0.283739864826202393 0.347133010625839233
0.04410552978515625 -0.135635092854499817 0.432486385107040405
0.039432525634765625 0.0980640724301338196 0.534454882144927979
0.209649398922920227 0.09191102534532547 0.471182018518447876
-0.014801025390625 -0.0360782928764820099 0.358068466186523438
0.161468505859375 -0.0526055954396724701 0.306608825922012329
-0.014678955078125 -0.257486134767532349 0.411373943090438843
0.15848541259765625 -0.270685464143753052 0.362212330102920532
-0.430029541254043579 0.136067956686019897 0.47937813401222229
-0.318410247564315796 0.0226200278848409653 0.33754238486289978
-0.295224517583847046 -0.158477917313575745 0.197533443570137024
-0.218285873532295227 0.121929503977298737 0.57397538423538208
-0.172583267092704773 -0.0719254612922668457 0.478631496429443359
-0.131955459713935852 -0.240999743342399597 0.322532325983047485
-0.0210787449032068253 0.182229712605476379 0.488238722085952759
0.0367825813591480255 -0.0201607905328273773 0.451322406530380249
0.08990478515625 -0.228259459137916565 0.39964643120765686
3 0 1 2
3 1 3 4
3 2 1 4
3 3 5 6
3 4 3 6
3 5 7 6
3 0 8 9
3 1 0 9
3 9 10 1
3 1 10 3
3 10 11 3
3 3 11 5
3 5 11 12
3 7 5 12
3 8 13 14
3 9 8 14
3 14 15 9
3 9 15 10
3 15 16 10
3 10 16 11
3 11 16 17
3 12 11 17
3 14 13 18
3 15 14 18
3 19 15 18
3 16 15 19
3 20 16 19
3 16 20 17
3 21 22 23
3 22 24 25
3 23 22 25
3 24 26 27
3 25 24 27
3 26 28 27
3 29 30 31
3 2 22 21
3 0 2 21
3 0 21 31
3 0 31 30
3 4 22 2
3 24 22 4
3 6 24 4
3 26 24 6
3 26 32 28
3 6 32 26
3 6 33 32
3 6 7 33
3 33 34 32
3 29 35 36
3 30 29 36
3 36 0 30
3 8 0 36
3 12 33 7
3 37 33 12
3 33 37 38
3 34 33 38
3 35 39 40
3 36 35 40
3 40 8 36
3 13 8 40
3 17 37 12
3 41 37 17
3 37 41 42
3 38 37 42
3 40 39 43
3 43 44 45
3 40 43 45
3 40 45 18
3 40 18 13
3 18 46 19
3 45 46 18
3 19 47 20
3 46 47 19
3 48 49 41
3 47 48 41
3 47 41 17
3 47 17 20
3 41 49 42
3 45 44 50
3 46 45 50
3 51 46 50
3 47 46 51
3 52 47 51
3 47 52 48
3 53 21 23
3 54 53 23
3 23 25 54
3 25 55 54
3 25 27 55
3 27 56 55
3 28 57 56
3 27 28 56
3 58 29 31
3 59 58 31
3 31 53 59
3 21 53 31
3 60 28 32
3 57 28 60
3 34 61 60
3 32 34 60
3 35 29 62
3 62 29 58
3 38 63 34
3 63 61 34
3 39 35 64
3 64 35 62
3 42 65 38
3 65 63 38
3 66 43 39
3 64 66 39
3 44 66 67
3 43 66 44
3 68 49 48
3 69 49 68
3 49 69 65
3 42 49 65
3 70 50 44
3 67 70 44
3 50 70 51
3 51 70 71
3 51 71 52
3 52 71 72
3 52 72 68
3 48 52 68
3 73 53 54
3 74 73 54
3 54 55 74
3 55 75 74
3 55 56 75
3 56 76 75
3 57 77 76
3 56 57 76
3 78 58 59
3 79 78 59
3 59 73 79
3 53 73 59
3 80 57 60
3 77 57 80
3 61 81 80
3 60 61 80
3 62 58 82
3 82 58 78
3 63 83 61
3 83 81 61
3 64 62 84
3 84 62 82
3 65 85 63
3 85 83 63
3 86 66 64
3 84 86 64
3 67 86 87
3 66 86 67
3 88 69 68
3 89 69 88
3 69 89 85
3 65 69 85
3 90 70 67
3 87 90 67
3 70 90 71
3 71 90 91
3 71 91 72
3 72 91 92
3 72 92 88
3 68 72 88
3 73 74 93
3 74 75 94
3 93 74 94
3 75 76 95
3 94 75 95
3 76 77 95
3 78 79 96
3 97 93 98
3 96 93 97
3 96 73 93
3 96 79 73
3 94 98 93
3 99 98 94
3 95 99 94
3 100 99 95
3 100 101 102
3 95 101 100
3 95 80 101
3 95 77 80
3 80 81 101
3 82 78 96
3 103 82 96
3 96 104 103
3 97 104 96
3 102 105 106
3 101 105 102
3 105 101 81
3 83 105 81
3 84 82 103
3 107 84 103
3 103 108 107
3 104 108 103
3 106 109 110
3 105 109 106
3 109 105 83
3 85 109 83
3 86 84 107
3 107 108 111
3 86 107 111
3 86 111 112
3 86 112 87
3 112 113 114
3 111 113 112
3 114 115 116
3 113 115 114
3 89 110 109
3 88 110 89
3 88 115 110
3 88 116 115
3 89 109 85
3 90 87 112
3 91 90 112
3 114 91 112
3 92 91 114
3 116 92 114
3 92 116 88
3 97 98 117
3 98 99 118
3 117 98 118
3 99 100 119
3 118 99 119
3 100 102 119
3 104 97 117
3 120 104 117
3 120 117 121
3 117 118 121
3 121 118 122
3 118 119 122
3 122 119 102
3 106 122 102
3 108 104 120
3 123 108 120
3 123 120 124
3 120 121 124
3 124 121 125
3 121 122 125
3 125 122 106
3 110 125 106
3 111 108 123
3 113 111 123
3 124 113 123
3 115 113 124
3 125 115 124
3 115 125 110
