ply
format ascii 1.0
comment VCGLIB generated
element vertex 126
property float x
property float y
property float z
element face 248
property list uchar int vertex_indices
end_header
0.018367767333984375 -0.0477119088172912598 -0.326797157526016235
0.0587361641228199005 -0.0691701993346214294 -0.227599620819091797
-0.015697479248046875 -0.145936921238899231 -0.237880706787109375
-0.0219599399715662003 -0.133628368377685547 -0.0250695552676916122
0.0544420890510082245 -0.208377644419670105 -0.0281872749328613281
0.129575088620185852 -0.203266382217407227 0.131017521023750305
0.0432306937873363495 -0.248462602496147156 0.189227581024169922
0.0548311881721019745 -0.128742441534996033 0.156976386904716492
-0.0175069179385900497 0.160957232117652893 -0.247207477688789368
-0.0194549560546875 0.12405732274055481 -0.144208118319511414
0.0303243007510900497 0.0589795149862766266 0.0643486976623535156
0.077898658812046051 -0.034624788910150528 0.262281894683837891
0.172934219241142273 -0.0374467857182025909 0.317932456731796265
0.19269561767578125 0.0829771831631660461 -0.254921287298202515
0.197919204831123352 0.0897457599639892578 -0.146274730563163757
0.225641891360282898 0.158778727054595947 0.0640638694167137146
0.259957641363143921 0.0980748236179351807 0.280950397253036499
0.266282409429550171 0.100781984627246857 0.171195670962333679
0.289396911859512329 0.141893669962882996 -0.176055431365966797
0.318625122308731079 0.100662998855113983 0.0403950996696949005
0.366992950439453125 0.124141864478588104 0.258427292108535767
-0.272595733404159546 -0.0447309352457523346 -0.205899715423583984
-0.13986968994140625 -0.0427144579589366913 -0.164365768432617188
-0.222184494137763977 -0.0383081957697868347 -0.098757423460483551
0.02120208740234375 -0.0311599653214216232 -0.00051116943359375
-0.062868751585483551 -0.001946229487657547 0.0658011436462402344
-0.059356689453125 -0.223951578140258789 0.0508557967841625214
-0.159679412841796875 -0.198161065578460693 0.00817902851849794388
-0.1097564697265625 -0.097913689911365509 0.0164777431637048721
-0.183916732668876648 0.0519486069679260254 -0.44999346137046814
-0.132691696286201477 0.0484058111906051636 -0.351484149694442749
-0.252638489007949829 -0.0106775397434830666 -0.385872215032577515
-0.068425498902797699 0.0442225150763988495 0.127322673797607422
0.042491912841796875 0.00861241016536951065 0.0608218498528003693
-0.0560099296271800995 -0.0466218255460262299 0.0849070549011230469
-0.0182367954403162003 0.196913465857505798 -0.515905201435089111
-0.0004425048828125 0.22002643346786499 -0.413071304559707642
0.0142606096342206001 0.0381610281765460968 0.280563026666641235
0.0131136579439043999 -0.0695392414927482605 0.295360088348388672
0.135416671633720398 0.154771849513053894 -0.349425941705703735
0.196643829345703125 0.103934042155742645 -0.42980465292930603
0.232257843017578125 0.0294354204088449478 0.340632438659667969
0.229462936520576477 -0.0752122774720191956 0.341910988092422485
0.237150833010673523 0.179145693778991699 -0.323324352502822876
0.381108611822128296 0.135731145739555359 -0.218798473477363586
0.399003356695175171 0.00112344685476273298 -0.197919204831123352
0.484635680913925171 0.0356554277241230011 0.008456389419734478
0.527556121349334717 0.0448971576988697052 0.228261947631835938
0.4862213134765625 -0.0508880168199539185 0.323263317346572876
0.319016784429550171 -0.0887788310647010803 0.400539875030517578
0.313830047845840454 0.0603741258382797241 -0.169013187289237976
0.398787170648574829 -0.0278113186359405518 0.0240461025387048721
0.512118041515350342 -0.0608669519424438477 0.216174289584159851
-0.312292724847793579 0.179474309086799622 -0.183009937405586243
-0.264149993658065796 0.181661233305931091 -0.0831580162048339844
-0.275464385747909546 0.0732238441705703735 0.117846645414829254
-0.323673248291015625 -0.14625103771686554 0.144641086459159851
-0.225147247314453125 -0.171101287007331848 0.189421817660331726
-0.27188873291015625 0.228855952620506287 -0.346963554620742798
-0.372080475091934204 0.187426865100860596 -0.353551387786865234
-0.25029754638671875 0.000793732760939747095 0.244467735290527344
-0.175048828125 0.0776389315724372864 0.221415519714355469
-0.064783729612827301 0.297263771295547485 -0.317112773656845093
0.00942484568804502487 0.151174023747444153 0.329599380493164062
0.138163253664970398 0.35610690712928772 -0.267161369323730469
0.228777572512626648 0.149084672331809998 0.389013439416885376
0.191539764404296875 0.341673702001571655 -0.181423977017402649
0.321402221918106079 0.303025573492050171 -0.0668056830763816833
0.392547607421875 0.153923586010932922 0.29574170708656311
0.222226455807685852 0.0788907632231712341 0.316646426916122437
0.23773193359375 0.231760501861572266 -0.0476872138679027557
0.259030669927597046 0.109203718602657318 0.139399215579032898
0.360136657953262329 0.0520633161067962646 0.330580711364746094
-0.439127594232559204 0.349597364664077759 -0.119372367858886719
-0.458156585693359375 0.275473892688751221 -0.0430033989250659943
-0.497467041015625 0.12047278881072998 0.116330303251743317
-0.365983337163925171 0.0280454754829406738 0.271712154150009155
-0.282293945550918579 -0.0101652378216385841 0.329558998346328735
-0.270666748285293579 0.113511808216571808 -0.144494533538818359
-0.331999450922012329 0.209361433982849121 -0.128107860684394836
-0.131314590573310852 -0.0380402319133281708 0.427207797765731812
-0.239470168948173523 -0.0378100983798503876 0.411829948425292969
-0.0594584159553050995 0.13352067768573761 -0.148020103573799133
-0.0326385498046875 0.0124541083350777626 0.502130746841430664
0.1162567138671875 0.237569212913513184 -0.0615221671760082245
0.188208267092704773 0.0287398975342512131 0.565207779407501221
0.093118034303188324 0.152132704854011536 -0.126543834805488586
0.115587867796421051 0.263250559568405151 0.0120226545259356499
0.359221130609512329 0.223241105675697327 0.510901868343353271
0.303934723138809204 0.0514147765934467316 0.537704646587371826
0.094443000853061676 0.364008307456970215 0.0473543815314769745
0.229653671383857727 0.317496120929718018 0.219573810696601868
0.342726379632949829 0.261218160390853882 0.406274467706680298
-0.457810729742050171 0.364387869834899902 0.0240217838436365128
-0.454878479242324829 0.193661555647850037 0.188940048217773438
-0.279392242431640625 0.0419433563947677612 0.20153363049030304
-0.286394745111465454 0.117183834314346313 -0.0396712608635425568
-0.198946639895439148 0.27471238374710083 -0.0368863753974437714
-0.278654724359512329 0.347760885953903198 0.043956119567155838
-0.339791625738143921 0.306979626417160034 0.267035007476806641
-0.231351211667060852 0.119041301310062408 0.354303032159805298
-0.216603592038154602 -0.142972543835639954 0.444290637969970703
-0.26821136474609375 0.0318293385207653046 0.454759746789932251
-0.116246543824672699 0.227862969040870667 -0.123729072511196136
-0.012760162353515625 0.14746721088886261 -0.00702222203835844994
-0.0001678466796875 -0.0804363861680030823 0.438271671533584595
-0.066282905638217926 0.0434148125350475311 0.546846151351928711
0.0427271537482738495 0.151308700442314148 -0.0121099157258868217
0.110834755003452301 0.312526196241378784 0.0420835800468921661
0.208950042724609375 -0.0168749298900365829 0.469303756952285767
0.087500251829624176 0.0988334193825721741 0.400336414575576782
0.174944564700126648 0.299142926931381226 0.16067822277545929
0.012760162353515625 0.296665191650390625 0.0968384742736816406
0.094336189329624176 0.199146971106529236 0.352310985326766968
0.196564987301826477 0.210537001490592957 0.206870079040527344
0.198884323239326477 0.0133412890136241913 0.422297477722167969
0.296755462884902954 0.162811443209648132 0.402398109436035156
-0.246612548828125 0.243918955326080322 0.0554738044738769531
-0.246832534670829773 0.261537998914718628 0.275303035974502563
-0.273427337408065796 0.142913699150085449 0.455855369567871094
-0.0556640625 0.131803661584854126 0.0965701714158058167
-0.0335528068244457245 0.23846609890460968 0.290061622858047485
-0.0507418327033519745 0.139628365635871887 0.491072744131088257
0.065813697874546051 0.323581010103225708 0.136225536465644836
0.1862945556640625 0.209281578660011292 0.287829875946044922
0.168646499514579773 0.097156427800655365 0.483697324991226196
3 0 1 2
3 1 3 4
3 2 1 4
3 3 5 6
3 4 3 6
3 5 7 6
3 0 8 9
3 1 0 9
3 9 10 1
3 1 10 3
3 10 11 3
3 3 11 5
3 5 11 12
3 7 5 12
3 8 13 14
3 9 8 14
3 14 15 9
3 9 15 10
3 15 16 10
3 10 16 11
3 11 16 17
3 12 11 17
3 14 13 18
3 15 14 18
3 19 15 18
3 16 15 19
3 20 16 19
3 16 20 17
3 21 22 23
3 22 24 25
3 23 22 25
3 24 26 27
3 25 24 27
3 26 28 27
3 29 30 31
3 2 22 21
3 0 2 21
3 0 21 31
3 0 31 30
3 4 22 2
3 24 22 4
3 6 24 4
3 26 24 6
3 26 32 28
3 6 32 26
3 6 33 32
3 6 7 33
3 33 34 32
3 29 35 36
3 30 29 36
3 36 0 30
3 8 0 36
3 12 33 7
3 37 33 12
3 33 37 38
3 34 33 38
3 35 39 40
3 36 35 40
3 40 8 36
3 13 8 40
3 17 37 12
3 41 37 17
3 37 41 42
3 38 37 42
3 40 39 43
3 43 44 45
3 40 43 45
3 40 45 18
3 40 18 13
3 18 46 19
3 45 46 18
3 19 47 20
3 46 47 19
3 48 49 41
3 47 48 41
3 47 41 17
3 47 17 20
3 41 49 42
3 45 44 50
3 46 45 50
3 51 46 50
3 47 46 51
3 52 47 51
3 47 52 48
3 53 21 23
3 54 53 23
3 23 25 54
3 25 55 54
3 25 27 55
3 27 56 55
3 28 57 56
3 27 28 56
3 58 29 31
3 59 58 31
3 31 53 59
3 21 53 31
3 60 28 32
3 57 28 60
3 34 61 60
3 32 34 60
3 35 29 62
3 62 29 58
3 38 63 34
3 63 61 34
3 39 35 64
3 64 35 62
3 42 65 38
3 65 63 38
3 66 43 39
3 64 66 39
3 44 66 67
3 43 66 44
3 68 49 48
3 69 49 68
3 49 69 65
3 42 49 65
3 70 50 44
3 67 70 44
3 50 70 51
3 51 70 71
3 51 71 52
3 52 71 72
3 52 72 68
3 48 52 68
3 73 53 54
3 74 73 54
3 54 55 74
3 55 75 74
3 55 56 75
3 56 76 75
3 57 77 76
3 56 57 76
3 78 58 59
3 79 78 59
3 59 73 79
3 53 73 59
3 80 57 60
3 77 57 80
3 61 81 80
3 60 61 80
3 62 58 82
3 82 58 78
3 63 83 61
3 83 81 61
3 64 62 84
3 84 62 82
3 65 85 63
3 85 83 63
3 86 66 64
3 84 86 64
3 67 86 87
3 66 86 67
3 88 69 68
3 89 69 88
3 69 89 85
3 65 69 85
3 90 70 67
3 87 90 67
3 70 90 71
3 71 90 91
3 71 91 72
3 72 91 92
3 72 92 88
3 68 72 88
3 73 74 93
3 74 75 94
3 93 74 94
3 75 76 95
3 94 75 95
3 76 77 95
3 78 79 96
3 97 93 98
3 96 93 97
3 96 73 93
3 96 79 73
3 94 98 93
3 99 98 94
3 95 99 94
3 100 99 95
3 100 101 102
3 95 101 100
3 95 80 101
3 95 77 80
3 80 81 101
3 82 78 96
3 103 82 96
3 96 104 103
3 97 104 96
3 102 105 106
3 101 105 102
3 105 101 81
3 83 105 81
3 84 82 103
3 107 84 103
3 103 108 107
3 104 108 103
3 106 109 110
3 105 109 106
3 109 105 83
3 85 109 83
3 86 84 107
3 107 108 111
3 86 107 111
3 86 111 112
3 86 112 87
3 112 113 114
3 111 113 112
3 114 115 116
3 113 115 114
3 89 110 109
3 88 110 89
3 88 115 110
3 88 116 115
3 89 109 85
3 90 87 112
3 91 90 112
3 114 91 112
3 92 91 114
3 116 92 114
3 92 116 88
3 97 98 117
3 98 99 118
3 117 98 118
3 99 100 119
3 118 99 119
3 100 102 119
3 104 97 117
3 120 104 117
3 120 117 121
3 117 118 121
3 121 118 122
3 118 119 122
3 122 119 102
3 106 122 102
3 108 104 120
3 123 108 120
3 123 120 124
3 120 121 124
3 124 121 125
3 121 122 125
3 125 122 106
3 110 125 106
3 111 108 123
3 113 111 123
3 124 113 123
3 115 113 124
3 125 115 124
3 115 125 110
