ply
format ascii 1.0
comment VCGLIB generated
element vertex 126
property float x
property float y
property float z
element face 248
property list uchar int vertex_indices
end_header
-0.215554550290107727 0.169255152344703674 -0.45524325966835022
-0.222997024655342102 0.0644089654088020325 -0.521004855632781982
-0.315919250249862671 0.0839829668402671814 -0.452746063470840454
-0.205218002200126648 -0.044656652957201004 -0.32458987832069397
-0.28566741943359375 -0.113442368805408478 -0.344887733459472656
-0.28912353515625 -0.206510588526725769 -0.191881179809570312
-0.194361373782157898 -0.265811175107955933 -0.201822921633720398
-0.271376281976699829 -0.249234780669212341 -0.0924309119582176208
0.00273005175404250622 0.127724677324295044 -0.406054973602294922
-0.0155499773100018501 0.0191798899322748184 -0.431856632232666016
-0.065438590943813324 -0.197334542870521545 -0.409015029668807983
-0.117558799684047699 -0.33574482798576355 -0.240418598055839539
-0.163359329104423523 -0.42444273829460144 -0.190026119351387024
0.2098388671875 0.0836716070771217346 -0.330731391906738281
0.19324493408203125 -0.0253757555037736893 -0.351550430059432983
0.140707656741142273 -0.243424668908119202 -0.333795875310897827
0.074431098997592926 -0.44567754864692688 -0.260091632604598999
0.034088134765625 -0.523313701152801514 -0.186954498291015625
0.187681838870048523 -0.0177756324410438538 -0.240366771817207336
0.216353103518486023 -0.240123271942138672 -0.247941330075263977
0.073678337037563324 -0.391333252191543579 -0.165827438235282898
-0.443204253911972046 0.204274460673332214 -0.23205740749835968
-0.448856353759765625 0.122381776571273804 -0.34235730767250061
-0.531246185302734375 0.14737856388092041 -0.256156116724014282
-0.410715728998184204 -0.0631857588887214661 -0.226217910647392273
-0.52095794677734375 -0.077042996883392334 -0.21204376220703125
-0.376860290765762329 -0.278357237577438354 -0.202764511108398438
-0.463082641363143921 -0.287976115942001343 -0.1420440673828125
-0.406847625970840454 -0.382966279983520508 -0.122705303132534027
-0.232606247067451477 0.35107719898223877 -0.238590553402900696
-0.225798293948173523 0.298521488904953003 -0.33233150839805603
-0.279146820306777954 0.262904375791549683 -0.204414054751396179
-0.323904663324356079 -0.509053349494934082 -0.0472372360527515411
-0.356464385986328125 -0.380273133516311646 0.00426371907815337181
-0.363232940435409546 -0.420303672552108765 -0.0985352173447608948
-0.012432098388671875 0.318715453147888184 -0.192272022366523743
-0.00371551513671875 0.266406416893005371 -0.288946002721786499
-0.133600875735282898 -0.346223384141921997 -0.0276026725769042969
-0.142618820071220398 -0.412711769342422485 -0.107642807066440582
0.211185455322265625 0.318547040224075317 -0.16503143310546875
0.218359634280204773 0.252552002668380737 -0.258785724639892578
-0.098241172730922699 -0.563860237598419189 -0.0738043785095214844
-0.095228828489780426 -0.584562838077545166 0.0336589813232421875
0.29022979736328125 0.251406759023666382 -0.136960983276367188
0.377863556146621704 0.103975959122180939 -0.0785622596740722656
0.342133849859237671 -0.0166750401258468628 -0.142939731478691101
0.294999450445175171 -0.230076193809509277 -0.0823960304260253906
0.125586196780204773 -0.349572807550430298 0.00179084145929664373
0.13867950439453125 -0.483043670654296875 0.0363168716430664062
0.00953928660601377487 -0.604442000389099121 0.00527477264404296875
0.370703369379043579 0.00554039468988776207 -0.0373341254889965057
0.315060943365097046 -0.201464176177978516 0.026804288849234581
0.210390731692314148 -0.397085100412368774 0.0456045456230640411
-0.501145660877227783 0.21982264518737793 -0.0128332776948809624
-0.609803497791290283 0.178789198398590088 -0.030924161896109581
-0.475583404302597046 -0.00964351743459701538 -0.0125118894502520561
-0.36540985107421875 -0.198147431015968323 0.0476519279181957245
-0.400629669427871704 -0.292655974626541138 0.0826729163527488708
-0.278905242681503296 0.405345678329467773 -0.0170370731502771378
-0.390675872564315796 0.352644115686416626 -0.0102621717378497124
-0.3542327880859375 -0.433023065328598022 0.152466610074043274
-0.251946777105331421 -0.463643759489059448 0.0952178612351417542
-0.0516331978142261505 0.366980940103530884 0.024713834747672081
-0.149045303463935852 -0.272331357002258301 0.0775609016418457031
0.178607940673828125 0.354606389999389648 0.0580191612243652344
-0.027507781982421875 -0.435072392225265503 0.185272857546806335
0.272738128900527954 0.315564930438995361 0.0833509787917137146
0.316244751214981079 0.153200194239616394 0.13433837890625
-0.005764007568359375 -0.36817595362663269 0.164500877261161804
-0.066051483154296875 -0.53680187463760376 0.208773136138916016
0.236529037356376648 0.0773186758160591125 0.129662677645683289
0.218222305178642273 -0.135377183556556702 0.231808498501777649
0.048213958740234375 -0.270088165998458862 0.144175365567207336
-0.578338623046875 0.300385028123855591 0.200400516390800476
-0.603947937488555908 0.209764003753662109 0.205985859036445618
-0.45883941650390625 0.0572222024202346802 0.202462360262870789
-0.37549591064453125 -0.128952518105506897 0.267422199249267578
-0.342011779546737671 -0.23432469367980957 0.293285995721817017
-0.317478179931640625 0.396433711051940918 0.235641002655029297
-0.4149932861328125 0.353819936513900757 0.222796440124511719
-0.242289230227470398 -0.366188734769821167 0.319825977087020874
-0.147570297122001648 -0.431433767080307007 0.290762096643447876
-0.10341644287109375 0.383370906114578247 0.26277509331703186
0.018310546875 -0.305809319019317627 0.206033393740653992
0.120332084596157074 0.361291289329528809 0.282919406890869141
-0.072113037109375 -0.355777472257614136 0.39053693413734436
0.222871139645576477 0.353313654661178589 0.307430267333984375
0.260903686285018921 0.179138109087944031 0.361359119415283203
0.151140853762626648 -0.373382121324539185 0.331939220428466797
-0.00108973181340843439 -0.428917557001113892 0.387974590063095093
0.155172988772392273 0.167932555079460144 0.314236313104629517
0.0457547493278980255 -0.0309263244271278381 0.340341240167617798
0.164137527346611023 -0.233982965350151062 0.323643684387207031
-0.566874206066131592 0.182024076581001282 0.350031524896621704
-0.4871368408203125 -0.00846277549862861633 0.30385589599609375
-0.432011932134628296 -0.194780811667442322 0.205244377255439758
-0.337395995855331421 0.32152220606803894 0.365766197443008423
-0.349909454584121704 0.189724937081336975 0.529537200927734375
-0.482840210199356079 0.13721136748790741 0.551630973815917969
-0.488608032464981079 -0.0971712097525596619 0.470394939184188843
-0.31829833984375 -0.188535317778587341 0.348062038421630859
-0.168740585446357727 -0.370806217193603516 0.201189994812011719
-0.273220062255859375 -0.31986624002456665 0.324476718902587891
-0.127950027585029602 0.314206808805465698 0.372963577508926392
-0.154284164309501648 0.112457625567913055 0.508001506328582764
-0.0241114292293787003 -0.211347341537475586 0.280867099761962891
-0.164045974612236023 -0.1367502361536026 0.406792163848876953
0.099629722535610199 0.318513423204421997 0.375137180089950562
0.0281969700008630753 0.240804001688957214 0.529421567916870117
0.0375989265739917755 -0.330696135759353638 0.453961372375488281
0.0366732291877269745 -0.150741174817085266 0.468098968267440796
0.05516815185546875 0.140016332268714905 0.557257175445556641
0.134421035647392273 0.171388044953346252 0.423452854156494141
-0.080163322389125824 -0.0267931800335645676 0.430999130010604858
0.095363616943359375 -0.0400042049586772919 0.430953651666641235
-0.067975364625453949 -0.249476149678230286 0.448520034551620483
0.084227241575717926 -0.275705784559249878 0.395976215600967407
-0.346757262945175171 0.145247623324394226 0.642530977725982666
-0.381474822759628296 -0.039755307137966156 0.482301712036132812
-0.315579742193222046 -0.260488182306289673 0.412119865417480469
-0.088694252073764801 0.088756263256072998 0.669107913970947266
-0.172681167721748352 -0.00107504718471318483 0.425705909729003906
-0.124514259397983551 -0.214412495493888855 0.492221355438232422
0.076170600950717926 0.171281322836875916 0.458832740783691406
0.0316416434943675995 -0.0109291085973381996 0.413026005029678345
0.0473162345588207245 -0.234574735164642334 0.373056411743164062
3 0 1 2
3 1 3 4
3 2 1 4
3 3 5 6
3 4 3 6
3 5 7 6
3 0 8 9
3 1 0 9
3 9 10 1
3 1 10 3
3 10 11 3
3 3 11 5
3 5 11 12
3 7 5 12
3 8 13 14
3 9 8 14
3 14 15 9
3 9 15 10
3 15 16 10
3 10 16 11
3 11 16 17
3 12 11 17
3 14 13 18
3 15 14 18
3 19 15 18
3 16 15 19
3 20 16 19
3 16 20 17
3 21 22 23
3 22 24 25
3 23 22 25
3 24 26 27
3 25 24 27
3 26 28 27
3 29 30 31
3 2 22 21
3 0 2 21
3 0 21 31
3 0 31 30
3 4 22 2
3 24 22 4
3 6 24 4
3 26 24 6
3 26 32 28
3 6 32 26
3 6 33 32
3 6 7 33
3 33 34 32
3 29 35 36
3 30 29 36
3 36 0 30
3 8 0 36
3 12 33 7
3 37 33 12
3 33 37 38
3 34 33 38
3 35 39 40
3 36 35 40
3 40 8 36
3 13 8 40
3 17 37 12
3 41 37 17
3 37 41 42
3 38 37 42
3 40 39 43
3 43 44 45
3 40 43 45
3 40 45 18
3 40 18 13
3 18 46 19
3 45 46 18
3 19 47 20
3 46 47 19
3 48 49 41
3 47 48 41
3 47 41 17
3 47 17 20
3 41 49 42
3 45 44 50
3 46 45 50
3 51 46 50
3 47 46 51
3 52 47 51
3 47 52 48
3 53 21 23
3 54 53 23
3 23 25 54
3 25 55 54
3 25 27 55
3 27 56 55
3 28 57 56
3 27 28 56
3 58 29 31
3 59 58 31
3 31 53 59
3 21 53 31
3 60 28 32
3 57 28 60
3 34 61 60
3 32 34 60
3 35 29 62
3 62 29 58
3 38 63 34
3 63 61 34
3 39 35 64
3 64 35 62
3 42 65 38
3 65 63 38
3 66 43 39
3 64 66 39
3 44 66 67
3 43 66 44
3 68 49 48
3 69 49 68
3 49 69 65
3 42 49 65
3 70 50 44
3 67 70 44
3 50 70 51
3 51 70 71
3 51 71 52
3 52 71 72
3 52 72 68
3 48 52 68
3 73 53 54
3 74 73 54
3 54 55 74
3 55 75 74
3 55 56 75
3 56 76 75
3 57 77 76
3 56 57 76
3 78 58 59
3 79 78 59
3 59 73 79
3 53 73 59
3 80 57 60
3 77 57 80
3 61 81 80
3 60 61 80
3 62 58 82
3 82 58 78
3 63 83 61
3 83 81 61
3 64 62 84
3 84 62 82
3 65 85 63
3 85 83 63
3 86 66 64
3 84 86 64
3 67 86 87
3 66 86 67
3 88 69 68
3 89 69 88
3 69 89 85
3 65 69 85
3 90 70 67
3 87 90 67
3 70 90 71
3 71 90 91
3 71 91 72
3 72 91 92
3 72 92 88
3 68 72 88
3 73 74 93
3 74 75 94
3 93 74 94
3 75 76 95
3 94 75 95
3 76 77 95
3 78 79 96
3 97 93 98
3 96 93 97
3 96 73 93
3 96 79 73
3 94 98 93
3 99 98 94
3 95 99 94
3 100 99 95
3 100 101 102
3 95 101 100
3 95 80 101
3 95 77 80
3 80 81 101
3 82 78 96
3 103 82 96
3 96 104 103
3 97 104 96
3 102 105 106
3 101 105 102
3 105 101 81
3 83 105 81
3 84 82 103
3 107 84 103
3 103 108 107
3 104 108 103
3 106 109 110
3 105 109 106
3 109 105 83
3 85 109 83
3 86 84 107
3 107 108 111
3 86 107 111
3 86 111 112
3 86 112 87
3 112 113 114
3 111 113 112
3 114 115 116
3 113 115 114
3 89 110 109
3 88 110 89
3 88 115 110
3 88 116 115
3 89 109 85
3 90 87 112
3 91 90 112
3 114 91 112
3 92 91 114
3 116 92 114
3 92 116 88
3 97 98 117
3 98 99 118
3 117 98 118
3 99 100 119
3 118 99 119
3 100 102 119
3 104 97 117
3 120 104 117
3 120 117 121
3 117 118 121
3 121 118 122
3 118 119 122
3 122 119 102
3 106 122 102
3 108 104 120
3 123 108 120
3 123 120 124
3 120 121 124
3 124 121 125
3 121 122 125
3 125 122 106
3 110 125 106
3 111 108 123
3 113 111 123
3 124 113 123
3 115 113 124
3 125 115 124
3 115 125 110
