ply
format ascii 1.0
comment VCGLIB generated
element vertex 126
property float x
property float y
property float z
element face 248
property list uchar int vertex_indices
end_header
-0.130670994520187378 0.149472653865814209 -0.477894097566604614
-0.168294176459312439 0.0735658630728721619 -0.546076297760009766
-0.258347451686859131 0.133254274725914001 -0.478805780410766602
-0.253803551197052002 -0.120170004665851593 -0.474924147129058838
-0.325302720069885254 -0.0659558773040771484 -0.407019048929214478
-0.123512566089630127 -0.142515853047370911 -0.298387110233306885
-0.162388727068901062 -0.0513873212039470673 -0.250041663646697998
-0.10942019522190094 -0.158055365085601807 -0.19159996509552002
0.079540841281414032 0.100535005331039429 -0.485635936260223389
0.044984087347984314 -0.011297592893242836 -0.476176947355270386
-0.065981060266494751 -0.163285478949546814 -0.359278112649917603
-0.133288457989692688 -0.371202230453491211 -0.324671655893325806
-0.078700140118598938 -0.374040722846984863 -0.225747376680374146
0.195561930537223816 0.109287723898887634 -0.296189785003662109
0.147636130452156067 0.0093501899391412735 -0.266268253326416016
0.112964928150177002 -0.219026580452919006 -0.246140420436859131
0.0479639507830142975 -0.438915818929672241 -0.229586824774742126
0.066767476499080658 -0.524295985698699951 -0.309969484806060791
0.156245604157447815 -0.00484928954392671585 -0.369087755680084229
0.108399026095867157 -0.232282683253288269 -0.353260606527328491
0.151032671332359314 -0.422714978456497192 -0.249273240566253662
-0.266047269105911255 0.240533173084259033 -0.221239984035491943
-0.344853043556213379 0.202282026410102844 -0.326311409473419189
-0.369754225015640259 0.232984751462936401 -0.22118733823299408
-0.442013382911682129 0.000898984028026461601 -0.278762668371200562
-0.470796763896942139 0.0377262197434902191 -0.171306684613227844
-0.294939190149307251 -0.156737327575683594 -0.199201300740242004
-0.336096853017807007 -0.134932205080986023 -0.10209597647190094
-0.286897510290145874 -0.219172403216362 -0.0693700909614562988
-0.070486806333065033 0.0771188512444496155 -0.190022185444831848
-0.071468353271484375 0.0820768401026725769 -0.310225486755371094
-0.164458945393562317 0.0899513065814971924 -0.212311208248138428
-0.179576873779296875 -0.158254250884056091 0.0560426749289035797
-0.061023421585559845 -0.16369745135307312 -0.0209514927119016647
-0.15490606427192688 -0.227006152272224426 -0.0224573798477649689
0.126287028193473816 0.144475445151329041 -0.247548371553421021
0.106697089970111847 0.203256040811538696 -0.334465146064758301
0.0410593487322330475 -0.336949616670608521 -0.101004935801029205
-0.0111447852104902267 -0.396194338798522949 -0.0207268279045820236
0.30985027551651001 0.260466217994689941 -0.279915899038314819
0.322044104337692261 0.217380940914154053 -0.381661027669906616
0.093313366174697876 -0.556887984275817871 -0.133927613496780396
0.152207896113395691 -0.552494168281555176 -0.0406731106340885162
0.3646087646484375 0.18392692506313324 -0.255436360836029053
0.361869543790817261 0.0125045347958803177 -0.242945611476898193
0.29478222131729126 -0.079930722713470459 -0.29075273871421814
0.216071799397468567 -0.252380877733230591 -0.209780663251876831
0.318712085485458374 -0.427882999181747437 -0.308688074350357056
0.350385814905166626 -0.46068871021270752 -0.173145636916160583
0.231214672327041626 -0.582221567630767822 -0.107999220490455627
0.264792829751968384 -0.0014707585796713829 -0.200246483087539673
0.319345921277999878 -0.204451337456703186 -0.212161555886268616
0.2588653564453125 -0.417596608400344849 -0.213379323482513428
-0.234627366065979004 0.269029706716537476 -0.00883927755057811737
-0.342065393924713135 0.257172226905822754 -0.00632799603044986725
-0.464586138725280762 0.0888234972953796387 0.068007253110408783
-0.408623039722442627 -0.137258008122444153 0.118243701756000519
-0.384586066007614136 -0.259012430906295776 0.159049034118652344
-0.0369952283799648285 0.111718297004699707 0.034637451171875
-0.085152849555015564 0.174920797348022461 -0.0318514406681060791
-0.227851882576942444 -0.341217964887619019 0.187672659754753113
-0.131174236536026001 -0.361488014459609985 0.147223666310310364
0.169680669903755188 0.150507137179374695 -0.0101199522614479065
0.095640331506729126 -0.302871555089950562 0.158603012561798096
0.37258148193359375 0.152502074837684631 -0.071575462818145752
0.284624844789505005 -0.397236138582229614 0.0592651739716529846
0.247276023030281067 0.2015666663646698 -0.0592646263539791107
0.269762188196182251 0.0405234843492507935 -0.0367516763508319855
0.317243427038192749 -0.323449611663818359 0.00341121968813240528
0.164105340838432312 -0.4137001633644104 0.0214901342988014221
0.364657193422317505 0.024076215922832489 0.00515699386596679688
0.326670140027999878 -0.196212738752365112 0.0107004093006253242
0.221108660101890564 -0.389829874038696289 0.0127552114427089691
-0.22096194326877594 0.224810704588890076 0.207400694489479065
-0.242504715919494629 0.318417161703109741 0.170724585652351379
-0.340951770544052124 0.138132363557815552 0.251911967992782593
-0.36616399884223938 -0.0717809125781059265 0.324627459049224854
-0.302832692861557007 -0.163650646805763245 0.336517006158828735
0.0170971807092428207 0.325417369604110718 0.12642805278301239
-0.0966394916176795959 0.329859435558319092 0.134882748126983643
-0.165133848786354065 -0.252290517091751099 0.375222980976104736
-0.067898675799369812 -0.30780327320098877 0.372204780578613281
0.200582653284072876 0.233409985899925232 0.20576825737953186
0.098860815167427063 -0.452895373106002808 0.32378271222114563
0.409586995840072632 0.310493022203445435 0.096861034631729126
0.246650993824005127 -0.565251290798187256 0.203331619501113892
0.306786775588989258 0.303208231925964355 0.11169818788766861
0.271057724952697754 0.138929009437561035 0.174851059913635254
0.417053520679473877 -0.465131640434265137 0.14331836998462677
0.288084477186203003 -0.58424144983291626 0.0941560864448547363
0.266358315944671631 0.0430725030601024628 0.209797531366348267
0.301890760660171509 -0.174114897847175598 0.231016784906387329
0.405656397342681885 -0.352509468793869019 0.131054669618606567
-0.298488348722457886 0.35552552342414856 0.245244324207305908
-0.306691408157348633 0.147764831781387329 0.351883083581924438
-0.314912080764770508 -0.0603999905288219452 0.417831867933273315
0.00329091004095971584 0.406376153230667114 0.204949751496315002
-0.0461519695818424225 0.255033969879150391 0.2453470379114151
-0.159046471118927002 0.270948112010955811 0.143381461501121521
-0.257428973913192749 0.0769694223999977112 0.180190712213516235
-0.220752134919166565 -0.118895269930362701 0.267672181129455566
-0.157686382532119751 -0.36263766884803772 0.36358797550201416
-0.177166283130645752 -0.250346541404724121 0.238659575581550598
0.169046849012374878 0.312391906976699829 0.143804743885993958
0.142104819416999817 0.148817107081413269 0.194158554077148438
0.0178659893572330475 -0.472829759120941162 0.238035097718238831
-0.0420511700212955475 -0.385055243968963623 0.100412555038928986
0.390610337257385254 0.223380535840988159 0.165956214070320129
0.308211416006088257 0.120024204254150391 0.0331686101853847504
0.163088589906692505 -0.59994882345199585 0.140336662530899048
0.116669587790966034 -0.447670847177505493 0.247878491878509521
0.338896244764328003 -0.0125015499070286751 0.0436249151825904846
0.37931591272354126 0.0601736828684806824 0.201940730214118958
0.292560875415802002 -0.208039134740829468 0.152553051710128784
0.399125933647155762 -0.14691983163356781 0.280990421772003174
0.217684239149093628 -0.366584986448287964 0.301543951034545898
0.381711840629577637 -0.362135380506515503 0.232769355177879333
-0.112650945782661438 0.212023273110389709 0.231745988130569458
-0.171953350305557251 0.0124521302059292793 0.171899259090423584
-0.21737612783908844 -0.18041585385799408 0.168795958161354065
0.071089819073677063 0.147251859307289124 0.11437581479549408
0.02285003662109375 -0.0606642961502075195 0.117578141391277313
-0.00940176192671060562 -0.269682139158248901 0.0902727991342544556
0.272411942481994629 0.0456290543079376221 0.104316569864749908
0.206950262188911438 -0.14824579656124115 0.184739187359809875
0.114000767469406128 -0.335236310958862305 0.273796230554580688
3 0 1 2
3 1 3 4
3 2 1 4
3 3 5 6
3 4 3 6
3 5 7 6
3 0 8 9
3 1 0 9
3 9 10 1
3 1 10 3
3 10 11 3
3 3 11 5
3 5 11 12
3 7 5 12
3 8 13 14
3 9 8 14
3 14 15 9
3 9 15 10
3 15 16 10
3 10 16 11
3 11 16 17
3 12 11 17
3 14 13 18
3 15 14 18
3 19 15 18
3 16 15 19
3 20 16 19
3 16 20 17
3 21 22 23
3 22 24 25
3 23 22 25
3 24 26 27
3 25 24 27
3 26 28 27
3 29 30 31
3 2 22 21
3 0 2 21
3 0 21 31
3 0 31 30
3 4 22 2
3 24 22 4
3 6 24 4
3 26 24 6
3 26 32 28
3 6 32 26
3 6 33 32
3 6 7 33
3 33 34 32
3 29 35 36
3 30 29 36
3 36 0 30
3 8 0 36
3 12 33 7
3 37 33 12
3 33 37 38
3 34 33 38
3 35 39 40
3 36 35 40
3 40 8 36
3 13 8 40
3 17 37 12
3 41 37 17
3 37 41 42
3 38 37 42
3 40 39 43
3 43 44 45
3 40 43 45
3 40 45 18
3 40 18 13
3 18 46 19
3 45 46 18
3 19 47 20
3 46 47 19
3 48 49 41
3 47 48 41
3 47 41 17
3 47 17 20
3 41 49 42
3 45 44 50
3 46 45 50
3 51 46 50
3 47 46 51
3 52 47 51
3 47 52 48
3 53 21 23
3 54 53 23
3 23 25 54
3 25 55 54
3 25 27 55
3 27 56 55
3 28 57 56
3 27 28 56
3 58 29 31
3 59 58 31
3 31 53 59
3 21 53 31
3 60 28 32
3 57 28 60
3 34 61 60
3 32 34 60
3 35 29 62
3 62 29 58
3 38 63 34
3 63 61 34
3 39 35 64
3 64 35 62
3 42 65 38
3 65 63 38
3 66 43 39
3 64 66 39
3 44 66 67
3 43 66 44
3 68 49 48
3 69 49 68
3 49 69 65
3 42 49 65
3 70 50 44
3 67 70 44
3 50 70 51
3 51 70 71
3 51 71 52
3 52 71 72
3 52 72 68
3 48 52 68
3 73 53 54
3 74 73 54
3 54 55 74
3 55 75 74
3 55 56 75
3 56 76 75
3 57 77 76
3 56 57 76
3 78 58 59
3 79 78 59
3 59 73 79
3 53 73 59
3 80 57 60
3 77 57 80
3 61 81 80
3 60 61 80
3 62 58 82
3 82 58 78
3 63 83 61
3 83 81 61
3 64 62 84
3 84 62 82
3 65 85 63
3 85 83 63
3 86 66 64
3 84 86 64
3 67 86 87
3 66 86 67
3 88 69 68
3 89 69 88
3 69 89 85
3 65 69 85
3 90 70 67
3 87 90 67
3 70 90 71
3 71 90 91
3 71 91 72
3 72 91 92
3 72 92 88
3 68 72 88
3 73 74 93
3 74 75 94
3 93 74 94
3 75 76 95
3 94 75 95
3 76 77 95
3 78 79 96
3 97 93 98
3 96 93 97
3 96 73 93
3 96 79 73
3 94 98 93
3 99 98 94
3 95 99 94
3 100 99 95
3 100 101 102
3 95 101 100
3 95 80 101
3 95 77 80
3 80 81 101
3 82 78 96
3 103 82 96
3 96 104 103
3 97 104 96
3 102 105 106
3 101 105 102
3 105 101 81
3 83 105 81
3 84 82 103
3 107 84 103
3 103 108 107
3 104 108 103
3 106 109 110
3 105 109 106
3 109 105 83
3 85 109 83
3 86 84 107
3 107 108 111
3 86 107 111
3 86 111 112
3 86 112 87
3 112 113 114
3 111 113 112
3 114 115 116
3 113 115 114
3 89 110 109
3 88 110 89
3 88 115 110
3 88 116 115
3 89 109 85
3 90 87 112
3 91 90 112
3 114 91 112
3 92 91 114
3 116 92 114
3 92 116 88
3 97 98 117
3 98 99 118
3 117 98 118
3 99 100 119
3 118 99 119
3 100 102 119
3 104 97 117
3 120 104 117
3 120 117 121
3 117 118 121
3 121 118 122
3 118 119 122
3 122 119 102
3 106 122 102
3 108 104 120
3 123 108 120
3 123 120 124
3 120 121 124
3 124 121 125
3 121 122 125
3 125 122 106
3 110 125 106
3 111 108 123
3 113 111 123
3 124 113 123
3 115 113 124
3 125 115 124
3 115 125 110
