ply
format ascii 1.0
comment VCGLIB generated
element vertex 126
property float x
property float y
property float z
element face 248
property list uchar int vertex_indices
end_header
-0.159562423825263977 0.267506152391433716 -0.478012412786483765
-0.1445159912109375 0.166869714856147766 -0.407388538122177124
-0.225552871823310852 0.153165116906166077 -0.510227203369140625
-0.184454604983329773 -0.069281749427318573 -0.356159061193466187
-0.274364471435546875 -0.0511347539722919464 -0.418678134679794312
-0.188283279538154602 -0.262391984462738037 -0.450740337371826172
-0.2811279296875 -0.308422714471817017 -0.387855201959609985
-0.206835433840751648 -0.383484125137329102 -0.38064160943031311
0.0285390224307775497 0.232710883021354675 -0.426733642816543579
0.0349324531853199005 0.162171989679336548 -0.378391414880752563
0.04376220703125 -0.0661072582006454468 -0.446721404790878296
0.012256622314453125 -0.307875126600265503 -0.376481860876083374
0.04221343994140625 -0.378753155469894409 -0.424753516912460327
0.216260269284248352 0.207809463143348694 -0.375067561864852905
0.289980560541152954 0.136149421334266663 -0.461652755737304688
0.241327926516532898 -0.0730222910642623901 -0.369383186101913452
0.241110488772392273 -0.271947413682937622 -0.339919894933700562
0.283770233392715454 -0.401911646127700806 -0.369716793298721313
0.367651611566543579 0.131458118557929993 -0.444831371307373047
0.320245116949081421 -0.0405146218836307526 -0.427774280309677124
0.36162567138671875 -0.297874927520751953 -0.390214115381240845
-0.365919739007949829 0.266185730695724487 -0.262197494506835938
-0.422644287347793579 0.175275862216949463 -0.359919071197509766
-0.42745208740234375 0.123415835201740265 -0.295696884393692017
-0.400587707757949829 -0.0746455937623977661 -0.380156189203262329
-0.3342742919921875 -0.0549995116889476776 -0.248465061187744141
-0.373034149408340454 -0.245243802666664124 -0.243127509951591492
-0.422487884759902954 -0.293731093406677246 -0.225722000002861023
-0.464047759771347046 -0.361269921064376831 -0.217912986874580383
-0.194693252444267273 0.288967758417129517 -0.307725280523300171
-0.176761627197265625 0.399275541305541992 -0.421135753393173218
-0.302057892084121704 0.370037049055099487 -0.345232337713241577
-0.308849334716796875 -0.509683072566986084 -0.197271823883056641
-0.157614395022392273 -0.503723859786987305 -0.295831054449081421
-0.229618072509765625 -0.492407083511352539 -0.170355156064033508
0.0472234077751636505 0.288266390562057495 -0.29745134711265564
0.064725242555141449 0.358336776494979858 -0.436585903167724609
0.013088226318359375 -0.487239688634872437 -0.240560367703437805
-0.00994873046875 -0.510208427906036377 -0.110356807708740234
0.286898285150527954 0.353466510772705078 -0.307543754577636719
0.229123428463935852 0.389158874750137329 -0.36387363076210022
0.249326065182685852 -0.478636413812637329 -0.211173847317695618
0.226954147219657898 -0.48421826958656311 -0.10981210321187973
0.337617248296737671 0.421001344919204712 -0.260703712701797485
0.446367889642715454 0.301327317953109741 -0.208952903747558594
0.403919219970703125 0.147056445479393005 -0.272476822137832642
0.300821930170059204 -0.00433587143197655678 -0.21761004626750946
0.374888092279434204 -0.23389984667301178 -0.241678714752197266
0.447823852300643921 -0.313702613115310669 -0.132233455777168274
0.321812957525253296 -0.446509957313537598 -0.0559325218200683594
0.3756866455078125 0.217899799346923828 -0.181110069155693054
0.425366729497909546 -0.0231764335185289383 -0.13685782253742218
0.365436553955078125 -0.251751571893692017 -0.128787204623222351
-0.471710205078125 0.282344549894332886 -0.0837295874953269958
-0.413649231195449829 0.176924452185630798 -0.109512008726596832
-0.311101287603378296 -0.039079718291759491 -0.0523945502936840057
-0.41362762451171875 -0.247178122401237488 0.0248322486877441406
-0.44268035888671875 -0.343953132629394531 0.0441045761108398438
-0.233801528811454773 0.373025029897689819 -0.0818349495530128479
-0.290395110845565796 0.416860699653625488 -0.0802342072129249573
-0.299777984619140625 -0.476275593042373657 0.00618680333718657494
-0.243433639407157898 -0.412576824426651001 0.0633568763732910156
-0.00684102391824126244 0.409538984298706055 -0.116985954344272614
-0.0205904636532068253 -0.385541558265686035 0.045815151184797287
0.2092132568359375 0.419735074043273926 -0.0550370216369628906
0.182912185788154602 -0.377647757530212402 0.121253646910190582
0.349278777837753296 0.414450079202651978 -0.068098701536655426
0.453817993402481079 0.318635255098342896 -0.010861237533390522
0.420248657464981079 -0.272160530090332031 0.119012035429477692
0.336114257574081421 -0.380949497222900391 0.138355731964111328
0.466005951166152954 0.250553667545318604 0.010987122543156147
0.473949432373046875 0.000581207859795540571 0.0582528114318847656
0.368378967046737671 -0.18880850076675415 0.0924073830246925354
-0.493433624505996704 0.311720311641693115 0.0976850166916847229
-0.422718048095703125 0.222906589508056641 0.102732501924037933
-0.37961578369140625 0.0202879589051008224 0.143254756927490234
-0.462656646966934204 -0.169928327202796936 0.213576480746269226
-0.329870849847793579 -0.240822210907936096 0.173050403594970703
-0.281107574701309204 0.36449161171913147 0.126767158508300781
-0.317685455083847046 0.463480204343795776 0.122474350035190582
-0.32753753662109375 -0.417353510856628418 0.274933815002441406
-0.234864547848701477 -0.486865073442459106 0.290075302124023438
-0.0305760707706212997 0.411624550819396973 0.14263741672039032
-0.0382626838982105255 -0.414590567350387573 0.336076110601425171
0.190733596682548523 0.402009457349777222 0.155100509524345398
0.162054702639579773 -0.323511749505996704 0.303658336400985718
0.304430633783340454 0.43930208683013916 0.151106193661689758
0.426823943853378296 0.3844127357006073 0.202019378542900085
0.455149322748184204 -0.233802869915962219 0.354858875274658203
0.270687103271484375 -0.314567506313323975 0.298854023218154907
0.477193206548690796 0.225408434867858887 0.200989246368408203
0.465985625982284546 0.0555257834494113922 0.296082347631454468
0.386240631341934204 -0.171797811985015869 0.296367168426513672
-0.463456481695175171 0.207768678665161133 0.216608524322509766
-0.346865326166152954 0.0481836162507534027 0.227071449160575867
-0.413965851068496704 -0.195070371031761169 0.291968345642089844
-0.244154617190361023 0.476640790700912476 0.188169002532958984
-0.2734832763671875 0.37103620171546936 0.38882860541343689
-0.372820526361465454 0.309483796358108521 0.335587024688720703
-0.343050628900527954 0.0638893246650695801 0.397257179021835327
-0.320036560297012329 -0.201235353946685791 0.420694828033447266
-0.331066131591796875 -0.50369715690612793 0.449316024780273438
-0.294033050537109375 -0.296496540307998657 0.517574548721313477
-0.0181147251278162003 0.473774164915084839 0.232905551791191101
-0.0346743278205394745 0.389464735984802246 0.425656795501708984
-0.0449816398322582245 -0.468847066164016724 0.449605941772460938
-0.0374247245490550995 -0.31298413872718811 0.475568383932113647
0.167334243655204773 0.405102372169494629 0.216594383120536804
0.160191848874092102 0.260111808776855469 0.350174278020858765
0.159839630126953125 -0.373140901327133179 0.446518570184707642
0.155551910400390625 -0.242151513695716858 0.523196280002593994
0.2525177001953125 0.31308397650718689 0.423200756311416626
0.388371795415878296 0.281033962965011597 0.326594680547714233
0.268411010503768921 0.064113326370716095 0.412348121404647827
0.397585541009902954 0.0840267613530158997 0.342142254114151001
0.222704574465751648 -0.111621268093585968 0.405562251806259155
0.416430145502090454 -0.135753393173217773 0.425005286931991577
-0.268435150384902954 0.313237637281417847 0.424786567687988281
-0.273278564214706421 0.0371075458824634552 0.434472709894180298
-0.22977447509765625 -0.180654644966125488 0.478412538766860962
-0.03314208984375 0.285482197999954224 0.377896785736083984
-0.0376981087028980255 0.066295720636844635 0.34768328070640564
-0.085447944700717926 -0.199319049715995789 0.385205745697021484
0.193817138671875 0.287927180528640747 0.315786361694335938
0.143313094973564148 0.0820154473185539246 0.375662177801132202
0.16126251220703125 -0.155989184975624084 0.414216846227645874
3 0 1 2
3 1 3 4
3 2 1 4
3 3 5 6
3 4 3 6
3 5 7 6
3 0 8 9
3 1 0 9
3 9 10 1
3 1 10 3
3 10 11 3
3 3 11 5
3 5 11 12
3 7 5 12
3 8 13 14
3 9 8 14
3 14 15 9
3 9 15 10
3 15 16 10
3 10 16 11
3 11 16 17
3 12 11 17
3 14 13 18
3 15 14 18
3 19 15 18
3 16 15 19
3 20 16 19
3 16 20 17
3 21 22 23
3 22 24 25
3 23 22 25
3 24 26 27
3 25 24 27
3 26 28 27
3 29 30 31
3 2 22 21
3 0 2 21
3 0 21 31
3 0 31 30
3 4 22 2
3 24 22 4
3 6 24 4
3 26 24 6
3 26 32 28
3 6 32 26
3 6 33 32
3 6 7 33
3 33 34 32
3 29 35 36
3 30 29 36
3 36 0 30
3 8 0 36
3 12 33 7
3 37 33 12
3 33 37 38
3 34 33 38
3 35 39 40
3 36 35 40
3 40 8 36
3 13 8 40
3 17 37 12
3 41 37 17
3 37 41 42
3 38 37 42
3 40 39 43
3 43 44 45
3 40 43 45
3 40 45 18
3 40 18 13
3 18 46 19
3 45 46 18
3 19 47 20
3 46 47 19
3 48 49 41
3 47 48 41
3 47 41 17
3 47 17 20
3 41 49 42
3 45 44 50
3 46 45 50
3 51 46 50
3 47 46 51
3 52 47 51
3 47 52 48
3 53 21 23
3 54 53 23
3 23 25 54
3 25 55 54
3 25 27 55
3 27 56 55
3 28 57 56
3 27 28 56
3 58 29 31
3 59 58 31
3 31 53 59
3 21 53 31
3 60 28 32
3 57 28 60
3 34 61 60
3 32 34 60
3 35 29 62
3 62 29 58
3 38 63 34
3 63 61 34
3 39 35 64
3 64 35 62
3 42 65 38
3 65 63 38
3 66 43 39
3 64 66 39
3 44 66 67
3 43 66 44
3 68 49 48
3 69 49 68
3 49 69 65
3 42 49 65
3 70 50 44
3 67 70 44
3 50 70 51
3 51 70 71
3 51 71 52
3 52 71 72
3 52 72 68
3 48 52 68
3 73 53 54
3 74 73 54
3 54 55 74
3 55 75 74
3 55 56 75
3 56 76 75
3 57 77 76
3 56 57 76
3 78 58 59
3 79 78 59
3 59 73 79
3 53 73 59
3 80 57 60
3 77 57 80
3 61 81 80
3 60 61 80
3 62 58 82
3 82 58 78
3 63 83 61
3 83 81 61
3 64 62 84
3 84 62 82
3 65 85 63
3 85 83 63
3 86 66 64
3 84 86 64
3 67 86 87
3 66 86 67
3 88 69 68
3 89 69 88
3 69 89 85
3 65 69 85
3 90 70 67
3 87 90 67
3 70 90 71
3 71 90 91
3 71 91 72
3 72 91 92
3 72 92 88
3 68 72 88
3 73 74 93
3 74 75 94
3 93 74 94
3 75 76 95
3 94 75 95
3 76 77 95
3 78 79 96
3 97 93 98
3 96 93 97
3 96 73 93
3 96 79 73
3 94 98 93
3 99 98 94
3 95 99 94
3 100 99 95
3 100 101 102
3 95 101 100
3 95 80 101
3 95 77 80
3 80 81 101
3 82 78 96
3 103 82 96
3 96 104 103
3 97 104 96
3 102 105 106
3 101 105 102
3 105 101 81
3 83 105 81
3 84 82 103
3 107 84 103
3 103 108 107
3 104 108 103
3 106 109 110
3 105 109 106
3 109 105 83
3 85 109 83
3 86 84 107
3 107 108 111
3 86 107 111
3 86 111 112
3 86 112 87
3 112 113 114
3 111 113 112
3 114 115 116
3 113 115 114
3 89 110 109
3 88 110 89
3 88 115 110
3 88 116 115
3 89 109 85
3 90 87 112
3 91 90 112
3 114 91 112
3 92 91 114
3 116 92 114
3 92 116 88
3 97 98 117
3 98 99 118
3 117 98 118
3 99 100 119
3 118 99 119
3 100 102 119
3 104 97 117
3 120 104 117
3 120 117 121
3 117 118 121
3 121 118 122
3 118 119 122
3 122 119 102
3 106 122 102
3 108 104 120
3 123 108 120
3 123 120 124
3 120 121 124
3 124 121 125
3 121 122 125
3 125 122 106
3 110 125 106
3 111 108 123
3 113 111 123
3 124 113 123
3 115 113 124
3 125 115 124
3 115 125 110
