ply
format ascii 1.0
comment VCGLIB generated
element vertex 126
property float x
property float y
property float z
element face 248
property list uchar int vertex_indices
end_header
-0.145680099725723267 0.0765010863542556763 -0.543838322162628174
-0.14012494683265686 0.0431822389364242554 -0.432184904813766479
-0.138818413019180298 -0.048193320631980896 -0.484517186880111694
-0.143760040402412415 -0.168261110782623291 -0.356106340885162354
-0.0364414826035499573 -0.163797125220298767 -0.323093712329864502
-0.167193412780761719 -0.34375801682472229 -0.218829110264778137
-0.0569073334336280823 -0.364137828350067139 -0.223630264401435852
-0.139938980340957642 -0.321242034435272217 -0.116620652377605438
0.0511916466057300568 0.110602401196956635 -0.44537702202796936
0.0749444961547851562 0.00483195297420024872 -0.440817862749099731
0.0663089752197265625 -0.145965471863746643 -0.279577970504760742
0.050875343382358551 -0.344192713499069214 -0.179641634225845337
0.045111972838640213 -0.449768722057342529 -0.145458370447158813
0.242725998163223267 0.156090661883354187 -0.340086996555328369
0.236749634146690369 0.0555312111973762512 -0.290643155574798584
0.287454903125762939 -0.164425447583198547 -0.275673866271972656
0.269150733947753906 -0.342973619699478149 -0.141909316182136536
0.250388771295547485 -0.410168051719665527 -0.0537433214485645294
0.344519615173339844 0.0745385736227035522 -0.313052535057067871
0.270743370056152344 -0.0956939756870269775 -0.188923463225364685
0.281198799610137939 -0.27659335732460022 -0.0554235763847827911
-0.212446838617324829 0.0130979102104902267 -0.22885480523109436
-0.155707985162734985 0.0786948949098587036 -0.357359230518341064
-0.215878471732139587 0.128637328743934631 -0.269209146499633789
-0.218715652823448181 -0.142805576324462891 -0.313328295946121216
-0.204742744565010071 -0.105166010558605194 -0.199049308896064758
-0.189514145255088806 -0.280726373195648193 -0.141960978507995605
-0.0730180740356445312 -0.257198631763458252 -0.137374192476272583
-0.0876124650239944458 -0.373819321393966675 -0.0992856398224830627
-0.181924492120742798 0.0798769369721412659 -0.259008407592773438
-0.16895611584186554 0.084565289318561554 -0.368122458457946777
-0.107685722410678864 0.156661450862884521 -0.276078164577484131
-0.100185073912143707 -0.379369646310806274 0.0888500586152076721
-0.201079040765762329 -0.438245117664337158 0.00361363077536225319
-0.212656646966934204 -0.387060046195983887 0.100294344127178192
-0.0857528001070022583 0.279493063688278198 -0.27487337589263916
-0.019323030486702919 0.250045359134674072 -0.355276644229888916
-0.0219233818352222443 -0.318592339754104614 -0.0428823605179786682
-0.00211874628439545631 -0.30743938684463501 0.0671372786164283752
0.0975974351167678833 0.153107300400733948 -0.246019750833511353
0.152562454342842102 0.243602633476257324 -0.211828544735908508
0.164637565612792969 -0.330895185470581055 0.0812812596559524536
0.211362823843955994 -0.251666456460952759 0.0183057785034179688
0.166808754205703735 0.114180117845535278 -0.166543722152709961
0.324045807123184204 0.173151567578315735 -0.224043518304824829
0.443603187799453735 0.128133565187454224 -0.172848492860794067
0.349334061145782471 -0.0282683949917554855 -0.0446776524186134338
0.45102277398109436 -0.229928255081176758 -0.00955363083630800247
0.352875381708145142 -0.252289295196533203 -0.103887908160686493
0.200460746884346008 -0.33635750412940979 -0.0532480068504810333
0.378769218921661377 0.207965478301048279 -0.136630132794380188
0.447243034839630127 0.012598138302564621 -0.0606807060539722443
0.454476654529571533 -0.206551119685173035 -0.118095472455024719
-0.271414101123809814 0.13006080687046051 -0.0373629704117774963
-0.358972549438476562 0.153340473771095276 -0.0857051163911819458
-0.223838478326797485 0.000497051049023866653 -0.0237806625664234161
-0.184160858392715454 -0.201077625155448914 0.0497698746621608734
-0.237625434994697571 -0.290764957666397095 0.0529168024659156799
-0.115098945796489716 0.0810120254755020142 -0.0412803888320922852
-0.109113052487373352 0.191527515649795532 -0.0491058789193630219
-0.124643638730049133 -0.151864200830459595 0.0714025869965553284
-0.234807327389717102 -0.172316759824752808 0.0740009546279907227
-0.0929276123642921448 0.305313766002655029 -0.0546944104135036469
-0.0828393250703811646 -0.168238610029220581 -0.0911166220903396606
0.101354911923408508 0.200613111257553101 -0.0293908510357141495
0.129675865173339844 -0.110028639435768127 -0.136761859059333801
0.138131767511367798 0.302893221378326416 -0.0489375963807106018
0.302371978759765625 0.238769739866256714 -0.0101755056530237198
0.299445778131484985 -0.0875599682331085205 0.0390382595360279083
0.134218528866767883 -0.124056532979011536 -0.0258982162922620773
0.19836743175983429 0.206912308931350708 -0.007601975928992033
0.231057792901992798 0.0192528348416090012 -0.123150743544101715
0.259254753589630127 -0.17442794144153595 -0.0166829414665699005
-0.315415054559707642 0.247244149446487427 0.142077594995498657
-0.4168224036693573 0.200534582138061523 0.126906424760818481
-0.246060684323310852 0.0780959799885749817 0.178507164120674133
-0.336882263422012329 -0.123199231922626495 0.201106056571006775
-0.281076431274414062 -0.195965200662612915 0.259891331195831299
-0.0874503403902053833 0.0970408767461776733 0.181169509887695312
-0.155165985226631165 0.176615357398986816 0.168880224227905273
-0.11001904308795929 -0.166822567582130432 0.287508964538574219
-0.0459146499633789062 -0.192491695284843445 0.197790652513504028
-0.106962516903877258 0.323449134826660156 0.165889859199523926
0.0629250183701515198 -0.0676974356174468994 0.0466750040650367737
0.105476371943950653 0.252453118562698364 0.186666443943977356
0.0789578706026077271 0.106636591255664825 -0.101532928645610809
0.113035835325717926 0.360711783170700073 0.165627598762512207
0.17345745861530304 0.191503837704658508 0.168588161468505859
0.34503936767578125 0.0238005630671977997 -0.148577690124511719
0.171721771359443665 0.0655174106359481812 -0.143117696046829224
0.233858421444892883 0.0987653955817222595 0.185721904039382935
0.0771490707993507385 0.0793733000755310059 0.0293483324348926544
0.238984420895576477 0.0258102454245090485 -0.116213358938694
-0.417219787836074829 0.228381872177124023 0.23873785138130188
-0.26353040337562561 0.0657296106219291687 0.273983865976333618
-0.3831767737865448 -0.108699038624763489 0.304119378328323364
-0.127115249633789062 0.106859266757965088 0.284493356943130493
-0.159894615411758423 0.285952985286712646 0.297084033489227295
-0.292622238397598267 0.342624753713607788 0.315891295671463013
-0.299234390258789062 0.144367679953575134 0.427028506994247437
-0.230768516659736633 -0.0624784417450428009 0.392639428377151489
-0.119131401181221008 -0.139651596546173096 0.149289757013320923
-0.161685943603515625 -0.0340004861354827881 0.284317135810852051
-0.112272895872592926 0.329223752021789551 0.278291285037994385
-0.0148312244564294815 0.319130152463912964 0.128892660140991211
-0.000301996857160702348 0.0188942123204469681 0.0579812116920948029
-0.00948111154139041901 0.117882631719112396 0.20649293065071106
0.0244649238884449005 0.270766466856002808 0.113281801342964172
0.131649971008300781 0.179849222302436829 0.228588968515396118
0.155347183346748352 0.148616611957550049 -0.0320180244743824005
0.203666672110557556 0.0877388790249824524 0.128993183374404907
0.170497894287109375 0.051081828773021698 0.188407689332962036
0.298609733581542969 0.159428372979164124 0.123411215841770172
0.103619888424873352 0.0109390411525964737 -0.0236048288643360138
0.102012947201728821 0.184620320796966553 0.0215057525783777237
0.278073936700820923 -0.0259148404002189636 0.112888611853122711
0.290644943714141846 0.0769535452127456665 -0.0329681225121021271
-0.245529800653457642 0.307325243949890137 0.226958781480789185
-0.277473121881484985 0.103355221450328827 0.32534518837928772
-0.119493797421455383 -0.029927009716629982 0.386438757181167603
-0.0759553909301757812 0.230797871947288513 0.106213085353374481
-0.119434989988803864 0.0224684178829193115 0.178766846656799316
0.0416914597153663635 0.106441251933574677 0.305494844913482666
0.0687042847275733948 0.0910240039229393005 0.209501177072525024
0.0424051284790039062 -0.0549624599516391754 0.039994318038225174
0.202385574579238892 -0.00555178383365273476 0.190893009305000305
3 0 1 2
3 1 3 4
3 2 1 4
3 3 5 6
3 4 3 6
3 5 7 6
3 0 8 9
3 1 0 9
3 9 10 1
3 1 10 3
3 10 11 3
3 3 11 5
3 5 11 12
3 7 5 12
3 8 13 14
3 9 8 14
3 14 15 9
3 9 15 10
3 15 16 10
3 10 16 11
3 11 16 17
3 12 11 17
3 14 13 18
3 15 14 18
3 19 15 18
3 16 15 19
3 20 16 19
3 16 20 17
3 21 22 23
3 22 24 25
3 23 22 25
3 24 26 27
3 25 24 27
3 26 28 27
3 29 30 31
3 2 22 21
3 0 2 21
3 0 21 31
3 0 31 30
3 4 22 2
3 24 22 4
3 6 24 4
3 26 24 6
3 26 32 28
3 6 32 26
3 6 33 32
3 6 7 33
3 33 34 32
3 29 35 36
3 30 29 36
3 36 0 30
3 8 0 36
3 12 33 7
3 37 33 12
3 33 37 38
3 34 33 38
3 35 39 40
3 36 35 40
3 40 8 36
3 13 8 40
3 17 37 12
3 41 37 17
3 37 41 42
3 38 37 42
3 40 39 43
3 43 44 45
3 40 43 45
3 40 45 18
3 40 18 13
3 18 46 19
3 45 46 18
3 19 47 20
3 46 47 19
3 48 49 41
3 47 48 41
3 47 41 17
3 47 17 20
3 41 49 42
3 45 44 50
3 46 45 50
3 51 46 50
3 47 46 51
3 52 47 51
3 47 52 48
3 53 21 23
3 54 53 23
3 23 25 54
3 25 55 54
3 25 27 55
3 27 56 55
3 28 57 56
3 27 28 56
3 58 29 31
3 59 58 31
3 31 53 59
3 21 53 31
3 60 28 32
3 57 28 60
3 34 61 60
3 32 34 60
3 35 29 62
3 62 29 58
3 38 63 34
3 63 61 34
3 39 35 64
3 64 35 62
3 42 65 38
3 65 63 38
3 66 43 39
3 64 66 39
3 44 66 67
3 43 66 44
3 68 49 48
3 69 49 68
3 49 69 65
3 42 49 65
3 70 50 44
3 67 70 44
3 50 70 51
3 51 70 71
3 51 71 52
3 52 71 72
3 52 72 68
3 48 52 68
3 73 53 54
3 74 73 54
3 54 55 74
3 55 75 74
3 55 56 75
3 56 76 75
3 57 77 76
3 56 57 76
3 78 58 59
3 79 78 59
3 59 73 79
3 53 73 59
3 80 57 60
3 77 57 80
3 61 81 80
3 60 61 80
3 62 58 82
3 82 58 78
3 63 83 61
3 83 81 61
3 64 62 84
3 84 62 82
3 65 85 63
3 85 83 63
3 86 66 64
3 84 86 64
3 67 86 87
3 66 86 67
3 88 69 68
3 89 69 88
3 69 89 85
3 65 69 85
3 90 70 67
3 87 90 67
3 70 90 71
3 71 90 91
3 71 91 72
3 72 91 92
3 72 92 88
3 68 72 88
3 73 74 93
3 74 75 94
3 93 74 94
3 75 76 95
3 94 75 95
3 76 77 95
3 78 79 96
3 97 93 98
3 96 93 97
3 96 73 93
3 96 79 73
3 94 98 93
3 99 98 94
3 95 99 94
3 100 99 95
3 100 101 102
3 95 101 100
3 95 80 101
3 95 77 80
3 80 81 101
3 82 78 96
3 103 82 96
3 96 104 103
3 97 104 96
3 102 105 106
3 101 105 102
3 105 101 81
3 83 105 81
3 84 82 103
3 107 84 103
3 103 108 107
3 104 108 103
3 106 109 110
3 105 109 106
3 109 105 83
3 85 109 83
3 86 84 107
3 107 108 111
3 86 107 111
3 86 111 112
3 86 112 87
3 112 113 114
3 111 113 112
3 114 115 116
3 113 115 114
3 89 110 109
3 88 110 89
3 88 115 110
3 88 116 115
3 89 109 85
3 90 87 112
3 91 90 112
3 114 91 112
3 92 91 114
3 116 92 114
3 92 116 88
3 97 98 117
3 98 99 118
3 117 98 118
3 99 100 119
3 118 99 119
3 100 102 119
3 104 97 117
3 120 104 117
3 120 117 121
3 117 118 121
3 121 118 122
3 118 119 122
3 122 119 102
3 106 122 102
3 108 104 120
3 123 108 120
3 123 120 124
3 120 121 124
3 124 121 125
3 121 122 125
3 125 122 106
3 110 125 106
3 111 108 123
3 113 111 123
3 124 113 123
3 115 113 124
3 125 115 124
3 115 125 110
