ply
format ascii 1.0
comment VCGLIB generated
element vertex 126
property float x
property float y
property float z
element face 248
property list uchar int vertex_indices
end_header
-0.297315776348114014 0.403588235378265381 -0.397374629974365234
-0.223685175180435181 0.328721195459365845 -0.343357205390930176
-0.249805450439453125 0.287089139223098755 -0.233948007225990295
-0.315610706806182861 0.0716908425092697144 -0.429335296154022217
-0.273702800273895264 0.0145359635353088379 -0.290826886892318726
-0.266713231801986694 -0.147425517439842224 -0.26594465970993042
-0.311981528997421265 -0.255039602518081665 -0.345768272876739502
-0.235321730375289917 -0.248154863715171814 -0.179740071296691895
-0.043792724609375 0.50217735767364502 -0.530385315418243408
-0.026534687727689743 0.356486737728118896 -0.556313753128051758
-0.0285599436610937119 0.0543857663869857788 -0.515162050724029541
-0.041297566145658493 -0.213269993662834167 -0.429856538772583008
-0.024069005623459816 -0.333139985799789429 -0.33458903431892395
0.225162506103515625 0.480250805616378784 -0.402279973030090332
0.160387203097343445 0.360054761171340942 -0.347611904144287109
0.163626238703727722 0.0846669971942901611 -0.312693327665328979
0.208268597722053528 -0.189080938696861267 -0.295644670724868774
0.257122725248336792 -0.290643870830535889 -0.337328463792800903
0.305416792631149292 0.357561498880386353 -0.351107329130172729
0.309137850999832153 0.104115098714828491 -0.332334905862808228
0.33846592903137207 -0.15003502368927002 -0.274321377277374268
-0.539994657039642334 0.414557814598083496 -0.0744477137923240662
-0.465908050537109375 0.297034174203872681 -0.171798795461654663
-0.552590072154998779 0.2674979567527771 -0.0657978877425193787
-0.476859688758850098 0.0161704644560813904 -0.161378383636474609
-0.423792064189910889 0.00852536968886852264 -0.0286095794290304184
-0.475739568471908569 -0.265308350324630737 -0.184837460517883301
-0.448832064867019653 -0.273376375436782837 -0.0521341226994991302
-0.516598403453826904 -0.401709556579589844 -0.0680598318576812744
-0.212962403893470764 0.52504420280456543 -0.124800853431224823
-0.253965198993682861 0.456872910261154175 -0.224320888519287109
-0.321154147386550903 0.474576443433761597 -0.0629674270749092102
-0.371267139911651611 -0.578872025012969971 -0.0747253671288490295
-0.279360681772232056 -0.448498845100402832 -0.0819297283887863159
-0.228229865431785583 -0.580506801605224609 -0.05417671799659729
-0.00520012574270367622 0.678835034370422363 -0.211505889892578125
-0.003814697265625 0.620133757591247559 -0.328039675951004028
0.00557986181229352951 -0.492122173309326172 -0.176596850156784058
0.00731381494551897049 -0.406618177890777588 -0.0762945935130119324
0.246030628681182861 0.590307950973510742 -0.214587986469268799
0.270678788423538208 0.687419295310974121 -0.353499323129653931
0.283872425556182861 -0.447167456150054932 -0.16780051589012146
0.275927454233169556 -0.359932214021682739 -0.0517036691308021545
0.327307939529418945 0.692202091217041016 -0.180708274245262146
0.41022905707359314 0.488366514444351196 -0.14243103563785553
0.265088498592376709 0.361440420150756836 -0.114569008350372314
0.421111345291137695 0.134233459830284119 -0.134531587362289429
0.511755526065826416 -0.127765938639640808 -0.136979058384895325
0.512808024883270264 -0.226152360439300537 -0.00364520330913364887
0.397347539663314819 -0.413316249847412109 -0.0412401258945465088
0.330729037523269653 0.433405101299285889 -0.0230331849306821823
0.324925512075424194 0.139229461550712585 -0.0492382049560546875
0.408467382192611694 -0.136053666472434998 -0.0319925211369991302
-0.555163264274597168 0.437899649143218994 0.20890343189239502
-0.574042558670043945 0.304325759410858154 0.200185984373092651
-0.571949660778045654 0.0117453793063759804 0.204967796802520752
-0.538236439228057861 -0.272698491811752319 0.219303041696548462
-0.543379366397857666 -0.409961789846420288 0.219935059547424316
-0.239805743098258972 0.595084071159362793 0.151029065251350403
-0.432734042406082153 0.629523634910583496 0.185020610690116882
-0.391469419002532959 -0.577279329299926758 0.220049291849136353
-0.283600181341171265 -0.502354264259338379 0.211435228586196899
0.0280310884118080139 0.661738038063049316 0.129239127039909363
-0.0460485965013504028 -0.344823271036148071 0.209161579608917236
0.232972219586372375 0.514694690704345703 0.0572165548801422119
0.236270204186439514 -0.381263881921768188 0.234370872378349304
0.277517497539520264 0.649097025394439697 0.123415641486644745
0.479462355375289917 0.540872752666473389 0.145903497934341431
0.505794167518615723 -0.250983238220214844 0.270058006048202515
0.361974895000457764 -0.428197532892227173 0.236509054899215698
0.509523928165435791 0.403715431690216064 0.17189459502696991
0.35849308967590332 0.148329123854637146 0.245279833674430847
0.413194119930267334 -0.15278075635433197 0.248804956674575806
-0.539814352989196777 0.411969184875488281 0.490297824144363403
-0.607731521129608154 0.293144702911376953 0.484481930732727051
-0.530960738658905029 0.016679888591170311 0.492414563894271851
-0.610044658184051514 -0.262755781412124634 0.49761924147605896
-0.522252857685089111 -0.358272373676300049 0.510988414287567139
-0.253961741924285889 0.571281909942626953 0.443818122148513794
-0.383789747953414917 0.567315042018890381 0.462554782629013062
-0.393166959285736084 -0.536195158958435059 0.517885684967041016
-0.275461018085479736 -0.475036382675170898 0.497562229633331299
0.00583301857113838196 0.460643172264099121 0.406738191843032837
0.00259746192023158073 -0.41135755181312561 0.485020756721496582
0.220803335309028625 0.361573785543441772 0.291803747415542603
0.218625500798225403 -0.23204253613948822 0.469583600759506226
0.196283504366874695 0.501975476741790771 0.365887105464935303
0.411676913499832153 0.448044657707214355 0.400826692581176758
0.514418840408325195 -0.316105931997299194 0.529325187206268311
0.338223189115524292 -0.227546140551567078 0.438324540853500366
0.549191534519195557 0.401598632335662842 0.445564866065979004
0.477841109037399292 0.107976928353309631 0.513279438018798828
0.521968483924865723 -0.182509660720825195 0.510296821594238281
-0.559850156307220459 0.296389758586883545 0.618354201316833496
-0.530986785888671875 0.0174593254923820496 0.631291210651397705
-0.5901336669921875 -0.26109015941619873 0.63989943265914917
-0.249588698148727417 0.527339756488800049 0.58571469783782959
-0.284285098314285278 0.420569837093353271 0.796645104885101318
-0.429323375225067139 0.320465385913848877 0.812243521213531494
-0.472802251577377319 0.0263529065996408463 0.854732751846313477
-0.461087644100189209 -0.266133248805999756 0.829087793827056885
-0.26755937933921814 -0.494874119758605957 0.638134002685546875
-0.327389448881149292 -0.288369536399841309 0.739370882511138916
-0.0517515689134597778 0.366372197866439819 0.492160320281982422
-0.026910955086350441 0.298765271902084351 0.757156074047088623
0.00504233594983816147 -0.404472261667251587 0.626943290233612061
-0.054988861083984375 -0.205397382378578186 0.729531168937683105
0.195863887667655945 0.335302144289016724 0.434394299983978271
0.22620980441570282 0.342845231294631958 0.677179396152496338
0.268152415752410889 -0.298906564712524414 0.584018886089324951
0.222535565495491028 -0.16087891161441803 0.7612648606300354
0.376108348369598389 0.382777541875839233 0.73580479621887207
0.471919655799865723 0.374803006649017334 0.544097423553466797
0.365928292274475098 0.0950199440121650696 0.78821873664855957
0.503113448619842529 0.0932315066456794739 0.626653969287872314
0.373198747634887695 -0.193169951438903809 0.835750222206115723
0.457515716552734375 -0.195854663848876953 0.632798671722412109
-0.309833168983459473 0.328783124685287476 0.902985334396362305
-0.343936562538146973 0.0330540910363197327 0.949976980686187744
-0.338299483060836792 -0.269973516464233398 0.927743792533874512
-0.013256072998046875 0.342118054628372192 0.919291436672210693
-0.0403542928397655487 0.0532132834196090698 0.955432116985321045
-0.0501910112798213959 -0.224795103073120117 0.890233397483825684
0.250993192195892334 0.371204733848571777 0.805611610412597656
0.253555983304977417 0.0790392979979515076 0.87923818826675415
0.233723029494285583 -0.21556130051612854 0.884514510631561279
3 0 1 2
3 1 3 4
3 2 1 4
3 3 5 6
3 4 3 6
3 5 7 6
3 0 8 9
3 1 0 9
3 9 10 1
3 1 10 3
3 10 11 3
3 3 11 5
3 5 11 12
3 7 5 12
3 8 13 14
3 9 8 14
3 14 15 9
3 9 15 10
3 15 16 10
3 10 16 11
3 11 16 17
3 12 11 17
3 14 13 18
3 15 14 18
3 19 15 18
3 16 15 19
3 20 16 19
3 16 20 17
3 21 22 23
3 22 24 25
3 23 22 25
3 24 26 27
3 25 24 27
3 26 28 27
3 29 30 31
3 2 22 21
3 0 2 21
3 0 21 31
3 0 31 30
3 4 22 2
3 24 22 4
3 6 24 4
3 26 24 6
3 26 32 28
3 6 32 26
3 6 33 32
3 6 7 33
3 33 34 32
3 29 35 36
3 30 29 36
3 36 0 30
3 8 0 36
3 12 33 7
3 37 33 12
3 33 37 38
3 34 33 38
3 35 39 40
3 36 35 40
3 40 8 36
3 13 8 40
3 17 37 12
3 41 37 17
3 37 41 42
3 38 37 42
3 40 39 43
3 43 44 45
3 40 43 45
3 40 45 18
3 40 18 13
3 18 46 19
3 45 46 18
3 19 47 20
3 46 47 19
3 48 49 41
3 47 48 41
3 47 41 17
3 47 17 20
3 41 49 42
3 45 44 50
3 46 45 50
3 51 46 50
3 47 46 51
3 52 47 51
3 47 52 48
3 53 21 23
3 54 53 23
3 23 25 54
3 25 55 54
3 25 27 55
3 27 56 55
3 28 57 56
3 27 28 56
3 58 29 31
3 59 58 31
3 31 53 59
3 21 53 31
3 60 28 32
3 57 28 60
3 34 61 60
3 32 34 60
3 35 29 62
3 62 29 58
3 38 63 34
3 63 61 34
3 39 35 64
3 64 35 62
3 42 65 38
3 65 63 38
3 66 43 39
3 64 66 39
3 44 66 67
3 43 66 44
3 68 49 48
3 69 49 68
3 49 69 65
3 42 49 65
3 70 50 44
3 67 70 44
3 50 70 51
3 51 70 71
3 51 71 52
3 52 71 72
3 52 72 68
3 48 52 68
3 73 53 54
3 74 73 54
3 54 55 74
3 55 75 74
3 55 56 75
3 56 76 75
3 57 77 76
3 56 57 76
3 78 58 59
3 79 78 59
3 59 73 79
3 53 73 59
3 80 57 60
3 77 57 80
3 61 81 80
3 60 61 80
3 62 58 82
3 82 58 78
3 63 83 61
3 83 81 61
3 64 62 84
3 84 62 82
3 65 85 63
3 85 83 63
3 86 66 64
3 84 86 64
3 67 86 87
3 66 86 67
3 88 69 68
3 89 69 88
3 69 89 85
3 65 69 85
3 90 70 67
3 87 90 67
3 70 90 71
3 71 90 91
3 71 91 72
3 72 91 92
3 72 92 88
3 68 72 88
3 73 74 93
3 74 75 94
3 93 74 94
3 75 76 95
3 94 75 95
3 76 77 95
3 78 79 96
3 97 93 98
3 96 93 97
3 96 73 93
3 96 79 73
3 94 98 93
3 99 98 94
3 95 99 94
3 100 99 95
3 100 101 102
3 95 101 100
3 95 80 101
3 95 77 80
3 80 81 101
3 82 78 96
3 103 82 96
3 96 104 103
3 97 104 96
3 102 105 106
3 101 105 102
3 105 101 81
3 83 105 81
3 84 82 103
3 107 84 103
3 103 108 107
3 104 108 103
3 106 109 110
3 105 109 106
3 109 105 83
3 85 109 83
3 86 84 107
3 107 108 111
3 86 107 111
3 86 111 112
3 86 112 87
3 112 113 114
3 111 113 112
3 114 115 116
3 113 115 114
3 89 110 109
3 88 110 89
3 88 115 110
3 88 116 115
3 89 109 85
3 90 87 112
3 91 90 112
3 114 91 112
3 92 91 114
3 116 92 114
3 92 116 88
3 97 98 117
3 98 99 118
3 117 98 118
3 99 100 119
3 118 99 119
3 100 102 119
3 104 97 117
3 120 104 117
3 120 117 121
3 117 118 121
3 121 118 122
3 118 119 122
3 122 119 102
3 106 122 102
3 108 104 120
3 123 108 120
3 123 120 124
3 120 121 124
3 124 121 125
3 121 122 125
3 125 122 106
3 110 125 106
3 111 108 123
3 113 111 123
3 124 113 123
3 115 113 124
3 125 115 124
3 115 125 110
