ply
format ascii 1.0
comment VCGLIB generated
element vertex 126
property float x
property float y
property float z
element face 248
property list uchar int vertex_indices
end_header
-0.42310333251953125 0.149800613522529602 -0.38547024130821228
-0.4270782470703125 0.135192111134529114 -0.507305920124053955
-0.52941131591796875 0.102817416191101074 -0.418784946203231812
-0.337785094976425171 -0.0747048407793045044 -0.496806293725967407
-0.399599701166152954 -0.0863184556365013123 -0.405103355646133423
-0.168966934084892273 -0.0455006174743175507 -0.352841377258300781
-0.234347030520439148 0.0129798008129000664 -0.287385940551757812
-0.153509780764579773 -0.0916475355625152588 -0.256337165832519531
-0.229044601321220398 0.218202635645866394 -0.356343895196914673
-0.205427810549736023 0.214061066508293152 -0.467721939086914062
-0.131098434329032898 0.00261323782615363598 -0.470286518335342407
-0.0479634590446949005 -0.207127511501312256 -0.442719310522079468
-0.025455474853515625 -0.254400193691253662 -0.343168735504150391
-0.0449536629021167755 0.307785481214523315 -0.277692794799804688
-0.000918070494662970304 0.289176315069198608 -0.383544445037841797
0.076048530638217926 0.0804565474390983582 -0.422151565551757812
0.160715743899345398 -0.127067819237709045 -0.433237224817276001
0.193284347653388977 -0.209409013390541077 -0.364395618438720703
0.081174217164516449 0.306768298149108887 -0.313165336847305298
0.173044845461845398 0.117660403251647949 -0.38821759819984436
0.257762908935546875 -0.0900064632296562195 -0.392327159643173218
-0.6031951904296875 0.16535109281539917 -0.145627811551094055
-0.511236846446990967 0.123030982911586761 -0.237932369112968445
-0.498943328857421875 0.103281788527965546 -0.133881568908691406
-0.500225067138671875 -0.0955351963639259338 -0.254371315240859985
-0.517602264881134033 -0.11943807452917099 -0.147766426205635071
-0.283938080072402954 -0.150803223252296448 -0.230273082852363586
-0.300944000482559204 -0.19411681592464447 -0.142757251858711243
-0.184263870120048523 -0.197963416576385498 -0.131108596920967102
-0.36751556396484375 0.306563377380371094 -0.128182247281074524
-0.392498016357421875 0.214703083038330078 -0.206628963351249695
-0.468636840581893921 0.303217977285385132 -0.15610504150390625
-0.143370315432548523 -0.0844869241118431091 0.00373427080921828747
-0.0552419014275074005 -0.0965167656540870667 -0.108366645872592926
-0.125298812985420227 -0.167137250304222107 -0.064731597900390625
-0.29400634765625 0.109686486423015594 -0.132670566439628601
-0.203637436032295227 0.120755605399608612 -0.199666500091552734
0.00662740087136626244 -0.306558966636657715 -0.152839496731758118
0.00762049341574311256 -0.328274697065353394 -0.0102554960176348686
-0.090799964964389801 0.184102550148963928 -0.0846948623657226562
-0.110820770263671875 0.293482214212417603 -0.109260879456996918
0.228542327880859375 -0.29249158501625061 -0.206515476107597351
0.2342376708984375 -0.302431166172027588 -0.0877261161804199219
-0.0189069118350744247 0.239549055695533752 -0.0260504093021154404
0.112827301025390625 0.170204043388366699 -0.132166221737861633
0.197100326418876648 0.278709232807159424 -0.181293174624443054
0.203568771481513977 0.0626913458108901978 -0.219979926943778992
0.393948882818222046 -0.0341269783675670624 -0.288121074438095093
0.438343048095703125 -0.118532724678516388 -0.188442230224609375
0.325579315423965454 -0.248871102929115295 -0.112889446318149567
0.089199066162109375 0.275930166244506836 -0.149522468447685242
0.26309967041015625 0.141786754131317139 -0.167248725891113281
0.34420013427734375 -0.0624486543238162994 -0.194116592407226562
-0.581052124500274658 0.175962403416633606 0.0778584480285644531
-0.631654083728790283 0.10666387528181076 0.0440155677497386932
-0.51407623291015625 -0.0879399999976158142 0.0714298859238624573
-0.333831787109375 -0.216096088290214539 0.072901405394077301
-0.237363174557685852 -0.234021306037902832 0.0892771109938621521
-0.433888763189315796 0.293771833181381226 0.080975852906703949
-0.522182464599609375 0.3516998291015625 0.0700265541672706604
-0.068926490843296051 -0.25951048731803894 0.134127303957939148
-0.177469894289970398 -0.237838879227638245 0.138389900326728821
-0.320677429437637329 0.0986522361636161804 0.102865219116210938
0.0173314418643712997 -0.270593732595443726 0.222063854336738586
-0.0987091064453125 0.0298360809683799744 0.0860457420349121094
0.229246780276298523 -0.229930520057678223 0.137482956051826477
-0.006481170654296875 0.0798361077904701233 0.12363433837890625
0.026027679443359375 0.245163083076477051 0.0600716285407543182
0.464647918939590454 -0.0461735017597675323 0.0220141410827636719
0.334604889154434204 -0.181969061493873596 0.0941028594970703125
0.123358406126499176 0.305396705865859985 0.0709830895066261292
0.219799041748046875 0.104095667600631714 0.047817867249250412
0.4263916015625 0.0523978359997272491 -0.0168312396854162216
-0.631884276866912842 0.221158072352409363 0.288826137781143188
-0.565532684326171875 0.167292580008506775 0.24964316189289093
-0.400769561529159546 0.039842117577791214 0.243436500430107117
-0.277509063482284546 0.00460443459451198578 0.0747218132019042969
-0.208307906985282898 -0.0337451696395874023 0.0240661296993494034
-0.400943756103515625 0.267565876245498657 0.279283523559570312
-0.47998809814453125 0.313557147979736328 0.271284729242324829
-0.0430819205939769745 -0.0290040206164121628 0.111812591552734375
-0.1277923583984375 -0.0184364300221204758 0.16424734890460968
-0.235715225338935852 0.163013219833374023 0.297962665557861328
0.0614725761115550995 -0.0723869875073432922 0.261197090148925781
-0.068658195436000824 0.0672378167510032654 0.303918689489364624
0.265837341547012329 -0.126368671655654907 0.326535701751708984
-0.157529190182685852 0.164816856384277344 0.275261074304580688
0.00960032176226377487 0.224244877696037292 0.281556934118270874
0.480557769536972046 0.0357375442981719971 0.227098941802978516
0.373713165521621704 -0.100527673959732056 0.293631225824356079
0.110251106321811676 0.270796686410903931 0.291362613439559937
0.294785827398300171 0.289033621549606323 0.156016349792480469
0.442525237798690796 0.131986275315284729 0.190790966153144836
-0.553007781505584717 0.111119382083415985 0.335577815771102905
-0.446392059326171875 -0.0594771318137645721 0.222397804260253906
-0.303874969482421875 -0.101147174835205078 0.0500179938971996307
-0.393583923578262329 0.364439934492111206 0.334905147552490234
-0.309483855962753296 0.23527836799621582 0.247461006045341492
-0.396190643310546875 0.196770131587982178 0.332502037286758423
-0.317366272211074829 -0.0259063094854354858 0.344185680150985718
-0.206656143069267273 -0.150167405605316162 0.188786983489990234
-0.087985992431640625 0.095854640007019043 0.14905102550983429
-0.149804428219795227 -0.0333276800811290741 0.245151519775390625
-0.2486419677734375 0.239604756236076355 0.221111610531806946
-0.097700752317905426 0.297674953937530518 0.288482993841171265
0.115818023681640625 0.0367915704846382141 0.222002342343330383
0.065766654908657074 -0.114453308284282684 0.199611827731132507
-0.10761260986328125 0.0663130730390548706 0.198258087038993835
0.0304056797176599503 0.169150829315185547 0.15156872570514679
0.289616912603378296 -0.0119649805128574371 0.345376491546630859
0.173533126711845398 0.07455434650182724 0.231716632843017578
0.145411178469657898 0.167431250214576721 0.23426993191242218
0.058727264404296875 0.325431555509567261 0.207402393221855164
0.114481605589389801 0.112188279628753662 0.0209145545959472656
0.231057479977607727 0.235008120536804199 0.0900489464402198792
0.217372894287109375 -0.0371706113219261169 0.155486106872558594
0.370695739984512329 0.0639220327138900757 0.143191501498222351
-0.302748352289199829 0.243294760584831238 0.350537925958633423
-0.21781158447265625 0.0349302999675273895 0.315968364477157593
-0.112897239625453949 -0.144142135977745056 0.259783416986465454
-0.145954132080078125 0.3157958984375 0.199741840362548828
-0.0251719150692224503 0.133647873997688293 0.230582401156425476
0.090338386595249176 -0.0475493185222148895 0.282096236944198608
0.032703399658203125 0.183951854705810547 0.259024143218994141
0.138638809323310852 0.195638597011566162 0.0796340331435203552
0.272800445556640625 0.0445325486361980438 0.184970542788505554
3 0 1 2
3 1 3 4
3 2 1 4
3 3 5 6
3 4 3 6
3 5 7 6
3 0 8 9
3 1 0 9
3 9 10 1
3 1 10 3
3 10 11 3
3 3 11 5
3 5 11 12
3 7 5 12
3 8 13 14
3 9 8 14
3 14 15 9
3 9 15 10
3 15 16 10
3 10 16 11
3 11 16 17
3 12 11 17
3 14 13 18
3 15 14 18
3 19 15 18
3 16 15 19
3 20 16 19
3 16 20 17
3 21 22 23
3 22 24 25
3 23 22 25
3 24 26 27
3 25 24 27
3 26 28 27
3 29 30 31
3 2 22 21
3 0 2 21
3 0 21 31
3 0 31 30
3 4 22 2
3 24 22 4
3 6 24 4
3 26 24 6
3 26 32 28
3 6 32 26
3 6 33 32
3 6 7 33
3 33 34 32
3 29 35 36
3 30 29 36
3 36 0 30
3 8 0 36
3 12 33 7
3 37 33 12
3 33 37 38
3 34 33 38
3 35 39 40
3 36 35 40
3 40 8 36
3 13 8 40
3 17 37 12
3 41 37 17
3 37 41 42
3 38 37 42
3 40 39 43
3 43 44 45
3 40 43 45
3 40 45 18
3 40 18 13
3 18 46 19
3 45 46 18
3 19 47 20
3 46 47 19
3 48 49 41
3 47 48 41
3 47 41 17
3 47 17 20
3 41 49 42
3 45 44 50
3 46 45 50
3 51 46 50
3 47 46 51
3 52 47 51
3 47 52 48
3 53 21 23
3 54 53 23
3 23 25 54
3 25 55 54
3 25 27 55
3 27 56 55
3 28 57 56
3 27 28 56
3 58 29 31
3 59 58 31
3 31 53 59
3 21 53 31
3 60 28 32
3 57 28 60
3 34 61 60
3 32 34 60
3 35 29 62
3 62 29 58
3 38 63 34
3 63 61 34
3 39 35 64
3 64 35 62
3 42 65 38
3 65 63 38
3 66 43 39
3 64 66 39
3 44 66 67
3 43 66 44
3 68 49 48
3 69 49 68
3 49 69 65
3 42 49 65
3 70 50 44
3 67 70 44
3 50 70 51
3 51 70 71
3 51 71 52
3 52 71 72
3 52 72 68
3 48 52 68
3 73 53 54
3 74 73 54
3 54 55 74
3 55 75 74
3 55 56 75
3 56 76 75
3 57 77 76
3 56 57 76
3 78 58 59
3 79 78 59
3 59 73 79
3 53 73 59
3 80 57 60
3 77 57 80
3 61 81 80
3 60 61 80
3 62 58 82
3 82 58 78
3 63 83 61
3 83 81 61
3 64 62 84
3 84 62 82
3 65 85 63
3 85 83 63
3 86 66 64
3 84 86 64
3 67 86 87
3 66 86 67
3 88 69 68
3 89 69 88
3 69 89 85
3 65 69 85
3 90 70 67
3 87 90 67
3 70 90 71
3 71 90 91
3 71 91 72
3 72 91 92
3 72 92 88
3 68 72 88
3 73 74 93
3 74 75 94
3 93 74 94
3 75 76 95
3 94 75 95
3 76 77 95
3 78 79 96
3 97 93 98
3 96 93 97
3 96 73 93
3 96 79 73
3 94 98 93
3 99 98 94
3 95 99 94
3 100 99 95
3 100 101 102
3 95 101 100
3 95 80 101
3 95 77 80
3 80 81 101
3 82 78 96
3 103 82 96
3 96 104 103
3 97 104 96
3 102 105 106
3 101 105 102
3 105 101 81
3 83 105 81
3 84 82 103
3 107 84 103
3 103 108 107
3 104 108 103
3 106 109 110
3 105 109 106
3 109 105 83
3 85 109 83
3 86 84 107
3 107 108 111
3 86 107 111
3 86 111 112
3 86 112 87
3 112 113 114
3 111 113 112
3 114 115 116
3 113 115 114
3 89 110 109
3 88 110 89
3 88 115 110
3 88 116 115
3 89 109 85
3 90 87 112
3 91 90 112
3 114 91 112
3 92 91 114
3 116 92 114
3 92 116 88
3 97 98 117
3 98 99 118
3 117 98 118
3 99 100 119
3 118 99 119
3 100 102 119
3 104 97 117
3 120 104 117
3 120 117 121
3 117 118 121
3 121 118 122
3 118 119 122
3 122 119 102
3 106 122 102
3 108 104 120
3 123 108 120
3 123 120 124
3 120 121 124
3 124 121 125
3 121 122 125
3 125 122 106
3 110 125 106
3 111 108 123
3 113 111 123
3 124 113 123
3 115 113 124
3 125 115 124
3 115 125 110
